<svg width="88" height="123" viewBox="0 0 88 123" fill="none" xmlns="http://www.w3.org/2000/svg">
<g clip-path="url(#clip0_1047_3808)">
<path d="M38.8755 105.523C38.8755 95.9117 31.0839 88.1201 21.4724 88.1201C11.861 88.1201 4.06934 95.9117 4.06934 105.523C4.06934 115.135 11.861 122.926 21.4724 122.926C31.0839 122.926 38.8755 115.135 38.8755 105.523Z" fill="#FEE4D5"/>
<path d="M23.831 83.1104C21.8725 84.3202 18.3099 84.3788 16.0651 81.1429C13.8203 77.9069 15.2585 75.8777 16.3795 74.2237C18.488 71.8129 22.8493 71.396 25.0941 74.632C26.6858 77.4518 26.3765 81.1598 23.831 83.1104Z" fill="#FEE4D5"/>
<path d="M39.7627 88.48C37.8041 89.6897 34.2415 89.7484 31.9967 86.5125C29.752 83.2765 31.1902 81.2473 32.3112 79.5933C34.4197 77.1825 38.781 76.7657 41.0258 80.0016C42.6175 82.8214 42.3081 86.5294 39.7627 88.48Z" fill="#FEE4D5"/>
<path d="M50.6806 101.308C48.7221 102.517 45.1595 102.576 42.9147 99.3401C40.6699 96.1042 42.1081 94.075 43.2292 92.421C45.3376 90.0101 49.6989 89.5933 51.9438 92.8293C53.5354 95.6491 53.2261 99.3571 50.6806 101.308Z" fill="#FEE4D5"/>
<path d="M10.5048 89.1804C8.54633 90.3902 4.98371 90.4489 2.73893 87.2129C0.49415 83.9769 1.93235 81.9478 3.0534 80.2937C5.16182 77.883 9.52316 77.4661 11.768 80.7021C13.3596 83.5219 13.0503 87.2299 10.5048 89.1804Z" fill="#FEE4D5"/>
</g>
<g clip-path="url(#clip1_1047_3808)">
<path d="M60.917 48.2446C60.917 41.837 66.1114 36.6426 72.519 36.6426C78.9267 36.6426 84.1211 41.837 84.1211 48.2446C84.1211 54.6523 78.9267 59.8467 72.519 59.8467C66.1114 59.8467 60.917 54.6523 60.917 48.2446Z" fill="#FEE4D5"/>
<path d="M70.946 33.3026C72.2517 34.1091 74.6267 34.1482 76.1233 31.9909C77.6198 29.8336 76.661 28.4808 75.9136 27.3781C74.508 25.7709 71.6005 25.493 70.1039 27.6503C69.0428 29.5302 69.249 32.0022 70.946 33.3026Z" fill="#FEE4D5"/>
<path d="M60.3249 36.8824C61.6306 37.6889 64.0056 37.728 65.5022 35.5707C66.9987 33.4134 66.0399 32.0606 65.2925 30.958C63.8869 29.3508 60.9794 29.0729 59.4828 31.2302C58.4217 33.11 58.6279 35.582 60.3249 36.8824Z" fill="#FEE4D5"/>
<path d="M53.0466 45.4342C54.3523 46.2407 56.7273 46.2798 58.2239 44.1225C59.7204 41.9652 58.7616 40.6124 58.0142 39.5097C56.6086 37.9025 53.701 37.6246 52.2045 39.7819C51.1434 41.6618 51.3496 44.1338 53.0466 45.4342Z" fill="#FEE4D5"/>
<path d="M79.8308 37.3495C81.1364 38.156 83.5115 38.1951 85.008 36.0378C86.5046 33.8804 85.5458 32.5277 84.7984 31.425C83.3928 29.8178 80.4852 29.5399 78.9887 31.6972C77.9276 33.5771 78.1338 36.0491 79.8308 37.3495Z" fill="#FEE4D5"/>
</g>
<g clip-path="url(#clip2_1047_3808)">
<path d="M21.6873 16.9313C21.6873 12.1256 17.7915 8.22974 12.9857 8.22974C8.18 8.22974 4.28418 12.1256 4.28418 16.9313C4.28418 21.737 8.18 25.6328 12.9857 25.6328C17.7915 25.6328 21.6873 21.737 21.6873 16.9313Z" fill="#FEE4D5"/>
<path d="M14.165 5.72475C13.1858 6.32964 11.4045 6.35896 10.282 4.741C9.15968 3.123 9.87878 2.10841 10.4393 1.2814C11.4935 0.0760037 13.6742 -0.132432 14.7966 1.48555C15.5924 2.89546 15.4378 4.74948 14.165 5.72475Z" fill="#FEE4D5"/>
<path d="M22.1308 8.40954C21.1516 9.01443 19.3703 9.04375 18.2479 7.42579C17.1255 5.80782 17.8446 4.79322 18.4051 3.96621C19.4593 2.76082 21.64 2.55238 22.7624 4.17036C23.5583 5.58028 23.4036 7.43427 22.1308 8.40954Z" fill="#FEE4D5"/>
<path d="M27.5898 14.8234C26.6106 15.4283 24.8293 15.4576 23.7069 13.8396C22.5845 12.2216 23.3036 11.207 23.8641 10.38C24.9183 9.17462 27.099 8.96622 28.2214 10.5842C29.0172 11.9941 28.8626 13.8481 27.5898 14.8234Z" fill="#FEE4D5"/>
<path d="M7.50193 8.75989C6.52268 9.36478 4.74137 9.39411 3.61898 7.77614C2.49659 6.15813 3.21569 5.14357 3.77621 4.31655C4.83042 3.11116 7.01109 2.90272 8.13349 4.52072C8.92934 5.93063 8.77467 7.78462 7.50193 8.75989Z" fill="#FEE4D5"/>
</g>
<defs>
<clipPath id="clip0_1047_3808">
<rect width="52.2093" height="51.3391" fill="white" transform="translate(1.39551 71.6609)"/>
</clipPath>
<clipPath id="clip1_1047_3808">
<rect width="34.8062" height="34.2261" fill="white" transform="matrix(-1 1.64207e-09 -1.62698e-09 1 85.9033 25.6697)"/>
</clipPath>
<clipPath id="clip2_1047_3808">
<rect width="26.1046" height="25.6696" fill="white" transform="translate(2.94727)"/>
</clipPath>
</defs>
</svg>
