<svg width="273" height="82" viewBox="0 0 273 82" fill="none" xmlns="http://www.w3.org/2000/svg">
<g clip-path="url(#clip0_112_308)">
<path d="M50.6424 39.4841C53.2998 39.4841 55.4541 37.3478 55.4541 34.7126C55.4541 32.0774 53.2998 29.9411 50.6424 29.9411C47.9851 29.9411 45.8308 32.0774 45.8308 34.7126C45.8308 37.3478 47.9851 39.4841 50.6424 39.4841Z" fill="#FC762F"/>
<path d="M93.9872 39.4841C96.6446 39.4841 98.7988 37.3478 98.7988 34.7126C98.7988 32.0774 96.6446 29.9411 93.9872 29.9411C91.3298 29.9411 89.1755 32.0774 89.1755 34.7126C89.1755 37.3478 91.3298 39.4841 93.9872 39.4841Z" fill="#FC762F"/>
<path d="M22.0332 12.9228L22.6246 12.7836C22.8953 12.6643 23.186 12.5848 23.4867 12.555C24.7197 12.2568 26.0128 12.0281 27.3561 11.879C28.6993 11.7299 29.8421 11.6504 30.7744 11.6504C31.3457 11.6504 31.8169 11.71 32.1777 11.8293C32.3281 11.8592 32.5988 11.9983 32.9897 12.2369C33.3506 12.5649 33.4909 12.9129 33.4007 13.2707C33.2503 13.6286 32.9496 13.9467 32.4985 14.2151C32.1076 14.3344 31.0651 14.5034 29.371 14.7121C28.1981 14.8016 26.484 15.0004 24.2586 15.2986C22.9955 15.567 22.0432 15.7062 21.4117 15.7062C21.0809 15.7062 20.69 15.5571 20.2389 15.2588C19.9081 14.9606 19.7377 14.7022 19.7377 14.4934L19.8279 14.1356C20.2188 13.6584 20.9606 13.2508 22.0432 12.9228H22.0332ZM23.0256 20.5572C23.0256 20.259 23.0858 20.0303 23.2061 19.8812C23.3865 19.4339 24.439 19.0164 26.3737 18.6287C26.9752 18.5392 27.5766 18.4895 28.1881 18.4895C28.8497 18.4895 29.5013 18.5392 30.1328 18.6287C31.1252 18.8375 31.6264 19.3146 31.6264 20.0602C31.6264 20.3584 31.2856 20.6168 30.6039 20.8256C29.9223 21.0343 28.7996 21.263 27.2358 21.5015C25.9727 21.6506 25.0906 21.7302 24.6094 21.7302C24.1283 21.7302 23.7674 21.6705 23.5268 21.5512C23.2862 21.4021 23.1158 21.1636 23.0256 20.8355V20.5671V20.5572ZM24.1082 30.3387C25.0405 29.8616 25.8324 29.5435 26.4639 29.3944C27.5165 29.0365 28.5891 28.8576 29.6817 28.8576C30.2832 28.8576 30.7443 28.9172 31.0651 29.0365C31.3858 29.1558 31.6866 29.3844 31.9973 29.7125C32.6288 30.3685 33.0198 31.1837 33.1701 32.138C33.2904 32.7344 33.3506 33.3308 33.3506 33.9372C33.3506 34.8021 33.1902 35.4979 32.8794 36.0248C32.5587 36.5516 32.0875 36.9293 31.456 37.1679C30.8846 37.4065 29.5815 37.5258 27.5666 37.5258C25.662 37.5258 24.6295 37.4264 24.439 37.2077C23.5068 36.3727 23.0356 35.1003 23.0356 33.3905C23.0356 31.8994 23.3965 30.8755 24.1183 30.3387H24.1082ZM25.8725 23.7382C27.0153 23.4996 27.9876 23.3803 28.7695 23.3803C29.792 23.3803 30.5839 23.5592 31.1252 23.9171C31.5763 24.1557 31.8068 24.3943 31.8068 24.6328C31.8068 24.7819 31.7166 24.9907 31.5362 25.2591C31.2956 25.5275 30.8746 25.7263 30.2731 25.8456C29.6717 25.9649 28.8096 26.0245 27.6969 26.0245C26.073 26.0245 25.0706 25.8158 24.7097 25.3983C24.2887 25.0702 24.1985 24.772 24.439 24.5036C24.6195 24.2054 25.1006 23.9469 25.8825 23.7382H25.8725ZM26.4639 4.80133C26.8248 4.80133 27.2759 5.11943 27.8172 5.74569C28.5089 6.40177 28.96 7.34612 29.1705 8.56882C29.2005 8.6881 29.2106 8.83721 29.2106 9.01614C29.2106 9.2249 29.1705 9.45353 29.0803 9.69211C28.96 9.87104 28.8497 9.99032 28.7595 10.05C28.6693 10.1096 28.549 10.1394 28.3986 10.1394C28.158 10.1394 27.6869 9.78157 26.9952 9.06585C26.3336 8.14137 25.8926 7.43559 25.682 6.95844C25.5317 6.57076 25.4515 6.25266 25.4515 6.01408C25.4515 5.80533 25.5116 5.60652 25.6319 5.42759C25.9026 5.01008 26.1732 4.80133 26.4439 4.80133H26.4639ZM26.6444 34.4044C26.7947 34.5138 27.2057 34.5635 27.8673 34.5635H28.3685C29.0001 34.5635 29.391 34.4939 29.5414 34.3349C29.7519 34.1261 29.8621 33.8975 29.8621 33.6589C29.8621 33.48 29.8421 33.3408 29.812 33.2513C29.812 33.1917 29.782 33.0227 29.7218 32.7543C29.6617 32.4859 29.5714 32.2771 29.4512 32.128C29.2106 31.9789 28.97 31.8994 28.7294 31.8994C28.6392 31.8994 28.3485 31.9292 27.8673 31.9889C26.905 32.0783 26.4238 32.5555 26.4238 33.4203C26.4238 33.9571 26.504 34.2851 26.6544 34.3846L26.6444 34.4044ZM47.1038 35.4581C46.3821 35.4581 45.4899 35.2593 44.4374 34.8716C43.2345 34.5734 42.4125 34.2255 41.9915 33.8378C41.6607 33.5396 41.4903 33.1619 41.4903 32.7145C41.4903 32.3865 41.5103 32.1479 41.5604 31.9988C41.6005 31.8497 41.7008 31.7404 41.8511 31.6807C42.0917 31.5912 42.3824 31.5415 42.7132 31.5415C43.0741 31.5415 43.5252 31.5813 44.0665 31.6807L45.5601 31.7702C45.921 31.7702 46.1515 31.7105 46.2417 31.5912C46.4523 31.3825 46.6527 30.2592 46.8332 28.2214L47.1038 24.7621L47.6451 20.8156C47.6451 21.084 47.7053 20.4081 47.8256 18.7977C47.9158 17.8434 47.9659 17.1376 47.9659 16.6903C47.9659 16.3324 47.9258 16.0939 47.8256 15.9746C47.7354 15.8851 47.4547 15.8255 46.9936 15.7956C46.5224 15.7658 45.9611 15.7559 45.2995 15.7559C43.9763 15.7559 42.6731 15.8354 41.4101 15.9845C40.5079 16.1038 40.0267 16.1634 39.9666 16.1634C39.726 16.1634 39.5255 16.1237 39.3751 16.0243C39.0443 16.0243 38.8739 15.736 38.8739 15.1694C38.8739 14.5729 39.315 14.066 40.1871 13.6385C41.5103 13.1017 43.5352 12.7439 46.2518 12.5649C47.9158 12.3562 49.8104 12.2767 51.9556 12.3363C53.0382 12.3363 53.8902 12.4158 54.4917 12.5649C54.9729 12.6544 55.2936 12.7737 55.444 12.9228C55.6244 13.1017 55.7146 13.4198 55.7146 13.8672C55.7146 14.4338 55.5242 14.8513 55.1533 15.0998C54.7724 15.3582 54.1308 15.4775 53.2286 15.4775C51.9957 15.4775 51.2338 15.6565 50.9632 16.0143C50.8128 16.3722 50.7527 17.4458 50.7827 19.245C50.8128 19.8415 50.8328 20.6765 50.8328 21.76C50.8328 22.9827 50.8028 23.8575 50.7426 24.3644C50.4419 28.8278 50.1412 31.7702 49.8405 33.2016C49.66 34.1261 49.249 34.7623 48.6175 35.0903C48.1965 35.3289 47.6953 35.4482 47.1239 35.4482L47.1038 35.4581Z" fill="#534741"/>
<path d="M63.1226 13.9168C63.3932 10.0599 63.6639 7.95246 63.9345 7.58465C64.115 7.25661 64.4057 7.04786 64.7966 6.9584L67.1924 6.28244C68.5457 5.89475 69.7586 5.69594 70.8112 5.69594C72.4652 5.69594 73.618 6.22279 74.2495 7.26655C74.4901 7.80335 74.6104 8.94652 74.6104 10.6762C74.6104 13.7876 74.2796 15.7061 73.618 16.4218C72.8962 17.227 71.162 17.6346 68.4154 17.6346C67.032 17.6346 66.2702 17.6942 66.1499 17.8135C66.0898 17.9925 66.0096 20.2192 65.9193 24.5036C65.769 31.1439 65.6487 34.8815 65.5585 35.7265C65.4983 36.5317 65.3279 37.1977 65.0372 37.7047C64.7465 38.2116 64.4157 38.4701 64.0147 38.4701C63.6839 38.4701 63.3632 38.3011 63.0624 37.9731C62.6414 37.5257 62.4309 35.8657 62.4309 32.9928C62.4309 32.0385 62.461 30.7164 62.5211 29.0464L62.5612 26.3525C62.6514 21.9289 62.8319 17.7837 63.1025 13.9168H63.1226ZM66.5609 10.6364L67.1523 10.5867C68.4154 10.4376 69.2173 10.3481 69.5481 10.3183L71.1821 10.1792V8.83717H69.7286C67.7638 8.83717 66.601 9.00616 66.2401 9.3342C66.18 9.39384 66.1499 9.50319 66.1499 9.6523C66.1499 9.68212 66.18 9.85111 66.2401 10.1493C66.3604 10.4475 66.4707 10.6165 66.5609 10.6464V10.6364ZM66.3805 14.8512C66.3805 14.8512 67.1323 14.8413 68.5557 14.7121C70.0293 14.563 70.8513 14.4536 71.0016 14.394C71.0618 14.394 71.0918 14.3443 71.0918 14.2548L71.0016 13.8472C71.0016 13.6385 70.8813 13.4993 70.6408 13.4397C70.5505 13.4098 70.2298 13.3999 69.6885 13.3999L68.6961 13.3502C67.2425 13.3502 66.4907 13.3701 66.4306 13.3999C66.3704 13.4595 66.3103 13.6981 66.2501 14.1156C66.2501 14.5033 66.2902 14.7419 66.3905 14.8314L66.3805 14.8512ZM72.2246 20.6864C73.0366 19.8215 73.6681 19.2549 74.1292 18.9766C74.46 18.7678 74.7908 18.6585 75.1216 18.6585C75.3922 18.6585 75.6028 18.738 75.7531 18.8871C75.9035 19.0362 75.9837 19.235 75.9837 19.4736C75.9837 19.6525 75.9636 19.7917 75.9436 19.8812C75.8534 20.2987 75.6529 20.6864 75.3521 21.0442C75.2319 21.2828 75.0414 21.5413 74.7908 21.8097C74.5402 22.078 74.3597 22.257 74.2695 22.3464C73.7583 22.7938 73.3774 23.092 73.1368 23.2411C72.7158 23.4499 72.3248 23.5592 71.964 23.5592C71.8136 23.5592 71.6933 23.5493 71.6031 23.5095C71.2121 23.3007 71.0117 22.9826 71.0117 22.5651C71.0117 22.1476 71.4226 21.5214 72.2346 20.6764L72.2246 20.6864ZM71.5931 34.6529C71.5931 34.3249 71.7935 33.9471 72.1845 33.5296C72.9062 32.456 73.3874 31.6508 73.6079 31.124C73.8385 30.5971 73.8285 30.3287 73.5879 30.2989C73.3473 30.2989 73.0466 30.1498 72.6857 29.8516C72.4451 29.5832 72.3248 28.8377 72.3248 27.605C72.3248 26.6805 72.3549 26.1239 72.415 25.9449C72.415 25.766 72.5554 25.4777 72.826 25.09C73.6681 24.1358 74.9512 23.4399 76.6753 23.0224C77.0061 22.8733 77.5475 22.7938 78.2993 22.7938C79.6525 22.7938 80.5748 22.9131 81.0559 23.1516C81.507 23.3007 81.8879 23.6487 82.1887 24.1855C82.4293 24.603 82.5495 25.0205 82.5495 25.438C82.5495 26.273 82.2889 27.1776 81.7777 28.1319C81.5371 28.8476 81.2063 29.3446 80.7853 29.613C80.3643 29.8218 80.1538 30.1697 80.1538 30.6468C80.1538 31.1836 80.2139 31.5614 80.3342 31.7701C80.4846 31.9192 80.7452 31.9988 81.1061 31.9988C81.5271 31.9988 81.8879 31.9192 82.1887 31.7701C82.3691 31.5316 82.6297 31.0942 82.9605 30.4679C83.2312 29.9311 83.4317 29.6031 83.552 29.4838C83.6723 29.3645 83.9028 29.3049 84.2336 29.3049C84.6546 29.3049 84.9554 29.5037 85.1358 29.9112C85.3162 30.3188 85.4065 30.9649 85.4065 31.8596C85.3764 32.456 85.2962 32.9232 85.1759 33.2513C85.1458 33.3407 85.0456 33.47 84.8852 33.629C84.7148 33.798 84.5945 33.9372 84.5043 34.0565C83.6021 34.8617 82.5095 35.2692 81.2464 35.2692C79.9833 35.2692 78.9509 34.8617 78.169 34.0565C77.778 33.5793 77.5675 32.9034 77.5374 32.0385C77.4472 31.0842 77.2668 30.6071 76.9961 30.6071C76.7555 30.6071 76.5551 30.9053 76.4047 31.5017C76.3145 32.0684 76.0438 32.7443 75.5927 33.5197C75.2018 34.2652 74.7607 34.8219 74.2796 35.1798C73.9488 35.478 73.5277 35.6271 73.0165 35.6271C72.0842 35.6271 71.6131 35.299 71.6131 34.643L71.5931 34.6529ZM74.6605 27.108C74.6605 27.3167 74.7206 27.436 74.8409 27.4659C74.9011 27.5255 75.0715 27.5553 75.3421 27.5553C75.6729 27.5553 76.1541 27.5156 76.7856 27.4162C77.8682 27.2372 78.58 27.0384 78.9108 26.8297C79.1213 26.6507 79.2315 26.442 79.2315 26.2034C79.2315 25.7561 78.9107 25.5274 78.2792 25.5274C77.768 25.5274 77.0563 25.6666 76.1541 25.935C75.1918 26.1736 74.7106 26.4619 74.7106 26.7899L74.6605 27.108ZM81.3667 18.6684C81.5772 18.6684 81.7877 18.7281 81.9982 18.8474C82.4794 18.9965 82.9204 19.4338 83.3114 20.1496C83.5219 20.5373 83.6322 20.8951 83.6322 21.2232C83.6322 21.3723 83.6021 21.5413 83.5419 21.7202C83.3615 22.0184 83.0909 22.1675 82.73 22.1675C82.1285 22.1675 81.5571 21.8494 81.0058 21.2232C80.4645 20.6267 80.1939 20.0999 80.1939 19.6525C80.1939 19.3245 80.3141 19.0859 80.5547 18.9368C80.9156 18.7579 81.1863 18.6684 81.3667 18.6684ZM81.497 9.51313C81.4669 9.15527 81.4469 8.83717 81.4469 8.56877C81.4469 8.21091 81.497 7.88287 81.6073 7.58465C81.7175 7.28644 81.928 6.96834 82.2689 6.6403C82.75 6.1035 83.4618 5.686 84.394 5.40766C85.3263 5.11939 86.5392 4.91063 88.0128 4.76152C88.9149 4.70188 89.5164 4.67206 89.8271 4.67206C90.9699 4.67206 91.832 4.81123 92.4034 5.07962C93.3356 5.58659 93.9571 6.58065 94.2579 8.04192C94.4082 8.78747 94.4884 10.0599 94.4884 11.8591C94.4884 12.4555 94.4583 13.7776 94.3982 15.8055C94.2478 19.9011 94.0173 23.261 93.7165 25.8555C93.476 27.5951 93.2655 29.3546 93.085 31.1538C93.0249 31.7204 92.9246 32.6051 92.7943 33.798C92.654 34.9909 92.5337 35.806 92.4134 36.2235C92.0225 37.655 91.5112 38.649 90.8697 39.1858C90.4787 39.5139 90.0577 39.6828 89.6066 39.6828C88.524 39.6828 87.4314 39.0665 86.3487 37.8438C85.8074 37.1281 85.5368 36.5416 85.5368 36.0943C85.5368 35.7961 85.627 35.5575 85.8074 35.3786C86.0781 35.1102 86.3688 34.971 86.6695 34.971C87.0304 34.971 87.3612 35.1102 87.6619 35.3786C87.9326 35.6171 88.2032 35.7364 88.4739 35.7364C88.6543 35.7364 88.7946 35.637 88.8849 35.4183C88.9149 35.3289 88.9851 34.5833 89.1154 33.1718L89.3861 30.4779L89.8372 26.9788C90.0176 25.5771 90.178 24.2153 90.3083 22.9131C90.4486 21.6108 90.5288 20.5373 90.5589 19.7022L90.609 17.7738L87.4414 17.5948C85.8175 17.5054 84.5945 17.396 83.7725 17.2569C82.9605 17.1177 82.4794 16.9388 82.329 16.7002C81.8178 16.1932 81.5572 14.215 81.5572 10.7756C81.5572 10.2984 81.5371 9.88093 81.5171 9.52307L81.497 9.51313ZM84.7148 9.87099H90.8296L90.9599 9.15527C90.9599 8.6483 90.8997 8.32026 90.7794 8.17115C90.7193 8.05186 90.3885 7.97234 89.787 7.92263C89.1856 7.88287 88.1832 7.85305 86.7998 7.85305C85.5067 7.85305 84.7449 7.93257 84.5343 8.08168C84.5043 8.11151 84.4943 8.22085 84.4943 8.39978C84.4943 8.66818 84.5043 8.89681 84.5343 9.07574L84.7148 9.88093V9.87099ZM84.9854 14.6723C84.9854 14.6723 85.1959 14.7121 85.5267 14.7121L88.0128 14.6226L90.8195 14.4834L90.9499 13.7677C90.9499 13.2906 90.8596 13.0321 90.6792 13.0023C90.2883 12.9128 89.2959 12.8532 87.692 12.8233L85.9277 12.7836C85.3263 12.7836 84.9955 12.8134 84.9353 12.8731C84.8451 12.9625 84.805 13.2607 84.805 13.7677C84.8651 14.3343 84.9253 14.6325 84.9854 14.6624V14.6723Z" fill="#534741"/>
<path d="M105.345 23.0224C104.984 22.7838 104.803 22.5154 104.803 22.2172C104.803 21.7401 105.034 21.3524 105.485 21.0542C105.906 20.7559 107.219 20.5571 109.425 20.4677C111.419 20.3782 115.038 20.3285 120.291 20.3285C123.609 20.3285 125.814 20.3583 126.897 20.418C127.739 20.4776 128.27 20.6168 128.481 20.8255C128.841 21.1834 129.022 21.5611 129.022 21.9488C129.022 22.4856 128.781 22.9031 128.3 23.2013C128.06 23.3504 127.197 23.4697 125.724 23.5592C124.25 23.6487 122.256 23.6984 119.749 23.6984C110.968 23.6984 106.177 23.4697 105.355 23.0224H105.345Z" fill="#534741"/>
<path d="M143.637 33.5296C143.457 33.2612 143.367 32.9332 143.367 32.5455C143.367 32.1578 143.457 31.1836 143.637 29.6329C143.818 28.2313 143.928 26.9887 143.958 25.9052C144.018 23.9866 144.048 22.7441 144.048 22.1774C144.048 21.1635 144.008 20.6565 143.908 20.6565C143.808 20.6565 143.336 21.1933 142.464 22.2669C141.382 23.6089 140.55 24.424 139.978 24.6924C139.798 24.7819 139.627 24.8316 139.477 24.8316C139.146 24.8316 138.785 24.6029 138.394 24.1556C138.184 23.917 138.074 23.7083 138.074 23.5294C138.074 23.4399 138.224 23.092 138.525 22.4955C139.126 21.3325 139.537 20.6367 139.748 20.4279C140.139 20.0402 140.53 19.5134 140.921 18.8573L141.512 18.0521L142.234 16.9785L142.775 16.2131L143.727 14.8214C144.359 13.8671 144.99 12.9029 145.632 11.9287C146.264 10.9545 146.775 10.0797 147.176 9.30437C148.078 7.59458 148.589 6.68999 148.719 6.5707C148.9 6.39177 149.191 6.30231 149.582 6.30231C150.303 6.30231 150.664 6.68999 150.664 7.46536C150.664 7.82322 150.604 8.20096 150.484 8.58865C149.972 10.4774 149.191 12.2865 148.128 14.0162L147.136 15.6763L147.366 19.404C147.426 20.5372 147.456 21.4717 147.456 22.1874C147.456 22.8136 147.426 23.9369 147.366 25.5572C147.276 28.1617 147.156 29.7919 147.005 30.448C146.644 32.128 146.253 33.2115 145.832 33.7284C145.622 33.9968 145.301 34.136 144.88 34.136C144.369 34.136 143.958 33.9372 143.657 33.5495L143.637 33.5296ZM156.949 13.1514C158.092 11.2925 158.884 10.1891 159.305 9.83122C159.636 9.56282 159.937 9.42365 160.207 9.42365C160.568 9.42365 160.919 9.59264 161.25 9.92068C161.581 10.2487 161.721 10.5768 161.661 10.9048C161.631 11.203 161.27 12.0579 160.578 13.4595C160.007 14.5928 159.285 15.8353 158.403 17.1873C157.501 18.6187 156.819 19.5631 156.368 20.0104C155.947 20.4279 155.536 20.6367 155.145 20.6367C154.844 20.6367 154.544 20.4875 154.243 20.1893C153.942 19.8911 153.792 19.5631 153.792 19.2052C153.792 18.9368 153.852 18.6784 153.972 18.4398C154.423 17.3662 155.426 15.5968 156.959 13.1414L156.949 13.1514ZM158.303 31.2333C159.626 29.6826 160.488 28.5096 160.879 27.7342C161.089 27.3466 161.089 27.0881 160.879 26.9688C160.638 26.8495 160.157 26.7899 159.425 26.7899C158.493 26.7899 157.751 26.6805 157.21 26.4718C156.699 26.2929 156.438 25.9648 156.438 25.4877C156.438 24.6527 156.979 24.1755 158.062 24.0562C158.814 23.9668 159.546 23.8773 160.257 23.7878C160.969 23.6984 161.671 23.6089 162.362 23.5194C165.079 23.1914 166.512 23.0125 166.663 22.9826C167.024 22.923 167.314 22.8932 167.525 22.8932C167.675 22.8932 167.966 22.923 168.387 22.9826C169.109 23.1317 169.58 23.3007 169.79 23.4797C170.813 24.3147 171.334 25.3982 171.334 26.7104C171.334 27.8138 171.063 29.3546 170.522 31.3327C169.981 33.3706 169.44 34.8318 168.898 35.7265C168.237 36.8001 167.314 37.3468 166.142 37.3468C165.149 37.3468 164.227 36.8498 163.385 35.8657C162.994 35.4481 162.793 34.9511 162.793 34.3845C162.793 34.1459 162.804 33.9471 162.834 33.798C162.864 33.6191 163.184 33.4998 163.786 33.4401H164.057C164.447 33.4401 164.688 33.5197 164.778 33.6688C164.869 33.8179 165.069 33.8974 165.37 33.8974C165.64 33.8974 166.081 33.0127 166.683 31.2532C167.254 29.5434 167.545 28.2909 167.545 27.4857C167.545 26.9191 167.465 26.6209 167.314 26.5911C167.164 26.5314 166.843 26.5215 166.362 26.5513C166.122 26.5811 165.801 26.611 165.41 26.6408C165.019 26.6706 164.758 26.7203 164.638 26.7799C164.427 26.8992 164.277 27.1875 164.187 27.6348C163.886 28.9768 162.964 30.617 161.43 32.5256C159.766 34.5634 158.413 35.7563 157.36 36.1142C157.12 36.1738 156.909 36.2036 156.729 36.2036C156.338 36.2036 156.017 36.1042 155.777 35.8855C155.536 35.7066 155.416 35.4978 155.416 35.2593C155.416 34.8716 156.378 33.5395 158.313 31.2632L158.303 31.2333ZM167.986 8.92662C168.557 9.04591 168.918 9.2149 169.069 9.42365C169.79 10.378 170.472 11.3223 171.104 12.2468L171.825 13.3204C172.577 14.4834 173.118 15.2687 173.459 15.6564C173.971 16.2827 174.231 16.8095 174.231 17.227C174.231 17.406 174.171 17.6048 174.051 17.8135C174.021 17.8732 173.84 18.072 173.509 18.4C173.359 18.5491 173.179 18.6286 172.968 18.6286C172.066 18.6286 171.003 17.8831 169.8 16.3821C168.557 14.8512 167.685 13.4098 167.174 12.0281C166.843 11.1334 166.673 10.4575 166.673 10.0102C166.673 9.65229 166.763 9.38389 166.944 9.20496C167.214 8.93657 167.565 8.8471 167.986 8.93657V8.92662Z" fill="#534741"/>
<path d="M183.063 24.3246C183.333 24.2352 183.594 24.1855 183.834 24.1855C184.165 24.1855 184.406 24.2451 184.556 24.3644C184.767 24.4539 184.937 24.603 185.057 24.8117C185.178 25.0205 185.238 25.2591 185.238 25.5275C185.238 26.0344 184.937 26.5911 184.336 27.1875C183.794 27.6647 183.283 27.9033 182.792 27.9033C182.401 27.9033 182.07 27.7641 181.799 27.4957C181.499 27.1677 181.348 26.8098 181.348 26.4221C181.348 26.1537 181.409 25.9151 181.529 25.7064C181.769 25.0503 182.281 24.5831 183.063 24.3147V24.3246ZM182.922 19.2052C183.554 19.2052 184.115 19.4438 184.596 19.921C185.288 20.5174 185.639 21.1138 185.639 21.7202C185.639 22.0184 185.559 22.2868 185.408 22.5254C185.107 22.8833 184.757 23.0622 184.366 23.0622C184.005 23.0622 183.624 22.9628 183.233 22.7739C182.842 22.5751 182.511 22.3365 182.241 22.0284C181.85 21.6109 181.649 21.1436 181.649 20.6367C181.649 20.3683 181.689 20.1297 181.789 19.921C181.97 19.4438 182.351 19.2052 182.922 19.2052ZM185.819 29.444C187.383 22.3564 188.175 17.2768 188.175 14.225C188.175 13.5391 188.245 13.0421 188.405 12.7438C188.526 12.5053 188.766 12.386 189.127 12.386C189.699 12.386 190.059 12.5848 190.21 12.9725C190.631 13.9864 190.841 15.4377 190.841 17.3265C190.841 18.3404 190.701 19.8215 190.43 21.7699C190.1 24.1358 189.749 26.1438 189.388 27.784C188.937 30.0604 188.546 31.6409 188.215 32.5455C187.523 34.6132 186.721 36.1341 185.819 37.1281C185.158 37.8438 184.556 38.2017 184.005 38.2017C183.734 38.2017 183.494 38.1421 183.283 38.0228C182.832 37.7842 182.601 37.486 182.601 37.1281C182.601 36.8597 182.772 36.5615 183.103 36.2335C184.155 35.1897 185.067 32.9233 185.819 29.454V29.444ZM189.308 8.17116C189.789 7.90277 190.44 7.64431 191.252 7.40574C192.305 7.13734 194.4 6.78942 197.548 6.37192C200.264 5.98423 202.309 5.72578 203.682 5.58661C205.056 5.44744 206.359 5.3878 207.602 5.3878C209.015 5.3878 210.138 5.47726 210.95 5.65619C211.491 5.8053 211.842 6.1234 211.992 6.60055C212.023 6.69002 212.043 6.8093 212.043 6.95841C212.043 7.25663 211.902 7.54491 211.632 7.8133C211.481 7.93259 211.1 8.04194 210.499 8.15128C209.897 8.26063 209.126 8.32027 208.193 8.35009C206.529 8.37992 204.394 8.55885 201.768 8.88689C196.244 9.57279 192.475 9.92071 190.45 9.92071C189.969 9.92071 189.608 9.89089 189.368 9.83125C189.007 9.74178 188.826 9.50321 188.826 9.11552C188.826 8.69802 188.997 8.37992 189.328 8.17116H189.308ZM193.879 35.8557C194.871 34.7225 195.543 34.1459 195.873 34.1459C196.595 34.1459 196.956 34.464 196.956 35.0903C196.956 35.2692 196.916 35.5277 196.816 35.8557C196.605 36.5715 196.164 37.2673 195.503 37.9234C194.691 38.7286 194.009 39.1361 193.468 39.1361C193.257 39.1361 193.027 39.0566 192.786 38.9075C192.455 38.6987 192.285 38.4602 192.285 38.1918C192.285 37.8637 192.816 37.0884 193.869 35.8557H193.879ZM196.274 17.3265C196.455 17.3265 196.746 17.4756 197.137 17.7738C197.528 18.1018 197.758 18.2708 197.818 18.2708C197.848 18.2708 197.959 18.1714 198.159 17.9825C198.36 17.7937 198.51 17.6346 198.63 17.5153C199.081 17.068 199.312 16.7797 199.312 16.6604C199.312 16.6008 199.232 16.5411 199.061 16.4815C198.891 16.4219 198.69 16.3821 198.45 16.3423C198.149 16.3125 197.798 16.223 197.407 16.0739C197.197 15.9845 197.046 15.8751 196.956 15.7558C196.866 15.6067 196.816 15.4278 196.816 15.219C196.816 14.891 196.876 14.6624 196.996 14.5431C197.207 14.3343 197.437 14.1952 197.678 14.1355L199.262 13.7777L201.076 13.4596L201.758 12.0281L202.62 10.3183C202.71 10.1692 202.89 10.0897 203.161 10.0897C203.612 10.0897 203.933 10.2388 204.113 10.537C204.294 10.8352 204.354 11.3323 204.294 12.0182L204.204 13.052H206.108C207.431 13.052 208.203 13.1613 208.414 13.3701C208.564 13.4894 208.674 13.728 208.735 14.0858V14.3542C208.735 14.563 208.684 14.7618 208.594 14.9407C208.294 15.4477 207.071 15.7757 204.925 15.9248L202.981 16.064L202.349 17.2768C201.718 18.4398 200.866 19.5532 199.813 20.5969C198.73 21.6705 197.818 22.3067 197.096 22.4856C197.036 22.5154 196.926 22.5254 196.776 22.5254C196.385 22.5254 196.054 22.2868 195.783 21.8097C195.663 21.6009 195.603 21.4021 195.603 21.2232C195.603 20.9548 195.743 20.6864 196.014 20.418C196.254 20.1794 196.375 19.9806 196.375 19.8315C196.375 19.6526 196.224 19.3941 195.924 19.0661C195.653 18.7082 195.513 18.41 195.513 18.1714C195.513 17.9925 195.583 17.7937 195.743 17.5849C195.924 17.406 196.104 17.3165 196.284 17.3165L196.274 17.3265ZM201.567 40.9354C201.236 40.9354 200.906 40.8757 200.575 40.7564C200.094 40.5775 199.683 40.2594 199.352 39.8121C199.051 39.4244 198.901 38.9572 198.901 38.4204C198.901 37.9731 198.991 37.6848 199.171 37.5655C199.232 37.5059 199.382 37.4761 199.623 37.4761C199.833 37.4761 200.014 37.4959 200.164 37.5258L200.795 37.6649L201.156 35.0207C201.277 34.1857 201.337 33.4799 201.337 32.9133C201.337 32.6449 201.317 32.4759 201.287 32.4163C201.196 32.1181 200.805 31.9193 200.114 31.8298C198.971 31.7105 198.209 31.0644 197.848 29.9013C197.698 29.3645 197.618 28.4202 197.618 27.0782C197.618 26.1537 197.648 25.5374 197.708 25.2392C197.798 24.8515 198.059 24.4737 198.48 24.1159C198.901 23.758 199.402 23.4896 199.973 23.3107C200.274 23.2212 200.996 23.0423 202.149 22.7739C203.412 22.5055 204.504 22.3663 205.407 22.3663C206.188 22.3663 206.82 22.4558 207.311 22.6347C208.334 23.0522 209.005 23.768 209.306 24.7918C209.456 25.2988 209.537 25.8356 209.537 26.4022C209.537 26.611 209.506 27.0484 209.446 27.7044C209.326 28.8675 209.055 29.7721 208.634 30.3983C208.213 31.1141 207.131 31.6509 205.376 32.0187L204.154 32.2871L204.013 35.5177C203.983 36.2037 203.883 37.2574 203.692 38.659C203.632 39.2256 203.452 39.7326 203.151 40.1799C202.88 40.5676 202.5 40.8061 202.018 40.8956C201.928 40.9254 201.778 40.9354 201.567 40.9354ZM199.582 1.34197C199.582 0.864824 199.713 0.516903 199.993 0.30815C200.234 0.0993979 200.525 -0.00994873 200.856 -0.00994873C201.186 -0.00994873 201.497 0.12922 201.788 0.417497C202.079 0.705774 202.289 1.06364 202.439 1.5209C202.53 1.7893 202.58 2.0577 202.58 2.32609C202.58 2.80324 202.409 3.1611 202.078 3.39968C201.898 3.54879 201.668 3.62831 201.397 3.62831C200.976 3.62831 200.585 3.4295 200.224 3.04182C199.923 2.7436 199.713 2.26645 199.592 1.61037V1.34197H199.582ZM199.893 26.432C199.893 26.5215 199.943 26.601 200.054 26.6806C200.164 26.7601 200.284 26.7899 200.435 26.7899C200.856 26.7601 201.216 26.7303 201.517 26.7004C201.818 26.6706 201.998 26.6507 202.058 26.6507C202.389 26.6507 202.971 26.601 203.803 26.4917C204.635 26.3923 205.276 26.2929 205.727 26.2034C205.908 26.1438 205.998 26.0543 205.998 25.935C205.998 25.7561 205.858 25.597 205.587 25.4678C205.316 25.3386 204.905 25.2988 204.364 25.3585L202.008 25.6766C200.926 25.8257 200.244 26.0046 199.973 26.2134C199.913 26.2432 199.883 26.3227 199.883 26.442L199.893 26.432ZM201.347 29.4838L203.111 29.3943C204.344 29.3347 205.186 29.285 205.627 29.2353C206.068 29.1856 206.279 29.0762 206.279 28.8973C206.279 28.6886 206.168 28.5494 205.958 28.4699C205.747 28.4003 205.397 28.3605 204.915 28.3605H202.971C202.099 28.3605 201.507 28.3804 201.206 28.4301C200.906 28.4699 200.675 28.5693 200.525 28.7184C200.465 28.778 200.414 28.8675 200.394 28.9868C200.364 29.1061 200.374 29.1955 200.435 29.2552C200.585 29.4043 200.886 29.4838 201.337 29.4838H201.347ZM205.868 17.7241C206.108 17.5451 206.519 17.4855 207.091 17.5451H207.361C207.752 17.5451 208.013 17.4457 208.133 17.2271C208.284 16.9288 208.494 16.73 208.765 16.6406C208.885 16.5809 209.065 16.5511 209.306 16.5511C209.577 16.5511 209.777 16.6306 209.897 16.7797C210.048 16.9885 210.128 17.2569 210.128 17.5849C210.128 17.8235 210.108 18.0024 210.088 18.1217C210.058 18.241 210.038 18.3802 210.038 18.5293C210.038 18.738 210.098 18.8474 210.218 18.8474C210.399 18.8474 210.569 18.9368 210.719 19.1158L211.221 19.6526C211.341 19.8613 211.401 20.0601 211.401 20.2391C211.401 20.5969 211.221 20.8951 210.86 21.1337C210.499 21.4021 210.138 21.4916 209.777 21.4021C208.634 21.1337 207.622 20.7261 206.74 20.1893C205.898 19.6526 205.477 19.1257 205.477 18.6187C205.477 18.2012 205.617 17.903 205.888 17.7241H205.868ZM208.905 33.6589C209.055 33.6589 209.226 33.6986 209.406 33.798C209.707 33.9173 210.178 34.4243 210.81 35.3289C211.411 36.1639 211.792 36.8299 211.942 37.3071L211.982 37.486C211.982 37.7246 211.862 37.9631 211.622 38.2017C211.291 38.5298 210.97 38.6987 210.669 38.6987C210.038 38.6987 209.326 37.993 208.544 36.5913C208.183 35.8756 208.003 35.2891 208.003 34.8418C208.003 34.4839 208.113 34.1956 208.324 33.9869C208.534 33.7781 208.735 33.6688 208.915 33.6688L208.905 33.6589Z" fill="#534741"/>
<path d="M220.212 23.3405C220.513 22.9528 221.165 22.6646 222.157 22.4856C222.307 22.4558 222.518 22.4359 222.789 22.4359C223.51 22.4359 223.871 22.754 223.871 23.3803C223.871 23.7978 223.661 24.1556 223.24 24.4539C222.819 24.8415 222.347 25.1 221.836 25.2193C221.626 25.3088 221.415 25.3585 221.205 25.3585C220.934 25.3585 220.663 25.269 220.393 25.0901C220.272 25.0304 220.162 24.9211 220.052 24.7521C219.942 24.5831 219.882 24.4141 219.851 24.2352C219.851 23.8773 219.972 23.5791 220.212 23.3405ZM220.172 18.6287C220.172 18.241 220.353 17.9428 220.714 17.734C220.954 17.5551 221.225 17.4656 221.525 17.4656C221.796 17.4656 222.127 17.5849 222.518 17.8235C223.661 18.3603 224.242 19.1257 224.242 20.1098C224.242 20.7659 223.951 21.0939 223.38 21.0939C223.109 21.0939 222.728 20.9945 222.247 20.7758C221.315 20.3583 220.693 19.8514 220.393 19.245C220.242 19.0362 220.162 18.8275 220.162 18.6187L220.172 18.6287ZM222.618 35.5675C222.378 35.3388 222.257 35.0207 222.257 34.6032C222.257 34.4839 222.488 33.7185 222.939 32.3169L223.3 31.1538C225.144 25.8257 226.177 20.4876 226.427 15.1296C226.578 12.9128 226.718 11.6404 226.838 11.3124C227.019 10.8352 227.38 10.5967 227.921 10.5967C228.131 10.5967 228.332 10.6563 228.512 10.7756C228.693 10.8949 228.833 11.044 228.923 11.2229C229.134 11.8194 229.304 12.5848 229.425 13.5093C229.575 14.9208 229.655 16.1733 229.655 17.2767C229.655 18.7082 229.565 20.1297 229.384 21.5413C228.843 24.8614 228.162 27.7044 227.35 30.0703C226.868 31.5713 226.447 32.7244 226.087 33.5495C225.726 34.3746 225.365 34.9611 225.004 35.3189C224.613 35.7066 224.192 35.9054 223.741 35.9054C223.26 35.9054 222.899 35.7961 222.658 35.5675H222.618ZM227.59 7.13734C227.891 6.89876 228.282 6.72977 228.763 6.64031C229.966 6.40173 231.449 6.18304 233.194 5.99417C234.948 5.79536 237.384 5.56672 240.521 5.29833C242.065 5.17904 243.95 5.1194 246.175 5.1194C247.258 5.1194 248.08 5.14922 248.641 5.20886C249.202 5.2685 249.573 5.38779 249.754 5.56672C250.054 5.86494 250.205 6.19298 250.205 6.55084C250.205 7.05781 249.974 7.53496 249.523 7.98229C249.403 8.10158 249.232 8.20098 249.002 8.27057C248.771 8.35009 248.561 8.37991 248.35 8.37991H247.488L245.002 8.51908C243.188 8.5489 240.531 8.69801 237.033 8.96641C234.737 9.14534 232.853 9.2348 231.379 9.2348C229.625 9.2348 228.452 9.09564 227.851 8.82724C227.34 8.55884 227.079 8.27057 227.079 7.97235C227.079 7.64431 227.249 7.35603 227.58 7.11746L227.59 7.13734ZM230.808 34.6032C231.319 34.0962 231.82 33.8378 232.302 33.8378C232.482 33.8378 232.662 33.8775 232.843 33.977C233.113 34.1559 233.254 34.4442 233.254 34.8318C233.254 35.309 233.013 36.0247 232.532 36.989C231.63 38.48 230.768 39.2355 229.956 39.2355C229.625 39.2355 229.324 39.0665 229.054 38.7385C228.783 38.4701 228.643 38.2017 228.643 37.9333C228.643 37.1579 229.364 36.0446 230.818 34.6132L230.808 34.6032ZM230.447 29.9311C230.447 29.8417 230.477 29.6429 230.537 29.3446C230.567 29.2552 230.668 28.8377 230.858 28.0921C231.038 27.3466 231.209 26.3426 231.359 25.0901C231.57 23.6884 231.8 22.6248 232.061 21.9289C232.312 21.2232 232.652 20.8156 233.083 20.6963C234.346 20.3086 235.319 20.0502 235.98 19.9309C236.492 19.8414 236.963 19.7917 237.384 19.7917C238.106 19.7917 238.797 19.911 239.469 20.1496C240.04 20.3882 240.451 20.7957 240.692 21.3623C240.872 21.8395 240.962 22.6745 240.962 23.8773C240.962 26.2133 240.752 27.9728 240.331 29.1756C239.91 30.3685 239.278 30.9749 238.426 30.9749C237.765 30.9749 237.384 30.7164 237.294 30.2095C237.143 29.792 237.113 29.1756 237.203 28.3705L237.113 28.5096C236.812 28.7184 236.391 28.8277 235.85 28.8277C235.76 28.8575 235.64 28.8774 235.489 28.8774C235.038 28.8774 234.687 28.7283 234.447 28.4301C234.296 28.1319 234.216 27.9032 234.216 27.7541C234.216 27.5156 234.346 27.2571 234.627 26.9887C234.808 26.8098 235.168 26.7203 235.71 26.7203C236.552 26.7203 237.093 26.9191 237.344 27.3068L237.384 27.0384C237.414 26.8297 237.444 26.5911 237.474 26.3227C237.504 26.0543 237.524 25.766 237.524 25.4678C237.464 25.5573 237.374 25.6368 237.253 25.7163C237.133 25.7958 237.043 25.8455 236.983 25.8754C236.592 26.0543 236.231 26.1438 235.9 26.1438C235.449 26.1438 235.058 26.0245 234.727 25.7859C234.607 25.6666 234.527 25.5771 234.497 25.5175C234.467 25.7263 234.427 26.0444 234.387 26.4817C234.346 26.9191 234.286 27.2671 234.226 27.5354C234.166 27.774 234.006 28.4301 233.755 29.4838C233.494 30.5474 233.204 31.2731 232.873 31.6608C232.542 32.0485 232.131 32.2473 231.65 32.2473C231.47 32.2473 231.319 32.2175 231.199 32.1578L231.018 32.1181C230.838 32.0286 230.638 31.8497 230.427 31.5813C230.427 31.5216 230.407 31.4819 230.387 31.4421C230.327 31.2632 230.297 31.1141 230.297 30.9948C230.297 30.6667 230.357 30.3188 230.477 29.961L230.447 29.9311ZM234.567 13.6882C234.567 13.6882 234.948 13.4297 235.79 12.8333C237.604 11.6106 238.757 10.875 239.278 10.6364C239.489 10.5171 239.78 10.4575 240.14 10.4575C240.922 10.4575 241.995 10.8352 243.358 11.5808C244.922 12.4754 245.965 13.1812 246.486 13.6882C246.997 14.1355 247.258 14.6127 247.258 15.1196C247.258 15.567 247.087 15.9248 246.756 16.1932C246.426 16.4616 246.045 16.571 245.624 16.5113C245.443 16.4517 244.461 15.895 242.687 14.8512C240.993 13.9268 240.12 13.4596 240.06 13.4596C240.03 13.4596 239.86 13.5689 239.559 13.7777C239.258 13.9864 238.988 14.1852 238.747 14.3642C237.544 15.2886 236.532 15.9845 235.74 16.4517C234.938 16.9189 234.266 17.1475 233.725 17.1475C233.514 17.1475 233.284 17.0879 233.043 16.9686C232.682 16.7598 232.502 16.4318 232.502 15.9845C232.502 15.7757 232.542 15.5371 232.632 15.2687C232.692 15.1196 233.344 14.5928 234.577 13.6981L234.567 13.6882ZM235.199 23.8276C235.379 23.7381 235.61 23.6884 235.88 23.6884C236.121 23.6884 236.381 23.7381 236.652 23.8276C237.103 23.9469 237.424 24.1556 237.604 24.4539C237.634 24.096 237.644 23.7083 237.644 23.2908L237.604 22.754L236.381 22.7938C235.449 22.7938 234.918 22.8534 234.798 22.9727C234.798 23.0025 234.737 23.4499 234.617 24.3147C234.798 24.0761 234.998 23.9071 235.209 23.8177L235.199 23.8276ZM235.058 35.9253C235.118 35.6967 235.209 35.5277 235.329 35.4084C235.569 35.1698 235.87 35.0505 236.231 35.0505C236.622 35.0505 236.943 35.1996 237.183 35.4979C237.424 35.7364 237.624 36.0545 237.775 36.4422C238.045 37.2176 238.637 37.7743 239.539 38.1023C240.261 38.3707 241.454 38.5099 243.118 38.5099C245.413 38.5099 247.087 38.2713 248.14 37.7941L248.591 37.6152C248.681 37.5854 248.761 37.5556 248.842 37.5257C248.922 37.4959 248.982 37.476 249.042 37.476C249.253 37.476 249.493 37.6152 249.764 37.8836C250.095 38.2117 250.265 38.5993 250.265 39.0467C250.265 39.6729 250.054 40.1998 249.633 40.6173C248.821 41.4523 247.157 41.9493 244.651 42.0984C244.291 42.1282 243.779 42.1481 243.118 42.1481C241.333 42.1481 239.81 41.9096 238.547 41.4324C237.434 41.0447 236.522 40.3688 235.83 39.4145C235.168 38.5496 234.868 37.6351 234.928 36.6808C234.958 36.4124 235.008 36.1639 235.068 35.9353L235.058 35.9253ZM237.554 16.4716C238.426 16.2628 239.74 16.1535 241.494 16.1535C242.005 16.1535 242.396 16.1932 242.667 16.2628C242.937 16.3423 243.168 16.4914 243.348 16.73C243.589 17.0581 243.709 17.3563 243.709 17.6247C243.709 17.8931 243.589 18.1515 243.348 18.3901C242.867 18.7778 241.714 19.0362 239.91 19.1555L238.186 19.2052C237.133 19.2052 236.421 19.1158 236.061 18.9368C235.79 18.8175 235.559 18.6486 235.379 18.4199C235.199 18.1913 235.108 17.9627 235.108 17.7241C235.108 17.4855 235.219 17.2767 235.429 17.0978C235.82 16.8294 236.532 16.6207 237.554 16.4716ZM236.552 1.66007C236.552 1.24256 236.722 0.894641 237.053 0.626245C237.354 0.447314 237.594 0.357849 237.775 0.357849C237.985 0.357849 238.196 0.417493 238.406 0.53678C238.767 0.715711 239.178 1.2525 239.629 2.1571C239.78 2.45532 239.93 2.843 240.08 3.32015C240.11 3.34997 240.12 3.42949 240.12 3.54878C240.12 3.72771 240.06 3.92652 239.94 4.13528C239.82 4.31421 239.649 4.45338 239.439 4.56272C239.228 4.67207 239.018 4.72177 238.807 4.72177C238.326 4.72177 237.945 4.60248 237.675 4.36391C237.494 4.12534 237.264 3.71777 236.993 3.15116C236.692 2.49508 236.542 1.99805 236.542 1.67001L236.552 1.66007ZM242.165 33.0823C242.376 32.963 242.616 32.9034 242.887 32.9034C243.218 32.9034 243.519 32.9928 243.789 33.1718C244.21 33.4998 244.481 33.9471 244.601 34.5137C244.631 34.6032 244.641 34.7126 244.641 34.8318C244.641 35.2792 244.461 35.6569 244.1 35.9551C243.769 36.2235 243.408 36.313 243.017 36.2235C242.566 36.0446 242.266 35.806 242.115 35.5078C241.905 35.1798 241.794 34.7623 241.794 34.2553C241.794 33.629 241.915 33.2414 242.155 33.0922L242.165 33.0823ZM243.749 21.5413C243.99 21.2729 244.26 21.1337 244.561 21.1337C244.802 21.1337 245.102 21.243 245.463 21.4518C245.764 21.6307 245.914 22.2769 245.914 23.3803C245.914 24.3942 245.744 25.0404 245.413 25.3088C245.082 25.5771 244.762 25.7163 244.461 25.7163C244.22 25.7163 244 25.6567 243.799 25.5374C243.599 25.4181 243.489 25.269 243.459 25.0901C243.248 24.7322 243.188 24.1358 243.278 23.2908C243.368 22.3365 243.519 21.75 243.729 21.5413H243.749ZM245.694 28.9967C245.694 28.5196 246.015 28.1915 246.646 28.0126C246.947 27.8337 247.127 27.6349 247.188 27.4261L247.458 25.5374L247.689 23.6089C247.929 21.8991 248.11 20.7858 248.23 20.239L248.27 19.9209C248.33 19.3543 248.571 18.9468 248.992 18.7082C249.172 18.6187 249.353 18.569 249.533 18.569C249.714 18.569 249.894 18.5988 250.075 18.6585C250.586 18.8672 250.907 19.3046 251.027 19.9607C251.087 20.4379 251.117 20.9747 251.117 21.5711L251.077 23.3206C250.987 27.2969 250.385 29.6826 249.263 30.458C248.842 30.7562 248.39 30.9053 247.909 30.9053C247.458 30.9053 247.047 30.796 246.686 30.5673C246.325 30.3387 246.065 30.0703 245.914 29.7323C245.764 29.4341 245.684 29.1756 245.684 28.9669L245.694 28.9967ZM250.816 31.959C251.087 31.959 251.508 32.0684 252.079 32.2771C253.162 32.7244 253.703 33.3408 253.703 34.1161C253.703 34.3845 253.543 34.6927 253.232 35.0406C252.911 35.3885 252.591 35.5575 252.26 35.5575C251.839 35.5575 251.247 35.2593 250.496 34.6629C249.834 34.1261 249.503 33.6191 249.503 33.132C249.503 32.8636 249.593 32.635 249.774 32.456C250.044 32.128 250.395 31.959 250.816 31.959Z" fill="#534741"/>
<path d="M12.2195 78.8489C11.1069 78.66 9.8037 78.3618 8.34016 77.9642C7.10718 77.6162 6.25512 77.2882 5.77396 77.0099C5.56345 76.8707 5.35294 76.8011 5.1725 76.8011C4.91187 76.8011 4.64122 76.9403 4.35052 77.2286C4.18011 77.4671 3.77914 77.7355 3.13759 78.0437C2.5662 78.3021 2.05497 78.4711 1.60388 78.5407C1.51366 78.5606 1.3633 78.5805 1.17284 78.5805C0.390945 78.5805 0 78.2027 0 77.4473C0 76.9502 0.471139 76.4532 1.42344 75.9661C2.58625 75.3299 3.2278 74.3955 3.34809 73.1728L3.38819 72.7155C3.38819 72.5764 3.36814 72.4372 3.31802 72.2881C3.2679 72.1489 3.06742 71.8905 2.71657 71.5127C2.24543 70.9759 1.9848 70.4988 1.93468 70.1011C1.93468 69.7035 2.13516 69.0276 2.53613 68.0832C3.03734 67.1687 3.24785 66.5126 3.17768 66.1348C3.12756 65.9261 3.07744 65.777 3.01729 65.6975C2.95715 65.6179 2.81681 65.5782 2.6063 65.5782C2.29555 65.5782 2.03492 65.6179 1.82441 65.6875L0.972351 65.8267H0.862084C0.601454 65.8267 0.390945 65.6975 0.220533 65.439C0.150364 65.2998 0.110267 65.1706 0.110267 65.0513C0.110267 64.5841 0.541309 64.1169 1.39337 63.6696C1.91463 63.4111 2.41584 63.2819 2.88698 63.2819C3.21778 63.2819 3.58868 63.3614 3.98965 63.5304C4.80161 63.8883 5.36297 64.5642 5.70379 65.5782C5.77396 65.8167 5.81406 66.0752 5.81406 66.3535C5.81406 67.1289 5.57347 67.954 5.10234 68.8287L4.71139 69.6439L5.28277 70.3894C5.8742 71.1449 6.17493 72.0594 6.17493 73.143C6.17493 73.4014 6.17493 73.6499 6.15488 73.8885C6.14486 74.1271 6.15488 74.316 6.17493 74.4551C6.19498 74.5744 6.32529 74.6937 6.56587 74.813C7.4881 75.2603 9.35261 75.7076 12.1594 76.155C13.4625 76.4134 15.4173 76.5427 18.0035 76.5427H19.1062C21.0308 76.5427 22.3139 76.4532 22.9555 76.2643C23.4968 76.145 23.9178 76.0854 24.1985 76.0854C24.7198 76.0854 25.0506 76.2544 25.2009 76.5824C25.2911 76.821 25.3413 76.9999 25.3413 77.1093C25.3413 77.815 24.5093 78.4413 22.8452 78.9781C22.2037 79.167 20.9907 79.2564 19.2165 79.2564L17.6827 79.2167C15.1667 79.1471 13.3523 79.0278 12.2296 78.8588L12.2195 78.8489ZM3.23783 56.4229C3.51851 56.234 3.75909 56.1744 3.94955 56.244C4.14001 56.2937 4.42069 56.5123 4.80161 56.91C5.11236 57.2678 5.40306 57.745 5.69376 58.3613C5.90427 58.8583 6.01454 59.2659 6.01454 59.5939C6.01454 59.9518 5.8341 60.2202 5.48326 60.4091C5.38301 60.4786 5.2527 60.5184 5.09231 60.5184C4.95197 60.5184 4.78156 60.4588 4.5911 60.3395C4.28035 60.1307 3.9295 59.6337 3.51851 58.8583C3.08746 58.1525 2.87696 57.5959 2.87696 57.1982C2.87696 56.8702 2.99725 56.6117 3.23783 56.4229ZM11.4677 73.2026C11.4677 72.8547 11.8085 72.4372 12.5002 71.97C13.1618 71.5227 13.5427 71.1648 13.643 70.9063C13.7633 70.6678 13.8735 70.5087 13.9638 70.4093C14.0339 70.3894 14.1542 70.1509 14.3246 69.7035C14.4148 69.5147 14.5251 69.296 14.6254 69.0276C14.7256 68.7592 14.8058 68.5802 14.8559 68.4609C15.0263 67.9937 15.1065 67.7055 15.1065 67.616C15.1065 67.4072 14.7958 67.2979 14.1843 67.2979C13.6129 67.2979 13.2019 67.1885 12.9413 66.9798C12.7308 66.7213 12.6205 66.4927 12.6205 66.3038C12.6205 65.8068 13.2821 65.3694 14.6153 65.0016C15.3271 64.8326 15.7581 64.7034 15.8984 64.6139C15.9486 64.5443 16.0187 64.2859 16.1089 63.8386C16.1992 63.3714 16.2493 62.9837 16.2493 62.6755V62.2182L14.2144 62.258C12.831 62.258 12.0792 62.2182 11.9389 62.1487C11.6782 62.0592 11.5479 61.8902 11.5479 61.6516C11.5479 61.4429 11.6281 61.254 11.7985 61.085C12.1794 60.7073 13.663 60.2997 16.2493 59.8524C17.1515 59.7331 18.2541 59.6635 19.5673 59.6436C20.8705 59.6436 21.6824 59.753 21.9932 59.9617C22.354 60.1705 22.5245 60.4588 22.5245 60.8067C22.5245 61.254 22.3941 61.5522 22.1335 61.6914C21.8729 61.8604 21.2514 61.9399 20.279 61.9399C19.1162 61.9399 18.4646 61.9598 18.3143 62.0095C18.2241 62.0791 18.1739 62.268 18.1739 62.5761C18.1739 63.0433 18.204 63.4409 18.2642 63.759C18.3243 64.0771 18.3744 64.276 18.4245 64.3455C18.5448 64.4648 18.8857 64.5543 19.457 64.6239C20.7401 64.763 21.3817 65.1507 21.3817 65.7869C21.3817 66.7015 20.5497 67.1687 18.8857 67.1687C18.3644 67.1687 18.0436 67.2283 17.9233 67.3476C17.8231 67.4669 17.6026 68.0733 17.2417 69.1866C16.4598 71.7115 15.4273 73.2424 14.1442 73.7792C13.8134 73.9482 13.3623 74.0277 12.7909 74.0277C12.2195 74.0277 11.8687 73.9382 11.7183 73.7493C11.5479 73.5804 11.4677 73.4114 11.4677 73.2225V73.2026ZM14.1442 55.2201C14.1442 54.9616 14.2344 54.733 14.4249 54.5441C14.6153 54.3552 14.7958 54.2658 14.9562 54.2658C15.1165 54.2658 15.317 54.3453 15.5275 54.5143C15.9987 54.9119 16.3495 55.6177 16.56 56.6316C16.6302 56.91 16.6703 57.1386 16.6703 57.3076C16.6703 57.4269 16.6503 57.5561 16.6001 57.6953C16.5099 57.904 16.2593 58.0134 15.8483 58.0134C15.1867 58.0134 14.6855 57.4468 14.3547 56.3135C14.2144 55.8165 14.1442 55.4586 14.1442 55.2201ZM18.3443 55.4288C18.7253 54.5839 19.1663 54.0371 19.6675 53.7986C19.9081 53.6793 20.1086 53.6196 20.269 53.6196C20.5497 53.6196 20.8003 53.7489 21.0208 54.0073C21.111 54.1266 21.1612 54.2857 21.1612 54.5043C21.1612 54.6236 21.1511 54.7131 21.1211 54.7827C21.101 55.0908 20.8604 55.5879 20.4093 56.2638C20.0986 56.8106 19.858 57.1684 19.6776 57.3374C19.4971 57.5064 19.2566 57.6058 18.9458 57.6058C18.3544 57.6058 18.0536 57.2877 18.0536 56.6515C18.0536 56.3434 18.1439 55.9358 18.3343 55.4189L18.3443 55.4288ZM20.0886 69.7731C20.6299 69.7731 21.2414 70.1409 21.903 70.8666C22.5245 71.5028 22.8252 72.0296 22.8252 72.4571C22.8252 73.0734 22.5245 73.3716 21.933 73.3716C21.2714 73.3716 20.5898 72.8447 19.8981 71.7811C19.5874 71.3338 19.437 70.9362 19.437 70.5783C19.437 70.3695 19.4771 70.1906 19.5473 70.0514C19.6675 69.8626 19.848 69.7731 20.0785 69.7731H20.0886Z" fill="#534741"/>
<path d="M41.0793 71.1548C40.6081 71.1548 40.0969 70.7274 39.5456 69.8824L39.2248 69.3854L37.9116 69.5942C36.9393 69.7631 36.0672 69.962 35.3153 70.1906C34.4332 70.4689 33.6413 70.618 32.9296 70.618C32.4785 70.618 32.1176 70.4888 31.857 70.2304C31.5462 69.9222 31.3959 69.6339 31.3959 69.3456C31.3959 69.0574 31.6665 68.4709 32.1978 67.5663C32.7291 66.6617 33.5711 65.3495 34.7039 63.6298C35.3254 62.7153 35.6261 62.1685 35.6261 62.0095C35.6261 61.8206 35.1349 61.7113 34.1626 61.6914C33.2604 61.6417 32.6289 61.5423 32.278 61.3733C32.1076 61.2838 31.9773 61.1546 31.867 61.0055C31.7567 60.8564 31.6465 60.6377 31.5262 60.3494C31.4259 60.1108 31.4059 59.8623 31.456 59.6038C31.5061 59.3255 31.6465 58.9676 31.8871 58.5402C32.1978 58.0034 32.7892 57.238 33.6714 56.2439C34.8342 54.9218 35.7263 54.2657 36.3478 54.2657C36.5383 54.2657 36.6686 54.2856 36.7388 54.3353C36.8791 54.4049 36.9894 54.4844 37.0596 54.5838C37.1297 54.6733 37.1698 54.8125 37.1698 54.9715C37.1698 55.2996 36.7388 55.9656 35.8867 56.9497C34.7239 58.3116 34.1726 59.1267 34.2528 59.3852C34.2728 59.4846 34.5635 59.5641 35.1048 59.6337C35.4356 59.6834 35.8867 59.7828 36.4581 59.9518C36.7388 60.0214 36.9493 60.0313 37.0596 59.9915C37.1097 59.9716 37.4204 59.6933 37.9818 59.1764C38.7637 58.4507 39.3952 58.0829 39.8664 58.0829C40.0067 58.0829 40.1571 58.1227 40.2974 58.1923C40.558 58.3116 40.6883 58.4905 40.6883 58.7191C40.6883 58.8881 40.6382 59.0571 40.548 59.246C40.2874 59.8126 40.0368 60.2699 39.7962 60.6277C39.6759 60.8166 39.4955 61.0949 39.2649 61.4727C39.0243 61.8504 38.6735 62.3673 38.1923 63.0234C37.3803 64.1566 36.7588 65.0811 36.3178 65.8167C35.8767 66.5424 35.6862 66.9499 35.7263 67.0195C35.7464 67.0692 35.8767 67.0891 36.1173 67.0891C36.3779 67.0891 36.6085 67.0792 36.7989 67.0494C37.651 66.9599 38.2424 66.8605 38.5833 66.771C38.8238 66.7014 38.9942 66.5324 39.1145 66.274C39.2348 65.9957 39.3952 65.767 39.5957 65.598C39.7962 65.429 40.0067 65.3495 40.2172 65.3495C40.3876 65.3495 40.538 65.4191 40.6783 65.5583C41.0091 65.8664 41.2096 66.1448 41.2798 66.4032C41.3299 66.5424 41.4001 66.7611 41.5103 67.0593C41.6206 67.3575 41.6908 67.6458 41.7409 67.9241C41.8311 68.441 41.9113 68.9679 41.9514 69.5146L41.9915 69.9421C41.9915 70.459 41.8812 70.787 41.6707 70.9361C41.4602 71.0753 41.2597 71.1449 41.0693 71.1449L41.0793 71.1548ZM32.669 74.1867C32.7592 73.8785 33.0398 73.7294 33.4909 73.7294C33.7516 73.7294 34.0022 73.8686 34.2428 74.1569C34.5034 74.465 34.6337 74.9322 34.6337 75.5684C34.6337 75.9959 34.5635 76.4432 34.4232 76.9104C34.3029 77.2683 34.1024 77.6063 33.8217 77.9343C33.5411 78.2624 33.3005 78.4313 33.11 78.4313C32.7291 78.4313 32.4685 78.2325 32.3281 77.8448C32.1878 77.4572 32.1477 77.0397 32.2179 76.5923C32.3883 75.4591 32.5386 74.6639 32.679 74.1867H32.669ZM36.839 74.6539C36.839 74.2961 36.9192 74.0376 37.0896 73.8785C37.2801 73.6897 37.4605 73.6002 37.6209 73.6002C37.8314 73.6002 38.1322 73.7891 38.5131 74.1668C39.1747 74.8726 39.4554 75.6281 39.3351 76.4233C39.315 76.6619 39.1446 76.8707 38.8339 77.0595C38.6634 77.149 38.5031 77.1987 38.3326 77.1987C38.1923 77.1987 38.0419 77.159 37.9016 77.0894C37.5006 76.9005 37.1899 76.3935 36.9794 75.5684C36.8791 75.2603 36.839 74.9521 36.839 74.6539ZM40.7585 74.0177C40.7585 73.6897 40.8788 73.4014 41.1194 73.1728C41.3098 72.9839 41.5103 72.8944 41.7208 72.8944C42.1018 72.8944 42.4727 73.1231 42.8235 73.5704C43.1543 74.0177 43.3247 74.4452 43.3247 74.8428C43.3247 75.2404 43.2345 75.5486 43.044 75.7573C42.8536 75.9661 42.5929 76.0754 42.2621 76.0754C41.7609 76.0754 41.3499 75.6977 41.0191 74.9422C40.8487 74.6142 40.7685 74.306 40.7685 74.0277L40.7585 74.0177ZM45.7807 62.8842C45.7807 62.4369 46.0814 61.7808 46.6728 60.9061C47.174 60.1804 47.8757 59.3553 48.7779 58.4309C49.8505 57.3275 50.5321 56.6913 50.8429 56.5223C51.1737 56.3334 51.4343 56.2439 51.6248 56.2439C51.7451 56.2439 51.8754 56.2837 52.0157 56.3632C52.1561 56.4427 52.2964 56.5421 52.4468 56.6614C53.2988 57.3871 54.0406 58.1028 54.6521 58.7788C55.6245 59.8424 56.256 60.5581 56.5367 60.9359C56.8975 61.4329 57.0679 61.8504 57.0679 62.2083C57.0679 62.5164 56.9176 62.7848 56.6068 63.0234C56.4364 63.1626 56.246 63.2322 56.0354 63.2322C55.845 63.2322 55.6545 63.1626 55.4641 63.0234C54.8927 62.6258 54.191 61.9995 53.359 61.1546C52.0759 59.8325 51.3742 59.2162 51.2539 59.2857C51.0634 59.405 50.5221 60.0114 49.6199 61.1248C48.5774 62.3773 47.9258 63.1029 47.6552 63.3117C47.2542 63.6397 46.8933 63.8087 46.5826 63.8087C46.2919 63.8087 46.0714 63.6596 45.9009 63.3515C45.8107 63.1626 45.7606 63.0135 45.7606 62.8942L45.7807 62.8842ZM47.4848 72.8447C48.3368 71.8805 49.3292 71.2344 50.4419 70.8964C50.9632 70.7572 51.3842 70.6876 51.6849 70.6876C52.3766 70.6876 52.9079 70.7671 53.2888 70.9361C53.6196 71.0753 54.0106 71.3039 54.4616 71.6121C54.8225 71.8507 55.1232 72.1787 55.3839 72.6062C55.6445 73.0038 55.7748 73.5008 55.7748 74.0873C55.7748 74.6738 55.6044 75.4293 55.2736 76.3438C54.8927 77.3081 54.4015 77.994 53.8101 78.3916C53.2387 78.7494 52.2262 78.9184 50.7827 78.9184C50.1913 78.9184 49.6701 78.9085 49.219 78.8787C48.7679 78.8588 48.4772 78.7991 48.3669 78.6997C47.8456 78.322 47.4146 77.7256 47.0838 76.9005C46.8232 76.2444 46.6929 75.6281 46.6929 75.0615C46.6929 74.8726 46.7129 74.6142 46.763 74.2861C46.8833 73.7195 47.1139 73.2423 47.4747 72.8348L47.4848 72.8447ZM47.575 66.7511C47.6853 66.6219 47.8557 66.4728 48.0963 66.3138C48.2165 66.2243 48.5874 66.0652 49.1989 65.8565C50.0109 65.5781 50.883 65.429 51.8353 65.429C52.8578 65.429 53.4692 65.5384 53.6898 65.7471C53.9003 65.9559 54.0105 66.1945 54.0105 66.4529C54.0105 66.8108 53.9404 67.0295 53.8 67.1289C53.7499 67.1488 53.5093 67.2084 53.0683 67.3078C52.6272 67.4072 52.2363 67.4867 51.8754 67.5563C51.735 67.5762 51.4343 67.6359 50.9832 67.7353C49.9106 67.944 49.0686 68.0534 48.4571 68.0534C47.7655 68.0534 47.4246 67.785 47.4246 67.2382C47.4246 67.0494 47.4747 66.8903 47.585 66.7611L47.575 66.7511ZM49.4094 76.2345C49.4796 76.3239 49.6901 76.3736 50.051 76.3736C51.0233 76.3736 51.725 76.2643 52.1561 76.0555C52.3265 75.9661 52.5169 75.6281 52.7274 75.0615C52.938 74.475 53.0081 74.0873 52.938 73.8984C52.8477 73.7096 52.6573 73.5406 52.3666 73.4014C52.0759 73.2622 51.735 73.1926 51.3341 73.1926C50.6725 73.1926 50.051 73.3716 49.4796 73.7195C49.3092 73.8388 49.229 74.2265 49.229 74.8826C49.229 75.5883 49.2891 76.0357 49.4094 76.2245V76.2345Z" fill="#534741"/>
<path d="M67.5833 78.4314C67.2726 78.4314 67.012 78.3121 66.8014 78.0735C66.4907 77.7455 66.2902 77.159 66.2 76.3041C66.1098 75.4591 66.0296 73.7394 65.9895 71.1449C65.9394 68.9779 65.8892 67.2979 65.8492 66.0951C65.5685 66.3337 65.1876 66.7114 64.7064 67.2283C63.9947 68.0335 63.3932 68.4311 62.892 68.4311C62.7015 68.4311 62.5311 68.3615 62.3908 68.2224C62.2003 68.0335 62.1101 67.8247 62.1101 67.5862C62.1101 67.4967 62.1602 67.278 62.2504 66.95C62.4409 66.5026 63.0323 65.5881 64.0348 64.1964C65.1274 62.6855 66.1799 61.0651 67.2024 59.3255C68.0545 57.8444 68.6259 57.0392 68.9166 56.9199C69.107 56.8503 69.2875 56.8106 69.4478 56.8106C69.8087 56.8106 70.0994 56.9497 70.34 57.238C70.4102 57.3275 70.4503 57.4468 70.4503 57.5859C70.5004 57.6853 70.4904 57.8146 70.4102 57.9736C70.4102 57.9935 70.4102 58.0233 70.3901 58.0631C70.3701 58.1028 70.3701 58.1525 70.3701 58.2221L69.939 59.1764C69.6784 59.7232 69.4178 60.25 69.1571 60.7669L68.1246 62.8544L68.4053 64.6239C68.5757 65.7273 68.686 68.1428 68.7662 71.8706L68.8063 73.9581C68.8063 76.3339 68.7061 77.656 68.5156 77.9145C68.275 78.2425 68.0044 78.4214 67.6936 78.4413H67.5833V78.4314ZM73.9588 71.791C74.6504 70.6181 75.1917 69.8526 75.6027 69.4948C75.8433 69.3059 76.0638 69.2164 76.2743 69.2164C76.4448 69.2164 76.5951 69.2562 76.7355 69.3258C76.9961 69.4451 77.1264 69.7532 77.1264 70.2403C77.1264 70.8566 76.956 71.4729 76.6252 72.1091C75.7731 73.64 74.8509 74.5148 73.8786 74.7235C73.3072 74.7931 72.9864 74.5247 72.9162 73.9084C72.8661 73.6698 73.217 72.964 73.9487 71.791H73.9588ZM75.6729 58.2519C76.0538 57.238 76.2743 56.572 76.3545 56.234C76.5951 55.5083 76.8457 54.9517 77.1064 54.5739C77.367 54.2956 77.6276 54.1465 77.8882 54.1465C78.0587 54.1465 78.219 54.1962 78.3895 54.2857C78.5599 54.4248 78.6401 54.8125 78.6401 55.4487C78.6401 55.9159 78.5899 56.4129 78.4997 56.9199C78.4095 57.4269 78.3494 57.7947 78.3193 58.0333C78.1288 58.5999 78.0787 58.908 78.179 58.9478C78.2291 58.9975 78.2892 59.0174 78.3594 59.0174C78.3794 59.0174 78.5799 58.9677 78.9608 58.8782C80.1237 58.57 81.6574 58.3911 83.5519 58.3514C85.4966 58.4011 86.7798 58.5502 87.4013 58.8086L87.722 59.0174L88.0428 59.3355C88.1631 59.4249 88.2533 59.5442 88.3235 59.6933L88.534 60.081L88.6443 60.3991L88.6844 60.4389C88.7044 60.5582 88.7245 60.6874 88.7245 60.8266C88.7245 61.3634 88.4538 62.0791 87.9025 62.9439C87.311 63.8187 86.8098 64.2461 86.4088 64.2461H86.2986C86.0179 64.2461 85.8074 64.1169 85.6971 63.8584C85.5969 63.4608 85.5768 62.9837 85.627 62.4469L85.7673 61.2838L85.236 61.1745C84.9453 61.1248 84.4742 61.1049 83.8126 61.1049L81.8478 61.1447C79.7828 61.1944 78.5398 61.254 78.1088 61.3236L77.2166 61.4329L76.6452 62.6656C76.2142 63.5801 75.7531 64.2064 75.2519 64.5344C75.1115 64.604 74.9812 64.6438 74.8609 64.6438C74.5301 64.6438 74.2595 64.4549 74.0389 64.0771C73.9487 63.9579 73.8986 63.7789 73.8986 63.5503C73.8986 63.3415 73.9387 63.1129 74.0089 62.8743L75.6829 58.242L75.6729 58.2519ZM77.5976 74.5048C77.9083 74.5048 78.3093 74.7732 78.8105 75.32C79.1413 75.5983 79.3418 75.7474 79.4119 75.7474C79.5022 75.7474 79.6124 75.2305 79.7327 74.2066C79.853 73.1827 79.9532 71.7016 80.0535 69.7731C80.1938 67.5166 80.3843 66.1746 80.6249 65.7472C80.8654 65.439 81.096 65.2899 81.3366 65.2899C81.507 65.2899 81.6774 65.3595 81.8478 65.4986C82.0182 65.6378 82.1786 65.8267 82.2889 66.0653C82.4793 66.3734 82.6097 67.5067 82.6798 69.455C82.6999 70.0216 82.7199 70.8069 82.7199 71.8209C82.7199 72.9541 82.6999 73.7394 82.6498 74.1867C82.5094 75.9263 82.319 77.0596 82.0784 77.5765C81.7476 78.332 81.1662 78.7097 80.3342 78.7097C79.7127 78.7097 79.1313 78.501 78.59 78.0735C78.1589 77.6958 77.798 77.2186 77.4873 76.6222C77.1264 75.8965 76.976 75.3895 77.0262 75.1013C77.1465 74.7036 77.3369 74.5048 77.5976 74.5048ZM85.7172 69.8129C85.7172 69.4848 85.8274 69.2363 86.038 69.0673C86.2485 68.789 86.489 68.6399 86.7497 68.6399C86.8198 68.6399 86.9301 68.6598 87.0705 68.7095C87.4313 68.8983 87.8724 69.4053 88.4237 70.2304L89.2758 71.294C89.366 71.4133 89.5063 71.5922 89.6667 71.8209C89.8371 72.0594 89.9875 72.2583 90.1278 72.4173C90.6291 72.9839 90.8797 73.4909 90.8797 73.9382C90.8797 74.1967 90.7894 74.4253 90.599 74.6142C90.3885 74.8925 90.1078 75.0416 89.777 75.0416C89.4161 75.0416 89.0552 74.8925 88.6743 74.5844C87.8223 73.9482 87.0604 72.9839 86.3888 71.6916C85.9878 70.7473 85.7573 70.1707 85.7172 69.962V69.8228V69.8129Z" fill="#534741"/>
<path d="M96.2627 72.7453C96.6135 72.3179 97.215 71.453 98.047 70.1309C98.7086 69.0971 99.1597 68.5106 99.4003 68.3615L99.8614 68.113C99.8614 68.113 100.052 68.1726 100.292 68.2919C100.573 68.4311 100.723 68.7194 100.723 69.1369C100.723 69.7035 100.453 70.5484 99.9015 71.6817C99.2599 73.0038 98.5482 74.0177 97.7663 74.7235C97.1749 75.2702 96.6737 75.5386 96.2727 75.5386C96.1324 75.5386 95.982 75.4989 95.8417 75.4293C95.5109 75.2404 95.3405 74.9621 95.3405 74.5843C95.3405 74.1867 95.6512 73.5704 96.2627 72.7453ZM103.35 80.0914C102.899 80.0914 102.558 79.9026 102.317 79.5248C102.107 79.1968 101.987 78.8787 101.956 78.5705C101.936 78.2922 101.916 77.1788 101.916 75.2503C101.866 71.7612 101.836 69.7731 101.806 69.2761L101.766 67.0891L100.804 67.0494C100.733 67.0494 100.623 67.0494 100.483 67.0295C100.343 67.0195 100.122 67.0096 99.8413 67.0096H98.8389C98.1472 67.0096 97.6561 66.8605 97.3453 66.5523C97.0646 66.274 96.9443 66.0255 96.9844 65.8068C96.9844 65.4787 97.1749 65.2501 97.5558 65.1308C97.7663 65.0612 98.1272 64.9917 98.6284 64.9221L99.701 64.7133L100.844 64.5046C101.315 64.435 101.566 64.3853 101.596 64.3654C101.616 64.3455 101.656 64.1268 101.706 63.7093C101.756 63.3017 101.786 62.9737 101.816 62.7351C101.936 61.6019 102.057 60.9259 102.177 60.6874C102.317 60.4488 102.548 60.3096 102.849 60.2599H102.919C103.159 60.2599 103.39 60.3792 103.63 60.6178C103.821 60.8067 104.011 61.3633 104.202 62.2779C104.252 62.4667 104.322 62.765 104.412 63.1825C104.503 63.6 104.583 63.8286 104.623 63.8684C104.693 63.9877 105.254 64.0473 106.297 64.0473C107.269 64.0473 107.951 64.1169 108.332 64.256C108.833 64.4449 109.094 64.7531 109.114 65.1706V65.3793C109.114 65.7571 108.933 66.0354 108.582 66.2243C108.151 66.4629 107.48 66.6219 106.548 66.7213L104.944 66.9003L104.833 72.7254C104.783 75.9561 104.713 77.9343 104.623 78.66C104.553 79.4353 104.282 79.8827 103.801 80.002C103.61 80.0517 103.46 80.0715 103.34 80.0715L103.35 80.0914ZM98.3578 58.6794C98.3578 58.401 98.478 58.1426 98.7186 57.904C98.889 57.735 99.9316 57.1982 101.856 56.2837C103.119 55.6674 104.132 55.2697 104.924 55.0809C105.044 55.0312 105.204 55.0113 105.425 55.0113C105.756 55.0113 106.026 55.1206 106.247 55.3294C106.387 55.4686 106.457 55.6375 106.457 55.8264C106.457 55.9656 106.437 56.0749 106.387 56.1445C106.247 56.4229 105.796 56.8006 105.034 57.2777C103.821 58.1028 102.578 58.749 101.295 59.2261C100.413 59.5343 99.7712 59.6834 99.3702 59.6834C99.1797 59.6834 98.9893 59.6337 98.7988 59.5442C98.5181 59.405 98.3678 59.1665 98.3678 58.8384V58.6993L98.3578 58.6794ZM107.38 68.9977C107.831 68.9977 108.161 69.1071 108.382 69.3158C108.883 69.9321 109.344 70.5286 109.775 71.1151C109.866 71.2841 110.026 71.5326 110.236 71.8706C110.447 72.2085 110.557 72.4372 110.557 72.5564C110.557 72.8348 110.447 73.0833 110.236 73.302C110.066 73.471 109.805 73.5505 109.455 73.5505C108.813 73.5505 108.161 73.0137 107.49 71.9302C106.989 71.0852 106.738 70.3795 106.738 69.8128C106.738 69.6737 106.758 69.5047 106.808 69.3158C106.898 69.1071 107.089 68.9977 107.38 68.9977ZM114.647 63.0632C114.978 62.9936 115.299 62.8246 115.609 62.5661C115.89 62.3077 116.331 62.1089 116.923 61.9697C117.424 61.8305 118.095 61.761 118.958 61.761C120.261 61.761 121.203 61.8902 121.774 62.1486C122.296 62.427 122.626 62.7451 122.777 63.1029C122.947 63.5503 123.027 64.1666 123.027 64.942C123.027 66.9698 122.827 68.5603 122.426 69.7134C122.025 70.8665 121.393 71.6022 120.541 71.9004C119.99 72.0892 119.118 72.1787 117.905 72.1787C116 72.1787 114.868 71.9898 114.487 71.6121C113.965 71.1846 113.705 69.8228 113.705 67.5166C113.705 64.7133 114.026 63.2322 114.667 63.0632H114.647ZM116.03 65.3197L116.101 67.1885L116.241 69.624L117.955 69.5842C119.068 69.5643 119.689 69.4947 119.81 69.3755C119.86 69.3059 119.92 69.0474 119.99 68.6001C120.06 68.1528 120.12 67.5961 120.17 66.94C120.261 65.9062 120.311 65.2103 120.311 64.8525C120.311 64.6139 120.221 64.4449 120.03 64.3256C119.82 64.1566 119.148 64.0771 118.035 64.0771C117.464 64.0771 117.033 64.1268 116.752 64.2163C116.371 64.3356 116.151 64.4946 116.081 64.7133C116.061 64.8028 116.041 65.0115 116.041 65.3097L116.03 65.3197Z" fill="#534741"/>
<path d="M137.512 77.3677C136.701 76.5625 136.229 75.2006 136.089 73.2722L135.979 71.8208L133.272 71.7115C131.468 71.6419 130.506 71.5425 130.385 71.4332C130.245 71.294 130.185 71.0455 130.205 70.6876C130.275 70.0017 131.418 69.5246 133.623 69.2363C134.856 69.0673 135.598 68.9579 135.828 68.8884C135.999 68.8188 136.069 68.2323 136.039 67.1189L135.969 65.4191L133.473 65.3495C132.17 65.2998 131.328 65.2302 130.947 65.1408C130.566 65.0513 130.375 64.8028 130.375 64.3952C130.375 64.0175 130.736 63.6994 131.458 63.421C132.18 63.1526 133.252 62.9538 134.686 62.8345C135.067 62.8147 135.397 62.7749 135.688 62.7252C135.979 62.6755 136.149 62.6158 136.219 62.5463C136.36 62.4071 136.43 62.089 136.43 61.592C136.43 61.0949 136.56 60.6973 136.821 60.3196C137.061 59.9617 137.332 59.7927 137.643 59.7927C137.853 59.7927 138.054 59.9319 138.244 60.2202C138.435 60.4985 138.565 60.8961 138.635 61.3832C138.755 62.1089 138.856 62.5264 138.956 62.6158C138.976 62.6357 139.096 62.6556 139.307 62.6556C139.738 62.6556 140.42 62.6158 141.372 62.5463C142.344 62.4767 143.116 62.4369 143.687 62.4369C144.991 62.4369 145.792 62.7749 146.073 63.4608C146.123 63.5503 146.143 63.6994 146.143 63.8882C146.143 64.2163 145.903 64.5344 145.432 64.8425C145.101 65.0513 143.968 65.2004 142.043 65.27C140.239 65.3396 139.237 65.439 139.046 65.5483C138.926 65.6378 138.846 66.1348 138.796 67.0295V67.4867C138.796 68.0533 138.846 68.3814 138.936 68.4808C139.026 68.5504 139.507 68.5305 140.359 68.4112C141.472 68.2422 142.715 68.1627 144.068 68.1627C145.632 68.1627 146.594 68.272 146.955 68.4808C147.266 68.6498 147.416 68.9281 147.416 69.3257C147.416 69.7731 147.286 70.1011 147.025 70.3198C146.855 70.459 146.464 70.5882 145.853 70.7075C145.071 70.8467 144.038 70.9659 142.755 71.0653C140.289 71.2542 139.016 71.4232 138.946 71.5624C138.896 71.6618 138.876 71.8805 138.876 72.2383C138.876 72.5664 138.886 72.8348 138.916 73.0535C138.986 73.8785 139.086 74.4452 139.197 74.7533C139.287 75.0118 139.537 75.2702 139.948 75.5287C140.349 75.7871 141.512 75.9164 143.437 75.9164C145.361 75.9164 146.484 75.8766 146.604 75.807C146.815 75.6877 147.126 75.3199 147.527 74.7136C147.958 74.0575 148.349 73.7195 148.7 73.7195C149.411 73.7195 149.772 74.137 149.772 74.9521C149.772 75.141 149.722 75.4889 149.632 76.0158C149.351 77.3776 148.579 78.2723 147.316 78.6997C146.745 78.8886 145.903 78.9781 144.79 78.9781C144.028 78.9781 142.956 78.9184 141.582 78.7991C139.658 78.6301 138.294 78.153 137.482 77.3478L137.512 77.3677ZM132.54 57.1783C132.881 56.9795 133.423 56.8205 134.164 56.7012C135.067 56.562 135.728 56.4228 136.159 56.2737L138.264 55.568C139.688 55.1206 140.58 54.8125 140.941 54.6534C141.302 54.4844 141.652 54.4049 142.013 54.4049C142.374 54.4049 142.665 54.5341 142.906 54.7926C143.046 54.9616 143.116 55.1306 143.116 55.3194C143.116 55.6773 142.875 56.0252 142.404 56.3831C142.124 56.6217 141.713 56.8801 141.191 57.1585C140.53 57.5163 139.998 57.7549 139.628 57.904L137.883 58.5402C137.222 58.7788 136.62 58.9378 136.099 59.0372C135.929 59.0571 135.678 59.1068 135.347 59.1764C135.016 59.246 134.746 59.2857 134.525 59.2857C133.934 59.2857 133.493 59.2659 133.212 59.236C132.931 59.2062 132.701 59.1168 132.54 58.9676C132.21 58.6893 132.039 58.3712 132.039 58.0133C132.039 57.6555 132.21 57.3871 132.561 57.1783H132.54Z" fill="#534741"/>
<path d="M157.962 76.9105L157.922 76.5526C157.922 76.1053 158.052 75.7872 158.313 75.5983C158.433 75.5287 158.553 75.489 158.674 75.489C158.884 75.489 159.185 75.6381 159.566 75.9462C159.776 76.155 159.937 76.2842 160.027 76.3339C160.077 76.3339 160.167 76.2544 160.308 76.0854C160.969 75.1709 161.31 73.64 161.31 71.4928L161.35 69.6538L160.709 69.6936C160.538 69.6936 159.987 69.7433 159.034 69.8328C158.914 69.8526 158.754 69.8725 158.533 69.8725C158.132 69.8725 157.842 69.8129 157.681 69.6936C157.471 69.5544 157.36 69.3755 157.36 69.1667C157.36 68.9977 157.481 68.7989 157.721 68.5703C157.912 68.3814 158.182 68.1826 158.543 67.9739C158.994 67.7353 159.385 67.5862 159.716 67.5166C160.598 67.2383 161.069 67.0494 161.14 66.95C161.19 66.9003 161.21 66.8406 161.21 66.771C161.21 66.7015 161.16 66.4728 161.069 66.0951C160.879 65.5782 160.628 65.101 160.318 64.6835C160.057 64.2362 159.927 63.9579 159.927 63.8386V63.6994C159.927 63.5602 159.967 63.3714 160.037 63.1328C160.157 62.6358 160.568 61.751 161.28 60.4786C161.972 59.1565 162.262 58.4806 162.172 58.4309C162.102 58.3613 161.931 58.3215 161.671 58.3215C161.17 58.3215 160.438 58.4408 159.466 58.6794C158.804 58.8186 158.283 58.8882 157.902 58.8882C157.33 58.8882 157.05 58.6794 157.05 58.252C157.05 58.083 157.13 57.8941 157.3 57.6853C157.471 57.4766 157.691 57.2877 157.982 57.1187C158.223 56.9497 158.563 56.7609 159.014 56.5521L160.408 56.0948C161.17 55.906 161.801 55.8165 162.292 55.8165C162.864 55.8165 163.375 55.9457 163.826 56.2042C164.588 56.6714 164.969 57.2778 164.969 58.0034C164.969 58.7291 164.578 59.8424 163.796 61.3236L162.794 63.3018L163.325 64.3952C163.726 65.2402 163.966 65.7571 164.037 65.946C164.157 66.1845 164.257 66.3138 164.357 66.3337C164.478 66.3535 164.798 66.3535 165.32 66.3337C165.44 66.3138 165.6 66.2939 165.821 66.2939C166.222 66.2939 166.523 66.3535 166.713 66.4728C166.974 66.612 167.104 66.8903 167.104 67.288C167.104 67.9739 166.563 68.4908 165.47 68.8387L164.508 69.117L164.397 71.1648C164.187 74.8428 163.415 77.2385 162.082 78.3717C161.611 78.819 161.069 79.0477 160.478 79.0477C160.097 79.0477 159.746 78.9682 159.405 78.7992C158.553 78.4015 158.072 77.7653 157.982 76.8906L157.962 76.9105ZM169.289 59.5244C169.289 59.3156 169.43 59.087 169.72 58.8484C170.051 58.5899 172.277 58.1724 176.386 57.6158C178 57.3772 179.714 57.2579 181.519 57.2579C182.682 57.2579 183.423 57.3175 183.724 57.4368C184.085 57.5362 184.326 57.735 184.476 58.0333C184.566 58.2221 184.616 58.3712 184.616 58.4905C184.616 58.6098 184.576 58.7291 184.506 58.8484C184.456 59.0373 184.306 59.2162 184.045 59.3752C183.854 59.4945 183.554 59.584 183.153 59.6536C182.722 59.7232 182.17 59.7927 181.479 59.8623C180.246 59.9319 178.822 60.0711 177.208 60.2898C175.123 60.5482 173.339 60.6775 171.865 60.6775C171.013 60.6775 170.392 60.5979 170.011 60.4289C169.63 60.2202 169.41 59.9617 169.329 59.6536L169.289 59.5144V59.5244ZM170.893 68.4709C170.893 67.9739 171.064 67.4072 171.394 66.771C172.487 64.604 173.369 63.1924 174.031 62.5264C174.291 62.2481 174.542 62.099 174.783 62.099C174.973 62.099 175.123 62.1984 175.244 62.3972C175.364 62.596 175.424 62.8743 175.424 63.2223C175.424 63.6696 175.314 64.1368 175.103 64.6338C174.201 66.443 173.88 67.457 174.141 67.6756C174.261 67.7651 174.512 67.8446 174.893 67.8844C175.344 67.954 175.675 68.0236 175.895 68.0931L176.006 68.1329C176.146 68.1329 176.336 67.9937 176.577 67.7055C176.888 67.1886 177.269 66.4132 177.72 65.3694C178.221 64.266 178.632 63.5801 178.963 63.3217C179.083 63.2322 179.223 63.1825 179.394 63.1825C179.604 63.1825 179.825 63.2918 180.035 63.5006C180.276 63.7789 180.396 64.1467 180.396 64.5941C180.396 65.439 180.065 66.612 179.394 68.0931C178.542 70.1906 177.359 72.0992 175.865 73.8189C174.442 75.489 173.239 76.324 172.266 76.324C171.906 76.324 171.645 76.2544 171.465 76.1152C171.284 75.976 171.194 75.7474 171.194 75.4392C171.194 75.0118 171.414 74.5446 171.865 74.0277C173.79 71.9103 174.752 70.7373 174.752 70.5286C174.752 70.3894 174.372 70.3198 173.61 70.3198C172.327 70.2503 171.495 69.9222 171.114 69.3258C170.973 69.0673 170.903 68.7691 170.903 68.4411L170.893 68.4709ZM176.276 75.4293C178.461 73.1927 180.186 71.0057 181.439 68.8586C181.679 68.4311 181.9 68.1329 182.1 67.944C182.301 67.7552 182.561 67.6657 182.862 67.6657C183.143 67.6856 183.343 67.7651 183.454 67.8943C183.564 68.0236 183.614 68.2323 183.614 68.5107C183.614 68.9381 183.574 69.286 183.494 69.5544C183.413 69.8228 183.353 69.9819 183.333 70.0316C183.243 70.4093 182.862 71.1747 182.19 72.3278L181.188 73.9482L182.261 75.1808C183.303 76.4333 183.975 77.3677 184.255 78.0039C184.346 78.2823 184.396 78.491 184.396 78.6004C184.396 78.9284 184.255 79.1869 183.965 79.3757C183.774 79.5447 183.534 79.6242 183.253 79.6242C182.511 79.6242 181.689 78.9185 180.757 77.5069C180.186 76.6619 179.845 76.1749 179.724 76.0556C179.654 75.986 179.193 76.3538 178.331 77.149C177.519 77.9542 176.968 78.4413 176.657 78.6302C176.346 78.8389 176.006 78.9483 175.625 78.9483C174.793 78.9483 174.382 78.5805 174.382 77.8548C174.382 77.5268 175.013 76.7116 176.266 75.4194L176.276 75.4293ZM176.667 53.1027C176.978 53.1027 177.309 53.2916 177.67 53.6693C178.291 54.3254 178.592 55.0113 178.592 55.7171C178.592 56.5223 178.331 56.9199 177.81 56.9199C177.289 56.9199 176.787 56.403 176.316 55.3692C176.056 54.7827 175.925 54.3254 175.925 53.9874C175.925 53.7091 176.006 53.4805 176.176 53.3115C176.316 53.1723 176.487 53.1027 176.677 53.1027H176.667Z" fill="#534741"/>
<path d="M190.47 75.0516C190.24 74.7533 190.07 74.316 189.949 73.7295C189.859 73.1927 189.739 71.6718 189.588 69.1767C189.498 67.7651 189.448 66.5822 189.448 65.6478C189.448 65.2004 189.458 64.9221 189.488 64.8028C189.538 64.4947 189.689 64.0374 189.949 63.4211C190.21 62.8047 190.581 62.1188 191.052 61.3335C192.074 59.5641 192.686 58.5999 192.906 58.4408C193.147 58.252 193.367 58.1625 193.578 58.1625C193.748 58.1625 193.889 58.2122 194.009 58.3017C194.25 58.4707 194.37 58.7291 194.37 59.077C194.37 59.3156 194.32 59.5741 194.23 59.8524C193.949 60.7967 193.468 61.6914 192.806 62.5364C192.355 63.1527 192.155 63.4807 192.205 63.5304C192.275 63.6 192.786 63.4907 193.738 63.2123C194.691 62.9737 195.884 62.8246 197.337 62.755C197.628 62.7352 197.989 62.7153 198.44 62.7153C199.031 62.7153 199.452 62.755 199.683 62.8246C200.134 62.9439 200.475 63.2223 200.715 63.6696C201.046 64.1865 201.216 65.3098 201.216 67.0295C201.216 67.8347 201.206 68.451 201.176 68.8983C201.036 71.5823 200.675 73.3418 200.104 74.1669C199.482 74.9919 197.578 75.3995 194.37 75.3995C193.588 75.3995 192.916 75.4194 192.375 75.4492C191.824 75.489 191.493 75.4989 191.373 75.4989C190.992 75.4989 190.691 75.3498 190.46 75.0615L190.47 75.0516ZM192.024 66.95C192.195 68.2721 192.325 69.455 192.415 70.5187L192.626 72.9541L194.26 72.9143C195.493 72.8646 196.425 72.7752 197.036 72.636L198.139 72.3875L198.279 70.4093C198.35 69.5842 198.39 68.8089 198.39 68.0733L198.35 66.8406L198.309 65.3197L197.026 65.28C196.335 65.2601 195.352 65.3297 194.069 65.4887C193.929 65.5086 193.608 65.5583 193.107 65.6279C192.606 65.6975 192.295 65.6975 192.185 65.6279L192.074 65.5881C192.074 65.5881 191.984 65.6179 191.934 65.6776C191.884 65.7372 191.874 65.8168 191.894 65.9062L192.004 66.9301L192.024 66.95ZM194.51 68.6399C194.801 68.5703 195.142 68.5305 195.543 68.5305C196.084 68.5305 196.545 68.5703 196.916 68.6498C197.287 68.7293 197.528 68.8288 197.648 68.948C197.908 69.2065 198.039 69.4351 198.039 69.624C198.039 69.7234 197.999 69.8228 197.928 69.9421C197.688 70.2701 197.217 70.5187 196.505 70.6876C196.144 70.7572 195.743 70.797 195.292 70.797C194.32 70.797 193.738 70.7075 193.548 70.5187C193.357 70.3298 193.267 70.0813 193.267 69.7731C193.267 69.2761 193.678 68.8983 194.51 68.6399ZM204.133 61.4727C204.254 61.2143 204.434 60.7669 204.665 60.1307L205.026 59.3554C205.266 58.7192 205.457 58.3315 205.597 58.1923C205.878 57.8842 206.178 57.735 206.489 57.735C207.01 57.735 207.271 57.9935 207.271 58.5104C207.271 58.8385 207.201 59.3454 207.061 60.0313C206.89 60.926 206.599 61.93 206.168 63.0334C205.838 63.8585 205.477 64.4251 205.096 64.7332C204.835 64.9718 204.555 65.0911 204.244 65.0911C203.933 65.0911 203.692 65.0016 203.532 64.8227C203.362 64.6438 203.281 64.4052 203.281 64.097C203.281 63.7193 203.402 63.2918 203.642 62.8246L204.144 61.4826L204.133 61.4727ZM206.91 66.3138C207.051 66.1746 207.311 66.105 207.692 66.105C208.073 66.105 208.544 66.4132 209.116 67.0196C209.737 67.6558 210.038 68.2323 210.038 68.7492C210.038 68.9381 209.998 69.1071 209.928 69.2463C209.807 69.4848 209.597 69.6439 209.286 69.7433C209.166 69.793 209.015 69.8129 208.825 69.8129C208.494 69.8129 208.183 69.6737 207.903 69.3854L207.331 68.789C207.091 68.5305 206.94 68.3218 206.87 68.1528C206.75 67.8446 206.69 67.5067 206.69 67.1289C206.69 66.7512 206.76 66.4828 206.9 66.3138H206.91ZM207.983 61.7908C207.983 61.5522 208.113 61.3435 208.374 61.1546C208.634 60.9657 209.015 60.8266 209.517 60.7272C210.318 60.5582 211.441 60.4786 212.865 60.4786C214.288 60.4786 215.14 60.5681 215.501 60.757C216.263 61.1844 216.724 61.7312 216.894 62.4171C216.985 62.7749 217.035 63.2521 217.035 63.8684C217.035 64.4847 216.985 65.0513 216.894 65.6378C216.684 66.9301 216.353 68.5107 215.892 70.3695C215.27 72.6559 214.859 74.0675 214.649 74.6042C214.288 75.5685 213.897 76.2842 213.456 76.7415C213.015 77.1987 212.504 77.4274 211.902 77.4274C211.361 77.4274 210.679 77.1789 209.867 76.6818C209.627 76.5427 209.336 76.2146 208.975 75.6878C208.664 75.2404 208.514 74.9025 208.514 74.6639C208.514 74.475 208.624 74.2762 208.835 74.0674C208.975 73.8786 209.146 73.7891 209.336 73.7891C209.506 73.7891 209.807 73.9581 210.258 74.2861C210.78 74.6639 211.1 74.8528 211.221 74.8528C211.551 74.8528 212.113 73.3617 212.895 70.3695C213.396 68.4411 213.747 66.94 213.967 65.8665C214.178 64.7929 214.268 64.0473 214.218 63.6199L214.108 62.9141L211.331 62.8047C209.426 62.7352 208.394 62.5761 208.233 62.3475C208.063 62.089 207.983 61.9002 207.983 61.7809V61.7908Z" fill="#534741"/>
<path d="M227.33 77.656C227.189 77.656 226.969 77.6361 226.688 77.5864C226.187 77.308 225.866 76.8408 225.726 76.2046C225.585 75.31 225.515 73.7195 225.515 71.4331C225.465 69.1766 225.445 66.3734 225.445 63.0234V61.1844C225.515 60.3593 225.666 59.7032 225.906 59.2062C226.097 58.8484 226.468 58.6098 227.009 58.4607C227.179 58.411 227.39 58.3513 227.67 58.2619C227.951 58.1724 228.322 58.0531 228.793 57.8941C229.645 57.5859 230.317 57.407 230.788 57.3672C231.57 57.228 232.542 57.1584 233.705 57.1584C234.868 57.1584 236.141 57.238 237.584 57.407C238.607 57.5461 239.279 57.6853 239.619 57.8344C240.05 58.0233 240.381 58.2221 240.622 58.4308C240.882 58.739 241.053 59.8424 241.123 61.751L241.163 64.0473C241.163 65.8167 241.133 67.6259 241.073 69.4848C241.013 71.3437 240.933 72.5962 240.842 73.2324C240.632 74.972 240.251 76.1152 239.7 76.6619C239.319 77.0894 238.757 77.3379 238.025 77.4074C237.574 77.477 236.752 77.5168 235.57 77.5168L232.823 77.477L229.906 77.4373C228.954 77.4373 228.342 77.477 228.051 77.5466C227.811 77.6162 227.58 77.656 227.34 77.656H227.33ZM228.142 61.1546C228.142 61.6715 228.152 62.1188 228.182 62.4965L228.252 64.8326C228.422 71.2145 228.583 74.4849 228.753 74.6539C228.873 74.7235 229.154 74.7632 229.605 74.7632L231.279 74.6937C232.562 74.6042 233.595 74.5545 234.377 74.5545C234.898 74.5545 235.419 74.5744 235.94 74.6241C236.652 74.6937 237.113 74.7036 237.334 74.6638C237.504 74.644 237.635 74.5247 237.725 74.306C237.865 73.8587 237.975 70.6677 238.046 64.7332C238.096 63.4608 238.136 62.586 238.186 62.1188L238.226 60.9558C238.226 60.7669 238.166 60.6078 238.046 60.4786C237.925 60.3494 237.775 60.2599 237.584 60.2102C237.083 60.0909 235.95 60.0213 234.166 60.0015C231.891 60.0015 230.397 60.071 229.715 60.2102C228.833 60.3494 228.342 60.4687 228.222 60.5681C228.172 60.6178 228.152 60.8166 228.152 61.1645L228.142 61.1546ZM229.886 67.0493C230.146 66.8406 230.427 66.6915 230.738 66.6219C231.169 66.5026 231.941 66.4131 233.053 66.3436C233.434 66.3237 233.885 66.3038 234.407 66.3038C234.808 66.3038 235.058 66.3237 235.159 66.3734C235.539 66.4927 235.85 66.7014 236.081 67.0096C236.221 67.2183 236.291 67.447 236.291 67.6855C236.291 67.8048 236.281 67.8943 236.251 67.9639C236.041 68.7194 235.209 69.0971 233.755 69.0971C231.099 69.0971 229.705 68.6697 229.585 67.8247C229.585 67.616 229.675 67.3575 229.866 67.0493H229.886Z" fill="#534741"/>
<path d="M251.518 59.3852C251.759 58.9577 252.16 58.6694 252.731 58.5004C253.393 58.3116 254.485 58.1724 256.009 58.073C256.841 58.0233 257.603 57.9736 258.284 57.9139C258.976 57.8543 259.588 57.8046 260.139 57.7549C263.537 57.4467 266.013 57.2976 267.587 57.2976C269.913 57.2976 271.296 57.4169 271.717 57.6555C272.569 58.1028 273 58.739 273 59.5641C273 60.0611 272.83 60.6576 272.499 61.3633C271.907 62.6159 271.366 63.2322 270.895 63.2322C270.805 63.2322 270.694 63.1825 270.594 63.093C270.484 63.0035 270.414 62.924 270.364 62.8842C270.103 62.6755 269.973 62.3276 269.973 61.8604C269.973 61.5323 270.043 61.1446 270.183 60.6973L270.253 60.419C270.253 60.1605 270.083 59.9915 269.752 59.9219C269.471 59.8722 268.96 59.8524 268.218 59.8524C267.477 59.8524 266.865 59.8623 266.364 59.8921C264.58 59.9617 263.016 60.0711 261.663 60.2102C260.71 60.3096 259.106 60.3494 256.851 60.3494C254.405 60.3494 253.182 60.4389 253.182 60.6277L253.363 62.0095C253.433 62.3574 253.473 62.6656 253.473 62.924C253.473 63.1626 253.423 63.3614 253.332 63.5204C253.162 63.759 252.931 63.8783 252.621 63.8783C252.38 63.8783 252.18 63.8286 252.019 63.7391C251.849 63.6497 251.709 63.4906 251.588 63.2819C251.378 62.8544 251.267 62.0791 251.267 60.9458C251.267 60.1903 251.348 59.6734 251.518 59.3951V59.3852ZM254.826 52.6057C255.367 52.6057 255.999 52.9834 256.711 53.7389C257.492 54.5839 257.883 55.23 257.883 55.6773C257.883 56.0749 257.573 56.2738 256.961 56.2738C256.701 56.2738 256.47 56.2042 256.28 56.065C255.999 55.8264 255.628 55.4884 255.177 55.0411C254.395 54.2657 254.004 53.6494 254.004 53.2021C254.004 53.0132 254.094 52.8641 254.285 52.7448C254.405 52.6554 254.585 52.6057 254.816 52.6057H254.826ZM261.492 82C261.252 82 261.021 81.8807 260.78 81.6422C260.52 81.3837 260.39 81.0258 260.39 80.5785V77.4373C260.39 74.8925 260.329 73.5903 260.209 73.5107C260.159 73.4909 259.999 73.461 259.728 73.4213C259.457 73.3815 259.136 73.3418 258.786 73.302C258.314 73.2125 257.904 73.1628 257.573 73.1628C257.212 73.1628 257.041 73.2424 257.041 73.4113V75.7076C257.041 77.5168 256.931 78.5308 256.721 78.7494C256.48 78.988 256.229 79.1073 255.969 79.1073C255.608 79.1073 255.327 78.988 255.117 78.7494C254.926 78.5407 254.816 78.1828 254.796 77.6858L254.686 75.0714L254.646 73.6201L254.686 72.5266C254.736 71.9103 254.776 71.4928 254.826 71.2741C254.876 71.0554 254.996 70.8765 255.187 70.7572C255.428 70.6379 255.598 70.5783 255.718 70.5783C255.859 70.5783 255.999 70.628 256.129 70.7373C256.26 70.8467 256.4 70.966 256.54 71.1051C256.66 71.2244 256.901 71.2841 257.252 71.2841C257.392 71.2841 257.964 71.2344 258.966 71.1449C259.918 71.0256 260.4 70.9361 260.43 70.8666C260.5 70.6777 260.55 70.3298 260.57 69.8029L260.64 68.8486L259.568 68.7094C258.836 68.6399 258.355 68.5703 258.144 68.5007C257.833 68.4112 257.613 68.1031 257.482 67.5862C257.352 67.0692 257.282 66.3038 257.282 65.2899C257.282 63.8982 257.372 63.1129 257.563 62.924C258.254 62.2381 259.277 61.8604 260.63 61.7908C261.983 61.7212 262.845 61.6814 263.226 61.6814C264.79 61.6814 265.732 61.8007 266.043 62.0393C266.424 62.3475 266.675 62.6755 266.795 63.0334C266.845 63.2719 266.865 63.4906 266.865 63.7093C266.865 64.0374 266.825 64.4549 266.755 64.942C266.635 65.767 266.524 66.3833 266.434 66.781C266.314 67.278 266.163 67.6557 265.973 67.9142C265.853 68.0832 265.702 68.2124 265.532 68.3019C265.352 68.4013 265.241 68.451 265.191 68.4808C265.051 68.5504 264.83 68.6001 264.53 68.6399C264.229 68.6796 264.038 68.7094 263.938 68.7293L262.695 68.8685V70.7771H267.647C267.908 70.7771 268.108 70.8069 268.238 70.8666C268.369 70.9262 268.519 71.0455 268.68 71.2344C269.271 71.8209 269.572 73.1032 269.572 75.0814C269.572 76.4035 269.461 77.2683 269.251 77.6957C268.87 78.4711 268.208 78.9284 267.256 79.0775C266.855 79.1272 266.424 79.0178 265.973 78.7594C265.261 78.3121 264.9 77.8548 264.9 77.3776C264.9 77.0198 264.981 76.821 265.151 76.7812C265.321 76.7315 265.602 76.7216 266.003 76.7414L266.825 76.811V73.2125L265.111 73.2821C263.968 73.302 263.297 73.3716 263.076 73.4909C262.906 73.5605 262.825 73.7593 262.825 74.0873L262.896 76.4929L262.936 77.9443C262.936 80.0914 262.705 81.334 262.254 81.6919C261.973 81.9006 261.713 82.01 261.472 82.01L261.492 82ZM259.247 65.3595C259.267 65.9062 259.327 66.2342 259.427 66.3535C259.497 66.4529 259.578 66.5126 259.678 66.5523C259.768 66.5921 259.918 66.5921 260.109 66.5722C260.871 66.4827 261.542 66.433 262.144 66.433C263.216 66.433 263.768 66.4132 263.818 66.3635C263.868 66.3138 263.958 65.9658 264.098 65.2998C264.239 64.6437 264.279 64.266 264.209 64.1666C264.189 64.097 263.337 64.0572 261.683 64.0572C260.029 64.0572 259.227 64.097 259.227 64.1666L259.267 65.3694L259.247 65.3595ZM259.918 54.057C260.009 53.0232 260.159 52.3174 260.349 51.9396C260.47 51.7011 260.8 51.5818 261.352 51.5818C261.663 51.5818 261.863 51.721 261.953 52.0092C262.094 52.387 262.164 53.1524 262.164 54.3055C262.164 55.389 262.094 56.1445 261.953 56.562C261.853 56.8205 261.713 56.9994 261.522 57.0889C261.332 57.1883 261.061 57.2181 260.7 57.1982C260.42 57.1783 260.189 57.0491 260.019 56.8105C259.848 56.572 259.768 56.2738 259.768 55.896C259.768 55.7568 259.818 55.1405 259.908 54.057H259.918ZM264.59 53.9079C264.85 53.1822 265.081 52.7051 265.261 52.4963C265.522 52.218 265.823 52.0689 266.153 52.0689C266.584 52.0689 266.845 52.208 266.935 52.4963C266.955 52.546 266.975 52.6454 266.975 52.8144C266.975 53.0928 266.905 53.4705 266.765 53.9477C266.574 54.564 266.384 55.0212 266.194 55.3294C265.983 55.7071 265.672 55.896 265.271 55.896C264.82 55.896 264.519 55.6475 264.379 55.1505C264.309 54.9119 264.379 54.5043 264.59 53.9178V53.9079Z" fill="#534741"/>
</g>
<defs>
<clipPath id="clip0_112_308">
<rect width="273" height="82" fill="white"/>
</clipPath>
</defs>
</svg>
