<svg width="636" height="167" viewBox="0 0 636 167" fill="none" xmlns="http://www.w3.org/2000/svg">
<g clip-path="url(#clip0_22_3198)">
<path d="M141.43 82.0213C146.881 82.0213 151.3 77.6115 151.3 72.1717C151.3 66.7319 146.881 62.3221 141.43 62.3221C135.979 62.3221 131.56 66.7319 131.56 72.1717C131.56 77.6115 135.979 82.0213 141.43 82.0213Z" fill="#FC762F"/>
<path d="M230.33 82.0213C235.781 82.0213 240.2 77.6115 240.2 72.1717C240.2 66.7319 235.781 62.3221 230.33 62.3221C224.879 62.3221 220.46 66.7319 220.46 72.1717C220.46 77.6115 224.879 82.0213 230.33 82.0213Z" fill="#FC762F"/>
<path d="M82.7303 27.1948L83.9404 26.9154C84.5004 26.6659 85.0804 26.5162 85.7005 26.4563C88.2406 25.8376 90.8808 25.3785 93.641 25.0692C96.3911 24.7598 98.7313 24.6101 100.651 24.6101C101.821 24.6101 102.782 24.7299 103.532 24.9794C103.842 25.0392 104.402 25.3187 105.202 25.8077C105.942 26.4863 106.222 27.1948 106.042 27.9432C105.732 28.6817 105.112 29.3304 104.182 29.8892C103.382 30.1387 101.241 30.478 97.7712 30.9071C95.3611 31.0967 91.8609 31.4959 87.2806 32.1146C84.6804 32.6735 82.7303 32.9429 81.4302 32.9429C80.7502 32.9429 79.9401 32.6335 79.0201 32.0148C78.34 31.3961 78 30.8772 78 30.4381L78.19 29.6996C78.9901 28.7116 80.5102 27.8734 82.7403 27.1948H82.7303ZM84.7704 42.9422C84.7704 42.3235 84.8904 41.8644 85.1404 41.5551C85.5105 40.627 87.6806 39.7688 91.6409 38.9604C92.8809 38.7708 94.111 38.681 95.3511 38.681C96.7112 38.681 98.0413 38.7708 99.3413 38.9604C101.381 39.3896 102.402 40.3775 102.402 41.9243C102.402 42.543 101.701 43.0719 100.311 43.501C98.9213 43.9302 96.6112 44.3992 93.391 44.8882C90.7908 45.1975 89.0007 45.3472 88.0106 45.3472C87.0206 45.3472 86.2805 45.2275 85.7805 44.978C85.2805 44.6686 84.9404 44.1796 84.7604 43.4911V42.9322L84.7704 42.9422ZM87.0006 63.1404C88.9207 62.1525 90.5308 61.5038 91.8309 61.1944C94.001 60.456 96.1911 60.0867 98.4213 60.0867C99.6614 60.0867 100.601 60.2065 101.251 60.456C101.901 60.7055 102.532 61.1645 103.152 61.8431C104.452 63.2003 105.252 64.8668 105.562 66.8428C105.812 68.0802 105.932 69.3176 105.932 70.5451C105.932 72.3414 105.602 73.7684 104.952 74.8562C104.302 75.9339 103.332 76.7223 102.032 77.2213C100.851 77.7203 98.1913 77.9598 94.051 77.9598C90.1508 77.9598 88.0206 77.7402 87.6406 77.3111C85.7205 75.5847 84.7604 72.9601 84.7604 69.4374C84.7604 66.3538 85.5005 64.2481 86.9906 63.1404H87.0006ZM90.6208 49.5186C92.9709 49.0196 94.9511 48.7801 96.5612 48.7801C98.6613 48.7801 100.271 49.1494 101.391 49.8878C102.322 50.3868 102.782 50.8758 102.782 51.3748C102.782 51.6841 102.592 52.1132 102.222 52.6721C101.721 53.2309 100.861 53.6301 99.6213 53.8796C98.3813 54.1291 96.6212 54.2488 94.331 54.2488C90.9908 54.2488 88.9507 53.8197 88.2006 52.9515C87.3306 52.2729 87.1506 51.6542 87.6406 51.0953C88.0106 50.4766 89.0007 49.9577 90.6108 49.5186H90.6208ZM91.8209 10.4195C92.5609 10.4195 93.491 11.0682 94.611 12.3655C96.0311 13.7227 96.9612 15.6686 97.4012 18.2034C97.4612 18.4529 97.4912 18.7622 97.4912 19.1315C97.4912 19.5606 97.4012 20.0296 97.2112 20.5186C96.9612 20.8878 96.7512 21.1373 96.5612 21.2571C96.3711 21.3768 96.1311 21.4467 95.8211 21.4467C95.3211 21.4467 94.361 20.7082 92.9409 19.2213C91.5808 17.3052 90.6808 15.8582 90.2508 14.8703C89.9407 14.0719 89.7907 13.4233 89.7907 12.9243C89.7907 12.4952 89.9107 12.086 90.1608 11.7168C90.7208 10.8486 91.2708 10.4195 91.8309 10.4195H91.8209ZM92.2009 71.5231C92.5109 71.7426 93.341 71.8524 94.711 71.8524H95.7311C97.0312 71.8524 97.8312 71.7027 98.1413 71.3933C98.5713 70.9642 98.7913 70.4952 98.7913 70.0062C98.7913 69.637 98.7613 69.3576 98.7013 69.1679C98.7013 69.0482 98.6413 68.7089 98.5113 68.1501C98.3913 67.5912 98.2013 67.1621 97.9512 66.8527C97.4512 66.5434 96.9612 66.3937 96.4612 66.3937C96.2711 66.3937 95.6811 66.4536 94.701 66.5833C92.7209 66.7729 91.7309 67.7609 91.7309 69.5472C91.7309 70.6549 91.8809 71.3235 92.1909 71.543L92.2009 71.5231ZM134.164 73.6986C132.673 73.6986 130.853 73.2994 128.683 72.4911C126.203 71.8724 124.533 71.1638 123.673 70.3655C122.993 69.7467 122.653 68.9783 122.653 68.0503C122.653 67.3717 122.703 66.8827 122.793 66.5633C122.883 66.254 123.083 66.0344 123.393 65.9147C123.893 65.7251 124.473 65.6353 125.153 65.6353C125.893 65.6353 126.823 65.7251 127.943 65.9147L131.003 66.1043C131.743 66.1043 132.213 65.9845 132.393 65.735C132.823 65.3059 133.223 62.9907 133.603 58.7894L134.164 51.6542L135.274 43.501C135.274 44.0599 135.394 42.6728 135.644 39.3297C135.834 37.3538 135.924 35.9068 135.924 34.9787C135.924 34.2402 135.834 33.7412 135.644 33.4918C135.454 33.3022 134.884 33.1824 133.923 33.1225C132.963 33.0626 131.803 33.0327 130.443 33.0327C127.723 33.0327 125.063 33.1824 122.463 33.4918C120.603 33.7412 119.613 33.861 119.493 33.861C118.993 33.861 118.593 33.7712 118.283 33.5816C117.602 33.5816 117.262 32.9928 117.262 31.8252C117.262 30.5878 118.163 29.5399 119.953 28.6717C122.673 27.564 126.823 26.8156 132.393 26.4463C135.794 26.0172 139.694 25.8576 144.094 25.9873C146.324 25.9873 148.054 26.147 149.294 26.4463C150.285 26.6359 150.935 26.8754 151.245 27.1848C151.615 27.554 151.805 28.2027 151.805 29.1308C151.805 30.3083 151.415 31.1566 150.645 31.6755C149.864 32.2044 148.554 32.4639 146.694 32.4639C144.154 32.4639 142.614 32.8331 142.054 33.5716C141.744 34.3101 141.624 36.5355 141.684 40.2378C141.744 41.4752 141.774 43.2017 141.774 45.4271C141.774 47.9618 141.714 49.7481 141.584 50.796C140.964 59.9969 140.344 66.0843 139.724 69.0482C139.354 70.9642 138.514 72.2615 137.214 72.9401C136.344 73.4391 135.324 73.6786 134.154 73.6786L134.164 73.6986Z" fill="#534741"/>
<path d="M167.036 29.2305C167.596 21.267 168.146 16.906 168.706 16.1675C169.076 15.4889 169.666 15.0598 170.466 14.8702L175.386 13.4831C178.176 12.6847 180.646 12.2756 182.817 12.2756C186.217 12.2756 188.577 13.3534 189.877 15.5189C190.367 16.6266 190.617 18.9817 190.617 22.5643C190.617 28.991 189.937 32.9428 188.577 34.4198C187.087 36.0863 183.527 36.9246 177.896 36.9246C175.046 36.9246 173.496 37.0444 173.256 37.2938C173.136 37.6631 172.976 42.2635 172.796 51.0953C172.486 64.8069 172.236 72.5309 172.056 74.2574C171.936 75.9239 171.576 77.2811 170.986 78.3289C170.396 79.3768 169.696 79.9057 168.896 79.9057C168.216 79.9057 167.566 79.5664 166.946 78.8878C166.076 77.9597 165.646 74.5368 165.646 68.609C165.646 66.6331 165.706 63.9187 165.836 60.4559L165.926 54.8974C166.116 45.7563 166.486 37.204 167.036 29.2305ZM174.086 22.4645L175.296 22.3747C177.896 22.0653 179.536 21.8757 180.216 21.8159L183.557 21.5364V18.7522H180.586C176.566 18.7522 174.176 19.0915 173.436 19.7701C173.316 19.8898 173.246 20.1094 173.246 20.4187C173.246 20.4786 173.306 20.8179 173.436 21.4366C173.686 22.0554 173.896 22.3947 174.086 22.4545V22.4645ZM173.716 31.1765C173.776 31.2364 175.266 31.1466 178.176 30.8971C181.206 30.5877 182.877 30.3682 183.187 30.2484C183.307 30.2484 183.377 30.1586 183.377 29.969L183.187 29.1407C183.187 28.7116 182.937 28.4322 182.447 28.3024C182.257 28.2426 181.617 28.2126 180.496 28.2126L178.456 28.1228C175.486 28.1228 173.936 28.1527 173.816 28.2126C173.696 28.3324 173.566 28.8313 173.446 29.6995C173.446 30.4979 173.536 30.9969 173.726 31.1865L173.716 31.1765ZM185.697 43.2216C187.367 41.4353 188.667 40.2577 189.597 39.6989C190.277 39.2697 190.957 39.0502 191.637 39.0502C192.197 39.0502 192.627 39.2099 192.937 39.5092C193.247 39.8186 193.397 40.2178 193.397 40.7167C193.397 41.086 193.367 41.3654 193.307 41.555C193.117 42.4232 192.717 43.2216 192.097 43.96C191.847 44.459 191.467 44.9779 190.937 45.5368C190.407 46.0956 190.057 46.4649 189.867 46.6445C188.817 47.5726 188.037 48.1913 187.547 48.5006C186.677 48.9298 185.877 49.1493 185.137 49.1493C184.827 49.1493 184.577 49.1194 184.397 49.0595C183.587 48.6304 183.187 47.9817 183.187 47.1135C183.187 46.2453 184.017 44.948 185.697 43.2216ZM184.397 72.032C184.397 71.3534 184.797 70.585 185.607 69.7168C187.097 67.4914 188.067 65.8448 188.527 64.757C188.987 63.6792 188.977 63.1004 188.477 63.0406C187.977 63.0406 187.367 62.7312 186.617 62.1125C186.117 61.5536 185.877 60.0168 185.877 57.4821C185.877 55.566 185.937 54.4284 186.067 54.0591C186.067 53.6899 186.347 53.1011 186.897 52.3028C188.627 50.3269 191.257 48.9098 194.787 48.0416C195.467 47.7322 196.577 47.5825 198.128 47.5825C200.918 47.5825 202.798 47.832 203.788 48.321C204.718 48.6304 205.488 49.3389 206.108 50.4466C206.608 51.3148 206.848 52.173 206.848 53.0413C206.848 54.7677 206.318 56.6238 205.268 58.5998C204.768 60.0867 204.088 61.1046 203.228 61.6534C202.358 62.0825 201.928 62.8011 201.928 63.789C201.928 64.8967 202.048 65.6751 202.298 66.1042C202.608 66.4136 203.128 66.5633 203.878 66.5633C204.748 66.5633 205.488 66.4136 206.108 66.1042C206.478 65.6053 207.008 64.7171 207.688 63.4198C208.248 62.3121 208.648 61.6335 208.898 61.384C209.148 61.1345 209.608 61.0148 210.288 61.0148C211.158 61.0148 211.778 61.4339 212.148 62.2622C212.518 63.1004 212.708 64.4377 212.708 66.2938C212.648 67.5313 212.488 68.4893 212.248 69.1679C212.188 69.3575 211.988 69.617 211.648 69.9563C211.308 70.2956 211.048 70.5949 210.858 70.8344C208.998 72.501 206.778 73.3393 204.178 73.3393C201.578 73.3393 199.478 72.501 197.868 70.8344C197.067 69.8465 196.627 68.4594 196.567 66.6631C196.377 64.6872 196.007 63.6992 195.457 63.6992C194.957 63.6992 194.557 64.3179 194.247 65.5554C194.057 66.7329 193.507 68.1201 192.577 69.7267C191.767 71.2735 190.877 72.4112 189.887 73.1596C189.207 73.7783 188.337 74.0877 187.287 74.0877C185.367 74.0877 184.407 73.4091 184.407 72.0519L184.397 72.032ZM190.707 56.4642C190.707 56.8933 190.827 57.1428 191.077 57.2026C191.197 57.3224 191.537 57.3923 192.097 57.3923C192.777 57.3923 193.767 57.3024 195.067 57.1128C197.297 56.7436 198.748 56.3444 199.428 55.9053C199.858 55.5361 200.078 55.107 200.078 54.608C200.078 53.6799 199.428 53.2209 198.128 53.2209C197.077 53.2209 195.617 53.5003 193.767 54.0591C191.787 54.5581 190.797 55.1369 190.797 55.8155L190.707 56.4642ZM204.448 39.0502C204.878 39.0502 205.318 39.17 205.748 39.4194C206.738 39.7288 207.638 40.6269 208.438 42.1039C208.868 42.9122 209.088 43.6507 209.088 44.3293C209.088 44.6386 209.028 44.9779 208.898 45.3472C208.528 45.9659 207.968 46.2753 207.228 46.2753C205.988 46.2753 204.818 45.6266 203.698 44.3293C202.588 43.0918 202.028 42.0141 202.028 41.086C202.028 40.4074 202.278 39.9184 202.768 39.5991C203.508 39.2298 204.068 39.0402 204.438 39.0402L204.448 39.0502ZM204.728 20.1493C204.668 19.4108 204.638 18.7622 204.638 18.2033C204.638 17.4649 204.748 16.7863 204.968 16.1675C205.188 15.5488 205.628 14.9002 206.318 14.2216C207.308 13.1139 208.758 12.2656 210.678 11.6768C212.598 11.0881 215.069 10.639 218.109 10.3296C219.969 10.2099 221.199 10.14 221.819 10.14C224.169 10.14 225.939 10.4194 227.109 10.9683C229.029 12.0161 230.3 14.0619 230.92 17.0856C231.23 18.6324 231.38 21.257 231.38 24.9594C231.38 26.1968 231.32 28.9112 231.19 33.1125C230.88 41.575 230.42 48.4907 229.8 53.8695C229.299 57.4521 228.869 61.0946 228.499 64.8069C228.379 65.9845 228.169 67.8007 227.899 70.2756C227.619 72.7505 227.359 74.417 227.109 75.2753C226.299 78.2391 225.249 80.2749 223.949 81.3926C223.149 82.0712 222.279 82.4105 221.349 82.4105C219.119 82.4105 216.889 81.1431 214.669 78.6084C213.559 77.1214 212.998 75.9239 212.998 74.9958C212.998 74.3771 213.188 73.8881 213.559 73.5089C214.119 72.9501 214.699 72.6806 215.319 72.6806C216.059 72.6806 216.739 72.96 217.359 73.5089C217.919 74.0079 218.469 74.2474 219.029 74.2474C219.399 74.2474 219.679 74.0278 219.869 73.5987C219.929 73.4091 220.089 71.8723 220.329 68.9683L220.889 63.4098L221.819 56.1847C222.189 53.2808 222.519 50.4865 222.789 47.8021C223.059 45.1176 223.239 42.9122 223.299 41.1758L223.389 37.194L216.889 36.8248C213.549 36.6352 211.038 36.4057 209.368 36.1262C207.698 35.8468 206.708 35.4676 206.398 34.9686C205.348 33.9208 204.818 29.8393 204.818 22.7439C204.818 21.756 204.788 20.8878 204.728 20.1493ZM211.318 20.8878H223.849L224.129 19.4009C224.129 18.353 224.009 17.6744 223.759 17.3651C223.639 17.1156 222.959 16.9459 221.719 16.8561C220.479 16.7663 218.439 16.7164 215.589 16.7164C212.928 16.7164 211.378 16.8761 210.948 17.1755C210.888 17.2353 210.858 17.4549 210.858 17.8241C210.858 18.383 210.888 18.842 210.948 19.2112L211.318 20.8778V20.8878ZM211.878 30.8073C211.938 30.8671 212.308 30.8971 212.988 30.8971L218.099 30.7075L223.859 30.428L224.139 28.9411C224.139 27.9532 223.949 27.4243 223.579 27.3644C222.779 27.1748 220.729 27.055 217.449 26.9951L213.829 26.9053C212.588 26.9053 211.908 26.9652 211.788 27.0949C211.598 27.2845 211.508 27.9033 211.508 28.9511C211.628 30.1287 211.758 30.7474 211.878 30.8073Z" fill="#534741"/>
<path d="M253.651 48.0316C252.911 47.5427 252.541 46.9838 252.541 46.3651C252.541 45.3771 253.001 44.5788 253.931 43.9601C254.801 43.3413 257.491 42.9422 262.011 42.7526C266.092 42.563 273.522 42.4731 284.293 42.4731C291.103 42.4731 295.624 42.533 297.844 42.6628C299.574 42.7825 300.664 43.0619 301.094 43.491C301.834 44.2295 302.204 45.0079 302.204 45.8062C302.204 46.914 301.704 47.7822 300.714 48.4009C300.214 48.7102 298.454 48.9597 295.424 49.1394C292.393 49.329 288.303 49.4188 283.173 49.4188C265.162 49.4188 255.321 48.9597 253.651 48.0316Z" fill="#534741"/>
<path d="M332.196 69.7168C331.826 69.158 331.636 68.4794 331.636 67.681C331.636 66.8827 331.826 64.8668 332.196 61.6535C332.566 58.7495 332.786 56.1848 332.846 53.9594C332.966 50.0076 333.036 47.4429 333.036 46.2653C333.036 44.1697 332.946 43.1119 332.756 43.1119C332.566 43.1119 331.576 44.2196 329.786 46.445C327.556 49.2292 325.855 50.8957 324.675 51.4446C324.305 51.6342 323.965 51.724 323.655 51.724C322.975 51.724 322.235 51.265 321.425 50.3369C320.995 49.8479 320.775 49.4088 320.775 49.0396C320.775 48.85 321.085 48.1414 321.705 46.914C322.945 44.509 323.775 43.0819 324.215 42.6528C325.015 41.8545 325.825 40.7667 326.626 39.4095L327.836 37.743L329.326 35.5176L330.436 33.9408L332.386 31.0668C333.686 29.0909 334.986 27.095 336.286 25.0891C337.586 23.0833 338.636 21.277 339.446 19.6704C341.306 16.1476 342.356 14.2615 342.606 14.022C342.977 13.6528 343.567 13.4632 344.367 13.4632C345.857 13.4632 346.597 14.2715 346.597 15.8682C346.597 16.6067 346.477 17.3851 346.227 18.1834C345.177 22.0754 343.567 25.8077 341.396 29.3902L339.356 32.8132L339.816 40.5072C339.936 42.8524 340.006 44.7684 340.006 46.2554C340.006 47.5527 339.946 49.8679 339.816 53.201C339.626 58.5699 339.386 61.9429 339.076 63.3001C338.336 66.7629 337.526 69.0183 336.666 70.0661C336.236 70.6249 335.586 70.8944 334.716 70.8944C333.666 70.8944 332.826 70.4952 332.206 69.6869L332.196 69.7168ZM359.498 27.6538C361.848 23.8218 363.458 21.5365 364.328 20.798C365.008 20.2392 365.628 19.9598 366.188 19.9598C366.928 19.9598 367.638 20.2991 368.328 20.9776C369.008 21.6562 369.288 22.3348 369.158 23.0134C369.098 23.6322 368.358 25.3885 366.928 28.2925C365.748 30.6377 364.268 33.2024 362.468 35.9866C360.608 38.9505 359.218 40.8964 358.287 41.8245C357.417 42.6927 356.587 43.1218 355.777 43.1218C355.157 43.1218 354.537 42.8125 353.917 42.1938C353.297 41.575 352.987 40.8964 352.987 40.158C352.987 39.5991 353.107 39.0802 353.357 38.5812C354.287 36.3558 356.327 32.7134 359.488 27.6439L359.498 27.6538ZM362.278 64.9966C364.998 61.7832 366.768 59.3782 367.568 57.7715C367.998 56.9732 367.998 56.4443 367.568 56.1948C367.068 55.9453 366.078 55.8256 364.598 55.8256C362.678 55.8256 361.168 55.606 360.048 55.1769C358.998 54.8077 358.468 54.1291 358.468 53.1411C358.468 51.4147 359.578 50.4267 361.808 50.1772C363.358 49.9876 364.858 49.808 366.308 49.6184C367.758 49.4288 369.198 49.2492 370.628 49.0595C376.199 48.381 379.139 48.0117 379.449 47.9518C380.189 47.8321 380.779 47.7622 381.209 47.7622C381.519 47.7622 382.109 47.8221 382.969 47.9518C384.459 48.2612 385.409 48.6005 385.849 48.9697C387.949 50.6962 389.009 52.9216 389.009 55.6359C389.009 57.9212 388.449 61.1046 387.339 65.1762C386.229 69.3775 385.109 72.4013 383.999 74.2574C382.639 76.4828 380.749 77.5905 378.339 77.5905C376.299 77.5905 374.408 76.5726 372.678 74.5368C371.878 73.6686 371.468 72.6507 371.468 71.4832C371.468 70.9842 371.498 70.585 371.558 70.2757C371.618 69.9064 372.268 69.6569 373.508 69.5372H374.068C374.869 69.5372 375.369 69.6969 375.559 69.9962C375.749 70.2956 376.149 70.4553 376.769 70.4553C377.329 70.4553 378.219 68.6291 379.459 64.9866C380.629 61.4639 381.219 58.8693 381.219 57.2027C381.219 56.0351 381.059 55.4164 380.759 55.3465C380.449 55.2268 379.799 55.1969 378.809 55.2567C378.309 55.3166 377.659 55.3765 376.859 55.4463C376.059 55.5062 375.529 55.606 375.279 55.7258C374.849 55.9752 374.539 56.564 374.348 57.4821C373.728 60.2664 371.838 63.6294 368.688 67.5812C365.288 71.7825 362.498 74.2474 360.328 74.9959C359.828 75.1156 359.398 75.1855 359.028 75.1855C358.227 75.1855 357.567 74.966 357.077 74.5368C356.577 74.1676 356.337 73.7385 356.337 73.2395C356.337 72.4412 358.317 69.6869 362.278 64.9966ZM382.149 18.9419C383.319 19.1913 384.069 19.5306 384.379 19.9598C385.869 21.9357 387.259 23.8816 388.559 25.7977L390.049 28.0231C391.6 30.4281 392.71 32.0348 393.39 32.8431C394.44 34.1404 394.97 35.2182 394.97 36.0864C394.97 36.4556 394.85 36.8548 394.6 37.2939C394.54 37.4136 394.17 37.8228 393.49 38.5014C393.18 38.8108 392.81 38.9604 392.38 38.9604C390.52 38.9604 388.359 37.4136 385.879 34.33C383.339 31.1765 381.549 28.1827 380.499 25.3486C379.819 23.4924 379.479 22.1053 379.479 21.1772C379.479 20.4388 379.669 19.8799 380.039 19.5107C380.599 18.9518 381.309 18.7722 382.179 18.9518L382.149 18.9419Z" fill="#534741"/>
<path d="M413.071 50.7261C413.631 50.5365 414.151 50.4467 414.651 50.4467C415.331 50.4467 415.821 50.5664 416.141 50.8159C416.571 51.0055 416.911 51.3149 417.161 51.744C417.411 52.1731 417.531 52.6721 417.531 53.2309C417.531 54.2787 416.911 55.4264 415.671 56.6638C414.561 57.6518 413.501 58.1507 412.511 58.1507C411.701 58.1507 411.021 57.8713 410.471 57.3125C409.851 56.6339 409.541 55.8954 409.541 55.0871C409.541 54.5282 409.661 54.0392 409.911 53.6001C410.401 52.243 411.461 51.2849 413.071 50.7261ZM412.791 40.158C414.091 40.158 415.231 40.6569 416.221 41.6449C417.641 42.8823 418.361 44.1198 418.361 45.3472C418.361 45.9659 418.201 46.5248 417.901 47.0138C417.281 47.7522 416.571 48.1215 415.761 48.1215C415.021 48.1215 414.241 47.9219 413.441 47.5227C412.641 47.1235 411.951 46.6146 411.401 45.9959C410.601 45.1277 410.191 44.1697 410.191 43.1218C410.191 42.563 410.281 42.074 410.471 41.6349C410.841 40.6469 411.611 40.148 412.791 40.148V40.158ZM418.731 61.2842C421.952 46.6445 423.562 36.1762 423.562 29.8792C423.562 28.4622 423.712 27.4443 424.022 26.8255C424.272 26.3266 424.762 26.0871 425.512 26.0871C426.682 26.0871 427.432 26.4862 427.742 27.2946C428.612 29.4002 429.042 32.394 429.042 36.286C429.042 38.3816 428.762 41.4453 428.202 45.457C427.522 50.3369 426.812 54.4783 426.072 57.8713C425.142 62.5616 424.342 65.8348 423.662 67.691C422.242 71.9522 420.601 75.1056 418.741 77.1414C417.381 78.6284 416.141 79.3668 415.031 79.3668C414.471 79.3668 413.981 79.2471 413.541 78.9976C412.611 78.5086 412.151 77.8899 412.151 77.1414C412.151 76.5826 412.491 75.9738 413.171 75.2853C415.341 73.1198 417.191 68.4594 418.741 61.2942L418.731 61.2842ZM425.882 17.3751C426.872 16.8162 428.202 16.2973 429.872 15.7984C432.042 15.2395 436.342 14.531 442.783 13.6628C448.353 12.8644 452.543 12.3156 455.364 12.0461C458.184 11.7667 460.854 11.627 463.394 11.627C466.304 11.627 468.594 11.8166 470.265 12.1858C471.375 12.4952 472.095 13.1438 472.395 14.1318C472.455 14.3214 472.485 14.5609 472.485 14.8703C472.485 15.489 472.205 16.0778 471.655 16.6266C471.345 16.8761 470.575 17.1056 469.334 17.3252C468.094 17.5447 466.514 17.6844 464.604 17.7443C461.194 17.8042 456.804 18.1734 451.423 18.852C440.093 20.2691 432.362 20.9876 428.212 20.9876C427.222 20.9876 426.482 20.9277 425.982 20.798C425.242 20.6084 424.872 20.1194 424.872 19.3111C424.872 18.4429 425.212 17.7942 425.892 17.3651L425.882 17.3751ZM435.262 74.5368C437.303 72.1917 438.663 71.0141 439.343 71.0141C440.833 71.0141 441.573 71.6628 441.573 72.9601C441.573 73.3293 441.483 73.8582 441.293 74.5368C440.863 76.0237 439.963 77.4408 438.603 78.798C436.932 80.4646 435.542 81.3028 434.422 81.3028C433.992 81.3028 433.522 81.1432 433.032 80.8438C432.352 80.4147 432.012 79.9157 432.012 79.3568C432.012 78.6783 433.092 77.0716 435.262 74.5368ZM440.183 36.266C440.553 36.266 441.143 36.5754 441.943 37.1941C442.743 37.8727 443.213 38.212 443.333 38.212C443.393 38.212 443.623 38.0124 444.033 37.6132C444.433 37.214 444.763 36.8847 445.003 36.6452C445.933 35.7171 446.393 35.1284 446.393 34.8889C446.393 34.7691 446.223 34.6394 445.883 34.5196C445.543 34.3999 445.123 34.3001 444.633 34.2402C444.013 34.1803 443.303 33.9907 442.503 33.6814C442.073 33.4917 441.763 33.2822 441.573 33.0327C441.383 32.7233 441.293 32.3541 441.293 31.925C441.293 31.2464 441.413 30.7873 441.663 30.5379C442.093 30.1087 442.563 29.8293 443.053 29.6996L446.303 28.9611L450.013 28.3125L451.403 25.3486L453.163 21.8259C453.354 21.5165 453.724 21.3668 454.274 21.3668C455.204 21.3668 455.854 21.6762 456.224 22.2949C456.594 22.9136 456.714 23.9315 456.594 25.3486L456.404 27.4742H460.304C463.024 27.4742 464.604 27.6937 465.034 28.1229C465.344 28.3723 465.564 28.8613 465.684 29.6098V30.1686C465.684 30.5977 465.594 31.0069 465.404 31.3761C464.784 32.424 462.274 33.1025 457.884 33.4119L453.894 33.6913L452.593 36.1961C451.293 38.6012 449.563 40.8864 447.393 43.052C445.223 45.2175 443.313 46.5747 441.823 46.9439C441.703 47.0038 441.483 47.0337 441.173 47.0337C440.363 47.0337 439.683 46.5348 439.133 45.5468C438.883 45.1177 438.763 44.7085 438.763 44.3393C438.763 43.7805 439.043 43.2316 439.603 42.6727C440.093 42.1738 440.343 41.7746 440.343 41.4652C440.343 41.096 440.033 40.5671 439.413 39.8885C438.853 39.15 438.583 38.5313 438.583 38.0323C438.583 37.6631 438.733 37.2639 439.043 36.8248C439.413 36.4556 439.783 36.266 440.153 36.266H440.183ZM451.043 85.0052C450.363 85.0052 449.683 84.8854 449.003 84.6359C448.013 84.2667 447.173 83.618 446.493 82.69C445.873 81.8816 445.563 80.9336 445.563 79.8159C445.563 78.8878 445.753 78.299 446.123 78.0595C446.243 77.9398 446.553 77.8699 447.053 77.8699C447.483 77.8699 447.853 77.8999 448.163 77.9597L449.463 78.2392L450.203 72.7705C450.453 71.0441 450.573 69.5871 450.573 68.4195C450.573 67.8606 450.543 67.5213 450.483 67.4016C450.293 66.7829 449.493 66.3837 448.073 66.1941C445.723 65.9446 444.173 64.6173 443.433 62.2123C443.123 61.1046 442.973 59.1586 442.973 56.3744C442.973 54.4584 443.033 53.191 443.163 52.5723C443.353 51.7739 443.873 50.9955 444.743 50.2571C445.613 49.5186 446.633 48.9597 447.803 48.5905C448.423 48.4009 449.903 48.0317 452.263 47.4828C454.864 46.924 457.094 46.6445 458.944 46.6445C460.554 46.6445 461.854 46.8341 462.844 47.2034C464.944 48.0716 466.314 49.5485 466.924 51.6542C467.234 52.702 467.384 53.8197 467.384 54.9873C467.384 55.4164 467.324 56.3145 467.194 57.6717C466.944 60.0767 466.384 61.9329 465.524 63.2302C464.654 64.7171 462.424 65.8248 458.844 66.5633L456.334 67.1222L456.054 73.7884C455.994 75.2054 455.774 77.371 455.404 80.2749C455.284 81.4425 454.904 82.5003 454.294 83.4284C453.734 84.2268 452.963 84.7257 451.973 84.9153C451.783 84.9752 451.473 85.0052 451.043 85.0052ZM446.963 3.28424C446.963 2.29628 447.243 1.58775 447.793 1.14866C448.293 0.719546 448.873 0.5 449.553 0.5C450.233 0.5 450.863 0.789401 451.453 1.37818C452.043 1.96697 452.493 2.7254 452.803 3.6435C452.993 4.20234 453.083 4.7512 453.083 5.31005C453.083 6.298 452.743 7.03648 452.063 7.53544C451.693 7.8448 451.223 7.99449 450.673 7.99449C449.803 7.99449 449.003 7.59532 448.263 6.78699C447.643 6.16827 447.213 5.18032 446.963 3.82312V3.26428V3.28424ZM447.603 55.0771C447.603 55.2667 447.713 55.4363 447.933 55.586C448.153 55.7357 448.413 55.8156 448.723 55.8156C449.593 55.7557 450.333 55.6958 450.953 55.6259C451.573 55.5661 451.943 55.5361 452.063 55.5361C452.743 55.5361 453.934 55.4264 455.634 55.2068C457.334 54.9873 458.654 54.7877 459.584 54.6081C459.954 54.4883 460.144 54.2987 460.144 54.0492C460.144 53.68 459.864 53.3507 459.314 53.0812C458.754 52.8018 457.924 52.722 456.804 52.8517L451.973 53.5003C449.743 53.8097 448.353 54.1789 447.793 54.6081C447.673 54.6679 447.603 54.8276 447.603 55.0671V55.0771ZM450.583 61.3741L454.204 61.1845C456.744 61.0647 458.454 60.9549 459.354 60.8551C460.254 60.7653 460.704 60.5358 460.704 60.1566C460.704 59.7275 460.484 59.4281 460.054 59.2784C459.624 59.1287 458.904 59.0489 457.924 59.0489H453.934C452.133 59.0489 450.933 59.0988 450.313 59.1886C449.693 59.2784 449.233 59.478 448.923 59.7873C448.803 59.9071 448.703 60.0967 448.643 60.3462C448.583 60.5957 448.613 60.7753 448.733 60.905C449.043 61.2144 449.663 61.3641 450.593 61.3641L450.583 61.3741ZM459.864 37.1043C460.364 36.735 461.194 36.6053 462.374 36.735H462.934C463.734 36.735 464.264 36.5155 464.514 36.0864C464.824 35.4677 465.254 35.0685 465.814 34.8789C466.064 34.7591 466.434 34.6893 466.924 34.6893C467.484 34.6893 467.884 34.8489 468.134 35.1483C468.444 35.5774 468.594 36.1363 468.594 36.8149C468.594 37.3138 468.564 37.6831 468.504 37.9226C468.444 38.1721 468.414 38.4515 468.414 38.7608C468.414 39.19 468.534 39.4095 468.784 39.4095C469.154 39.4095 469.494 39.5991 469.805 39.9683L470.825 41.076C471.075 41.5052 471.195 41.9143 471.195 42.2836C471.195 43.022 470.825 43.6407 470.085 44.1397C469.344 44.6986 468.594 44.8782 467.854 44.6986C465.504 44.1397 463.424 43.3114 461.634 42.1937C459.904 41.086 459.034 39.9983 459.034 38.9505C459.034 38.0822 459.314 37.4635 459.864 37.0943V37.1043ZM466.084 69.9962C466.394 69.9962 466.734 70.086 467.104 70.2756C467.724 70.5251 468.684 71.573 469.985 73.4291C471.225 75.1555 471.995 76.5227 472.305 77.5007L472.395 77.8699C472.395 78.3689 472.145 78.8579 471.655 79.3568C470.975 80.0354 470.325 80.3747 469.705 80.3747C468.404 80.3747 466.954 78.9277 465.344 76.0238C464.604 74.5368 464.234 73.3393 464.234 72.4112C464.234 71.6727 464.454 71.084 464.884 70.6549C465.314 70.2257 465.724 70.0062 466.094 70.0062L466.084 69.9962Z" fill="#534741"/>
<path d="M489.296 48.6903C489.916 47.892 491.246 47.3032 493.286 46.934C493.596 46.8741 494.026 46.8441 494.586 46.8441C496.076 46.8441 496.816 47.4928 496.816 48.7901C496.816 49.6583 496.386 50.3968 495.516 51.0155C494.646 51.8139 493.686 52.3428 492.636 52.5922C492.206 52.7819 491.766 52.8717 491.336 52.8717C490.776 52.8717 490.226 52.6821 489.666 52.3128C489.416 52.1931 489.186 51.9536 488.966 51.6143C488.746 51.275 488.606 50.9157 488.546 50.5465C488.546 49.808 488.796 49.1893 489.286 48.6903H489.296ZM489.206 38.9604C489.206 38.1621 489.576 37.5434 490.316 37.1043C490.816 36.7351 491.366 36.5454 491.986 36.5454C492.546 36.5454 493.226 36.7949 494.026 37.2839C496.376 38.3916 497.556 39.9684 497.556 42.0042C497.556 43.3613 496.966 44.0399 495.796 44.0399C495.236 44.0399 494.466 43.8204 493.476 43.3913C491.556 42.5231 490.286 41.4752 489.666 40.2378C489.356 39.8087 489.206 39.3696 489.206 38.9405V38.9604ZM494.216 73.9281C493.716 73.469 493.476 72.8004 493.476 71.9322C493.476 71.6827 493.936 70.106 494.866 67.212L495.606 64.807C499.376 53.8097 501.516 42.7925 502.016 31.7354C502.327 27.1649 502.607 24.5403 502.857 23.8617C503.227 22.8737 503.967 22.3748 505.087 22.3748C505.517 22.3748 505.927 22.4945 506.297 22.744C506.667 22.9935 506.947 23.3028 507.137 23.6721C507.567 24.9095 507.907 26.4863 508.157 28.3923C508.467 31.2963 508.617 33.8909 508.617 36.1762C508.617 39.1401 508.427 42.074 508.057 44.978C506.947 51.8338 505.547 57.7017 503.877 62.5816C502.887 65.6752 502.016 68.0602 501.276 69.7667C500.536 71.4632 499.786 72.6807 499.046 73.4291C498.236 74.2275 497.376 74.6366 496.446 74.6366C495.456 74.6366 494.716 74.4071 494.216 73.9381V73.9281ZM504.427 15.2395C505.047 14.7406 505.847 14.4013 506.837 14.2216C509.317 13.7227 512.347 13.2836 515.937 12.8744C519.528 12.4752 524.538 11.9962 530.978 11.4374C534.138 11.1879 537.999 11.0682 542.589 11.0682C544.819 11.0682 546.499 11.128 547.649 11.2578C548.789 11.3775 549.549 11.627 549.919 11.9962C550.539 12.615 550.85 13.2936 550.85 14.032C550.85 15.0799 550.39 16.0678 549.459 16.9959C549.209 17.2454 548.859 17.445 548.389 17.5947C547.929 17.7543 547.479 17.8242 547.039 17.8242H545.279L540.169 18.1036C536.459 18.1635 531.008 18.4728 523.828 19.0317C519.128 19.4009 515.257 19.5905 512.217 19.5905C508.627 19.5905 506.217 19.3111 504.977 18.7523C503.927 18.1934 503.397 17.6146 503.397 16.9959C503.397 16.3173 503.737 15.7285 504.417 15.2395H504.427ZM511.017 71.9422C512.067 70.8944 513.087 70.3655 514.077 70.3655C514.447 70.3655 514.817 70.4553 515.187 70.6449C515.747 71.0141 516.017 71.6029 516.017 72.4013C516.017 73.3892 515.517 74.8761 514.527 76.852C512.667 79.9357 510.907 81.4825 509.237 81.4825C508.557 81.4825 507.937 81.1432 507.377 80.4646C506.817 79.9057 506.537 79.3569 506.537 78.798C506.537 77.1914 508.027 74.9061 510.997 71.9422H511.017ZM510.277 62.3022C510.277 62.1126 510.337 61.7134 510.467 61.0947C510.527 60.905 510.747 60.0468 511.117 58.5C511.487 56.9532 511.827 54.8875 512.137 52.2929C512.567 49.3889 513.047 47.2134 513.577 45.7564C514.107 44.3094 514.797 43.4611 515.667 43.2117C518.268 42.4133 520.248 41.8844 521.608 41.6349C522.658 41.4453 523.618 41.3555 524.488 41.3555C525.978 41.3555 527.398 41.605 528.758 42.094C529.938 42.5929 530.768 43.4212 531.268 44.5988C531.638 45.5867 531.828 47.3132 531.828 49.788C531.828 54.6081 531.398 58.2505 530.528 60.7254C529.658 63.2003 528.358 64.4278 526.628 64.4278C525.268 64.4278 524.488 63.9088 524.308 62.851C523.998 61.9828 523.938 60.7254 524.118 59.0489L523.928 59.3283C523.308 59.7574 522.438 59.977 521.328 59.977C521.138 60.0368 520.898 60.0668 520.588 60.0668C519.658 60.0668 518.948 59.7574 518.448 59.1387C518.137 58.52 517.987 58.0609 517.987 57.7516C517.987 57.2526 518.267 56.7337 518.818 56.1748C519.188 55.8056 519.928 55.616 521.048 55.616C522.778 55.616 523.898 56.0152 524.388 56.8235L524.478 56.2646C524.538 55.8355 524.598 55.3366 524.668 54.7777C524.728 54.2189 524.758 53.6401 524.758 53.0214C524.638 53.211 524.448 53.3806 524.198 53.5303C523.948 53.69 523.768 53.7898 523.638 53.8596C522.828 54.2289 522.088 54.4185 521.408 54.4185C520.478 54.4185 519.678 54.169 518.998 53.68C518.748 53.4305 518.598 53.2509 518.538 53.1212C518.478 53.5503 518.397 54.2189 518.307 55.117C518.217 56.0152 518.107 56.7337 517.987 57.2925C517.867 57.7915 517.537 59.1287 517.007 61.3242C516.477 63.5196 515.877 65.0165 515.197 65.8149C514.517 66.6232 513.677 67.0224 512.687 67.0224C512.317 67.0224 512.007 66.9625 511.757 66.8328L511.387 66.743C511.017 66.5534 510.617 66.1841 510.177 65.6353C510.177 65.5155 510.147 65.4157 510.087 65.3558C509.967 64.9866 509.897 64.6772 509.897 64.4278C509.897 63.7492 510.017 63.0406 510.267 62.3022H510.277ZM518.728 28.7615C518.668 28.8214 519.498 28.2426 521.238 27.0052C524.948 24.4704 527.338 22.9635 528.388 22.4646C528.818 22.2151 529.408 22.0953 530.148 22.0953C531.758 22.0953 533.958 22.8638 536.739 24.4106C539.959 26.2667 542.089 27.7137 543.149 28.7615C544.199 29.6896 544.729 30.6776 544.729 31.7254C544.729 32.6535 544.389 33.392 543.709 33.9508C543.029 34.5097 542.249 34.7192 541.389 34.5995C541.019 34.4797 539.009 33.3321 535.349 31.1666C531.878 29.2505 530.088 28.2925 529.968 28.2925C529.908 28.2925 529.568 28.5121 528.948 28.9412C528.328 29.3703 527.768 29.7695 527.278 30.1487C524.798 32.0647 522.748 33.5017 521.108 34.4598C519.468 35.4178 518.087 35.8968 516.977 35.8968C516.547 35.8968 516.077 35.777 515.587 35.5276C514.847 35.0984 514.477 34.4198 514.477 33.4918C514.477 33.0627 514.567 32.5637 514.757 32.0048C514.877 31.6955 516.207 30.6177 518.748 28.7615H518.728ZM520.028 49.7082C520.398 49.5186 520.868 49.4288 521.418 49.4288C521.918 49.4288 522.438 49.5186 522.998 49.7082C523.928 49.9577 524.578 50.3868 524.948 51.0055C525.008 50.2671 525.038 49.4587 525.038 48.6005L524.948 47.4928L522.438 47.5826C520.518 47.5826 519.438 47.7024 519.188 47.9518C519.188 48.0117 519.068 48.9398 518.818 50.7361C519.188 50.2471 519.588 49.9078 520.028 49.7182V49.7082ZM519.748 74.6765C519.868 74.2175 520.058 73.8582 520.308 73.6088C520.808 73.1198 521.418 72.8703 522.168 72.8703C522.968 72.8703 523.618 73.1796 524.118 73.7984C524.618 74.2973 525.018 74.946 525.328 75.7443C525.888 77.351 527.088 78.4887 528.948 79.1673C530.438 79.7261 532.878 80.0055 536.279 80.0055C540.979 80.0055 544.419 79.5066 546.579 78.5186L547.509 78.1494C547.699 78.0895 547.869 78.0296 548.019 77.9598C548.169 77.8999 548.309 77.8699 548.439 77.8699C548.869 77.8699 549.369 78.1494 549.929 78.7082C550.61 79.3868 550.95 80.1951 550.95 81.1132C550.95 82.4106 550.52 83.4883 549.649 84.3565C547.979 86.083 544.569 87.1008 539.439 87.4102C538.699 87.4701 537.639 87.5 536.279 87.5C532.628 87.5 529.498 87.001 526.898 86.0131C524.608 85.2147 522.748 83.8176 521.328 81.8417C519.968 80.0454 519.348 78.1693 519.468 76.1934C519.528 75.6346 519.618 75.1256 519.748 74.6666V74.6765ZM524.858 34.5097C526.648 34.0805 529.348 33.861 532.938 33.861C533.988 33.861 534.799 33.9408 535.349 34.0905C535.909 34.2502 536.369 34.5695 536.739 35.0585C537.239 35.7371 537.479 36.3558 537.479 36.9147C537.479 37.4735 537.229 37.9925 536.739 38.4914C535.749 39.2898 533.398 39.8187 529.678 40.0682L526.148 40.158C523.978 40.158 522.528 39.9684 521.788 39.5991C521.228 39.3496 520.768 39.0004 520.398 38.5313C520.028 38.0723 519.838 37.5933 519.838 37.0943C519.838 36.5953 520.058 36.1662 520.488 35.797C521.288 35.2382 522.748 34.809 524.848 34.4997L524.858 34.5097ZM522.808 3.93292C522.808 3.06472 523.148 2.35618 523.828 1.80732C524.448 1.43808 524.938 1.24847 525.318 1.24847C525.748 1.24847 526.188 1.36823 526.618 1.61771C527.358 1.98695 528.198 3.10463 529.128 4.95081C529.438 5.56953 529.748 6.36788 530.058 7.35584C530.118 7.41571 530.148 7.57538 530.148 7.81489C530.148 8.18412 530.028 8.5833 529.778 9.02239C529.528 9.39163 529.188 9.69101 528.758 9.90057C528.328 10.1201 527.888 10.2299 527.458 10.2299C526.468 10.2299 525.698 9.98041 525.138 9.49142C524.768 9.00243 524.298 8.16417 523.748 6.9866C523.128 5.62941 522.818 4.61152 522.818 3.93292H522.808ZM534.329 68.7887C534.759 68.5393 535.259 68.4195 535.819 68.4195C536.499 68.4195 537.119 68.6091 537.679 68.9783C538.549 69.6569 539.099 70.585 539.349 71.7626C539.409 71.9522 539.439 72.1618 539.439 72.4112C539.439 73.3393 539.069 74.1077 538.329 74.7264C537.649 75.2853 536.909 75.4649 536.099 75.2853C535.169 74.9161 534.549 74.4171 534.238 73.7984C533.808 73.1198 533.588 72.2516 533.588 71.2037C533.588 69.9064 533.838 69.1081 534.329 68.7987V68.7887ZM537.579 44.978C538.069 44.4192 538.629 44.1497 539.249 44.1497C539.749 44.1497 540.359 44.3693 541.109 44.7984C541.729 45.1676 542.039 46.4949 542.039 48.7801C542.039 50.8758 541.699 52.213 541.019 52.7619C540.339 53.3207 539.689 53.6002 539.069 53.6002C538.569 53.6002 538.129 53.4804 537.719 53.2309C537.319 52.9814 537.079 52.6721 537.019 52.3028C536.589 51.5644 536.459 50.3269 536.649 48.6005C536.839 46.6246 537.149 45.4171 537.579 44.988V44.978ZM541.569 60.3562C541.569 59.3682 542.219 58.6896 543.519 58.3204C544.139 57.9512 544.509 57.552 544.629 57.1129L545.189 53.2209L545.649 49.2392C546.139 45.7165 546.519 43.4013 546.759 42.2936L546.849 41.6449C546.969 40.4773 547.469 39.639 548.339 39.1401C548.709 38.9505 549.079 38.8607 549.449 38.8607C549.819 38.8607 550.189 38.9205 550.56 39.0503C551.61 39.4794 552.26 40.3775 552.51 41.7347C552.63 42.7227 552.7 43.8304 552.7 45.0678L552.61 48.6803C552.42 56.8933 551.19 61.8032 548.899 63.4099C548.029 64.0286 547.099 64.3379 546.109 64.3379C545.179 64.3379 544.349 64.1084 543.599 63.6394C542.859 63.1803 542.329 62.6015 542.019 61.9229C541.709 61.3042 541.559 60.7853 541.559 60.3462L541.569 60.3562ZM552.06 66.4735C552.62 66.4735 553.48 66.6931 554.66 67.1222C556.89 68.0503 558 69.3176 558 70.9243C558 71.4832 557.67 72.1119 557.03 72.8204C556.38 73.5289 555.71 73.8882 555.03 73.8882C554.16 73.8882 552.95 73.2695 551.41 72.032C550.05 70.9243 549.369 69.8665 549.369 68.8785C549.369 68.3197 549.559 67.8606 549.929 67.4914C550.489 66.8128 551.2 66.4735 552.06 66.4735Z" fill="#534741"/>
<path d="M63.06 159.928C60.77 159.538 58.11 158.928 55.09 158.097C52.56 157.367 50.8 156.707 49.83 156.127C49.39 155.837 48.98 155.687 48.59 155.687C48.05 155.687 47.49 155.977 46.91 156.567C46.57 157.057 45.74 157.617 44.43 158.247C43.26 158.788 42.21 159.128 41.29 159.268C41.09 159.318 40.8 159.338 40.41 159.338C38.8 159.338 38 158.557 38 156.997C38 155.977 38.97 154.946 40.92 153.926C43.31 152.606 44.62 150.685 44.87 148.154L44.94 147.204C44.94 146.914 44.89 146.624 44.79 146.324C44.69 146.033 44.28 145.493 43.55 144.713C42.57 143.593 42.04 142.622 41.94 141.792C41.94 140.962 42.35 139.571 43.18 137.621C44.2 135.72 44.64 134.38 44.5 133.6C44.4 133.159 44.29 132.859 44.17 132.689C44.05 132.519 43.77 132.439 43.33 132.439C42.7 132.439 42.16 132.509 41.72 132.659L39.97 132.949H39.75C39.21 132.949 38.78 132.679 38.43 132.149C38.28 131.859 38.21 131.589 38.21 131.349C38.21 130.379 39.09 129.428 40.84 128.498C41.91 127.958 42.93 127.698 43.91 127.698C44.59 127.698 45.35 127.868 46.18 128.208C47.84 128.938 49 130.349 49.69 132.449C49.84 132.939 49.91 133.47 49.91 134.06C49.91 135.67 49.42 137.371 48.45 139.181L47.65 140.862L48.82 142.402C50.04 143.963 50.65 145.863 50.65 148.104C50.65 148.644 50.64 149.154 50.61 149.635C50.58 150.125 50.6 150.515 50.65 150.805C50.7 151.045 50.97 151.295 51.45 151.535C53.35 152.466 57.17 153.386 62.92 154.316C65.6 154.856 69.59 155.116 74.91 155.116H77.18C81.13 155.116 83.76 154.926 85.07 154.536C86.19 154.296 87.04 154.166 87.63 154.166C88.7 154.166 89.38 154.506 89.68 155.186C89.87 155.677 89.97 156.037 89.97 156.287C89.97 157.747 88.26 159.038 84.85 160.158C83.53 160.548 81.05 160.738 77.4 160.738L74.26 160.668C69.09 160.518 65.37 160.278 63.08 159.938L63.06 159.928ZM44.65 113.513C45.23 113.123 45.72 113.003 46.11 113.143C46.5 113.243 47.08 113.703 47.86 114.533C48.49 115.264 49.1 116.264 49.69 117.534C50.13 118.555 50.35 119.415 50.35 120.095C50.35 120.825 49.98 121.386 49.25 121.776C49.05 121.926 48.79 121.996 48.45 121.996C48.16 121.996 47.82 121.876 47.43 121.626C46.8 121.186 46.07 120.165 45.24 118.555C44.36 117.094 43.92 115.944 43.92 115.124C43.92 114.443 44.16 113.903 44.65 113.513ZM61.53 148.234C61.53 147.504 62.24 146.654 63.65 145.673C65.01 144.753 65.79 144.013 65.99 143.483C66.23 142.993 66.45 142.652 66.65 142.462C66.8 142.412 67.04 141.922 67.38 141.002C67.57 140.612 67.78 140.152 68 139.611C68.22 139.071 68.38 138.691 68.48 138.441C68.82 137.471 68.99 136.881 68.99 136.691C68.99 136.25 68.36 136.03 67.09 136.03C65.92 136.03 65.07 135.81 64.53 135.37C64.09 134.83 63.87 134.37 63.87 133.98C63.87 132.959 65.23 132.059 67.96 131.279C69.42 130.939 70.3 130.669 70.59 130.479C70.69 130.329 70.83 129.798 71.03 128.868C71.22 127.898 71.32 127.087 71.32 126.457V125.507L67.15 125.577C64.32 125.577 62.77 125.507 62.47 125.357C61.93 125.167 61.67 124.817 61.67 124.337C61.67 123.896 61.84 123.506 62.18 123.166C62.96 122.386 66 121.536 71.31 120.605C73.16 120.365 75.43 120.215 78.11 120.165C80.79 120.165 82.44 120.385 83.08 120.825C83.81 121.266 84.18 121.846 84.18 122.576C84.18 123.506 83.91 124.117 83.38 124.407C82.84 124.747 81.58 124.917 79.58 124.917C77.19 124.917 75.85 124.967 75.56 125.067C75.36 125.217 75.27 125.607 75.27 126.237C75.27 127.208 75.33 128.028 75.45 128.688C75.57 129.348 75.68 129.748 75.78 129.898C76.02 130.148 76.73 130.339 77.9 130.479C80.53 130.769 81.85 131.579 81.85 132.889C81.85 134.79 80.14 135.74 76.73 135.74C75.66 135.74 75 135.86 74.76 136.11C74.56 136.35 74.1 137.621 73.37 139.912C71.76 145.123 69.64 148.294 67.01 149.415C66.33 149.755 65.4 149.925 64.23 149.925C63.06 149.925 62.33 149.735 62.04 149.345C61.7 149.004 61.53 148.634 61.53 148.244V148.234ZM67.01 111.022C67.01 110.482 67.2 110.022 67.59 109.632C67.98 109.242 68.34 109.052 68.69 109.052C69.04 109.052 69.42 109.222 69.86 109.562C70.83 110.392 71.54 111.853 71.98 113.943C72.13 114.523 72.2 114.994 72.2 115.334C72.2 115.574 72.15 115.844 72.05 116.134C71.85 116.574 71.34 116.794 70.51 116.794C69.15 116.794 68.12 115.624 67.44 113.283C67.15 112.263 67 111.503 67 111.022H67.01ZM75.63 111.463C76.41 109.712 77.31 108.582 78.33 108.101C78.82 107.861 79.23 107.731 79.57 107.731C80.15 107.731 80.67 108.001 81.11 108.532C81.3 108.772 81.4 109.112 81.4 109.552C81.4 109.792 81.37 109.992 81.33 110.132C81.28 110.762 80.79 111.793 79.87 113.203C79.24 114.323 78.74 115.064 78.37 115.434C78 115.804 77.5 115.984 76.87 115.984C75.65 115.984 75.04 115.324 75.04 114.013C75.04 113.383 75.23 112.523 75.62 111.453L75.63 111.463ZM79.21 141.142C80.33 141.142 81.57 141.902 82.94 143.403C84.21 144.723 84.84 145.813 84.84 146.694C84.84 147.964 84.23 148.594 83.01 148.594C81.65 148.594 80.26 147.494 78.84 145.303C78.21 144.383 77.89 143.553 77.89 142.822C77.89 142.382 77.96 142.022 78.11 141.722C78.35 141.332 78.72 141.142 79.21 141.142Z" fill="#534741"/>
<path d="M122.26 143.993C121.29 143.993 120.24 143.113 119.12 141.362L118.46 140.342L115.76 140.782C113.76 141.122 111.98 141.542 110.43 142.022C108.63 142.602 106.99 142.903 105.53 142.903C104.6 142.903 103.87 142.632 103.34 142.102C102.71 141.472 102.39 140.862 102.39 140.272C102.39 139.681 102.94 138.461 104.03 136.58C105.13 134.7 106.84 131.989 109.18 128.428C110.45 126.527 111.08 125.407 111.08 125.067C111.08 124.677 110.08 124.457 108.08 124.407C106.23 124.307 104.94 124.087 104.21 123.746C103.87 123.556 103.59 123.296 103.37 122.976C103.15 122.656 102.92 122.206 102.68 121.626C102.48 121.136 102.44 120.625 102.53 120.095C102.63 119.515 102.92 118.775 103.41 117.905C104.04 116.784 105.26 115.204 107.06 113.153C109.45 110.422 111.27 109.062 112.54 109.062C112.93 109.062 113.2 109.112 113.34 109.212C113.63 109.362 113.85 109.532 114 109.722C114.15 109.912 114.22 110.182 114.22 110.522C114.22 111.202 113.34 112.573 111.59 114.614C109.2 117.444 108.08 119.125 108.23 119.655C108.28 119.855 108.86 120.025 109.98 120.165C110.66 120.265 111.59 120.485 112.76 120.826C113.34 120.976 113.76 120.996 114 120.896C114.1 120.846 114.73 120.285 115.9 119.215C117.51 117.705 118.8 116.944 119.77 116.944C120.06 116.944 120.35 117.014 120.65 117.164C121.19 117.414 121.45 117.775 121.45 118.265C121.45 118.605 121.35 118.975 121.16 119.365C120.62 120.535 120.11 121.486 119.63 122.216C119.38 122.606 119.02 123.186 118.53 123.966C118.04 124.747 117.31 125.817 116.34 127.188C114.68 129.528 113.4 131.449 112.5 132.959C111.6 134.47 111.2 135.3 111.29 135.45C111.34 135.55 111.61 135.6 112.09 135.6C112.63 135.6 113.09 135.58 113.48 135.53C115.23 135.34 116.45 135.14 117.13 134.95C117.62 134.8 117.98 134.46 118.23 133.93C118.47 133.349 118.8 132.879 119.22 132.539C119.63 132.199 120.06 132.029 120.5 132.029C120.84 132.029 121.16 132.179 121.45 132.469C122.13 133.099 122.55 133.69 122.69 134.22C122.79 134.51 122.95 134.96 123.17 135.57C123.39 136.18 123.55 136.781 123.64 137.361C123.83 138.431 123.98 139.531 124.08 140.652L124.15 141.532C124.15 142.602 123.93 143.283 123.49 143.583C123.05 143.883 122.64 144.023 122.25 144.023L122.26 143.993ZM105.01 150.285C105.2 149.655 105.76 149.335 106.69 149.335C107.23 149.335 107.74 149.625 108.23 150.215C108.77 150.845 109.03 151.825 109.03 153.136C109.03 154.016 108.88 154.936 108.59 155.917C108.35 156.647 107.93 157.357 107.35 158.037C106.77 158.718 106.28 159.058 105.89 159.058C105.11 159.058 104.57 158.658 104.28 157.847C103.99 157.047 103.91 156.177 104.06 155.256C104.4 152.916 104.72 151.265 105.01 150.285ZM113.56 151.235C113.56 150.505 113.73 149.965 114.07 149.625C114.46 149.235 114.82 149.044 115.17 149.044C115.61 149.044 116.22 149.435 117 150.215C118.36 151.675 118.92 153.236 118.68 154.896C118.63 155.386 118.29 155.827 117.66 156.217C117.32 156.417 116.98 156.507 116.64 156.507C116.35 156.507 116.06 156.437 115.76 156.287C114.93 155.897 114.3 154.846 113.86 153.146C113.66 152.516 113.57 151.875 113.57 151.245L113.56 151.235ZM121.6 149.915C121.6 149.235 121.84 148.644 122.33 148.164C122.72 147.774 123.13 147.584 123.57 147.584C124.35 147.584 125.11 148.044 125.84 148.974C126.52 149.905 126.86 150.775 126.86 151.605C126.86 152.436 126.66 153.066 126.28 153.506C125.89 153.946 125.35 154.166 124.67 154.166C123.65 154.166 122.79 153.386 122.11 151.825C121.77 151.145 121.6 150.505 121.6 149.925V149.915ZM131.9 126.887C131.9 125.967 132.51 124.597 133.73 122.796C134.75 121.286 136.19 119.575 138.04 117.675C140.23 115.384 141.65 114.073 142.28 113.723C142.96 113.333 143.5 113.143 143.89 113.143C144.13 113.143 144.4 113.223 144.69 113.403C144.98 113.583 145.27 113.783 145.57 114.023C147.32 115.534 148.83 116.994 150.1 118.405C152.1 120.595 153.39 122.086 153.97 122.866C154.7 123.886 155.07 124.767 155.07 125.497C155.07 126.127 154.75 126.687 154.12 127.178C153.78 127.468 153.39 127.618 152.95 127.618C152.56 127.618 152.17 127.468 151.78 127.178C150.61 126.347 149.17 125.057 147.47 123.306C144.84 120.575 143.4 119.285 143.16 119.435C142.77 119.685 141.65 120.946 139.8 123.236C137.66 125.817 136.32 127.328 135.78 127.768C134.95 128.448 134.22 128.788 133.59 128.788C133.01 128.788 132.54 128.468 132.2 127.838C132 127.448 131.91 127.128 131.91 126.887H131.9ZM135.41 147.504C137.16 145.503 139.19 144.163 141.48 143.483C142.55 143.193 143.4 143.043 144.04 143.043C145.45 143.043 146.55 143.213 147.33 143.553C148.01 143.843 148.82 144.313 149.74 144.943C150.47 145.433 151.1 146.114 151.64 146.994C152.18 147.824 152.44 148.844 152.44 150.065C152.44 151.285 152.1 152.846 151.42 154.746C150.64 156.747 149.64 158.157 148.42 158.988C147.25 159.718 145.18 160.088 142.21 160.088C140.99 160.088 139.92 160.068 138.99 160.018C138.06 159.968 137.48 159.848 137.24 159.648C136.17 158.868 135.29 157.627 134.61 155.917C134.07 154.556 133.81 153.286 133.81 152.115C133.81 151.725 133.86 151.185 133.96 150.505C134.2 149.335 134.69 148.334 135.42 147.504H135.41ZM135.59 134.89C135.81 134.62 136.16 134.32 136.65 133.98C136.89 133.79 137.65 133.47 138.91 133.029C140.57 132.449 142.37 132.149 144.32 132.149C146.41 132.149 147.68 132.369 148.12 132.809C148.56 133.249 148.78 133.74 148.78 134.27C148.78 135 148.63 135.46 148.34 135.66C148.24 135.71 147.74 135.83 146.84 136.03C145.94 136.23 145.12 136.4 144.39 136.54C144.1 136.591 143.49 136.711 142.56 136.911C140.37 137.351 138.64 137.571 137.37 137.571C135.96 137.571 135.25 137.011 135.25 135.89C135.25 135.5 135.36 135.17 135.58 134.9L135.59 134.89ZM139.36 154.516C139.51 154.716 139.94 154.806 140.68 154.806C142.68 154.806 144.11 154.586 144.99 154.146C145.33 153.956 145.72 153.266 146.16 152.095C146.6 150.875 146.74 150.075 146.6 149.685C146.4 149.295 146.02 148.954 145.43 148.664C144.85 148.374 144.14 148.224 143.31 148.224C141.95 148.224 140.68 148.594 139.51 149.325C139.17 149.565 139 150.375 139 151.735C139 153.196 139.12 154.126 139.37 154.516H139.36Z" fill="#534741"/>
<path d="M176.63 159.058C176 159.058 175.46 158.818 175.02 158.327C174.39 157.647 173.97 156.427 173.78 154.676C173.58 152.926 173.44 149.365 173.34 144.003C173.24 139.521 173.14 136.03 173.05 133.55C172.47 134.04 171.68 134.82 170.71 135.89C169.25 137.551 168.01 138.371 166.98 138.371C166.59 138.371 166.25 138.221 165.96 137.931C165.57 137.541 165.38 137.101 165.38 136.611C165.38 136.42 165.48 135.98 165.67 135.29C166.06 134.37 167.28 132.459 169.32 129.588C171.56 126.467 173.73 123.106 175.82 119.505C177.57 116.434 178.74 114.784 179.33 114.534C179.72 114.383 180.08 114.313 180.43 114.313C181.16 114.313 181.77 114.604 182.26 115.194C182.41 115.394 182.48 115.634 182.48 115.924C182.58 116.124 182.55 116.384 182.41 116.724C182.41 116.774 182.4 116.834 182.37 116.904C182.34 116.974 182.33 117.084 182.33 117.234L181.45 119.205C180.91 120.325 180.38 121.426 179.84 122.496L177.72 126.807L178.3 130.459C178.64 132.749 178.88 137.741 179.03 145.443L179.1 149.755C179.1 154.676 178.9 157.407 178.52 157.937C178.03 158.618 177.47 158.988 176.84 159.038H176.62L176.63 159.058ZM189.71 145.313C191.12 142.873 192.24 141.292 193.07 140.562C193.56 140.172 194.02 139.982 194.46 139.982C194.8 139.982 195.12 140.052 195.41 140.202C195.95 140.442 196.21 141.082 196.21 142.102C196.21 143.373 195.87 144.663 195.19 145.974C193.44 149.145 191.56 150.945 189.56 151.385C188.39 151.535 187.73 150.975 187.59 149.705C187.49 149.215 188.2 147.754 189.71 145.323V145.313ZM193.22 117.314C194 115.224 194.46 113.833 194.61 113.143C195.1 111.633 195.61 110.482 196.15 109.712C196.69 109.132 197.22 108.832 197.76 108.832C198.1 108.832 198.44 108.932 198.78 109.122C199.12 109.412 199.29 110.222 199.29 111.533C199.29 112.513 199.19 113.523 199 114.564C198.8 115.614 198.68 116.384 198.63 116.864C198.24 118.035 198.14 118.665 198.34 118.765C198.44 118.865 198.56 118.915 198.71 118.915C198.76 118.915 199.17 118.815 199.95 118.625C202.34 117.995 205.48 117.625 209.38 117.524C213.37 117.625 216 117.935 217.27 118.475L217.93 118.915L218.59 119.575C218.83 119.775 219.03 120.015 219.17 120.305L219.61 121.106L219.83 121.766L219.9 121.836C219.95 122.076 219.97 122.346 219.97 122.636C219.97 123.756 219.41 125.217 218.29 127.017C217.07 128.818 216.05 129.718 215.22 129.718H215C214.42 129.718 214 129.448 213.76 128.918C213.56 128.088 213.51 127.118 213.61 125.997L213.9 123.586L212.8 123.366C212.22 123.266 211.24 123.216 209.88 123.216L205.86 123.286C201.62 123.386 199.06 123.506 198.19 123.656L196.36 123.876L195.19 126.437C194.31 128.338 193.36 129.628 192.34 130.309C192.05 130.459 191.78 130.529 191.54 130.529C190.86 130.529 190.3 130.138 189.86 129.358C189.66 129.118 189.57 128.748 189.57 128.258C189.57 127.818 189.64 127.358 189.79 126.867L193.23 117.294L193.22 117.314ZM197.16 150.935C197.79 150.935 198.62 151.495 199.64 152.616C200.32 153.196 200.74 153.496 200.88 153.496C201.07 153.496 201.29 152.436 201.54 150.315C201.78 148.194 202 145.133 202.2 141.142C202.49 136.461 202.88 133.69 203.37 132.809C203.86 132.179 204.34 131.859 204.83 131.859C205.17 131.859 205.52 132.009 205.89 132.299C206.26 132.589 206.56 132.979 206.8 133.47C207.19 134.1 207.46 136.44 207.6 140.492C207.65 141.662 207.67 143.293 207.67 145.393C207.67 147.734 207.62 149.365 207.52 150.295C207.23 153.906 206.84 156.237 206.35 157.317C205.67 158.878 204.47 159.658 202.77 159.658C201.5 159.658 200.31 159.218 199.19 158.337C198.31 157.557 197.56 156.557 196.92 155.336C196.19 153.826 195.87 152.776 195.97 152.195C196.21 151.365 196.6 150.955 197.14 150.955L197.16 150.935ZM213.82 141.212C213.82 140.532 214.04 140.022 214.48 139.682C214.92 139.101 215.4 138.801 215.94 138.801C216.09 138.801 216.31 138.851 216.6 138.951C217.33 139.341 218.26 140.392 219.38 142.092L221.13 144.283C221.32 144.533 221.59 144.893 221.93 145.383C222.27 145.873 222.59 146.284 222.88 146.624C223.9 147.794 224.41 148.844 224.41 149.765C224.41 150.305 224.21 150.765 223.83 151.155C223.39 151.735 222.83 152.035 222.15 152.035C221.42 152.035 220.66 151.715 219.89 151.085C218.14 149.765 216.58 147.774 215.21 145.093C214.38 143.143 213.92 141.952 213.82 141.512V141.222V141.212Z" fill="#534741"/>
<path d="M235.45 147.284C236.18 146.404 237.4 144.603 239.1 141.872C240.46 139.732 241.39 138.511 241.88 138.221L242.83 137.711C242.93 137.711 243.22 137.831 243.71 138.081C244.29 138.371 244.59 138.961 244.59 139.832C244.59 141.002 244.03 142.752 242.91 145.093C241.59 147.824 240.13 149.915 238.53 151.375C237.31 152.496 236.29 153.056 235.46 153.056C235.17 153.056 234.88 152.986 234.58 152.836C233.9 152.446 233.56 151.865 233.56 151.085C233.56 150.255 234.19 148.994 235.46 147.284H235.45ZM250 162.489C249.07 162.489 248.37 162.099 247.88 161.318C247.44 160.638 247.2 159.978 247.15 159.348C247.1 158.768 247.08 156.477 247.08 152.476C246.98 145.263 246.91 141.142 246.86 140.122L246.79 135.59L244.82 135.52C244.67 135.52 244.45 135.51 244.16 135.48C243.87 135.46 243.43 135.44 242.84 135.44H240.79C239.38 135.44 238.35 135.12 237.72 134.49C237.14 133.91 236.89 133.39 236.99 132.949C236.99 132.269 237.38 131.809 238.16 131.559C238.6 131.409 239.33 131.269 240.35 131.119L242.54 130.679L244.88 130.239C245.85 130.088 246.37 129.998 246.41 129.948C246.46 129.898 246.53 129.448 246.63 128.598C246.73 127.748 246.8 127.078 246.85 126.587C247.09 124.247 247.34 122.836 247.58 122.346C247.87 121.856 248.33 121.566 248.97 121.466H249.12C249.61 121.466 250.09 121.706 250.58 122.196C250.97 122.586 251.36 123.726 251.75 125.627C251.85 126.017 251.99 126.637 252.19 127.488C252.38 128.338 252.53 128.818 252.63 128.918C252.78 129.158 253.92 129.288 256.06 129.288C258.06 129.288 259.45 129.438 260.23 129.728C261.25 130.118 261.79 130.749 261.84 131.629V132.069C261.84 132.849 261.47 133.44 260.74 133.82C259.86 134.31 258.47 134.65 256.57 134.84L253.28 135.21L253.06 147.274C252.96 153.946 252.82 158.047 252.62 159.558C252.47 161.168 251.91 162.089 250.94 162.339C250.55 162.439 250.23 162.489 249.99 162.489H250ZM239.77 118.185C239.77 117.604 240.01 117.064 240.5 116.574C240.84 116.234 242.98 115.114 246.93 113.213C249.51 111.943 251.61 111.122 253.22 110.722C253.46 110.622 253.8 110.572 254.24 110.572C254.92 110.572 255.48 110.792 255.92 111.232C256.21 111.523 256.36 111.863 256.36 112.253C256.36 112.543 256.31 112.763 256.21 112.913C255.92 113.493 254.99 114.273 253.43 115.254C250.95 116.964 248.39 118.295 245.76 119.275C243.96 119.905 242.64 120.225 241.81 120.225C241.42 120.225 241.03 120.125 240.64 119.935C240.06 119.645 239.76 119.155 239.76 118.475V118.185H239.77ZM258.25 139.531C259.17 139.531 259.86 139.752 260.3 140.192C261.32 141.462 262.27 142.702 263.15 143.923C263.34 144.263 263.66 144.793 264.1 145.493C264.54 146.204 264.76 146.674 264.76 146.914C264.76 147.494 264.54 148.014 264.1 148.454C263.76 148.794 263.22 148.964 262.49 148.964C261.17 148.964 259.83 147.844 258.47 145.603C257.45 143.853 256.93 142.392 256.93 141.222C256.93 140.932 256.98 140.592 257.08 140.202C257.27 139.762 257.66 139.541 258.25 139.541V139.531ZM273.16 127.258C273.84 127.108 274.5 126.767 275.13 126.237C275.71 125.697 276.62 125.287 277.83 124.997C278.85 124.707 280.24 124.557 282 124.557C284.68 124.557 286.6 124.827 287.77 125.357C288.84 125.937 289.52 126.597 289.82 127.328C290.16 128.258 290.33 129.518 290.33 131.129C290.33 135.32 289.91 138.611 289.09 141.002C288.26 143.393 286.97 144.903 285.22 145.533C284.1 145.923 282.3 146.114 279.81 146.114C275.91 146.114 273.57 145.723 272.79 144.943C271.72 144.063 271.18 141.242 271.18 136.46C271.18 130.659 271.84 127.588 273.15 127.248L273.16 127.258ZM276.01 131.929L276.16 135.8L276.45 140.842L279.96 140.772C282.25 140.722 283.52 140.582 283.76 140.332C283.86 140.182 283.98 139.651 284.13 138.721C284.28 137.801 284.4 136.651 284.5 135.29C284.69 133.149 284.79 131.709 284.79 130.979C284.79 130.489 284.59 130.128 284.21 129.878C283.77 129.538 282.41 129.368 280.12 129.368C278.95 129.368 278.07 129.468 277.49 129.658C276.71 129.898 276.25 130.239 276.1 130.679C276.05 130.869 276.03 131.289 276.03 131.919L276.01 131.929Z" fill="#534741"/>
<path d="M320.08 156.857C318.42 155.196 317.45 152.376 317.16 148.374L316.94 145.373L311.39 145.153C307.69 145.003 305.71 144.813 305.47 144.573C305.18 144.283 305.05 143.773 305.1 143.033C305.25 141.622 307.59 140.622 312.12 140.032C314.65 139.692 316.16 139.451 316.65 139.301C316.99 139.151 317.14 137.941 317.09 135.65L316.94 132.139L311.82 131.989C309.14 131.889 307.41 131.749 306.63 131.549C305.85 131.359 305.46 130.839 305.46 130.008C305.46 129.228 306.2 128.558 307.69 127.998C309.18 127.438 311.38 127.037 314.3 126.787C315.08 126.737 315.76 126.667 316.35 126.567C316.93 126.467 317.3 126.347 317.45 126.197C317.74 125.907 317.89 125.247 317.89 124.227C317.89 123.206 318.16 122.376 318.69 121.596C319.18 120.866 319.74 120.495 320.37 120.495C320.81 120.495 321.22 120.785 321.61 121.376C322 121.956 322.27 122.766 322.41 123.786C322.65 125.297 322.87 126.147 323.07 126.347C323.12 126.397 323.36 126.417 323.8 126.417C324.68 126.417 326.09 126.347 328.04 126.197C330.04 126.047 331.62 125.977 332.79 125.977C335.47 125.977 337.1 126.687 337.69 128.098C337.79 128.298 337.84 128.588 337.84 128.978C337.84 129.658 337.35 130.319 336.38 130.949C335.7 131.389 333.38 131.679 329.44 131.829C325.74 131.979 323.69 132.169 323.3 132.409C323.06 132.599 322.88 133.63 322.79 135.48V136.43C322.79 137.601 322.89 138.281 323.08 138.481C323.27 138.631 324.25 138.581 326 138.331C328.29 137.991 330.82 137.821 333.6 137.821C336.82 137.821 338.79 138.041 339.52 138.481C340.15 138.821 340.47 139.411 340.47 140.232C340.47 141.162 340.2 141.842 339.67 142.282C339.33 142.572 338.53 142.842 337.26 143.083C335.65 143.373 333.53 143.623 330.9 143.813C325.83 144.203 323.23 144.543 323.08 144.833C322.98 145.033 322.93 145.493 322.93 146.224C322.93 146.904 322.95 147.464 323 147.904C323.15 149.615 323.34 150.785 323.58 151.415C323.77 151.955 324.29 152.486 325.12 153.026C325.95 153.566 328.33 153.826 332.28 153.826C336.23 153.826 338.54 153.756 338.78 153.606C339.22 153.366 339.85 152.606 340.68 151.335C341.56 149.975 342.36 149.285 343.09 149.285C344.55 149.285 345.28 150.135 345.28 151.845C345.28 152.235 345.18 152.966 344.99 154.036C344.41 156.867 342.82 158.718 340.24 159.588C339.07 159.978 337.34 160.168 335.05 160.168C333.49 160.168 331.3 160.048 328.47 159.798C324.52 159.458 321.72 158.457 320.07 156.797L320.08 156.857ZM309.88 115.084C310.59 114.674 311.69 114.343 313.21 114.093C315.06 113.803 316.43 113.513 317.3 113.213L321.61 111.753C324.53 110.832 326.36 110.192 327.09 109.852C327.82 109.512 328.55 109.342 329.28 109.342C330.01 109.342 330.62 109.612 331.11 110.142C331.4 110.482 331.55 110.852 331.55 111.242C331.55 111.973 331.06 112.703 330.09 113.433C329.51 113.923 328.68 114.453 327.61 115.044C326.25 115.774 325.17 116.284 324.39 116.584L320.81 117.905C319.45 118.395 318.23 118.735 317.16 118.925C316.82 118.975 316.31 119.075 315.62 119.215C314.94 119.365 314.38 119.435 313.94 119.435C312.72 119.435 311.82 119.395 311.24 119.325C310.66 119.255 310.19 119.065 309.85 118.775C309.17 118.195 308.83 117.534 308.83 116.804C308.83 116.074 309.18 115.504 309.89 115.084H309.88Z" fill="#534741"/>
<path d="M362.03 155.907L361.96 155.176C361.96 154.246 362.23 153.596 362.76 153.206C363 153.056 363.25 152.986 363.49 152.986C363.93 152.986 364.54 153.306 365.32 153.936C365.76 154.376 366.07 154.646 366.27 154.736C366.37 154.736 366.56 154.566 366.85 154.226C368.21 152.325 368.9 149.154 368.9 144.723L368.97 140.922L367.65 140.992C367.31 140.992 366.16 141.092 364.22 141.282C363.98 141.332 363.64 141.352 363.2 141.352C362.37 141.352 361.79 141.232 361.45 140.982C361.01 140.692 360.79 140.322 360.79 139.882C360.79 139.541 361.03 139.131 361.52 138.641C361.91 138.251 362.47 137.841 363.2 137.401C364.12 136.911 364.93 136.601 365.61 136.45C367.41 135.87 368.39 135.48 368.53 135.28C368.63 135.18 368.68 135.06 368.68 134.91C368.68 134.76 368.58 134.3 368.39 133.52C368 132.449 367.49 131.469 366.85 130.599C366.31 129.678 366.05 129.088 366.05 128.848V128.558C366.05 128.268 366.12 127.878 366.27 127.388C366.51 126.367 367.37 124.537 368.83 121.906C370.24 119.175 370.85 117.765 370.66 117.664C370.51 117.514 370.17 117.444 369.64 117.444C368.62 117.444 367.11 117.684 365.11 118.175C363.75 118.465 362.67 118.615 361.9 118.615C360.73 118.615 360.15 118.175 360.15 117.294C360.15 116.954 360.32 116.564 360.66 116.124C361 115.684 361.46 115.294 362.05 114.954C362.54 114.614 363.24 114.223 364.17 113.783L367.02 112.833C368.58 112.443 369.87 112.253 370.89 112.253C372.06 112.253 373.11 112.523 374.03 113.053C375.59 114.023 376.37 115.274 376.37 116.784C376.37 118.295 375.57 120.585 373.96 123.656L371.91 127.748L373.01 130.018C373.84 131.769 374.33 132.849 374.47 133.239C374.71 133.73 374.93 134 375.13 134.04C375.37 134.09 376.03 134.09 377.1 134.04C377.34 133.99 377.68 133.97 378.12 133.97C378.95 133.97 379.56 134.09 379.95 134.34C380.49 134.63 380.75 135.19 380.75 136.02C380.75 137.431 379.63 138.511 377.39 139.241L375.42 139.822L375.2 144.063C374.76 151.665 373.18 156.637 370.45 158.978C369.48 159.908 368.38 160.368 367.16 160.368C366.38 160.368 365.65 160.198 364.97 159.858C363.22 159.028 362.24 157.717 362.05 155.907H362.03ZM385.27 119.945C385.27 119.505 385.56 119.045 386.15 118.555C386.83 118.015 391.39 117.164 399.82 115.994C403.13 115.504 406.64 115.264 410.34 115.264C412.73 115.264 414.24 115.384 414.87 115.634C415.6 115.834 416.11 116.244 416.41 116.874C416.6 117.264 416.7 117.584 416.7 117.825C416.7 118.065 416.63 118.315 416.48 118.555C416.38 118.945 416.06 119.315 415.53 119.655C415.14 119.895 414.53 120.095 413.7 120.235C412.82 120.385 411.68 120.525 410.27 120.675C407.74 120.825 404.81 121.116 401.5 121.556C397.21 122.096 393.56 122.356 390.54 122.356C388.79 122.356 387.52 122.186 386.74 121.846C385.96 121.406 385.5 120.876 385.35 120.235L385.28 119.945H385.27ZM388.55 138.441C388.55 137.421 388.89 136.25 389.57 134.93C391.81 130.449 393.61 127.518 394.98 126.157C395.52 125.577 396.03 125.277 396.51 125.277C396.9 125.277 397.22 125.487 397.46 125.897C397.7 126.307 397.83 126.887 397.83 127.618C397.83 128.548 397.61 129.518 397.17 130.539C395.32 134.29 394.66 136.39 395.2 136.831C395.44 137.021 395.95 137.171 396.74 137.271C397.66 137.421 398.35 137.561 398.79 137.711L399.01 137.781C399.3 137.781 399.69 137.491 400.18 136.901C400.81 135.83 401.59 134.22 402.52 132.079C403.54 129.788 404.4 128.378 405.08 127.838C405.32 127.648 405.62 127.548 405.96 127.548C406.4 127.548 406.84 127.768 407.28 128.208C407.77 128.788 408.01 129.548 408.01 130.479C408.01 132.229 407.33 134.65 405.96 137.721C404.21 142.062 401.79 146.003 398.72 149.565C395.8 153.026 393.34 154.756 391.34 154.756C390.61 154.756 390.06 154.606 389.7 154.316C389.33 154.026 389.15 153.566 389.15 152.926C389.15 152.045 389.61 151.075 390.54 150.005C394.49 145.623 396.46 143.203 396.46 142.772C396.46 142.482 395.68 142.332 394.12 142.332C391.49 142.182 389.78 141.502 389 140.282C388.71 139.742 388.56 139.141 388.56 138.451L388.55 138.441ZM399.59 152.836C404.07 148.204 407.6 143.673 410.19 139.241C410.68 138.361 411.13 137.731 411.54 137.341C411.95 136.951 412.48 136.761 413.11 136.761C413.69 136.811 414.1 136.971 414.32 137.231C414.54 137.501 414.65 137.921 414.65 138.511C414.65 139.391 414.56 140.112 414.39 140.672C414.22 141.232 414.11 141.562 414.06 141.662C413.86 142.442 413.09 144.023 411.72 146.414L409.67 149.775L411.86 152.335C414 154.916 415.37 156.867 415.95 158.187C416.14 158.768 416.24 159.188 416.24 159.428C416.24 160.108 415.95 160.648 415.36 161.038C414.97 161.378 414.48 161.548 413.9 161.548C412.39 161.548 410.68 160.088 408.78 157.167C407.61 155.416 406.9 154.416 406.66 154.166C406.51 154.016 405.56 154.776 403.81 156.437C402.15 158.097 401.01 159.118 400.38 159.508C399.75 159.948 399.04 160.168 398.26 160.168C396.55 160.168 395.7 159.418 395.7 157.897C395.7 157.217 396.99 155.537 399.57 152.856L399.59 152.836ZM400.39 106.641C401.02 106.641 401.71 107.031 402.44 107.811C403.71 109.172 404.34 110.592 404.34 112.053C404.34 113.713 403.8 114.544 402.73 114.544C401.66 114.544 400.64 113.473 399.66 111.322C399.12 110.102 398.86 109.152 398.86 108.472C398.86 107.891 399.03 107.421 399.37 107.081C399.66 106.791 400 106.641 400.39 106.641Z" fill="#534741"/>
<path d="M428.71 152.075C428.25 151.465 427.89 150.555 427.65 149.335C427.45 148.214 427.21 145.073 426.92 139.902C426.72 136.981 426.63 134.54 426.63 132.589C426.63 131.669 426.65 131.079 426.7 130.839C426.8 130.208 427.11 129.258 427.65 127.988C428.19 126.717 428.94 125.287 429.92 123.676C432.01 120.025 433.28 118.025 433.72 117.685C434.21 117.294 434.67 117.104 435.11 117.104C435.45 117.104 435.74 117.204 435.99 117.394C436.48 117.735 436.72 118.275 436.72 119.005C436.72 119.495 436.62 120.025 436.43 120.615C435.85 122.566 434.87 124.417 433.51 126.167C432.58 127.438 432.17 128.118 432.27 128.218C432.42 128.368 433.46 128.148 435.41 127.558C437.36 127.068 439.82 126.757 442.79 126.607C443.37 126.557 444.13 126.537 445.06 126.537C446.28 126.537 447.13 126.607 447.62 126.757C448.54 126.997 449.25 127.588 449.74 128.508C450.42 129.578 450.76 131.899 450.76 135.45C450.76 137.111 450.74 138.401 450.69 139.321C450.4 144.873 449.67 148.504 448.5 150.215C447.23 151.925 443.31 152.776 436.73 152.776C435.12 152.776 433.76 152.816 432.64 152.886C431.52 152.956 430.84 152.996 430.59 152.996C429.81 152.996 429.19 152.696 428.73 152.085L428.71 152.075ZM431.89 135.29C432.23 138.021 432.5 140.482 432.69 142.672L433.13 147.714L436.49 147.644C439.02 147.544 440.92 147.354 442.19 147.064L444.46 146.554L444.75 142.462C444.9 140.752 444.97 139.151 444.97 137.641L444.9 135.08L444.83 131.939L442.2 131.869C440.79 131.819 438.77 131.969 436.13 132.309C435.84 132.359 435.18 132.459 434.16 132.599C433.14 132.749 432.5 132.749 432.26 132.599L432.04 132.529C431.94 132.529 431.84 132.589 431.75 132.709C431.65 132.829 431.63 132.989 431.68 133.189L431.9 135.31L431.89 135.29ZM437 138.801C437.58 138.651 438.29 138.581 439.12 138.581C440.24 138.581 441.18 138.671 441.93 138.841C442.68 139.011 443.18 139.221 443.43 139.461C443.97 140.002 444.23 140.462 444.23 140.852C444.23 141.052 444.16 141.272 444.01 141.512C443.52 142.192 442.55 142.702 441.09 143.043C440.36 143.193 439.53 143.263 438.6 143.263C436.6 143.263 435.41 143.073 435.02 142.682C434.63 142.292 434.44 141.782 434.44 141.152C434.44 140.132 435.29 139.351 437 138.811V138.801ZM456.74 123.967C456.98 123.426 457.35 122.506 457.84 121.186L458.57 119.575C459.06 118.255 459.45 117.454 459.74 117.164C460.32 116.534 460.93 116.214 461.57 116.214C462.64 116.214 463.18 116.754 463.18 117.825C463.18 118.505 463.03 119.555 462.74 120.966C462.4 122.816 461.79 124.887 460.91 127.178C460.23 128.888 459.5 130.058 458.72 130.689C458.18 131.179 457.6 131.419 456.97 131.419C456.34 131.419 455.85 131.239 455.51 130.869C455.17 130.499 455 130.008 455 129.368C455 128.588 455.24 127.708 455.73 126.737L456.75 123.957L456.74 123.967ZM462.44 133.98C462.73 133.69 463.27 133.54 464.05 133.54C464.83 133.54 465.8 134.17 466.97 135.44C468.24 136.761 468.87 137.951 468.87 139.021C468.87 139.411 468.8 139.752 468.65 140.042C468.4 140.532 467.97 140.872 467.33 141.062C467.08 141.162 466.77 141.212 466.38 141.212C465.7 141.212 465.06 140.922 464.48 140.332L463.31 139.091C462.82 138.551 462.51 138.121 462.36 137.771C462.12 137.141 461.99 136.43 461.99 135.65C461.99 134.87 462.14 134.31 462.43 133.97L462.44 133.98ZM464.63 124.617C464.63 124.127 464.9 123.696 465.43 123.296C465.97 122.906 466.75 122.616 467.77 122.416C469.43 122.076 471.72 121.906 474.64 121.906C477.56 121.906 479.32 122.106 480.05 122.486C481.61 123.366 482.56 124.507 482.9 125.917C483.09 126.647 483.19 127.648 483.19 128.918C483.19 130.188 483.09 131.359 482.9 132.569C482.46 135.25 481.78 138.511 480.85 142.362C479.58 147.094 478.73 150.015 478.29 151.135C477.56 153.136 476.74 154.606 475.84 155.557C474.94 156.507 473.88 156.977 472.66 156.977C471.54 156.977 470.15 156.467 468.49 155.446C468 155.156 467.39 154.476 466.66 153.396C466.03 152.466 465.71 151.765 465.71 151.275C465.71 150.885 465.93 150.475 466.37 150.035C466.66 149.645 467 149.455 467.39 149.455C467.73 149.455 468.36 149.795 469.29 150.475C470.36 151.255 471.02 151.645 471.26 151.645C471.94 151.645 473.09 148.554 474.7 142.362C475.72 138.371 476.45 135.26 476.89 133.039C477.33 130.819 477.5 129.278 477.4 128.398L477.18 126.937L471.48 126.717C467.58 126.567 465.46 126.257 465.12 125.767C464.78 125.227 464.61 124.847 464.61 124.597L464.63 124.617Z" fill="#534741"/>
<path d="M504.31 157.447C504.02 157.447 503.58 157.397 502.99 157.297C501.97 156.717 501.31 155.757 501.02 154.446C500.73 152.596 500.58 149.305 500.58 144.573C500.48 139.892 500.43 134.1 500.43 127.177V123.376C500.58 121.676 500.89 120.305 501.38 119.285C501.77 118.555 502.52 118.045 503.65 117.744C503.99 117.644 504.44 117.514 505 117.344C505.56 117.174 506.33 116.914 507.3 116.574C509.05 115.944 510.42 115.574 511.39 115.474C513 115.184 514.99 115.034 517.38 115.034C519.77 115.034 522.37 115.204 525.35 115.544C527.44 115.834 528.83 116.124 529.52 116.424C530.4 116.814 531.08 117.224 531.57 117.664C532.11 118.295 532.45 120.585 532.59 124.537L532.66 129.288C532.66 132.939 532.6 136.701 532.48 140.542C532.36 144.393 532.2 146.974 532.01 148.294C531.57 151.905 530.79 154.266 529.67 155.386C528.89 156.267 527.75 156.777 526.24 156.927C525.31 157.077 523.63 157.147 521.2 157.147L515.57 157.077L509.58 157.007C507.63 157.007 506.36 157.077 505.78 157.227C505.29 157.377 504.8 157.447 504.32 157.447H504.31ZM505.99 123.306C505.99 124.377 506.01 125.307 506.06 126.087L506.21 130.909C506.55 144.113 506.89 150.895 507.23 151.235C507.47 151.385 508.06 151.455 508.98 151.455L512.41 151.305C515.04 151.115 517.16 151.015 518.77 151.015C519.84 151.015 520.91 151.065 521.99 151.165C523.45 151.315 524.4 151.335 524.84 151.235C525.18 151.185 525.45 150.945 525.64 150.505C525.93 149.585 526.15 142.973 526.3 130.699C526.4 128.068 526.49 126.267 526.59 125.287L526.66 122.876C526.66 122.486 526.54 122.156 526.29 121.886C526.05 121.616 525.73 121.436 525.34 121.336C524.32 121.096 521.98 120.946 518.32 120.895C513.64 120.895 510.6 121.046 509.19 121.336C507.39 121.626 506.36 121.876 506.12 122.066C506.02 122.166 505.97 122.576 505.97 123.306H505.99ZM509.57 135.51C510.11 135.07 510.69 134.78 511.32 134.63C512.2 134.39 513.78 134.19 516.07 134.05C516.85 134 517.78 133.98 518.85 133.98C519.68 133.98 520.19 134.03 520.38 134.13C521.16 134.37 521.79 134.81 522.28 135.45C522.57 135.89 522.72 136.35 522.72 136.841C522.72 137.081 522.69 137.281 522.65 137.421C522.21 138.981 520.51 139.761 517.53 139.761C512.07 139.761 509.22 138.881 508.98 137.131C508.98 136.691 509.17 136.16 509.56 135.52L509.57 135.51Z" fill="#534741"/>
<path d="M553.93 119.655C554.42 118.775 555.25 118.165 556.42 117.825C557.78 117.434 560.02 117.144 563.14 116.944C564.85 116.844 566.4 116.734 567.82 116.614C569.23 116.494 570.5 116.384 571.62 116.284C578.59 115.654 583.68 115.334 586.89 115.334C591.66 115.334 594.49 115.574 595.37 116.064C597.12 116.994 598 118.305 598 120.015C598 121.036 597.66 122.286 596.98 123.746C595.76 126.327 594.67 127.618 593.69 127.618C593.49 127.618 593.29 127.518 593.07 127.328C592.85 127.137 592.69 126.987 592.6 126.887C592.06 126.447 591.8 125.747 591.8 124.767C591.8 124.087 591.95 123.276 592.24 122.356L592.39 121.776C592.39 121.236 592.05 120.896 591.37 120.755C590.79 120.655 589.74 120.605 588.23 120.605C586.72 120.605 585.45 120.625 584.43 120.675C580.78 120.825 577.56 121.046 574.78 121.336C572.83 121.536 569.54 121.626 564.91 121.626C559.89 121.626 557.38 121.826 557.38 122.206L557.75 125.057C557.9 125.787 557.97 126.427 557.97 126.957C557.97 127.448 557.87 127.858 557.68 128.198C557.34 128.688 556.85 128.928 556.22 128.928C555.73 128.928 555.32 128.828 554.98 128.638C554.64 128.448 554.35 128.128 554.1 127.688C553.66 126.807 553.44 125.207 553.44 122.866C553.44 121.306 553.61 120.235 553.95 119.655H553.93ZM560.73 105.611C561.85 105.611 563.14 106.391 564.6 107.951C566.21 109.702 567.01 111.042 567.01 111.973C567.01 112.803 566.38 113.213 565.11 113.213C564.57 113.213 564.11 113.063 563.72 112.773C563.14 112.283 562.38 111.583 561.45 110.652C559.84 109.042 559.04 107.781 559.04 106.851C559.04 106.461 559.23 106.141 559.62 105.901C559.86 105.711 560.23 105.611 560.72 105.611H560.73ZM574.39 166.44C573.9 166.44 573.42 166.2 572.93 165.71C572.39 165.17 572.13 164.439 572.13 163.519V157.017C572.13 151.755 572.01 149.054 571.76 148.904C571.66 148.854 571.33 148.794 570.77 148.724C570.21 148.654 569.56 148.564 568.83 148.464C567.86 148.274 567.03 148.174 566.35 148.174C565.62 148.174 565.25 148.344 565.25 148.684V153.436C565.25 157.187 565.03 159.288 564.59 159.718C564.1 160.208 563.59 160.448 563.05 160.448C562.32 160.448 561.73 160.208 561.3 159.718C560.91 159.278 560.69 158.547 560.64 157.527L560.42 152.115L560.35 149.114L560.42 146.854C560.52 145.583 560.61 144.723 560.71 144.263C560.81 143.803 561.05 143.443 561.44 143.203C561.93 142.963 562.29 142.832 562.54 142.832C562.83 142.832 563.11 142.943 563.38 143.163C563.65 143.383 563.93 143.633 564.22 143.933C564.46 144.183 564.95 144.303 565.68 144.303C565.97 144.303 567.14 144.203 569.19 144.013C571.14 143.773 572.14 143.573 572.19 143.433C572.34 143.043 572.43 142.312 572.48 141.242L572.63 139.271L570.44 138.981C568.93 138.831 567.96 138.691 567.52 138.541C566.89 138.351 566.44 137.711 566.17 136.641C565.9 135.57 565.77 133.98 565.77 131.889C565.77 129.018 565.96 127.378 566.35 126.987C567.76 125.577 569.86 124.797 572.63 124.647C575.41 124.497 577.19 124.427 577.96 124.427C581.18 124.427 583.1 124.667 583.73 125.157C584.51 125.787 585.02 126.477 585.27 127.208C585.37 127.698 585.42 128.158 585.42 128.598C585.42 129.278 585.35 130.138 585.2 131.159C584.95 132.869 584.74 134.13 584.54 134.96C584.3 135.98 583.98 136.761 583.59 137.301C583.35 137.641 583.04 137.911 582.68 138.101C582.31 138.301 582.08 138.421 581.99 138.471C581.7 138.621 581.25 138.731 580.64 138.801C580.03 138.871 579.63 138.931 579.43 138.981L576.87 139.271V143.223H587.03C587.57 143.223 587.97 143.283 588.24 143.403C588.51 143.523 588.81 143.783 589.15 144.173C590.37 145.393 590.98 148.044 590.98 152.145C590.98 154.876 590.76 156.677 590.32 157.557C589.54 159.168 588.18 160.118 586.23 160.408C585.4 160.508 584.52 160.288 583.6 159.748C582.14 158.828 581.41 157.867 581.41 156.897C581.41 156.167 581.58 155.757 581.92 155.657C582.26 155.557 582.84 155.537 583.67 155.587L585.35 155.737V148.284L581.84 148.434C579.5 148.484 578.11 148.634 577.67 148.874C577.33 149.024 577.16 149.435 577.16 150.115L577.31 155.086L577.38 158.087C577.38 162.519 576.92 165.11 575.99 165.84C575.41 166.28 574.87 166.5 574.38 166.5L574.39 166.44ZM569.79 132.009C569.84 133.129 569.96 133.81 570.16 134.06C570.31 134.26 570.48 134.39 570.67 134.46C570.86 134.53 571.16 134.55 571.55 134.5C573.11 134.31 574.5 134.21 575.72 134.21C577.91 134.21 579.06 134.16 579.16 134.06C579.26 133.96 579.45 133.229 579.74 131.869C580.03 130.509 580.11 129.728 579.96 129.528C579.91 129.378 578.18 129.308 574.77 129.308C571.36 129.308 569.73 129.378 569.73 129.528L569.8 132.019L569.79 132.009ZM571.18 108.612C571.37 106.471 571.67 105.01 572.06 104.23C572.3 103.74 572.98 103.5 574.11 103.5C574.74 103.5 575.16 103.79 575.35 104.38C575.64 105.161 575.79 106.741 575.79 109.132C575.79 111.372 575.64 112.933 575.35 113.813C575.15 114.353 574.86 114.714 574.47 114.914C574.08 115.114 573.52 115.184 572.79 115.134C572.21 115.084 571.74 114.814 571.4 114.333C571.06 113.843 570.89 113.213 570.89 112.433C570.89 112.143 570.99 110.872 571.18 108.632V108.612ZM580.75 108.322C581.29 106.811 581.75 105.831 582.14 105.401C582.68 104.82 583.28 104.52 583.97 104.52C584.85 104.52 585.38 104.81 585.58 105.401C585.63 105.501 585.65 105.721 585.65 106.061C585.65 106.641 585.5 107.421 585.21 108.402C584.82 109.672 584.43 110.622 584.04 111.252C583.6 112.033 582.97 112.423 582.14 112.423C581.21 112.423 580.6 111.913 580.31 110.892C580.16 110.402 580.31 109.552 580.75 108.332V108.322Z" fill="#534741"/>
</g>
<defs>
<clipPath id="clip0_22_3198">
<rect width="636" height="166" fill="white" transform="translate(0 0.5)"/>
</clipPath>
</defs>
</svg>
