<svg width="386" height="38" viewBox="0 0 386 38" fill="none" xmlns="http://www.w3.org/2000/svg">
<g clip-path="url(#clip0_58_1099)">
<path d="M2.826 32.6884C2.44653 32.1093 2.24681 31.6001 2.24681 31.1508C2.24681 30.9611 2.30673 30.7315 2.43654 30.4819C2.59632 30.1624 2.84597 30.0026 3.20547 30.0026C3.74471 30.0026 4.17411 30.1624 4.49367 30.4819C4.6834 30.6716 4.86315 30.7714 5.02293 30.7714C5.28256 30.7714 5.42237 30.5118 5.45232 30.0026C5.55219 29.4635 5.59213 28.6148 5.59213 27.4666L5.64206 24.4514H4.01434C2.95582 24.4514 2.30673 24.3116 2.04709 24.0221C1.85735 23.7725 1.75749 23.5229 1.75749 23.3032C1.75749 22.6343 2.5364 22.0053 4.10421 21.4362L5.64206 20.8571L5.78186 18.3211C5.91168 16.2144 5.96161 14.8366 5.92167 14.1976L5.82181 12.66H3.13557C1.79744 12.66 1.02851 12.64 0.838779 12.6101C0.519226 12.5502 0.299533 12.3904 0.169715 12.1308C0.0398967 11.9711 -0.0200195 11.7914 -0.0200195 11.6017C-0.0200195 10.6132 1.27816 10.0042 3.86455 9.78455C4.92307 9.68471 5.52223 9.5649 5.682 9.40515C5.87174 9.2454 5.9716 8.25696 5.9716 6.42985C5.9716 5.25171 6.03151 4.33316 6.16133 3.69417C6.26119 3.27483 6.51084 2.99527 6.93026 2.83552C7.21985 2.73568 7.42956 2.69574 7.54939 2.69574C7.73913 2.69574 7.92886 2.80557 8.12858 3.03521C8.50805 3.45455 8.76769 4.26327 8.89751 5.48134C9.1871 7.36837 9.37683 8.43668 9.4767 8.69627C9.57656 8.88597 10.0559 9.03573 10.9147 9.12559C11.4939 9.15554 11.9033 9.28534 12.1629 9.50499C12.4825 9.72465 12.6423 10.0342 12.6423 10.4136C12.6423 10.6731 12.6223 10.8529 12.5923 10.9627C12.5624 11.0725 12.4625 11.2223 12.3027 11.422C11.8534 11.8014 11.3441 12.061 10.7649 12.1908L9.51664 12.4803L9.46671 15.9348L9.36685 19.3894L11.1843 19.4393C11.7935 19.4393 12.2229 19.4992 12.4825 19.629C12.6423 19.6889 12.7721 19.8686 12.862 20.1582C12.9219 20.4178 12.9618 20.6075 12.9618 20.7373C12.9618 21.1566 12.812 21.546 12.5025 21.9154C12.2029 22.2848 11.7435 22.5943 11.1344 22.8539L9.50665 23.5728L9.36685 25.0604C9.30693 25.7294 9.23703 27.0273 9.17711 28.9443C9.17711 31.4404 8.74771 33.1177 7.87893 33.9764C7.36964 34.4556 6.8304 34.6952 6.25121 34.6952C5.96161 34.6952 5.5422 34.6153 5.00295 34.4556C4.10421 34.166 3.37523 33.597 2.79604 32.7283L2.826 32.6884ZM15.718 30.7215C15.718 30.2123 16.0974 29.773 16.8464 29.4036C17.5953 29.0342 18.6738 28.7845 20.0819 28.6647C21.0405 28.5649 21.5198 28.4051 21.5198 28.1855C21.5198 27.9658 21.3002 27.0473 20.8508 25.4498C20.1118 22.8939 19.7523 21.0268 19.7523 19.8387C19.7523 18.8502 19.972 18.2112 20.4214 17.9217C20.681 17.762 20.9506 17.6821 21.2303 17.6821C21.5099 17.6821 21.7695 17.7919 21.9992 18.0215C22.4485 18.6605 23.2574 21.2764 24.4458 25.8791C24.6654 26.8676 24.8652 27.4566 25.0249 27.6563C25.1248 27.876 25.3245 28.0058 25.6441 28.0357H25.9836C26.2033 28.0357 26.383 28.0058 26.5129 27.9359C26.8324 27.5565 27.6313 24.8508 28.9095 19.8387C29.0992 19.01 29.4188 18.4608 29.8682 18.2112C30.0279 18.1114 30.1677 18.0715 30.2976 18.0715C30.5173 18.0715 30.7769 18.2112 31.0665 18.5008C31.6357 19.0799 31.9253 19.9385 31.9253 21.0867C31.9253 22.3048 31.5758 23.9322 30.8668 25.979C30.4873 27.1571 30.3275 27.7961 30.3874 27.896C30.4873 28.0257 31.3161 28.0857 32.8839 28.0857C34.4518 28.0857 35.4404 28.2654 35.8598 28.6148C36.2093 28.9643 36.389 29.3836 36.389 29.8628C36.389 30.3421 36.2293 30.7415 35.9097 31.061C35.5602 31.3505 34.7613 31.5402 33.5131 31.64C32.2349 31.7698 29.259 31.9096 24.5955 32.0694L18.3643 32.1692C17.5354 32.1692 17.0561 32.1492 16.9263 32.1193C16.4469 32.0194 16.1074 31.7698 15.9177 31.3505C15.7879 31.0909 15.728 30.8912 15.728 30.7315L15.718 30.7215ZM18.5939 12.0809C19.0733 11.8213 19.7623 11.6316 20.6511 11.5018C21.42 11.372 22.6483 11.2622 24.3459 11.1624C27.0621 11.0026 29.0893 10.9228 30.4374 10.9228C32.2948 10.9228 33.4731 11.0026 33.9824 11.1624C34.7513 11.3521 35.1308 11.8313 35.1308 12.6001C35.1308 13.0793 34.8712 13.5087 34.3619 13.8981C33.9125 14.1576 31.0765 14.2775 25.8338 14.2775C20.5312 14.2176 17.7651 14.0678 17.5454 13.8481C17.2858 13.5885 17.2558 13.3389 17.4455 13.0793C17.7052 12.6301 18.0847 12.3006 18.5939 12.0709V12.0809ZM24.7353 5.61114C24.7353 4.9422 24.8752 4.44298 25.1647 4.12349C25.2946 3.90384 25.6141 3.82396 26.1234 3.88387C26.8923 3.98371 27.5614 5.16185 28.1406 7.42827C28.3303 8.09721 28.4302 8.6763 28.4302 9.15554C28.4302 9.85444 28.2105 10.2538 27.7611 10.3537C27.6613 10.3836 27.5215 10.4036 27.3317 10.4036C26.8224 10.4036 26.3731 10.164 25.9836 9.68471C25.4743 9.04572 25.1048 8.06726 24.8851 6.75933C24.7853 6.31004 24.7453 5.93064 24.7453 5.61114H24.7353Z" fill="#534741"/>
<path d="M64.0404 36.3726C59.277 36.3726 55.1228 35.7635 51.5778 34.5554C48.1226 33.3773 45.696 32.289 44.288 31.3006C43.1396 30.5318 42.5604 29.6532 42.5604 28.6647C42.5604 27.836 42.88 27.4167 43.5191 27.4167C43.8686 27.4167 44.3779 27.5465 45.0569 27.7961C45.8858 28.1456 46.395 28.2754 46.5948 28.1755C47.2938 27.886 47.7132 27.1371 47.843 25.9191C47.873 25.7593 47.893 25.5696 47.893 25.34C47.893 25.1103 47.863 24.9706 47.7931 24.9107C47.6633 24.721 47.5035 24.5113 47.2938 24.2916C47.0841 24.072 46.8844 23.8424 46.6946 23.6227C45.706 22.5344 45.2067 21.7656 45.2067 21.3263C45.2067 20.8171 45.6561 19.5391 46.5448 17.4924C46.7046 17.1429 46.7545 16.7136 46.6846 16.1944L46.6347 15.4256L45.3865 15.4756H45.0969C44.4877 15.4756 44.0883 15.3358 43.8985 15.0462C43.7687 14.7867 43.7088 14.587 43.7088 14.4272C43.7088 13.9779 44.0284 13.5686 44.6675 13.1792C45.2067 12.8597 45.8159 12.6999 46.4849 12.6999C47.2838 12.6999 47.9029 12.8098 48.3523 13.0394C48.8316 13.329 49.1811 13.6984 49.4108 14.1377C49.7603 14.9364 49.9401 15.7352 49.9401 16.5339C49.9401 17.4924 49.6805 18.5807 49.1712 19.7888L48.7917 20.6973L49.8502 21.7057C51.0685 22.8539 51.6677 24.3116 51.6677 26.0688C51.6677 27.1871 51.3182 28.1456 50.6092 28.9443C50.2896 29.2937 50.2397 29.5833 50.4693 29.8029C50.729 30.0226 51.2483 30.2822 52.0471 30.5717C54.1242 31.2706 56.6008 31.7499 59.4767 32.0095C61.3341 32.1692 62.9918 32.2491 64.4598 32.2491C65.2587 32.2491 65.8678 32.2291 66.2772 32.1992C69.3729 32.0694 73.2275 31.7798 77.8311 31.3405C78.3104 31.2806 78.8996 31.2407 79.6086 31.2407C80.1478 31.2407 80.4973 31.2706 80.6671 31.3405C81.1464 31.4703 81.3861 31.8397 81.3861 32.4388C81.3861 33.4572 80.5573 34.2459 78.8896 34.7851C77.2918 35.2943 74.0963 35.7436 69.303 36.123C67.2858 36.2827 65.5283 36.3626 64.0304 36.3626L64.0404 36.3726ZM47.3138 3.3547C47.5335 3.3547 47.853 3.49448 48.2724 3.78403C48.7817 4.20336 49.2011 4.77246 49.5207 5.5113C49.8402 6.18024 50 6.78928 50 7.32843C50 8.41671 49.6805 8.95586 49.0413 8.95586C48.4622 8.95586 47.8131 8.41671 47.0741 7.32843C46.3651 6.31004 46.0156 5.44141 46.0156 4.74251C46.0156 4.26327 46.1953 3.89385 46.5448 3.64425C46.8344 3.45455 47.0841 3.3547 47.3138 3.3547ZM58.4781 19.649C58.7677 17.8318 59.0573 15.5455 59.3369 12.7998C59.6265 9.92433 59.8662 8.1072 60.0559 7.33841C60.2457 6.56963 60.6351 6.00052 61.2043 5.61114C62.9918 4.39306 65.039 3.13505 67.3357 1.82712C68.0747 1.44771 68.6639 1.24803 69.1133 1.24803C69.4029 1.24803 69.6425 1.29795 69.8323 1.38781C70.2117 1.57751 70.4114 1.84708 70.4114 2.20652C70.4114 2.71571 70.012 3.32475 69.2131 4.02365C68.1246 5.01209 66.6267 5.8907 64.7094 6.65948L62.892 7.37835L62.9918 10.4435V11.4519C62.9918 11.7115 62.9918 12.1109 63.0118 12.67C63.0318 13.2291 63.0717 13.5386 63.1316 13.6085C63.1916 13.6684 63.6709 13.5486 64.5696 13.2291C66.7765 12.4004 69.0933 11.9811 71.5199 11.9811C72.5085 11.9811 73.2275 12.1608 73.6769 12.5102C74.0963 12.8297 74.296 13.1692 74.296 13.5187C74.296 13.7084 74.2161 13.938 74.0564 14.1876C73.7068 14.7267 72.858 15.176 71.5199 15.5255L69.9421 15.9548L70.042 22.2848V24.731C70.042 27.4766 69.9421 29.0242 69.7524 29.3836C69.4328 30.0525 68.9535 30.392 68.3144 30.392C68.0547 30.392 67.835 30.3321 67.6453 30.2023C67.4556 30.0725 67.2159 29.8628 66.9263 29.5833C66.8265 29.4834 66.7366 29.3437 66.6367 29.154C66.6068 28.9942 66.5568 28.6548 66.4969 28.1456C66.467 27.7662 66.447 27.1571 66.447 26.3284V22.8339C66.447 18.8103 66.3871 16.7336 66.2573 16.6038C66.1574 16.5039 65.5882 16.5539 64.5297 16.7436C63.6709 16.9033 63.1416 17.083 62.9519 17.2727C62.7921 17.4325 62.6323 17.9117 62.4726 18.7105C62.2529 20.0883 61.7835 21.3663 61.0845 22.5444C60.6651 23.2133 60.1758 23.5528 59.5966 23.5528C59.5367 23.5528 59.3769 23.5229 59.1173 23.453C58.7977 23.3531 58.568 23.1934 58.4182 22.9737C58.2784 22.7541 58.1985 22.4346 58.1985 22.0152C58.1985 21.506 58.2984 20.7173 58.4881 19.6689L58.4781 19.649Z" fill="#534741"/>
<path d="M94.288 35.1245C93.8686 35.1245 93.5191 34.9648 93.2295 34.6453C92.8101 34.196 92.5405 33.3973 92.4107 32.2491C92.2809 31.1009 92.191 28.7646 92.1211 25.2501C92.0612 22.3148 91.9913 20.0284 91.9313 18.4009C91.5519 18.7204 91.0326 19.2296 90.3935 19.9385C89.4348 21.0268 88.616 21.5659 87.9469 21.5659C87.6873 21.5659 87.4676 21.4661 87.2779 21.2764C87.0182 21.0168 86.8984 20.7373 86.8984 20.4178C86.8984 20.288 86.9583 19.9984 87.0881 19.5591C87.3477 18.9501 88.1466 17.702 89.4848 15.825C90.9527 13.7782 92.3807 11.5817 93.7488 9.21545C94.8972 7.19863 95.6661 6.12034 96.0456 5.96059C96.3052 5.86075 96.5449 5.82081 96.7646 5.82081C97.2439 5.82081 97.6433 6.01051 97.9629 6.39989C98.0628 6.52969 98.1027 6.68944 98.1027 6.87914C98.1626 7.00893 98.1526 7.17867 98.0528 7.4083C98.0528 7.43826 98.0528 7.47819 98.0328 7.52811C98.0128 7.57803 98.0128 7.64792 98.0128 7.74777L97.4336 9.04572C97.0841 9.78455 96.7246 10.5034 96.3751 11.2023L94.9871 14.0279L95.3665 16.4241C95.5862 17.9217 95.746 21.1965 95.8459 26.2486L95.8958 29.0741C95.8958 32.299 95.766 34.0862 95.5163 34.4456C95.1968 34.8949 94.8273 35.1345 94.4179 35.1645H94.2781L94.288 35.1245ZM102.866 26.1188C103.795 24.5213 104.524 23.4829 105.073 23.0037C105.393 22.7441 105.692 22.6243 105.982 22.6243C106.201 22.6243 106.411 22.6742 106.601 22.7641C106.95 22.9238 107.13 23.3431 107.13 24.0121C107.13 24.8408 106.91 25.6894 106.461 26.5481C105.313 28.6248 104.084 29.8029 102.766 30.0925C101.997 30.1923 101.568 29.8229 101.468 28.9942C101.408 28.6747 101.867 27.7162 102.856 26.1188H102.866ZM105.163 7.76773C105.672 6.38991 105.972 5.48135 106.072 5.03205C106.391 4.04362 106.721 3.2948 107.08 2.77562C107.43 2.39622 107.779 2.19653 108.129 2.19653C108.348 2.19653 108.578 2.25644 108.798 2.38623C109.017 2.57593 109.137 3.1051 109.137 3.96374C109.137 4.60273 109.077 5.26169 108.948 5.9506C108.818 6.63952 108.738 7.13873 108.708 7.45822C108.448 8.22701 108.388 8.63636 108.518 8.70625C108.578 8.76616 108.658 8.8061 108.758 8.8061C108.788 8.8061 109.057 8.74619 109.577 8.61639C111.144 8.19706 113.202 7.95744 115.758 7.89753C118.374 7.95744 120.102 8.1671 120.931 8.51655L121.36 8.8061L121.79 9.23542C121.949 9.36521 122.079 9.52496 122.169 9.71466L122.459 10.2438L122.598 10.6731L122.648 10.7231C122.678 10.8828 122.698 11.0625 122.698 11.2522C122.698 11.9911 122.329 12.9496 121.6 14.1277C120.801 15.3058 120.132 15.9049 119.583 15.9049H119.443C119.063 15.9049 118.784 15.7252 118.624 15.3757C118.494 14.8366 118.464 14.1976 118.524 13.4587L118.714 11.8812L117.995 11.7415C117.615 11.6816 116.966 11.6416 116.078 11.6416L113.441 11.6915C110.665 11.7514 108.987 11.8313 108.408 11.9312L107.21 12.0709L106.441 13.7483C105.862 14.9963 105.243 15.845 104.574 16.2843C104.384 16.3841 104.204 16.4241 104.044 16.4241C103.595 16.4241 103.236 16.1745 102.946 15.6553C102.816 15.4955 102.756 15.2559 102.756 14.9364C102.756 14.6469 102.806 14.3473 102.896 14.0279L105.153 7.74777L105.163 7.76773ZM107.749 29.8129C108.159 29.8129 108.708 30.1823 109.377 30.9112C109.826 31.2906 110.096 31.4903 110.196 31.4903C110.326 31.4903 110.465 30.7914 110.625 29.4036C110.785 28.0158 110.925 26.0089 111.055 23.3931C111.244 20.3279 111.504 18.5008 111.824 17.9317C112.143 17.5123 112.463 17.3127 112.782 17.3127C113.002 17.3127 113.242 17.4125 113.481 17.6022C113.721 17.7919 113.921 18.0515 114.08 18.371C114.34 18.7903 114.51 20.3179 114.61 22.9737C114.64 23.7425 114.66 24.8108 114.66 26.1886C114.66 27.7262 114.63 28.7945 114.56 29.4036C114.37 31.7698 114.11 33.3074 113.791 34.0063C113.341 35.0247 112.562 35.5439 111.444 35.5439C110.615 35.5439 109.826 35.2543 109.097 34.6852C108.518 34.176 108.029 33.5171 107.609 32.7183C107.13 31.7299 106.92 31.041 106.99 30.6616C107.15 30.1224 107.4 29.8429 107.759 29.8429L107.749 29.8129ZM118.684 23.433C118.684 22.9837 118.824 22.6542 119.113 22.4246C119.403 22.0452 119.722 21.8455 120.072 21.8455C120.172 21.8455 120.312 21.8755 120.501 21.9453C120.981 22.2049 121.59 22.8839 122.319 24.0021L123.467 25.4398C123.597 25.5996 123.767 25.8392 123.996 26.1587C124.216 26.4782 124.426 26.7478 124.616 26.9774C125.285 27.7462 125.624 28.4351 125.624 29.0342C125.624 29.3836 125.494 29.6931 125.245 29.9427C124.955 30.3221 124.586 30.5218 124.146 30.5218C123.667 30.5218 123.168 30.3121 122.658 29.9028C121.51 29.0441 120.481 27.7262 119.593 25.969C119.053 24.691 118.744 23.9122 118.684 23.6227V23.433Z" fill="#534741"/>
<path d="M136.948 28.0857C136.239 28.1156 135.371 28.1356 134.312 28.1356C132.844 28.1356 131.945 28.0557 131.626 27.896C131.366 27.7662 131.246 27.5565 131.246 27.2769C131.246 27.0573 131.286 26.8676 131.366 26.7278C131.446 26.588 131.576 26.4383 131.776 26.2685C132.155 26.0089 132.744 25.7893 133.553 25.5996C134.322 25.4099 134.801 25.2202 134.991 25.0205C135.091 24.9606 135.131 24.8807 135.131 24.7809C135.131 24.5912 135.081 24.4314 134.991 24.3016C134.891 24.0121 134.851 22.8639 134.851 20.8471C134.851 19.2197 134.871 17.8718 134.901 16.8234C134.901 15.7052 134.921 14.9065 134.951 14.4272C134.951 12.9895 134.971 11.8213 135.001 10.9327C135.031 10.2338 135.301 9.36521 135.82 8.34682C136.459 7.16868 137.128 6.21019 137.837 5.47136C138.536 4.70257 139.225 4.32317 139.894 4.32317C140.314 4.32317 140.663 4.48292 140.953 4.80242C141.053 4.90226 141.093 5.02207 141.093 5.18182C141.093 5.34157 141.013 5.56122 140.853 5.83079C140.693 6.10037 140.533 6.33999 140.374 6.54966C140.214 6.75933 140.084 6.92906 139.994 7.04887L139.415 7.81766C138.776 8.74619 138.316 9.4351 138.027 9.90436C137.737 10.3636 137.597 10.7231 137.597 10.9827C137.597 11.4319 138.366 11.6017 139.894 11.5118L140.803 11.4619C141.542 11.4619 142.161 11.5917 142.67 11.8413C143.05 12.031 143.25 12.3205 143.25 12.6999C143.25 12.8597 143.2 13.0694 143.11 13.319C142.82 13.958 141.802 14.3374 140.044 14.4672L138.227 14.6069L138.127 15.6653V16.1445C138.127 16.5938 138.157 16.8534 138.227 16.9133C138.286 16.9732 138.436 17.0131 138.656 17.0131C138.976 17.0131 139.475 16.9632 140.144 16.8734C140.593 16.8135 141.152 16.7735 141.822 16.7735C142.561 16.7735 143.08 16.8734 143.399 17.083C143.719 17.2927 143.879 17.6322 143.879 18.1114C143.879 18.5906 143.539 18.99 142.87 19.3095C142.421 19.4992 141.522 19.649 140.184 19.7388L138.217 19.8786V24.9107L143.779 24.8607C146.275 24.8607 149.391 24.731 153.126 24.4813C156.161 24.1618 158.169 23.9821 159.167 23.9522C160.096 23.9222 160.705 23.8823 160.985 23.8324C161.274 23.7824 161.414 23.6327 161.414 23.3731C161.414 23.3132 161.394 23.1634 161.364 22.9438C161.334 22.7241 161.304 22.3647 161.264 21.8854L161.214 20.6873L159.826 20.5875C159.157 20.5575 158.658 20.4777 158.338 20.3479C158.019 20.2181 157.859 19.8986 157.859 19.3894C157.859 18.97 158.079 18.6206 158.508 18.3311C158.938 18.0415 159.557 17.8518 160.356 17.752C160.735 17.752 161.055 17.6921 161.314 17.5623C161.534 17.3426 161.694 16.9632 161.774 16.434C161.854 15.9049 161.864 15.4955 161.794 15.216L161.694 14.597L160.116 14.6469L159.347 14.6968C158.768 14.6968 158.398 14.5171 158.249 14.1676C158.149 13.908 158.109 13.6884 158.109 13.4987C158.109 12.9595 158.618 12.5202 159.647 12.2007C160.096 12.0709 160.436 11.9911 160.655 11.9611C161.105 11.8613 161.434 11.7814 161.634 11.7015C161.844 11.6216 161.993 11.4819 162.093 11.2922C162.123 11.2323 162.143 10.9228 162.143 10.3836V9.32528L160.565 9.22543C159.477 9.16553 158.858 8.96584 158.698 8.64635C158.538 8.38676 158.458 8.18707 158.458 8.02732C158.458 7.76774 158.598 7.52811 158.888 7.30846C159.627 6.82922 160.665 6.5896 162.003 6.5896C163.341 6.5896 164.35 7.04887 165.029 7.9774C165.289 8.26695 165.409 9.49501 165.409 11.6716C165.409 15.9548 165.059 19.609 164.36 22.6442L164.02 24.0321C164.02 24.092 164.66 24.1319 165.938 24.1319C168.015 24.1319 169.213 24.4714 169.533 25.1403C169.663 25.36 169.723 25.5896 169.723 25.8092C169.723 26.1587 169.543 26.5081 169.193 26.8676C168.774 27.217 168.324 27.3967 167.855 27.3967H163.491C159.876 27.3967 157.36 27.4966 155.922 27.6863C154.134 27.9059 149.79 28.0257 142.89 28.0257L136.998 28.0757L136.948 28.0857ZM141.762 35.9432C141.971 35.6837 142.301 35.3342 142.74 34.8849L143.889 33.7367C144.658 32.8781 145.257 32.269 145.686 31.9196C146.116 31.5702 146.475 31.3904 146.765 31.3904C146.954 31.3904 147.114 31.4404 147.244 31.5302C147.593 31.7898 147.773 32.1193 147.773 32.5386C147.773 33.3074 147.274 34.2958 146.285 35.5139C144.907 37.1713 143.629 38.01 142.451 38.01C142.071 38.01 141.752 37.9002 141.512 37.6705C141.272 37.4509 141.202 37.1414 141.292 36.762C141.392 36.4724 141.542 36.2028 141.752 35.9432H141.762ZM144.468 20.9469C144.468 20.7572 144.528 20.5476 144.658 20.3279C144.787 20.1082 144.917 19.8986 145.067 19.7089C145.207 19.5192 145.337 19.3594 145.427 19.2296C146.255 17.9816 146.765 17.1829 146.964 16.8334L147.583 15.7352L146.865 15.206C146.445 14.8865 146.245 14.5171 146.245 14.1077C146.245 13.6285 146.615 13.279 147.344 13.0494C147.693 13.0194 147.903 12.7099 147.963 12.1408L148.063 11.1823C148.123 10.0941 148.203 9.28534 148.302 8.73621C148.492 7.55807 148.682 6.74934 148.882 6.32002C149.071 5.8907 149.411 5.67105 149.89 5.67105C150.27 5.67105 150.519 5.75092 150.629 5.91067C150.739 6.07042 150.819 6.29007 150.869 6.57961C150.919 6.86915 150.959 7.07882 150.989 7.19863L151.178 8.20704L152.327 8.34682C153.186 8.44666 153.745 8.5465 154.005 8.65633C154.264 8.76616 154.384 8.98581 154.384 9.30531C154.384 9.97425 154.084 10.3736 153.475 10.5034C152.836 10.6632 152.327 10.743 151.937 10.743C151.458 10.743 151.139 10.9228 150.979 11.2722C150.879 11.4919 150.839 11.7015 150.839 11.8912C150.839 12.3405 151.129 12.5602 151.698 12.5602C152.237 12.5602 152.866 12.69 153.565 12.9396C154.144 13.1992 154.584 13.5586 154.903 14.0378C155.353 14.6768 155.572 15.5355 155.572 16.6238C155.572 17.3626 155.492 18.0415 155.333 18.6805C154.883 20.5675 154.434 21.7956 153.995 22.3747C153.675 22.7541 153.385 23.0436 153.126 23.2133C152.866 23.3931 152.596 23.4729 152.317 23.4729C151.548 23.4729 151.039 22.9438 150.779 21.8954C150.719 21.5759 150.679 21.3663 150.679 21.2764C150.679 20.8271 150.859 20.4277 151.208 20.0783C151.528 19.8187 151.748 19.2197 151.877 18.2612C152.037 17.4624 152.117 16.8734 152.117 16.484C152.117 16.1944 152.057 15.9947 151.927 15.8849C151.798 15.7751 151.578 15.7152 151.258 15.7152H150.969C150.749 15.7152 150.599 15.7751 150.539 15.9049C150.38 16.1245 150.17 16.5938 149.92 17.2927C148.932 19.8487 147.733 21.4262 146.325 22.0352C146.165 22.0951 145.976 22.135 145.746 22.135C145.367 22.135 145.037 21.9953 144.787 21.7057C144.568 21.4461 144.448 21.1965 144.448 20.9369L144.468 20.9469ZM156.601 32.0594C156.95 32.0594 157.34 32.1992 157.749 32.4887C158.229 32.8082 158.628 33.1477 158.948 33.4971C159.207 33.7567 159.527 34.0363 159.906 34.3558C160.635 34.9648 161.075 35.4241 161.194 35.7436C161.324 35.9632 161.384 36.2028 161.384 36.4624C161.384 36.8418 161.244 37.1613 160.975 37.4009C160.705 37.6406 160.356 37.7604 159.946 37.7604C158.958 37.7604 157.899 37.1414 156.781 35.8933C155.952 34.8749 155.532 34.0263 155.532 33.3573C155.532 33.2575 155.562 33.0878 155.632 32.8282C155.822 32.319 156.142 32.0594 156.591 32.0594H156.601Z" fill="#534741"/>
<path d="M188.806 33.6868C187.717 32.5985 187.078 30.7514 186.889 28.1256L186.749 26.1587L183.104 26.0189C180.677 25.9191 179.379 25.7993 179.219 25.6395C179.029 25.4498 178.95 25.1104 178.98 24.6311C179.079 23.7026 180.607 23.0536 183.583 22.6642C185.241 22.4446 186.239 22.2848 186.559 22.185C186.779 22.0851 186.879 21.2864 186.849 19.7888L186.749 17.4924L183.393 17.3925C181.636 17.3326 180.497 17.2328 179.988 17.103C179.479 16.9732 179.219 16.6437 179.219 16.0946C179.219 15.5854 179.709 15.1461 180.677 14.7767C181.646 14.4073 183.094 14.1477 185.011 13.9879C185.52 13.958 185.97 13.908 186.349 13.8481C186.729 13.7882 186.968 13.7084 187.068 13.6085C187.258 13.4188 187.358 12.9895 187.358 12.3106C187.358 11.6316 187.538 11.0925 187.887 10.5833C188.207 10.104 188.576 9.86442 188.986 9.86442C189.275 9.86442 189.545 10.0541 189.804 10.4435C190.064 10.8229 190.234 11.3521 190.334 12.021C190.493 13.0095 190.633 13.5686 190.763 13.6984C190.793 13.7283 190.953 13.7483 191.242 13.7483C191.822 13.7483 192.74 13.6984 194.019 13.6085C195.327 13.5087 196.365 13.4687 197.134 13.4687C198.892 13.4687 199.96 13.928 200.34 14.8565C200.4 14.9863 200.44 15.176 200.44 15.4356C200.44 15.8849 200.12 16.3142 199.481 16.7336C199.032 17.0231 197.514 17.2128 194.927 17.3127C192.501 17.4125 191.153 17.5323 190.903 17.6921C190.743 17.8219 190.633 18.4908 190.563 19.7089V20.3279C190.563 21.0967 190.623 21.546 190.753 21.6658C190.883 21.7656 191.522 21.7257 192.67 21.5659C194.168 21.3463 195.836 21.2265 197.653 21.2265C199.76 21.2265 201.059 21.3663 201.538 21.6558C201.957 21.8755 202.157 22.2648 202.157 22.804C202.157 23.413 201.977 23.8623 201.628 24.1419C201.408 24.3316 200.879 24.5113 200.05 24.671C198.992 24.8607 197.604 25.0205 195.876 25.1503C192.551 25.4099 190.843 25.6295 190.743 25.8192C190.683 25.949 190.643 26.2486 190.643 26.7278C190.643 27.1771 190.663 27.5465 190.693 27.8261C190.793 28.9443 190.913 29.7131 191.073 30.1224C191.202 30.4719 191.532 30.8213 192.081 31.1808C192.62 31.5302 194.188 31.7099 196.785 31.7099C199.381 31.7099 200.889 31.66 201.049 31.5702C201.338 31.4104 201.748 30.9112 202.297 30.0825C202.876 29.1839 203.395 28.7446 203.875 28.7446C204.833 28.7446 205.313 29.3037 205.313 30.422C205.313 30.6816 205.253 31.1608 205.123 31.8597C204.744 33.7168 203.705 34.9249 202.007 35.5039C201.238 35.7635 200.11 35.8833 198.602 35.8833C197.574 35.8833 196.146 35.8035 194.288 35.6437C191.702 35.4241 189.864 34.7651 188.776 33.6768L188.806 33.6868ZM182.125 6.30005C182.585 6.03048 183.314 5.81082 184.302 5.65108C185.52 5.46138 186.409 5.27168 186.988 5.07199L189.814 4.1135C191.732 3.50447 192.93 3.09511 193.409 2.86548C193.889 2.64582 194.368 2.52601 194.847 2.52601C195.327 2.52601 195.726 2.70573 196.046 3.05518C196.235 3.27483 196.335 3.51445 196.335 3.77404C196.335 4.25328 196.016 4.73253 195.377 5.21177C194.997 5.53127 194.448 5.88071 193.749 6.2701C192.85 6.74934 192.151 7.08881 191.642 7.27851L189.295 8.13715C188.396 8.45665 187.598 8.6763 186.898 8.8061C186.679 8.83605 186.339 8.90594 185.89 8.9958C185.441 9.09564 185.081 9.13557 184.791 9.13557C183.993 9.13557 183.403 9.11561 183.014 9.06569C182.634 9.01576 182.325 8.89595 182.105 8.70625C181.656 8.32685 181.436 7.88755 181.436 7.4083C181.436 6.92906 181.666 6.54966 182.135 6.28008L182.125 6.30005Z" fill="#534741"/>
<path d="M216.317 33.0678L216.267 32.5885C216.267 31.9795 216.447 31.5502 216.797 31.2906C216.956 31.1908 217.116 31.1508 217.276 31.1508C217.566 31.1508 217.965 31.3605 218.474 31.7698C218.764 32.0594 218.974 32.2291 219.093 32.299C219.153 32.299 219.283 32.1892 219.473 31.9595C220.372 30.7115 220.821 28.6348 220.821 25.7294L220.871 23.2333L220.012 23.2832C219.792 23.2832 219.034 23.3431 217.755 23.4729C217.596 23.5029 217.376 23.5229 217.086 23.5229C216.547 23.5229 216.158 23.443 215.938 23.2832C215.648 23.0935 215.508 22.8539 215.508 22.5644C215.508 22.3447 215.668 22.0652 215.988 21.7457C216.247 21.4861 216.607 21.2165 217.096 20.927C217.705 20.6075 218.225 20.3978 218.674 20.3079C219.852 19.9285 220.491 19.6689 220.591 19.5391C220.651 19.4792 220.691 19.3994 220.691 19.2995C220.691 19.1997 220.631 18.9002 220.501 18.391C220.242 17.6921 219.912 17.0531 219.493 16.474C219.143 15.8649 218.964 15.4855 218.964 15.3258V15.1361C218.964 14.9464 219.014 14.6868 219.103 14.3673C219.263 13.6984 219.822 12.5003 220.781 10.773C221.71 8.98581 222.109 8.05728 221.979 7.99737C221.88 7.89753 221.66 7.85759 221.31 7.85759C220.641 7.85759 219.653 8.01734 218.344 8.33684C217.446 8.52654 216.747 8.62638 216.237 8.62638C215.469 8.62638 215.089 8.33684 215.089 7.76774C215.089 7.54808 215.199 7.28849 215.429 6.99895C215.648 6.70941 215.958 6.4598 216.337 6.23016C216.657 6.01051 217.126 5.75092 217.725 5.46138L219.593 4.84235C220.611 4.58276 221.46 4.46295 222.129 4.46295C222.898 4.46295 223.587 4.64267 224.186 4.99212C225.205 5.63111 225.724 6.44982 225.724 7.43825C225.724 8.42669 225.195 9.93431 224.146 11.9411L222.808 14.6269L223.527 16.1146C224.066 17.2627 224.386 17.9716 224.486 18.2212C224.646 18.5407 224.785 18.7204 224.915 18.7504C225.075 18.7803 225.504 18.7803 226.213 18.7504C226.373 18.7204 226.593 18.7005 226.883 18.7005C227.422 18.7005 227.821 18.7803 228.081 18.9401C228.43 19.1298 228.61 19.4992 228.61 20.0384C228.61 20.9669 227.871 21.6658 226.403 22.145L225.115 22.5244L224.975 25.3001C224.686 30.2822 223.647 33.547 221.86 35.0746C221.22 35.6837 220.501 35.9832 219.703 35.9832C219.193 35.9832 218.714 35.8734 218.265 35.6437C217.116 35.1046 216.477 34.2359 216.347 33.0578L216.317 33.0678ZM231.566 9.48502C231.566 9.19548 231.756 8.89595 232.135 8.57646C232.585 8.22701 235.57 7.66789 241.103 6.89911C243.28 6.57961 245.576 6.41986 248.003 6.41986C249.571 6.41986 250.559 6.49974 250.979 6.65948C251.458 6.78928 251.798 7.05885 251.987 7.47819C252.117 7.73778 252.177 7.93747 252.177 8.09721C252.177 8.25696 252.127 8.41671 252.037 8.57646C251.967 8.83605 251.768 9.07567 251.418 9.29532C251.159 9.45507 250.759 9.58487 250.22 9.67472C249.641 9.77457 248.892 9.86442 247.963 9.96427C246.295 10.0641 244.378 10.2538 242.211 10.5434C239.405 10.8928 237.008 11.0725 235.021 11.0725C233.873 11.0725 233.044 10.9627 232.525 10.7331C232.015 10.4435 231.706 10.0941 231.616 9.67472L231.566 9.48502ZM233.723 21.6159C233.723 20.9469 233.943 20.1781 234.392 19.3195C235.86 16.3841 237.038 14.4672 237.937 13.5686C238.287 13.1892 238.626 12.9895 238.946 12.9895C239.205 12.9895 239.405 13.1293 239.565 13.3988C239.725 13.6684 239.804 14.0478 239.804 14.5271C239.804 15.1361 239.665 15.7751 239.375 16.444C238.167 18.9002 237.727 20.278 238.087 20.5675C238.247 20.6973 238.586 20.7872 239.095 20.8571C239.705 20.9569 240.154 21.0468 240.434 21.1466L240.573 21.1965C240.763 21.1965 241.023 21.0068 241.342 20.6174C241.762 19.9185 242.271 18.8602 242.88 17.4524C243.549 15.9548 244.108 15.0263 244.558 14.6768C244.718 14.547 244.907 14.4871 245.137 14.4871C245.427 14.4871 245.706 14.6269 245.996 14.9164C246.315 15.2958 246.475 15.7951 246.475 16.4041C246.475 17.5523 246.026 19.1398 245.137 21.1466C243.989 23.9921 242.401 26.578 240.394 28.9143C238.476 31.1808 236.859 32.319 235.55 32.319C235.071 32.319 234.712 32.2191 234.472 32.0294C234.232 31.8397 234.112 31.5302 234.112 31.1209C234.112 30.5418 234.412 29.9028 235.021 29.2039C237.608 26.3284 238.906 24.7509 238.906 24.4614C238.906 24.2717 238.396 24.1718 237.368 24.1718C235.64 24.072 234.522 23.6327 234.013 22.8339C233.823 22.4845 233.723 22.0851 233.723 21.6358V21.6159ZM240.953 31.051C243.899 28.0158 246.206 25.0405 247.903 22.135C248.223 21.556 248.522 21.1466 248.792 20.887C249.062 20.6274 249.411 20.5076 249.82 20.5076C250.2 20.5376 250.47 20.6474 250.609 20.8171C250.749 20.9968 250.819 21.2764 250.819 21.6558C250.819 22.2349 250.759 22.7042 250.649 23.0736C250.539 23.443 250.47 23.6527 250.44 23.7225C250.31 24.2317 249.8 25.2701 248.902 26.8376L247.564 29.0441L249.002 30.7215C250.41 32.4188 251.298 33.6968 251.688 34.5554C251.818 34.9348 251.878 35.2144 251.878 35.3741C251.878 35.8234 251.688 36.1729 251.298 36.4325C251.039 36.6521 250.719 36.7719 250.34 36.7719C249.351 36.7719 248.233 35.8135 246.984 33.8965C246.216 32.7483 245.756 32.0893 245.596 31.9296C245.497 31.8297 244.877 32.329 243.729 33.4172C242.641 34.5055 241.892 35.1745 241.472 35.4341C241.053 35.7236 240.593 35.8634 240.084 35.8634C238.966 35.8634 238.406 35.3642 238.406 34.3757C238.406 33.9264 239.255 32.8282 240.943 31.0709L240.953 31.051ZM241.482 0.768786C241.902 0.768786 242.341 1.02838 242.82 1.53757C243.649 2.43615 244.069 3.3547 244.069 4.31319C244.069 5.40147 243.719 5.94062 243.01 5.94062C242.301 5.94062 241.632 5.24172 240.993 3.83395C240.643 3.03521 240.464 2.41618 240.464 1.96689C240.464 1.58749 240.573 1.27798 240.803 1.05833C240.993 0.868628 241.213 0.768786 241.472 0.768786H241.482Z" fill="#534741"/>
<path d="M260.056 30.5518C259.757 30.1524 259.517 29.5533 259.357 28.7546C259.227 28.0158 259.068 25.959 258.878 22.5744C258.748 20.6574 258.688 19.0599 258.688 17.7819C258.688 17.1729 258.708 16.7935 258.738 16.6337C258.798 16.2144 259.008 15.5954 259.357 14.7667C259.707 13.938 260.206 12.9895 260.845 11.9411C262.223 9.54493 263.052 8.23699 263.342 8.00736C263.661 7.74777 263.961 7.62796 264.25 7.62796C264.47 7.62796 264.66 7.68786 264.829 7.81766C265.149 8.03731 265.309 8.39674 265.309 8.87599C265.309 9.19548 265.249 9.54493 265.119 9.93431C264.74 11.2123 264.1 12.4304 263.202 13.5786C262.593 14.4073 262.323 14.8565 262.383 14.9164C262.483 15.0163 263.172 14.8665 264.44 14.4871C265.718 14.1676 267.336 13.958 269.283 13.8681C269.663 13.8382 270.162 13.8182 270.771 13.8182C271.57 13.8182 272.129 13.8681 272.449 13.958C273.058 14.1177 273.517 14.4971 273.837 15.1061C274.286 15.805 274.506 17.3226 274.506 19.659C274.506 20.7472 274.486 21.5959 274.456 22.195C274.266 25.8392 273.787 28.2154 273.018 29.3337C272.189 30.4519 269.613 31.011 265.299 31.011C264.25 31.011 263.352 31.031 262.613 31.0809C261.874 31.1308 261.434 31.1508 261.274 31.1508C260.765 31.1508 260.356 30.9511 260.056 30.5518ZM262.143 19.5491C262.363 21.3363 262.543 22.9538 262.672 24.3915L262.962 27.6963L265.169 27.6463C266.827 27.5864 268.075 27.4566 268.904 27.2669L270.392 26.9275L270.581 24.2417C270.681 23.1235 270.721 22.0652 270.721 21.0767L270.671 19.3994L270.621 17.3426L268.894 17.2927C267.965 17.2627 266.637 17.3526 264.919 17.5822C264.73 17.6122 264.3 17.6821 263.621 17.7719C262.952 17.8718 262.533 17.8718 262.373 17.7719L262.233 17.722C262.173 17.722 262.103 17.762 262.043 17.8418C261.983 17.9217 261.963 18.0215 261.993 18.1513L262.133 19.5391L262.143 19.5491ZM265.499 21.8555C265.878 21.7556 266.347 21.7157 266.887 21.7157C267.626 21.7157 268.235 21.7756 268.734 21.8854C269.223 21.9953 269.553 22.135 269.713 22.2948C270.062 22.6442 270.242 22.9538 270.242 23.2034C270.242 23.3332 270.192 23.4729 270.102 23.6327C269.783 24.082 269.143 24.4214 268.185 24.6411C267.705 24.7409 267.156 24.7809 266.557 24.7809C265.249 24.7809 264.46 24.6511 264.21 24.4015C263.961 24.1519 263.831 23.8124 263.831 23.3931C263.831 22.7241 264.39 22.2149 265.509 21.8555H265.499ZM278.44 12.1209C278.6 11.7714 278.84 11.1624 279.159 10.3037L279.639 9.2454C279.958 8.38676 280.218 7.85759 280.408 7.66789C280.787 7.24855 281.187 7.04887 281.606 7.04887C282.305 7.04887 282.664 7.39832 282.664 8.1072C282.664 8.55649 282.565 9.2454 282.375 10.164C282.155 11.382 281.756 12.7399 281.177 14.2375C280.727 15.3558 280.248 16.1245 279.739 16.5339C279.389 16.8534 279 17.0131 278.59 17.0131C278.181 17.0131 277.851 16.8933 277.632 16.6537C277.412 16.4141 277.292 16.0846 277.292 15.6752C277.292 15.1661 277.452 14.587 277.771 13.948L278.44 12.1308V12.1209ZM282.175 18.6905C282.365 18.5008 282.714 18.4009 283.234 18.4009C283.753 18.4009 284.382 18.8203 285.151 19.649C285.98 20.5076 286.399 21.2964 286.399 21.9953C286.399 22.2549 286.349 22.4745 286.259 22.6642C286.1 22.9837 285.81 23.2034 285.401 23.3332C285.241 23.3931 285.031 23.433 284.782 23.433C284.332 23.433 283.923 23.2433 283.533 22.8539L282.764 22.0352C282.445 21.6858 282.235 21.3962 282.145 21.1766C281.985 20.7572 281.906 20.2979 281.906 19.7888C281.906 19.2796 282.005 18.9101 282.195 18.6905H282.175ZM283.613 12.5602C283.613 12.2407 283.793 11.9511 284.142 11.7015C284.492 11.4419 285.001 11.2522 285.68 11.1224C286.769 10.9028 288.267 10.783 290.184 10.783C292.101 10.783 293.25 10.9128 293.729 11.1624C294.748 11.7415 295.377 12.4903 295.596 13.4188C295.726 13.8981 295.786 14.557 295.786 15.3857C295.786 16.2144 295.726 16.9832 295.596 17.7819C295.307 19.5391 294.857 21.6758 294.258 24.2018C293.429 27.2969 292.87 29.2139 292.581 29.9527C292.101 31.2606 291.562 32.2291 290.973 32.8481C290.384 33.4672 289.685 33.7867 288.886 33.7867C288.147 33.7867 287.238 33.4472 286.15 32.7782C285.83 32.5885 285.431 32.1393 284.951 31.4404C284.532 30.8313 284.332 30.372 284.332 30.0525C284.332 29.793 284.472 29.5234 284.762 29.2338C284.951 28.9743 285.181 28.8544 285.431 28.8544C285.65 28.8544 286.07 29.0741 286.679 29.5234C287.378 30.0326 287.817 30.2922 287.977 30.2922C288.426 30.2922 289.175 28.2654 290.234 24.2018C290.903 21.5859 291.382 19.5491 291.672 18.0914C291.961 16.6337 292.071 15.6253 292.011 15.0462L291.872 14.0878L288.137 13.948C285.58 13.8481 284.192 13.6484 283.963 13.329C283.743 12.9795 283.623 12.7199 283.623 12.5602H283.613Z" fill="#534741"/>
<path d="M302.067 33.7367C301.848 33.4771 301.728 33.2076 301.728 32.918C301.728 32.5686 301.838 32.2591 302.067 32.0095C302.287 31.66 302.407 31.3205 302.407 31.001C302.467 30.6216 302.427 29.5633 302.267 27.836C302.207 27.1971 302.167 26.4183 302.167 25.4898C302.167 24.4714 302.247 23.8623 302.407 23.6726C302.597 23.3831 302.916 23.1934 303.366 23.0935H303.655C304.005 23.0935 304.244 23.1934 304.374 23.3831C304.634 23.7026 304.903 24.5013 305.183 25.7793C305.473 27.0273 305.612 28.0357 305.612 28.7945C305.612 29.8828 305.672 30.4419 305.802 30.4719C305.832 30.5018 305.902 30.5218 305.992 30.5218L306.761 30.422L307.58 30.2323L307.48 25.4398C307.45 20.6774 307.779 18.0415 308.488 17.5323C308.748 17.3726 308.988 17.2927 309.207 17.2927C309.527 17.2927 309.817 17.4025 310.066 17.6322C310.416 17.9217 310.655 18.6905 310.785 19.9285C310.915 21.1067 310.975 21.9553 310.975 22.4645C310.975 22.784 311.015 22.9637 311.095 23.0137C311.175 23.0636 311.294 23.0536 311.454 22.9937C312.862 22.6143 313.821 22.4146 314.33 22.4146C314.839 22.4146 315.229 22.6243 315.479 23.0336C315.578 23.2233 315.618 23.403 315.618 23.5628C315.618 24.2317 314.929 24.8208 313.561 25.34C312.413 25.7593 311.744 26.0389 311.544 26.1986C311.354 26.3883 311.255 27.0173 311.255 28.0657V29.743L312.503 29.5533C313.172 29.4235 313.811 29.3636 314.42 29.3636C314.71 29.3636 315.009 29.3936 315.329 29.4635C315.908 29.5933 316.188 29.9727 316.188 30.6117C316.188 32.5286 312.673 33.6768 305.642 34.0662C304.684 34.1261 303.785 34.1661 302.956 34.1661C302.637 34.1361 302.337 33.9863 302.047 33.7367H302.067ZM304.704 5.27168C304.993 4.92223 305.982 4.53284 307.67 4.12349C307.989 4.06358 308.538 3.99369 309.297 3.93379C310.056 3.87388 310.835 3.83395 311.594 3.83395C312.772 3.83395 313.561 3.99369 313.941 4.31319C314.64 4.92223 314.999 6.07042 314.999 7.76774C314.999 8.75617 314.82 9.78455 314.47 10.8329C314.121 11.8513 313.751 12.5102 313.372 12.7998C313.022 13.0194 312.223 13.279 310.975 13.5686C309.856 13.7882 308.798 13.908 307.809 13.908C306.881 13.908 306.242 13.7982 305.892 13.5686C305.543 13.3789 305.193 12.9096 304.833 12.1808C304.454 11.3221 304.264 9.84446 304.264 7.76774C304.264 6.42985 304.404 5.59117 304.694 5.27168H304.704ZM307.49 10.5434C307.55 10.6033 307.709 10.6432 307.969 10.6432C308.389 10.6432 308.858 10.5833 309.407 10.4535C310.555 10.2638 311.185 10.0541 311.274 9.83447C311.404 9.70468 311.464 9.33526 311.464 8.73621V8.3568C311.464 7.9774 311.414 7.68786 311.324 7.49816C311.225 7.23857 310.526 7.11876 309.217 7.11876H307.25V8.69627C307.25 9.71466 307.33 10.3437 307.49 10.5633V10.5434ZM321.96 15.9548L322.009 14.6169C322.069 13.279 322.119 12.4603 322.149 12.1708C322.179 11.7215 322.339 11.382 322.629 11.1424C322.918 10.9028 323.238 10.783 323.587 10.783C323.777 10.783 323.967 10.8529 324.166 10.9727C324.706 11.3521 325.105 12.6301 325.365 14.8066C325.425 15.3458 325.465 16.5139 325.465 18.3011C325.465 20.5675 325.435 22.4745 325.365 24.0021C325.265 26.8776 325.225 28.8644 325.225 29.9427C325.225 30.5518 325.245 30.8713 325.275 30.9012C325.305 30.9611 325.485 31.001 325.804 31.001C326.154 31.001 326.463 30.9811 326.713 30.9511L333.084 30.7115C336.12 30.5518 337.887 30.4719 338.407 30.4719C339.016 30.4719 339.495 30.5218 339.845 30.6117C340.194 30.7115 340.464 30.9511 340.663 31.3305C340.763 31.5502 340.803 31.7599 340.803 31.9496C340.803 32.6484 340.244 33.2874 339.126 33.8665C338.586 34.1261 337.947 34.2859 337.208 34.3458C336.759 34.3757 334.702 34.3957 331.027 34.3957C327.032 34.3957 324.556 34.2958 323.597 34.1061C322.639 34.0063 321.999 33.6569 321.68 33.0478C321.52 32.7882 321.44 31.8996 321.44 30.3621L321.49 27.247C321.52 27.0573 321.54 26.7378 321.54 26.2885C321.73 22.3946 321.88 18.9401 321.97 15.9348L321.96 15.9548ZM322.828 6.09038C322.828 5.71098 323.108 5.39149 323.667 5.15187C324.226 4.91224 325.125 4.61272 326.373 4.26327C328.351 3.75407 330.877 3.41461 333.943 3.25486C335.441 3.22491 336.629 3.43458 337.488 3.87388C338.317 4.32317 338.736 4.8124 338.736 5.36153C338.736 5.58119 338.676 5.81082 338.546 6.03048C338.327 6.40988 337.927 6.66947 337.348 6.79926C336.869 6.89911 336.07 6.93904 334.951 6.93904C332.105 6.93904 330.158 7.01892 329.1 7.17867C327.502 7.43826 326.303 7.55807 325.505 7.55807C324.516 7.55807 323.827 7.39832 323.447 7.07882C323.028 6.69942 322.828 6.35996 322.828 6.07042V6.09038ZM328.051 16.8234C329.329 15.9947 331.426 15.5754 334.332 15.5754C334.971 15.5754 335.59 15.6253 336.2 15.7152C336.969 15.815 337.578 16.1345 338.017 16.6737C338.397 17.123 338.596 17.6521 338.596 18.2512C338.596 19.5292 338.327 20.8571 337.777 22.2249C337.328 23.2832 336.819 23.9522 336.24 24.2417C334.482 25.0704 332.485 25.4898 330.248 25.4898C329 25.4598 328.201 25.2302 327.851 24.8208C327.502 24.4714 327.322 24.1519 327.322 23.8623C327.322 23.6427 327.402 23.413 327.562 23.1934C327.721 22.9737 328.52 22.7141 329.958 22.4246C331.586 22.1051 332.744 21.9653 333.414 21.9953C334.372 21.9953 334.822 21.3862 334.752 20.1781L334.702 19.2696L331.496 19.2197C329.609 19.1597 328.49 19.0799 328.141 18.98C327.721 18.8502 327.522 18.4808 327.522 17.8818C327.522 17.4025 327.702 17.0531 328.051 16.8234Z" fill="#534741"/>
<path d="M347.464 26.3085C348.103 26.1487 348.452 26.0089 348.512 25.8791C348.642 25.6595 348.702 25.1902 348.702 24.4913C348.702 23.0536 349.112 22.3347 349.95 22.3347C350.4 22.3347 350.669 22.4446 350.759 22.6742C350.789 22.6742 350.869 22.8939 350.999 23.3431C351.029 23.5628 351.079 23.8723 351.139 24.2517C351.199 24.6311 351.279 24.9306 351.378 25.1403C351.478 25.35 351.618 25.4498 351.808 25.4498C353.406 25.4498 354.304 25.0804 354.494 24.3515C354.554 24.062 354.604 23.7725 354.634 23.4929C354.664 23.2133 354.714 22.9937 354.774 22.8739C354.834 22.7441 354.963 22.6043 355.153 22.4446C355.443 22.2549 355.762 22.155 356.112 22.155C356.431 22.155 356.701 22.2648 356.931 22.4945C357.15 22.7141 357.27 23.0236 357.27 23.403C357.27 23.8523 357.32 24.1519 357.41 24.3116C357.51 24.4714 357.67 24.5512 357.889 24.5512C358.079 24.5512 358.369 24.5313 358.758 24.4813C359.138 24.4314 359.507 24.4115 359.857 24.4115C360.146 24.4115 360.556 24.4314 361.075 24.4614C361.604 24.4913 362.013 24.5512 362.293 24.6311C362.583 24.711 362.882 24.8508 363.202 25.0405C363.941 25.4898 364.37 26.0489 364.5 26.7178C364.66 27.2969 364.77 28.7346 364.84 31.031C364.84 33.7168 364.73 35.2843 364.5 35.7236C364.21 36.2328 363.791 36.5223 363.252 36.5822H363.062C362.553 36.5822 362.133 36.3726 361.814 35.9632C361.594 35.6138 361.474 35.2643 361.474 34.9049C361.414 34.3258 361.374 33.2775 361.374 31.7399C361.374 29.6632 361.295 28.4351 361.135 28.0457C361.005 27.8261 360.605 27.7063 359.936 27.7063C358.468 27.7063 357.54 27.836 357.16 28.0857C356.941 28.1855 356.821 28.3852 356.821 28.7047C356.821 29.1839 356.921 29.4535 357.11 29.5234H357.16C357.35 29.5234 357.57 29.3636 357.829 29.0441C357.929 28.7546 358.199 28.5849 358.638 28.515H358.778C359.068 28.515 359.317 28.6248 359.547 28.8544C360.026 29.4335 360.266 30.3521 360.266 31.6301C360.266 32.299 360.106 32.8282 359.787 33.2076C359.627 33.3673 359.407 33.4472 359.118 33.4472C358.638 33.4472 358.259 33.3174 357.969 33.0678C357.779 32.8781 357.52 32.7782 357.2 32.7782C356.941 32.7782 356.741 32.8082 356.581 32.8781C355.872 33.0378 355.353 33.1177 355.003 33.1177C354.394 33.1177 353.945 32.958 353.665 32.6385C353.316 32.289 353.136 31.8098 353.136 31.2007C353.136 30.7514 353.196 30.3421 353.326 29.9527C353.386 29.7331 353.426 29.4535 353.426 29.134C353.426 28.9443 353.406 28.8145 353.376 28.7546C353.276 28.6548 353.156 28.6148 352.996 28.6148L352.427 28.7147L351.808 28.9044L351.668 31.9196C351.668 32.0793 351.648 32.5686 351.598 33.3773C351.548 34.196 351.468 34.7951 351.338 35.1745C351.308 35.7535 351.049 36.113 350.569 36.2727C350.44 36.3326 350.31 36.3726 350.19 36.3726C350.07 36.3726 349.87 36.3127 349.621 36.1829C349.201 35.9932 348.902 35.5938 348.712 34.9848C348.612 34.6952 348.522 33.6569 348.423 31.8697L348.283 28.9942L347.714 29.0441H347.614C347.424 29.0441 347.004 28.9443 346.365 28.7546C345.916 28.5349 345.696 28.2154 345.696 27.7961C345.696 27.1272 346.285 26.628 347.474 26.3085H347.464ZM347.943 11.3121C348.073 10.9327 348.393 10.7231 348.902 10.6931C349.441 10.6931 349.831 10.8529 350.05 11.1724C350.18 11.4619 350.31 12.3505 350.43 13.8581C350.46 14.1477 350.5 14.577 350.55 15.1561C350.599 15.7352 350.679 16.0946 350.789 16.2344C350.899 16.3741 351.079 16.454 351.338 16.454C351.558 16.454 352.237 16.3741 353.356 16.2144C353.835 16.1545 354.554 16.0846 355.513 16.0247C356.921 15.8649 357.61 15.7851 357.57 15.7851C358.369 15.6852 358.908 15.5854 359.197 15.4756C359.487 15.3657 359.687 15.1461 359.797 14.8266C359.906 14.5071 359.996 13.918 360.056 13.0494C360.156 11.9911 360.346 11.2323 360.655 10.773C360.965 10.3137 361.384 10.0741 361.924 10.0741C362.403 10.0741 362.723 10.2338 362.882 10.5533C363.042 10.8728 363.122 11.3521 363.122 11.9911C363.122 12.3405 363.092 12.9995 363.022 13.958C362.862 16.0946 362.603 17.3925 362.253 17.8418C362.033 18.1613 361.534 18.4209 360.765 18.6106C360.346 18.7704 359.437 18.9501 358.029 19.1398C356.781 19.3295 355.473 19.4792 354.095 19.5691C353.226 19.6689 352.237 19.7089 351.119 19.7089C350.16 19.649 349.631 19.5991 349.541 19.5691C349.221 19.5092 348.932 19.3494 348.682 19.0899C348.143 18.6106 347.803 18.0215 347.674 17.3127C347.574 16.9333 347.534 16.4141 347.534 15.7751C347.534 15.5155 347.564 14.9764 347.634 14.1477C347.664 12.5502 347.763 11.6117 347.923 11.3221L347.943 11.3121ZM348.662 6.56963C348.662 6.25013 348.772 6.01051 349.002 5.85076C349.191 5.63111 349.661 5.39149 350.39 5.1319C350.579 5.10194 350.949 5.02207 351.488 4.89228C352.027 4.76248 352.607 4.67262 353.216 4.60273C353.625 4.57278 353.935 4.50289 354.125 4.41303C354.314 4.32317 354.414 4.14346 354.414 3.88387C354.414 3.69417 354.364 3.45455 354.274 3.165C354.055 2.71571 353.905 2.18655 353.845 1.58749V1.24803C353.845 0.868628 353.905 0.549133 354.035 0.289543C354.224 0.0998423 354.434 0 354.654 0C354.943 0 355.243 0.109827 355.563 0.339464C355.882 0.559117 356.132 0.908565 356.301 1.36784C356.471 1.82712 356.661 2.42617 356.851 3.165C356.981 3.64425 357.13 3.94377 357.31 4.0536C357.49 4.16343 357.789 4.22333 358.219 4.22333H359.297C360.635 4.28324 361.474 4.433 361.794 4.65265C362.213 4.7525 362.413 5.16185 362.413 5.90068C362.413 6.53967 361.984 6.93904 361.125 7.09879C360.745 7.22859 359.946 7.31844 358.748 7.38833C357.55 7.44824 356.132 7.49816 354.504 7.52811C353.675 7.55807 352.647 7.57803 351.438 7.57803H349.761C349.151 7.41829 348.782 7.14871 348.662 6.75933V6.56963ZM351.638 13.279C351.638 12.9296 351.828 12.5901 352.217 12.2706C352.537 11.9811 352.697 11.7714 352.697 11.6516C352.697 11.4919 352.587 11.2822 352.357 11.0326C352.037 10.5234 351.878 10.0741 351.878 9.69469C351.878 9.4351 351.978 9.21545 352.167 9.02575C352.387 8.8061 352.667 8.68628 352.986 8.68628C353.366 8.68628 353.805 8.87599 354.274 9.26537C354.624 9.61482 354.854 9.79453 354.943 9.79453C355.073 9.79453 355.213 9.71466 355.373 9.55491C355.752 9.13558 356.172 8.93589 356.621 8.93589C356.811 8.93589 357.001 8.98581 357.2 9.07567C357.52 9.26537 357.68 9.58487 357.68 10.0342C357.68 10.2937 357.63 10.6132 357.54 10.9926C357.54 11.0226 357.51 11.1125 357.47 11.2522C357.42 11.392 357.43 11.5318 357.49 11.6616C357.55 11.7914 357.759 12.041 358.109 12.4304C358.558 12.9396 358.778 13.4088 358.778 13.8182C358.778 13.9779 358.718 14.1576 358.588 14.3473C358.399 14.537 358.109 14.6369 357.729 14.6369C357.31 14.6369 356.821 14.537 356.242 14.3473C355.822 14.1876 355.453 14.1077 355.143 14.1077C354.883 14.1077 354.634 14.1576 354.374 14.2475C353.895 14.4372 353.465 14.537 353.076 14.537C352.657 14.537 352.327 14.4073 352.067 14.1576C351.778 13.8681 351.638 13.5786 351.638 13.299V13.279ZM365.389 13.8981C366.058 13.1992 367.166 11.8713 368.694 9.92433C370.232 8.1072 371.061 7.1587 371.191 7.09879C371.54 6.90909 371.83 6.80925 372.049 6.80925C372.339 6.80925 372.589 6.91908 372.818 7.14871C373.008 7.36837 373.108 7.62796 373.108 7.9175C373.108 8.04729 373.078 8.23699 373.008 8.49658C372.689 9.16553 372.139 10.0441 371.38 11.1324L370.232 12.67L370.472 14.3473C370.691 16.0746 370.811 17.9916 370.811 20.0983C370.811 21.4761 370.761 23.0236 370.671 24.7509C370.572 26.9574 370.432 28.7246 370.242 30.0725C370.052 31.4104 369.823 32.2491 369.573 32.5686C369.473 32.7283 369.173 32.8082 368.664 32.8082C368.285 32.8082 367.965 32.7084 367.706 32.5187C367.356 32.1692 367.176 30.8713 367.176 28.6348C367.176 27.5765 367.196 26.7478 367.226 26.1387C367.416 22.9737 367.516 20.5276 367.516 18.8103C367.516 16.6038 367.326 15.825 366.937 16.464C366.457 17.2028 365.978 17.5623 365.499 17.5623C365.239 17.5623 364.959 17.4524 364.64 17.2228C364.38 17.093 364.26 16.7935 364.26 16.3142C364.26 16.1245 364.29 15.9348 364.36 15.7352C364.39 15.3857 364.74 14.7767 365.419 13.918L365.389 13.8981ZM377.801 32.4887C376.303 32.4288 375.105 32.329 374.206 32.1992C372.259 31.9795 371.281 31.5302 371.281 30.8613C371.281 29.8029 372.349 29.2438 374.486 29.1839C375.515 29.1839 376.084 29.104 376.214 28.9443C376.373 28.8445 376.453 28.495 376.453 27.886V27.5066C376.453 27.1272 376.403 26.8376 376.313 26.6479C376.214 26.4283 375.914 26.3085 375.405 26.3085C374.766 26.3085 374.256 26.2086 373.867 26.0189C373.388 25.8592 373.148 25.5596 373.148 25.1104C373.148 24.7309 373.318 24.4115 373.647 24.1519C373.987 23.8923 374.506 23.6926 375.205 23.5328L376.503 23.2433L376.693 22.145C376.723 21.9553 376.743 21.7157 376.743 21.4262C376.743 21.1666 376.713 21.0068 376.643 20.9469C376.583 20.8471 376.433 20.8071 376.214 20.8071H375.734C374.965 20.8071 374.456 20.6174 374.196 20.2281C373.977 19.8786 373.857 19.5691 373.857 19.3195C373.857 18.7803 374.256 18.391 375.055 18.1713C375.535 18.0116 375.944 17.8918 376.274 17.8119C376.613 17.732 376.823 17.6621 376.923 17.5922C377.142 17.4325 377.262 17.2727 377.262 17.113C377.362 16.9233 377.402 16.6537 377.402 16.2943C377.402 16.1345 377.302 16.0347 377.112 15.9848C376.923 15.9348 376.583 15.9149 376.104 15.9149C375.654 15.9149 375.305 15.8949 375.045 15.865C374.157 15.805 373.497 15.7052 373.078 15.5754C372.469 15.4456 372.169 15.0962 372.169 14.5171C372.169 13.5586 373.607 12.9196 376.483 12.6001C379.839 12.1808 381.756 11.9811 382.235 11.9811C382.685 11.9811 383.014 12.1109 383.244 12.3605C383.593 12.6201 383.773 12.9396 383.773 13.319C383.773 13.6984 383.613 14.0578 383.294 14.3773C383.104 14.6369 382.465 14.9164 381.376 15.2359C380.707 15.3657 380.248 15.5554 379.988 15.815C379.928 15.8749 379.888 16.0047 379.888 16.1944L379.988 16.8135C380.088 17.1629 380.418 17.4025 380.997 17.5323C382.055 17.8518 382.575 18.361 382.575 19.0699C382.575 19.649 382.065 20.1082 381.037 20.4577C380.657 20.6174 380.418 20.7472 380.318 20.8371C380.188 21.0268 380.108 21.3463 380.078 21.7956C380.018 22.1151 379.978 22.3248 379.978 22.4146C379.978 22.7042 380.078 22.8939 380.268 22.9937C380.428 23.0536 380.727 23.0935 381.177 23.1135C381.626 23.1335 382.006 23.1834 382.325 23.2832C383.024 23.5428 383.384 23.9422 383.384 24.4813C383.384 24.6411 383.364 24.7709 383.334 24.8607C383.234 25.2801 382.944 25.6096 382.445 25.8692C381.946 26.1287 381.426 26.2486 380.887 26.2486C380.468 26.2486 380.168 26.2985 379.978 26.3883C379.789 26.578 379.679 26.9974 379.639 27.6364C379.609 27.7961 379.589 27.9858 379.589 28.2154C379.589 28.5349 379.649 28.7546 379.779 28.8844C379.968 29.0142 380.847 29.104 382.415 29.1739C383.024 29.2039 383.553 29.2538 384.023 29.3137C384.482 29.3736 384.832 29.4535 385.051 29.5533C385.531 29.7131 385.82 30.0326 385.91 30.5118C385.94 30.5717 385.96 30.6915 385.96 30.8513C385.96 31.0709 385.91 31.3106 385.82 31.5702C385.63 31.9196 385.361 32.1892 385.001 32.3889C384.712 32.5187 383.214 32.5786 380.498 32.5786C380.178 32.5786 379.269 32.5486 377.761 32.4787L377.801 32.4887ZM377.182 5.99054C377.692 5.99054 378.271 6.25013 378.91 6.75933C379.869 7.45822 380.348 8.11718 380.348 8.72622C380.348 9.10562 380.138 9.46506 379.729 9.78455C379.509 9.97425 379.249 10.0741 378.96 10.0741C378.51 10.0741 378.051 9.86442 377.572 9.45507C377.092 9.03573 376.723 8.59643 376.473 8.11718C376.284 7.66789 376.184 7.29848 376.184 7.01892C376.184 6.76931 376.264 6.51971 376.423 6.30005C376.673 6.11035 376.933 6.01051 377.192 6.01051L377.182 5.99054Z" fill="#534741"/>
</g>
<defs>
<clipPath id="clip0_58_1099">
<rect width="386" height="38" fill="white"/>
</clipPath>
</defs>
</svg>
