<svg width="171" height="25" viewBox="0 0 171 25" fill="none" xmlns="http://www.w3.org/2000/svg">
<g clip-path="url(#clip0_116_1224)">
<path d="M2.13049 5.89938L2.55061 5.79922C2.74067 5.71909 2.94072 5.65899 3.16079 5.63896C4.03105 5.42862 4.95132 5.26837 5.9016 5.15819C6.85187 5.04802 7.65211 4.99793 8.32231 4.99793C8.73243 4.99793 9.06253 5.038 9.3126 5.12814C9.42263 5.14817 9.61269 5.24834 9.89277 5.41861C10.1528 5.65899 10.2429 5.89938 10.1829 6.15979C10.0728 6.42021 9.86276 6.64056 9.54267 6.83087C9.26258 6.92101 8.53237 7.03119 7.33202 7.18143C6.50177 7.24152 5.29142 7.38175 3.71095 7.6021C2.81069 7.79241 2.14049 7.89257 1.69036 7.89257C1.45029 7.89257 1.18021 7.78239 0.860113 7.57205C0.620042 7.36172 0.51001 7.18143 0.51001 7.03119L0.570027 6.77077C0.85011 6.43023 1.37026 6.13976 2.14049 5.90939L2.13049 5.89938ZM2.8407 11.3481C2.8407 11.1378 2.88071 10.9775 2.97073 10.8673C3.10077 10.5468 3.85099 10.2463 5.21139 9.96588C5.64152 9.90579 6.06164 9.86572 6.49177 9.86572C6.96191 9.86572 7.42204 9.89577 7.87217 9.96588C8.57238 10.1161 8.93249 10.4567 8.93249 10.9875C8.93249 11.1979 8.69242 11.3781 8.21228 11.5284C7.73213 11.6786 6.9319 11.8389 5.83157 12.0092C4.93131 12.1193 4.32113 12.1694 3.97103 12.1694C3.62092 12.1694 3.37085 12.1293 3.2008 12.0392C3.03075 11.929 2.91072 11.7588 2.8507 11.5284V11.3381L2.8407 11.3481ZM3.60092 18.3293C4.26111 17.9887 4.82128 17.7584 5.26141 17.6582C6.01163 17.3978 6.76185 17.2776 7.53207 17.2776C7.9622 17.2776 8.2823 17.3176 8.51236 17.4078C8.73243 17.4879 8.95249 17.6582 9.17256 17.8886C9.62269 18.3593 9.90277 18.9402 10.0028 19.6213C10.0828 20.052 10.1328 20.4727 10.1328 20.9034C10.1328 21.5244 10.0228 22.0252 9.79274 22.3958C9.57267 22.7664 9.23257 23.0468 8.78244 23.2171C8.37232 23.3874 7.46205 23.4775 6.03163 23.4775C4.69124 23.4775 3.95102 23.3974 3.82098 23.2572C3.16079 22.6562 2.83069 21.7547 2.83069 20.5328C2.83069 19.4611 3.09077 18.7399 3.60092 18.3493V18.3293ZM4.85129 13.6217C5.66152 13.4515 6.34172 13.3613 6.90189 13.3613C7.6321 13.3613 8.18227 13.4915 8.56238 13.7419C8.88247 13.9122 9.04252 14.0825 9.04252 14.2527C9.04252 14.3629 8.9825 14.5132 8.85246 14.7035C8.68241 14.8938 8.38232 15.034 7.9522 15.1241C7.52207 15.2143 6.91189 15.2543 6.13166 15.2543C4.98132 15.2543 4.27112 15.1041 4.02104 14.8036C3.72095 14.5733 3.66094 14.3529 3.83099 14.1626C3.96102 13.9523 4.30112 13.772 4.85129 13.6217ZM5.27141 0.100098C5.53149 0.100098 5.85158 0.32045 6.23169 0.771171C6.72184 1.24192 7.04193 1.913 7.19198 2.79441C7.21198 2.88455 7.22198 2.98471 7.22198 3.11492C7.22198 3.26516 7.19197 3.42542 7.12195 3.59569C7.03193 3.7259 6.96191 3.80603 6.90189 3.85611C6.84187 3.89617 6.75185 3.9162 6.64181 3.9162C6.47176 3.9162 6.14167 3.65579 5.65152 3.14497C5.18138 2.48391 4.87129 1.98311 4.72125 1.64257C4.61122 1.36212 4.5612 1.14176 4.5612 0.971492C4.5612 0.821252 4.60121 0.681027 4.69124 0.550819C4.8813 0.250338 5.07135 0.100098 5.27141 0.100098ZM5.40145 21.2339C5.51148 21.314 5.79156 21.3441 6.2717 21.3441H6.62181C7.07194 21.3441 7.34202 21.294 7.45205 21.1838C7.6021 21.0336 7.67212 20.8733 7.67212 20.7031C7.67212 20.5729 7.66211 20.4827 7.64211 20.4126C7.64211 20.3725 7.6221 20.2523 7.58209 20.062C7.54208 19.8717 7.47206 19.7215 7.39203 19.6113C7.22198 19.5011 7.05193 19.4511 6.88188 19.4511C6.82187 19.4511 6.6118 19.4711 6.2717 19.5112C5.5915 19.5713 5.2514 19.9218 5.2514 20.5328C5.2514 20.9134 5.30142 21.1438 5.41145 21.2239L5.40145 21.2339ZM19.8657 21.9851C19.3556 21.9851 18.7254 21.8449 17.9751 21.5644C17.1249 21.3541 16.5447 21.1037 16.2446 20.8233C16.0046 20.6129 15.8945 20.3425 15.8945 20.022C15.8945 19.7816 15.9145 19.6113 15.9445 19.5112C15.9746 19.401 16.0446 19.3309 16.1546 19.2908C16.3247 19.2307 16.5247 19.1906 16.7648 19.1906C17.0249 19.1906 17.345 19.2207 17.7251 19.2908L18.7854 19.3509C19.0455 19.3509 19.2055 19.3108 19.2655 19.2207C19.4156 19.0705 19.5556 18.2692 19.6856 16.8168L19.8757 14.3529L20.2558 11.5284C20.2558 11.7187 20.2958 11.2379 20.3859 10.0861C20.4459 9.40499 20.4859 8.90418 20.4859 8.58367C20.4859 8.32325 20.4559 8.15298 20.3859 8.07286C20.3258 8.01276 20.1258 7.96268 19.7957 7.94265C19.4656 7.92261 19.0655 7.9126 18.5953 7.9126C17.6551 7.9126 16.7348 7.96268 15.8445 8.07286C15.2043 8.163 14.8642 8.20306 14.8242 8.20306C14.6542 8.20306 14.5141 8.17302 14.4041 8.1029C14.174 8.1029 14.054 7.90258 14.054 7.49193C14.054 7.08127 14.3641 6.70066 14.9843 6.40018C15.9245 6.01957 17.355 5.75915 19.2755 5.62894C20.4459 5.4787 21.7963 5.42862 23.3067 5.46869C24.0769 5.46869 24.6771 5.51877 25.0972 5.62894C25.4373 5.68904 25.6674 5.77918 25.7674 5.88936C25.8975 6.01957 25.9575 6.23992 25.9575 6.56043C25.9575 6.97109 25.8275 7.26156 25.5574 7.44184C25.2873 7.62213 24.8372 7.71228 24.197 7.71228C23.3167 7.71228 22.7866 7.84249 22.5965 8.09289C22.4865 8.3533 22.4465 9.11452 22.4665 10.3966C22.4865 10.8273 22.4965 11.4182 22.4965 12.1894C22.4965 13.0709 22.4765 13.6818 22.4365 14.0524C22.2264 17.2375 22.0063 19.3409 21.7963 20.3625C21.6662 21.0236 21.3761 21.4743 20.936 21.7047C20.6359 21.8749 20.2858 21.9651 19.8757 21.9651L19.8657 21.9851Z" fill="#534741"/>
<path d="M31.199 6.60055C31.3891 3.84614 31.5791 2.33372 31.7792 2.08332C31.9092 1.84294 32.1093 1.70271 32.3894 1.6326L34.0899 1.15183C35.0502 0.871382 35.9004 0.731157 36.6506 0.731157C37.821 0.731157 38.6312 1.10175 39.0813 1.85295C39.2514 2.23356 39.3414 3.05488 39.3414 4.28685C39.3414 6.5104 39.1113 7.87258 38.6412 8.39342C38.1311 8.97435 36.9007 9.25479 34.9601 9.25479C33.9798 9.25479 33.4397 9.29486 33.3597 9.385C33.3196 9.51521 33.2596 11.1078 33.1996 14.1626C33.0896 18.9102 33.0096 21.5745 32.9395 22.1755C32.8995 22.7564 32.7695 23.2271 32.5694 23.5877C32.3694 23.9483 32.1293 24.1286 31.8492 24.1286C31.6091 24.1286 31.3891 24.0084 31.179 23.778C30.8789 23.4575 30.7289 22.2756 30.7289 20.2223C30.7289 19.5413 30.7489 18.5997 30.7889 17.3978L30.8189 15.4747C30.8789 12.3097 31.009 9.35496 31.199 6.60055ZM33.6297 4.26681L34.0499 4.23677C34.9501 4.12659 35.5103 4.06649 35.7504 4.04646L36.9007 3.9463V2.98476H35.8804C34.49 2.98476 33.6697 3.10496 33.4197 3.33532C33.3797 3.37539 33.3597 3.45552 33.3597 3.55568C33.3597 3.57571 33.3797 3.6959 33.4197 3.90624C33.5097 4.11657 33.5797 4.23677 33.6397 4.2568L33.6297 4.26681ZM33.4997 7.27162C33.4997 7.27162 34.0299 7.26161 35.0401 7.17146C36.0805 7.06129 36.6606 6.99117 36.7707 6.95111C36.8107 6.95111 36.8307 6.92106 36.8307 6.85095L36.7707 6.56048C36.7707 6.41024 36.6906 6.31008 36.5106 6.27002C36.4506 6.24999 36.2205 6.23997 35.8404 6.23997L35.1402 6.20992C34.1199 6.20992 33.5797 6.21994 33.5397 6.23997C33.4997 6.28004 33.4497 6.45031 33.4097 6.75079C33.4097 7.03124 33.4397 7.20151 33.5097 7.26161L33.4997 7.27162ZM37.6309 11.4383C38.2111 10.8173 38.6512 10.4167 38.9713 10.2163C39.2014 10.0661 39.4414 9.99598 39.6715 9.99598C39.8616 9.99598 40.0116 10.0461 40.1216 10.1562C40.2317 10.2664 40.2817 10.4066 40.2817 10.5769C40.2817 10.7071 40.2717 10.7973 40.2517 10.8674C40.1917 11.1679 40.0516 11.4483 39.8316 11.6987C39.7515 11.869 39.6115 12.0493 39.4314 12.2396C39.2514 12.4299 39.1314 12.5601 39.0613 12.6202C38.7012 12.9407 38.4311 13.151 38.2611 13.2612C37.961 13.4114 37.6809 13.4816 37.4309 13.4816C37.3208 13.4816 37.2408 13.4715 37.1708 13.4515C36.8907 13.3013 36.7507 13.0809 36.7507 12.7804C36.7507 12.48 37.0407 12.0292 37.6109 11.4383H37.6309ZM37.1808 21.4142C37.1808 21.1739 37.3208 20.9134 37.6009 20.613C38.1111 19.8417 38.4512 19.2708 38.6112 18.9002C38.7712 18.5296 38.7612 18.3293 38.5912 18.3093C38.4211 18.3093 38.2111 18.1991 37.951 17.9888C37.781 17.7985 37.6909 17.2676 37.6909 16.3862C37.6909 15.7251 37.7109 15.3245 37.7509 15.2043C37.7509 15.0741 37.851 14.8738 38.041 14.5933C38.6412 13.9122 39.5415 13.4215 40.7618 13.121C41.0019 13.0108 41.382 12.9607 41.9122 12.9607C42.8725 12.9607 43.5226 13.0409 43.8627 13.2211C44.1828 13.3313 44.4529 13.5717 44.663 13.9623C44.833 14.2628 44.9231 14.5633 44.9231 14.8638C44.9231 15.4647 44.743 16.1058 44.3829 16.7868C44.2128 17.2977 43.9728 17.6482 43.6827 17.8485C43.3826 17.9988 43.2326 18.2392 43.2326 18.5897C43.2326 18.9703 43.2726 19.2408 43.3626 19.391C43.4726 19.5012 43.6527 19.5513 43.9028 19.5513C44.2028 19.5513 44.4529 19.5012 44.673 19.391C44.803 19.2207 44.9831 18.9102 45.2131 18.4595C45.4032 18.0789 45.5432 17.8385 45.6333 17.7584C45.7233 17.6783 45.8833 17.6282 46.1134 17.6282C46.4135 17.6282 46.6236 17.7684 46.7536 18.0589C46.8836 18.3493 46.9437 18.8101 46.9437 19.4511C46.9236 19.8818 46.8636 20.2123 46.7836 20.4427C46.7636 20.5028 46.6936 20.603 46.5735 20.7131C46.4535 20.8333 46.3635 20.9335 46.3035 21.0136C45.6633 21.5945 44.8931 21.875 44.0028 21.875C43.1125 21.875 42.3823 21.5845 41.8221 21.0136C41.5421 20.6731 41.392 20.1923 41.372 19.5713C41.312 18.8902 41.182 18.5497 40.9919 18.5497C40.8219 18.5497 40.6818 18.76 40.5718 19.1907C40.5118 19.6013 40.3117 20.0821 39.9916 20.633C39.7115 21.1638 39.4014 21.5645 39.0613 21.8149C38.8313 22.0252 38.5312 22.1354 38.1611 22.1354C37.5009 22.1354 37.1708 21.895 37.1708 21.4343L37.1808 21.4142ZM39.3614 16.0256C39.3614 16.1759 39.4014 16.256 39.4915 16.286C39.5315 16.3261 39.6515 16.3461 39.8416 16.3461C40.0716 16.3461 40.4217 16.3161 40.8619 16.246C41.6321 16.1158 42.1322 15.9755 42.3623 15.8253C42.5123 15.6951 42.5824 15.5449 42.5824 15.3746C42.5824 15.0541 42.3623 14.8938 41.9122 14.8938C41.5521 14.8938 41.0519 14.994 40.4117 15.1843C39.7315 15.3546 39.3914 15.5549 39.3914 15.7953L39.3614 16.0156V16.0256ZM44.0928 9.99598C44.2429 9.99598 44.3929 10.036 44.5429 10.1262C44.883 10.2364 45.1931 10.5469 45.4732 11.0577C45.6233 11.3381 45.6933 11.5885 45.6933 11.8289C45.6933 11.9391 45.6733 12.0493 45.6333 12.1795C45.5032 12.3898 45.3132 12.5 45.0531 12.5C44.623 12.5 44.2229 12.2796 43.8327 11.8289C43.4526 11.3982 43.2526 11.0276 43.2526 10.7071C43.2526 10.4767 43.3326 10.2965 43.5126 10.1963C43.7727 10.0661 43.9628 10.006 44.0928 10.006V9.99598ZM44.1928 3.46553C44.1728 3.20512 44.1628 2.98476 44.1628 2.79446C44.1628 2.53404 44.2028 2.30367 44.2729 2.09334C44.3429 1.883 44.5029 1.65263 44.733 1.42226C45.0731 1.04165 45.5732 0.741173 46.2334 0.540853C46.8936 0.340532 47.7539 0.180276 48.7942 0.0801157C49.4344 0.0400516 49.8645 0.0200195 50.0746 0.0200195C50.8848 0.0200195 51.495 0.12018 51.8951 0.310484C52.5553 0.671061 52.9954 1.3822 53.2055 2.42387C53.3155 2.95472 53.3655 3.86617 53.3655 5.14822C53.3655 5.57891 53.3455 6.52042 53.3055 7.97274C53.1955 10.8974 53.0354 13.2913 52.8254 15.1542C52.6553 16.3962 52.5053 17.6582 52.3752 18.9403C52.3352 19.3509 52.2652 19.982 52.1652 20.8333C52.0652 21.6847 51.9751 22.2656 51.8951 22.5661C51.615 23.5877 51.2549 24.2989 50.8048 24.6795C50.5247 24.9199 50.2246 25.03 49.9045 25.03C49.1343 25.03 48.3641 24.5893 47.6038 23.7179C47.2237 23.2071 47.0237 22.7864 47.0237 22.4659C47.0237 22.2556 47.0837 22.0853 47.2137 21.9551C47.4038 21.7648 47.6038 21.6646 47.8239 21.6646C48.084 21.6646 48.3141 21.7648 48.5241 21.9551C48.7142 22.1254 48.9042 22.2155 49.1043 22.2155C49.2343 22.2155 49.3244 22.1454 49.3944 21.9952C49.4144 21.9351 49.4744 21.3942 49.5544 20.3926L49.7445 18.4695L50.0646 15.9655C50.1946 14.9639 50.3046 13.9924 50.4047 13.0609C50.5047 12.1294 50.5547 11.3682 50.5847 10.7672L50.6147 9.385L48.3741 9.25479C47.2237 9.1947 46.3535 9.11457 45.7833 9.01441C45.2131 8.91425 44.863 8.78404 44.763 8.61377C44.4029 8.25319 44.2229 6.84093 44.2229 4.38701C44.2229 4.04646 44.2128 3.74598 44.1928 3.48556V3.46553ZM46.4635 3.71593H50.7848L50.8848 3.20512C50.8848 2.84454 50.8448 2.60415 50.7548 2.50399C50.7148 2.42387 50.4747 2.36377 50.0546 2.32371C49.6244 2.29366 48.9242 2.27363 47.9439 2.27363C47.0237 2.27363 46.4935 2.32371 46.3435 2.43388C46.3235 2.45391 46.3135 2.53404 46.3135 2.65423C46.3135 2.84454 46.3235 3.0048 46.3435 3.135L46.4735 3.71593H46.4635ZM46.6536 7.15143C46.6536 7.15143 46.8036 7.18148 47.0337 7.18148L48.7942 7.12138L50.7748 7.02122L50.8748 6.5104C50.8748 6.16986 50.8148 5.98957 50.6847 5.96954C50.4047 5.90944 49.7045 5.85936 48.5741 5.83933L47.3238 5.80928C46.8936 5.80928 46.6636 5.82931 46.6236 5.86938C46.5635 5.92947 46.5235 6.14983 46.5235 6.5104C46.5635 6.92106 46.6036 7.1314 46.6536 7.15143Z" fill="#534741"/>
<path d="M58.4971 12.2395C58.4971 11.9591 58.6671 11.7387 59.0072 11.5684C59.2873 11.4583 59.7574 11.4082 60.4176 11.4082C61.758 11.4082 62.6183 11.7187 62.9784 12.3397C63.0384 12.4298 63.0784 12.52 63.0784 12.6301C63.0784 12.8405 62.9184 13.0508 62.5983 13.2411C62.3882 13.3913 61.8381 13.4915 60.9678 13.5316C60.1376 13.5316 59.5274 13.4514 59.1473 13.3112C58.7872 13.1409 58.5771 12.8505 58.5371 12.4498C58.5171 12.4098 58.5071 12.3397 58.5071 12.2595L58.4971 12.2395ZM59.6874 20.0019C60.0475 19.421 60.5577 18.8501 61.1879 18.2691C61.808 17.5881 62.2582 17.1874 62.5283 17.0873C62.7383 17.0071 62.8784 16.957 62.9484 16.957C63.1184 16.957 63.2685 17.0672 63.3985 17.2776C63.5286 17.4679 63.5886 17.6582 63.5886 17.8585C63.5886 18.0588 63.5286 18.2691 63.3985 18.4995C63.1885 18.8601 62.9084 19.2708 62.5683 19.7215C61.9681 20.4927 61.528 21.0336 61.2579 21.3541C60.8078 21.8649 60.4977 22.1453 60.3276 22.1854C60.2176 22.2756 60.0775 22.3156 59.9075 22.3156C59.7374 22.3156 59.5674 22.2655 59.3973 22.1554C59.1373 21.925 59.0172 21.6245 59.0172 21.2539C59.0172 20.9334 59.2373 20.5127 59.6874 20.0019ZM60.1676 4.29679C60.2776 4.20665 60.4376 4.16658 60.6477 4.16658C61.0478 4.16658 61.588 4.33686 62.2482 4.6774C63.6186 5.37852 64.2988 5.99952 64.2988 6.54038C64.2988 6.82083 64.1487 7.04118 63.8486 7.21146C63.6986 7.3016 63.5185 7.34167 63.3085 7.34167C62.8984 7.34167 62.3682 7.17139 61.708 6.83085C60.4676 6.18982 59.8475 5.56883 59.8475 4.96787C59.8475 4.58726 59.9575 4.35689 60.1676 4.29679ZM66.7895 21.3441C67.1996 19.9719 67.4797 18.83 67.6498 17.9186C67.9098 16.3561 68.1799 15.4446 68.48 15.1642C68.7101 14.9739 68.9201 14.8737 69.0902 14.8737C69.2802 14.8737 69.5003 14.9939 69.7304 15.2243C69.9604 15.4647 70.0805 16.0055 70.0805 16.8569C70.0805 18.5195 69.7904 20.2724 69.2202 22.1153C68.9601 23.0969 68.6 23.798 68.1299 24.2287C67.8498 24.4891 67.5497 24.6093 67.2296 24.6093C67.0396 24.6093 66.8695 24.5692 66.7195 24.4791C66.5694 24.3889 66.4594 24.2788 66.3994 24.1285C66.3394 23.9783 66.2994 23.778 66.2994 23.5175C66.2994 23.197 66.4594 22.4759 66.7795 21.3341L66.7895 21.3441ZM76.9425 13.5216C76.7324 13.5216 76.5424 13.4414 76.3623 13.2611C76.0822 13.0208 75.8822 12.6401 75.7521 12.1093C75.6421 11.6986 75.5021 11.4883 75.332 11.4683C75.222 11.4482 74.5018 11.4883 73.1514 11.5985C72.5112 11.6385 72.0811 11.6586 71.871 11.6586C70.6706 11.6586 69.9404 11.4583 69.6604 11.0476C69.4703 10.7671 69.3703 10.4967 69.3703 10.2163C69.3703 10.026 69.5503 9.3649 69.9104 8.23309C70.2505 7.25152 70.4206 6.69062 70.4206 6.57043C70.4206 6.42019 70.0605 6.35008 69.3303 6.35008C68.8401 6.35008 68.5 6.28998 68.31 6.15977C68.1199 6.0496 68.0199 5.83926 68.0199 5.51875C68.0199 5.32844 68.0999 5.15817 68.2399 5.00793C68.41 4.83766 68.62 4.70745 68.8801 4.62732C69.2202 4.47708 69.6504 4.35689 70.1605 4.27676L71.5409 3.9863L72.3712 2.38373C72.6312 1.91298 72.8513 1.51234 73.0413 1.18181C73.2314 0.851281 73.3614 0.660976 73.4215 0.620912C73.5915 0.560816 73.7516 0.520752 73.9016 0.520752C74.2617 0.520752 74.5118 0.620912 74.6418 0.811217C74.7018 0.891345 74.7418 1.02155 74.7418 1.19183C74.7418 1.302 74.7018 1.58245 74.6118 2.0532C74.5718 2.26354 74.5218 2.49391 74.4818 2.74431C74.4418 2.99471 74.3917 3.15497 74.3517 3.24511C74.3317 3.28517 74.3317 3.31522 74.3517 3.32524C74.3717 3.33525 74.3917 3.35529 74.4118 3.37532L74.7318 3.43542L75.372 3.49551C75.262 3.47548 75.6321 3.49551 76.4624 3.55561C77.8728 3.63574 78.693 3.74591 78.9231 3.87612C79.2032 4.02636 79.3632 4.22668 79.4032 4.4871V4.6774C79.4032 4.90777 79.3432 5.09808 79.2132 5.21827C78.9831 5.47868 78.643 5.65897 78.2229 5.75913C77.6927 5.86931 76.8525 5.94944 75.7221 6.01955C74.1617 6.07965 73.3114 6.19984 73.1614 6.37011C73.1214 6.41017 73.0814 6.48029 73.0514 6.56042C73.0213 6.65056 72.9813 6.7407 72.9413 6.85088C72.9013 6.93101 72.7913 7.21146 72.6212 7.68221L72.4012 8.51354C72.3411 8.75392 72.3311 8.88413 72.3712 8.93421C72.4512 9.01434 72.9313 9.06442 73.8116 9.06442C74.4518 9.06442 74.8519 9.04439 75.0319 9.00432C75.222 8.96426 75.4321 8.79399 75.6721 8.49351C75.9722 8.173 76.2423 8.01274 76.4724 8.01274C76.7524 8.01274 77.0525 8.31322 77.3726 8.91418C77.5227 9.21466 77.6527 9.85569 77.7527 10.8373C77.8128 11.2179 77.8528 11.5484 77.8528 11.8288C77.8528 12.1293 77.8127 12.4298 77.7227 12.7303C77.6327 13.1409 77.4527 13.3913 77.1826 13.5015C77.1226 13.5216 77.0325 13.5316 76.9225 13.5316L76.9425 13.5216ZM73.2214 16.6666C73.3914 16.4963 73.6115 16.4362 73.8916 16.4763C74.5718 16.5163 74.9119 17.4579 74.9119 19.3008C74.9119 19.7315 74.9019 20.062 74.8819 20.2924C74.8819 20.6129 74.8719 20.8733 74.8519 21.0636C74.8319 21.2539 74.8219 21.4042 74.8219 21.5143C74.8219 21.5544 74.7819 21.7347 74.6918 22.0552C74.5618 22.2956 74.4718 22.4358 74.4017 22.5059C74.1217 22.7163 73.9016 22.8264 73.7316 22.8264C73.5215 22.8264 73.3214 22.7563 73.1514 22.6161C72.9813 22.4759 72.8713 22.2956 72.8313 22.0552C72.7012 21.6946 72.6412 21.1337 72.6412 20.3925C72.6412 18.2591 72.8313 17.0171 73.2214 16.6766V16.6666ZM77.9028 15.4847C78.0728 15.3144 78.2829 15.2243 78.543 15.2243C78.8831 15.2243 79.1231 15.4046 79.2432 15.7651C79.3232 16.0456 79.4332 16.7167 79.5633 17.7884C79.6233 19.0704 79.7233 19.7916 79.8534 19.9719C80.0034 20.1021 80.4235 20.2423 81.1037 20.3925C81.7239 20.5027 82.164 20.683 82.4141 20.9334C82.7142 21.274 82.8642 21.5644 82.8642 21.7948C82.8642 22.1754 82.5441 22.4859 81.904 22.7263C81.4338 22.9166 80.9637 23.0167 80.4935 23.0167C79.8133 23.0167 79.1331 22.8164 78.4729 22.4058L77.9628 21.925C77.4126 21.304 77.1326 20.3224 77.1326 18.9803C77.1326 17.2275 77.3926 16.0656 77.9028 15.4847Z" fill="#534741"/>
<path d="M86.9054 17.2477C87.1754 16.9472 87.4355 16.6567 87.6856 16.3863C87.9357 16.1159 88.1257 15.9055 88.2257 15.7753L89.7662 14.1127C90.2363 13.5818 90.6465 13.3114 90.9866 13.3114C91.2867 13.3114 91.4967 13.5518 91.6268 14.0125C91.7168 14.313 91.5867 14.7537 91.2466 15.3246C90.8365 16.0057 90.3764 16.6267 89.8662 17.1876C88.8659 18.2593 88.0657 18.7902 87.4655 18.7902C87.2355 18.7902 87.0054 18.68 86.7953 18.4696C86.6053 18.2793 86.5052 18.049 86.5052 17.7986C86.5052 17.7385 86.6353 17.5482 86.9054 17.2577V17.2477ZM91.7868 8.94441C92.497 8.77413 92.9471 8.60386 93.1672 8.43359C93.3172 8.30338 93.4273 7.90274 93.4873 7.21163C93.5973 6.05979 93.8074 5.38872 94.1275 5.1884C94.2975 5.10827 94.4576 5.05819 94.6076 5.05819C94.9477 5.05819 95.1678 5.15835 95.2778 5.35867C95.3879 5.55899 95.4579 5.98968 95.4979 6.66075C95.5579 7.45202 95.6279 7.90274 95.688 8.0029C95.798 8.13311 96.1781 8.1932 96.8383 8.1932C97.4985 8.1932 97.9286 8.27333 98.1187 8.41356C98.3487 8.58383 98.4688 8.86428 98.4688 9.24489C98.4688 9.5654 98.3387 9.83583 98.0686 10.0662C97.7986 10.2866 97.4085 10.4368 96.8983 10.4969C96.3882 10.557 96.048 10.7072 95.868 10.9476C95.6979 11.188 95.6479 11.5987 95.708 12.1996C95.728 12.3298 95.738 12.6503 95.738 13.1612C95.738 13.9524 95.708 15.1343 95.6379 16.7168C95.5479 19.1107 95.4279 20.4528 95.2578 20.7533C94.9977 21.204 94.6476 21.4244 94.1975 21.4244C93.8374 21.4244 93.5173 21.2641 93.2372 20.9436C93.0672 20.7333 92.9771 20.4428 92.9771 20.0822C92.9771 19.5313 93.0172 18.4797 93.1072 16.9372C93.2372 14.7337 93.2772 13.1712 93.2372 12.2297L93.1772 11.1079H91.8668C91.3167 11.1079 90.9265 11.0878 90.7165 11.0478C90.4864 11.0077 90.2964 10.8875 90.1563 10.7072C90.0163 10.5269 89.9463 10.3366 89.9463 10.1463C89.9463 9.61548 90.5564 9.20482 91.7668 8.92437L91.7868 8.94441ZM91.2766 3.84625C91.5067 3.52574 92.0669 3.03495 92.9371 2.37389C93.7474 1.77293 94.4076 1.41235 94.9177 1.28215C95.1778 1.24208 95.3579 1.22205 95.4579 1.22205C95.718 1.22205 95.948 1.30218 96.1681 1.4424C96.4882 1.65274 96.6482 1.89312 96.6482 2.14352C96.6482 2.35386 96.5382 2.55418 96.3281 2.72445C96.1781 2.85466 95.3478 3.36548 93.8274 4.26692C92.8471 4.86788 92.2269 5.21844 91.9669 5.32862C91.8168 5.38872 91.6668 5.42878 91.5167 5.42878C91.3267 5.42878 91.1766 5.36868 91.0666 5.24849C90.9566 5.1283 90.9065 4.97806 90.9065 4.78775C90.9065 4.50731 91.0266 4.19681 91.2566 3.85626L91.2766 3.84625ZM97.3884 13.5918C97.5185 13.4616 97.7285 13.4015 98.0286 13.4015C98.1787 13.4015 98.3587 13.4817 98.5688 13.662C98.8289 13.8723 99.0189 14.1027 99.139 14.333C99.269 14.5734 99.409 14.8839 99.5591 15.2946C99.6491 15.595 99.6891 15.7753 99.6891 15.8354C99.6891 16.0458 99.6091 16.216 99.4491 16.3462C99.289 16.4765 99.0789 16.5366 98.8289 16.5366C98.2687 16.5366 97.7986 16.166 97.4185 15.4148C97.2884 15.1543 97.2284 14.8238 97.2284 14.4232C97.2284 13.9725 97.2784 13.702 97.3884 13.5918ZM101.11 22.1756C100.579 22.1155 100.179 21.9152 99.9292 21.5946C99.8392 21.4644 99.7992 21.3342 99.7992 21.214C99.7992 21.1539 99.8192 21.0538 99.8592 20.9236C99.9692 20.583 100.119 20.3727 100.309 20.2825C100.419 20.2225 100.689 20.1423 101.13 20.0622C101.57 19.9821 102.09 19.8819 102.68 19.7717C103.81 19.6215 104.521 19.4913 104.821 19.3911C104.861 19.3711 104.911 18.9304 104.951 18.079L104.981 16.827L104.18 16.8571C103.65 16.8771 103.25 16.7769 103 16.5366C102.76 16.3062 102.65 16.0658 102.65 15.8354C102.65 15.7753 102.69 15.6151 102.78 15.3547C102.93 15.0341 103.43 14.7737 104.28 14.5834C104.661 14.5033 104.961 14.3931 105.161 14.2629C105.361 14.1327 105.461 13.9524 105.461 13.722C105.461 13.1011 105.611 12.6904 105.911 12.47C106.101 12.3198 106.291 12.2497 106.491 12.2497C106.791 12.2497 107.011 12.3398 107.161 12.5101C107.311 12.6804 107.431 12.9408 107.511 13.2813C107.551 13.5418 107.611 13.692 107.671 13.7321C107.802 13.8222 108.012 13.8923 108.312 13.9524C108.762 14.0325 109.102 14.1728 109.352 14.3731C109.592 14.5634 109.722 14.8038 109.722 15.0742C109.722 15.3346 109.622 15.545 109.432 15.7152C109.242 15.8855 108.942 16.0358 108.532 16.166C108.122 16.3162 107.862 16.4464 107.731 16.5466C107.651 16.6768 107.581 17.1676 107.541 18.0189L107.511 19.2709L110.522 19.2409C111.993 19.2409 112.833 19.2509 113.053 19.2709C113.413 19.311 113.643 19.4011 113.723 19.5313C113.893 19.8318 113.983 20.0622 113.983 20.2325C113.983 20.6431 113.843 20.9837 113.563 21.2541C113.283 21.5245 112.683 21.7349 111.743 21.8651C110.672 21.9753 108.802 22.0554 106.111 22.1255C103.25 22.1856 101.59 22.2056 101.12 22.1856L101.11 22.1756ZM102.38 5.1884C102.38 4.50731 102.45 3.85626 102.6 3.23527C102.73 2.70442 102.86 2.30378 102.98 2.03335C103.11 1.76291 103.26 1.60266 103.43 1.53255L104.871 1.05178C105.681 0.771328 106.431 0.631104 107.111 0.631104C108.052 0.631104 108.742 0.931584 109.192 1.53255C109.472 1.89312 109.622 2.52413 109.642 3.42557C109.642 4.34705 109.502 5.08823 109.222 5.66916C109.052 6.09985 108.832 6.45041 108.552 6.73086C108.382 6.90114 108.102 7.02133 107.701 7.08142C107.311 7.14152 106.781 7.1916 106.121 7.21163L105.481 7.24168C104.481 7.28174 103.84 7.33183 103.56 7.37189C103.5 7.39192 103.41 7.40194 103.3 7.40194C103.07 7.40194 102.88 7.34184 102.76 7.21163C102.61 7.06139 102.5 6.71083 102.44 6.14993C102.4 5.71924 102.38 5.39873 102.38 5.1884ZM103.43 10.6571C103.89 10.3066 104.601 9.99609 105.561 9.74569C106.411 9.53535 107.091 9.42517 107.581 9.42517C107.902 9.42517 108.132 9.47525 108.292 9.58543C108.422 9.71564 108.482 9.94601 108.482 10.2866C108.482 10.6972 108.262 11.0378 107.812 11.3082C107.231 11.6487 106.651 11.8591 106.051 11.9492C105.521 12.0394 104.901 12.2497 104.19 12.5902C103.78 12.7805 103.48 12.8807 103.26 12.8807C103.11 12.8807 102.99 12.8006 102.89 12.6203C102.79 12.45 102.75 12.2096 102.75 11.9192C102.75 11.4284 102.98 11.0077 103.44 10.6571H103.43ZM104.661 4.96804L105.691 4.99809C106.391 5.03815 106.831 4.97806 107.001 4.80779C107.131 4.67758 107.221 4.35707 107.291 3.84625L107.321 3.42557C107.321 3.14513 107.281 2.96484 107.191 2.88471C107.081 2.7545 106.931 2.6944 106.741 2.6944C106.661 2.6944 106.421 2.73447 106.041 2.82461C105.611 2.91476 105.321 2.98487 105.141 3.04497C104.861 3.12509 104.701 3.19521 104.661 3.23527C104.581 3.32541 104.531 3.49569 104.531 3.74609C104.531 3.91636 104.531 4.05658 104.561 4.16676L104.661 4.96804Z" fill="#534741"/>
<path d="M117.815 5.54876C118.305 5.37849 119.555 5.14812 121.556 4.84764C122.536 4.6974 123.256 4.62729 123.696 4.62729H123.856C124.156 4.62729 124.437 4.68738 124.687 4.81759C125.007 5.02793 125.177 5.20821 125.197 5.35846C125.217 5.41855 125.227 5.51871 125.227 5.64892C125.227 6.13971 124.837 6.5103 124.046 6.77072C123.106 7.11126 121.676 7.28153 119.755 7.28153C118.235 7.28153 117.384 7.24147 117.194 7.15132C117.004 7.02112 116.904 6.80076 116.904 6.48025C116.904 6.06959 117.204 5.76911 117.805 5.54876H117.815ZM118.455 18.169C118.495 18.1089 118.635 18.0187 118.855 17.8985C119.075 17.7783 119.335 17.6481 119.635 17.4979C120.215 17.2174 120.805 16.9971 121.426 16.8268C121.856 16.7166 122.196 16.6665 122.446 16.6665C122.726 16.6665 122.996 16.7166 123.276 16.8268C123.746 17.0171 124.106 17.3677 124.366 17.8885C124.537 18.2992 124.627 18.8601 124.627 19.5912C124.627 21.0836 124.186 22.1353 123.316 22.7363C123.056 22.9766 122.796 23.1069 122.516 23.1569C122.406 23.177 121.906 23.167 121.016 23.1269C119.945 23.0167 119.265 22.8965 118.965 22.7463C118.555 22.4859 118.285 22.1253 118.135 21.6545C118.075 21.3941 118.035 21.0536 118.035 20.6329C118.035 20.2924 118.035 20.0119 118.065 19.8016C118.125 18.9502 118.255 18.4093 118.445 18.199L118.455 18.169ZM119.035 13.5215C119.225 13.3713 119.535 13.2411 119.965 13.1409C120.605 12.8605 121.076 12.7102 121.376 12.6902C121.756 12.6501 122.016 12.6301 122.146 12.6301C122.576 12.6301 122.906 12.7102 123.136 12.8504C123.326 12.9807 123.416 13.171 123.396 13.4314C123.376 13.6918 123.116 13.9622 122.626 14.2527C122.136 14.5432 121.486 14.7535 120.675 14.8737C120.545 14.8937 120.385 14.9037 120.195 14.9037C119.745 14.9037 119.405 14.8036 119.155 14.6133C118.905 14.423 118.795 14.1826 118.815 13.9121C118.855 13.7419 118.935 13.6117 119.035 13.5315V13.5215ZM119.115 9.8857C119.185 9.72544 119.275 9.61527 119.385 9.54515L120.245 9.25469C120.885 9.12448 121.346 9.06439 121.626 9.06439C122.156 9.06439 122.566 9.14451 122.836 9.28474C123.096 9.47504 123.176 9.69539 123.096 9.92576C123.056 10.1862 122.796 10.4266 122.326 10.6669C121.856 10.9073 121.236 11.0175 120.465 11.0175C119.695 11.0175 119.185 10.8873 118.995 10.6369C118.955 10.5768 118.925 10.5067 118.915 10.4266C118.915 10.3464 118.915 10.3064 118.965 10.2863C118.985 10.1762 119.035 10.046 119.105 9.8857H119.115ZM120.215 19.9718C120.215 20.3825 120.245 20.6429 120.315 20.7731C120.335 20.9234 120.675 20.9935 121.336 20.9935C121.936 20.9935 122.246 20.9534 122.266 20.8633C122.306 20.8032 122.326 20.673 122.326 20.4827C122.326 20.2222 122.326 20.0019 122.296 19.8116C122.276 19.3208 122.176 19.0403 122.006 18.9803C121.966 18.9402 121.886 18.9202 121.786 18.9202C121.656 18.9202 121.376 18.9702 120.955 19.0804L120.185 19.2407L120.215 19.9819V19.9718ZM121.496 0.580811C121.606 0.580811 121.786 0.670955 122.036 0.841227C122.266 1.0115 122.546 1.35204 122.866 1.86286C123.146 2.46382 123.286 2.87448 123.286 3.11487C123.286 3.58562 123.026 3.81599 122.516 3.81599C121.956 3.81599 121.466 3.39531 121.046 2.56398C120.815 2.09323 120.695 1.72264 120.695 1.44219C120.695 1.14171 120.805 0.931372 121.016 0.801163C121.226 0.650923 121.386 0.580811 121.496 0.580811ZM129.948 4.29676C130.698 3.48546 131.269 2.7643 131.679 2.15333C132.039 1.60245 132.349 1.322 132.609 1.322C133.139 1.322 133.409 1.5724 133.409 2.06318C133.409 2.29355 133.319 2.65413 133.149 3.12488C132.829 4.06639 132.239 4.95781 131.389 5.81919C130.668 6.55036 130.068 6.91094 129.598 6.91094C129.448 6.91094 129.288 6.86086 129.118 6.75068C128.858 6.58041 128.738 6.38009 128.738 6.13971C128.738 5.79916 129.148 5.18818 129.958 4.31679L129.948 4.29676ZM129.878 22.0552C129.878 21.6045 130.208 20.8332 130.868 19.7515L131.479 18.7599C131.949 18.0287 132.249 17.5279 132.379 17.2575C132.609 16.7066 132.859 16.316 133.119 16.1057C133.329 15.9955 133.499 15.9454 133.629 15.9454C133.799 15.9454 133.939 15.9955 134.059 16.1057C134.179 16.2158 134.249 16.346 134.269 16.4863C134.309 16.6565 134.329 16.7968 134.329 16.9069C134.329 17.548 133.999 18.5496 133.339 19.9218C132.359 21.8048 131.469 22.7463 130.688 22.7463C130.498 22.7463 130.328 22.7062 130.178 22.6161C129.988 22.5059 129.888 22.3256 129.888 22.0752L129.878 22.0552ZM132.349 13.7519C132.049 13.6217 131.789 13.3813 131.579 13.0107C131.389 12.7102 131.289 12.1493 131.289 11.308C131.289 10.3865 131.349 9.73546 131.479 9.35485C131.539 8.99427 131.699 8.73386 131.959 8.58362C132.239 8.35325 132.629 8.14291 133.139 7.97264C133.909 7.67216 134.559 7.47184 135.09 7.36166C135.54 7.30156 136.07 7.2615 136.69 7.2615C137.99 7.2615 138.811 7.36166 139.151 7.55197C139.491 7.68217 139.761 7.96262 139.951 8.3833C140.081 8.59363 140.141 8.91414 140.141 9.34483C140.141 9.60525 140.141 9.80557 140.111 9.95581C139.831 11.4482 139.401 12.4999 138.831 13.1008C138.641 13.3312 138.291 13.5516 137.78 13.7419C137.54 13.802 137.08 13.842 136.39 13.852C135.7 13.8621 134.9 13.8721 134.009 13.8721C133.069 13.8721 132.519 13.832 132.349 13.7419V13.7519ZM133.339 10.7972C133.429 11.3781 133.499 11.7086 133.559 11.7887C133.649 11.8488 134.72 11.7487 136.79 11.4682C137.15 11.4081 137.37 11.348 137.43 11.308C137.45 11.2879 137.48 11.1978 137.53 11.0375C137.58 10.8773 137.6 10.7471 137.63 10.6369C137.65 10.5067 137.66 10.3364 137.66 10.1261C137.66 9.95581 137.64 9.85565 137.6 9.83562C137.47 9.70541 137.03 9.64532 136.29 9.64532C134.92 9.64532 134.009 9.72544 133.539 9.86567C133.429 9.8857 133.359 9.96583 133.319 10.086L133.349 10.7871L133.339 10.7972ZM136.41 16.1257C136.58 15.9754 136.77 15.9053 136.99 15.9053C137.14 15.9053 137.29 15.9354 137.44 16.0055C137.93 16.306 138.171 16.9971 138.171 18.0888C138.171 19.3508 138.361 20.072 138.751 20.2723C138.941 20.4426 139.271 20.5327 139.741 20.5327C140.211 20.5327 140.531 20.4526 140.771 20.2723C141.071 20.102 141.261 19.9618 141.341 19.8516C141.472 19.6613 141.612 19.3709 141.762 18.9903C141.952 18.5596 142.202 18.3492 142.502 18.3492C142.862 18.3492 143.152 18.5095 143.352 18.83C143.552 19.1505 143.652 19.6012 143.652 20.1722C143.652 21.0235 143.312 21.7146 142.632 22.2254C141.902 22.8865 140.991 23.217 139.881 23.217C139.071 23.217 138.351 23.0468 137.74 22.7062C136.48 22.1053 135.85 20.8833 135.85 19.0203C135.85 18.7899 135.87 18.4294 135.91 17.9586C136.04 16.8869 136.21 16.2859 136.42 16.1357L136.41 16.1257ZM138.071 2.50389C138.261 2.31358 138.451 2.21342 138.651 2.21342C138.761 2.21342 138.921 2.2635 139.131 2.37368C139.561 2.6341 140.171 3.25509 140.951 4.23666C141.482 4.81759 141.792 5.28834 141.882 5.64892C141.902 5.68898 141.912 5.7591 141.912 5.83922C141.912 6.07961 141.782 6.27993 141.532 6.4502C141.341 6.58041 141.121 6.64051 140.891 6.64051C140.421 6.64051 139.911 6.35004 139.351 5.77913C139.031 5.49868 138.671 5.03794 138.261 4.39692C137.94 3.81599 137.78 3.41535 137.78 3.17496C137.78 2.91454 137.88 2.69419 138.071 2.50389Z" fill="#534741"/>
<path d="M154.685 9.32491C154.685 8.47355 154.505 8.01281 154.145 7.9427C153.885 7.90264 153.305 7.9427 152.385 8.07291C151.985 8.16306 151.585 8.20312 151.204 8.20312L151.104 8.23317C151.044 8.23317 150.904 8.17307 150.684 8.04286C150.404 7.87259 150.314 7.61217 150.394 7.27163C150.414 6.95112 150.674 6.68068 151.164 6.47035C151.655 6.23998 152.055 6.05969 152.375 5.95953C152.695 5.84935 153.015 5.78926 153.335 5.76923L153.595 5.73918L154.265 5.79927C155.246 5.8794 155.966 6.47035 156.406 7.56209C156.666 8.16306 156.786 8.90424 156.786 9.80568C156.786 10.4267 156.726 11.0877 156.596 11.7889C156.466 12.5801 156.306 13.2712 156.116 13.8722C155.926 14.4732 155.806 14.8437 155.766 14.994C155.536 15.9756 154.725 16.5264 153.365 16.6266H151.384C150.574 16.6266 150.094 16.6667 149.944 16.7568C149.814 16.887 149.644 16.9471 149.434 16.9471C149.264 16.9471 149.104 16.887 148.974 16.7668C148.844 16.6466 148.744 16.4964 148.704 16.3061C148.554 15.9455 148.474 15.615 148.444 15.3145L148.344 14.0024C148.284 12.9808 148.234 12.1594 148.214 11.5385L148.153 10.3866L148.093 8.11298C148.073 7.98277 148.063 7.80248 148.063 7.57211C148.063 7.2516 148.103 6.90104 148.194 6.51041C148.254 6.20993 148.384 5.97956 148.574 5.80929C148.704 5.63902 148.874 5.54887 149.084 5.54887C149.294 5.54887 149.514 5.65905 149.724 5.86939C149.784 5.99959 149.834 6.27003 149.864 6.67067C149.894 7.08132 149.924 7.59214 149.944 8.21314C149.944 8.47355 149.964 9.13461 150.004 10.1963C150.024 10.3666 150.034 10.6671 150.034 11.0978C150.074 12.2095 150.154 13.0709 150.274 13.6919C150.394 14.3129 150.644 14.6234 151.024 14.6234C152.885 14.6234 153.865 14.5933 153.965 14.5232C154.055 14.393 154.125 14.0425 154.185 13.4615C154.205 13.1811 154.285 12.5501 154.405 11.5685L154.595 10.3165C154.635 10.0561 154.655 9.72556 154.655 9.32491H154.685ZM152.575 10.3866C153.005 10.4267 153.295 10.4768 153.455 10.5168C153.615 10.5569 153.745 10.6671 153.855 10.8373C153.915 10.9675 153.955 11.0877 153.955 11.1879C153.955 11.4683 153.805 11.6787 153.505 11.8289C153.095 12.0393 152.555 12.1494 151.875 12.1494C151.194 12.1094 150.784 12.0092 150.664 11.859C150.554 11.7288 150.504 11.4984 150.504 11.1578C150.504 10.5369 151.194 10.2764 152.585 10.3866H152.575ZM157.766 21.0937C157.766 20.623 157.876 19.992 158.086 19.2007C158.467 17.5781 158.787 15.7953 159.027 13.8622C159.267 11.9291 159.397 10.1963 159.397 8.65384C159.397 8.01281 159.397 7.54206 159.367 7.24158C159.327 6.16987 159.307 5.53886 159.307 5.34855C159.307 4.79767 159.337 4.46714 159.407 4.38701C159.497 4.19671 159.577 4.05648 159.647 3.98637C159.717 3.91626 159.827 3.8762 159.947 3.8762C160.247 3.8762 160.507 4.0665 160.747 4.45713C161.407 5.60897 161.737 7.54206 161.737 10.2564C161.737 11.9892 161.497 14.363 161.007 17.3678C160.687 19.371 160.227 20.6831 159.627 21.274C159.307 21.7448 158.987 21.9852 158.667 22.0152C158.286 22.0152 158.006 21.865 157.836 21.5645C157.796 21.4343 157.776 21.274 157.776 21.0837L157.766 21.0937ZM162.468 9.0044C162.468 8.85416 162.498 8.73397 162.548 8.65384C162.598 8.57371 162.688 8.48357 162.818 8.39342C163.098 8.16306 163.898 8.04286 165.219 8.04286C165.749 8.04286 166.159 8.07291 166.439 8.14302C166.759 8.2532 166.919 8.47355 166.919 8.8141C166.919 9.15464 166.749 9.42507 166.419 9.63541C166.089 9.83573 165.589 9.99599 164.928 10.0961C164.548 10.1362 164.288 10.1562 164.158 10.1562C163.128 10.1562 162.568 9.83573 162.458 9.19471V9.0044H162.468ZM162.758 3.78605C162.758 3.61578 162.818 3.48557 162.948 3.40544C163.008 3.27523 163.168 3.14503 163.428 3.02483C163.688 2.90464 164.018 2.79447 164.418 2.70432C165.489 2.47395 166.329 2.35376 166.949 2.35376C167.379 2.35376 167.709 2.39382 167.939 2.48397C168.489 2.6943 168.94 3.12499 169.27 3.76602C169.6 4.40705 169.85 5.30849 170.02 6.46033C170.34 8.89423 170.5 11.6486 170.5 14.7336C170.5 16.4864 170.45 17.9888 170.34 19.2508C170.17 21.3842 169.65 22.6562 168.77 23.0669C168.449 23.2772 168.139 23.3874 167.839 23.3874C167.709 23.3874 167.559 23.3574 167.389 23.2873C167.089 23.117 166.829 22.9066 166.589 22.6462C166.529 22.516 166.449 22.3658 166.369 22.1955C166.289 22.0252 166.229 21.895 166.209 21.8149C166.209 21.6446 166.239 21.5144 166.289 21.4343C166.339 21.3542 166.429 21.264 166.559 21.1739C166.669 20.9435 166.859 20.8433 167.139 20.8834C167.269 20.9435 167.409 20.9836 167.559 20.9836C167.709 20.9836 167.809 20.9635 167.849 20.9235C167.909 20.7532 167.989 19.6114 168.089 17.498C168.189 15.3846 168.229 13.6218 168.229 12.2095C168.229 10.4567 168.119 8.86418 167.909 7.43189L167.809 6.6907C167.679 5.61898 167.519 5.00801 167.329 4.82772C167.309 4.67748 166.889 4.60737 166.079 4.60737C165.649 4.60737 165.319 4.61738 165.088 4.63741C164.878 4.63741 164.598 4.64743 164.268 4.66746C163.938 4.68749 163.708 4.68749 163.578 4.66746C163.298 4.55729 163.118 4.46714 163.038 4.377C162.848 4.11658 162.748 3.94631 162.748 3.86618V3.80608L162.758 3.78605ZM163.108 14.1627C163.218 13.9724 163.528 13.732 164.038 13.4615C164.468 13.2312 164.828 13.0509 165.128 12.9307C165.429 12.8105 165.719 12.7504 165.989 12.7504C166.259 12.7504 166.499 12.8405 166.679 13.0108C166.859 13.1811 166.959 13.3714 166.979 13.5917C166.979 14.0625 166.339 14.6534 165.058 15.3546C164.418 15.6951 163.968 15.8654 163.718 15.8654C163.658 15.8654 163.558 15.8453 163.428 15.8053C163.278 15.7252 163.138 15.605 163.008 15.4547C162.878 15.3045 162.818 15.1442 162.818 14.974C162.818 14.6334 162.918 14.363 163.108 14.1727V14.1627Z" fill="#534741"/>
</g>
<defs>
<clipPath id="clip0_116_1224">
<rect width="170" height="25" fill="white" transform="translate(0.5)"/>
</clipPath>
</defs>
</svg>
