<svg width="262" height="38" viewBox="0 0 262 38" fill="none" xmlns="http://www.w3.org/2000/svg">
<g clip-path="url(#clip0_64_1646)">
<path d="M2.51809 8.96207L3.15529 8.81997C3.45333 8.68803 3.76165 8.60683 4.09052 8.57638C5.43685 8.2516 6.84485 8.00801 8.30423 7.84562C9.76361 7.68322 11.0072 7.60203 12.0246 7.60203C12.6515 7.60203 13.1551 7.66292 13.5559 7.79487C13.7204 7.82532 14.0184 7.97756 14.4398 8.2313C14.8303 8.58653 14.9845 8.96207 14.8817 9.34775C14.7173 9.73344 14.3884 10.0785 13.8951 10.3729C13.4634 10.5048 12.3329 10.6773 10.4933 10.9108C9.20863 11.0123 7.34844 11.2153 4.92299 11.5401C3.54582 11.8344 2.50781 11.9765 1.81923 11.9765C1.45953 11.9765 1.02788 11.8141 0.534567 11.4893C0.17486 11.1645 -0.0101318 10.8905 -0.0101318 10.657L0.0926415 10.2714C0.524289 9.75374 1.32592 9.3173 2.50781 8.95192L2.51809 8.96207ZM3.59721 17.2441C3.59721 16.9193 3.65888 16.6757 3.79248 16.5134C3.98775 16.0262 5.13881 15.5694 7.24566 15.1533C7.90341 15.0518 8.56116 15.0112 9.21891 15.0112C9.93832 15.0112 10.6475 15.062 11.336 15.1533C12.4254 15.3766 12.9599 15.9044 12.9599 16.7163C12.9599 17.0411 12.5899 17.3152 11.8499 17.5486C11.1099 17.7719 9.88694 18.0155 8.17062 18.2794C6.79346 18.4418 5.83767 18.523 5.31353 18.523C4.78938 18.523 4.38857 18.4621 4.13163 18.3301C3.86442 18.1677 3.68971 17.9038 3.58693 17.5486V17.2543L3.59721 17.2441ZM4.78938 27.8707C5.80684 27.3531 6.65986 27.008 7.35871 26.8456C8.50978 26.4599 9.68139 26.2569 10.8633 26.2569C11.521 26.2569 12.0246 26.3178 12.3638 26.4498C12.7029 26.5817 13.0421 26.8253 13.371 27.1806C14.0595 27.891 14.4912 28.774 14.6556 29.8093C14.7892 30.4589 14.8509 31.1084 14.8509 31.758C14.8509 32.7019 14.6762 33.453 14.337 34.0214C13.9876 34.5897 13.4737 35.0059 12.7851 35.2596C12.1582 35.5235 10.7502 35.6453 8.54061 35.6453C6.46459 35.6453 5.33408 35.5337 5.13881 35.3002C4.12136 34.3867 3.60749 33.0064 3.60749 31.1592C3.60749 29.5353 3.99803 28.429 4.78938 27.8504V27.8707ZM6.71124 20.7051C7.96508 20.4412 9.01337 20.3194 9.86638 20.3194C10.9866 20.3194 11.8396 20.5123 12.4357 20.9081C12.929 21.172 13.1757 21.4257 13.1757 21.6896C13.1757 21.852 13.0729 22.0753 12.8776 22.3697C12.6104 22.664 12.1582 22.8771 11.5005 22.9989C10.8427 23.1309 9.90749 23.1918 8.68449 23.1918C6.90651 23.1918 5.82739 22.9685 5.42658 22.5117C4.9641 22.1565 4.8716 21.8317 5.12853 21.5374C5.3238 21.2126 5.84795 20.9386 6.71124 20.7051ZM7.34844 0.14209C7.73898 0.14209 8.23229 0.487175 8.82837 1.1672C9.5889 1.87767 10.0822 2.90277 10.3083 4.23237C10.3391 4.36431 10.3597 4.52671 10.3597 4.71955C10.3597 4.94284 10.3083 5.18643 10.2158 5.45032C10.0822 5.64316 9.96916 5.7751 9.86638 5.836C9.76361 5.8969 9.64028 5.9375 9.47585 5.9375C9.20863 5.9375 8.70505 5.55181 7.94452 4.7703C7.22511 3.76549 6.74207 3.00427 6.51597 2.47649C6.35154 2.05021 6.26932 1.71527 6.26932 1.45138C6.26932 1.22809 6.33098 1.01495 6.46459 0.822111C6.76263 0.36538 7.06067 0.14209 7.34844 0.14209ZM7.54371 32.2756C7.70814 32.3873 8.15007 32.4482 8.87976 32.4482H9.42446C10.113 32.4482 10.5447 32.367 10.7091 32.2046C10.9352 31.9813 11.0586 31.7377 11.0586 31.4738C11.0586 31.281 11.038 31.1287 11.0072 31.0374C11.0072 30.9765 10.9763 30.7938 10.9044 30.4995C10.8427 30.2051 10.74 29.9818 10.6064 29.8194C10.3391 29.657 10.0822 29.5759 9.815 29.5759C9.71222 29.5759 9.4039 29.6063 8.87976 29.6773C7.83147 29.7788 7.29705 30.2965 7.29705 31.2404C7.29705 31.8291 7.37927 32.1741 7.54371 32.2858V32.2756ZM29.8455 33.4225C29.0542 33.4225 28.0881 33.2094 26.937 32.7933C25.6215 32.4685 24.7377 32.0929 24.2752 31.6768C23.9155 31.352 23.7305 30.946 23.7305 30.4589C23.7305 30.1036 23.7511 29.8397 23.8024 29.6773C23.8538 29.515 23.9566 29.4033 24.121 29.3323C24.3883 29.2308 24.6966 29.1902 25.0563 29.1902C25.4468 29.1902 25.9401 29.2409 26.5362 29.3323L28.16 29.4338C28.5506 29.4338 28.7972 29.3729 28.9 29.2409C29.1261 29.0176 29.3419 27.7997 29.5372 25.5871L29.8352 21.8317L30.4313 17.5486C30.4313 17.8429 30.493 17.1122 30.6266 15.3563C30.7294 14.321 30.7705 13.5497 30.7705 13.0625C30.7705 12.6768 30.7191 12.4129 30.6266 12.281C30.5238 12.1795 30.2258 12.1186 29.7119 12.0881C29.198 12.0577 28.5814 12.0374 27.862 12.0374C26.4129 12.0374 25.0049 12.1186 23.6175 12.281C22.6308 12.4129 22.1067 12.4738 22.0347 12.4738C21.7675 12.4738 21.562 12.4231 21.3975 12.3317C21.0378 12.3317 20.8529 12.0272 20.8529 11.4081C20.8529 10.7585 21.3256 10.2105 22.2814 9.75373C23.7305 9.16506 25.9299 8.77938 28.8897 8.58653C30.6985 8.36324 32.7746 8.28205 35.1075 8.34294C36.2894 8.34294 37.2144 8.42414 37.8721 8.58653C38.3963 8.68803 38.7457 8.80983 38.9101 8.97222C39.1054 9.16506 39.2082 9.51015 39.2082 9.99733C39.2082 10.6164 39.0026 11.063 38.5915 11.3371C38.1804 11.6111 37.4816 11.7532 36.4949 11.7532C35.1486 11.7532 34.3264 11.946 34.0284 12.3419C33.8639 12.7276 33.8023 13.9049 33.8331 15.8536C33.8639 16.5032 33.8845 17.4167 33.8845 18.5839C33.8845 19.9135 33.8537 20.8574 33.7817 21.4054C33.4529 26.2468 33.124 29.4439 32.7951 31.0069C32.5998 32.0117 32.1579 32.6918 31.4591 33.0572C30.9966 33.321 30.4519 33.4428 29.8352 33.4428L29.8455 33.4225Z" fill="#534741"/>
<path d="M47.3066 10.038C47.6047 5.84619 47.9027 3.56254 48.1905 3.1667C48.3858 2.81147 48.7044 2.57803 49.1257 2.48668L51.7362 1.75591C53.2161 1.32963 54.5316 1.12664 55.6827 1.12664C57.4915 1.12664 58.7453 1.69501 59.4339 2.83177C59.7011 3.42044 59.8244 4.64854 59.8244 6.53636C59.8244 9.91617 59.4647 11.9968 58.735 12.7682C57.9437 13.6411 56.0527 14.0876 53.0619 14.0876C51.5512 14.0876 50.729 14.1485 50.5954 14.2805C50.5337 14.4733 50.4515 16.8991 50.3487 21.5374C50.1843 28.7436 50.0507 32.8035 49.9582 33.7169C49.8965 34.5898 49.7013 35.3104 49.3929 35.8585C49.0846 36.4066 48.7044 36.6907 48.283 36.6907C47.9233 36.6907 47.5739 36.508 47.245 36.1528C46.7825 35.6656 46.5564 33.859 46.5564 30.7431C46.5564 29.7078 46.5872 28.2767 46.6592 26.46L46.7106 23.5369C46.8133 18.726 47.0086 14.2297 47.3066 10.038ZM51.0579 6.47546L51.6951 6.42472C53.0722 6.26232 53.9458 6.16083 54.3055 6.13038L56.0835 5.98828V4.52675H54.5008C52.3631 4.52675 51.099 4.70944 50.6982 5.06467C50.6365 5.12557 50.5954 5.24736 50.5954 5.40976C50.5954 5.44021 50.6262 5.6229 50.6982 5.94769C50.8318 6.27247 50.9448 6.45516 51.0476 6.48561L51.0579 6.47546ZM50.8626 11.0631C50.8626 11.0631 51.6848 11.0428 53.2264 10.921C54.8399 10.7586 55.7238 10.6469 55.8882 10.5759C55.9499 10.5759 55.991 10.5251 55.991 10.4338L55.8882 9.99737C55.8882 9.77408 55.7546 9.62183 55.4977 9.56093C55.3949 9.53049 55.0558 9.51019 54.4597 9.51019L53.3703 9.45944C51.7876 9.45944 50.9654 9.47974 50.9037 9.51019C50.842 9.57108 50.7701 9.83497 50.7084 10.2917C50.7084 10.718 50.7598 10.9717 50.8523 11.0732L50.8626 11.0631ZM57.2243 17.3964C58.1081 16.4525 58.807 15.8334 59.3003 15.5492C59.66 15.3259 60.0197 15.2041 60.3897 15.2041C60.6877 15.2041 60.9138 15.2853 61.0783 15.4477C61.2427 15.6101 61.3249 15.8232 61.3249 16.077C61.3249 16.2698 61.3044 16.422 61.2735 16.5134C61.1708 16.9701 60.9652 17.3863 60.6363 17.7821C60.5027 18.046 60.2972 18.32 60.0197 18.6144C59.7422 18.9087 59.5469 19.1015 59.4544 19.203C58.8995 19.6902 58.4884 20.015 58.2212 20.1774C57.7587 20.4007 57.3373 20.5225 56.9365 20.5225C56.7721 20.5225 56.6385 20.5022 56.546 20.4717C56.1143 20.2484 55.9088 19.9033 55.9088 19.4466C55.9088 18.9899 56.3507 18.3099 57.2448 17.3964H57.2243ZM56.5357 32.5396C56.5357 32.1843 56.7515 31.7783 57.1729 31.3216C57.9642 30.1544 58.4781 29.2816 58.7248 28.7132C58.9714 28.1448 58.9611 27.8403 58.7042 27.8099C58.437 27.8099 58.1081 27.6475 57.7176 27.3227C57.4504 27.0283 57.327 26.2164 57.327 24.8868C57.327 23.882 57.3579 23.2832 57.4298 23.0802C57.4298 22.8873 57.5737 22.5727 57.8717 22.1566C58.7967 21.1213 60.1944 20.3702 62.0649 19.9135C62.4246 19.7511 63.0207 19.6699 63.8429 19.6699C65.3228 19.6699 66.33 19.8019 66.8541 20.0556C67.3474 20.218 67.7585 20.5935 68.0874 21.172C68.3546 21.6288 68.4779 22.0855 68.4779 22.5321C68.4779 23.4456 68.2005 24.4199 67.6352 25.4552C67.368 26.2367 67.0083 26.7746 66.5458 27.0588C66.0833 27.2821 65.8572 27.6576 65.8572 28.1753C65.8572 28.7639 65.9189 29.1699 66.0525 29.3932C66.2169 29.5556 66.4944 29.6368 66.8952 29.6368C67.3577 29.6368 67.7483 29.5556 68.0771 29.3932C68.2724 29.1293 68.5499 28.6624 68.9199 27.9824C69.2179 27.3937 69.4337 27.0385 69.5571 26.9066C69.6804 26.7746 69.9373 26.7137 70.297 26.7137C70.7595 26.7137 71.0884 26.937 71.2837 27.3734C71.4789 27.8099 71.5817 28.5203 71.5817 29.4947C71.5509 30.1443 71.4687 30.6517 71.335 31.007C71.3042 31.1085 71.1912 31.2404 71.0164 31.4231C70.8315 31.6058 70.6979 31.7581 70.5951 31.89C69.6085 32.7629 68.4266 33.2094 67.0391 33.2094C65.6517 33.2094 64.5417 32.773 63.6887 31.89C63.2571 31.3724 63.031 30.6416 63.0001 29.6977C62.8974 28.6624 62.7021 28.1347 62.404 28.1347C62.1368 28.1347 61.9313 28.4594 61.7668 29.109C61.6641 29.7281 61.3763 30.4589 60.883 31.3013C60.4514 32.1133 59.9786 32.7121 59.4544 33.1079C59.0947 33.4327 58.6323 33.5951 58.0773 33.5951C57.0598 33.5951 56.546 33.2399 56.546 32.5193L56.5357 32.5396ZM59.8861 24.359C59.8861 24.5823 59.9478 24.7142 60.0814 24.7447C60.143 24.8056 60.328 24.8462 60.6261 24.8462C60.9858 24.8462 61.5099 24.7954 62.2088 24.7041C63.3907 24.5113 64.1615 24.2981 64.5314 24.0748C64.7576 23.882 64.8809 23.6485 64.8809 23.3948C64.8809 22.9076 64.5314 22.664 63.8429 22.664C63.2879 22.664 62.5068 22.8061 61.5202 23.1005C60.4719 23.3644 59.9375 23.6688 59.9375 24.0241L59.8861 24.3692V24.359ZM67.1933 15.2041C67.4194 15.2041 67.6558 15.265 67.8819 15.3969C68.406 15.5593 68.889 16.0262 69.3104 16.8077C69.5365 17.234 69.6598 17.6197 69.6598 17.9749C69.6598 18.1373 69.629 18.32 69.5571 18.5129C69.3618 18.8376 69.0638 19 68.6732 19C68.0155 19 67.3885 18.655 66.8027 17.9749C66.2067 17.3254 65.9189 16.757 65.9189 16.2698C65.9189 15.9146 66.0525 15.6507 66.3094 15.4883C66.7 15.2954 66.998 15.1939 67.1933 15.1939V15.2041ZM67.3372 5.25751C67.3063 4.87183 67.2858 4.52675 67.2858 4.23241C67.2858 3.84672 67.3474 3.48134 67.4605 3.15655C67.5735 2.83177 67.8099 2.48668 68.1799 2.13145C68.704 1.54277 69.4748 1.09619 70.5026 0.791702C71.52 0.487215 72.8355 0.243625 74.4491 0.0812321C75.4357 0.0203346 76.0934 -0.0202637 76.4223 -0.0202637C77.6762 -0.0202637 78.6114 0.12183 79.2383 0.416168C80.2558 0.964245 80.9341 2.0401 81.2629 3.63358C81.4274 4.44555 81.5096 5.82589 81.5096 7.77461C81.5096 8.42418 81.4788 9.85527 81.4068 12.0577C81.2424 16.5032 80.9957 20.1469 80.6669 22.9685C80.3996 24.8563 80.1735 26.7645 79.9783 28.7132C79.9166 29.3323 79.8036 30.2864 79.6597 31.5855C79.5158 32.8847 79.3719 33.7575 79.2383 34.2142C78.8067 35.7773 78.2517 36.843 77.5631 37.4317C77.1315 37.7869 76.6793 37.9696 76.1859 37.9696C75.004 37.9696 73.8222 37.2997 72.63 35.9701C72.0339 35.1886 71.7461 34.5593 71.7461 34.0722C71.7461 33.7474 71.8489 33.4835 72.0442 33.2906C72.3422 32.9963 72.6505 32.8542 72.9794 32.8542C73.37 32.8542 73.7399 32.9963 74.0688 33.2906C74.3669 33.5545 74.6649 33.6763 74.9527 33.6763C75.1479 33.6763 75.3021 33.5647 75.3946 33.3312C75.4254 33.2297 75.5076 32.4178 75.6412 30.8953L75.9393 27.9723L76.4326 24.1763C76.6279 22.6539 76.8026 21.1822 76.9465 19.7714C77.0904 18.3606 77.1828 17.1934 77.2137 16.2901L77.2651 14.1993L73.8119 14.0064C72.0339 13.905 70.7081 13.7832 69.814 13.6411C68.9301 13.499 68.3957 13.296 68.2313 13.0321C67.6763 12.484 67.3885 10.3323 67.3885 6.59726C67.3885 6.07963 67.368 5.6229 67.3372 5.23722V5.25751ZM70.8417 5.65335H77.5014L77.6453 4.87183C77.6453 4.32375 77.5837 3.95837 77.4501 3.79598C77.3781 3.66403 77.0184 3.57269 76.3607 3.53209C75.7029 3.48134 74.6135 3.46104 73.1027 3.46104C71.6845 3.46104 70.8623 3.54224 70.6362 3.70463C70.6054 3.73508 70.5848 3.84672 70.5848 4.04972C70.5848 4.34405 70.6054 4.58764 70.6362 4.78048L70.8315 5.65335H70.8417ZM71.1398 10.8601C71.1398 10.8601 71.3659 10.9108 71.7359 10.9108L74.4491 10.8093L77.5117 10.6672L77.6556 9.88572C77.6556 9.36809 77.5528 9.09405 77.3576 9.05346C76.9259 8.95196 75.8468 8.89106 74.0996 8.86061L72.1778 8.80987C71.52 8.80987 71.1603 8.84031 71.0884 8.91136C70.9856 9.01286 70.9445 9.33764 70.9445 9.88572C71.0062 10.5048 71.0781 10.8296 71.1398 10.8601Z" fill="#534741"/>
<path d="M89.3924 18.6144C89.3924 18.1882 89.6596 17.8532 90.1837 17.5893C90.6154 17.4269 91.3348 17.3457 92.3522 17.3457C94.4282 17.3457 95.7437 17.8126 96.2987 18.7565C96.4015 18.8885 96.4426 19.0306 96.4426 19.193C96.4426 19.5177 96.196 19.8222 95.7026 20.1166C95.3738 20.3399 94.531 20.4921 93.1847 20.553C91.9 20.553 90.9648 20.4414 90.3687 20.2079C89.8137 19.944 89.4951 19.5076 89.4335 18.8885C89.4026 18.8276 89.3821 18.7261 89.3821 18.5941L89.3924 18.6144ZM91.2114 30.3981C91.7664 29.5252 92.5475 28.6422 93.5341 27.7693C94.4899 26.7341 95.1785 26.1251 95.6101 25.9627C95.939 25.8308 96.1548 25.7699 96.2473 25.7699C96.5145 25.7699 96.7406 25.9323 96.9359 26.2571C97.1312 26.5514 97.234 26.8457 97.234 27.1299C97.234 27.4141 97.1312 27.749 96.9359 28.1043C96.607 28.6524 96.1754 29.2715 95.6513 29.9515C94.7263 31.1187 94.0583 31.951 93.6266 32.4382C92.938 33.2197 92.455 33.6358 92.1981 33.7068C92.0336 33.8388 91.8178 33.8997 91.5609 33.8997C91.3039 33.8997 91.0367 33.8185 90.7695 33.6561C90.379 33.3009 90.1734 32.8441 90.1734 32.2961C90.1734 31.8089 90.5229 31.1796 91.2114 30.3981ZM91.9514 6.52629C92.1159 6.39435 92.3625 6.33345 92.6914 6.33345C93.3183 6.33345 94.1405 6.59734 95.1579 7.11497C97.2648 8.19082 98.3131 9.12458 98.3131 9.93655C98.3131 10.3628 98.087 10.6978 97.6245 10.9617C97.3984 11.0936 97.1106 11.1545 96.7818 11.1545C96.1548 11.1545 95.3327 10.8906 94.3152 10.373C92.4036 9.39862 91.4581 8.45471 91.4581 7.5514C91.4581 6.96272 91.6225 6.62779 91.9514 6.52629ZM102.167 32.4483C102.794 30.3676 103.236 28.6321 103.503 27.2314C103.894 24.8666 104.325 23.4659 104.788 23.0396C105.148 22.7453 105.466 22.6032 105.723 22.6032C106.021 22.6032 106.35 22.7859 106.71 23.1411C107.069 23.4964 107.254 24.3286 107.254 25.6278C107.254 28.1652 106.812 30.8244 105.918 33.6155C105.528 35.1075 104.963 36.1833 104.243 36.8329C103.811 37.2186 103.359 37.4216 102.866 37.4216C102.568 37.4216 102.311 37.3607 102.075 37.2288C101.848 37.0968 101.684 36.9243 101.581 36.6908C101.478 36.4675 101.437 36.1529 101.437 35.7672C101.437 35.28 101.684 34.1737 102.177 32.4585L102.167 32.4483ZM117.799 20.5632C117.47 20.5632 117.172 20.4312 116.915 20.1775C116.483 19.8222 116.175 19.2336 115.98 18.4216C115.815 17.8025 115.6 17.4777 115.343 17.4472C115.178 17.4168 114.058 17.4777 111.992 17.6401C111.006 17.701 110.348 17.7416 110.019 17.7416C108.179 17.7416 107.039 17.4371 106.617 16.818C106.319 16.3917 106.175 15.9755 106.175 15.5493C106.175 15.2549 106.453 14.2501 107.018 12.5247C107.542 11.0327 107.809 10.1903 107.809 9.9873C107.809 9.76401 107.254 9.64221 106.134 9.64221C105.374 9.64221 104.849 9.54072 104.551 9.34787C104.253 9.18548 104.109 8.86069 104.109 8.37351C104.109 8.07918 104.223 7.82544 104.459 7.592C104.726 7.32811 105.055 7.13527 105.446 7.00332C105.97 6.78003 106.627 6.59734 107.419 6.46539L109.536 6.02896L110.821 3.59307C111.211 2.8826 111.561 2.27362 111.859 1.76614C112.157 1.25866 112.352 0.974476 112.455 0.913578C112.722 0.812083 112.969 0.771484 113.195 0.771484C113.75 0.771484 114.13 0.913578 114.325 1.20792C114.428 1.33986 114.469 1.5327 114.469 1.79659C114.469 1.95898 114.407 2.39542 114.274 3.11604C114.212 3.44082 114.14 3.79606 114.079 4.16144C114.017 4.53698 113.945 4.79072 113.883 4.91251C113.852 4.97341 113.852 5.01401 113.883 5.0343C113.914 5.0546 113.945 5.0749 113.986 5.10535L114.479 5.20685L115.466 5.30834C115.302 5.2779 115.856 5.30834 117.141 5.40984C119.31 5.54178 120.574 5.70418 120.944 5.89702C121.375 6.12031 121.622 6.43495 121.684 6.82063V7.11497C121.684 7.4702 121.581 7.74424 121.386 7.94723C121.026 8.33292 120.512 8.6171 119.854 8.7795C119.032 8.94189 117.748 9.07383 116.011 9.16518C113.606 9.26668 112.29 9.43922 112.064 9.70311C112.002 9.76401 111.941 9.8655 111.889 9.99745C111.838 10.1294 111.787 10.2715 111.715 10.4339C111.653 10.5658 111.489 10.982 111.221 11.7026L110.872 12.9713C110.769 13.3265 110.759 13.5396 110.821 13.6005C110.954 13.7325 111.694 13.7934 113.04 13.7934C114.027 13.7934 114.654 13.7629 114.911 13.6919C115.209 13.631 115.538 13.3671 115.898 12.9104C116.36 12.4232 116.771 12.1796 117.131 12.1796C117.563 12.1796 118.015 12.6363 118.508 13.5396C118.734 13.9964 118.94 14.9707 119.104 16.4627C119.207 17.0514 119.248 17.5487 119.248 17.975C119.248 18.4317 119.186 18.8885 119.053 19.3351C118.919 19.9542 118.642 20.3399 118.21 20.5023C118.107 20.5327 117.984 20.553 117.819 20.553L117.799 20.5632ZM112.085 25.3335C112.352 25.0696 112.691 24.9782 113.123 25.0391C114.171 25.1 114.705 26.5311 114.705 29.3222C114.705 29.9718 114.685 30.4793 114.654 30.8345C114.654 31.3217 114.633 31.7074 114.603 32.0017C114.572 32.2961 114.551 32.5193 114.551 32.6817C114.551 32.7426 114.49 33.0268 114.356 33.514C114.161 33.8692 114.007 34.1027 113.914 34.194C113.482 34.5188 113.143 34.6812 112.876 34.6812C112.547 34.6812 112.249 34.5797 111.992 34.3666C111.725 34.1534 111.561 33.8692 111.499 33.514C111.304 32.9659 111.201 32.1134 111.201 30.9766C111.201 27.7288 111.499 25.8409 112.085 25.3233V25.3335ZM119.279 23.5268C119.546 23.2629 119.875 23.1411 120.265 23.1411C120.79 23.1411 121.149 23.4152 121.355 23.9734C121.488 24.3997 121.653 25.4146 121.848 27.0386C121.951 28.9873 122.095 30.0936 122.29 30.3473C122.516 30.5402 123.164 30.7533 124.212 30.9766C125.168 31.139 125.836 31.413 126.237 31.8089C126.699 32.3265 126.925 32.7629 126.925 33.1283C126.925 33.717 126.432 34.1839 125.445 34.5391C124.726 34.8335 123.996 34.9755 123.277 34.9755C122.228 34.9755 121.19 34.6711 120.173 34.0519L119.382 33.3212C118.529 32.3773 118.097 30.8853 118.097 28.8351C118.097 26.1759 118.487 24.3997 119.279 23.5268Z" fill="#534741"/>
<path d="M133.174 26.2063C133.585 25.7496 133.986 25.3131 134.386 24.8869C134.777 24.4606 135.065 24.1561 135.229 23.9633L137.593 21.4259C138.312 20.6139 138.939 20.2079 139.463 20.2079C139.926 20.2079 140.255 20.5631 140.45 21.2838C140.584 21.7405 140.388 22.4002 139.854 23.2832C139.227 24.3185 138.518 25.2624 137.737 26.1048C136.195 27.7287 134.962 28.5407 134.037 28.5407C133.677 28.5407 133.328 28.3783 132.999 28.0535C132.701 27.7592 132.557 27.4243 132.557 27.0284C132.557 26.9269 132.763 26.6529 133.174 26.1962V26.2063ZM140.697 13.5904C141.786 13.3265 142.485 13.0728 142.814 12.8089C143.04 12.616 143.204 11.9969 143.307 10.9616C143.472 9.20577 143.801 8.18067 144.294 7.89648C144.561 7.76453 144.808 7.70364 145.034 7.70364C145.558 7.70364 145.907 7.85588 146.072 8.17052C146.236 8.475 146.349 9.13472 146.421 10.1395C146.524 11.3372 146.617 12.0274 146.719 12.1897C146.884 12.3826 147.48 12.4841 148.497 12.4841C149.515 12.4841 150.172 12.5957 150.471 12.8292C150.83 13.0931 151.015 13.5092 151.015 14.0979C151.015 14.585 150.81 15.0012 150.399 15.3361C149.987 15.6812 149.391 15.8943 148.6 15.9958C147.809 16.0973 147.285 16.3206 147.017 16.6759C146.75 17.0311 146.668 17.6705 146.771 18.5738C146.802 18.7667 146.822 19.2538 146.822 20.0354C146.822 21.233 146.771 23.0396 146.678 25.4451C146.545 29.0786 146.349 31.1288 146.082 31.5856C145.692 32.2656 145.147 32.6107 144.458 32.6107C143.903 32.6107 143.41 32.3671 142.978 31.8799C142.711 31.5551 142.588 31.1187 142.588 30.5605C142.588 29.7181 142.649 28.1246 142.783 25.7902C142.978 22.4408 143.05 20.0557 142.978 18.6246L142.876 16.9194H140.851C139.998 16.9194 139.402 16.889 139.073 16.818C138.713 16.7571 138.425 16.5845 138.21 16.3105C137.994 16.0364 137.891 15.7522 137.891 15.4579C137.891 14.6459 138.826 14.0268 140.707 13.6107L140.697 13.5904ZM139.905 5.84626C140.265 5.35908 141.118 4.60802 142.475 3.60321C143.729 2.68975 144.746 2.14167 145.537 1.94883C145.928 1.88793 146.216 1.84733 146.38 1.84733C146.771 1.84733 147.141 1.95898 147.47 2.19242C147.963 2.5172 148.21 2.87244 148.21 3.26827C148.21 3.59306 148.045 3.8874 147.716 4.14114C147.49 4.33398 146.205 5.11549 143.872 6.47554C142.362 7.389 141.406 7.91678 141.015 8.07917C140.789 8.18067 140.553 8.22126 140.327 8.22126C140.029 8.22126 139.803 8.12992 139.638 7.95737C139.474 7.78483 139.392 7.54124 139.392 7.24691C139.392 6.82062 139.566 6.35374 139.936 5.83611L139.905 5.84626ZM149.319 20.6545C149.515 20.4616 149.844 20.3602 150.306 20.3602C150.532 20.3602 150.82 20.4921 151.149 20.7458C151.539 21.0706 151.837 21.4157 152.033 21.7709C152.228 22.1262 152.444 22.6134 152.67 23.2325C152.803 23.6892 152.865 23.9632 152.865 24.0647C152.865 24.3895 152.742 24.6534 152.495 24.8463C152.249 25.0391 151.93 25.1406 151.529 25.1406C150.676 25.1406 149.946 24.5722 149.361 23.4355C149.165 23.0498 149.063 22.5423 149.063 21.9232C149.063 21.2432 149.145 20.8169 149.309 20.6545H149.319ZM155.044 33.717C154.222 33.6155 153.615 33.3313 153.215 32.8441C153.081 32.6513 153.019 32.4584 153.019 32.2555C153.019 32.154 153.05 32.0119 153.122 31.819C153.287 31.3014 153.513 30.9766 153.811 30.8447C153.975 30.7432 154.396 30.6315 155.064 30.4996C155.733 30.3676 156.534 30.2255 157.459 30.0631C159.206 29.8399 160.306 29.6369 160.768 29.4745C160.83 29.444 160.902 28.7741 160.964 27.475L161.015 25.577L159.782 25.6278C158.96 25.6582 158.353 25.4958 157.952 25.1406C157.593 24.7854 157.408 24.4301 157.408 24.0647C157.408 23.9632 157.469 23.7197 157.603 23.334C157.829 22.8468 158.61 22.4611 159.926 22.1668C160.522 22.0348 160.974 21.8724 161.282 21.6796C161.591 21.4868 161.755 21.2127 161.755 20.8473C161.755 19.9034 161.981 19.2741 162.444 18.9494C162.742 18.7261 163.04 18.6043 163.327 18.6043C163.79 18.6043 164.129 18.7362 164.365 18.99C164.592 19.2538 164.777 19.6395 164.91 20.1572C164.972 20.5428 165.054 20.7763 165.157 20.8372C165.352 20.9691 165.681 21.0808 166.143 21.1823C166.832 21.3142 167.366 21.5274 167.747 21.8115C168.127 22.0957 168.312 22.4611 168.312 22.8874C168.312 23.2731 168.168 23.5979 167.87 23.8618C167.572 24.1256 167.11 24.3489 166.493 24.5418C165.866 24.7651 165.455 24.9681 165.26 25.1305C165.126 25.3233 165.033 26.0744 164.962 27.3735L164.91 29.2715L169.545 29.2207C171.817 29.2207 173.111 29.241 173.44 29.2715C173.995 29.3324 174.345 29.4643 174.478 29.6572C174.746 30.1139 174.869 30.4691 174.869 30.733C174.869 31.3521 174.653 31.8698 174.232 32.296C173.8 32.7223 172.865 33.0268 171.416 33.2197C169.771 33.3821 166.873 33.514 162.731 33.6053C158.322 33.7068 155.753 33.7373 155.034 33.7068L155.044 33.717ZM157.017 7.89648C157.017 6.86122 157.13 5.86656 157.367 4.92265C157.562 4.11069 157.757 3.50171 157.963 3.09573C158.158 2.68975 158.394 2.43601 158.651 2.34466L160.871 1.61389C162.125 1.18761 163.266 0.984619 164.324 0.984619C165.773 0.984619 166.842 1.44135 167.531 2.34466C167.963 2.89274 168.189 3.85695 168.219 5.21699C168.219 6.61763 168.004 7.75438 167.582 8.62725C167.315 9.27682 166.976 9.81475 166.544 10.2309C166.277 10.4948 165.845 10.6673 165.239 10.7688C164.633 10.8703 163.821 10.9312 162.793 10.9616L161.806 11.0124C160.265 11.0733 159.278 11.1443 158.847 11.2052C158.744 11.2357 158.62 11.256 158.456 11.256C158.096 11.256 157.819 11.1545 157.613 10.9616C157.387 10.7384 157.223 10.2004 157.12 9.35802C157.058 8.70844 157.017 8.22126 157.017 7.89648ZM158.62 16.1988C159.33 15.6609 160.419 15.2042 161.899 14.8083C163.214 14.4835 164.252 14.3212 165.003 14.3212C165.496 14.3212 165.856 14.4024 166.092 14.5647C166.287 14.7576 166.39 15.1128 166.39 15.6406C166.39 16.2597 166.041 16.7774 165.352 17.2036C164.468 17.7213 163.554 18.0461 162.639 18.178C161.817 18.3099 160.861 18.6347 159.782 19.1524C159.155 19.4467 158.682 19.5888 158.353 19.5888C158.127 19.5888 157.932 19.4568 157.788 19.2031C157.644 18.9494 157.562 18.584 157.562 18.1272C157.562 17.3762 157.911 16.7368 158.62 16.1988ZM160.522 7.55139L162.104 7.60214C163.194 7.66304 163.862 7.57169 164.129 7.3078C164.324 7.11496 164.479 6.62778 164.571 5.84626L164.622 5.21699C164.622 4.79071 164.561 4.51667 164.427 4.38473C164.263 4.19188 164.037 4.09039 163.739 4.09039C163.605 4.09039 163.245 4.15129 162.649 4.28323C161.991 4.41517 161.529 4.52682 161.272 4.62832C160.84 4.76026 160.594 4.85161 160.532 4.92265C160.398 5.0546 160.337 5.30834 160.337 5.70417C160.337 5.96806 160.357 6.17105 160.388 6.33344L160.532 7.55139H160.522Z" fill="#534741"/>
<path d="M180.799 8.42409C181.559 8.1602 183.481 7.80496 186.575 7.34823C188.086 7.12494 189.185 7.00314 189.884 7.00314H190.131C190.593 7.00314 191.015 7.10464 191.415 7.29748C191.909 7.62227 192.176 7.89631 192.207 8.12975C192.238 8.23124 192.258 8.37334 192.258 8.56618C192.258 9.31725 191.652 9.88562 190.429 10.2713C188.98 10.7889 186.78 11.0528 183.82 11.0528C181.487 11.0528 180.172 10.9919 179.874 10.86C179.576 10.6671 179.432 10.3221 179.432 9.83488C179.432 9.21575 179.894 8.74887 180.809 8.42409H180.799ZM181.786 27.6271C181.847 27.5256 182.053 27.3936 182.402 27.2109C182.752 27.0283 183.152 26.8253 183.615 26.602C184.499 26.1757 185.424 25.8408 186.379 25.5769C187.037 25.4145 187.561 25.3333 187.962 25.3333C188.394 25.3333 188.815 25.4145 189.247 25.5769C189.966 25.8712 190.532 26.4091 190.922 27.1805C191.189 27.7996 191.313 28.6623 191.313 29.7585C191.313 32.032 190.634 33.6255 189.288 34.5288C188.897 34.884 188.486 35.0972 188.055 35.1581C187.89 35.1885 187.119 35.1784 185.732 35.1073C184.088 34.9449 183.039 34.7521 182.577 34.5186C181.95 34.133 181.529 33.5747 181.292 32.8643C181.189 32.4786 181.148 31.9508 181.148 31.3012C181.148 30.7836 181.169 30.3573 181.2 30.0325C181.302 28.7334 181.498 27.9214 181.796 27.5966L181.786 27.6271ZM182.669 20.563C182.967 20.3397 183.44 20.1367 184.098 19.9743C185.085 19.548 185.804 19.3247 186.266 19.2943C186.863 19.2334 187.253 19.1928 187.448 19.1928C188.106 19.1928 188.62 19.3044 188.98 19.5379C189.278 19.7307 189.411 20.025 189.37 20.4107C189.329 20.7964 188.939 21.2125 188.188 21.649C187.428 22.0854 186.431 22.4 185.177 22.603C184.982 22.6335 184.735 22.6538 184.437 22.6538C183.748 22.6538 183.214 22.5117 182.834 22.2174C182.454 21.923 182.279 21.5678 182.32 21.1415C182.382 20.8878 182.495 20.6848 182.669 20.5528V20.563ZM182.793 15.0315C182.906 14.7879 183.05 14.6153 183.214 14.524L184.55 14.0875C185.537 13.8947 186.246 13.7932 186.667 13.7932C187.489 13.7932 188.116 13.9049 188.538 14.1383C188.928 14.4326 189.062 14.7574 188.928 15.1127C188.867 15.4983 188.466 15.8739 187.746 16.2291C187.027 16.5843 186.071 16.767 184.889 16.767C183.707 16.767 182.916 16.5742 182.618 16.1784C182.556 16.0769 182.515 15.9754 182.495 15.8637C182.474 15.7521 182.495 15.681 182.567 15.6404C182.597 15.478 182.669 15.275 182.793 15.0315ZM184.499 30.3472C184.499 30.9663 184.55 31.3723 184.643 31.5651C184.673 31.7884 185.198 31.9102 186.225 31.9102C187.15 31.9102 187.623 31.8493 187.654 31.7174C187.716 31.6159 187.757 31.423 187.757 31.1287C187.757 30.743 187.736 30.3979 187.705 30.1036C187.674 29.3525 187.52 28.9364 187.263 28.8349C187.202 28.774 187.078 28.7334 186.914 28.7334C186.719 28.7334 186.287 28.8146 185.629 28.977L184.447 29.2206L184.499 30.337V30.3472ZM186.472 0.872803C186.636 0.872803 186.914 1.00475 187.315 1.25849C187.674 1.52238 188.106 2.04 188.599 2.82152C189.031 3.73498 189.237 4.36426 189.237 4.71949C189.237 5.42996 188.846 5.79535 188.055 5.79535C187.202 5.79535 186.441 5.16607 185.783 3.89738C185.424 3.18691 185.239 2.61853 185.239 2.19225C185.239 1.73552 185.403 1.41073 185.732 1.21789C186.061 0.994598 186.308 0.872803 186.472 0.872803ZM199.493 6.52611C200.644 5.28787 201.528 4.20186 202.155 3.25795C202.71 2.41554 203.193 1.98926 203.584 1.98926C204.406 1.98926 204.817 2.36479 204.817 3.10571C204.817 3.46094 204.683 3.99887 204.426 4.70934C203.933 6.14043 203.029 7.50047 201.713 8.79962C200.593 9.90592 199.678 10.454 198.949 10.454C198.723 10.454 198.476 10.3728 198.209 10.2104C197.818 9.95667 197.613 9.64203 197.613 9.2868C197.613 8.76917 198.24 7.84556 199.483 6.50582L199.493 6.52611ZM199.391 33.5138C199.391 32.8338 199.904 31.6666 200.922 30.0021L201.857 28.4898C202.577 27.3835 203.039 26.6223 203.234 26.196C203.594 25.3536 203.974 24.7649 204.365 24.4401C204.694 24.2777 204.961 24.1965 205.156 24.1965C205.423 24.1965 205.639 24.2777 205.824 24.4401C206.009 24.6025 206.112 24.7953 206.143 25.0288C206.204 25.2927 206.246 25.4957 206.246 25.6581C206.246 26.6324 205.732 28.1549 204.714 30.2355C203.203 33.0977 201.837 34.5186 200.624 34.5186C200.326 34.5186 200.069 34.4577 199.833 34.3258C199.534 34.1634 199.391 33.8894 199.391 33.4935V33.5138ZM203.193 20.8979C202.731 20.7051 202.34 20.3295 202.011 19.7815C201.713 19.3247 201.569 18.462 201.569 17.2035C201.569 15.8028 201.672 14.8183 201.867 14.2296C201.97 13.6816 202.217 13.2857 202.607 13.0624C203.039 12.7072 203.645 12.3926 204.437 12.1388C205.619 11.6821 206.626 11.3776 207.448 11.2152C208.137 11.1137 208.959 11.0731 209.915 11.0731C211.919 11.0731 213.183 11.2152 213.717 11.5096C214.241 11.7024 214.652 12.1287 214.95 12.7783C215.146 13.103 215.249 13.5902 215.249 14.2398C215.249 14.6255 215.228 14.9401 215.197 15.1634C214.765 17.4369 214.108 19.0304 213.224 19.9337C212.926 20.2889 212.381 20.6137 211.6 20.9081C211.24 21.0096 210.521 21.0603 209.452 21.0806C208.383 21.1009 207.16 21.1009 205.773 21.1009C204.385 21.1009 203.471 21.04 203.203 20.9081L203.193 20.8979ZM204.725 16.4219C204.858 17.2948 204.971 17.8023 205.074 17.9342C205.208 18.0357 206.862 17.8733 210.058 17.4471C210.613 17.3456 210.942 17.2644 211.045 17.2035C211.076 17.173 211.127 17.0309 211.189 16.7873C211.251 16.5437 211.302 16.3408 211.333 16.1784C211.364 15.9855 211.384 15.7216 211.384 15.3968C211.384 15.133 211.353 14.9909 211.281 14.9604C211.086 14.7676 210.408 14.6661 209.257 14.6661C207.15 14.6661 205.742 14.7777 205.012 15.0112C204.848 15.0416 204.735 15.1533 204.663 15.3562L204.714 16.4321L204.725 16.4219ZM209.462 24.501C209.73 24.2777 210.017 24.1559 210.346 24.1559C210.572 24.1559 210.809 24.2067 211.035 24.298C211.795 24.7547 212.165 25.8103 212.165 27.4647C212.165 29.383 212.463 30.4893 213.049 30.7734C213.347 31.0373 213.851 31.1591 214.58 31.1591C215.31 31.1591 215.793 31.0272 216.163 30.7734C216.626 30.5096 216.924 30.3066 217.047 30.1442C217.242 29.8498 217.458 29.4134 217.684 28.8247C217.982 28.1752 218.363 27.8504 218.815 27.8504C219.37 27.8504 219.812 28.094 220.12 28.5811C220.428 29.0683 220.593 29.7483 220.593 30.6314C220.593 31.9305 220.069 32.9658 219.01 33.7473C217.89 34.7521 216.482 35.2596 214.765 35.2596C213.512 35.2596 212.412 34.9957 211.456 34.478C209.514 33.5646 208.548 31.6971 208.548 28.8755C208.548 28.5202 208.579 27.9823 208.65 27.2718C208.846 25.6479 209.113 24.7243 209.442 24.4909L209.462 24.501ZM212.021 3.79588C212.319 3.50154 212.618 3.35945 212.905 3.35945C213.07 3.35945 213.316 3.44064 213.645 3.60304C214.303 3.98872 215.238 4.93263 216.461 6.42462C217.283 7.29748 217.756 8.0181 217.89 8.56618C217.921 8.62708 217.941 8.72857 217.941 8.86052C217.941 9.21575 217.746 9.53039 217.345 9.78413C217.047 9.97697 216.718 10.0785 216.358 10.0785C215.639 10.0785 214.848 9.64203 213.995 8.75902C213.501 8.33274 212.946 7.64257 212.319 6.66821C211.826 5.79535 211.579 5.17622 211.579 4.82099C211.579 4.4353 211.723 4.09022 212.021 3.79588Z" fill="#534741"/>
<path d="M237.622 14.179C237.622 12.8798 237.345 12.1795 236.78 12.0882C236.389 12.0273 235.485 12.0882 234.066 12.281C233.439 12.413 232.833 12.4739 232.237 12.4739L232.093 12.5246C231.99 12.5246 231.785 12.4231 231.456 12.2303C231.024 11.9664 230.88 11.5807 231.014 11.0631C231.045 10.5759 231.446 10.1699 232.196 9.84512C232.956 9.48989 233.573 9.226 234.066 9.0636C234.56 8.90121 235.053 8.79972 235.546 8.76927L235.937 8.71852L236.975 8.82001C238.486 8.95196 239.585 9.84512 240.284 11.4995C240.675 12.413 240.88 13.5497 240.88 14.9098C240.88 15.8537 240.777 16.8585 240.582 17.9343C240.387 19.132 240.14 20.1875 239.842 21.101C239.544 22.0145 239.369 22.5828 239.298 22.8061C238.938 24.2981 237.705 25.1304 235.598 25.2928H232.535C231.281 25.2928 230.541 25.3537 230.315 25.4856C230.12 25.6785 229.853 25.78 229.524 25.78C229.257 25.78 229.02 25.6886 228.804 25.5161C228.589 25.3435 228.455 25.0999 228.383 24.8056C228.157 24.2575 228.023 23.75 227.992 23.2933L227.849 21.2938C227.746 19.7308 227.684 18.4824 227.653 17.5385L227.551 15.7826L227.448 12.3216C227.417 12.1288 227.396 11.8547 227.396 11.4894C227.396 11.0022 227.458 10.4642 227.592 9.88572C227.694 9.42899 227.89 9.07375 228.188 8.80987C228.383 8.54598 228.65 8.42418 228.979 8.42418C229.308 8.42418 229.637 8.58657 229.966 8.91136C230.068 9.1042 230.14 9.51019 230.192 10.1293C230.243 10.7484 230.284 11.53 230.315 12.4637C230.315 12.8494 230.346 13.8644 230.418 15.4883C230.449 15.7522 230.469 16.1988 230.469 16.8483C230.531 18.5332 230.654 19.8526 230.839 20.7965C231.014 21.7404 231.405 22.2073 232.001 22.2073C234.858 22.2073 236.368 22.1566 236.543 22.0652C236.677 21.8724 236.79 21.3344 236.893 20.4616C236.923 20.0353 237.037 19.0812 237.242 17.5892L237.54 15.6913C237.602 15.3056 237.643 14.7981 237.643 14.179H237.622ZM234.375 15.7826C235.032 15.8435 235.485 15.9146 235.731 15.9755C235.978 16.0364 236.183 16.1988 236.348 16.4626C236.451 16.6555 236.492 16.8382 236.492 17.0006C236.492 17.4269 236.266 17.7516 235.803 17.9749C235.176 18.2997 234.344 18.4621 233.285 18.4621C232.237 18.4012 231.61 18.249 231.415 18.0257C231.25 17.8328 231.168 17.4776 231.168 16.9498C231.168 16.0059 232.237 15.6202 234.375 15.7826ZM242.36 32.0524C242.36 31.3419 242.525 30.3777 242.853 29.1801C243.45 26.7137 243.933 24.0038 244.313 21.0705C244.693 18.1272 244.878 15.4883 244.878 13.1539C244.878 12.1795 244.858 11.4691 244.827 11.0123C244.765 9.38839 244.724 8.43433 244.724 8.13999C244.724 7.29758 244.775 6.8104 244.868 6.67845C245.001 6.38412 245.125 6.18113 245.238 6.06948C245.351 5.95783 245.505 5.89694 245.711 5.89694C246.173 5.89694 246.584 6.19127 246.944 6.7698C247.961 8.52568 248.475 11.4589 248.475 15.5898C248.475 18.2185 248.095 21.8216 247.345 26.4092C246.851 29.4642 246.142 31.4434 245.228 32.3569C244.734 33.0775 244.241 33.4429 243.748 33.4733C243.152 33.4733 242.73 33.25 242.463 32.7933C242.401 32.6005 242.36 32.3569 242.36 32.0625V32.0524ZM249.616 13.6918C249.616 13.4685 249.657 13.2858 249.739 13.1539C249.822 13.0219 249.965 12.89 250.161 12.7682C250.592 12.413 251.826 12.2303 253.86 12.2303C254.683 12.2303 255.31 12.281 255.731 12.3724C256.224 12.5348 256.471 12.8798 256.471 13.3975C256.471 13.9151 256.214 14.3312 255.71 14.6357C255.207 14.9402 254.436 15.1838 253.419 15.3462C252.822 15.4071 252.432 15.4477 252.237 15.4477C250.654 15.4477 249.791 14.9605 249.626 13.9861V13.6918H249.616ZM250.058 5.74469C250.058 5.49095 250.161 5.28796 250.356 5.15602C250.459 4.96318 250.705 4.77033 251.096 4.56734C251.486 4.3745 252 4.21211 252.627 4.08016C254.272 3.72493 255.567 3.54224 256.522 3.54224C257.18 3.54224 257.694 3.60313 258.054 3.73508C258.907 4.05986 259.595 4.70944 260.099 5.6838C260.613 6.65816 260.993 8.0182 261.26 9.77407C261.753 13.4787 262 17.6704 262 22.3392C262 24.9984 261.918 27.2922 261.753 29.2105C261.486 32.4584 260.685 34.3868 259.338 35.0059C258.845 35.3307 258.372 35.4931 257.91 35.4931C257.714 35.4931 257.478 35.4423 257.221 35.351C256.759 35.0871 256.348 34.7623 255.988 34.3766C255.885 34.1838 255.772 33.9504 255.638 33.6966C255.505 33.4429 255.423 33.2399 255.392 33.1079C255.392 32.8441 255.433 32.6512 255.515 32.5193C255.597 32.3873 255.741 32.2554 255.937 32.1336C256.101 31.7783 256.399 31.6261 256.82 31.6972C257.016 31.7986 257.231 31.8392 257.458 31.8392C257.684 31.8392 257.838 31.8088 257.899 31.7378C258.002 31.4739 258.126 29.7383 258.269 26.5209C258.413 23.3035 258.496 20.624 258.496 18.4824C258.496 15.8232 258.331 13.3975 258.002 11.2255L257.858 10.109C257.663 8.48508 257.416 7.54117 257.118 7.28743C257.088 7.06414 256.44 6.94234 255.197 6.94234C254.539 6.94234 254.025 6.96264 253.665 6.99309C253.336 6.99309 252.915 7.01339 252.411 7.04384C251.908 7.07429 251.548 7.07429 251.353 7.04384C250.921 6.88145 250.644 6.73935 250.51 6.60741C250.212 6.22172 250.068 5.95783 250.068 5.82589V5.72439L250.058 5.74469ZM250.603 21.5374C250.767 21.2431 251.24 20.8879 252.031 20.4616C252.689 20.1063 253.244 19.8323 253.706 19.6598C254.169 19.4872 254.611 19.3959 255.042 19.3959C255.474 19.3959 255.823 19.5278 256.101 19.7816C256.378 20.0454 256.533 20.3296 256.574 20.6544C256.574 21.3649 255.587 22.258 253.614 23.3339C252.627 23.8515 251.939 24.1154 251.538 24.1154C251.435 24.1154 251.291 24.085 251.096 24.0139C250.87 23.882 250.654 23.7094 250.459 23.476C250.263 23.2527 250.161 23.0091 250.161 22.7452C250.161 22.2276 250.305 21.8216 250.603 21.5273V21.5374Z" fill="#534741"/>
</g>
<defs>
<clipPath id="clip0_64_1646">
<rect width="262" height="38" fill="white"/>
</clipPath>
</defs>
</svg>
