<svg width="396" height="43" viewBox="0 0 396 43" fill="none" xmlns="http://www.w3.org/2000/svg">
<g clip-path="url(#clip0_126_369)">
<path d="M38.8129 31.9087C38.6226 31.6496 38.5225 31.3806 38.5225 31.0916C38.5225 30.6431 38.7628 30.1847 39.2434 29.7064C40.0145 28.8494 41.1861 27.1752 42.7482 24.6839C44.2903 22.2923 45.0514 20.8872 45.0514 20.4786C45.0514 20.3192 44.4706 20.2394 43.319 20.2394C41.4965 20.2394 40.5753 19.791 40.5753 18.9041C40.5753 18.6151 40.6754 18.4058 40.8657 18.2863C41.086 18.1268 41.4464 17.9674 41.9271 17.8079C42.568 17.6186 43.309 17.4392 44.1401 17.2798L46.5434 16.8014C46.7036 16.7715 47.0541 16.1437 47.6048 14.9379C48.1155 13.762 48.3258 13.0844 48.2257 12.925C48.1957 12.8652 47.685 12.7456 46.6836 12.5861C45.9726 12.5562 45.4119 12.4466 45.0013 12.2473C44.7109 12.058 44.5707 11.769 44.5707 11.3903C44.5707 10.5931 45.502 10.055 47.3545 9.76597L49.177 9.47698L49.3672 8.57015C49.4674 8.03202 49.5074 7.63341 49.5074 7.37432C49.5074 7.08533 49.4574 6.92588 49.3672 6.89599C49.2371 6.76644 48.5361 6.70665 47.2544 6.70665C45.7824 6.70665 44.9112 6.56713 44.6608 6.27814C44.4005 5.92936 44.2803 5.61047 44.2803 5.32148C44.2803 5.00259 44.4906 4.6837 44.9012 4.36482C45.1916 4.17548 46.1228 3.90642 47.685 3.54767C49.2271 3.25868 50.7892 2.83017 52.3914 2.25219C54.0937 1.74396 55.3053 1.48486 56.0464 1.48486C57.0678 1.48486 57.5885 1.85358 57.5885 2.58104C57.5885 2.99958 57.3982 3.32843 57.0077 3.58753C56.7173 3.80676 55.756 4.27513 54.1237 4.9727C53.1324 5.35137 52.3313 5.69019 51.7205 5.97919C51.6904 6.00908 51.7705 6.53724 51.9608 7.55369L52.3012 9.03851H53.1224L56.1064 8.79935C56.3968 8.76945 56.7774 8.74952 57.258 8.74952C57.959 8.74952 58.4596 8.80931 58.75 8.93886C59.2307 9.06841 59.471 9.44709 59.471 10.0849C59.471 10.7226 59.1005 11.2209 58.3695 11.5697C57.6586 11.8587 56.1565 12.1477 53.8534 12.4267C52.6317 12.5861 51.9808 12.7256 51.8807 12.8552C51.7505 12.9847 51.5402 13.5428 51.2598 14.5294C50.9694 15.5159 50.8593 16.0441 50.9194 16.1039C51.0495 16.1637 52.8921 16.2035 56.4469 16.2035C60.0017 16.2035 62.1046 16.3131 62.5552 16.5423C63.1661 16.8911 63.4665 17.3595 63.4665 17.9275C63.4665 18.5354 63.1761 19.0237 62.6053 19.4123C62.1547 19.7013 59.8315 19.8907 55.6358 19.9903L49.2471 20.09L47.9553 22.671C46.0928 26.3083 44.1902 29.1085 42.2375 31.0916C41.3363 31.9885 40.6053 32.4269 40.0245 32.4269C39.4437 32.4269 39.0432 32.2475 38.8229 31.8988L38.8129 31.9087ZM46.984 35.5361C46.984 34.3901 47.004 33.4135 47.0341 32.6163C47.1342 30.2545 47.2544 28.6601 47.4146 27.833C47.5748 27.0955 47.7951 26.5773 48.0855 26.2584C48.3759 25.9396 48.6663 25.7801 48.9467 25.7801C49.2271 25.7801 49.4874 25.9196 49.7177 26.2086C49.908 26.4279 50.0281 26.8464 50.0782 27.4543C50.1283 28.0621 50.1683 29.0487 50.1984 30.4239L50.2485 31.9087L50.3886 37.0309L54.284 37.1704C54.9849 37.2003 55.8561 37.2202 56.8775 37.2202C57.8388 37.2202 58.3695 37.1704 58.4596 37.0807C58.6199 36.9511 58.73 36.6323 58.8001 36.124C58.8001 36.0941 58.8602 35.5361 58.9904 34.4499L59.2808 32.4867L59.9517 27.3646C59.9517 26.5375 59.6513 26.0691 59.0404 25.9794C58.9103 25.9495 58.6099 25.9296 58.1292 25.9296C57.1679 25.9296 55.6458 26.0292 53.563 26.2186C53.3427 26.2485 53.0523 26.2684 52.7018 26.2684C52.1911 26.2684 51.8506 26.1688 51.6904 25.9794C51.5302 25.7602 51.4501 25.5609 51.4501 25.4014C51.4501 25.3018 51.5102 25.1324 51.6403 24.8733C51.8306 24.4946 52.3012 24.1259 53.0322 23.7771C53.6731 23.4283 54.5243 23.1593 55.5757 22.9599C56.537 22.7706 57.4483 22.671 58.3195 22.671C59.0204 22.671 59.7114 22.7208 60.3823 22.8105C62.5652 23.1891 63.6467 24.4248 63.6467 26.4976C63.6467 27.6436 63.4565 29.6068 63.0659 32.3771C62.5853 35.9447 62.1547 38.1769 61.7742 39.0737C61.5539 39.6119 61.1633 40.0802 60.6226 40.4589C60.0418 40.7778 58.9603 40.8874 57.3581 40.7977C53.7332 40.6084 51.1597 40.2098 49.6176 39.6019C49.1069 39.3827 48.5762 38.994 48.0354 38.4559C47.5247 37.9477 47.1843 37.4494 47.0241 36.9711C46.994 36.8116 46.974 36.3333 46.974 35.5361H46.984ZM53.5129 27.9326C54.6645 27.6436 55.6758 27.5041 56.537 27.5041C57.4983 27.5041 58.1893 27.6635 58.5998 27.9824C58.9203 28.2017 59.0805 28.5206 59.0805 28.9391C59.0805 29.4174 58.8702 29.7562 58.4596 29.9456C57.4983 30.4837 55.8761 30.7627 53.603 30.7627C52.7318 30.7627 52.1611 30.6631 51.8707 30.4737C51.42 30.1847 51.1997 29.836 51.1997 29.4174C51.1997 29.1982 51.2999 28.9889 51.4901 28.7996C51.8106 28.4807 52.4815 28.1917 53.5129 27.9426V27.9326ZM54.0937 32.4269C54.6344 32.3273 55.1351 32.2874 55.5857 32.2874C56.4569 32.2874 57.1879 32.4668 57.7987 32.8156C58.1192 33.0348 58.2794 33.3936 58.2794 33.8719C58.2794 34.8584 57.3782 35.3567 55.5857 35.3567C53.4728 35.3567 52.4114 34.8584 52.4114 33.8719C52.4114 33.1046 52.9722 32.6262 54.0937 32.4369V32.4269Z" fill="#534741"/>
<path d="M77.6959 31.9087C77.5056 31.6496 77.4055 31.3806 77.4055 31.0916C77.4055 30.6431 77.6458 30.1847 78.1265 29.7064C78.8975 28.8494 80.0691 27.1752 81.6313 24.6839C83.1734 22.2923 83.9344 20.8872 83.9344 20.4786C83.9344 20.3192 83.3536 20.2394 82.2021 20.2394C80.3796 20.2394 79.4583 19.791 79.4583 18.9041C79.4583 18.6151 79.5584 18.4058 79.7487 18.2863C79.969 18.1268 80.3295 17.9674 80.8102 17.8079C81.451 17.6186 82.192 17.4392 83.0232 17.2798L85.4264 16.8014C85.5867 16.7715 85.9372 16.1437 86.4879 14.9379C86.9986 13.762 87.2089 13.0844 87.1087 12.925C87.0787 12.8652 86.568 12.7456 85.5666 12.5861C84.8657 12.5562 84.3049 12.4466 83.8843 12.2473C83.594 12.058 83.4538 11.769 83.4538 11.3903C83.4538 10.5931 84.385 10.055 86.2376 9.76597L88.06 9.47698L88.2503 8.57015C88.3504 8.03202 88.3905 7.63341 88.3905 7.37432C88.3905 7.08533 88.3404 6.92588 88.2503 6.89599C88.1201 6.76644 87.4192 6.70665 86.1374 6.70665C84.6654 6.70665 83.7942 6.56713 83.5439 6.27814C83.2835 5.92936 83.1634 5.61047 83.1634 5.32148C83.1634 5.00259 83.3737 4.6837 83.7842 4.36482C84.0746 4.17548 85.0059 3.90642 86.578 3.54767C88.1201 3.25868 89.6823 2.83017 91.2844 2.25219C92.9868 1.74396 94.1984 1.48486 94.9394 1.48486C95.9608 1.48486 96.4815 1.85358 96.4815 2.58104C96.4815 2.99958 96.2913 3.32843 95.9007 3.58753C95.6103 3.80676 94.649 4.27513 93.0168 4.9727C92.0255 5.35137 91.2244 5.69019 90.6135 5.97919C90.5835 6.00908 90.6636 6.53724 90.8539 7.55369L91.1943 9.03851H92.0154L94.9995 8.79935C95.2899 8.76945 95.6704 8.74952 96.1511 8.74952C96.852 8.74952 97.3527 8.80931 97.6431 8.93886C98.1238 9.06841 98.3641 9.44709 98.3641 10.0849C98.3641 10.7226 97.9936 11.2209 97.2626 11.5697C96.5616 11.8587 95.0496 12.1477 92.7464 12.4267C91.5248 12.5861 90.8739 12.7256 90.7737 12.8552C90.6436 12.9847 90.4333 13.5428 90.1529 14.5294C89.8625 15.5159 89.7524 16.0441 89.8124 16.1039C89.9426 16.1637 91.7851 16.2035 95.34 16.2035C98.8948 16.2035 100.998 16.3131 101.448 16.5423C102.059 16.8911 102.36 17.3595 102.36 17.9275C102.36 18.5354 102.069 19.0237 101.498 19.4123C101.048 19.7013 98.7246 19.8907 94.5289 19.9903L88.1402 20.09L86.8384 22.671C84.9758 26.3083 83.0732 29.1085 81.1206 31.0916C80.2194 31.9885 79.4884 32.4269 78.9076 32.4269C78.3268 32.4269 77.9262 32.2475 77.7059 31.8988L77.6959 31.9087ZM85.8671 35.5361C85.8671 34.3901 85.8871 33.4135 85.9171 32.6163C86.0173 30.2545 86.1374 28.6601 86.2976 27.833C86.4579 27.0955 86.6782 26.5773 86.9686 26.2584C87.259 25.9396 87.5493 25.7801 87.8297 25.7801C88.1101 25.7801 88.3705 25.9196 88.6008 26.2086C88.791 26.4279 88.9112 26.8464 88.9613 27.4543C89.0113 28.0621 89.0514 29.0487 89.0814 30.4239L89.1315 31.9087L89.2717 37.0309L93.167 37.1704C93.868 37.2003 94.7391 37.2202 95.7605 37.2202C96.7219 37.2202 97.2526 37.1704 97.3427 37.0807C97.5029 36.9511 97.6131 36.6323 97.6832 36.124C97.6832 36.0941 97.7432 35.5361 97.8734 34.4499L98.1638 32.4867L98.8347 27.3646C98.8347 26.5375 98.5343 26.0691 97.9235 25.9794C97.7933 25.9495 97.4929 25.9296 97.0122 25.9296C96.0509 25.9296 94.5289 26.0292 92.446 26.2186C92.2257 26.2485 91.9353 26.2684 91.5848 26.2684C91.0742 26.2684 90.7337 26.1688 90.5735 25.9794C90.4132 25.7602 90.3331 25.5609 90.3331 25.4014C90.3331 25.3018 90.3932 25.1324 90.5234 24.8733C90.7137 24.4946 91.1843 24.1259 91.9153 23.7771C92.5562 23.4283 93.4073 23.1593 94.4588 22.9599C95.4201 22.7706 96.3313 22.671 97.2025 22.671C97.9035 22.671 98.5944 22.7208 99.2653 22.8105C101.448 23.1891 102.53 24.4248 102.53 26.4976C102.53 27.6436 102.34 29.6068 101.949 32.3771C101.468 35.9447 101.038 38.1769 100.647 39.0737C100.427 39.6119 100.036 40.0802 99.4956 40.4589C98.9148 40.7778 97.8334 40.8874 96.2312 40.7977C92.6062 40.6084 90.0327 40.2098 88.4906 39.6019C87.9799 39.3827 87.4492 38.994 86.9085 38.4559C86.3978 37.9477 86.0573 37.4494 85.8971 36.9711C85.8671 36.8116 85.847 36.3333 85.847 35.5361H85.8671ZM92.406 27.9326C93.5575 27.6436 94.5689 27.5041 95.4301 27.5041C96.3914 27.5041 97.0823 27.6635 97.4929 27.9824C97.8133 28.2017 97.9736 28.5206 97.9736 28.9391C97.9736 29.4174 97.7633 29.7562 97.3527 29.9456C96.3914 30.4837 94.7692 30.7627 92.4961 30.7627C91.6349 30.7627 91.0541 30.6631 90.7637 30.4737C90.3131 30.1847 90.0928 29.836 90.0928 29.4174C90.0928 29.1982 90.193 28.9889 90.3832 28.7996C90.7037 28.4807 91.3746 28.1917 92.406 27.9426V27.9326ZM92.9767 32.4269C93.5175 32.3273 94.0182 32.2874 94.4688 32.2874C95.33 32.2874 96.071 32.4668 96.6818 32.8156C97.0022 33.0348 97.1625 33.3936 97.1625 33.8719C97.1625 34.8584 96.2612 35.3567 94.4688 35.3567C92.3559 35.3567 91.2945 34.8584 91.2945 33.8719C91.2945 33.1046 91.8552 32.6262 92.9767 32.4369V32.4269Z" fill="#534741"/>
<path d="M115.908 39.7215C115.527 39.6717 115.197 39.5521 114.947 39.3628C114.526 39.0738 114.326 38.7449 114.326 38.3563C114.326 38.0075 114.496 37.6986 114.857 37.4494C115.147 37.2302 115.738 37.0708 116.639 36.9711C117.921 36.8416 118.642 36.6722 118.802 36.443C118.962 36.2835 119.042 35.566 119.042 34.2905C119.042 33.0149 119.122 32.0383 119.283 31.4703C119.413 31.0518 119.793 30.6432 120.434 30.2246C121.295 29.6467 122.497 29.2082 124.039 28.8893C125.581 28.5704 127.564 28.3113 129.997 28.122C132.941 27.9326 135.224 27.833 136.826 27.833C138.589 27.833 139.71 27.9426 140.191 28.1718C140.802 28.4309 141.222 28.8793 141.463 29.537C141.703 30.1947 141.823 31.0119 141.823 31.9985C141.823 32.7957 141.773 33.6228 141.683 34.4898L141.543 35.9746L143.175 36.1141C144.197 36.2138 144.908 36.3533 145.288 36.5426C145.869 36.8316 146.109 37.3199 146.009 38.0274C145.879 38.7649 145.528 39.2432 144.958 39.4624C144.537 39.6518 141.463 39.7514 135.725 39.7514H130.868L125.201 39.8012H118.091C117.029 39.8012 116.309 39.7813 115.928 39.7315L115.908 39.7215ZM116.148 12.4865C116.148 12.1078 116.248 11.8288 116.439 11.6694C116.659 11.4501 117.16 11.1412 117.931 10.7625C119.112 10.0949 121.245 8.55025 124.319 6.11874C126.653 4.30506 128.085 3.22882 128.595 2.90993C129.016 2.65083 129.346 2.53125 129.607 2.53125C129.867 2.53125 130.197 2.6309 130.618 2.84017C131.039 3.04944 131.319 3.17899 131.479 3.24875L132.731 3.91642C133.983 4.58409 135.855 5.62047 138.359 7.02557C140.311 8.17157 141.353 8.80935 141.483 8.9389C141.863 9.31758 142.064 9.68629 142.064 10.0351C142.064 10.354 141.923 10.6529 141.633 10.9419C141.343 11.2309 140.962 11.3704 140.481 11.3704C139.841 11.3704 138.749 11.0216 137.217 10.3141C135.775 9.67633 134.503 9.00865 133.422 8.30112C132.11 7.5039 131.099 6.76648 130.398 6.0988L129.777 5.43113L128.145 7.00564C125.551 9.45709 123.278 11.3106 121.315 12.5563C119.873 13.4532 118.652 13.8916 117.66 13.8916C116.759 13.8916 116.268 13.5129 116.168 12.7456V12.4566L116.148 12.4865ZM122.247 34.4399L122.297 36.2138H125.711L125.811 34.6791C125.842 33.9417 125.982 33.3936 126.242 33.0249C126.502 32.6562 126.823 32.4768 127.203 32.4768C127.524 32.4768 127.824 32.6661 128.115 33.0548C128.375 33.4334 128.495 33.8719 128.495 34.3503C128.495 35.0877 128.625 35.5461 128.876 35.7354C129.006 35.865 129.296 35.9248 129.747 35.9248C130.067 35.9248 130.308 35.9048 130.468 35.8749L131.81 35.7354L131.95 34.4898C132.05 33.6328 132.29 33.0847 132.671 32.8654C132.961 32.6761 133.202 32.5764 133.392 32.5764C133.642 32.5764 133.933 32.7359 134.253 33.0548C134.634 33.4733 134.834 33.9815 134.834 34.5894C134.834 35.2272 134.974 35.6457 135.264 35.8351C135.525 36.0244 136.045 36.0942 136.847 36.0244L137.908 35.9746V31.57H136.416C135.004 31.57 134.033 31.5899 133.482 31.6198C127.013 32.0682 123.548 32.3572 123.098 32.4768L122.136 32.716L122.237 34.4399H122.247ZM123.138 20.4687C123.218 19.9306 123.318 19.5618 123.448 19.3725C123.608 19.0237 123.959 18.7048 124.51 18.4158C124.99 18.1567 125.681 17.9076 126.573 17.6485C127.304 17.4293 128.155 17.23 129.116 17.0705C130.588 16.941 131.569 16.8812 132.05 16.8812C133.232 16.8812 134.083 17.0207 134.593 17.3097C135.655 17.8478 136.136 19.1732 136.035 21.2759C135.875 22.9998 135.525 24.1658 134.974 24.7637C134.303 25.531 133.222 26.0093 131.75 26.1987C131.039 26.2585 130.498 26.2983 130.117 26.2983C129.476 26.2983 128.826 26.2485 128.145 26.1588C126.703 25.9695 125.561 25.7104 124.73 25.3915C124.019 25.0427 123.548 24.6142 123.288 24.096C123.098 23.7173 122.998 23.1693 122.998 22.4717C122.998 21.6745 123.038 21.0068 123.118 20.4587L123.138 20.4687ZM125.371 13.1044C125.371 12.6858 125.501 12.4168 125.751 12.2872C126.392 11.8089 127.644 11.3903 129.497 11.0416C129.627 11.0117 129.847 10.9917 130.167 10.9917C130.358 10.9917 130.838 11.0216 131.609 11.0914C132.571 11.191 133.242 11.3505 133.632 11.5697C134.143 11.8587 134.453 12.2673 134.543 12.8154V13.0047C134.543 13.3535 134.303 13.6624 133.822 13.9116C133.372 14.1308 132.03 14.2902 129.787 14.3899C129.406 14.4198 128.886 14.4397 128.245 14.4397C126.993 14.4397 126.222 14.3401 125.942 14.1507C125.621 13.9315 125.431 13.6226 125.361 13.2439V13.1044H125.371ZM126.242 22.671H129.076C130.618 22.671 131.579 22.5913 131.96 22.4318C132.28 22.2724 132.41 21.8538 132.34 21.1862L132.29 20.4687L129.747 20.4189C128.075 20.3591 127.053 20.4188 126.673 20.6082C126.482 20.668 126.332 20.7975 126.242 20.9869C126.142 21.1762 126.112 21.4154 126.142 21.7044L126.242 22.661V22.671Z" fill="#534741"/>
<path d="M165.265 34.1511C165.045 33.6429 164.925 33.2542 164.925 33.0051C164.925 32.4969 165.165 32.1481 165.646 31.9488C165.776 31.889 165.906 31.8491 166.026 31.8491C166.377 31.8491 166.847 31.9887 167.418 32.2776C168.059 32.5965 168.41 32.756 168.48 32.756C168.64 32.756 168.85 32.6264 169.101 32.3773C170.002 31.4804 170.412 29.5571 170.352 26.5875L170.252 22.4719H164.104C162.181 22.4719 160.649 22.422 159.517 22.3323C158.376 22.2327 157.715 22.143 157.525 22.0434C157.335 21.8839 157.234 21.6148 157.234 21.2262C157.234 20.5884 157.575 20.1101 158.246 19.7912C159.688 19.1235 162.231 18.7847 165.886 18.7847C167.228 18.7847 168.179 18.705 168.72 18.5456C168.98 18.416 169.121 18.3064 169.151 18.2067V18.0672C169.151 17.9078 169.101 17.7184 169.01 17.4892C168.95 17.2301 168.91 17.0308 168.91 16.8714C168.91 15.7553 169.631 14.3203 171.073 12.5664C172.325 10.9421 173.216 9.74625 173.767 8.97892L174.778 7.4941L174.107 7.20511C173.757 7.04567 173.006 6.96595 171.844 6.96595C170.793 6.96595 169.922 6.99584 169.251 7.0656C166.527 7.3247 164.504 7.64358 163.192 8.02226C162.652 8.18171 162.091 8.32122 161.51 8.45077C161.25 8.45077 161.03 8.34115 160.839 8.11195C160.489 7.76317 160.309 7.42435 160.309 7.10546C160.309 6.43779 161.19 5.72029 162.952 4.95297C165.456 3.83686 168.45 3.27881 171.944 3.27881C174.187 3.27881 175.9 3.5379 177.091 4.04613C177.672 4.33512 178.083 4.73373 178.343 5.24196C178.724 5.84984 178.924 6.40789 178.924 6.91612C178.924 7.61369 178.543 8.58032 177.792 9.80604C177.041 11.0318 175.88 12.6661 174.308 14.7089L172.966 16.4329L173.346 17.4892L173.777 18.5456H176.571C180.416 18.5456 182.749 18.8644 183.59 19.5022C184.071 19.9208 184.311 20.3592 184.311 20.8376C184.311 21.3458 184.091 21.7743 183.64 22.133C183.26 22.422 182.859 22.5815 182.439 22.6114C182.148 22.6413 181.788 22.6512 181.357 22.6313C180.927 22.6114 180.466 22.6114 179.985 22.6114C179.765 22.5815 179.395 22.5615 178.884 22.5615L174.848 22.4619L174.708 27.1954C174.608 30.165 173.987 32.5666 172.836 34.4202C171.934 35.8552 170.783 36.5727 169.371 36.5727C169.081 36.5727 168.86 36.5527 168.7 36.5228C167.128 36.2637 165.996 35.4665 165.285 34.1312L165.265 34.1511Z" fill="#534741"/>
<path d="M193.384 28.7501C193.384 28.3715 193.494 28.0027 193.724 27.654C193.884 27.365 194.665 26.2987 196.077 24.4452C199.121 20.4591 200.664 18.2567 200.694 17.8482C200.694 17.599 199.953 17.5094 198.481 17.609C197.229 17.6688 196.338 17.609 195.787 17.4197C195.336 17.2303 195.096 16.8815 195.066 16.3634V16.1242C195.066 15.7754 195.146 15.4864 195.306 15.2672C195.657 14.8187 197.599 14.3603 201.124 13.882C201.475 13.7824 201.825 13.7425 202.186 13.7425C202.506 13.7425 202.927 13.8023 203.437 13.9318C204.018 14.0315 204.539 14.2806 205.02 14.6992C205.4 15.2373 205.55 15.7654 205.45 16.2737C205.45 17.609 204.489 19.6718 202.566 22.4421L201.365 24.1661L201.655 25.8403C201.915 27.1158 202.035 29.1886 202.035 32.0586C202.035 33.8424 201.955 35.0282 201.795 35.5963C201.415 36.812 200.804 37.4099 199.973 37.4099L199.392 37.3103C198.911 37.1508 198.571 36.7223 198.38 36.0148C198.25 35.5365 198.19 34.7393 198.19 33.6231L198.24 31.8095L198.29 29.7566C198.29 28.6405 198.23 28.0825 198.1 28.0825C198.07 28.0825 197.599 28.4512 196.708 29.1786C195.967 29.9161 195.366 30.2748 194.886 30.2748C194.245 30.2748 193.794 30.0058 193.544 29.4577C193.444 29.2683 193.404 29.0292 193.404 28.7402L193.384 28.7501ZM198.24 4.40507C198.531 4.11608 198.831 3.97656 199.152 3.97656C199.602 3.97656 200.143 4.29545 200.784 4.93323C202.126 6.36822 202.807 7.67367 202.807 8.85953C202.807 9.14852 202.786 9.35779 202.756 9.47737C202.496 10.0155 202.136 10.3045 201.655 10.3344C201.495 10.3344 201.044 9.99557 200.313 9.32789C199.412 8.43102 198.841 7.76335 198.581 7.31492C198.23 6.83659 197.99 6.27853 197.86 5.64076C197.86 4.97309 197.99 4.55455 198.24 4.3951V4.40507ZM203.067 24.774C203.277 24.5249 203.568 24.3953 203.958 24.3953L204.539 24.495H204.679C205 24.495 205.26 24.2857 205.45 23.8771C205.801 23.2394 206.171 22.7411 206.552 22.3923C207.002 21.9439 207.403 21.7246 207.753 21.7246C208.074 21.7246 208.374 21.8841 208.665 22.203C208.855 22.3923 208.955 22.6315 208.955 22.9205C208.955 23.4985 208.634 24.2957 207.994 25.3121C207.483 26.1094 207.223 26.5578 207.223 26.6475C207.223 26.7073 207.563 26.9664 208.234 27.4148C208.905 27.8931 209.245 28.3515 209.245 28.8C209.245 29.1786 209.005 29.5673 208.524 29.946C208.104 30.2051 207.673 30.3246 207.223 30.3246C206.842 30.3246 206.401 30.225 205.921 30.0357C204.929 29.5573 204.108 28.8099 203.467 27.7835C202.987 27.0162 202.746 26.3685 202.746 25.8204C202.746 25.3719 202.847 25.0231 203.057 24.764L203.067 24.774ZM213.962 36.6924C213.611 36.3735 213.401 36.0846 213.341 35.8354C213.341 35.4567 213.561 35.098 214.012 34.7791C214.432 34.3606 215.053 34.0915 215.884 33.962C216.015 33.9321 216.175 33.8922 216.385 33.8424C216.595 33.7926 216.856 33.7527 217.176 33.7228C217.467 33.6929 217.737 33.663 217.997 33.6231C218.258 33.5833 218.448 33.5634 218.578 33.5235C218.768 33.4637 218.959 32.8359 219.159 31.66C219.189 31.371 219.209 31.0023 219.209 30.5638C219.209 30.0855 219.179 29.7865 219.109 29.657C219.009 29.4975 218.808 29.3979 218.488 29.3481C218.167 29.2982 217.507 29.2584 216.515 29.2285C215.874 29.1986 215.444 29.1089 215.223 28.9694C215.003 28.8299 214.873 28.5309 214.843 28.0825C214.843 27.7636 215.153 27.4846 215.784 27.2454C216.405 27.0062 217.186 26.8269 218.117 26.6973C218.378 26.6674 218.618 26.5977 218.858 26.4781C219.099 26.3685 219.249 26.2588 219.319 26.1691C219.509 25.8503 219.609 25.1527 219.609 24.0665L219.66 22.1033L216.485 21.914C215.654 21.8841 214.953 21.7645 214.392 21.5552C213.832 21.346 213.451 21.0968 213.261 20.8178C212.81 20.1202 212.59 18.5358 212.59 16.0843C212.56 15.5761 212.54 14.8885 212.54 14.0315C212.54 12.7858 212.6 11.9587 212.73 11.5402C212.92 10.743 213.381 10.0753 214.122 9.5272C215.534 8.31144 218.658 7.51422 223.495 7.13554C223.815 7.10565 224.266 7.08572 224.837 7.08572C225.898 7.08572 226.659 7.22523 227.14 7.51422C227.52 7.73346 227.861 8.20182 228.151 8.89939C228.502 9.59696 228.682 10.5536 228.682 11.7694C228.682 13.4635 228.542 15.1376 228.251 16.7919C228.061 17.7485 227.961 18.5457 227.961 19.1835C227.961 20.1402 227.59 20.778 226.859 21.0968C226.319 21.3161 225.528 21.4954 224.506 21.625C223.605 21.7246 223.034 21.8442 222.774 22.0037C222.674 22.1332 222.634 22.4123 222.634 22.8408V25.6908L224.216 25.8802C225.047 25.9798 225.658 26.1193 226.038 26.3087C226.228 26.4681 226.359 26.7571 226.419 27.1657C226.419 27.6739 226.228 28.0825 225.838 28.3814C225.457 28.6804 224.847 28.8996 224.015 29.0292C223.114 29.1288 222.553 29.2883 222.333 29.5075C222.143 29.7267 222.043 30.3645 222.043 31.4208L221.993 33.1946L226.459 33.2445C228.832 33.2744 230.414 33.4039 231.215 33.6231C231.536 33.6829 231.756 33.8324 231.886 34.0516C232.016 34.2709 232.076 34.6097 232.076 35.0581C232.076 35.8853 231.726 36.4333 231.015 36.6825C230.665 36.7821 227.781 36.9017 222.363 37.0611L216.165 37.2007C215.073 37.2007 214.342 37.0213 213.952 36.6725L213.962 36.6924ZM215.594 14.0116L216.936 13.9617C217.897 13.9019 218.478 13.8023 218.668 13.6727C218.798 13.4535 218.848 13.015 218.808 12.3773L218.758 11.0818L217.847 11.0319C217.557 11.0021 217.246 11.032 216.906 11.1017C216.565 11.1715 216.335 11.2412 216.205 11.2711C215.884 11.3309 215.674 11.4106 215.584 11.5103C215.554 11.6398 215.534 12.0384 215.534 12.7061L215.584 14.0016L215.594 14.0116ZM215.924 17.9379C216.025 18.4162 216.115 18.6853 216.215 18.755C216.275 18.8148 216.555 18.8547 217.036 18.8547C217.867 18.8547 218.398 18.755 218.618 18.5657C218.748 18.466 218.828 18.2866 218.878 18.0176C218.929 17.7485 218.918 17.5293 218.848 17.3698C218.818 16.9912 218.208 16.762 217.026 16.7022L215.774 16.6025L215.914 17.9379H215.924ZM221.842 10.9522L221.943 12.2477L222.083 13.3439L225.107 13.3937L225.057 10.8127L223.234 10.7131H222.654C222.233 10.7131 221.963 10.743 221.832 10.8127V10.9522H221.842ZM222.303 18.2966C222.543 18.5059 223.044 18.6055 223.815 18.6055C224.426 18.6055 224.807 18.4859 224.967 18.2468C225.127 18.0076 225.237 17.7087 225.307 17.3599C225.307 17.1406 225.127 16.9314 224.776 16.742C224.426 16.5527 223.915 16.453 223.234 16.453C222.814 16.453 222.493 16.5427 222.273 16.7121C222.053 16.8915 221.933 17.1008 221.933 17.3599C221.933 17.7784 222.053 18.0873 222.293 18.2966H222.303Z" fill="#534741"/>
<path d="M241.259 26.1189C240.808 26.1189 240.428 25.9096 240.107 25.501C239.947 25.3117 239.867 25.0725 239.867 24.7836C239.867 24.4348 239.997 24.1159 240.248 23.8269C240.979 22.8104 242.461 20.4786 244.674 16.8413C246.726 13.463 247.748 11.5298 247.748 11.0515C247.748 10.6329 246.466 10.4336 243.903 10.4336C243.392 10.4336 242.951 10.3937 242.581 10.314C242.21 10.2343 241.99 10.1745 241.93 10.1446C241.609 10.1147 241.449 9.90545 241.449 9.52677C241.449 9.04844 241.78 8.60997 242.431 8.21136C243.091 7.81275 243.993 7.61345 245.144 7.61345L246.296 7.51379L247.598 7.37428C247.758 7.34439 247.908 7.33442 248.058 7.35435C248.198 7.37428 248.319 7.35435 248.419 7.33442C248.769 7.23477 249.04 7.14508 249.23 7.04543C249.42 6.94578 249.58 6.78633 249.71 6.5671C250.221 5.67023 250.672 4.65377 251.052 3.50777C251.273 2.8401 251.493 2.25215 251.703 1.73396C251.913 1.22573 252.084 0.906843 252.204 0.777295C252.424 0.558059 252.705 0.438477 253.025 0.438477C253.345 0.438477 253.616 0.518198 253.846 0.677642C254.106 0.99653 254.227 1.42503 254.227 1.97312C254.227 2.581 254.086 3.38819 253.796 4.41461C253.696 4.89294 253.636 5.30151 253.606 5.63037C253.576 5.96918 253.526 6.22828 253.466 6.41762L253.225 7.18494L258.032 7.13512H260.335C260.685 7.13512 261.036 7.13512 261.366 7.11519C261.707 7.09525 261.997 7.11519 262.258 7.13512C262.608 7.16501 262.929 7.32446 263.219 7.61345C263.509 7.90244 263.65 8.2014 263.65 8.52028C263.65 8.86907 263.469 9.25771 263.119 9.66629C262.538 10.334 260.045 10.6728 255.619 10.6728H251.723L250.181 13.9214C249.731 14.908 249.28 15.8547 248.809 16.7715C248.349 17.6783 247.918 18.4257 247.538 18.9937C247.187 19.5717 246.917 20.0002 246.746 20.2892C246.566 20.5782 246.466 20.7476 246.436 20.8174C246.436 20.8772 246.116 21.4253 245.475 22.4417C244.704 23.498 244.033 24.2953 243.452 24.8334C242.751 25.5309 242.19 25.9296 241.77 26.0292C241.509 26.089 241.339 26.1289 241.239 26.1289L241.259 26.1189ZM246.546 35.3467C246.546 34.9979 246.626 34.39 246.787 33.533C246.977 32.9252 247.187 31.54 247.407 29.3676L247.548 27.7931L247.838 25.0227C247.998 23.2389 248.128 22.1727 248.218 21.8139C248.379 21.3057 248.679 20.7576 249.13 20.1896C249.45 19.771 249.931 19.4522 250.572 19.213C251.213 18.9738 252.144 18.7147 253.355 18.4257C254.377 18.2065 255.338 17.9474 256.239 17.6584C256.4 17.5986 256.83 17.5588 257.541 17.5588H259.033C260.505 17.5588 261.807 17.8776 262.929 18.5154C263.7 18.934 264.34 19.8508 264.851 21.2858C265.111 22.1428 265.232 23.4881 265.232 25.3017C265.232 26.6072 265.152 28.5703 264.991 31.1812C264.801 34.0512 264.561 35.9048 264.27 36.7319C263.98 37.7583 263.449 38.4359 262.688 38.7847C262.268 39.0039 261.837 39.1235 261.386 39.1235C260.645 39.1235 260.025 38.7747 259.514 38.0672C259.033 37.5291 258.793 36.981 258.793 36.4429C258.793 35.546 259.053 35.0677 259.564 35.0079H259.664C259.824 35.0079 259.964 35.0278 260.095 35.0776C260.225 35.1275 260.335 35.1474 260.435 35.1474C260.695 35.1474 260.846 34.988 260.916 34.6691C260.976 34.3502 261.016 33.7423 261.016 32.8554C261.016 31.6795 261.046 30.673 261.116 29.8459C261.276 27.2649 261.356 25.2021 261.356 23.6774C261.326 23.0097 261.266 22.4915 261.186 22.1228C261.106 21.7541 260.966 21.5249 260.776 21.4253C260.485 21.1662 260.165 21.0267 259.814 20.9968C259.684 20.9669 259.284 20.9469 258.613 20.9469C257.741 20.9469 257.01 20.9669 256.4 20.9968C253.836 21.0267 252.314 21.1562 251.833 21.3754L251.253 21.6146L251.203 25.5409C251.142 28.6002 251.012 30.7029 250.822 31.8589C250.662 32.9451 250.482 33.832 250.291 34.5395C250.101 35.2471 249.841 35.7951 249.52 36.2137C249.1 36.7518 248.649 37.0308 248.178 37.0308C247.858 37.0308 247.568 36.971 247.307 36.8415C246.927 36.682 246.686 36.3632 246.586 35.8848C246.556 35.7852 246.536 35.6158 246.536 35.3567L246.546 35.3467ZM255.388 23.3884C256.159 23.0994 256.8 22.9599 257.311 22.9599C257.892 22.9599 258.382 23.1194 258.803 23.4382C259.093 23.6575 259.233 23.9963 259.233 24.4447C259.233 24.7636 259.073 25.1124 258.753 25.501C258.563 25.7601 258.012 26.0093 257.121 26.2684C256.51 26.4577 255.759 26.5574 254.858 26.5574H254.427C254.106 26.5574 253.836 26.4577 253.606 26.2684C253.095 25.8498 252.835 25.501 252.835 25.2121C252.835 24.6042 253.686 23.9963 255.378 23.3984L255.388 23.3884ZM252.845 30.374C252.845 29.7961 253.375 29.3676 254.427 29.0786C255.388 28.8195 256.169 28.6999 256.78 28.6999C257 28.6999 257.311 28.7298 257.691 28.7995C258.462 28.9889 258.843 29.3875 258.843 29.9954C258.843 31.0118 257.882 31.6197 255.959 31.809C255.699 31.8389 255.378 31.8589 254.998 31.8589C254.096 31.8589 253.476 31.6197 253.125 31.1414C252.935 30.8524 252.835 30.6032 252.835 30.374H252.845Z" fill="#534741"/>
<path d="M277.408 22.8405C277.629 22.5416 277.869 22.2327 278.109 21.9337C278.35 21.6347 278.55 21.3856 278.71 21.1963C279.291 20.4987 280.092 19.4424 281.113 18.0373C282.746 15.7752 284.027 13.9217 284.959 12.4867L285.97 10.9121C287.382 8.70983 288.153 7.514 288.273 7.32466C288.624 6.74668 288.914 6.34807 289.134 6.12884C289.324 5.9395 289.585 5.83984 289.905 5.83984C290.867 5.83984 291.267 6.55734 291.107 7.99234C291.077 8.37101 290.927 8.83938 290.676 9.3775C290.426 9.91563 290.015 10.6531 289.475 11.5798L287.933 14.4498C287.772 14.7687 287.352 15.4663 286.681 16.5525C286.651 16.5824 286.15 17.3696 285.189 18.8943C283.967 20.8375 282.675 22.4021 281.294 23.578C280.142 24.5346 279.211 25.013 278.5 25.013C278.019 25.013 277.659 24.8834 277.418 24.6343C277.178 24.3752 277.058 24.0164 277.058 23.5381C277.058 23.3787 277.168 23.1495 277.398 22.8405H277.408ZM286.06 19.1335C286.32 18.974 286.571 18.8943 286.831 18.8943C287.091 18.8943 287.412 19.0039 287.792 19.2331C288.113 19.4225 288.353 20.1599 288.513 21.4354C288.613 22.2327 288.734 24.6044 288.894 28.5606C288.894 28.9393 288.924 29.4575 288.994 30.0952L289.044 31.5302C289.044 31.7893 289.044 32.1281 289.074 32.5566C289.094 32.9851 289.074 33.3439 289.044 33.6329C289.014 33.9817 288.984 34.2707 288.974 34.4899C288.954 34.7091 288.934 34.8885 288.904 35.0181C288.844 35.4665 288.774 35.7555 288.714 35.8751C288.654 35.9747 288.593 36.0744 288.543 36.184C288.493 36.2936 288.443 36.3833 288.373 36.4431C288.303 36.5029 288.213 36.5527 288.083 36.5826C287.953 36.6125 287.862 36.6424 287.792 36.6823C287.602 36.7819 287.412 36.8218 287.212 36.8218C287.011 36.8218 286.761 36.762 286.441 36.6324C285.93 36.4431 285.579 36.1342 285.389 35.7256C285.069 35.028 284.908 33.2542 284.908 30.4141C284.908 29.7763 284.938 28.4011 285.009 26.2985C285.169 21.834 285.519 19.4424 286.07 19.1235L286.06 19.1335ZM303.984 35.1576C303.724 34.7789 303.554 34.0415 303.454 32.9553C303.354 31.5203 303.314 30.0255 303.314 28.4609C303.314 27.1256 303.334 26.0394 303.364 25.2123L303.414 22.4419L301.832 22.5416C300.9 22.5715 299.879 22.701 298.757 22.9203C298.277 23.0199 297.856 23.0598 297.506 23.0598C296.254 23.0598 295.633 22.5515 295.633 21.5251C295.633 21.0767 295.843 20.6482 296.254 20.2296C296.514 19.9705 296.975 19.7314 297.646 19.5121L298.657 19.2232C299.198 19.0338 299.669 18.9043 300.049 18.8445C300.72 18.685 301.411 18.5754 302.112 18.5057C302.913 18.5057 303.394 18.396 303.554 18.1668C303.714 17.9775 303.814 16.6322 303.844 14.1509C303.844 11.6994 303.984 10.2744 304.275 9.8957C304.625 9.44726 305.046 9.22802 305.527 9.22802C305.947 9.25792 306.248 9.35757 306.438 9.51702C306.498 9.54691 306.628 9.78608 306.818 10.2345C307.139 10.8723 307.399 12.3571 307.589 14.679L307.93 18.127L310.043 18.2665C311.485 18.3263 312.336 18.5356 312.586 18.8843C313.037 19.4922 313.257 20.0004 313.257 20.419C313.257 21.0568 312.796 21.5949 311.865 22.0433C311.515 22.2028 311.094 22.3124 310.614 22.3821C310.133 22.4419 309.632 22.4818 309.121 22.4818L308.831 22.432C308.511 22.4619 308.27 22.5117 308.11 22.5715C307.95 22.6412 307.84 22.7608 307.77 22.9502C307.609 23.4883 307.529 24.4449 307.529 25.8201C307.529 26.4579 307.549 26.9562 307.579 27.305C307.609 27.5641 307.619 27.8032 307.599 28.0225C307.579 28.2417 307.599 28.441 307.619 28.6004C307.649 29.0788 307.669 29.7365 307.669 30.5636C307.669 32.5367 307.559 33.8621 307.329 34.5298C307.169 35.038 306.948 35.4266 306.658 35.6758C306.368 35.9349 305.997 36.0544 305.547 36.0544C304.876 36.0544 304.345 35.7555 303.964 35.1476L303.984 35.1576Z" fill="#534741"/>
<path d="M320.036 38.4561C320.036 37.9179 320.257 37.32 320.707 36.6822C322.149 34.5796 323.501 31.5302 324.743 27.5441C325.994 23.7474 326.886 19.7912 327.436 15.6855C327.537 14.9182 327.737 14.39 328.057 14.111C328.308 13.822 328.588 13.6825 328.868 13.6825C329.479 13.6825 329.89 14.1807 330.12 15.1673C330.28 15.8649 330.36 16.6222 330.36 17.4194C330.36 18.5654 330.22 19.9905 329.93 21.6746C329.479 24.3851 328.748 27.285 327.717 30.3842C326.685 33.3538 325.664 35.5462 324.643 36.9812C323.261 38.8347 322.139 39.7515 321.278 39.7515C321.018 39.7515 320.737 39.622 320.417 39.3728C320.157 39.1536 320.036 38.8447 320.036 38.466V38.4561ZM330.23 7.99232C332.664 7.35455 337.2 6.61712 343.829 5.79C344.41 5.69035 345.411 5.65049 346.863 5.65049C348.435 5.65049 349.837 5.79 351.069 6.05906C352.3 6.32813 353.051 6.79649 353.302 7.47413C353.432 7.85281 353.492 8.13183 353.492 8.29128C353.492 8.55037 353.392 8.81944 353.202 9.10843C353.041 9.29777 352.721 9.42731 352.24 9.48711C351.539 9.5469 350.177 9.58676 348.155 9.58676C345.401 9.58676 342.387 9.76613 339.122 10.1149C333.134 10.8125 329.85 11.1812 329.269 11.2111C329.079 11.241 328.808 11.2609 328.448 11.2609C328.027 11.2609 327.697 11.2111 327.436 11.1214C327.016 10.962 326.816 10.6929 326.816 10.3043C326.816 9.34759 327.947 8.58027 330.23 8.01225V7.99232ZM331.552 22.0034C332.143 21.1464 332.744 20.708 333.355 20.708C334.025 20.708 334.366 21.0866 334.366 21.854C334.366 22.2725 334.266 22.7508 334.076 23.289C333.695 24.4051 333.194 25.1525 332.583 25.5411C332.423 25.6707 332.213 25.7304 331.963 25.7304C331.642 25.7304 331.362 25.5909 331.122 25.3019C330.881 25.0129 330.731 24.6941 330.661 24.3453C330.661 23.6477 330.951 22.8605 331.552 22.0034ZM333.835 16.981C334.186 16.8215 334.406 16.6421 334.486 16.4528C334.566 16.2635 334.636 15.8449 334.706 15.2072C334.807 14.2505 335.057 13.5828 335.477 13.1942C335.828 12.9749 336.138 12.8554 336.389 12.8554C336.549 12.8554 336.729 12.9052 336.919 12.9949C337.17 13.1543 337.35 13.4034 337.45 13.7323C337.55 14.0611 337.67 14.7089 337.831 15.6656C337.861 15.8549 338.131 15.9545 338.652 15.9545C340.194 15.9545 340.955 16.5126 340.955 17.6287C340.955 18.2067 340.444 18.685 339.413 19.0637L338.311 19.4424L338.171 22.1729C338.071 23.7673 337.931 24.7738 337.741 25.1824C337.55 25.6009 337.21 25.8002 336.729 25.8002C335.678 25.8002 335.097 24.7439 334.997 22.6412C334.967 22.2227 334.947 21.7344 334.947 21.1564C334.917 20.6183 334.877 20.2595 334.827 20.0802C334.776 19.9008 334.676 19.7912 334.516 19.7214C334.326 19.6616 334.025 19.6018 333.625 19.552C333.224 19.5022 332.944 19.4324 332.784 19.3328C332.463 19.1135 332.303 18.8245 332.303 18.4757C332.303 17.838 332.814 17.3297 333.845 16.9411L333.835 16.981ZM336.669 29.8959C336.799 29.7365 337.07 29.3877 337.48 28.8396C337.901 28.3015 338.241 27.9128 338.512 27.6936C338.782 27.4744 339.032 27.3548 339.253 27.3548C339.353 27.3548 339.523 27.4146 339.783 27.5441C340.104 27.7634 340.264 28.0523 340.264 28.4011C340.264 28.72 340.164 29.0688 339.974 29.4574C339.783 29.8361 339.653 30.1151 339.593 30.2746C339.373 30.8127 339.253 31.1216 339.253 31.1814C339.253 31.311 339.323 31.4007 339.463 31.4405C339.603 31.4903 339.793 31.5202 340.014 31.5402C340.234 31.5601 340.444 31.58 340.634 31.6099C341.215 31.7096 341.586 31.7494 341.746 31.7494C341.876 31.7494 341.976 31.7096 342.056 31.6299C342.137 31.5501 342.247 31.4007 342.367 31.1715C342.487 30.9423 342.657 30.7131 342.847 30.454C344.029 28.9592 344.96 28.3513 345.631 28.6403C346.012 28.8296 346.212 29.1386 346.212 29.5471C346.212 30.1849 345.832 31.0818 345.06 32.2278C342.657 35.8651 341.456 37.888 341.456 38.3066C341.456 38.466 341.566 38.5457 341.796 38.5457L344.54 38.2069C345.691 38.1073 346.382 38.0176 346.603 37.9179C346.863 37.8183 346.983 37.6788 346.983 37.4894C346.923 37.1107 346.883 36.6125 346.883 36.0046C346.883 35.0778 347.043 34.5098 347.364 34.2806C347.684 34.0215 347.974 33.9019 348.225 33.9019C349.056 33.9019 349.847 34.9881 350.578 37.1506L351.199 39.3529C351.489 40.4989 351.599 41.2961 351.539 41.7446C351.279 42.5717 350.798 42.9902 350.097 42.9902C349.587 42.9902 349.106 42.771 348.655 42.3226L347.884 41.6051L345.341 41.8442C342.677 42.1033 340.795 42.2229 339.673 42.2229C338.712 42.2229 338.071 42.1432 337.751 41.9837C337.08 41.6649 336.739 41.1666 336.739 40.4989C336.739 40.3993 336.769 40.2 336.839 39.8811C337 39.4326 337.46 38.5457 338.231 37.2004C339.092 35.7654 339.483 35.018 339.383 34.9483C339.383 34.9184 339.333 34.8985 339.243 34.8985C339.082 34.8985 338.812 34.9483 338.421 35.038C337.71 35.2273 337.08 35.327 336.499 35.327C335.758 35.327 335.217 35.1476 334.867 34.7988C334.546 34.5098 334.386 34.181 334.386 33.7923C334.386 33.603 334.416 33.4435 334.486 33.314C334.676 32.7759 335.397 31.6199 336.649 29.866L336.669 29.8959ZM338.882 1.09638C338.882 0.747592 338.982 0.478531 339.172 0.279226C339.363 0.0898867 339.633 -0.00976562 339.984 -0.00976562C340.364 -0.00976562 340.805 0.289191 341.285 0.897071C341.766 1.53485 342.116 2.20252 342.347 2.91005C342.477 3.28873 342.537 3.67737 342.537 4.05605C342.537 4.34504 342.507 4.53438 342.437 4.63404C342.277 4.98282 341.976 5.16219 341.526 5.16219C341.075 5.16219 340.695 4.98282 340.374 4.63404C339.793 3.99626 339.363 3.19904 339.072 2.24238C338.942 1.6046 338.882 1.22592 338.882 1.09638ZM340.224 20.3791C340.544 20.3791 340.995 20.5884 341.566 20.997C342.106 21.4753 342.507 21.9835 342.767 22.5316C342.898 22.8206 342.958 23.1196 342.958 23.4384C342.958 23.6278 342.908 23.8171 342.817 24.0164C342.627 24.3951 342.317 24.5944 341.906 24.5944C341.716 24.5944 341.486 24.5446 341.235 24.4549C340.464 24.0762 339.924 23.5281 339.603 22.8306C339.313 22.2924 339.172 21.844 339.172 21.4952C339.172 21.1763 339.273 20.9172 339.463 20.7279C339.683 20.5087 339.944 20.3891 340.234 20.3891L340.224 20.3791ZM345.902 20.708C346.282 20.3592 346.733 20.1798 347.243 20.1798C347.694 20.1798 348.035 20.3592 348.255 20.708C348.315 20.8973 348.355 21.0767 348.355 21.2361C348.355 21.7145 348.115 22.2426 347.634 22.8106C346.963 23.7075 346.322 24.0563 345.711 23.8669C345.07 23.6776 344.75 23.2292 344.75 22.5316C344.81 21.834 345.201 21.2262 345.902 20.7179V20.708ZM345.781 16.0243C346.212 15.8051 346.833 15.6855 347.634 15.6855C348.085 15.6855 348.415 15.6656 348.615 15.6157C348.826 15.5659 348.976 15.4463 349.076 15.257C349.236 14.7786 349.316 14.1608 349.316 13.3935C349.316 12.6262 349.416 11.9784 349.627 11.53C349.837 11.0815 350.228 10.8623 350.808 10.8623C351.549 10.8623 352.12 11.6296 352.541 13.1543C352.731 13.9814 352.881 14.4897 352.971 14.689C353.071 14.9082 353.202 15.0676 353.382 15.1474C353.562 15.2271 353.772 15.2669 354.033 15.2669H354.563C354.854 15.2669 355.104 15.3267 355.335 15.4364C355.555 15.546 355.755 15.7453 355.915 16.0343C356.015 16.2236 356.055 16.4528 356.055 16.7019C356.055 17.0507 355.995 17.3397 355.865 17.5589C355.705 17.7782 355.395 17.9974 354.924 18.2067C354.463 18.416 353.943 18.5654 353.362 18.6651C353.142 18.695 352.991 18.8046 352.931 19.0039C352.871 19.2032 352.831 19.4623 352.831 19.8211C352.831 22.4319 352.511 23.9965 351.87 24.5047C351.549 24.7638 351.249 24.8834 350.959 24.8834C350.668 24.8834 350.348 24.7538 349.997 24.5047C349.677 24.2456 349.487 23.8968 349.416 23.4484C349.356 23 349.306 22.1928 349.276 21.0069C349.246 20.7578 349.226 20.3691 349.226 19.8609C349.196 19.4424 349.046 19.1634 348.766 19.0238C348.495 18.8843 348.004 18.8046 347.304 18.8046C346.532 18.8046 345.982 18.705 345.641 18.5156C345.301 18.3263 345.141 18.0173 345.141 17.6088C345.141 16.7817 345.361 16.2535 345.792 16.0343L345.781 16.0243ZM354.403 20.8574C354.403 20.3791 354.543 20.0403 354.834 19.851C354.994 19.6915 355.214 19.6118 355.505 19.6118C355.825 19.6118 356.126 19.7413 356.416 19.9905C356.736 20.2097 356.997 20.5386 357.187 20.9671C357.377 21.3956 357.477 21.834 357.477 22.2825C357.477 22.7309 357.347 23.0797 357.097 23.3388C356.806 23.5281 356.556 23.6278 356.326 23.6278C355.425 23.6278 354.834 23.0099 354.543 21.7643C354.443 21.4155 354.403 21.1066 354.403 20.8574Z" fill="#534741"/>
<path d="M12.2868 41.7044C12.0866 41.4952 11.3656 40.0602 10.1139 37.3995C8.37148 33.6824 6.72924 30.075 5.18714 26.5672L3.34463 22.5214C0.901297 17.1003 -0.200205 13.9712 0.0301092 13.1441C0.120232 12.7654 0.300478 12.5063 0.550819 12.3967C0.77112 12.297 1.02146 12.2771 1.30184 12.3568C1.92269 12.5163 3.41473 14.8979 5.78796 19.5118C6.75929 21.4451 7.61045 23.1791 8.33143 24.7137C9.86352 27.9823 11.3455 31.2908 12.7675 34.6291C14.1894 37.9675 14.9104 39.821 14.9104 40.1897C14.9805 41.0766 14.63 41.7044 13.8389 42.0632C13.3082 42.3123 12.7875 42.1927 12.2868 41.7144V41.7044Z" fill="#534741"/>
<path d="M382.171 42.063C381.38 41.6943 381.03 41.0764 381.1 40.1895C381.1 39.8108 381.821 37.9573 383.243 34.6289C384.665 31.2906 386.147 27.9921 387.679 24.7235C388.4 23.1888 389.251 21.4549 390.222 19.5216C392.596 14.9077 394.088 12.5161 394.708 12.3666C394.989 12.2869 395.229 12.3068 395.459 12.4064C395.71 12.526 395.89 12.7751 395.98 13.1538C396.21 13.971 395.099 17.1001 392.656 22.5411L390.813 26.587C389.271 30.0947 387.629 33.7021 385.886 37.4192C384.645 40.0699 383.924 41.5049 383.713 41.7242C383.213 42.2025 382.692 42.3221 382.161 42.0729L382.171 42.063Z" fill="#534741"/>
</g>
<defs>
<clipPath id="clip0_126_369">
<rect width="396" height="43" fill="white"/>
</clipPath>
</defs>
</svg>
