<svg width="273" height="31" viewBox="0 0 273 31" fill="none" xmlns="http://www.w3.org/2000/svg">
<g clip-path="url(#clip0_126_328)">
<path d="M8.94077 30.6699C8.80109 30.5199 8.30222 29.5299 7.45415 27.6899C6.25688 25.1199 5.12945 22.6199 4.07186 20.1999L2.80475 17.3999C1.1186 13.6399 0.360325 11.4799 0.519961 10.9099C0.579825 10.6399 0.699552 10.4699 0.879142 10.3899C1.03878 10.3199 1.20839 10.3099 1.39796 10.3599C1.82698 10.4699 2.85464 12.1199 4.48093 15.3099C5.14941 16.6499 5.72809 17.8499 6.22695 18.9099C7.27456 21.1699 8.29224 23.4599 9.27002 25.7699C10.2478 28.0799 10.7367 29.3599 10.7467 29.6199C10.7965 30.2299 10.5471 30.6599 10.0083 30.9199C9.63917 31.0899 9.28997 31.0099 8.94077 30.6799V30.6699Z" fill="#534741"/>
<path d="M262.992 30.9101C262.453 30.6601 262.203 30.2301 262.253 29.6101C262.253 29.3501 262.742 28.0701 263.73 25.7601C264.718 23.4501 265.725 21.1701 266.783 18.9001C267.282 17.8401 267.861 16.6401 268.529 15.3001C270.155 12.1101 271.183 10.4601 271.612 10.3501C271.802 10.3001 271.971 10.3101 272.131 10.3801C272.3 10.4601 272.42 10.6301 272.49 10.9001C272.65 11.4701 271.891 13.6301 270.205 17.3901L268.938 20.1901C267.88 22.6201 266.753 25.1101 265.556 27.6801C264.698 29.5201 264.209 30.5101 264.069 30.6601C263.73 30.9901 263.371 31.0701 263.002 30.9001L262.992 30.9101Z" fill="#534741"/>
<path d="M30.761 21.3397C30.6313 21.1697 30.5714 20.9897 30.5714 20.7997C30.5714 20.4997 30.731 20.1897 31.0503 19.8697C31.5592 19.2897 32.3374 18.1697 33.385 16.5097C34.4027 14.9097 34.9215 13.9697 34.9215 13.6897C34.9215 13.5797 34.5424 13.5297 33.7741 13.5297C32.5669 13.5297 31.9583 13.2297 31.9583 12.6297C31.9583 12.4397 32.0181 12.2997 32.1478 12.2097C32.2975 12.0997 32.527 11.9997 32.8462 11.8897C33.2752 11.7597 33.7641 11.6397 34.3129 11.5397L35.9092 11.2197C36.019 11.1997 36.2485 10.7797 36.6077 9.96975C36.9469 9.17975 37.0866 8.72975 37.0267 8.62975C37.0067 8.58975 36.6675 8.50975 36.009 8.40975C35.5401 8.38975 35.1709 8.30975 34.8916 8.18975C34.702 8.05975 34.6022 7.86975 34.6022 7.60975C34.6022 7.07975 35.2208 6.70975 36.458 6.51975L37.6752 6.32975L37.8049 5.71975C37.8648 5.35975 37.9047 5.08975 37.9047 4.91975C37.9047 4.72975 37.8748 4.61975 37.8049 4.59975C37.7151 4.51975 37.2462 4.46975 36.3981 4.46975C35.4204 4.46975 34.8417 4.36975 34.6721 4.17975C34.5025 3.94975 34.4127 3.72975 34.4127 3.53975C34.4127 3.32975 34.5523 3.10975 34.8317 2.89975C35.0213 2.76975 35.6399 2.58975 36.6875 2.35975C37.7052 2.16975 38.7528 1.87975 39.8203 1.49975C40.9478 1.15975 41.7559 0.989746 42.2448 0.989746C42.9233 0.989746 43.2625 1.23975 43.2625 1.72975C43.2625 2.00975 43.1328 2.22975 42.8833 2.39975C42.6938 2.54975 42.0552 2.85975 40.9677 3.32975C40.3092 3.58975 39.7704 3.80975 39.3714 3.99975C39.3514 4.01975 39.4013 4.36975 39.531 5.05975L39.7505 6.04975H40.2893L42.2648 5.88975C42.4543 5.86975 42.7137 5.85975 43.033 5.85975C43.5019 5.85975 43.8312 5.89975 44.0208 5.98975C44.34 6.07975 44.4997 6.32975 44.4997 6.75975C44.4997 7.18975 44.2602 7.51975 43.7613 7.74975C43.2924 7.93975 42.2947 8.12975 40.7582 8.32975C39.95 8.43975 39.511 8.52975 39.4512 8.61975C39.3614 8.70975 39.2317 9.07975 39.0321 9.73975C38.8426 10.3997 38.7627 10.7497 38.8126 10.7997C38.8924 10.8397 40.1196 10.8597 42.4843 10.8597C44.8489 10.8597 46.2457 10.9397 46.535 11.0797C46.9341 11.3197 47.1436 11.6197 47.1436 12.0097C47.1436 12.4197 46.9541 12.7497 46.565 12.9997C46.2656 13.1897 44.7291 13.3197 41.9355 13.3797L37.6852 13.4397L36.8272 15.1697C35.59 17.5997 34.3229 19.4797 33.0258 20.7997C32.4272 21.3997 31.9383 21.6997 31.5592 21.6997C31.18 21.6997 30.9106 21.5797 30.761 21.3497V21.3397ZM36.1886 23.7797C36.1886 23.0097 36.1986 22.3597 36.2185 21.8297C36.2784 20.2497 36.3682 19.1897 36.4779 18.6297C36.5877 18.1397 36.7374 17.7897 36.9269 17.5697C37.1165 17.3597 37.3061 17.2497 37.5056 17.2497C37.7052 17.2497 37.8648 17.3497 38.0144 17.5397C38.1441 17.6897 38.224 17.9697 38.2539 18.3697C38.2838 18.7797 38.3138 19.4397 38.3337 20.3497L38.3637 21.3397L38.4634 24.7597L41.0475 24.8597C41.5165 24.8797 42.0852 24.8897 42.7736 24.8897C43.4121 24.8897 43.7613 24.8597 43.8312 24.7897C43.9409 24.7097 44.0108 24.4897 44.0507 24.1497C44.0507 24.1297 44.0906 23.7597 44.1804 23.0297L44.37 21.7197L44.8189 18.2997C44.8189 17.7497 44.6194 17.4397 44.2103 17.3697C44.1205 17.3497 43.921 17.3397 43.6017 17.3397C42.9632 17.3397 41.9555 17.3997 40.5686 17.5297C40.419 17.5497 40.2294 17.5597 39.9899 17.5597C39.6507 17.5597 39.4312 17.4997 39.3215 17.3697C39.2117 17.2197 39.1618 17.0897 39.1618 16.9897C39.1618 16.9297 39.2017 16.8097 39.2915 16.6397C39.4212 16.3797 39.7305 16.1397 40.2194 15.8997C40.6484 15.6697 41.2072 15.4797 41.9156 15.3597C42.5541 15.2297 43.1627 15.1697 43.7314 15.1697C44.2003 15.1697 44.6593 15.1997 45.1083 15.2697C46.555 15.5297 47.2833 16.3497 47.2833 17.7297C47.2833 18.4997 47.1536 19.8097 46.9042 21.6697C46.5849 24.0597 46.2956 25.5497 46.0461 26.1497C45.8965 26.5097 45.6371 26.8197 45.2779 27.0797C44.8988 27.2897 44.1704 27.3697 43.1028 27.2997C40.6983 27.1697 38.9822 26.9097 37.9646 26.4997C37.6253 26.3497 37.2761 26.0997 36.907 25.7297C36.5677 25.3897 36.3383 25.0597 36.2385 24.7397C36.2185 24.6297 36.2086 24.3097 36.2086 23.7797H36.1886ZM40.5287 18.6897C41.297 18.4997 41.9654 18.3997 42.5441 18.3997C43.1827 18.3997 43.6416 18.5097 43.921 18.7197C44.1305 18.8697 44.2403 19.0797 44.2403 19.3597C44.2403 19.6797 44.1006 19.8997 43.8212 20.0297C43.1827 20.3897 42.1051 20.5697 40.5986 20.5697C40.0199 20.5697 39.6407 20.5097 39.4512 20.3797C39.1519 20.1897 39.0022 19.9497 39.0022 19.6797C39.0022 19.5297 39.0621 19.3897 39.1918 19.2597C39.4013 19.0497 39.8503 18.8497 40.5287 18.6797V18.6897ZM40.9079 21.6997C41.267 21.6397 41.5963 21.5997 41.8956 21.5997C42.4743 21.5997 42.9632 21.7197 43.3623 21.9497C43.5718 22.0997 43.6815 22.3297 43.6815 22.6497C43.6815 23.3097 43.0829 23.6397 41.8956 23.6397C40.4888 23.6397 39.7904 23.3097 39.7904 22.6497C39.7904 22.1397 40.1596 21.8197 40.9079 21.6897V21.6997Z" fill="#534741"/>
<path d="M56.5821 21.3397C56.4524 21.1697 56.3926 20.9897 56.3926 20.7997C56.3926 20.4997 56.5522 20.1897 56.8715 19.8697C57.3803 19.2897 58.1586 18.1697 59.2062 16.5097C60.2238 14.9097 60.7427 13.9697 60.7427 13.6897C60.7427 13.5797 60.3635 13.5297 59.5953 13.5297C58.3781 13.5297 57.7794 13.2297 57.7794 12.6297C57.7794 12.4397 57.8393 12.2997 57.969 12.2097C58.1186 12.0997 58.3481 11.9997 58.6774 11.8897C59.1064 11.7597 59.5953 11.6397 60.144 11.5397L61.7404 11.2197C61.8501 11.1997 62.0796 10.7797 62.4388 9.96975C62.778 9.17975 62.9177 8.72975 62.8578 8.62975C62.8379 8.58975 62.4987 8.50975 61.8402 8.40975C61.3712 8.38975 61.0021 8.30975 60.7227 8.18975C60.5331 8.05975 60.4334 7.86975 60.4334 7.60975C60.4334 7.07975 61.052 6.70975 62.2891 6.51975L63.5064 6.32975L63.6361 5.71975C63.6959 5.35975 63.7358 5.08975 63.7358 4.91975C63.7358 4.72975 63.7059 4.61975 63.6361 4.59975C63.5562 4.51975 63.0873 4.46975 62.2293 4.46975C61.2515 4.46975 60.6728 4.36975 60.5032 4.17975C60.3336 3.94975 60.2438 3.72975 60.2438 3.53975C60.2438 3.32975 60.3835 3.10975 60.6628 2.89975C60.8524 2.76975 61.471 2.58975 62.5186 2.35975C63.5363 2.16975 64.5839 1.87975 65.6515 1.49975C66.7789 1.15975 67.5871 0.989746 68.0759 0.989746C68.7544 0.989746 69.0936 1.23975 69.0936 1.72975C69.0936 2.00975 68.9639 2.22975 68.7145 2.39975C68.5249 2.54975 67.8864 2.85975 66.7989 3.32975C66.1404 3.58975 65.6016 3.80975 65.2025 3.99975C65.1825 4.01975 65.2324 4.36975 65.3621 5.05975L65.5816 6.04975H66.1204L68.0959 5.88975C68.2855 5.86975 68.5449 5.85975 68.8641 5.85975C69.3331 5.85975 69.6623 5.89975 69.8519 5.98975C70.1712 6.07975 70.3308 6.32975 70.3308 6.75975C70.3308 7.18975 70.0814 7.51975 69.5925 7.74975C69.1236 7.93975 68.1258 8.12975 66.5893 8.32975C65.7812 8.43975 65.3422 8.52975 65.2823 8.61975C65.2025 8.70975 65.0628 9.07975 64.8633 9.73975C64.6737 10.3997 64.5939 10.7497 64.6438 10.7997C64.7236 10.8397 65.9508 10.8597 68.3154 10.8597C70.68 10.8597 72.0668 10.9397 72.3662 11.0797C72.7752 11.3197 72.9748 11.6197 72.9748 12.0097C72.9748 12.4197 72.7852 12.7497 72.3961 12.9997C72.0968 13.1897 70.5503 13.3197 67.7667 13.3797L63.5163 13.4397L62.6583 15.1697C61.4211 17.5997 60.154 19.4797 58.857 20.7997C58.2583 21.3997 57.7694 21.6997 57.3903 21.6997C57.0112 21.6997 56.7418 21.5797 56.5921 21.3497L56.5821 21.3397ZM62.0098 23.7797C62.0098 23.0097 62.0098 22.3597 62.0397 21.8297C62.0996 20.2497 62.1894 19.1897 62.2991 18.6297C62.4089 18.1397 62.5585 17.7897 62.7481 17.5697C62.9377 17.3597 63.1272 17.2497 63.3268 17.2497C63.5263 17.2497 63.686 17.3497 63.8356 17.5397C63.9653 17.6897 64.0451 17.9697 64.0751 18.3697C64.105 18.7797 64.1349 19.4397 64.1549 20.3497L64.1848 21.3397L64.2846 24.7597L66.8687 24.8597C67.3376 24.8797 67.9163 24.8897 68.5948 24.8897C69.2333 24.8897 69.5825 24.8597 69.6524 24.7897C69.7621 24.7097 69.8319 24.4897 69.8719 24.1497C69.8719 24.1297 69.9118 23.7597 70.0016 23.0297L70.1911 21.7197L70.6401 18.2997C70.6401 17.7497 70.4406 17.4397 70.0315 17.3697C69.9417 17.3497 69.7422 17.3397 69.4229 17.3397C68.7843 17.3397 67.7766 17.3997 66.3898 17.5297C66.2401 17.5497 66.0506 17.5597 65.8111 17.5597C65.4719 17.5597 65.2424 17.4997 65.1426 17.3697C65.0329 17.2197 64.983 17.0897 64.983 16.9897C64.983 16.9297 65.0229 16.8097 65.1127 16.6397C65.2424 16.3797 65.5517 16.1397 66.0406 15.8997C66.4696 15.6697 67.0283 15.4797 67.7367 15.3597C68.3753 15.2297 68.9839 15.1697 69.5526 15.1697C70.0215 15.1697 70.4805 15.1997 70.9294 15.2697C72.3761 15.5297 73.1045 16.3497 73.1045 17.7297C73.1045 18.4997 72.9748 19.8097 72.7253 21.6697C72.4061 24.0597 72.1167 25.5497 71.8573 26.1497C71.7077 26.5097 71.4582 26.8197 71.0891 27.0797C70.7099 27.2897 69.9816 27.3697 68.914 27.2997C66.5095 27.1697 64.7934 26.9097 63.7757 26.4997C63.4365 26.3497 63.0873 26.0997 62.7182 25.7297C62.3789 25.3897 62.1495 25.0597 62.0497 24.7397C62.0297 24.6297 62.0198 24.3097 62.0198 23.7797H62.0098ZM66.3499 18.6897C67.1181 18.4997 67.7866 18.3997 68.3653 18.3997C69.0038 18.3997 69.4628 18.5097 69.7422 18.7197C69.9517 18.8697 70.0614 19.0797 70.0614 19.3597C70.0614 19.6797 69.9217 19.8997 69.6424 20.0297C69.0038 20.3897 67.9263 20.5697 66.4197 20.5697C65.841 20.5697 65.4619 20.5097 65.2723 20.3797C64.973 20.1897 64.8234 19.9497 64.8234 19.6797C64.8234 19.5297 64.8832 19.3897 65.0129 19.2597C65.2225 19.0497 65.6714 18.8497 66.3499 18.6797V18.6897ZM66.739 21.6997C67.0982 21.6397 67.4274 21.5997 67.7267 21.5997C68.3054 21.5997 68.7943 21.7197 69.1934 21.9497C69.4029 22.0997 69.5127 22.3297 69.5127 22.6497C69.5127 23.3097 68.914 23.6397 67.7267 23.6397C66.3199 23.6397 65.6215 23.3097 65.6215 22.6497C65.6215 22.1397 65.9907 21.8197 66.739 21.6897V21.6997Z" fill="#534741"/>
<path d="M81.9642 26.5797C81.7048 26.5497 81.4953 26.4697 81.3257 26.3397C81.0463 26.1497 80.9066 25.9197 80.9066 25.6697C80.9066 25.4397 81.0263 25.2297 81.2558 25.0597C81.4454 24.9097 81.8445 24.7997 82.4331 24.7397C83.2812 24.6597 83.7601 24.5397 83.8699 24.3897C83.9796 24.2797 84.0295 23.7997 84.0295 22.9497C84.0295 22.0997 84.0794 21.4497 84.1891 21.0597C84.269 20.7797 84.5284 20.5097 84.9574 20.2297C85.5361 19.8497 86.3343 19.5497 87.3519 19.3297C88.3696 19.1197 89.6966 18.9497 91.3129 18.8197C93.2684 18.6897 94.785 18.6297 95.8426 18.6297C97.0099 18.6297 97.7582 18.6997 98.0775 18.8497C98.4766 19.0197 98.7659 19.3197 98.9255 19.7597C99.0852 20.1997 99.165 20.7497 99.165 21.4097C99.165 21.9397 99.1351 22.4997 99.0652 23.0697L98.9655 24.0597L100.053 24.1597C100.731 24.2197 101.2 24.3197 101.46 24.4497C101.839 24.6397 101.999 24.9697 101.939 25.4397C101.859 25.9297 101.619 26.2497 101.24 26.3997C100.961 26.5297 98.9156 26.5897 95.1142 26.5897H91.8916L88.1202 26.6197H83.391C82.6926 26.6197 82.2136 26.5997 81.9542 26.5697L81.9642 26.5797ZM82.1238 8.34971C82.1238 8.08971 82.1837 7.90971 82.3134 7.80971C82.4631 7.65971 82.7923 7.45971 83.3012 7.19971C84.0894 6.74971 85.5061 5.71971 87.5515 4.09971C89.1079 2.87971 90.0558 2.16971 90.395 1.95971C90.6744 1.78971 90.8939 1.69971 91.0635 1.69971C91.2331 1.69971 91.4526 1.76971 91.7319 1.90971C92.0113 2.04971 92.2009 2.13971 92.3106 2.17971L93.1387 2.62971C93.9668 3.07971 95.214 3.76971 96.8702 4.70971C98.1673 5.47971 98.8557 5.90971 98.9455 5.98971C99.2049 6.24971 99.3246 6.48971 99.3246 6.72971C99.3246 6.93971 99.2249 7.14971 99.0353 7.33971C98.8457 7.52971 98.5863 7.62971 98.267 7.62971C97.838 7.62971 97.1197 7.39971 96.092 6.92971C95.1342 6.49971 94.2961 6.05971 93.5678 5.58971C92.6898 5.05971 92.0213 4.56971 91.5524 4.11971L91.1333 3.66971L90.0458 4.72971C88.3197 6.36971 86.8132 7.60971 85.5161 8.43971C84.5583 9.03971 83.7501 9.33971 83.0916 9.33971C82.493 9.33971 82.1638 9.07971 82.1039 8.56971V8.37971L82.1238 8.34971ZM86.1846 23.0397L86.2145 24.2197H88.4794L88.5392 23.1997C88.5592 22.7097 88.6589 22.3397 88.8286 22.0997C88.9982 21.8597 89.2077 21.7297 89.4671 21.7297C89.6766 21.7297 89.8862 21.8597 90.0757 22.1097C90.2453 22.3697 90.3351 22.6497 90.3351 22.9697C90.3351 23.4597 90.4149 23.7697 90.5945 23.8997C90.6744 23.9897 90.8739 24.0297 91.1732 24.0297C91.3827 24.0297 91.5424 24.0297 91.6521 23.9997L92.5501 23.8997L92.6499 23.0697C92.7097 22.4897 92.8693 22.1297 93.1288 21.9797C93.3183 21.8497 93.478 21.7897 93.6077 21.7897C93.7773 21.7897 93.9669 21.8997 94.1864 22.1097C94.4458 22.3897 94.5655 22.7297 94.5655 23.1297C94.5655 23.5597 94.6653 23.8297 94.8548 23.9597C95.0244 24.0897 95.3736 24.1297 95.9124 24.0897L96.6208 24.0597V21.1197H95.6331C94.6952 21.1197 94.0467 21.1297 93.6875 21.1497C89.3873 21.4497 87.0925 21.6397 86.7932 21.7297L86.1547 21.8897L86.2145 23.0397H86.1846ZM86.7732 13.6997C86.8231 13.3397 86.893 13.0897 86.9828 12.9597C87.0925 12.7197 87.322 12.5097 87.6812 12.3197C88.0004 12.1497 88.4594 11.9797 89.058 11.8097C89.5469 11.6597 90.1156 11.5297 90.7542 11.4297C91.7319 11.3497 92.3805 11.2997 92.6997 11.2997C93.4879 11.2997 94.0467 11.3997 94.3959 11.5897C95.1043 11.9497 95.4136 12.8397 95.3537 14.2497C95.2439 15.3997 95.0145 16.1797 94.6453 16.5897C94.1963 17.0997 93.4879 17.4197 92.5102 17.5497C92.0412 17.5897 91.6821 17.6097 91.4226 17.6097C90.9936 17.6097 90.5646 17.5797 90.1156 17.5097C89.1578 17.3797 88.3995 17.2097 87.8508 16.9997C87.3819 16.7697 87.0626 16.4797 86.893 16.1397C86.7633 15.8797 86.7034 15.5197 86.7034 15.0497C86.7034 14.5197 86.7333 14.0697 86.7832 13.7097L86.7732 13.6997ZM88.2599 8.76971C88.2599 8.48971 88.3397 8.30971 88.5193 8.22971C88.9483 7.90971 89.7764 7.62971 91.0136 7.39971C91.0934 7.37971 91.2431 7.36971 91.4626 7.36971C91.5923 7.36971 91.9115 7.38971 92.4204 7.42971C93.0589 7.48971 93.5079 7.59971 93.7573 7.74971C94.0966 7.93971 94.2961 8.21971 94.3659 8.57971V8.70971C94.3659 8.94971 94.2063 9.14971 93.887 9.31971C93.5877 9.46971 92.6898 9.57971 91.2032 9.63971C90.9437 9.65971 90.6045 9.66971 90.1855 9.66971C89.3574 9.66971 88.8485 9.60971 88.649 9.47971C88.4394 9.32971 88.3097 9.12971 88.2698 8.86971V8.76971H88.2599ZM88.8286 15.1697H90.7143C91.7319 15.1697 92.3705 15.1197 92.6299 15.0097C92.8394 14.8997 92.9292 14.6297 92.8893 14.1797L92.8594 13.6997L91.1632 13.6697C90.0558 13.6297 89.3773 13.6697 89.1179 13.7997C88.9882 13.8397 88.8984 13.9297 88.8286 14.0597C88.7587 14.1897 88.7388 14.3497 88.7687 14.5397L88.8286 15.1797V15.1697Z" fill="#534741"/>
<path d="M114.759 22.85C114.61 22.51 114.54 22.25 114.54 22.08C114.54 21.74 114.7 21.5 115.019 21.38C115.109 21.34 115.189 21.32 115.278 21.32C115.518 21.32 115.817 21.42 116.206 21.61C116.635 21.82 116.865 21.93 116.905 21.93C117.014 21.93 117.144 21.85 117.324 21.67C117.922 21.07 118.202 19.78 118.152 17.8L118.092 15.05H114.001C112.724 15.05 111.706 15.02 110.948 14.95C110.19 14.89 109.751 14.82 109.621 14.76C109.492 14.65 109.432 14.47 109.432 14.22C109.432 13.79 109.651 13.47 110.1 13.26C111.058 12.81 112.754 12.59 115.179 12.59C116.076 12.59 116.705 12.54 117.064 12.43C117.234 12.35 117.334 12.27 117.354 12.21V12.11C117.354 12 117.324 11.88 117.254 11.73C117.214 11.56 117.194 11.42 117.194 11.31C117.194 10.56 117.673 9.59998 118.631 8.42998C119.459 7.33998 120.057 6.53998 120.417 6.02998L121.085 5.03998L120.636 4.84998C120.397 4.73998 119.898 4.68998 119.14 4.68998C118.431 4.68998 117.862 4.70998 117.413 4.74998C115.608 4.91998 114.261 5.12998 113.393 5.38998C113.033 5.49998 112.654 5.58998 112.275 5.67998C112.106 5.67998 111.956 5.60998 111.826 5.45998C111.587 5.22998 111.477 4.99998 111.477 4.78998C111.477 4.33998 112.066 3.85998 113.233 3.34998C114.889 2.59998 116.885 2.22998 119.199 2.22998C120.686 2.22998 121.823 2.39998 122.612 2.73998C122.991 2.92998 123.27 3.19998 123.44 3.53998C123.699 3.94998 123.819 4.31998 123.819 4.65998C123.819 5.12998 123.569 5.77998 123.071 6.59998C122.572 7.41998 121.803 8.51998 120.756 9.87998L119.858 11.03L120.117 11.73L120.407 12.43H122.262C124.817 12.43 126.373 12.64 126.922 13.07C127.241 13.35 127.401 13.65 127.401 13.97C127.401 14.31 127.251 14.6 126.952 14.83C126.692 15.02 126.433 15.13 126.154 15.15C125.964 15.17 125.725 15.18 125.435 15.17C125.146 15.16 124.847 15.15 124.527 15.15C124.378 15.13 124.128 15.12 123.789 15.12L121.105 15.06L121.005 18.23C120.945 20.21 120.526 21.82 119.758 23.06C119.159 24.02 118.391 24.5 117.463 24.5C117.274 24.5 117.124 24.49 117.014 24.47C115.967 24.3 115.218 23.77 114.75 22.87L114.759 22.85Z" fill="#534741"/>
<path d="M133.437 19.2299C133.437 18.9699 133.507 18.7299 133.656 18.4899C133.766 18.2999 134.285 17.5799 135.223 16.3499C137.248 13.6799 138.266 12.2099 138.286 11.9299C138.286 11.7599 137.797 11.7099 136.819 11.7699C135.991 11.8099 135.393 11.7699 135.033 11.6399C134.734 11.5099 134.574 11.2799 134.554 10.9399V10.7799C134.554 10.5499 134.604 10.3499 134.714 10.1999C134.944 9.8999 136.241 9.5899 138.575 9.2699C138.815 9.2099 139.044 9.1699 139.274 9.1699C139.483 9.1699 139.763 9.2099 140.102 9.2999C140.481 9.3599 140.84 9.5399 141.159 9.8099C141.419 10.1699 141.509 10.5199 141.449 10.8699C141.449 11.7699 140.81 13.1399 139.533 14.9999L138.735 16.1499L138.924 17.2699C139.094 18.1199 139.184 19.5099 139.184 21.4299C139.184 22.6299 139.134 23.4099 139.024 23.7999C138.765 24.6099 138.366 25.0199 137.807 25.0199L137.428 24.9599C137.109 24.8499 136.889 24.5699 136.759 24.0999C136.67 23.7799 136.63 23.2499 136.63 22.4999L136.66 21.2799L136.69 19.8999C136.69 19.1499 136.65 18.7799 136.56 18.7799C136.54 18.7799 136.231 19.0299 135.632 19.5199C135.143 20.0099 134.734 20.2599 134.425 20.2599C133.996 20.2599 133.696 20.0799 133.527 19.7199C133.467 19.5899 133.427 19.4299 133.427 19.2399L133.437 19.2299ZM136.66 2.9399C136.849 2.7499 137.049 2.6499 137.268 2.6499C137.568 2.6499 137.927 2.8599 138.356 3.2899C139.254 4.2499 139.693 5.1199 139.693 5.9099C139.693 6.0999 139.683 6.2399 139.663 6.3299C139.493 6.6899 139.244 6.8799 138.924 6.9099C138.815 6.9099 138.515 6.6899 138.027 6.2399C137.428 5.6399 137.049 5.1999 136.879 4.8999C136.65 4.5799 136.49 4.2099 136.4 3.7799C136.4 3.3299 136.48 3.0599 136.66 2.9499V2.9399ZM139.862 16.5799C140.002 16.4099 140.202 16.3199 140.451 16.3199L140.83 16.3799H140.93C141.139 16.3799 141.309 16.2399 141.439 15.9599C141.668 15.5299 141.918 15.1999 142.177 14.9699C142.476 14.6699 142.736 14.5199 142.975 14.5199C143.185 14.5199 143.394 14.6299 143.584 14.8399C143.714 14.9699 143.773 15.1299 143.773 15.3199C143.773 15.6999 143.564 16.2399 143.135 16.9199C142.796 17.4499 142.626 17.7499 142.626 17.8199C142.626 17.8599 142.846 18.0299 143.295 18.3299C143.743 18.6499 143.963 18.9599 143.963 19.2599C143.963 19.5199 143.803 19.7699 143.484 20.0299C143.205 20.1999 142.915 20.2899 142.616 20.2899C142.357 20.2899 142.077 20.2299 141.758 20.0999C141.1 19.7799 140.551 19.2799 140.132 18.5999C139.812 18.0899 139.653 17.6499 139.653 17.2899C139.653 16.9899 139.723 16.7599 139.862 16.5899V16.5799ZM147.096 24.5399C146.866 24.3299 146.727 24.1299 146.677 23.9599C146.677 23.6999 146.826 23.4699 147.126 23.2599C147.405 22.9799 147.814 22.7999 148.373 22.7199C148.453 22.6999 148.572 22.6699 148.712 22.6399C148.852 22.6099 149.021 22.5799 149.241 22.5599C149.431 22.5399 149.61 22.5199 149.78 22.4999C149.949 22.4799 150.079 22.4599 150.159 22.4399C150.289 22.3999 150.418 21.9799 150.538 21.1899C150.558 20.9999 150.568 20.7499 150.568 20.4499C150.568 20.1299 150.548 19.9299 150.508 19.8399C150.448 19.7299 150.309 19.6599 150.089 19.6299C149.879 19.5999 149.441 19.5699 148.782 19.5499C148.353 19.5299 148.074 19.4699 147.924 19.3699C147.774 19.2699 147.694 19.0799 147.665 18.7799C147.665 18.5699 147.874 18.3799 148.283 18.2199C148.692 18.0599 149.211 17.9399 149.83 17.8499C149.999 17.8299 150.169 17.7799 150.328 17.7099C150.488 17.6299 150.588 17.5699 150.628 17.4999C150.758 17.2899 150.817 16.8199 150.817 16.0899L150.847 14.7799L148.742 14.6499C148.193 14.6299 147.724 14.5499 147.355 14.4099C146.986 14.2699 146.737 14.1099 146.607 13.9099C146.308 13.4399 146.158 12.3799 146.158 10.7399C146.138 10.3999 146.128 9.9399 146.128 9.3599C146.128 8.5299 146.168 7.9699 146.258 7.6999C146.387 7.1699 146.697 6.7199 147.186 6.3599C148.124 5.5499 150.199 5.0199 153.411 4.7599C153.621 4.7399 153.92 4.7299 154.309 4.7299C155.008 4.7299 155.527 4.8299 155.846 5.0199C156.105 5.1699 156.325 5.4799 156.514 5.9499C156.744 6.4199 156.864 7.0599 156.864 7.8699C156.864 8.9999 156.764 10.1199 156.574 11.2299C156.445 11.8699 156.385 12.3999 156.385 12.8299C156.385 13.4699 156.135 13.8999 155.646 14.1099C155.287 14.2599 154.758 14.3799 154.08 14.4599C153.481 14.5199 153.102 14.6099 152.933 14.7199C152.873 14.7999 152.833 14.9899 152.833 15.2799V17.1799L153.89 17.3099C154.439 17.3699 154.848 17.4699 155.108 17.5999C155.237 17.7099 155.317 17.8999 155.367 18.1799C155.367 18.5199 155.237 18.7899 154.988 18.9999C154.728 19.1999 154.329 19.3499 153.771 19.4299C153.172 19.4899 152.803 19.5999 152.653 19.7499C152.523 19.8999 152.464 20.3299 152.464 21.0299L152.434 22.2099L155.407 22.2399C156.983 22.2599 158.031 22.3499 158.57 22.4999C158.779 22.5399 158.929 22.6399 159.019 22.7899C159.098 22.9399 159.148 23.1599 159.148 23.4599C159.148 24.0099 158.909 24.3799 158.45 24.5499C158.211 24.6099 156.295 24.6999 152.703 24.8099L148.582 24.9099C147.854 24.9099 147.365 24.7899 147.116 24.5599L147.096 24.5399ZM148.183 9.3799L149.081 9.3499C149.72 9.3099 150.099 9.2399 150.229 9.1599C150.309 9.0099 150.348 8.7199 150.328 8.2999L150.299 7.4399L149.69 7.4099C149.5 7.3899 149.291 7.4099 149.071 7.4599C148.852 7.5099 148.692 7.5499 148.612 7.5699C148.403 7.6099 148.263 7.6699 148.193 7.7299C148.173 7.8099 148.163 8.0799 148.163 8.5299L148.193 9.3899L148.183 9.3799ZM148.413 11.9999C148.473 12.3199 148.543 12.4999 148.602 12.5399C148.642 12.5799 148.822 12.5999 149.141 12.5999C149.69 12.5999 150.049 12.5399 150.199 12.4099C150.279 12.3499 150.338 12.2199 150.378 12.0399C150.418 11.8599 150.408 11.7099 150.358 11.6099C150.338 11.3499 149.929 11.2099 149.141 11.1599L148.313 11.0999L148.413 11.9999ZM152.334 7.3299L152.394 8.1899L152.494 8.9299L154.509 8.9599L154.479 7.2299L153.262 7.1699H152.883C152.603 7.1699 152.424 7.1899 152.344 7.2299V7.3299H152.334ZM152.633 12.2399C152.793 12.3799 153.132 12.4499 153.641 12.4499C154.04 12.4499 154.299 12.3699 154.409 12.2099C154.519 12.0499 154.589 11.8499 154.629 11.6199C154.629 11.4699 154.509 11.3299 154.279 11.1999C154.04 11.0699 153.701 11.0099 153.262 11.0099C152.982 11.0099 152.773 11.0699 152.623 11.1899C152.474 11.3099 152.404 11.4499 152.404 11.6199C152.404 11.8999 152.484 12.1099 152.643 12.2399H152.633Z" fill="#534741"/>
<path d="M165.234 17.4698C164.935 17.4698 164.686 17.3298 164.466 17.0498C164.356 16.9198 164.307 16.7598 164.307 16.5698C164.307 16.3398 164.386 16.1198 164.566 15.9298C165.055 15.2498 166.033 13.6898 167.499 11.2598C168.866 8.99979 169.545 7.70978 169.545 7.38978C169.545 7.10978 168.697 6.96978 166.99 6.96978C166.651 6.96978 166.352 6.93979 166.112 6.88978C165.863 6.83978 165.723 6.79979 165.683 6.77979C165.474 6.75979 165.364 6.61979 165.364 6.35979C165.364 6.03978 165.584 5.74978 166.023 5.47978C166.462 5.20978 167.06 5.07978 167.829 5.07978L168.597 5.01978L169.455 4.91979C169.565 4.89979 169.664 4.88978 169.754 4.89979C169.854 4.90979 169.934 4.89979 169.994 4.87979C170.223 4.81979 170.413 4.74978 170.532 4.68979C170.662 4.62979 170.762 4.51978 170.852 4.36978C171.191 3.76978 171.49 3.08979 171.75 2.31979C171.899 1.86979 172.039 1.47979 172.179 1.13979C172.318 0.799785 172.428 0.589785 172.518 0.499785C172.667 0.349785 172.847 0.279785 173.057 0.279785C173.266 0.279785 173.446 0.329785 173.595 0.439785C173.765 0.649785 173.855 0.939785 173.855 1.29979C173.855 1.70979 173.755 2.24979 173.565 2.92979C173.506 3.24979 173.456 3.51979 173.436 3.74979C173.416 3.96979 173.386 4.14979 173.336 4.27979L173.176 4.78978L176.369 4.75979H177.906C178.135 4.75979 178.364 4.75978 178.594 4.73978C178.813 4.72978 179.013 4.73979 179.183 4.75979C179.412 4.77979 179.632 4.88978 179.821 5.07978C180.011 5.26978 180.111 5.46979 180.111 5.68979C180.111 5.92978 179.991 6.17978 179.761 6.45978C179.382 6.90978 177.716 7.12979 174.783 7.12979H172.199L171.181 9.30979C170.882 9.96979 170.582 10.6098 170.273 11.2098C169.964 11.8198 169.684 12.3098 169.425 12.6998C169.185 13.0798 169.016 13.3698 168.896 13.5598C168.776 13.7498 168.707 13.8698 168.687 13.9098C168.687 13.9498 168.477 14.3198 168.048 14.9998C167.539 15.6998 167.09 16.2398 166.711 16.5998C166.242 17.0698 165.873 17.3398 165.594 17.3998C165.424 17.4398 165.304 17.4598 165.244 17.4598L165.234 17.4698ZM168.746 23.6498C168.746 23.4198 168.796 23.0098 168.906 22.4298C169.036 22.0198 169.175 21.0998 169.325 19.6498L169.425 18.5898L169.614 16.7298C169.724 15.5398 169.804 14.8198 169.874 14.5898C169.984 14.2498 170.183 13.8898 170.482 13.4998C170.692 13.2198 171.011 12.9998 171.44 12.8398C171.869 12.6798 172.478 12.4998 173.296 12.3098C173.974 12.1598 174.613 11.9898 175.212 11.7998C175.321 11.7598 175.601 11.7398 176.07 11.7398H177.057C178.035 11.7398 178.893 11.9498 179.642 12.3798C180.15 12.6598 180.579 13.2798 180.919 14.2398C181.088 14.8198 181.178 15.7098 181.178 16.9298C181.178 17.8098 181.128 19.1198 181.018 20.8698C180.889 22.7898 180.729 24.0298 180.54 24.5798C180.35 25.2598 180.001 25.7198 179.482 25.9598C179.203 26.1098 178.913 26.1798 178.624 26.1798C178.135 26.1798 177.716 25.9498 177.377 25.4798C177.057 25.1198 176.898 24.7498 176.898 24.3898C176.898 23.7898 177.067 23.4698 177.407 23.4298H177.467C177.576 23.4298 177.666 23.4498 177.756 23.4798C177.846 23.5098 177.916 23.5298 177.975 23.5298C178.145 23.5298 178.255 23.4198 178.295 23.2098C178.335 22.9998 178.354 22.5898 178.354 21.9898C178.354 21.1998 178.374 20.5298 178.414 19.9698C178.524 18.2398 178.574 16.8698 178.574 15.8398C178.554 15.3898 178.514 15.0498 178.464 14.7998C178.414 14.5498 178.325 14.3998 178.195 14.3398C178.005 14.1698 177.786 14.0698 177.556 14.0498C177.467 14.0298 177.207 14.0198 176.758 14.0198C176.179 14.0198 175.691 14.0298 175.291 14.0498C173.585 14.0698 172.578 14.1598 172.258 14.3098L171.879 14.4698L171.849 17.0898C171.809 19.1398 171.72 20.5498 171.59 21.3098C171.48 22.0398 171.37 22.6298 171.241 23.0998C171.111 23.5698 170.941 23.9398 170.732 24.2198C170.453 24.5798 170.153 24.7598 169.834 24.7598C169.624 24.7598 169.425 24.7198 169.255 24.6298C168.996 24.5198 168.836 24.3098 168.776 23.9898C168.756 23.9298 168.746 23.8098 168.746 23.6398V23.6498ZM174.623 15.6498C175.132 15.4598 175.561 15.3598 175.9 15.3598C176.279 15.3598 176.608 15.4698 176.888 15.6798C177.077 15.8298 177.177 16.0498 177.177 16.3498C177.177 16.5598 177.067 16.7998 176.858 17.0498C176.728 17.2198 176.369 17.3898 175.77 17.5598C175.361 17.6898 174.862 17.7498 174.274 17.7498H173.984C173.775 17.7498 173.585 17.6898 173.446 17.5598C173.106 17.2798 172.937 17.0498 172.937 16.8598C172.937 16.4598 173.506 16.0498 174.633 15.6398L174.623 15.6498ZM172.927 20.3198C172.927 19.9398 173.276 19.6498 173.984 19.4598C174.623 19.2898 175.142 19.1998 175.551 19.1998C175.701 19.1998 175.9 19.2198 176.16 19.2598C176.668 19.3898 176.928 19.6498 176.928 20.0598C176.928 20.7398 176.289 21.1498 175.012 21.2798C174.843 21.2998 174.633 21.3098 174.374 21.3098C173.775 21.3098 173.366 21.1498 173.126 20.8298C172.997 20.6398 172.937 20.4698 172.937 20.3198H172.927Z" fill="#534741"/>
<path d="M189.24 15.2799C189.389 15.0799 189.539 14.8799 189.699 14.6699C189.858 14.4699 189.988 14.2999 190.098 14.1699C190.477 13.6999 191.016 12.9999 191.694 12.0599C192.782 10.5499 193.63 9.3099 194.248 8.3499L194.917 7.2899C195.855 5.8199 196.364 5.0199 196.453 4.8899C196.683 4.5099 196.882 4.2399 197.032 4.0899C197.162 3.9599 197.331 3.8999 197.541 3.8999C198.179 3.8999 198.449 4.3799 198.339 5.3399C198.319 5.5999 198.219 5.9099 198.05 6.2699C197.88 6.6299 197.611 7.1199 197.252 7.7399L196.234 9.6599C196.124 9.8699 195.855 10.3399 195.406 11.0699C195.386 11.0899 195.057 11.6099 194.418 12.6399C193.61 13.9399 192.742 14.9899 191.834 15.7799C191.066 16.4199 190.447 16.7399 189.978 16.7399C189.659 16.7399 189.419 16.6599 189.26 16.4799C189.1 16.3099 189.02 16.0599 189.02 15.7399C189.02 15.6299 189.09 15.4799 189.24 15.2799ZM194.987 12.7999C195.156 12.6899 195.326 12.6399 195.496 12.6399C195.665 12.6399 195.875 12.7199 196.134 12.8599C196.344 12.9899 196.503 13.4799 196.613 14.3299C196.673 14.8599 196.763 16.4499 196.872 19.0999C196.872 19.3599 196.892 19.6999 196.932 20.1199L196.962 21.0799C196.962 21.2499 196.962 21.4799 196.982 21.7699C197.002 22.0599 196.982 22.2999 196.962 22.4899C196.942 22.7299 196.922 22.9199 196.912 23.0699C196.902 23.2199 196.882 23.3399 196.862 23.4199C196.822 23.7199 196.773 23.9099 196.733 23.9999C196.693 24.0599 196.653 24.1299 196.623 24.2099C196.593 24.2799 196.553 24.3399 196.513 24.3899C196.473 24.4399 196.403 24.4699 196.324 24.4899C196.234 24.5099 196.174 24.5299 196.134 24.5499C196.004 24.6099 195.875 24.6499 195.755 24.6499C195.635 24.6499 195.456 24.6099 195.246 24.5199C194.907 24.3899 194.667 24.1899 194.548 23.9099C194.338 23.4399 194.228 22.2599 194.228 20.3599C194.228 19.9299 194.248 19.0199 194.288 17.6099C194.398 14.6199 194.627 13.0199 194.987 12.8099V12.7999ZM206.9 23.5199C206.73 23.2599 206.61 22.7699 206.55 22.0499C206.49 21.0899 206.451 20.0899 206.451 19.0399C206.451 18.1399 206.461 17.4199 206.48 16.8599L206.51 14.9999L205.453 15.0599C204.834 15.0799 204.156 15.1699 203.407 15.3199C203.088 15.3799 202.809 15.4199 202.579 15.4199C201.751 15.4199 201.332 15.0799 201.332 14.3999C201.332 14.0999 201.472 13.8099 201.751 13.5399C201.921 13.3699 202.23 13.2099 202.679 13.0599L203.348 12.8699C203.707 12.7399 204.016 12.6599 204.276 12.6099C204.724 12.4999 205.183 12.4299 205.652 12.3899C206.181 12.3899 206.5 12.3099 206.61 12.1699C206.72 12.0399 206.78 11.1499 206.8 9.4799C206.8 7.8399 206.9 6.8899 207.089 6.6299C207.319 6.3299 207.598 6.1799 207.917 6.1799C208.197 6.1999 208.396 6.2599 208.526 6.3699C208.566 6.3899 208.656 6.5499 208.785 6.8499C208.995 7.2799 209.164 8.2699 209.294 9.8299L209.514 12.1299L210.92 12.2299C211.878 12.2699 212.437 12.4099 212.616 12.6499C212.916 13.0599 213.065 13.3999 213.065 13.6699C213.065 14.0999 212.756 14.4599 212.138 14.7599C211.898 14.8699 211.629 14.9399 211.309 14.9799C210.99 15.0199 210.661 15.0399 210.322 15.0399L210.132 15.0099C209.923 15.0299 209.763 15.0599 209.653 15.1099C209.543 15.1499 209.474 15.2399 209.434 15.3699C209.324 15.7299 209.274 16.3699 209.274 17.2899C209.274 17.7199 209.274 18.0499 209.304 18.2799C209.324 18.4499 209.334 18.6099 209.324 18.7599C209.314 18.9099 209.324 19.0399 209.344 19.1399C209.364 19.4599 209.374 19.8999 209.374 20.4499C209.374 21.7699 209.294 22.6599 209.154 23.1099C209.045 23.4499 208.895 23.7099 208.705 23.8799C208.516 24.0499 208.266 24.1399 207.967 24.1399C207.518 24.1399 207.169 23.9399 206.909 23.5299L206.9 23.5199Z" fill="#534741"/>
<path d="M217.565 25.7298C217.565 25.3698 217.715 24.9698 218.014 24.5498C218.972 23.1398 219.87 21.0998 220.698 18.4398C221.526 15.8998 222.125 13.2598 222.484 10.4998C222.544 9.98977 222.683 9.63976 222.903 9.43976C223.073 9.24977 223.252 9.14977 223.442 9.14977C223.841 9.14977 224.12 9.47977 224.27 10.1398C224.38 10.6098 224.43 11.1098 224.43 11.6398C224.43 12.4098 224.33 13.3598 224.14 14.4898C223.841 16.2998 223.352 18.2498 222.673 20.3098C221.995 22.2898 221.307 23.7698 220.628 24.7298C219.71 25.9698 218.972 26.5898 218.393 26.5898C218.224 26.5898 218.034 26.4998 217.815 26.3298C217.645 26.1798 217.555 25.9798 217.555 25.7198L217.565 25.7298ZM224.33 5.33977C225.946 4.90977 228.959 4.41977 233.369 3.86977C233.748 3.80977 234.427 3.76977 235.385 3.76977C236.422 3.76977 237.36 3.85977 238.178 4.03977C238.996 4.21977 239.495 4.53977 239.665 4.97977C239.745 5.23977 239.794 5.41977 239.794 5.51977C239.794 5.68977 239.735 5.86977 239.605 6.05977C239.495 6.18977 239.286 6.26977 238.966 6.31977C238.497 6.35977 237.59 6.37977 236.253 6.37977C234.427 6.37977 232.421 6.49977 230.246 6.72977C226.265 7.19977 224.08 7.43976 223.701 7.46977C223.571 7.48977 223.392 7.49977 223.162 7.49977C222.883 7.49977 222.664 7.46977 222.494 7.39977C222.215 7.28977 222.075 7.10977 222.075 6.85977C222.075 6.21977 222.833 5.70977 224.34 5.31977L224.33 5.33977ZM225.208 14.7198C225.597 14.1398 225.996 13.8598 226.405 13.8598C226.854 13.8598 227.073 14.1198 227.073 14.6298C227.073 14.9098 227.014 15.2298 226.884 15.5898C226.624 16.3398 226.295 16.8398 225.896 17.0898C225.786 17.1698 225.647 17.2198 225.477 17.2198C225.268 17.2198 225.078 17.1198 224.918 16.9298C224.759 16.7398 224.659 16.5198 224.619 16.2898C224.619 15.8198 224.819 15.2998 225.208 14.7198ZM226.724 11.3598C226.954 11.2498 227.103 11.1398 227.153 11.0098C227.203 10.8798 227.253 10.5998 227.293 10.1798C227.353 9.53977 227.522 9.08977 227.802 8.83977C228.031 8.68977 228.241 8.61977 228.41 8.61977C228.52 8.61977 228.63 8.64977 228.76 8.71977C228.929 8.82977 229.049 8.98977 229.109 9.21977C229.169 9.43977 229.258 9.87977 229.368 10.5198C229.388 10.6498 229.568 10.7098 229.907 10.7098C230.925 10.7098 231.444 11.0798 231.444 11.8298C231.444 12.2098 231.104 12.5298 230.426 12.7898L229.688 13.0498L229.588 14.8698C229.528 15.9398 229.428 16.6098 229.298 16.8898C229.169 17.1698 228.949 17.3098 228.63 17.3098C227.932 17.3098 227.542 16.6098 227.483 15.1998C227.463 14.9198 227.453 14.5898 227.453 14.2098C227.433 13.8498 227.403 13.6098 227.373 13.4898C227.343 13.3698 227.273 13.2898 227.163 13.2498C227.034 13.2098 226.834 13.1698 226.575 13.1398C226.315 13.1098 226.126 13.0598 226.016 12.9998C225.806 12.8498 225.697 12.6598 225.697 12.4198C225.697 11.9898 226.036 11.6498 226.714 11.3998L226.724 11.3598ZM228.61 19.9998C228.69 19.8898 228.879 19.6598 229.149 19.2998C229.428 18.9398 229.658 18.6798 229.837 18.5298C230.017 18.3798 230.186 18.3098 230.336 18.3098C230.396 18.3098 230.516 18.3498 230.685 18.4398C230.895 18.5898 231.005 18.7798 231.005 19.0198C231.005 19.2298 230.945 19.4698 230.815 19.7198C230.685 19.9698 230.605 20.1598 230.556 20.2598C230.406 20.6198 230.336 20.8298 230.336 20.8698C230.336 20.9598 230.386 21.0098 230.476 21.0498C230.575 21.0798 230.695 21.0998 230.845 21.1098C230.995 21.1198 231.134 21.1398 231.264 21.1598C231.643 21.2198 231.892 21.2598 232.002 21.2598C232.082 21.2598 232.152 21.2298 232.212 21.1798C232.262 21.1298 232.331 21.0198 232.421 20.8798C232.501 20.7298 232.611 20.5698 232.741 20.3998C233.529 19.3998 234.147 18.9898 234.596 19.1798C234.856 19.3098 234.975 19.5098 234.975 19.7898C234.975 20.2198 234.716 20.8098 234.207 21.5798C232.611 24.0098 231.813 25.3698 231.813 25.6398C231.813 25.7498 231.883 25.7998 232.032 25.7998L233.848 25.5798C234.616 25.5198 235.075 25.4498 235.225 25.3898C235.395 25.3298 235.484 25.2298 235.484 25.0998C235.444 24.8398 235.424 24.5098 235.424 24.1098C235.424 23.4898 235.534 23.1098 235.744 22.9598C235.953 22.7898 236.153 22.6998 236.322 22.6998C236.871 22.6998 237.4 23.4298 237.889 24.8798L238.308 26.3498C238.497 27.1198 238.577 27.6498 238.527 27.9498C238.358 28.4998 238.038 28.7798 237.57 28.7798C237.23 28.7798 236.911 28.6298 236.612 28.3298L236.103 27.8498L234.407 28.0098C232.641 28.1798 231.384 28.2698 230.635 28.2698C229.997 28.2698 229.568 28.2198 229.358 28.1098C228.909 27.8998 228.69 27.5698 228.69 27.1198C228.69 27.0598 228.71 26.9198 228.75 26.6998C228.859 26.3998 229.169 25.7998 229.678 24.9098C230.256 23.9498 230.506 23.4498 230.446 23.4098C230.446 23.3898 230.416 23.3798 230.346 23.3798C230.236 23.3798 230.057 23.4098 229.807 23.4798C229.338 23.6098 228.909 23.6698 228.53 23.6698C228.041 23.6698 227.682 23.5498 227.443 23.3198C227.233 23.1298 227.123 22.8998 227.123 22.6498C227.123 22.5198 227.143 22.4098 227.183 22.3298C227.313 21.9698 227.792 21.1998 228.62 20.0298L228.61 19.9998ZM230.077 0.739766C230.077 0.509766 230.136 0.319766 230.266 0.199766C230.396 0.0797656 230.575 0.00976562 230.805 0.00976562C231.064 0.00976562 231.344 0.209766 231.663 0.619766C231.982 1.04977 232.212 1.49977 232.361 1.95977C232.441 2.21977 232.491 2.46977 232.491 2.72977C232.491 2.91977 232.471 3.04977 232.431 3.10977C232.322 3.34977 232.122 3.45977 231.823 3.45977C231.523 3.45977 231.264 3.33977 231.054 3.10977C230.675 2.67977 230.386 2.14977 230.196 1.50977C230.107 1.07977 230.067 0.829766 230.067 0.739766H230.077ZM230.975 13.6298C231.184 13.6298 231.483 13.7698 231.873 14.0498C232.232 14.3698 232.501 14.7098 232.671 15.0698C232.751 15.2598 232.8 15.4698 232.8 15.6798C232.8 15.8098 232.77 15.9398 232.701 16.0598C232.571 16.3198 232.371 16.4398 232.092 16.4398C231.962 16.4398 231.813 16.4098 231.643 16.3398C231.134 16.0798 230.765 15.7198 230.556 15.2498C230.366 14.8898 230.266 14.5898 230.266 14.3498C230.266 14.1398 230.326 13.9698 230.456 13.8398C230.605 13.6898 230.775 13.6198 230.965 13.6198L230.975 13.6298ZM234.736 13.8598C234.995 13.6298 235.285 13.5098 235.634 13.5098C235.933 13.5098 236.153 13.6298 236.302 13.8598C236.342 13.9898 236.362 14.1098 236.362 14.2098C236.362 14.5298 236.203 14.8798 235.883 15.2698C235.434 15.8698 235.005 16.0998 234.606 15.9698C234.177 15.8398 233.968 15.5398 233.968 15.0698C234.008 14.5998 234.267 14.1998 234.736 13.8498V13.8598ZM234.656 10.7198C234.946 10.5698 235.355 10.4998 235.883 10.4998C236.183 10.4998 236.402 10.4798 236.542 10.4498C236.682 10.4198 236.781 10.3398 236.841 10.2098C236.951 9.88977 237.001 9.46977 237.001 8.95977C237.001 8.44977 237.071 8.00977 237.21 7.70977C237.35 7.40977 237.609 7.25977 237.989 7.25977C238.477 7.25977 238.857 7.76977 239.136 8.79977C239.266 9.34977 239.355 9.69977 239.425 9.81977C239.485 9.96976 239.575 10.0698 239.695 10.1198C239.814 10.1698 239.954 10.1998 240.124 10.1998H240.473C240.663 10.1998 240.832 10.2398 240.982 10.3098C241.131 10.3898 241.261 10.5198 241.361 10.7098C241.421 10.8398 241.461 10.9898 241.461 11.1598C241.461 11.3898 241.421 11.5898 241.331 11.7398C241.221 11.8898 241.012 12.0298 240.712 12.1698C240.403 12.3098 240.054 12.4098 239.675 12.4698C239.525 12.4898 239.425 12.5698 239.385 12.6898C239.345 12.8198 239.326 12.9998 239.326 13.2298C239.326 14.9798 239.116 16.0198 238.687 16.3698C238.477 16.5398 238.268 16.6298 238.078 16.6298C237.889 16.6298 237.669 16.5498 237.44 16.3698C237.23 16.1998 237.101 15.9598 237.061 15.6698C237.021 15.3698 236.981 14.8298 236.961 14.0398C236.941 13.8698 236.931 13.6098 236.931 13.2698C236.911 12.9898 236.811 12.8098 236.632 12.7098C236.452 12.6098 236.123 12.5698 235.654 12.5698C235.145 12.5698 234.776 12.5098 234.556 12.3798C234.337 12.2498 234.217 12.0498 234.217 11.7698C234.217 11.2198 234.357 10.8598 234.646 10.7098L234.656 10.7198ZM240.393 13.9498C240.393 13.6298 240.493 13.4098 240.682 13.2798C240.792 13.1698 240.942 13.1198 241.131 13.1198C241.341 13.1198 241.55 13.2098 241.74 13.3798C241.95 13.5298 242.119 13.7498 242.249 14.0398C242.379 14.3298 242.438 14.6198 242.438 14.9198C242.438 15.2198 242.349 15.4498 242.179 15.6198C241.989 15.7498 241.82 15.8098 241.67 15.8098C241.072 15.8098 240.682 15.3898 240.493 14.5598C240.433 14.3298 240.393 14.1198 240.393 13.9498Z" fill="#534741"/>
</g>
<defs>
<clipPath id="clip0_126_328">
<rect width="272" height="31" fill="white" transform="translate(0.5)"/>
</clipPath>
</defs>
</svg>
