<svg width="273" height="66" viewBox="0 0 273 66" fill="none" xmlns="http://www.w3.org/2000/svg">
<path d="M5.04001 23.02C4.44001 22.55 4.14001 22.15 4.14001 21.8C4.14001 21.69 4.16001 21.61 4.20001 21.54C4.37001 21.26 4.65001 21.12 5.03001 21.12C5.16001 21.12 5.41001 21.16 5.80001 21.25C6.29001 21.42 6.58001 21.51 6.66001 21.51C6.79001 21.51 7.00001 20.79 7.30001 19.33C7.51001 18.16 7.62001 17.45 7.62001 17.22C7.62001 17.07 7.60001 16.97 7.56001 16.93C7.50001 16.87 7.02001 16.86 6.12001 16.9L4.81001 17L4.01001 18.6C2.73001 21.16 1.67001 22.44 0.84001 22.44C0.65001 22.44 0.45001 22.36 0.23001 22.18C0.0800098 22.05 0.0100098 21.87 0.0100098 21.64C0.0100098 21.28 0.17001 20.83 0.49001 20.3C0.85001 19.72 1.24001 19.02 1.64001 18.19L2.25001 16.94L1.90001 16.65C1.62001 16.44 1.52001 16.2 1.58001 15.95C1.58001 15.82 1.60001 15.72 1.64001 15.63C1.77001 15.5 1.84001 15.44 1.86001 15.44C1.94001 15.38 2.09001 15.31 2.31001 15.25C3.08001 14.97 3.52001 14.33 3.62001 13.33C3.62001 13.05 3.59001 12.89 3.52001 12.85C3.41001 12.79 3.18001 12.74 2.82001 12.72C1.97001 12.59 1.54001 12.3 1.54001 11.86C1.54001 11.37 2.05001 11.05 3.08001 10.9C3.36001 10.88 3.59001 10.83 3.78001 10.74C3.91001 10.66 4.01001 10.54 4.10001 10.39C4.16001 10.22 4.20001 10 4.20001 9.72C4.20001 8.84 4.49001 8.41 5.06001 8.41C5.53001 8.41 5.86001 8.88 6.05001 9.82L6.18001 10.46L7.20001 10.4C7.88001 10.36 8.27001 10.29 8.35001 10.21C8.39001 10.19 8.41001 10.05 8.41001 9.79C8.41001 9.41 8.39001 9.07 8.35001 8.77L8.22001 7.46L7.29001 7.33C6.99001 7.29 6.70001 7.27 6.42001 7.27C5.82001 7.27 5.04001 7.33 4.08001 7.46C3.18001 7.57 2.57001 7.62 2.22001 7.62C1.86001 7.62 1.59001 7.58 1.42001 7.49C1.21001 7.36 1.10001 7.19 1.10001 6.98C1.10001 6.85 1.13001 6.72 1.20001 6.6C1.35001 6.3 2.21001 5.96 3.79001 5.58C4.92001 5.3 5.95001 5.16 6.89001 5.16C8.30001 5.16 9.32001 5.5 9.96001 6.18C10.51 6.78 10.79 8.16 10.79 10.34C10.79 12.52 10.55 14.95 10.09 17.76C9.64001 20.62 9.20001 22.4 8.78001 23.1C8.44001 23.61 7.94001 23.87 7.28001 23.87C6.51001 23.87 5.75001 23.59 5.01001 23.04L5.04001 23.02ZM6.77001 14.83C7.43001 14.83 7.81001 14.78 7.92001 14.67C8.03001 14.56 8.11001 14.15 8.18001 13.42L8.24001 12.65L7.44001 12.59H7.22001C6.79001 12.59 6.49001 12.67 6.32001 12.81C6.11001 12.96 5.95001 13.28 5.84001 13.77C5.78001 14.33 5.73001 14.62 5.71001 14.67C5.71001 14.73 6.06001 14.79 6.77001 14.83ZM13.81 7.24C14.19 6.56 14.96 5.98 16.11 5.51C16.73 5.25 17.32 5.13 17.87 5.13C18.89 5.13 19.7 5.51 20.3 6.28C20.9 7.07 21.2 7.92 21.2 8.84C21.2 9.5 21.06 10.17 20.78 10.86L20.4 11.85L20.75 12.62C21.01 13.15 21.13 13.88 21.13 14.8C21.13 15.72 21 16.39 20.75 16.88C20.41 17.52 19.94 18.01 19.34 18.35C18.87 18.63 18.43 18.77 18.03 18.77C17.86 18.77 17.73 18.76 17.65 18.74C17.35 18.68 17.11 18.52 16.91 18.26C16.74 18.03 16.65 17.8 16.65 17.59C16.65 17.21 16.93 16.89 17.48 16.63C18.01 16.35 18.34 16.01 18.47 15.61C18.58 15.23 18.63 14.9 18.63 14.62C18.63 14.09 18.49 13.59 18.21 13.12C17.93 12.69 17.79 12.34 17.79 12.06C17.79 11.78 17.92 11.35 18.17 10.75C18.49 9.94 18.65 9.26 18.65 8.7C18.65 8.27 18.56 7.94 18.39 7.71C18.2 7.43 17.91 7.29 17.53 7.29C17.17 7.29 16.71 7.42 16.15 7.67L15.45 7.99L15.55 9.21C15.83 12.69 15.97 15.63 15.97 18.04C15.97 18.85 15.96 19.43 15.94 19.77C15.83 22.2 15.5 23.61 14.95 23.99C14.78 24.1 14.61 24.15 14.44 24.15C14.36 24.15 14.25 24.13 14.12 24.09C13.86 24.03 13.67 23.85 13.54 23.55C13.48 23.38 13.44 22.2 13.44 20C13.44 18.19 13.45 16.67 13.47 15.46C13.49 10.36 13.6 7.63 13.79 7.27L13.81 7.24Z" fill="#534741"/>
<path d="M27.7 13.42C27.53 13.29 27.44 13.14 27.44 12.97C27.44 12.76 27.52 12.57 27.68 12.41C27.84 12.25 28.09 12.08 28.43 11.91L29.17 11.53V9.07C29.17 7.39 29.22 6.37 29.33 6.03C29.52 5.45 29.76 5.17 30.03 5.17C30.16 5.17 30.31 5.22 30.48 5.33C30.67 5.46 30.84 5.86 30.99 6.53C31.14 7.2 31.25 8.11 31.31 9.27L31.41 10.97L32.02 10.87C32.34 10.83 32.72 10.72 33.17 10.55L33.65 10.36L33.84 8.54C33.97 7.35 34.06 6.1 34.13 4.8L34.16 4.06C34.16 3.7 34.16 3.46 34.19 3.36L34.29 2.59C34.33 2.38 34.38 2.25 34.42 2.21C34.48 2.15 34.56 2.1 34.64 2.08C34.85 2.02 35.06 2.05 35.26 2.18C35.46 2.31 35.62 2.51 35.72 2.79C35.91 3.26 36.02 3.8 36.04 4.42C36.08 5.23 36.17 5.67 36.3 5.73C36.36 5.75 36.53 5.76 36.8 5.76H37.46C38.1 5.76 38.48 5.87 38.61 6.08C38.69 6.23 38.74 6.38 38.74 6.53C38.74 7.02 38.15 7.42 36.98 7.71L36.15 7.9L36.02 9.69H36.95C37.95 9.69 38.45 10 38.45 10.62C38.45 11.07 38.2 11.4 37.71 11.61C37.13 11.87 36.14 12.18 34.73 12.54C33.36 12.88 31.94 13.16 30.44 13.37C29.18 13.54 28.48 13.63 28.33 13.63C28.07 13.63 27.86 13.57 27.69 13.44L27.7 13.42ZM36.56 23.18C37.37 23.16 38.26 23.11 39.22 23.02C40.46 22.94 41.53 22.89 42.45 22.89C43.65 22.89 44.37 22.93 44.63 23.02C45.01 23.17 45.21 23.45 45.21 23.85C45.21 24.28 45.04 24.59 44.7 24.78C44.53 24.89 43.36 25 41.18 25.13C39.92 25.21 38.7 25.26 37.53 25.26L36.12 25.23C34.82 25.19 34.06 25.05 33.85 24.81C33.64 24.55 33.57 24.29 33.66 24.01C33.81 23.52 34.78 23.24 36.57 23.18H36.56ZM35.19 18.86C35.19 18.56 35.37 18.33 35.73 18.16C36.01 18.03 36.7 17.87 37.81 17.68C38.83 17.49 39.91 17.39 41.04 17.39C41.64 17.39 42.2 17.44 42.74 17.55C43.04 17.61 43.26 17.78 43.41 18.06C43.52 18.23 43.57 18.4 43.57 18.57C43.57 18.74 43.5 18.9 43.36 19.03C43.22 19.16 43.02 19.28 42.77 19.37C42.47 19.48 41.34 19.57 39.38 19.66C38.06 19.7 37.27 19.72 37.01 19.72C36.52 19.72 36.15 19.7 35.89 19.66C35.44 19.53 35.21 19.3 35.19 18.96V18.86ZM42.61 5.8C42.74 4.46 42.88 3.65 43.03 3.37C43.11 3.22 43.31 3.12 43.61 3.08H43.74C43.97 3.08 44.16 3.15 44.28 3.3C44.39 3.43 44.47 4.09 44.54 5.28C44.6 6.3 44.67 6.89 44.73 7.04C44.73 7.06 44.76 7.07 44.83 7.07C44.96 7.07 45.25 7.01 45.69 6.88C46.27 6.73 46.76 6.66 47.16 6.66C47.95 6.66 48.34 6.96 48.34 7.56C48.34 8.12 47.87 8.52 46.93 8.78C46.35 8.95 46.02 9.04 45.94 9.04C45.83 9.04 45.71 9.06 45.57 9.1C45.43 9.14 45.3 9.19 45.17 9.23C44.89 9.29 44.72 9.37 44.66 9.45C44.6 9.53 44.56 9.76 44.56 10.12C44.56 10.53 44.67 10.9 44.88 11.24C45.01 11.43 45.18 11.54 45.39 11.56C45.6 11.6 45.98 11.62 46.51 11.62C47.9 11.62 48.82 11.58 49.29 11.49C49.38 11.47 49.49 11.46 49.64 11.46C49.83 11.46 49.97 11.51 50.06 11.62C50.21 11.81 50.28 12.05 50.28 12.32C50.28 12.7 50.17 13.06 49.96 13.38C49.73 13.74 49.43 13.98 49.06 14.08C48.85 14.14 48.43 14.18 47.81 14.18C45.53 14.18 44.01 13.81 43.27 13.06C42.65 12.44 42.34 11.22 42.34 9.38C42.34 8.83 42.42 7.63 42.6 5.8H42.61Z" fill="#534741"/>
<path d="M56.56 21.1C56.65 20.82 56.83 20.68 57.1 20.68C57.36 20.68 57.64 20.76 57.96 20.9C58.58 21.18 59 21.27 59.24 21.19C59.45 21.08 59.57 20.45 59.59 19.3C59.59 18.3 59.51 17.71 59.37 17.54C59.31 17.48 59.21 17.44 59.08 17.44C58.82 17.44 58.5 17.51 58.12 17.66C57.61 17.83 57.24 17.92 57.03 17.92C56.82 17.92 56.67 17.86 56.6 17.74C56.52 17.62 56.49 17.44 56.49 17.18C56.49 16.97 56.61 16.75 56.84 16.54C57.05 16.33 57.53 16.02 58.28 15.61L59.43 14.97L59.53 12.79C59.55 12.49 59.56 12.11 59.56 11.64C59.56 10.87 59.5 10.39 59.37 10.2C59.28 10.05 59.11 9.96 58.84 9.93C58.57 9.9 58.09 9.87 57.38 9.85H56.9L55.94 9.82C55.83 9.8 55.7 9.71 55.56 9.56C55.5 9.45 55.46 9.38 55.46 9.34C55.46 8.81 56.23 8.47 57.76 8.32C58.51 8.28 58.97 8.2 59.14 8.1C59.31 7.99 59.41 7.62 59.43 6.98C59.43 6.4 59.53 6.04 59.72 5.89C59.91 5.7 60.08 5.6 60.23 5.6C60.34 5.6 60.43 5.64 60.52 5.73C60.8 5.92 61.02 6.38 61.19 7.11C61.27 7.84 61.42 8.26 61.64 8.39C61.86 8.52 62.15 8.58 62.54 8.58C62.97 8.6 63.24 8.71 63.37 8.9L63.43 9.16C63.43 9.24 63.39 9.36 63.3 9.51C63.17 9.72 62.87 9.86 62.4 9.93C62.06 9.99 61.83 10.08 61.73 10.19C61.65 10.28 61.6 10.49 61.6 10.83L61.66 11.89C61.68 12.91 61.76 13.49 61.88 13.62C61.97 13.71 62.12 13.75 62.33 13.75C62.52 13.75 62.78 13.72 63.1 13.65C63.4 13.59 63.64 13.55 63.84 13.55C64.24 13.55 64.44 13.72 64.42 14.06V14.19C64.42 14.4 64.34 14.56 64.2 14.67C64.03 14.86 63.67 15.11 63.11 15.41L61.96 16.02L61.9 19.03L61.84 21.62C61.84 22.26 61.79 22.69 61.68 22.9C61.62 23.18 61.5 23.4 61.33 23.57C61.07 23.85 60.76 23.99 60.4 23.99C60.04 23.99 59.61 23.85 59.12 23.57C57.24 22.57 56.39 21.75 56.56 21.11V21.1ZM67.83 9.51C67.83 9.3 67.96 9.06 68.21 8.81C68.36 8.66 68.75 8.53 69.39 8.43C70.03 8.32 70.97 8.22 72.21 8.11L74.39 7.95L75.7 7.82C76.15 7.74 76.61 7.69 77.08 7.69C77.91 7.69 78.53 7.84 78.94 8.14C79.22 8.4 79.36 8.71 79.36 9.07V9.17C79.36 9.58 79.22 9.81 78.94 9.87C78.81 9.93 78.45 10 77.85 10.06C77.34 10.17 76.72 10.23 75.99 10.25L73.65 10.35L72.44 10.38L71.29 10.35C69.95 10.31 69.11 10.28 68.79 10.25C68.58 10.23 68.34 10.13 68.09 9.96C67.92 9.79 67.83 9.64 67.83 9.51ZM68.98 20.91C68.98 20.68 69.04 20.46 69.17 20.27C69.3 20.04 69.48 19.92 69.71 19.92C69.97 19.92 70.47 20.12 71.21 20.53C71.93 20.91 72.39 21.1 72.59 21.07C72.93 21.01 73.1 19.42 73.1 16.3C73.1 14.36 73.24 13.22 73.52 12.88C73.69 12.65 73.89 12.53 74.13 12.53C74.32 12.53 74.52 12.64 74.74 12.85C75.15 13.23 75.4 14.55 75.51 16.79L75.54 18.23C75.54 20.02 75.41 21.44 75.16 22.49C74.9 23.66 74.34 24.25 73.46 24.25C73.27 24.25 73.12 24.25 73.01 24.22C72.73 24.16 72.23 23.92 71.51 23.52C70.7 23.03 70.11 22.63 69.75 22.34C69.39 22.02 69.14 21.68 69.01 21.32C68.99 21.24 68.98 21.11 68.98 20.94V20.91Z" fill="#534741"/>
<path d="M85.11 7.75C85.19 6.21 85.26 5.29 85.3 4.97C85.38 4.61 85.6 4.34 85.94 4.17C86.45 3.89 87.37 3.68 88.69 3.53C89.14 3.47 89.53 3.43 89.87 3.43C90.27 3.43 90.55 3.46 90.7 3.53C91.1 3.64 91.44 3.83 91.69 4.11C91.95 4.39 92.15 4.8 92.3 5.36C92.45 5.96 92.52 7.01 92.52 8.53C92.52 9.17 92.48 9.65 92.39 9.97C92.22 10.8 91.91 11.37 91.46 11.67C90.93 11.9 90.06 12.03 88.87 12.05L87.01 12.11V14.32C86.99 17.11 86.93 19.41 86.83 21.2C86.73 22.99 86.63 24.06 86.53 24.4C86.36 25 86.07 25.3 85.67 25.3C85.27 25.3 84.98 25.13 84.81 24.79C84.73 24.45 84.68 23.52 84.68 22.01C84.68 18.06 84.82 13.32 85.1 7.77L85.11 7.75ZM87.06 8.39C87.12 8.33 87.15 8.26 87.12 8.2C87.12 7.88 87.5 7.65 88.27 7.5C88.53 7.44 88.73 7.4 88.88 7.4C89.07 7.4 89.22 7.44 89.33 7.53C89.61 7.68 89.77 7.86 89.81 8.07V8.17C89.81 8.34 89.68 8.52 89.43 8.71C89.19 8.94 88.87 9.06 88.47 9.06C87.85 9.06 87.46 8.98 87.29 8.8L87.03 8.54L87.13 9.44C87.15 9.8 87.18 10.02 87.23 10.08C87.25 10.14 87.34 10.18 87.49 10.18C88.3 10.18 88.97 10.14 89.49 10.07C90.01 10 90.32 9.92 90.4 9.83C90.44 9.7 90.46 8.84 90.46 7.24C90.46 6.43 90.42 5.96 90.33 5.83C90.29 5.75 89.93 5.7 89.24 5.7C88.47 5.7 87.89 5.73 87.48 5.8L86.94 5.9V7.05C86.92 7.8 86.96 8.25 87.07 8.39H87.06ZM90.71 17.96C90.77 17.9 90.94 17.84 91.22 17.8C91.37 17.8 91.48 17.79 91.54 17.77C92.07 17.66 92.37 17.58 92.44 17.51C92.5 17.45 92.54 17.24 92.54 16.9C92.54 16.6 92.53 16.37 92.51 16.2L92.45 15.3L91.81 15.17C91.45 15.11 91.21 15.04 91.09 14.98C90.97 14.92 90.91 14.81 90.91 14.66C90.91 14.28 91.33 13.96 92.16 13.7C92.57 13.66 93.07 13.58 93.66 13.48C94.09 13.4 94.65 13.3 95.36 13.19C95.74 13.13 96.13 13.09 96.51 13.09C96.68 13.09 96.98 13.11 97.41 13.15C98.03 13.23 98.47 13.41 98.72 13.66C98.91 13.79 99.01 13.93 99.01 14.08C99.01 14.25 98.72 14.55 98.15 14.98C98.04 15.02 97.99 15.18 97.99 15.46C97.99 15.7 98 15.89 98.02 16.04L98.15 17.22L98.85 17.41C98.96 17.45 99.14 17.51 99.41 17.59C99.68 17.67 99.86 17.75 99.95 17.83C100.05 17.91 100.09 18.03 100.09 18.18C100.09 18.24 100.08 18.3 100.06 18.36C100.04 18.41 100.02 18.46 100 18.5L99.94 18.63C99.86 18.8 99.7 18.93 99.49 19.01C99.32 19.1 99.11 19.17 98.85 19.23C98.74 19.25 98.61 19.28 98.45 19.33C98.29 19.37 98.2 19.41 98.18 19.46L98.15 20.1L98.12 21.54C98.04 22.69 97.93 23.41 97.8 23.68C97.76 23.87 97.68 24 97.56 24.06C97.44 24.12 97.28 24.16 97.06 24.16C96.65 24.16 96.38 23.99 96.23 23.65C96.08 23.24 96.01 22.44 96.01 21.25L95.91 19.23H95.11C94.92 19.23 94.76 19.25 94.65 19.29C94.53 19.33 94.46 19.35 94.44 19.35C94.36 19.39 94.25 19.94 94.12 20.98C93.99 21.75 93.75 22.37 93.38 22.84C93.12 23.12 92.87 23.26 92.61 23.26C92.48 23.26 92.37 23.26 92.29 23.23C92.01 23.23 91.87 23.05 91.87 22.69C91.87 22.37 91.95 21.89 92.13 21.25C92.28 20.4 92.33 19.82 92.29 19.52C92.27 19.33 92.01 19.2 91.52 19.14C91.16 19.08 90.9 18.98 90.74 18.85C90.58 18.72 90.5 18.53 90.5 18.27C90.5 18.16 90.57 18.06 90.72 17.95L90.71 17.96ZM94.13 15.66C94.13 15.74 94.17 16.02 94.26 16.49L94.42 17.48L95.12 17.45L96.05 17.42L96.15 16.46L96.18 15.95C96.18 15.48 96.15 15.24 96.08 15.21C95.95 15.13 95.8 15.09 95.62 15.1C95.44 15.11 95.32 15.12 95.25 15.12H95.06C94.65 15.12 94.38 15.2 94.23 15.34C94.17 15.4 94.13 15.51 94.13 15.66ZM98.69 6.07C98.76 5.29 98.91 4.72 99.12 4.36C99.33 3.93 99.86 3.57 100.69 3.27C101.12 3.16 101.82 3.11 102.8 3.11H103.6C104.73 3.15 105.41 3.22 105.65 3.3C105.8 3.36 105.95 3.51 106.11 3.73C106.27 3.95 106.39 4.12 106.48 4.23C106.59 4.36 106.69 4.83 106.8 5.64C106.82 5.88 106.84 6.2 106.85 6.62C106.86 7.04 106.88 7.55 106.9 8.17C106.9 8.81 106.91 9.32 106.93 9.71C106.97 11.54 106.99 12.85 106.99 13.61C106.99 18.45 106.67 22.08 106.03 24.49C105.88 24.87 105.69 25.21 105.45 25.48C105.19 25.78 104.91 26 104.59 26.15C104.35 26.21 104.14 26.24 103.95 26.21C103.4 26.27 102.85 26.02 102.32 25.44C101.96 25.12 101.77 24.81 101.74 24.51C101.74 23.93 101.95 23.7 102.38 23.81C102.4 23.79 102.44 23.78 102.51 23.78C102.62 23.78 102.8 23.83 103.05 23.94L103.47 24.07L103.57 24.01C103.7 23.9 103.86 23.16 104.05 21.77C104.22 20.45 104.32 19.25 104.34 18.19C104.42 16.97 104.47 15.63 104.47 14.16L104.41 12.11H102.14C101.1 12.11 100.32 12.07 99.8 11.98C99.39 11.85 99.09 11.61 98.87 11.24C98.7 10.94 98.59 10.2 98.55 9.03C98.57 7.83 98.62 6.85 98.69 6.07ZM100.6 9.27C100.64 9.71 100.68 9.95 100.73 9.99C100.88 10.1 101.42 10.15 102.36 10.15C103.3 10.15 103.9 10.11 104.15 10.02L104.5 9.89L104.44 7.75C104.42 6.34 104.34 5.56 104.22 5.41C104.11 5.3 103.43 5.22 102.17 5.15C101.53 5.11 101.12 5.09 100.92 5.09C100.71 5.09 100.58 5.11 100.54 5.15C100.5 5.19 100.48 5.43 100.48 5.85L100.51 7.61C100.53 8.27 100.56 8.82 100.61 9.26L100.6 9.27ZM101.07 8.39C100.9 8.24 100.81 8.08 100.81 7.91C100.81 7.7 100.87 7.51 101 7.35C101.13 7.19 101.31 7.08 101.54 7.01C101.8 6.93 102.07 6.89 102.37 6.91H102.75C103.24 6.95 103.58 7.02 103.77 7.1C104.11 7.29 104.28 7.57 104.28 7.93C104.28 8.21 104.09 8.42 103.7 8.57C103.44 8.68 103.11 8.71 102.71 8.67C102.58 8.69 102.46 8.7 102.36 8.69C102.25 8.69 102.16 8.67 102.07 8.67C101.79 8.65 101.45 8.55 101.05 8.38L101.07 8.39Z" fill="#534741"/>
<path d="M114.23 26.78C113.97 26.75 113.76 26.67 113.59 26.54C113.31 26.35 113.17 26.12 113.17 25.87C113.17 25.64 113.29 25.43 113.52 25.26C113.71 25.11 114.11 25 114.7 24.94C115.55 24.86 116.03 24.74 116.14 24.59C116.25 24.48 116.3 24 116.3 23.15C116.3 22.3 116.35 21.65 116.46 21.26C116.54 20.98 116.8 20.71 117.23 20.43C117.81 20.05 118.61 19.75 119.63 19.53C120.65 19.32 121.98 19.15 123.6 19.02C125.56 18.89 127.08 18.83 128.14 18.83C129.31 18.83 130.06 18.9 130.38 19.05C130.78 19.22 131.07 19.52 131.23 19.96C131.39 20.4 131.47 20.95 131.47 21.61C131.47 22.14 131.44 22.7 131.37 23.27L131.27 24.26L132.36 24.36C133.04 24.42 133.51 24.52 133.77 24.65C134.15 24.84 134.31 25.17 134.25 25.64C134.17 26.13 133.93 26.45 133.55 26.6C133.27 26.73 131.22 26.79 127.41 26.79H124.18L120.4 26.82H115.66C114.96 26.82 114.48 26.8 114.22 26.77L114.23 26.78ZM114.39 8.55C114.39 8.29 114.45 8.11 114.58 8.01C114.73 7.86 115.06 7.66 115.57 7.4C116.36 6.95 117.78 5.92 119.83 4.3C121.39 3.08 122.34 2.37 122.68 2.16C122.96 1.99 123.18 1.9 123.35 1.9C123.52 1.9 123.74 1.97 124.02 2.11C124.3 2.25 124.49 2.34 124.6 2.38L125.43 2.83C126.26 3.28 127.51 3.97 129.17 4.91C130.47 5.68 131.16 6.11 131.25 6.19C131.51 6.45 131.63 6.69 131.63 6.93C131.63 7.14 131.53 7.35 131.34 7.54C131.15 7.73 130.89 7.83 130.57 7.83C130.14 7.83 129.42 7.6 128.39 7.13C127.43 6.7 126.59 6.26 125.86 5.79C124.98 5.26 124.31 4.77 123.84 4.32L123.42 3.87L122.33 4.93C120.6 6.57 119.09 7.81 117.79 8.64C116.83 9.24 116.02 9.54 115.36 9.54C114.76 9.54 114.43 9.28 114.37 8.77V8.58L114.39 8.55ZM118.45 23.24L118.48 24.42H120.75L120.81 23.4C120.83 22.91 120.93 22.54 121.1 22.3C121.27 22.05 121.48 21.93 121.74 21.93C121.95 21.93 122.16 22.06 122.35 22.31C122.52 22.57 122.61 22.85 122.61 23.17C122.61 23.66 122.69 23.97 122.87 24.1C122.95 24.19 123.15 24.23 123.45 24.23C123.66 24.23 123.82 24.23 123.93 24.2L124.83 24.1L124.93 23.27C124.99 22.69 125.15 22.33 125.41 22.18C125.6 22.05 125.76 21.99 125.89 21.99C126.06 21.99 126.25 22.1 126.47 22.31C126.73 22.59 126.85 22.93 126.85 23.33C126.85 23.76 126.95 24.03 127.14 24.16C127.31 24.29 127.66 24.33 128.2 24.29L128.9 24.26V21.32H127.91C126.97 21.32 126.32 21.33 125.96 21.35C121.65 21.65 119.35 21.84 119.05 21.93L118.41 22.09L118.47 23.24H118.45ZM119.04 13.9C119.09 13.54 119.16 13.29 119.25 13.16C119.36 12.92 119.59 12.71 119.95 12.52C120.27 12.35 120.73 12.18 121.33 12.01C121.82 11.86 122.39 11.73 123.03 11.63C124.01 11.55 124.66 11.5 124.98 11.5C125.77 11.5 126.33 11.6 126.68 11.79C127.38 12.15 127.7 13.04 127.64 14.45C127.53 15.6 127.3 16.38 126.94 16.79C126.49 17.3 125.78 17.62 124.8 17.75C124.33 17.79 123.97 17.81 123.71 17.81C123.28 17.81 122.85 17.78 122.4 17.71C121.44 17.58 120.68 17.41 120.13 17.2C119.66 16.97 119.34 16.68 119.17 16.34C119.04 16.08 118.98 15.72 118.98 15.25C118.98 14.72 119.01 14.27 119.06 13.91L119.04 13.9ZM120.53 8.97C120.53 8.69 120.61 8.51 120.79 8.43C121.22 8.11 122.05 7.83 123.29 7.6C123.37 7.58 123.52 7.57 123.74 7.57C123.87 7.57 124.19 7.59 124.7 7.63C125.34 7.69 125.79 7.8 126.04 7.95C126.38 8.14 126.58 8.42 126.65 8.78V8.91C126.65 9.15 126.49 9.35 126.17 9.52C125.87 9.67 124.98 9.78 123.48 9.84C123.22 9.86 122.88 9.87 122.46 9.87C121.63 9.87 121.12 9.81 120.92 9.68C120.71 9.53 120.58 9.33 120.54 9.07V8.97H120.53ZM121.11 15.37H123C124.02 15.37 124.66 15.32 124.92 15.21C125.13 15.1 125.22 14.83 125.18 14.38L125.15 13.9L123.45 13.87C122.34 13.83 121.66 13.87 121.4 14C121.27 14.04 121.18 14.13 121.11 14.26C121.05 14.39 121.02 14.55 121.05 14.74L121.11 15.38V15.37Z" fill="#534741"/>
<path d="M147.09 23.05C146.94 22.71 146.87 22.45 146.87 22.28C146.87 21.94 147.03 21.7 147.35 21.58C147.43 21.54 147.52 21.52 147.61 21.52C147.84 21.52 148.15 21.62 148.54 21.81C148.97 22.02 149.2 22.13 149.24 22.13C149.35 22.13 149.49 22.05 149.66 21.87C150.26 21.27 150.54 19.98 150.49 18L150.43 15.25H146.33C145.05 15.25 144.03 15.22 143.28 15.15C142.52 15.09 142.08 15.02 141.95 14.96C141.82 14.85 141.76 14.67 141.76 14.42C141.76 13.99 141.98 13.67 142.43 13.46C143.39 13.01 145.08 12.79 147.52 12.79C148.41 12.79 149.04 12.74 149.41 12.63C149.58 12.55 149.68 12.47 149.7 12.41V12.31C149.7 12.2 149.67 12.08 149.6 11.93C149.56 11.76 149.54 11.62 149.54 11.51C149.54 10.76 150.02 9.8 150.98 8.63C151.81 7.54 152.41 6.74 152.77 6.23L153.44 5.24L152.99 5.05C152.76 4.94 152.26 4.89 151.49 4.89C150.79 4.89 150.21 4.91 149.76 4.95C147.95 5.12 146.6 5.33 145.73 5.59C145.37 5.7 144.99 5.79 144.61 5.88C144.44 5.88 144.29 5.81 144.16 5.66C143.93 5.43 143.81 5.2 143.81 4.99C143.81 4.54 144.4 4.06 145.57 3.55C147.23 2.8 149.23 2.43 151.55 2.43C153.04 2.43 154.18 2.6 154.97 2.94C155.35 3.13 155.63 3.4 155.8 3.74C156.06 4.15 156.18 4.52 156.18 4.86C156.18 5.33 155.93 5.98 155.43 6.8C154.93 7.62 154.15 8.72 153.11 10.08L152.21 11.23L152.47 11.93L152.76 12.63H154.62C157.18 12.63 158.74 12.84 159.29 13.27C159.61 13.55 159.77 13.85 159.77 14.17C159.77 14.51 159.62 14.8 159.32 15.03C159.06 15.22 158.8 15.33 158.52 15.35C158.33 15.37 158.09 15.38 157.8 15.37C157.51 15.36 157.21 15.35 156.89 15.35C156.74 15.33 156.5 15.32 156.15 15.32L153.46 15.26L153.36 18.43C153.3 20.41 152.88 22.02 152.11 23.26C151.51 24.22 150.74 24.7 149.81 24.7C149.62 24.7 149.47 24.69 149.36 24.67C148.32 24.5 147.56 23.97 147.09 23.07V23.05Z" fill="#534741"/>
<path d="M166.39 17.71C166.39 17.28 166.75 16.58 167.48 15.6C168.1 14.79 168.47 14.31 168.6 14.16C169.8 12.56 170.55 11.59 170.87 11.25C171.42 10.65 171.83 10.31 172.08 10.23C172.31 10.15 172.53 10.1 172.72 10.1C173.15 10.1 173.36 10.28 173.36 10.64C173.36 10.98 173.11 11.55 172.62 12.34L171.79 13.56L171.95 14.97C172.01 15.5 172.05 16.14 172.05 16.89C172.05 17.19 172.03 17.77 171.99 18.62C171.88 20.14 171.77 21.06 171.64 21.4C171.34 21.98 170.98 22.26 170.55 22.26C170.17 22.26 169.87 22.05 169.65 21.62C169.56 21.45 169.52 21.08 169.52 20.5C169.52 20.29 169.54 19.73 169.58 18.84L169.64 16.95C169.64 16.74 169.63 16.63 169.61 16.63C169.55 16.63 169.19 16.92 168.55 17.49C167.97 17.96 167.61 18.23 167.46 18.29C167.33 18.33 167.24 18.35 167.17 18.35C167 18.35 166.83 18.3 166.66 18.19C166.47 18.08 166.37 17.92 166.37 17.71H166.39ZM166.87 10.73C166.87 10.54 166.93 10.37 167.06 10.22C167.44 9.71 168.19 8.88 169.3 7.72C170.77 6.21 171.65 5.45 171.92 5.45C172.22 5.45 172.43 5.56 172.56 5.77C172.6 5.86 172.62 5.94 172.62 6.03C172.62 6.41 172.29 7.09 171.63 8.05C170.75 9.22 169.81 10.2 168.78 10.99C168.35 11.35 167.97 11.53 167.63 11.53C167.37 11.53 167.17 11.41 167.02 11.18C166.91 11.01 166.86 10.86 166.86 10.73H166.87ZM186.61 25.83C185.71 25.45 184.91 25.04 184.21 24.61C183.5 24.18 183.09 23.93 182.96 23.84C182.81 23.76 182.67 23.73 182.54 23.78C182.39 23.8 182.05 23.99 181.52 24.36C180.86 24.77 180.16 25.11 179.44 25.38C178.69 25.66 178.16 25.76 177.84 25.7C177.26 25.57 176.98 25.26 176.98 24.77C176.98 24.58 177.01 24.44 177.08 24.35C177.12 24.27 177.22 24.17 177.37 24.06C177.43 24.02 177.53 23.97 177.66 23.92C177.79 23.87 177.94 23.79 178.11 23.68C178.2 23.62 178.31 23.55 178.45 23.49C178.59 23.43 178.75 23.34 178.94 23.23C179.07 23.14 179.21 23.06 179.37 22.97C179.53 22.89 179.65 22.81 179.74 22.75C180.06 22.54 180.27 22.38 180.38 22.27C180.61 22.12 180.73 21.99 180.73 21.89C180.73 21.79 180.54 21.51 180.15 21.06C179.92 20.76 179.71 20.57 179.54 20.48C179.52 20.46 179.46 20.45 179.38 20.45C179.25 20.45 179.13 20.46 179.03 20.48L178.77 20.51C178.49 20.51 178.29 20.43 178.16 20.25C177.97 20.1 177.87 19.9 177.87 19.64C177.87 19.51 177.9 19.38 177.97 19.26C178.01 19.15 178.03 18.98 178.03 18.75C178.01 18.64 177.95 18.5 177.87 18.33C177.76 18.12 177.63 17.91 177.49 17.72C176.94 16.97 176.61 16.41 176.5 16.02C176.48 15.98 176.47 15.9 176.47 15.8C176.47 15.54 176.6 15.34 176.85 15.19C177.06 15.11 177.21 15.06 177.3 15.06C177.36 15.06 177.46 15.08 177.59 15.12C177.82 15.21 178.19 15.46 178.68 15.89C178.72 15.93 178.85 16.05 179.05 16.24C179.25 16.43 179.4 16.53 179.48 16.53C179.5 16.53 179.59 16.4 179.74 16.15C179.87 15.96 180.01 15.7 180.16 15.38C180.29 15.08 180.35 14.89 180.35 14.8C180.35 14.67 180.45 14.52 180.64 14.35C180.85 14.18 181.02 14.09 181.15 14.09C181.32 14.09 181.51 14.2 181.73 14.41C181.9 14.54 181.99 14.78 181.99 15.15C181.99 15.92 181.81 16.61 181.45 17.23C181.17 17.78 181.03 18.14 181.03 18.29C181.03 18.38 181.28 18.7 181.77 19.25C182.26 19.78 182.55 20.05 182.64 20.05C182.68 20.05 182.8 19.94 182.99 19.73L183.5 19.06C183.69 18.83 183.85 18.6 183.98 18.39L184.17 18.01C184.17 18.01 184.13 17.95 184.04 17.95C183.95 17.95 183.8 17.97 183.59 18.01L183.14 18.04C183.01 18.04 182.84 18.02 182.63 17.98C182.39 17.92 182.28 17.79 182.28 17.6C182.32 17.15 182.57 16.78 183.02 16.48C183.57 16.16 184.1 16 184.59 16C185.29 16 185.81 16.28 186.13 16.83C186.37 17.19 186.48 17.58 186.48 17.98C186.48 18.06 186.46 18.24 186.42 18.49C186.25 19.02 186.08 19.47 185.91 19.82C185.74 20.17 185.46 20.54 185.08 20.92C185.06 20.92 185.02 20.98 184.95 21.11C184.78 21.32 184.67 21.49 184.63 21.62C184.59 21.75 184.61 21.86 184.69 21.94C184.71 21.98 184.93 22.07 185.35 22.21C185.77 22.35 186.18 22.62 186.58 23.03C186.62 23.07 186.66 23.1 186.69 23.11C186.72 23.12 186.75 23.14 186.77 23.16C186.81 23.2 186.85 23.23 186.88 23.24C186.91 23.25 186.94 23.26 186.96 23.26C187.02 23.26 187.1 23.3 187.18 23.39C187.8 23.58 188.27 23.79 188.6 24.01C188.93 24.23 189.3 24.51 189.7 24.83C190.06 25.07 190.24 25.36 190.24 25.73C190.2 26.33 189.92 26.67 189.41 26.75C189 26.81 188.08 26.5 186.63 25.82L186.61 25.83ZM180.18 3.27C180.73 2.69 181.17 2.41 181.49 2.41C181.94 2.41 182.16 2.57 182.16 2.89C182.16 2.95 182.14 3.07 182.1 3.24C182.02 3.41 181.65 3.98 181.01 4.94C180.73 5.32 180.51 5.65 180.36 5.92C180.2 6.19 180.13 6.35 180.15 6.42C180.21 6.48 180.5 6.55 181.01 6.61C181.2 6.63 181.41 6.65 181.63 6.67C181.85 6.69 182.01 6.71 182.09 6.73C182.18 6.75 182.32 6.67 182.52 6.47C182.72 6.28 182.95 5.99 183.21 5.61C183.96 4.59 184.56 4.07 185.03 4.07C185.33 4.07 185.54 4.26 185.67 4.65C185.76 4.86 185.63 5.3 185.3 5.95C184.97 6.6 184.41 7.52 183.62 8.72C183.41 9.04 183.24 9.3 183.11 9.49C182.98 9.68 182.87 9.83 182.79 9.94C182.56 10.28 182.44 10.46 182.44 10.48C182.74 10.5 183.14 10.5 183.65 10.48L184.93 10.45L185.15 9.71C185.17 9.65 185.21 9.52 185.28 9.33C185.34 9.14 185.42 9 185.5 8.91C185.65 8.76 185.84 8.69 186.07 8.69C186.33 8.69 186.54 8.87 186.71 9.23C186.92 9.74 187.09 10.45 187.22 11.34L187.38 12.4C187.49 13.15 187.54 13.66 187.54 13.94C187.54 14.56 187.28 14.87 186.77 14.87C186.26 14.87 185.81 14.38 185.49 13.4C185.4 13.19 185.29 12.93 185.14 12.63C185.1 12.59 184.5 12.66 183.35 12.85C182.22 13.04 181.41 13.2 180.92 13.33C180.36 13.48 179.93 13.55 179.61 13.55C179.29 13.55 178.98 13.48 178.68 13.33C178.32 13.14 178.14 12.82 178.14 12.37C178.14 11.88 178.39 11.39 178.88 10.9C179.01 10.79 179.2 10.6 179.46 10.32C179.86 9.85 180.11 9.56 180.2 9.46C180.39 9.27 180.59 9.02 180.81 8.72C181 8.53 181.1 8.39 181.1 8.3C180.8 8.28 180.37 8.29 179.82 8.33C179.63 8.35 179.37 8.36 179.05 8.36C178.67 8.36 178.38 8.33 178.19 8.26C177.85 8.15 177.61 7.93 177.48 7.59C177.42 7.42 177.38 7.27 177.38 7.14C177.38 7.06 177.4 6.93 177.44 6.76C177.65 6.18 178.56 5.02 180.16 3.27H180.18Z" fill="#534741"/>
<path d="M195.78 21.98C195.58 21.71 195.42 21.31 195.32 20.78C195.23 20.29 195.13 18.91 195 16.65C194.91 15.37 194.87 14.3 194.87 13.45C194.87 13.04 194.88 12.79 194.9 12.68C194.94 12.4 195.08 11.99 195.32 11.43C195.55 10.88 195.88 10.25 196.31 9.54C197.23 7.94 197.78 7.07 197.97 6.92C198.18 6.75 198.39 6.66 198.58 6.66C198.73 6.66 198.86 6.7 198.96 6.79C199.17 6.94 199.28 7.17 199.28 7.49C199.28 7.7 199.24 7.94 199.15 8.19C198.89 9.04 198.47 9.85 197.87 10.62C197.47 11.17 197.28 11.47 197.33 11.52C197.39 11.58 197.85 11.49 198.71 11.23C199.56 11.02 200.64 10.88 201.94 10.81C202.2 10.79 202.53 10.78 202.93 10.78C203.46 10.78 203.84 10.81 204.05 10.88C204.45 10.99 204.76 11.24 204.98 11.65C205.28 12.12 205.43 13.13 205.43 14.69C205.43 15.42 205.42 15.98 205.4 16.39C205.27 18.82 204.95 20.41 204.44 21.16C203.89 21.91 202.17 22.28 199.29 22.28C198.59 22.28 197.99 22.3 197.5 22.33C197.01 22.36 196.71 22.38 196.6 22.38C196.26 22.38 195.99 22.25 195.78 21.98ZM197.17 14.63C197.32 15.83 197.44 16.9 197.52 17.86L197.71 20.07L199.18 20.04C200.29 20 201.12 19.91 201.68 19.78L202.67 19.56L202.8 17.77C202.86 17.02 202.9 16.32 202.9 15.66L202.87 14.54L202.84 13.16L201.69 13.13C201.07 13.11 200.19 13.17 199.03 13.32C198.9 13.34 198.61 13.38 198.17 13.45C197.72 13.51 197.44 13.51 197.34 13.45L197.24 13.42C197.24 13.42 197.15 13.45 197.11 13.5C197.07 13.55 197.06 13.62 197.08 13.71L197.18 14.64L197.17 14.63ZM199.41 16.17C199.67 16.11 199.97 16.07 200.34 16.07C200.83 16.07 201.24 16.11 201.57 16.18C201.9 16.26 202.12 16.35 202.23 16.45C202.46 16.68 202.58 16.89 202.58 17.06C202.58 17.15 202.55 17.24 202.48 17.35C202.27 17.65 201.84 17.87 201.2 18.02C200.88 18.08 200.52 18.12 200.11 18.12C199.23 18.12 198.71 18.04 198.54 17.86C198.37 17.69 198.28 17.47 198.28 17.19C198.28 16.74 198.65 16.4 199.4 16.17H199.41ZM208.05 9.67C208.16 9.44 208.32 9.03 208.53 8.45L208.85 7.75C209.06 7.17 209.23 6.82 209.36 6.69C209.62 6.41 209.88 6.27 210.16 6.27C210.63 6.27 210.86 6.51 210.86 6.97C210.86 7.27 210.8 7.73 210.67 8.35C210.52 9.16 210.25 10.07 209.87 11.07C209.57 11.82 209.25 12.33 208.91 12.61C208.68 12.82 208.42 12.93 208.14 12.93C207.86 12.93 207.65 12.85 207.5 12.69C207.35 12.53 207.28 12.31 207.28 12.03C207.28 11.69 207.39 11.3 207.6 10.88L208.05 9.66V9.67ZM210.55 14.06C210.68 13.93 210.91 13.87 211.25 13.87C211.59 13.87 212.02 14.15 212.53 14.7C213.08 15.28 213.36 15.8 213.36 16.27C213.36 16.44 213.33 16.59 213.26 16.72C213.15 16.93 212.96 17.08 212.68 17.17C212.57 17.21 212.44 17.23 212.26 17.23C211.96 17.23 211.68 17.1 211.43 16.85L210.92 16.31C210.71 16.08 210.57 15.88 210.5 15.73C210.39 15.45 210.34 15.14 210.34 14.8C210.34 14.46 210.4 14.21 210.53 14.06H210.55ZM211.51 9.96C211.51 9.75 211.63 9.55 211.86 9.38C212.09 9.21 212.44 9.08 212.89 9C213.61 8.85 214.62 8.78 215.9 8.78C217.18 8.78 217.95 8.87 218.27 9.04C218.95 9.42 219.37 9.92 219.52 10.54C219.61 10.86 219.65 11.3 219.65 11.85C219.65 12.4 219.61 12.92 219.52 13.45C219.33 14.62 219.03 16.05 218.62 17.74C218.07 19.81 217.69 21.09 217.5 21.58C217.18 22.46 216.82 23.1 216.43 23.52C216.04 23.94 215.57 24.14 215.04 24.14C214.55 24.14 213.94 23.92 213.22 23.47C213.01 23.34 212.74 23.04 212.42 22.57C212.14 22.17 212 21.86 212 21.64C212 21.47 212.1 21.29 212.29 21.1C212.42 20.93 212.57 20.84 212.74 20.84C212.89 20.84 213.17 20.99 213.57 21.29C214.04 21.63 214.33 21.8 214.43 21.8C214.73 21.8 215.23 20.45 215.93 17.74C216.38 15.99 216.7 14.63 216.89 13.66C217.08 12.69 217.16 12.01 217.11 11.63L217.01 10.99L214.51 10.89C212.8 10.83 211.88 10.69 211.73 10.47C211.58 10.24 211.51 10.06 211.51 9.96Z" fill="#534741"/>
<path d="M225.59 5.26C226.17 3.4 226.56 2.39 226.77 2.22C226.96 2.03 227.15 1.93 227.35 1.93C227.65 1.93 227.89 2.04 228.09 2.25C228.24 2.46 228.31 2.82 228.31 3.31C228.31 3.74 228.36 3.95 228.47 3.95C228.58 3.93 228.73 3.9 228.93 3.85C229.13 3.81 229.37 3.75 229.65 3.69C231.44 3.35 232.78 3.18 233.68 3.18C234.58 3.18 235.2 3.31 235.47 3.56C235.7 3.8 235.82 4.05 235.82 4.33C235.82 4.82 235.63 5.15 235.24 5.32C234.92 5.45 233.13 5.6 229.86 5.77L227.75 5.87L227.33 7.05C226.84 8.44 226.29 9.13 225.67 9.13C225.2 9.13 224.9 8.87 224.77 8.36C224.73 8.15 224.99 7.11 225.57 5.26H225.59ZM228.69 26.47C228.78 26.24 229.14 25.78 229.78 25.09C231.19 23.6 232.22 22.2 232.89 20.9C233.27 20.2 233.42 19.77 233.34 19.62C233.28 19.51 233.01 19.46 232.54 19.46C232.28 19.46 232.08 19.47 231.93 19.49C231.46 19.53 231.15 19.55 231 19.55C230.64 19.55 230.31 19.53 230.01 19.49C229.52 19.47 229.16 19.27 228.92 18.88C228.81 18.71 228.76 18.57 228.76 18.46C228.76 18.1 229.19 17.81 230.04 17.6C230.75 17.39 231.36 17.26 231.9 17.22C232.6 17.11 233.13 17.06 233.47 17.06C233.9 17.06 234.17 16.98 234.3 16.8C234.43 16.67 234.5 16.25 234.52 15.52L234.55 14.43L232.98 14.49C231.95 14.53 231.35 14.46 231.16 14.27C230.95 14.06 230.84 13.81 230.84 13.53C230.84 13.38 230.87 13.23 230.94 13.08C231.09 12.74 231.82 12.46 233.12 12.25L234.43 11.96L235.55 11.67L236.58 11.45C237.39 11.3 237.97 11.16 238.31 11.03C238.44 10.99 238.53 10.97 238.6 10.97C238.9 10.97 239.15 11.08 239.37 11.29C239.54 11.46 239.63 11.63 239.63 11.8C239.63 12.23 239.09 12.68 238 13.14C237.27 13.44 236.83 13.67 236.66 13.84C236.57 13.93 236.53 14.08 236.53 14.29C236.53 14.4 236.58 14.8 236.69 15.51C236.71 15.66 236.74 15.91 236.79 16.26C236.83 16.61 236.86 16.8 236.89 16.82C236.93 16.84 237.04 16.85 237.21 16.85C237.59 16.85 238.09 16.81 238.71 16.72C239.29 16.66 239.79 16.62 240.21 16.62C241.92 16.62 242.77 17.08 242.77 18C242.77 18.41 242.6 18.69 242.26 18.86C241.94 19.03 241.27 19.15 240.24 19.21C238.92 19.25 237.96 19.31 237.36 19.37L236.21 19.5L235.95 20.27C235.48 21.61 234.69 23.01 233.58 24.46C232.51 25.87 231.61 26.75 230.86 27.12C230.41 27.35 230.01 27.47 229.64 27.47C229.36 27.47 229.14 27.39 228.97 27.21C228.71 26.95 228.63 26.7 228.71 26.44L228.69 26.47ZM230.55 6.89C230.81 6.68 230.98 6.57 231.06 6.57C231.36 6.57 231.66 6.82 231.95 7.31C232.16 7.65 232.27 7.96 232.27 8.24C232.27 8.75 232.05 9.08 231.6 9.23C231.54 9.25 231.45 9.26 231.34 9.26C231.08 9.26 230.87 9.18 230.7 9C230.42 8.77 230.27 8.42 230.25 7.98C230.25 7.45 230.35 7.08 230.54 6.89H230.55ZM237.81 6.86C238.49 5.58 238.95 4.26 239.19 2.89C239.36 1.97 239.52 1.46 239.67 1.35C239.8 1.24 239.95 1.19 240.12 1.19C240.29 1.19 240.43 1.24 240.54 1.35C240.86 1.63 241.03 2.04 241.05 2.6C241.09 3.09 241.17 3.37 241.27 3.43C241.31 3.47 241.42 3.49 241.59 3.49C241.97 3.49 242.57 3.41 243.38 3.27C244.25 3.14 244.9 3.08 245.33 3.08C245.91 3.08 246.34 3.23 246.64 3.53C246.79 3.66 246.87 3.87 246.9 4.17V4.3C246.9 4.54 246.85 4.74 246.74 4.91C246.57 5.25 245.42 5.48 243.28 5.58C241.68 5.66 240.85 5.79 240.78 5.96C240.5 6.66 240.26 7.21 240.06 7.61C239.86 8.01 239.63 8.33 239.37 8.59C238.99 8.93 238.64 9.1 238.34 9.1C238.17 9.1 238 9.04 237.83 8.91C237.51 8.72 237.35 8.47 237.35 8.17C237.35 7.87 237.5 7.43 237.8 6.86H237.81ZM239.41 22.73C239.41 22.43 239.49 22.21 239.67 22.06C239.78 21.95 239.93 21.9 240.12 21.9C240.42 21.9 240.75 22.04 241.13 22.33C241.51 22.62 241.95 23.04 242.46 23.59C243.57 24.76 244.21 25.51 244.38 25.83C244.44 25.96 244.48 26.08 244.48 26.18C244.48 26.37 244.38 26.6 244.19 26.85C243.96 27.13 243.68 27.27 243.36 27.27C243.13 27.27 242.91 27.23 242.72 27.14C241.97 26.82 241.32 26.3 240.77 25.57C240.17 24.82 239.76 24.1 239.52 23.39C239.46 23.13 239.42 22.91 239.42 22.72L239.41 22.73ZM242.26 8.01C242.26 7.71 242.35 7.44 242.52 7.21C242.69 6.98 242.94 6.86 243.26 6.86C243.56 6.86 243.82 7.04 244.06 7.4C244.36 7.89 244.51 8.37 244.51 8.84C244.51 9.22 244.43 9.52 244.27 9.72C244.11 9.92 243.9 10.02 243.65 10.02C243.14 10.02 242.74 9.66 242.46 8.93C242.33 8.57 242.27 8.26 242.27 8L242.26 8.01Z" fill="#534741"/>
<path d="M253.94 5.29C254.11 5.03 254.32 4.91 254.58 4.91C255.35 4.91 255.73 5.66 255.73 7.15C255.73 7.79 255.69 8.31 255.62 8.7C255.54 9.1 255.45 9.34 255.35 9.42C255.18 9.57 255 9.64 254.81 9.64C254.62 9.64 254.38 9.56 254.1 9.38C253.87 9.21 253.75 8.37 253.75 6.85C253.75 6.02 253.81 5.5 253.94 5.28V5.29ZM254.9 21.16C254.9 21.01 254.94 20.86 255.03 20.71C255.22 20.41 255.67 20.03 256.38 19.56C257.85 18.58 258.98 17.8 259.77 17.21C260.56 16.62 261.24 16.02 261.82 15.4C262.18 15 262.5 14.74 262.78 14.63C262.95 14.57 263.1 14.53 263.23 14.53C263.42 14.53 263.58 14.59 263.71 14.72C263.84 14.85 263.9 15.02 263.9 15.23C263.9 15.49 263.8 15.81 263.61 16.19C263.12 17.17 261.84 18.45 259.77 20.03C257.98 21.4 256.68 22.08 255.87 22.08C255.49 22.08 255.21 21.93 255.04 21.63C254.96 21.48 254.91 21.32 254.91 21.15L254.9 21.16ZM269.59 7.75C269.59 6.81 269.5 6.31 269.33 6.25C269.29 6.23 269.17 6.22 268.98 6.22C268.55 6.22 267.81 6.28 266.74 6.41C265.63 6.54 263.78 6.64 261.2 6.73C260.82 6.75 260.31 6.76 259.7 6.76C258.46 6.76 257.75 6.7 257.56 6.57C257.3 6.4 257.18 6.19 257.18 5.93C257.18 5.65 257.31 5.44 257.56 5.29C257.77 5.16 258.83 4.98 260.73 4.75L261.94 4.62C262.45 4.56 262.98 4.49 263.54 4.43C264.09 4.37 264.67 4.29 265.27 4.21L266.93 4.02L267.64 3.92C268.34 3.81 269.05 3.78 269.75 3.82C270.2 3.84 270.63 3.94 271.06 4.11C271.36 4.22 271.6 4.44 271.8 4.78C272.03 5.14 272.12 5.73 272.06 6.54C271.95 7.95 271.69 8.89 271.26 9.36C271 9.64 270.76 9.78 270.52 9.78C270.33 9.78 270.13 9.67 269.91 9.46C269.7 9.25 269.59 8.68 269.59 7.76V7.75ZM258.64 11.24C259.3 10.54 259.78 10.1 260.08 9.93C260.38 9.74 260.58 9.64 260.69 9.64C260.84 9.64 261.02 9.72 261.23 9.86C261.46 10.01 261.58 10.23 261.58 10.53C261.58 11.08 261.04 11.86 259.95 12.87C259.35 13.4 258.85 13.67 258.45 13.67C258.3 13.67 258.16 13.64 258.03 13.57C257.77 13.44 257.65 13.19 257.65 12.8C257.65 12.44 257.98 11.92 258.64 11.23V11.24ZM260.98 22.6C261.19 22.45 261.43 22.34 261.68 22.28C262.02 22.17 262.3 22.07 262.51 21.96C263 21.68 263.46 21.5 263.89 21.42C264.23 21.34 264.65 21.29 265.14 21.29C266.33 21.29 267.17 21.46 267.64 21.8C268.41 22.4 268.79 23.21 268.79 24.23C268.79 24.47 268.78 24.65 268.76 24.77C268.7 25.28 268.66 25.86 268.66 26.5C268.66 26.88 268.49 27.24 268.15 27.56C267.79 27.9 267.3 28.11 266.68 28.2C266.04 28.28 265.5 28.33 265.05 28.33C263.9 28.33 262.91 28.14 262.07 27.75C261.54 27.49 261.19 27.17 261.01 26.79C260.75 26.15 260.63 25.16 260.63 23.81C260.63 23.19 260.75 22.79 260.98 22.59V22.6ZM263.41 0.01C263.84 0.01 264.22 0.33 264.56 0.97C264.79 1.44 264.91 1.81 264.91 2.09C264.91 2.35 264.81 2.56 264.62 2.73C264.47 2.84 264.32 2.89 264.17 2.89C263.81 2.89 263.41 2.64 262.99 2.15C262.54 1.66 262.32 1.24 262.32 0.9C262.32 0.67 262.45 0.45 262.7 0.26C262.93 0.09 263.17 0 263.4 0L263.41 0.01ZM263.09 25.8C263.09 25.8 263.31 25.86 263.63 25.86C264.03 25.86 264.38 25.86 264.65 25.83L266.06 25.73L266.19 25.06C266.21 24.98 266.22 24.85 266.22 24.68C266.22 24.45 266.17 24.22 266.06 24.01C265.91 23.78 265.71 23.66 265.45 23.66C265.36 23.66 265.04 23.7 264.49 23.79C263.7 23.94 263.24 24.07 263.11 24.17C262.98 24.3 262.92 24.5 262.92 24.78C262.92 25.36 262.97 25.7 263.08 25.8H263.09ZM264.59 15.88C264.59 15.67 264.68 15.47 264.85 15.3C265.08 15.07 265.37 14.95 265.72 14.95C266.12 14.95 266.47 15.05 266.74 15.24C268.38 16.35 269.63 17.33 270.48 18.18C271.63 19.33 272.33 20.13 272.56 20.58C272.64 20.75 272.69 20.93 272.69 21.12C272.69 21.4 272.59 21.63 272.4 21.82C272.17 22.05 271.92 22.17 271.66 22.17C271.51 22.17 271.33 22.12 271.12 22.01C270.65 21.78 269.93 21.18 268.98 20.22C268.53 19.77 267.8 19.11 266.77 18.24C266.22 17.77 265.84 17.46 265.64 17.3C265.44 17.14 265.3 17.03 265.24 16.96C264.88 16.66 264.67 16.37 264.63 16.1L264.6 15.88H264.59ZM266.26 9.67C266.64 9.67 267.1 9.94 267.64 10.47C268.3 11.13 268.63 11.72 268.63 12.23C268.63 12.44 268.57 12.65 268.44 12.84C268.29 13.05 268.12 13.16 267.93 13.16C267.63 13.16 267.24 12.94 266.75 12.49C265.94 11.74 265.53 11.1 265.53 10.57C265.53 10.34 265.62 10.11 265.79 9.9C265.92 9.75 266.08 9.68 266.27 9.68L266.26 9.67Z" fill="#534741"/>
<path d="M85.28 55.47C85.28 55.13 85.58 54.64 86.18 54C87.1 53.12 87.48 52.58 87.33 52.37C87.29 52.31 87.06 52.27 86.64 52.26C86.22 52.25 85.71 52.24 85.09 52.24H84.26C83.51 52.24 82.95 52.22 82.56 52.18C82.2 52.16 81.98 52.02 81.92 51.76C81.9 51.7 81.89 51.61 81.89 51.5C81.89 51.12 82.15 50.82 82.66 50.6C83.58 50.24 84.81 50.06 86.37 50.06C86.92 50.06 87.25 50.03 87.33 49.96C87.44 49.9 87.47 49.33 87.43 48.26L87.33 46.72L85.73 46.56C84.96 46.5 84.42 46.4 84.1 46.27C83.82 46.19 83.68 46 83.68 45.73C83.68 45.24 84.38 44.92 85.79 44.77C86.75 44.66 87.26 44.6 87.33 44.58C87.37 44.56 87.42 44.36 87.47 43.99C87.52 43.62 87.57 43.14 87.61 42.57C87.74 41.31 87.9 40.56 88.09 40.33C88.28 40.14 88.47 40.04 88.67 40.04C88.87 40.04 89.03 40.1 89.18 40.23C89.33 40.38 89.47 41.12 89.6 42.44L89.79 44.39L90.97 44.49C91.78 44.55 92.23 44.62 92.31 44.68L92.37 44.71C92.5 44.71 92.7 44.49 92.98 44.04C93.34 43.42 93.69 43.11 94.04 43.11C94.15 43.11 94.27 43.16 94.42 43.27C94.57 43.42 94.64 43.64 94.64 43.94C94.64 44.77 94.14 46.13 93.14 48C92.67 48.98 92.44 49.53 92.44 49.63C92.44 49.72 92.77 49.76 93.43 49.76C94.47 49.76 95.12 49.97 95.35 50.4C95.43 50.55 95.48 50.71 95.48 50.88C95.48 51.03 95.46 51.15 95.42 51.23C95.29 51.53 95.06 51.74 94.71 51.87C94.22 52 93.46 52.09 92.44 52.16L90.68 52.26L89.4 53.8C88.06 55.42 86.99 56.23 86.2 56.23C85.97 56.23 85.74 56.15 85.53 55.97C85.36 55.84 85.27 55.67 85.27 55.46L85.28 55.47ZM86.08 58.03C86.16 57.73 86.77 57.37 87.9 56.94C89.16 56.47 90.23 56.18 91.1 56.08C91.59 56.02 92.03 55.98 92.41 55.98C93.24 55.98 93.91 56.12 94.43 56.4C94.73 56.57 94.95 56.79 95.09 57.06C95.23 57.33 95.33 57.65 95.39 58.04C95.45 58.49 95.49 59.08 95.49 59.8C95.49 62.21 95.23 63.77 94.72 64.47C94.34 64.98 93.66 65.33 92.7 65.53C92.29 65.61 91.84 65.66 91.32 65.66C90.8 65.66 90.26 65.6 89.69 65.47C88.9 65.26 88.23 65.13 87.67 65.09C87.2 65.07 86.86 65.01 86.65 64.9C86.2 64.69 85.98 63.3 85.98 60.74C85.98 59.14 86.01 58.24 86.08 58.05V58.03ZM88 60.59C88.04 61.02 88.13 61.54 88.26 62.16C88.37 62.67 88.43 62.94 88.45 62.96C88.53 63.04 88.76 63.11 89.14 63.17C89.52 63.23 89.97 63.27 90.5 63.31C90.76 63.33 91.1 63.34 91.52 63.34C92.12 63.34 92.49 63.3 92.64 63.21C92.81 63.15 92.9 62.35 92.9 60.81V58.51L91.65 58.48C90.67 58.44 89.82 58.52 89.09 58.74C88.24 58.98 87.82 59.2 87.84 59.41L88 60.59ZM88.77 61.03C88.77 60.71 89.01 60.43 89.51 60.2C89.94 60.01 90.34 59.91 90.72 59.91C91.04 59.91 91.36 59.97 91.68 60.1C92 60.23 92.22 60.41 92.35 60.64C92.43 60.79 92.48 60.94 92.48 61.09C92.48 61.22 92.44 61.33 92.35 61.41C92.14 61.67 91.8 61.85 91.33 61.95C91.01 62.04 90.7 62.08 90.4 62.08C90.21 62.08 90.07 62.07 89.98 62.05C89.62 61.99 89.37 61.91 89.23 61.83C89.09 61.75 88.97 61.61 88.86 61.41C88.8 61.28 88.76 61.15 88.76 61.03H88.77ZM89.73 48.46C89.73 48.91 89.76 49.13 89.83 49.13C89.94 49.13 90.22 48.75 90.69 47.98C91.16 47.19 91.39 46.73 91.39 46.6C91.39 46.54 91.33 46.5 91.2 46.5L90.72 46.53C90.53 46.53 90.35 46.56 90.18 46.63C89.97 46.69 89.85 46.78 89.83 46.89C89.81 47.02 89.78 47.37 89.73 47.95V48.46ZM98.12 61.45C98.12 60.79 98.16 59.99 98.25 59.05C98.36 57.66 98.43 55.63 98.47 52.94C98.47 52.34 98.48 51.91 98.5 51.63C98.52 49.63 98.56 48.18 98.63 47.31C98.69 46.44 98.83 45.88 99.05 45.65C99.41 45.29 99.86 45.01 100.39 44.82C100.99 44.61 101.53 44.5 102.02 44.5C102.17 44.5 102.39 44.52 102.69 44.56C103.54 44.69 104.18 44.97 104.61 45.39C105.21 45.92 105.51 46.75 105.51 47.85C105.51 48.43 105.39 49.01 105.16 49.61L104.74 50.6L105.25 51.3C105.85 52.11 106.15 53.05 106.15 54.12C106.15 55.27 105.84 56.16 105.22 56.78C105.05 56.95 104.87 57.09 104.68 57.2C104.59 57.24 104.48 57.31 104.34 57.39C104.2 57.48 104.08 57.53 103.97 57.55L103.65 57.61C103.54 57.63 103.44 57.64 103.33 57.64C102.99 57.64 102.69 57.51 102.43 57.26C102.11 56.96 101.92 56.66 101.85 56.36L101.82 56.17C101.82 56 101.9 55.83 102.08 55.66C102.27 55.45 102.5 55.37 102.75 55.44H102.88C103.09 55.44 103.26 55.31 103.39 55.06C103.56 54.72 103.65 54.39 103.65 54.07C103.65 53.94 103.63 53.77 103.59 53.56C103.5 53.03 103.24 52.56 102.79 52.15C102.36 51.77 102.15 51.43 102.15 51.13C102.15 50.83 102.33 50.29 102.69 49.5C103.07 48.69 103.27 48.06 103.27 47.61C103.27 47.27 103.18 47.01 103.01 46.84C102.73 46.54 102.28 46.39 101.67 46.39C101.33 46.39 101.06 46.42 100.87 46.49C100.66 46.55 100.54 46.73 100.52 47C100.5 47.34 100.52 48.28 100.62 49.82L100.68 50.91C100.68 51.53 100.7 52.41 100.74 53.57L100.77 56.13C100.77 56.58 100.75 57.27 100.71 58.21C100.6 60.64 100.4 62.06 100.1 62.47C99.74 62.98 99.34 63.17 98.92 63.05C98.54 62.92 98.28 62.59 98.15 62.06C98.13 61.98 98.12 61.78 98.12 61.48V61.45Z" fill="#534741"/>
<path d="M111.94 54.83C111.94 54.62 112.04 54.37 112.24 54.09C112.44 53.81 112.79 53.41 113.28 52.87C114.09 51.89 114.98 50.7 115.94 49.32C116.47 48.59 116.89 47.99 117.19 47.5C117.49 47.01 117.65 46.69 117.67 46.54C117.67 46.39 117.29 46.35 116.52 46.41C116.33 46.43 116.05 46.44 115.69 46.44C115.07 46.44 114.58 46.37 114.22 46.22C113.67 46.03 113.45 45.7 113.58 45.23C113.64 44.93 113.88 44.72 114.29 44.59C115.42 44.36 116.33 44.2 117.01 44.11C118.55 43.88 119.36 43.68 119.44 43.53C119.76 42.89 120.01 42.38 120.18 41.99C120.5 41.18 120.78 40.64 121.01 40.36C121.12 40.25 121.31 40.16 121.59 40.07H121.78C121.99 40.07 122.15 40.13 122.26 40.26C122.41 40.43 122.48 40.71 122.48 41.09C122.48 41.56 122.38 42.05 122.19 42.56C122.04 42.99 121.99 43.27 122.03 43.42C122.05 43.51 123.22 43.55 125.55 43.55C127.47 43.55 128.72 43.59 129.29 43.68C129.87 43.81 130.21 44.05 130.31 44.42C130.37 44.61 130.41 44.78 130.41 44.93C130.41 45.38 130.14 45.71 129.61 45.92C129.2 46.09 127.65 46.18 124.94 46.18H120.88L120.37 46.82C120.09 47.23 119.95 47.48 119.95 47.59C119.95 47.7 119.65 48.22 119.05 49.16C116.3 53.45 114.27 55.59 112.97 55.59C112.69 55.59 112.47 55.52 112.3 55.37C112.07 55.2 111.95 55.02 111.95 54.83H111.94ZM116.61 54.92C116.82 54.69 117.1 54.57 117.44 54.57C117.76 54.57 118.03 54.73 118.24 55.05C118.45 55.33 118.56 56.66 118.56 59.05V60.04C118.56 61.38 118.53 62.28 118.46 62.73C118.4 63.24 118.16 63.63 117.76 63.88C117.59 63.99 117.43 64.04 117.28 64.04C117.13 64.04 116.99 64.01 116.86 63.94C116.48 63.81 116.22 63.51 116.09 63.04C116.03 62.74 115.99 62.16 115.99 61.28C115.99 57.46 116.19 55.34 116.6 54.91L116.61 54.92ZM119.97 62.15C119.97 61.83 120.14 61.56 120.48 61.35C120.97 61.05 121.81 60.86 123.01 60.77C124.16 60.68 124.8 60.59 124.93 60.48C124.97 60.44 124.99 60.27 124.99 59.97L124.93 58.63L124.83 56.9L123.61 56.96C122.27 57.02 121.59 56.71 121.59 56.03C121.59 55.71 121.7 55.48 121.91 55.33C122.1 55.16 122.57 54.98 123.32 54.79C124.28 54.51 124.82 54.29 124.95 54.12C125.06 53.97 125.11 53.68 125.11 53.26C125.11 52.34 125.31 51.73 125.72 51.44C125.85 51.33 126.01 51.28 126.2 51.28C126.46 51.28 126.71 51.41 126.97 51.66C127.23 51.91 127.35 52.24 127.35 52.62C127.35 53.17 127.42 53.54 127.57 53.71C127.78 53.92 128.17 54.04 128.72 54.06C129.36 54.08 129.84 54.22 130.16 54.46C130.48 54.71 130.64 55.03 130.64 55.44C130.64 56.23 130 56.62 128.72 56.62C128.04 56.62 127.67 56.68 127.6 56.81C127.56 56.9 127.54 57.16 127.54 57.61C127.54 58.06 127.55 58.43 127.57 58.73L127.7 60.52L129.4 60.42C129.87 60.38 130.18 60.36 130.33 60.36C130.59 60.36 130.94 60.39 131.39 60.46C131.75 60.52 132.05 60.73 132.29 61.07C132.42 61.22 132.48 61.39 132.48 61.58C132.48 61.69 132.44 61.85 132.35 62.06C132.22 62.38 131.9 62.64 131.39 62.83C130.92 63.04 129.1 63.17 125.92 63.21L122.85 63.24C122.17 63.24 121.61 63.22 121.19 63.18C120.85 63.12 120.59 63.04 120.42 62.94C120.25 62.84 120.12 62.71 120.04 62.54C120 62.46 119.98 62.33 119.98 62.16L119.97 62.15Z" fill="#534741"/>
<path d="M144.32 63.15L143.17 62.54L142.53 63.08C142.21 63.34 141.76 63.6 141.19 63.88C140.61 64.14 140.18 64.26 139.88 64.26C139.69 64.26 139.46 64.13 139.21 63.88C138.93 63.6 138.79 63.39 138.79 63.24C138.79 63.13 138.97 62.91 139.32 62.57C139.67 62.23 140.11 61.83 140.62 61.39C141.05 61.01 141.37 60.63 141.58 60.27C141.79 59.91 141.9 59.52 141.9 59.12C141.9 58.67 141.72 58.38 141.36 58.26C140.63 57.98 140.27 57.56 140.27 56.98C140.27 56.57 140.44 56.13 140.78 55.64C141.18 55.02 141.39 54.57 141.39 54.3V53.82H140.37C139.32 53.82 138.8 53.61 138.8 53.18C138.8 52.99 138.94 52.76 139.22 52.51C139.45 52.3 139.76 52.12 140.15 51.97C140.54 51.82 140.91 51.75 141.27 51.75C141.68 51.75 142.04 51.83 142.36 51.97C143 52.25 143.45 52.79 143.71 53.6C143.75 53.77 143.77 53.91 143.77 54.02C143.77 54.32 143.69 54.75 143.51 55.3L143.19 56.42L143.64 57.03C144.15 57.69 144.41 58.49 144.41 59.43L144.38 60.33C144.38 60.54 144.41 60.68 144.48 60.75C144.63 60.9 144.98 61.08 145.53 61.29C147.71 62.14 150.2 62.57 153.02 62.57C154.26 62.57 155.76 62.46 157.53 62.25C158.94 62.06 159.87 61.96 160.32 61.96C160.53 61.96 160.7 62.01 160.82 62.1C160.94 62.2 161.04 62.33 161.12 62.5C161.18 62.63 161.22 62.76 161.22 62.88C161.22 62.99 161.19 63.13 161.12 63.3C160.89 63.79 159.98 64.22 158.4 64.58C156.74 64.96 155.04 65.16 153.31 65.16C152.8 65.16 152.01 65.12 150.94 65.03C148.42 64.77 146.23 64.15 144.35 63.17L144.32 63.15ZM140.99 43.82C141.31 43.82 141.61 44.04 141.89 44.49C142.42 45.3 142.69 45.96 142.69 46.47C142.69 46.88 142.52 47.15 142.18 47.3C142.12 47.34 142.01 47.36 141.86 47.36C141.67 47.36 141.51 47.31 141.38 47.2C141 46.94 140.67 46.42 140.42 45.63C140.27 45.1 140.2 44.73 140.2 44.54C140.2 44.31 140.25 44.13 140.36 44.03C140.51 43.88 140.72 43.81 141 43.81L140.99 43.82ZM147.49 44.87C147.49 44.72 147.54 44.56 147.65 44.39C147.78 44.18 148.02 44.04 148.39 43.97C148.86 43.89 150.19 43.74 152.39 43.52C154.27 43.35 155.59 43.26 156.36 43.26C156.98 43.26 157.38 43.3 157.57 43.39C158.04 43.58 158.28 43.91 158.28 44.38C158.28 44.76 158.09 45.04 157.7 45.21C157.51 45.3 156.99 45.38 156.13 45.47C154.66 45.64 153.68 45.74 153.19 45.76C152.1 45.82 151.21 45.86 150.5 45.86C148.73 45.86 147.75 45.63 147.56 45.16C147.52 45.03 147.5 44.94 147.5 44.87H147.49ZM149.51 48.84C149.51 48.71 149.56 48.59 149.67 48.49C149.78 48.38 150.13 48.27 150.74 48.15C151.35 48.03 152.32 47.88 153.67 47.69C154.01 47.65 154.27 47.63 154.44 47.63C155.01 47.63 155.56 47.73 156.07 47.92C156.43 48.05 156.61 48.22 156.61 48.43C156.61 48.56 156.5 48.71 156.29 48.88C156.06 49.05 155.77 49.19 155.42 49.3C154.93 49.43 154.08 49.52 152.86 49.59C152.45 49.61 151.94 49.62 151.32 49.62C150.83 49.62 150.51 49.61 150.36 49.59C149.87 49.53 149.59 49.36 149.53 49.08C149.51 49.02 149.5 48.94 149.5 48.86L149.51 48.84ZM150.34 55.82C150.66 55.39 151.45 54.96 152.71 54.51C153.24 54.32 153.77 54.22 154.28 54.22C155.3 54.22 155.99 54.39 156.33 54.73C156.74 55.14 156.94 55.85 156.94 56.87C156.94 57.68 156.79 58.45 156.49 59.17C156.34 59.55 155.98 59.85 155.42 60.05C154.86 60.25 154.06 60.39 153.04 60.45C152.85 60.47 152.59 60.48 152.27 60.48C151.76 60.48 151.35 60.44 151.06 60.35C150.7 60.24 150.42 59.99 150.23 59.58C150.06 59.2 149.97 58.64 149.97 57.92C149.97 56.83 150.1 56.13 150.35 55.81L150.34 55.82ZM150.53 51.43C150.72 51.28 151.25 51.14 152.13 51.01C152.92 50.9 153.54 50.85 153.99 50.85C154.44 50.85 154.83 50.88 155.17 50.95C155.55 51.01 155.85 51.13 156.07 51.3C156.28 51.47 156.39 51.68 156.39 51.94C156.39 52.28 156.17 52.52 155.72 52.64C155.23 52.79 154.25 52.86 152.78 52.86C151.88 52.86 151.22 52.8 150.8 52.68C150.37 52.56 150.16 52.37 150.16 52.09C150.16 51.77 150.29 51.55 150.54 51.42L150.53 51.43ZM151.4 38.79C151.57 38.66 151.87 38.6 152.3 38.6C152.6 38.6 152.97 38.97 153.42 39.72C153.83 40.38 154.03 40.9 154.03 41.29C154.03 41.63 153.87 41.89 153.55 42.06C153.38 42.15 153.2 42.19 153.01 42.19C152.75 42.19 152.54 42.13 152.37 42C152.24 41.89 152.1 41.74 151.95 41.55C151.74 41.25 151.59 41.03 151.5 40.88C151.33 40.52 151.22 40.27 151.18 40.14C151.1 39.8 151.05 39.61 151.05 39.56C151.05 39.22 151.17 38.96 151.4 38.79ZM151.78 57.42C151.82 57.87 151.91 58.13 152.04 58.22C152.17 58.26 152.31 58.28 152.46 58.28L153.36 58.22L154.61 58.09V57.23C154.61 56.87 154.59 56.62 154.55 56.49C154.53 56.38 154.37 56.33 154.07 56.33C153.75 56.33 153.32 56.41 152.79 56.55L151.76 56.84L151.79 57.42H151.78Z" fill="#534741"/>
<path d="M165.92 57.83C165.92 57.57 165.99 57.33 166.14 57.09C166.25 56.9 166.77 56.18 167.71 54.95C169.74 52.28 170.76 50.81 170.78 50.53C170.78 50.36 170.29 50.31 169.31 50.37C168.48 50.41 167.88 50.37 167.52 50.24C167.22 50.11 167.06 49.88 167.04 49.54V49.38C167.04 49.15 167.09 48.95 167.2 48.8C167.43 48.5 168.73 48.19 171.07 47.87C171.3 47.81 171.54 47.77 171.78 47.77C171.99 47.77 172.27 47.81 172.61 47.9C172.99 47.96 173.35 48.13 173.66 48.41C173.92 48.77 174.01 49.12 173.95 49.47C173.95 50.37 173.31 51.74 172.03 53.6L171.23 54.75L171.42 55.87C171.59 56.72 171.68 58.11 171.68 60.03C171.68 61.23 171.63 62.01 171.52 62.4C171.26 63.21 170.86 63.62 170.3 63.62L169.92 63.56C169.6 63.45 169.38 63.17 169.25 62.7C169.17 62.38 169.12 61.85 169.12 61.1L169.15 59.88L169.18 58.5C169.18 57.75 169.14 57.38 169.05 57.38C169.03 57.38 168.72 57.63 168.12 58.12C167.63 58.61 167.22 58.86 166.9 58.86C166.47 58.86 166.18 58.68 166.01 58.32C165.95 58.19 165.91 58.03 165.91 57.84L165.92 57.83ZM169.15 41.55C169.34 41.36 169.54 41.26 169.76 41.26C170.06 41.26 170.42 41.47 170.85 41.9C171.74 42.86 172.19 43.73 172.19 44.52C172.19 44.71 172.18 44.85 172.16 44.94C171.99 45.3 171.74 45.5 171.43 45.52C171.32 45.52 171.02 45.3 170.53 44.85C169.93 44.25 169.55 43.81 169.38 43.51C169.15 43.19 168.99 42.82 168.9 42.39C168.9 41.94 168.99 41.67 169.16 41.56L169.15 41.55ZM172.37 55.18C172.51 55.01 172.71 54.92 172.96 54.92L173.34 54.98H173.44C173.65 54.98 173.82 54.84 173.95 54.56C174.18 54.13 174.43 53.8 174.69 53.57C174.99 53.27 175.25 53.12 175.49 53.12C175.7 53.12 175.91 53.23 176.1 53.44C176.23 53.57 176.29 53.73 176.29 53.92C176.29 54.3 176.08 54.84 175.65 55.52C175.31 56.05 175.14 56.35 175.14 56.42C175.14 56.46 175.36 56.63 175.81 56.93C176.26 57.25 176.48 57.56 176.48 57.86C176.48 58.12 176.32 58.37 176 58.63C175.72 58.8 175.44 58.89 175.14 58.89C174.88 58.89 174.6 58.83 174.28 58.7C173.62 58.38 173.07 57.88 172.65 57.2C172.33 56.69 172.17 56.25 172.17 55.89C172.17 55.59 172.24 55.36 172.38 55.19L172.37 55.18ZM179.62 63.15C179.39 62.94 179.25 62.75 179.2 62.57C179.2 62.31 179.35 62.08 179.65 61.87C179.93 61.59 180.34 61.41 180.9 61.33C180.99 61.31 181.1 61.28 181.24 61.25C181.38 61.22 181.55 61.19 181.77 61.17C181.96 61.15 182.14 61.13 182.31 61.11C182.48 61.09 182.61 61.07 182.69 61.05C182.82 61.01 182.95 60.59 183.07 59.8C183.09 59.61 183.1 59.36 183.1 59.06C183.1 58.74 183.08 58.54 183.04 58.45C182.98 58.34 182.84 58.27 182.62 58.24C182.41 58.21 181.97 58.18 181.31 58.16C180.88 58.14 180.6 58.08 180.45 57.98C180.3 57.88 180.22 57.69 180.19 57.39C180.19 57.18 180.4 56.99 180.81 56.83C181.22 56.67 181.74 56.55 182.36 56.46C182.53 56.44 182.7 56.39 182.86 56.32C183.02 56.25 183.12 56.18 183.16 56.11C183.29 55.9 183.35 55.43 183.35 54.7L183.38 53.39L181.27 53.26C180.72 53.24 180.25 53.16 179.88 53.02C179.51 52.88 179.26 52.72 179.13 52.52C178.83 52.05 178.68 51 178.68 49.35C178.66 49.01 178.65 48.55 178.65 47.97C178.65 47.14 178.69 46.58 178.78 46.31C178.91 45.78 179.22 45.33 179.71 44.97C180.65 44.16 182.73 43.63 185.95 43.37C186.16 43.35 186.46 43.34 186.85 43.34C187.55 43.34 188.06 43.44 188.39 43.63C188.65 43.78 188.87 44.09 189.06 44.56C189.29 45.03 189.41 45.67 189.41 46.48C189.41 47.61 189.31 48.73 189.12 49.84C188.99 50.48 188.93 51.01 188.93 51.44C188.93 52.08 188.68 52.51 188.19 52.72C187.83 52.87 187.3 52.99 186.62 53.07C186.02 53.13 185.64 53.22 185.47 53.33C185.41 53.41 185.37 53.6 185.37 53.89V55.79L186.43 55.92C186.98 55.98 187.39 56.08 187.64 56.21C187.77 56.32 187.85 56.51 187.9 56.79C187.9 57.13 187.77 57.4 187.52 57.61C187.26 57.81 186.86 57.96 186.3 58.04C185.7 58.1 185.33 58.21 185.18 58.36C185.05 58.51 184.99 58.94 184.99 59.64L184.96 60.82L187.94 60.85C189.52 60.87 190.57 60.96 191.11 61.11C191.32 61.15 191.47 61.25 191.56 61.4C191.65 61.55 191.69 61.77 191.69 62.07C191.69 62.63 191.45 62.99 190.98 63.16C190.75 63.22 188.83 63.31 185.22 63.42L181.09 63.52C180.36 63.52 179.87 63.4 179.62 63.17V63.15ZM180.71 47.98L181.61 47.95C182.25 47.91 182.63 47.84 182.76 47.76C182.84 47.61 182.88 47.32 182.86 46.9L182.83 46.04L182.22 46.01C182.03 45.99 181.82 46.01 181.6 46.06C181.38 46.11 181.22 46.15 181.14 46.17C180.93 46.21 180.79 46.27 180.72 46.33C180.7 46.42 180.69 46.68 180.69 47.13L180.72 47.99L180.71 47.98ZM180.93 50.6C180.99 50.92 181.06 51.1 181.12 51.14C181.16 51.18 181.34 51.2 181.66 51.2C182.21 51.2 182.57 51.14 182.72 51.01C182.81 50.95 182.86 50.82 182.9 50.64C182.93 50.46 182.93 50.32 182.88 50.21C182.86 49.95 182.45 49.8 181.66 49.76L180.83 49.7L180.93 50.6ZM184.87 45.93L184.93 46.79L185.03 47.53L187.05 47.56L187.02 45.83L185.8 45.77H185.42C185.14 45.77 184.96 45.79 184.88 45.83V45.93H184.87ZM185.17 50.84C185.33 50.98 185.67 51.05 186.18 51.05C186.58 51.05 186.84 50.97 186.95 50.81C187.06 50.65 187.13 50.45 187.17 50.22C187.17 50.07 187.05 49.93 186.82 49.8C186.59 49.67 186.24 49.61 185.8 49.61C185.52 49.61 185.31 49.67 185.16 49.79C185.01 49.91 184.94 50.05 184.94 50.22C184.94 50.5 185.02 50.71 185.18 50.84H185.17Z" fill="#534741"/>
</svg>
