<svg width="82" height="115" viewBox="0 0 82 115" fill="none" xmlns="http://www.w3.org/2000/svg">
<g clip-path="url(#clip0_149_797)">
<path d="M35.1759 98.6599C35.1759 89.6735 27.8633 82.3887 18.8426 82.3887C9.82196 82.3887 2.50928 89.6735 2.50928 98.6599C2.50928 107.646 9.82196 114.931 18.8426 114.931C27.8633 114.931 35.1759 107.646 35.1759 98.6599Z" fill="#FFEFB0"/>
<path d="M21.0568 77.7047C19.2187 78.8358 15.8751 78.8906 13.7682 75.8652C11.6615 72.8396 13.0113 70.9424 14.0634 69.396C16.0422 67.142 20.1354 66.7522 22.2423 69.7777C23.7361 72.4142 23.4458 75.881 21.0568 77.7047Z" fill="#FFEFB0"/>
<path d="M36.009 82.7252C34.1708 83.8563 30.8272 83.9111 28.7204 80.8856C26.6136 77.8602 27.9634 75.9629 29.0155 74.4165C30.9944 72.1625 35.0876 71.7727 37.1944 74.7982C38.6883 77.4347 38.398 80.9015 36.009 82.7252Z" fill="#FFEFB0"/>
<path d="M46.2551 94.7184C44.4169 95.8496 41.0733 95.9044 38.9665 92.8789C36.8597 89.8534 38.2095 87.9562 39.2616 86.4098C41.2405 84.1558 45.3337 83.7661 47.4405 86.7915C48.9344 89.4279 48.644 92.8948 46.2551 94.7184Z" fill="#FFEFB0"/>
<path d="M8.54898 83.3801C6.71085 84.5112 3.36723 84.566 1.26044 81.5406C-0.84636 78.515 0.503434 76.6179 1.55557 75.0714C3.53439 72.8174 7.62764 72.4277 9.73445 75.4532C11.2283 78.0896 10.938 81.5564 8.54898 83.3801Z" fill="#FFEFB0"/>
</g>
<g clip-path="url(#clip1_149_797)">
<path d="M58.3101 45.1066C58.3101 39.1157 63.2349 34.2592 69.3101 34.2592C75.3852 34.2592 80.3101 39.1157 80.3101 45.1066C80.3101 51.0975 75.3852 55.9541 69.3101 55.9541C63.2349 55.9541 58.3101 51.0975 58.3101 45.1066Z" fill="#FFEFB0"/>
<path d="M67.8191 31.1365C69.057 31.8906 71.3088 31.9272 72.7277 29.9102C74.1465 27.8932 73.2375 26.6284 72.5289 25.5974C71.1962 24.0947 68.4396 23.8349 67.0207 25.8519C66.0146 27.6095 66.2101 29.9208 67.8191 31.1365Z" fill="#FFEFB0"/>
<path d="M57.7492 34.4834C58.9872 35.2375 61.239 35.2741 62.6579 33.2571C64.0767 31.2401 63.1677 29.9753 62.4591 28.9443C61.1264 27.4417 58.3697 27.1818 56.9508 29.1988C55.9448 30.9564 56.1403 33.2677 57.7492 34.4834Z" fill="#FFEFB0"/>
<path d="M50.8484 42.4789C52.0863 43.233 54.3381 43.2696 55.757 41.2526C57.1758 39.2356 56.2668 37.9708 55.5582 36.9398C54.2255 35.4371 51.4689 35.1773 50.05 37.1943C49.0439 38.9519 49.2394 41.2631 50.8484 42.4789Z" fill="#FFEFB0"/>
<path d="M76.2424 34.9201C77.4803 35.6742 79.7322 35.7107 81.151 33.6937C82.5699 31.6767 81.6608 30.412 80.9523 29.381C79.6196 27.8783 76.8629 27.6185 75.444 29.6355C74.438 31.3931 74.6335 33.7043 76.2424 34.9201Z" fill="#FFEFB0"/>
</g>
<g clip-path="url(#clip2_149_797)">
<path d="M18.229 15.8299C18.229 11.3368 14.6473 7.69434 10.229 7.69434C5.81073 7.69434 2.229 11.3368 2.229 15.8299C2.229 20.3231 5.81073 23.9655 10.229 23.9655C14.6473 23.9655 18.229 20.3231 18.229 15.8299Z" fill="#FFEFB0"/>
<path d="M11.3135 5.35241C10.4132 5.91796 8.77555 5.94537 7.74363 4.43264C6.71175 2.91988 7.37287 1.97128 7.88819 1.19805C8.85743 0.0710613 10.8623 -0.123818 11.8942 1.38893C12.6259 2.70714 12.4837 4.44057 11.3135 5.35241Z" fill="#FFEFB0"/>
<path d="M18.6373 7.86264C17.737 8.42819 16.0993 8.45561 15.0674 6.94287C14.0355 5.43014 14.6966 4.48153 15.2119 3.70831C16.1812 2.58132 18.186 2.38644 19.2179 3.89918C19.9496 5.21739 19.8074 6.9508 18.6373 7.86264Z" fill="#FFEFB0"/>
<path d="M23.6558 13.8592C22.7555 14.4248 21.1178 14.4522 20.0859 12.9395C19.054 11.4267 19.7152 10.4781 20.2305 9.7049C21.1997 8.57788 23.2046 8.38303 24.2365 9.89576C24.9682 11.214 24.826 12.9474 23.6558 13.8592Z" fill="#FFEFB0"/>
<path d="M5.18708 8.19005C4.28677 8.75559 2.64908 8.78301 1.61718 7.27028C0.585277 5.7575 1.2464 4.80893 1.76173 4.0357C2.73095 2.90871 4.73581 2.71383 5.76772 4.22659C6.4994 5.5448 6.3572 7.27821 5.18708 8.19005Z" fill="#FFEFB0"/>
</g>
<defs>
<clipPath id="clip0_149_797">
<rect width="49" height="48" fill="white" transform="translate(0 67)"/>
</clipPath>
<clipPath id="clip1_149_797">
<rect width="33" height="32" fill="white" transform="matrix(-1 0 0 1 82 24)"/>
</clipPath>
<clipPath id="clip2_149_797">
<rect width="24" height="24" fill="white" transform="translate(1)"/>
</clipPath>
</defs>
</svg>
