<?xml version="1.0" encoding="UTF-8"?>
<svg id="_圖層_1" data-name="圖層 1" xmlns="http://www.w3.org/2000/svg" viewBox="0 0 444 98.54">
  <defs>
    <style>
      .cls-1 {
        fill: #fc762f;
      }

      .cls-2 {
        font-size: 71.56px;
      }

      .cls-2, .cls-3 {
        font-family: justinbeaverfont-Slim-Proportional, justinbeaverfont;
      }

      .cls-3 {
        font-size: 80px;
      }
    </style>
  </defs>
  <text class="cls-3" transform="translate(276.92 513.09) rotate(-57.81)"><tspan x="0" y="0">訂</tspan></text>
  <text class="cls-3" transform="translate(314.15 452.43) rotate(-47.55)"><tspan x="0" y="0">閱</tspan></text>
  <text class="cls-3" transform="translate(359.67 401.18) rotate(-37.6)"><tspan x="0" y="0">一</tspan></text>
  <text class="cls-3" transform="translate(408.88 361.6) rotate(-28.48)"><tspan x="0" y="0">份</tspan></text>
  <text class="cls-3" transform="translate(471.24 326.89) rotate(-18.24)"><tspan x="0" y="0">療</tspan></text>
  <text class="cls-3" transform="translate(535.15 304.72) rotate(-8.55)"><tspan x="0" y="0">癒</tspan></text>
  <text class="cls-3" transform="translate(605.1 295.28) rotate(-2.75)"><tspan x="0" y="0"> </tspan></text>
  <text class="cls-2" transform="translate(622.77 292.9) rotate(3.61)"><tspan x="0" y="0">送</tspan></text>
  <text class="cls-2" transform="translate(683.97 295.95) rotate(12.5)"><tspan x="0" y="0">給</tspan></text>
  <text class="cls-2" transform="translate(744.23 308.52) rotate(21.42)"><tspan x="0" y="0">你</tspan></text>
  <text class="cls-2" transform="translate(804.09 331.39) rotate(30.56)"><tspan x="0" y="0">和</tspan></text>
  <text class="cls-2" transform="translate(858.83 362.91) rotate(39.64)"><tspan x="0" y="0">毛</tspan></text>
  <text class="cls-2" transform="translate(903.28 398.34) rotate(47.89)"><tspan x="0" y="0">孩</tspan></text>
  <text class="cls-2" transform="translate(945.92 444.94) rotate(56.59)"><tspan x="0" y="0">的</tspan></text>
  <text class="cls-2" transform="translate(980.97 497.28) rotate(66.13)"><tspan x="0" y="0">日</tspan></text>
  <text class="cls-2" transform="translate(1003.84 545.99) rotate(73.84)"><tspan x="0" y="0">常</tspan></text>
  <g>
    <g>
      <path class="cls-1" d="M197.02,96.52c-6.54,0-11.75-.55-15.64-1.64-3.88-1.09-6.68-3.07-8.38-5.93-1.7-2.86-2.56-6.88-2.56-12.06v-8.08l-29.95,1.84c-1.91.14-3.56-.41-4.96-1.63-1.4-1.23-2.16-2.76-2.3-4.6-.07-1.84.49-3.47,1.69-4.91,1.19-1.43,2.71-2.18,4.55-2.25l30.97-1.94v-8.28l-22.59,1.43c-1.84.14-3.46-.41-4.86-1.63-1.4-1.23-2.16-2.76-2.3-4.6-.14-1.84.39-3.48,1.58-4.91,1.19-1.43,2.74-2.18,4.65-2.25l23.51-1.53v-7.97c-3.68.55-7.39,1.02-11.14,1.43-3.75.41-7.46.78-11.14,1.12-5.11.27-7.97-1.94-8.59-6.64-.2-1.77.36-3.37,1.69-4.8s3.15-2.18,5.47-2.25c4.5-.2,9.44-.65,14.82-1.33,5.38-.68,10.78-1.53,16.2-2.55,5.42-1.02,10.53-2.16,15.33-3.42,4.8-1.26,8.91-2.57,12.32-3.94,2.11-.82,4.14-.92,6.08-.31,1.94.61,3.25,1.94,3.94,3.99.75,2.04.77,3.87.05,5.47-.72,1.6-2.13,2.81-4.24,3.63-3.61,1.3-7.6,2.54-11.96,3.73-4.36,1.19-8.96,2.27-13.8,3.22v9.71l27.19-1.74c1.84-.14,3.48.41,4.91,1.63,1.43,1.23,2.18,2.76,2.25,4.6.14,1.91-.41,3.56-1.63,4.96-1.23,1.4-2.76,2.16-4.6,2.3l-28.11,1.74v8.28l35.47-2.25c1.91-.14,3.56.41,4.96,1.63,1.4,1.23,2.16,2.8,2.3,4.7.14,1.84-.41,3.46-1.64,4.86-1.23,1.4-2.76,2.16-4.6,2.3l-36.49,2.25v8.18c0,2.52.82,4.21,2.45,5.06,1.64.85,4.63,1.28,9,1.28h6.03c2.86,0,5.06-.17,6.59-.51,1.53-.34,2.69-.95,3.48-1.84.78-.88,1.38-2.11,1.79-3.68.54-1.98,1.63-3.49,3.27-4.55,1.64-1.06,3.61-1.31,5.93-.77,2.11.48,3.71,1.52,4.8,3.12,1.09,1.6,1.4,3.49.92,5.67-.89,4.23-2.33,7.56-4.34,10.02-2.01,2.45-4.8,4.17-8.38,5.16-3.58.99-8.23,1.48-13.95,1.48h-6.03Z"/>
      <path class="cls-1" d="M282.99,91.51c-5.93,0-10.9-.41-14.92-1.23-4.02-.82-7.21-2.25-9.56-4.29-2.35-2.04-4.04-4.87-5.06-8.48-1.02-3.61-1.53-8.18-1.53-13.7v-27.39c0-5.52.51-10.08,1.53-13.7,1.02-3.61,2.71-6.44,5.06-8.48,2.35-2.04,5.54-3.48,9.56-4.29,4.02-.82,9-1.23,14.92-1.23h7.77c5.93,0,10.9.41,14.92,1.23,4.02.82,7.21,2.25,9.56,4.29,2.35,2.04,4.04,4.87,5.06,8.48,1.02,3.61,1.53,8.18,1.53,13.7v27.39c0,5.52-.51,10.09-1.53,13.7-1.02,3.61-2.71,6.44-5.06,8.48-2.35,2.04-5.54,3.48-9.56,4.29-4.02.82-9,1.23-14.92,1.23h-7.77ZM267.56,42.44h38.74v-6.03c0-3.88-.38-6.81-1.12-8.79-.75-1.98-2.23-3.3-4.45-3.99-2.22-.68-5.54-1.02-9.97-1.02h-7.77c-4.36,0-7.65.34-9.86,1.02-2.22.68-3.7,2.01-4.45,3.99-.75,1.98-1.12,4.91-1.12,8.79v6.03ZM282.99,77.61h7.77c4.43,0,7.75-.34,9.97-1.02,2.21-.68,3.7-2.03,4.45-4.04.75-2.01,1.12-4.92,1.12-8.74v-7.67h-38.74v7.67c0,3.82.37,6.73,1.12,8.74.75,2.01,2.23,3.36,4.45,4.04,2.21.68,5.5,1.02,9.86,1.02Z"/>
      <path class="cls-1" d="M369.98,97.54c-1.98,0-3.66-.65-5.06-1.94-1.4-1.3-2.1-3.07-2.1-5.32v-20.75c-1.02,1.57-2.03,3.07-3.01,4.5-.99,1.43-1.86,2.62-2.61,3.58-1.29,1.64-2.98,2.62-5.06,2.96-2.08.34-3.94-.07-5.57-1.23-1.63-1.23-2.61-2.79-2.91-4.7-.31-1.91.19-3.65,1.48-5.21,1.16-1.36,2.52-3.1,4.09-5.21,1.57-2.11,3.17-4.38,4.8-6.8,1.64-2.42,3.17-4.79,4.6-7.1,1.43-2.32,2.59-4.33,3.48-6.03h-11.35c-2.11,0-3.77-.67-4.96-1.99-1.19-1.33-1.79-2.91-1.79-4.75s.6-3.51,1.79-4.8c1.19-1.29,2.84-1.94,4.96-1.94h12.06v-8.08c-1.5.27-2.93.55-4.29.82-1.36.27-2.62.51-3.78.72-2.11.34-3.94.05-5.47-.87s-2.57-2.44-3.12-4.55c-.41-1.98-.14-3.7.82-5.16.95-1.46,2.38-2.33,4.29-2.61,1.98-.27,4.28-.66,6.9-1.18,2.62-.51,5.35-1.11,8.18-1.79,2.83-.68,5.54-1.4,8.13-2.15,2.59-.75,4.84-1.46,6.75-2.15,1.98-.75,3.83-.77,5.57-.05,1.74.72,2.95,2.06,3.63,4.04.68,1.98.68,3.77,0,5.37-.68,1.6-1.94,2.74-3.78,3.42-2.52.82-5.66,1.7-9.4,2.66v11.55h7.87c2.11,0,3.76.65,4.96,1.94,1.19,1.29,1.79,2.9,1.79,4.8s-.6,3.42-1.79,4.75c-1.19,1.33-2.85,1.99-4.96,1.99h-7.87v1.43c1.09,1.09,2.5,2.45,4.24,4.09,1.74,1.64,3.46,3.2,5.16,4.7,1.7,1.5,2.96,2.62,3.78,3.37,1.57,1.3,2.44,2.93,2.61,4.91.17,1.98-.39,3.75-1.69,5.32-1.29,1.5-2.95,2.27-4.96,2.3-2.01.04-3.73-.67-5.16-2.1-.48-.41-1.06-.97-1.74-1.69-.68-.72-1.43-1.52-2.25-2.4v26.07c0,2.25-.7,4.02-2.09,5.32-1.4,1.29-3.12,1.94-5.16,1.94ZM414.55,88.24c-7.7,0-13.17-1.43-16.41-4.29-3.24-2.86-4.86-7.7-4.86-14.52v-36.8c0-6.88,1.62-11.74,4.86-14.57,3.24-2.83,8.71-4.24,16.41-4.24s13.15,1.42,16.36,4.24c3.2,2.83,4.8,7.68,4.8,14.57v36.8c0,6.82-1.6,11.65-4.8,14.52-3.2,2.86-8.66,4.29-16.36,4.29ZM414.55,74.23c2.66,0,4.34-.42,5.06-1.28.72-.85,1.07-2.64,1.07-5.37v-33.32c0-2.72-.36-4.48-1.07-5.26-.71-.78-2.4-1.18-5.06-1.18s-4.45.39-5.16,1.18c-.72.78-1.07,2.54-1.07,5.26v33.32c0,2.73.36,4.52,1.07,5.37.72.85,2.44,1.28,5.16,1.28Z"/>
    </g>
    <path class="cls-1" d="M53.81,12.11c-19.47,0-52.06,0-52.06,29.47,0,17.49,18.11,39.45,36.71,48.21,0,0,7.2,3.74,14.8,3.74s15.91-3.74,15.91-3.74c18.59-8.77,36.71-30.72,36.71-48.21,0-29.47-32.59-29.47-52.06-29.47ZM46.56,75.33c-3.45,2.4-8.64-.41-8.03-4.7,1-7.03,10.01-3.82,10.43.62.13,1.33-.52,2.77-2.4,4.08ZM58.72,57.91c-.45,5.78-10,6.11-10.01.01,0-3.81,4.31-5.85,7.57-4.33,1.79.83,2.57,2.58,2.43,4.31ZM67.23,75.11c-4.34,4.01-10.64-3.51-6.66-7.43,2.94-2.9,7.84-.12,8.15,3.61.11,1.35-.31,2.74-1.5,3.83Z"/>
  </g>
</svg>