<svg width="279" height="100" viewBox="0 0 279 100" fill="none" xmlns="http://www.w3.org/2000/svg">
<path d="M35.62 16.08C34.85 15.73 33.59 15.55 31.83 15.55C30.68 15.55 29.77 15.65 29.09 15.84C28.29 16.03 27.7 16.3 27.31 16.66C26.89 17.01 26.46 17.24 26.01 17.33C25.15 17.55 24.71 19.57 24.71 23.38C24.71 26.52 25.06 28.37 25.77 28.95C26.28 29.46 27.82 29.72 30.38 29.72C32.01 29.72 33.2 29.59 33.93 29.34C35.08 28.92 35.93 27.93 36.47 26.36C37.01 24.79 37.29 22.63 37.29 19.88C37.29 18.82 37.18 17.99 36.95 17.38C36.76 16.9 36.31 16.47 35.61 16.08H35.62ZM33.46 22.61C33.4 23.51 33.32 24.26 33.22 24.87C33.12 25.48 33.04 25.83 32.98 25.93C32.82 26.09 31.99 26.19 30.48 26.22L28.18 26.27L27.99 22.96L27.89 20.42C27.89 20 27.91 19.73 27.94 19.6C28.04 19.31 28.34 19.09 28.85 18.93C29.23 18.8 29.81 18.74 30.58 18.74C32.08 18.74 32.98 18.85 33.27 19.08C33.52 19.24 33.65 19.48 33.65 19.8C33.65 20.28 33.59 21.22 33.46 22.63V22.61Z" fill="#534741"/>
<path d="M0.67 34.13C0.86 34.23 1.05 34.27 1.25 34.27C1.79 34.27 2.47 33.9 3.27 33.17C4.33 32.21 5.29 30.84 6.15 29.04C6.89 27.5 7.25 26.35 7.25 25.58C7.25 25 7.06 24.62 6.67 24.43C6.35 24.27 6.16 24.19 6.09 24.19L5.47 24.53C5.15 24.72 4.54 25.52 3.65 26.93C2.53 28.72 1.73 29.91 1.25 30.48C0.42 31.6 0 32.43 0 32.98C0 33.49 0.22 33.88 0.67 34.13Z" fill="#534741"/>
<path d="M4.66 12.53C4.92 12.66 5.17 12.72 5.43 12.72C5.97 12.72 6.84 12.51 8.02 12.1C9.75 11.46 11.43 10.58 13.06 9.45999C14.08 8.81999 14.69 8.30999 14.88 7.91999C14.94 7.81999 14.98 7.67999 14.98 7.48999C14.98 7.22999 14.88 7.00999 14.69 6.81999C14.4 6.52999 14.03 6.38999 13.59 6.38999C13.3 6.38999 13.08 6.41999 12.92 6.48999C11.86 6.74999 10.49 7.28999 8.79 8.11999C6.2 9.36999 4.79 10.1 4.57 10.33C4.25 10.65 4.09 11 4.09 11.39V11.58C4.09 12.03 4.28 12.35 4.67 12.54L4.66 12.53Z" fill="#534741"/>
<path d="M16.22 25.39C15.84 25.39 15.58 25.53 15.45 25.82C15.39 26.08 15.35 26.3 15.35 26.49C15.35 27.26 15.69 28.22 16.36 29.37C17.26 30.84 18.14 31.58 19 31.58C19.48 31.58 19.83 31.47 20.06 31.24C20.35 30.95 20.49 30.62 20.49 30.23C20.49 30.07 20.35 29.76 20.06 29.29C19.77 28.82 19.56 28.48 19.44 28.26C18.86 27.46 18.24 26.64 17.57 25.81C17.28 25.52 16.83 25.38 16.23 25.38L16.22 25.39Z" fill="#534741"/>
<path d="M6.09 22.71C6.47 22.71 6.76 22.71 6.95 22.73C7.14 22.75 7.29 22.75 7.38 22.75L8.68 22.8L8.73 25.78C8.76 26.45 8.81 29.16 8.87 33.89C8.87 36.51 8.89 38.02 8.92 38.4C8.95 38.82 9.11 39.25 9.4 39.7C9.72 40.21 10.18 40.47 10.79 40.47C10.95 40.47 11.16 40.44 11.41 40.37C12.05 40.21 12.42 39.6 12.51 38.55C12.64 37.56 12.73 34.87 12.8 30.49L12.94 22.57L15.1 22.33C16.35 22.2 17.26 21.98 17.84 21.66C18.32 21.4 18.56 21.02 18.56 20.51V20.22C18.53 19.64 18.18 19.23 17.5 18.97C16.99 18.78 16.08 18.68 14.76 18.68C13.35 18.68 12.6 18.6 12.5 18.44C12.44 18.38 12.34 18.06 12.21 17.5C12.08 16.94 11.99 16.53 11.92 16.28C11.66 15.03 11.41 14.28 11.15 14.02C10.83 13.7 10.51 13.54 10.19 13.54H10.09C9.67 13.6 9.37 13.8 9.18 14.12C9.02 14.44 8.86 15.37 8.7 16.9C8.67 17.22 8.62 17.66 8.56 18.22C8.5 18.78 8.45 19.08 8.42 19.11C8.39 19.14 8.05 19.21 7.41 19.3L5.87 19.59L4.43 19.88C3.76 19.98 3.28 20.07 2.99 20.17C2.48 20.33 2.22 20.63 2.22 21.08C2.16 21.37 2.32 21.7 2.7 22.09C3.12 22.51 3.79 22.71 4.72 22.71H6.09Z" fill="#534741"/>
<path d="M54.58 25.25C54.26 25.35 53.27 25.51 51.6 25.73C48.62 26.11 47.09 26.77 46.99 27.7C46.96 28.18 47.04 28.52 47.23 28.71C47.39 28.87 48.69 29 51.12 29.09L54.77 29.23L54.91 31.2C55.1 33.82 55.74 35.68 56.83 36.77C57.92 37.86 59.76 38.51 62.35 38.74C64.21 38.9 65.65 38.98 66.67 38.98C68.17 38.98 69.31 38.85 70.08 38.6C71.78 38.02 72.82 36.81 73.2 34.95C73.33 34.25 73.39 33.77 73.39 33.51C73.39 32.39 72.91 31.83 71.95 31.83C71.47 31.83 70.94 32.28 70.37 33.17C69.83 34 69.41 34.5 69.12 34.66C68.96 34.76 67.54 34.8 64.85 34.8C62.16 34.8 60.69 34.62 60.15 34.27C59.61 33.92 59.27 33.57 59.14 33.21C58.98 32.79 58.85 32.03 58.76 30.91C58.73 30.62 58.71 30.25 58.71 29.81C58.71 29.33 58.74 29.03 58.81 28.9C58.91 28.71 60.62 28.48 63.95 28.23C65.68 28.1 67.07 27.94 68.13 27.75C68.96 27.59 69.49 27.41 69.71 27.22C70.06 26.93 70.24 26.48 70.24 25.88C70.24 25.34 70.03 24.95 69.62 24.73C69.14 24.44 67.84 24.3 65.73 24.3C63.91 24.3 62.24 24.41 60.74 24.64C59.59 24.8 58.95 24.83 58.82 24.74C58.69 24.61 58.63 24.16 58.63 23.4V22.78C58.69 21.57 58.81 20.89 58.97 20.76C59.23 20.6 60.57 20.47 63 20.38C65.59 20.28 67.11 20.09 67.56 19.8C68.2 19.38 68.52 18.95 68.52 18.5C68.52 18.24 68.49 18.05 68.42 17.92C68.04 16.99 66.96 16.53 65.2 16.53C64.43 16.53 63.39 16.58 62.08 16.67C60.8 16.77 59.87 16.81 59.3 16.81C59.01 16.81 58.85 16.79 58.82 16.76C58.69 16.63 58.55 16.07 58.39 15.08C58.29 14.41 58.12 13.88 57.86 13.5C57.6 13.12 57.33 12.92 57.04 12.92C56.62 12.92 56.26 13.16 55.94 13.64C55.59 14.15 55.41 14.73 55.41 15.37C55.41 16.04 55.31 16.47 55.12 16.67C55.02 16.77 54.78 16.85 54.4 16.91C54.02 16.97 53.57 17.02 53.06 17.05C51.14 17.21 49.69 17.47 48.72 17.84C47.74 18.21 47.26 18.65 47.26 19.16C47.26 19.7 47.52 20.04 48.03 20.17C48.54 20.3 49.68 20.39 51.44 20.46L54.8 20.56L54.9 22.86C54.93 24.36 54.84 25.16 54.61 25.26L54.58 25.25Z" fill="#534741"/>
<path d="M51.02 12.12C51.4 12.17 52 12.19 52.8 12.19C53.09 12.19 53.46 12.14 53.9 12.05C54.34 11.96 54.68 11.89 54.91 11.86C55.61 11.73 56.41 11.51 57.31 11.19L59.66 10.33C60.17 10.14 60.88 9.79999 61.77 9.31999C62.47 8.93999 63.02 8.57999 63.4 8.25999C64.04 7.77999 64.36 7.29999 64.36 6.81999C64.36 6.55999 64.26 6.31999 64.07 6.09999C63.75 5.74999 63.35 5.56999 62.87 5.56999C62.39 5.56999 61.91 5.67999 61.43 5.90999C60.95 6.12999 59.75 6.54999 57.83 7.15999L55 8.11999C54.42 8.30999 53.53 8.49999 52.31 8.69999C51.32 8.85999 50.59 9.07999 50.13 9.34999C49.67 9.61999 49.43 9.99999 49.43 10.48C49.43 10.96 49.65 11.39 50.1 11.77C50.32 11.96 50.63 12.08 51.01 12.13L51.02 12.12Z" fill="#534741"/>
<path d="M84.29 11.66C84.8 11.66 85.51 11.56 86.4 11.37C87.71 11.05 88.7 10.89 89.38 10.89C89.73 10.89 89.96 10.94 90.05 11.03C90.18 11.09 89.78 12.02 88.85 13.81C87.89 15.54 87.33 16.74 87.17 17.41C87.07 17.73 87.03 17.99 87.03 18.18V18.37C87.03 18.53 87.2 18.91 87.56 19.52C87.98 20.1 88.31 20.74 88.57 21.44C88.7 21.95 88.76 22.26 88.76 22.35C88.76 22.44 88.73 22.53 88.66 22.59C88.56 22.72 87.92 22.97 86.74 23.36C86.29 23.46 85.76 23.66 85.16 23.98C84.68 24.27 84.31 24.54 84.06 24.8C83.74 25.12 83.58 25.39 83.58 25.62C83.58 25.91 83.72 26.15 84.01 26.34C84.23 26.5 84.62 26.58 85.16 26.58C85.45 26.58 85.67 26.56 85.83 26.53C87.11 26.4 87.86 26.34 88.09 26.34L88.95 26.29L88.9 28.79C88.9 31.7 88.45 33.78 87.56 35.03C87.37 35.25 87.24 35.37 87.18 35.37C87.05 35.31 86.84 35.13 86.56 34.84C86.05 34.42 85.65 34.22 85.36 34.22C85.2 34.22 85.04 34.27 84.88 34.36C84.53 34.62 84.35 35.05 84.35 35.65L84.4 36.13C84.53 37.31 85.17 38.18 86.32 38.72C86.77 38.94 87.25 39.06 87.76 39.06C88.56 39.06 89.28 38.76 89.92 38.15C91.71 36.61 92.75 33.35 93.04 28.36L93.18 25.57L94.48 25.19C95.95 24.71 96.69 24.01 96.69 23.08C96.69 22.54 96.51 22.17 96.16 21.98C95.9 21.82 95.5 21.74 94.96 21.74C94.67 21.74 94.45 21.76 94.29 21.79C93.58 21.82 93.15 21.82 92.99 21.79C92.86 21.76 92.72 21.58 92.56 21.26C92.46 21 92.14 20.3 91.6 19.15L90.88 17.66L92.22 14.97C93.28 12.95 93.8 11.45 93.8 10.46C93.8 9.46999 93.29 8.64999 92.26 8.00999C91.65 7.65999 90.96 7.47999 90.2 7.47999C89.53 7.47999 88.68 7.60999 87.66 7.85999L85.79 8.47999C85.18 8.76999 84.72 9.01999 84.4 9.24999C84.02 9.46999 83.71 9.72999 83.49 10.02C83.27 10.31 83.15 10.56 83.15 10.79C83.15 11.37 83.53 11.65 84.3 11.65L84.29 11.66Z" fill="#534741"/>
<path d="M111.12 8.97999C111.82 8.97999 112.18 8.43999 112.18 7.34999C112.18 6.38999 111.76 5.45999 110.93 4.56999C110.45 4.05999 110 3.79999 109.59 3.79999C109.33 3.79999 109.11 3.89999 108.92 4.08999C108.7 4.30999 108.58 4.61999 108.58 4.99999C108.58 5.44999 108.76 6.06999 109.11 6.86999C109.75 8.27999 110.42 8.97999 111.13 8.97999H111.12Z" fill="#534741"/>
<path d="M108.48 31.97C110.5 29.63 112.08 27.04 113.23 24.19C114.13 22.17 114.57 20.59 114.57 19.44C114.57 18.83 114.41 18.34 114.09 17.95C113.8 17.66 113.51 17.52 113.23 17.52C113.01 17.52 112.81 17.58 112.65 17.71C112.2 18.06 111.64 18.99 110.97 20.49C110.36 21.9 109.85 22.95 109.43 23.66C109.11 24.04 108.85 24.24 108.66 24.24L108.52 24.19C108.23 24.09 107.78 24 107.18 23.9C106.67 23.84 106.33 23.74 106.17 23.61C105.82 23.32 106.25 21.95 107.47 19.48C107.76 18.81 107.9 18.17 107.9 17.56C107.9 17.08 107.82 16.7 107.66 16.43C107.5 16.16 107.29 16.02 107.04 16.02C106.72 16.02 106.38 16.21 106.03 16.6C105.13 17.5 103.95 19.42 102.48 22.36C102.03 23.22 101.81 23.99 101.81 24.66C101.81 25.11 101.91 25.51 102.1 25.86C102.61 26.66 103.73 27.11 105.46 27.2C106.48 27.2 107 27.3 107 27.49C107 27.78 105.7 29.36 103.11 32.24C102.5 32.95 102.2 33.58 102.2 34.16C102.2 34.58 102.32 34.88 102.56 35.07C102.8 35.26 103.16 35.36 103.64 35.36C104.95 35.36 106.57 34.22 108.49 31.95L108.48 31.97Z" fill="#534741"/>
<path d="M118.56 26.78C118.59 26.72 118.66 26.5 118.78 26.13C118.89 25.76 118.95 25.29 118.95 24.71C118.95 24.33 118.88 24.05 118.73 23.87C118.59 23.69 118.32 23.59 117.94 23.56C117.52 23.56 117.18 23.69 116.91 23.94C116.64 24.2 116.34 24.61 116.02 25.19C114.32 28.1 112 31.08 109.06 34.12C107.36 35.88 106.52 36.98 106.52 37.43C106.52 38.42 107.08 38.92 108.2 38.92C108.71 38.92 109.18 38.78 109.59 38.49C110.01 38.23 110.76 37.56 111.85 36.47C113 35.38 113.63 34.89 113.72 34.98C113.88 35.14 114.34 35.8 115.11 36.95C116.36 38.87 117.48 39.83 118.47 39.83C118.85 39.83 119.17 39.72 119.43 39.49C119.81 39.23 120.01 38.88 120.01 38.43C120.01 38.27 119.95 38 119.82 37.61C119.44 36.75 118.54 35.47 117.13 33.77L115.69 32.09L117.03 29.88C117.93 28.31 118.44 27.27 118.57 26.76L118.56 26.78Z" fill="#534741"/>
<path d="M100.61 13.78C101.12 14 101.95 14.12 103.11 14.12C105.09 14.12 107.49 13.95 110.31 13.59C112.49 13.3 114.41 13.11 116.07 13.01C117 12.91 117.75 12.82 118.33 12.72C118.87 12.62 119.27 12.5 119.53 12.34C119.88 12.12 120.09 11.88 120.15 11.62C120.25 11.46 120.29 11.3 120.29 11.14C120.29 10.98 120.23 10.77 120.1 10.52C119.91 10.1 119.57 9.82999 119.09 9.69999C118.67 9.53999 117.68 9.45999 116.11 9.45999C113.68 9.45999 111.37 9.61999 109.2 9.93999C103.66 10.71 100.67 11.27 100.22 11.62C99.84 11.94 99.64 12.24 99.64 12.53L99.69 12.72C99.79 13.14 100.09 13.49 100.6 13.78H100.61Z" fill="#534741"/>
<path d="M142.61 25.25C142.64 24.64 142.66 23.79 142.66 22.71C142.66 20.37 142.44 18.85 141.99 18.15C141.67 17.54 141.21 17.16 140.6 17C140.28 16.9 139.72 16.86 138.92 16.86C138.31 16.86 137.82 16.88 137.43 16.91C135.48 17.01 133.86 17.21 132.58 17.53C131.3 17.91 130.61 18.06 130.52 17.96C130.46 17.9 130.73 17.45 131.34 16.62C132.24 15.47 132.88 14.25 133.26 12.97C133.39 12.59 133.45 12.23 133.45 11.91C133.45 11.43 133.29 11.08 132.97 10.85C132.81 10.72 132.62 10.66 132.39 10.66C132.1 10.66 131.8 10.79 131.48 11.04C131.19 11.26 130.36 12.58 128.98 14.98C128.34 16.04 127.84 16.98 127.49 17.81C127.14 18.64 126.93 19.27 126.87 19.68C126.84 19.84 126.82 20.22 126.82 20.83C126.82 22.11 126.88 23.71 127.01 25.63C127.2 29.02 127.36 31.09 127.49 31.82C127.65 32.62 127.88 33.22 128.19 33.62C128.49 34.02 128.9 34.22 129.41 34.22C129.57 34.22 130.02 34.2 130.75 34.15C131.49 34.1 132.38 34.08 133.44 34.08C137.76 34.08 140.34 33.52 141.17 32.4C141.94 31.28 142.42 28.9 142.61 25.25ZM138.72 27.31L138.53 30L137.04 30.34C136.21 30.53 134.96 30.66 133.3 30.72L131.09 30.77L130.8 27.46C130.67 26.02 130.5 24.4 130.27 22.61L130.13 21.22C130.1 21.09 130.11 20.99 130.18 20.91C130.24 20.83 130.31 20.79 130.37 20.79L130.51 20.84C130.67 20.94 131.09 20.94 131.76 20.84C132.43 20.74 132.86 20.68 133.06 20.65C134.79 20.43 136.12 20.33 137.04 20.36L138.77 20.41L138.82 22.47L138.87 24.15C138.87 25.14 138.82 26.2 138.73 27.32L138.72 27.31Z" fill="#534741"/>
<path d="M146.73 20.06C147.15 20.06 147.53 19.9 147.88 19.58C148.39 19.16 148.87 18.4 149.32 17.28C149.9 15.78 150.3 14.42 150.52 13.2C150.71 12.27 150.81 11.58 150.81 11.14C150.81 10.44 150.46 10.08 149.75 10.08C149.33 10.08 148.93 10.29 148.55 10.7C148.36 10.89 148.1 11.42 147.78 12.28L147.3 13.33C146.98 14.2 146.74 14.8 146.58 15.15L145.91 16.97C145.59 17.61 145.43 18.19 145.43 18.7C145.43 19.12 145.54 19.44 145.77 19.68C145.99 19.92 146.31 20.04 146.73 20.04V20.06Z" fill="#534741"/>
<path d="M161.9 14.21C161.42 13.95 160.24 13.83 158.35 13.83C156.46 13.83 154.93 13.94 153.84 14.17C153.17 14.3 152.66 14.49 152.3 14.75C151.95 15.01 151.77 15.29 151.77 15.61C151.77 15.77 151.88 16.03 152.11 16.38C152.33 16.7 153.73 16.91 156.29 17L160.03 17.14L160.17 18.1C160.23 18.68 160.12 19.69 159.83 21.15C159.54 22.61 159.06 24.65 158.39 27.27C157.33 31.33 156.58 33.37 156.13 33.37C155.97 33.37 155.54 33.11 154.83 32.6C154.22 32.15 153.81 31.93 153.58 31.93C153.32 31.93 153.1 32.06 152.91 32.31C152.62 32.6 152.48 32.87 152.48 33.13C152.48 33.45 152.69 33.91 153.1 34.52C153.58 35.23 153.98 35.67 154.3 35.86C155.39 36.53 156.3 36.87 157.04 36.87C157.84 36.87 158.54 36.56 159.13 35.93C159.72 35.31 160.26 34.34 160.74 33.03C161.03 32.29 161.59 30.37 162.42 27.27C163.03 24.74 163.48 22.6 163.76 20.84C163.89 20.04 163.95 19.24 163.95 18.44C163.95 17.64 163.89 16.95 163.76 16.47C163.54 15.54 162.91 14.79 161.89 14.21H161.9Z" fill="#534741"/>
<path d="M150.05 22.85C150.05 23.36 150.13 23.83 150.29 24.24C150.39 24.46 150.59 24.75 150.91 25.1L151.68 25.92C152.06 26.3 152.48 26.5 152.93 26.5C153.19 26.5 153.39 26.47 153.55 26.4C153.97 26.27 154.25 26.05 154.41 25.73C154.51 25.54 154.55 25.31 154.55 25.06C154.55 24.36 154.13 23.57 153.3 22.71C152.53 21.88 151.89 21.46 151.38 21.46C150.87 21.46 150.52 21.56 150.32 21.75C150.13 21.97 150.03 22.34 150.03 22.85H150.05Z" fill="#534741"/>
<path d="M136.87 24.94C136.37 24.83 135.76 24.77 135.02 24.77C134.48 24.77 134.01 24.82 133.63 24.91C132.51 25.26 131.95 25.77 131.95 26.45C131.95 26.87 132.08 27.2 132.33 27.46C132.59 27.72 133.37 27.84 134.68 27.84C135.29 27.84 135.83 27.79 136.31 27.7C137.27 27.48 137.91 27.14 138.23 26.69C138.33 26.53 138.37 26.39 138.37 26.26C138.37 26 138.19 25.7 137.84 25.35C137.68 25.19 137.35 25.06 136.86 24.94H136.87Z" fill="#534741"/>
<path d="M187.87 19.78C187.68 19.59 187.45 19.49 187.2 19.49C187.01 19.49 186.72 19.57 186.34 19.73C185.83 20.05 185.57 20.47 185.57 20.98C185.57 21.36 185.75 21.83 186.1 22.37C186.36 22.85 186.8 23.09 187.44 23.09C187.92 23.09 188.26 23.01 188.45 22.85C188.64 22.69 188.74 22.42 188.74 22.03C188.74 21.74 188.72 21.52 188.69 21.36C188.56 20.78 188.29 20.26 187.87 19.78Z" fill="#534741"/>
<path d="M202.22 23.09C201.39 22.74 200.33 22.58 199.05 22.61L196.89 22.66L196.7 20.5C196.6 19.35 196.44 18.48 196.22 17.91C195.9 17.14 195.32 16.48 194.49 15.92C193.66 15.36 192.75 15 191.75 14.84C191.11 14.78 190.63 14.74 190.31 14.74C189 14.74 187.25 15.04 185.08 15.65C184.86 15.68 184.52 15.76 184.07 15.89C183.88 15.92 183.54 15.99 183.06 16.08C182.58 16.18 182.11 16.3 181.64 16.46C181.17 16.62 180.75 16.84 180.37 17.13C180.11 17.35 179.9 17.75 179.72 18.31C179.54 18.87 179.36 19.69 179.17 20.78L178.93 21.98C178.9 22.17 178.83 22.54 178.71 23.08C178.6 23.62 178.53 23.93 178.49 23.99C178.3 24.21 177.45 24.45 175.95 24.71C174.35 24.97 173.34 25.19 172.93 25.38C172.55 25.57 172.35 25.88 172.35 26.29C172.35 26.58 172.46 26.9 172.69 27.25C173.11 27.76 174.15 28.02 175.81 28.02H177.87L177.82 30.61C177.79 32.15 177.96 33.27 178.35 33.97C178.67 34.51 179.23 34.98 180.03 35.36C180.93 35.81 182.29 36.03 184.11 36.03C184.78 36.03 185.41 36.01 185.98 35.98C186.56 35.95 187.05 35.92 187.47 35.88L188.86 35.78C189.53 35.78 189.98 35.91 190.2 36.16C190.33 36.29 190.37 36.45 190.32 36.64C190.27 36.83 190.15 37.09 189.96 37.41C189.83 37.63 189.66 37.75 189.43 37.75C189.3 37.75 189.17 37.69 189.05 37.56C188.92 37.34 188.62 37.22 188.14 37.22C187.69 37.22 187.37 37.32 187.18 37.51C186.99 37.7 186.89 37.96 186.89 38.28C186.89 38.76 187.15 39.37 187.66 40.1C188.04 40.61 188.42 40.99 188.79 41.25C189.16 41.51 189.6 41.63 190.11 41.63C191 41.63 191.89 41.15 192.75 40.19C193.23 39.65 193.73 38.67 194.24 37.26C194.34 37.04 194.45 36.74 194.58 36.37C194.71 36 194.87 35.72 195.08 35.53C195.29 35.34 195.7 35.24 196.3 35.24C196.49 35.24 196.67 35.19 196.83 35.1C196.99 35 197.12 34.87 197.24 34.69C197.35 34.51 197.42 34.4 197.46 34.33C197.59 34.11 197.65 33.85 197.65 33.56C197.65 33.21 197.55 32.88 197.36 32.58C197.17 32.28 196.91 32.06 196.59 31.93C196.01 31.67 195.69 31.37 195.63 31.02C195.6 30.67 195.68 29.84 195.87 28.52L196.16 26.84L199.28 26.41C200.78 26.22 201.82 26.03 202.38 25.86C202.94 25.68 203.22 25.31 203.22 24.73C203.16 23.87 202.82 23.31 202.21 23.05L202.22 23.09ZM192.72 28.37C192.72 29.11 192.64 29.87 192.48 30.67C192.32 31.25 192.11 31.66 191.86 31.92C191.7 32.08 190.95 32.16 189.6 32.16H189.17C187.92 32.13 186.78 32.16 185.74 32.26C184.7 32.36 184.05 32.42 183.8 32.45C182.71 32.45 181.98 32.43 181.59 32.4V30C181.59 29.01 181.62 28.45 181.69 28.32C181.82 28.06 182.03 27.89 182.31 27.79C182.53 27.73 183.54 27.65 185.33 27.57C187.12 27.49 188.56 27.45 189.65 27.45L192.72 27.5V28.37ZM193.1 22.85C192.78 23.3 192.33 23.52 191.76 23.52C191.79 23.52 191.3 23.54 190.27 23.57C189.25 23.6 188.29 23.67 187.39 23.76C186.43 23.79 185.45 23.86 184.46 23.95C182.99 24.01 182.2 23.93 182.11 23.71C182.08 23.65 182.06 23.47 182.06 23.18C182.06 22.92 182.09 22.54 182.16 22.03C182.32 21.07 182.48 20.35 182.64 19.87C182.74 19.61 182.97 19.42 183.34 19.29C183.71 19.16 184.28 19.02 185.04 18.86C185.71 18.73 186.38 18.63 187.06 18.55C187.74 18.47 188.18 18.41 188.4 18.38C189.36 18.28 190.19 18.24 190.9 18.24C191.8 18.24 192.45 18.38 192.87 18.67C193.32 18.99 193.54 19.77 193.54 21.02C193.54 21.85 193.4 22.46 193.11 22.84L193.1 22.85Z" fill="#534741"/>
<path d="M185.85 28.22C185.05 28.28 184.65 28.64 184.65 29.28C184.68 29.86 184.83 30.34 185.11 30.72C185.38 31.1 185.79 31.3 186.33 31.3L186.71 31.25C187.13 31.19 187.43 31.08 187.62 30.94C187.81 30.8 187.91 30.6 187.91 30.34C187.91 30.12 187.8 29.7 187.57 29.09C187.38 28.51 186.8 28.23 185.84 28.23L185.85 28.22Z" fill="#534741"/>
<path d="M173.09 17.28C173.41 17.44 173.68 17.52 173.91 17.52C174.26 17.52 174.6 17.38 174.92 17.09C175.56 16.55 176.41 15.35 177.46 13.49L178.04 12.53C178.58 11.54 178.98 10.88 179.24 10.56C179.85 9.85999 181.62 9.25999 184.57 8.77999C185.79 8.58999 187.61 8.48999 190.04 8.48999H193.64C195.14 8.48999 196.01 8.46999 196.23 8.43999C196.61 8.37999 196.99 8.18999 197.36 7.85999C197.73 7.53999 197.91 7.23999 197.91 6.94999C197.91 6.46999 197.48 6.07999 196.61 5.79999C195.87 5.53999 193.97 5.33999 190.9 5.17999L189.41 5.12999C187.71 5.12999 186.24 5.28999 184.99 5.60999L181.63 6.51999C181.63 6.51999 181.61 6.31999 181.46 6.01999C181.32 5.71999 181.24 5.39999 181.24 5.07999C181.24 4.85999 181.26 4.69999 181.29 4.59999C181.54 3.47999 181.67 2.62999 181.67 2.05999C181.67 1.38999 181.53 0.88999 181.24 0.56999C180.92 0.18999 180.58 -0.0100098 180.23 -0.0100098C179.97 -0.0100098 179.72 0.0899902 179.46 0.27999C179.33 0.37999 179.2 0.59999 179.08 0.94999C178.95 1.29999 178.81 1.74999 178.65 2.28999C177.5 5.99999 175.95 9.61999 173.99 13.14C173.13 14.71 172.69 15.85 172.69 16.55C172.69 16.93 172.82 17.17 173.07 17.27L173.09 17.28Z" fill="#534741"/>
<path d="M238.51 21.22C237.36 21.16 235.02 21.12 231.5 21.12C225.93 21.12 222.09 21.17 219.98 21.26C217.64 21.36 216.25 21.56 215.8 21.88C215.32 22.2 215.08 22.62 215.08 23.13C215.08 23.45 215.27 23.74 215.66 23.99C216.52 24.47 221.61 24.71 230.92 24.71C233.58 24.71 235.69 24.66 237.26 24.57C238.83 24.47 239.74 24.35 240 24.19C240.51 23.87 240.77 23.42 240.77 22.85C240.77 22.43 240.58 22.03 240.19 21.65C239.97 21.43 239.4 21.28 238.51 21.22Z" fill="#534741"/>
<path d="M257.66 11.76C257.95 11.79 258.52 11.81 259.39 11.81L266.88 11.71C270.94 11.68 273.2 11.5 273.65 11.18C274.19 10.89 274.47 10.44 274.47 9.83999C274.47 9.09999 274.13 8.58999 273.46 8.29999C273.01 8.10999 271.84 8.00999 269.96 8.00999C268.55 8.00999 267.42 8.02999 266.55 8.05999C266.23 8.05999 264.84 8.19999 262.37 8.48999L261.17 8.62999C258.74 8.88999 257.07 9.12999 256.18 9.34999C255.54 9.50999 255.14 9.76999 254.98 10.12C254.76 10.38 254.82 10.73 255.17 11.18C255.43 11.47 256.26 11.66 257.67 11.76H257.66Z" fill="#534741"/>
<path d="M273.45 20.98C273.93 20.69 274.17 20.2 274.17 19.49C274.17 19.01 274.01 18.61 273.69 18.29C273.37 18.03 272.11 17.87 269.9 17.81L266.68 17.71L266.54 15.6C266.48 14.64 266.41 13.97 266.35 13.58C266.25 13.13 266.11 12.81 265.92 12.62C265.73 12.43 265.47 12.33 265.15 12.33C264.67 12.33 264.35 12.39 264.19 12.52C264.03 12.62 263.77 13.5 263.42 15.16C263.13 16.86 262.94 17.78 262.84 17.95C262.71 18.11 261.77 18.33 260.01 18.62C258.19 18.91 257.18 19.13 256.99 19.29C256.8 19.45 256.67 19.8 256.61 20.35C256.61 20.83 256.9 21.2 257.47 21.45C258.14 21.71 258.96 21.83 259.92 21.83C260.98 21.86 261.5 22.02 261.5 22.31C261.5 22.66 261.16 23.59 260.49 25.09C259.08 27.97 257.58 30.29 255.98 32.05C254.96 33.17 254.44 33.94 254.44 34.35C254.44 34.7 254.62 35.05 254.97 35.4C255.29 35.62 255.66 35.74 256.07 35.74C256.52 35.74 256.97 35.63 257.41 35.4C258.5 34.89 259.5 34.01 260.43 32.76C262.22 30.46 263.73 27.59 264.94 24.17C265.42 22.76 265.71 21.98 265.8 21.82C265.86 21.66 267.06 21.53 269.4 21.44C271.67 21.38 273.02 21.22 273.43 20.96L273.45 20.98Z" fill="#534741"/>
<path d="M275.9 32.93C274.27 31.78 272.91 30.31 271.82 28.51C270.83 26.94 269.98 26.16 269.28 26.16C268.99 26.16 268.72 26.29 268.46 26.54C268.14 26.86 267.98 27.24 267.98 27.69L268.03 28.12C268.13 28.86 268.51 29.88 269.18 31.19C269.92 32.47 270.6 33.46 271.24 34.17C271.91 34.84 272.82 35.51 273.98 36.19C275.52 37.12 276.68 37.58 277.48 37.58C277.83 37.58 278.14 37.5 278.39 37.34C278.74 37.12 278.95 36.73 279.01 36.19C279.01 35.42 277.97 34.33 275.89 32.93H275.9Z" fill="#534741"/>
<path d="M34.56 76.56L35.18 75.07C35.53 74.17 35.71 73.29 35.71 72.43C35.71 70.77 35.26 69.54 34.37 68.73C33.73 68.09 32.77 67.67 31.49 67.48C31.04 67.42 30.71 67.38 30.48 67.38C29.74 67.38 28.93 67.54 28.03 67.86C27.23 68.15 26.56 68.57 26.01 69.11C25.69 69.46 25.48 70.3 25.39 71.61C25.29 72.92 25.23 75.08 25.2 78.09C25.17 78.51 25.15 79.16 25.15 80.06C25.09 84.09 24.97 87.15 24.81 89.23C24.68 90.64 24.62 91.84 24.62 92.83C24.62 93.28 24.64 93.57 24.67 93.69C24.86 94.49 25.25 94.99 25.82 95.18C26.46 95.37 27.05 95.08 27.6 94.32C28.05 93.71 28.35 91.58 28.51 87.94C28.57 86.53 28.61 85.49 28.61 84.82L28.56 80.98C28.5 79.25 28.46 77.92 28.46 77L28.36 75.37C28.23 73.07 28.18 71.66 28.22 71.15C28.25 70.73 28.43 70.48 28.75 70.38C29.04 70.28 29.44 70.24 29.95 70.24C30.88 70.24 31.55 70.46 31.97 70.91C32.23 71.17 32.35 71.55 32.35 72.06C32.35 72.73 32.06 73.68 31.49 74.89C30.95 76.07 30.67 76.89 30.67 77.34C30.67 77.79 30.99 78.3 31.63 78.88C32.3 79.49 32.7 80.19 32.83 80.99C32.89 81.31 32.93 81.57 32.93 81.76C32.93 82.24 32.8 82.74 32.55 83.25C32.36 83.63 32.1 83.83 31.78 83.83H31.59C31.21 83.73 30.87 83.85 30.58 84.17C30.32 84.43 30.2 84.68 30.2 84.94L30.25 85.23C30.35 85.68 30.63 86.13 31.11 86.58C31.49 86.96 31.94 87.15 32.45 87.15C32.61 87.15 32.77 87.13 32.93 87.1C33.09 87.07 33.25 87.04 33.41 87C33.57 86.96 33.75 86.89 33.96 86.76C34.17 86.63 34.34 86.54 34.46 86.47C34.75 86.31 35.02 86.1 35.28 85.85C36.21 84.92 36.67 83.59 36.67 81.87C36.67 80.27 36.22 78.86 35.33 77.65L34.56 76.6V76.56Z" fill="#534741"/>
<path d="M11.71 90.96C10.97 91.31 10.61 91.73 10.61 92.21C10.61 92.4 10.66 92.59 10.75 92.78C10.91 93.07 11.09 93.28 11.3 93.4C11.51 93.53 11.88 93.64 12.43 93.74C12.56 93.77 12.77 93.79 13.05 93.79C13.5 93.79 13.96 93.73 14.44 93.6C15.14 93.44 15.66 93.17 15.98 92.78C16.11 92.65 16.17 92.49 16.17 92.3C16.17 92.08 16.11 91.85 15.98 91.63C15.79 91.28 15.45 91.01 14.97 90.81C14.49 90.62 14.01 90.52 13.53 90.52C12.95 90.52 12.35 90.66 11.71 90.95V90.96Z" fill="#534741"/>
<path d="M17.62 75.31C16.63 75.31 16.13 75.25 16.13 75.12C16.13 74.96 16.48 74.15 17.19 72.67C18.69 69.86 19.45 67.82 19.45 66.57C19.45 66.12 19.34 65.79 19.11 65.56C18.89 65.4 18.69 65.32 18.53 65.32C18.02 65.32 17.49 65.78 16.95 66.71C16.53 67.38 16.23 67.72 16.04 67.72L15.94 67.67C15.81 67.57 15.14 67.48 13.92 67.38L12.14 67.24L11.85 64.31C11.66 62.33 11.45 61.22 11.23 61C11.01 60.81 10.75 60.71 10.46 60.71C10.17 60.71 9.88 60.85 9.6 61.14C9.31 61.49 9.07 62.61 8.88 64.5C8.82 65.37 8.74 66.08 8.66 66.64C8.58 67.2 8.51 67.5 8.44 67.53C8.34 67.56 7.58 67.66 6.14 67.82C4.03 68.04 2.97 68.52 2.97 69.26C2.97 69.68 3.18 69.95 3.59 70.08C4.07 70.27 4.89 70.42 6.04 70.51L8.44 70.75L8.58 73.05C8.64 74.65 8.6 75.5 8.44 75.59C8.31 75.69 7.83 75.73 7 75.73C4.66 75.73 2.81 76 1.43 76.55C0.66 76.87 0.28 77.32 0.28 77.89C0.28 78.05 0.3 78.18 0.33 78.27C0.43 78.65 0.75 78.86 1.29 78.89C1.87 78.95 2.71 78.99 3.83 78.99H5.08C6.01 78.99 6.78 78.99 7.41 79.01C8.03 79.03 8.38 79.08 8.44 79.18C8.66 79.5 8.09 80.32 6.71 81.63C5.81 82.59 5.37 83.33 5.37 83.84C5.37 84.16 5.5 84.42 5.75 84.61C6.07 84.87 6.41 84.99 6.76 84.99C7.94 84.99 9.54 83.78 11.56 81.34L13.48 79.04L16.12 78.9C17.66 78.8 18.79 78.66 19.53 78.47C20.04 78.28 20.39 77.96 20.59 77.51C20.65 77.38 20.69 77.21 20.69 76.98C20.69 76.72 20.63 76.48 20.5 76.26C20.15 75.62 19.19 75.3 17.62 75.3V75.31ZM13.49 72.62C12.79 73.77 12.35 74.35 12.19 74.35C12.09 74.35 12.05 74.01 12.05 73.34V72.57C12.11 71.71 12.16 71.18 12.19 70.99C12.22 70.83 12.4 70.7 12.72 70.61C12.98 70.51 13.25 70.47 13.54 70.47L14.26 70.42C14.45 70.42 14.55 70.47 14.55 70.56C14.55 70.75 14.2 71.44 13.49 72.62Z" fill="#534741"/>
<path d="M20.09 86.23C19.88 85.83 19.55 85.5 19.11 85.25C18.34 84.83 17.33 84.63 16.09 84.63C15.51 84.63 14.86 84.68 14.12 84.77C12.81 84.93 11.21 85.36 9.32 86.07C7.62 86.71 6.71 87.25 6.58 87.7C6.48 87.99 6.44 89.33 6.44 91.73C6.44 95.57 6.78 97.65 7.45 97.97C7.77 98.13 8.28 98.23 8.99 98.26C9.82 98.32 10.83 98.52 12.01 98.84C12.87 99.03 13.69 99.13 14.46 99.13C15.23 99.13 15.92 99.07 16.52 98.94C17.96 98.65 18.97 98.12 19.54 97.36C20.31 96.3 20.69 93.97 20.69 90.35C20.69 89.26 20.64 88.38 20.55 87.71C20.45 87.13 20.3 86.65 20.09 86.25V86.23ZM16.8 91.87C16.8 94.17 16.67 95.38 16.42 95.47C16.2 95.6 15.64 95.66 14.74 95.66C14.1 95.66 13.59 95.64 13.2 95.61C12.4 95.55 11.72 95.48 11.16 95.4C10.6 95.32 10.26 95.22 10.13 95.09C10.1 95.06 10 94.66 9.84 93.89C9.65 92.96 9.52 92.18 9.46 91.54L9.22 89.76C9.19 89.44 9.81 89.11 11.09 88.75C12.18 88.43 13.46 88.3 14.93 88.37L16.8 88.42V91.88V91.87Z" fill="#534741"/>
<path d="M61.54 67.39C59.68 67.39 58.28 67.5 57.32 67.73C56.33 67.89 55.83 68.37 55.83 69.17C55.83 69.59 56.13 69.92 56.74 70.18C57.16 70.34 57.94 70.42 59.09 70.42C60.31 70.39 61.25 70.26 61.92 70.04C62.46 69.88 62.9 69.64 63.22 69.32C63.64 69 63.84 68.7 63.84 68.41C63.84 67.74 63.07 67.4 61.54 67.4V67.39Z" fill="#534741"/>
<path d="M67.58 62.4C67.07 62.21 66.38 62.03 65.52 61.87C64.66 61.68 63.73 61.58 62.74 61.58C62.23 61.58 61.36 61.64 60.15 61.77C58.84 61.87 57.45 62.11 55.97 62.49C54.82 62.78 54.11 62.92 53.86 62.92C53.51 62.92 53.2 62.86 52.95 62.73C52.57 62.57 52.28 62.49 52.09 62.49C51.71 62.49 51.4 62.7 51.18 63.11C51.02 63.33 50.94 63.99 50.94 65.08C50.94 65.94 50.99 67.13 51.08 68.63C51.21 70.52 51.38 72.02 51.61 73.14C51.83 74.26 52.09 74.93 52.38 75.16C52.8 75.45 53.74 75.61 55.21 75.64L57.23 75.69C58.38 75.69 59.5 75.64 60.59 75.55C63.73 75.36 65.79 74.84 66.78 74.01C67.61 73.24 68.27 71.45 68.75 68.63C69.01 67.25 69.13 66.17 69.13 65.37C69.13 64.44 68.97 63.69 68.65 63.11C68.46 62.82 68.11 62.58 67.59 62.39L67.58 62.4ZM65.04 68.54C64.91 69.5 64.75 70.57 64.56 71.75C64.53 71.94 64.05 72.04 63.12 72.04C62.1 72.04 60.56 72.15 58.51 72.38C57.39 72.51 56.46 72.57 55.73 72.57C55.28 72.57 55.03 72.54 54.96 72.47C54.77 72.31 54.58 71.19 54.38 69.11C54.28 67.96 54.24 67.11 54.24 66.57C54.24 66.19 54.26 65.96 54.29 65.9C54.55 65.61 56.31 65.37 59.57 65.18C61.17 65.12 62.18 65.08 62.59 65.08C63.9 65.08 64.72 65.16 65.04 65.32C65.17 65.35 65.23 65.66 65.23 66.23C65.23 66.87 65.17 67.64 65.04 68.53V68.54Z" fill="#534741"/>
<path d="M73.44 93.6C72.93 93.54 72.02 93.49 70.7 93.46H69.55C66.7 93.46 64.64 93.32 63.36 93.03L61.73 92.69L61.83 91.35C61.96 90.17 62.12 89.45 62.31 89.19C62.44 89.03 62.98 88.92 63.94 88.85C65.35 88.79 66.4 88.53 67.11 88.08C67.88 87.6 68.18 86.98 68.02 86.21C67.92 85.79 67.7 85.54 67.35 85.44C67.25 85.41 67.09 85.39 66.87 85.39C66.52 85.39 66.05 85.44 65.48 85.53C64.36 85.75 63.61 85.87 63.22 85.87C62.64 85.87 62.31 85.74 62.21 85.49C62.15 85.3 62.16 84.79 62.26 83.95L62.4 82.61L64.66 82.56C66.93 82.46 68.28 82.03 68.69 81.26C68.79 81.07 68.83 80.86 68.83 80.64C68.83 80.54 68.8 80.34 68.73 80.02C68.51 79.6 68.22 79.33 67.87 79.2C67.29 78.98 66.01 78.86 64.03 78.86C62.88 78.86 61.95 78.88 61.25 78.91C58.63 79.04 55.79 79.37 52.75 79.92C51.25 80.18 50.32 80.37 49.97 80.5C49.49 80.66 49.25 81.01 49.25 81.56C49.25 81.91 49.38 82.23 49.63 82.52C49.89 82.81 50.16 82.95 50.45 82.95C50.61 82.95 50.93 82.95 51.41 82.93C51.89 82.91 52.47 82.93 53.14 82.95L57.41 82.85H58.61L58.56 87.27V89.33C58.56 90.9 58.53 91.71 58.46 91.78C58.4 91.84 57.5 91.56 55.77 90.92C54.59 90.54 53.82 90.23 53.47 90.01C53.25 89.88 53.13 89.66 53.13 89.34C53.32 88.51 53.42 87.87 53.42 87.42C53.42 87.04 53.34 86.73 53.18 86.51C52.83 86.16 52.49 85.98 52.17 85.98C51.85 85.98 51.51 86.17 51.16 86.56C50.81 86.98 50.39 87.57 49.91 88.34L49.24 89.4C48.89 89.88 48.54 90.42 48.18 91.03C47.35 92.37 46.84 93.22 46.64 93.57C46.54 93.76 46.4 94.02 46.21 94.34C46.02 94.66 45.92 94.87 45.92 94.96C45.98 95.18 46.08 95.42 46.21 95.68C46.37 95.97 46.55 96.18 46.74 96.3C46.96 96.43 47.19 96.49 47.41 96.49C47.73 96.49 48.23 96.15 48.9 95.48C49.89 94.61 50.6 93.85 51.01 93.18L51.59 92.36L54.09 93.61C58.57 95.91 63.08 97.07 67.63 97.07C72.4 97.07 74.78 96.3 74.78 94.77C74.78 94.55 74.68 94.32 74.49 94.1C74.3 93.84 73.95 93.68 73.43 93.62L73.44 93.6Z" fill="#534741"/>
<path d="M98.78 75.5L97.82 75.45L97.77 74.06C97.71 73.16 97.51 72.6 97.19 72.38C96.97 72.19 96.73 72.09 96.47 72.09C95.93 72.09 95.48 72.47 95.13 73.24C94.81 73.95 94.65 74.36 94.65 74.49C94.65 74.71 94.6 74.87 94.51 74.97C94.32 75.16 94.16 75.27 94.03 75.31C93.58 75.41 93.29 75.47 93.17 75.5C92.95 75.53 92.5 75.55 91.83 75.55C90.45 75.55 89.7 75.47 89.57 75.31C89.54 75.25 89.57 74.89 89.69 74.25C89.8 73.61 89.95 72.81 90.15 71.85C90.21 71.53 90.32 70.99 90.46 70.24C90.6 69.49 90.68 68.97 90.68 68.68C90.68 68.07 90.41 67.77 89.86 67.77C89.51 67.77 89.17 67.88 88.85 68.11C88.24 68.56 87.54 70.32 86.74 73.39L86.45 74.4C86.26 75.2 86.13 75.66 86.07 75.79C85.97 75.92 85.53 76.03 84.73 76.13C84.06 76.19 83.55 76.36 83.19 76.63C82.83 76.9 82.66 77.25 82.66 77.66C82.66 78.4 83.25 78.83 84.44 78.96C84.89 78.99 85.18 79.1 85.3 79.3C85.4 79.43 85.51 79.84 85.64 80.55C85.99 82.18 86.89 83.46 88.33 84.39C89.1 84.9 89.48 85.25 89.48 85.44C89.48 85.57 89.27 85.95 88.86 86.59L87.42 88.7C87 89.31 86.54 89.9 86.03 90.48C85.97 90.54 85.82 90.73 85.6 91.03C85.38 91.33 85.26 91.55 85.26 91.68C85.26 91.84 85.37 92.11 85.6 92.5C85.86 92.85 86.26 93.03 86.8 93.03C87.18 93.03 87.52 92.93 87.81 92.74C87.91 92.68 88.43 92.2 89.39 91.3C90.32 90.43 91.18 89.41 91.98 88.23C92.56 87.33 92.92 86.89 93.08 86.89C93.21 86.89 93.75 87.08 94.71 87.46C95.61 87.81 96.31 87.99 96.82 87.99C97.33 87.99 97.68 87.83 97.88 87.51C98.01 87.35 98.07 87.14 98.07 86.89C98.07 86.67 98.02 86.46 97.93 86.27C97.55 85.38 96.65 84.59 95.24 83.92C95.08 83.82 95 83.7 95 83.54V83.44C95.03 83.31 95.26 82.72 95.67 81.66C95.93 81.02 96.15 80.5 96.34 80.1C96.53 79.7 96.68 79.45 96.77 79.36C96.99 79.14 97.7 78.98 98.88 78.88C100.22 78.78 101.02 78.56 101.28 78.21C101.57 77.83 101.71 77.49 101.71 77.2C101.71 76.88 101.57 76.58 101.28 76.29C100.8 75.81 99.97 75.56 98.78 75.52V75.5ZM92.3 80.69C91.82 81.68 91.53 82.18 91.44 82.18C91.35 82.18 90.91 81.94 90.14 81.46C89.24 80.89 88.8 80.36 88.8 79.88C88.8 79.69 88.88 79.47 89.04 79.21C89.23 78.99 90.03 78.87 91.44 78.87C92.11 78.87 92.53 78.93 92.69 79.06C92.91 79.22 92.79 79.76 92.31 80.69H92.3Z" fill="#534741"/>
<path d="M122.74 81.12C122.23 80.87 120.8 80.74 118.47 80.74H114.92L114.58 79.92L114.24 79.06L115.92 77.14C117.26 75.6 118.13 74.31 118.51 73.25C118.67 72.83 118.75 72.39 118.75 71.91C118.75 71.37 118.64 70.89 118.41 70.47C117.9 69.51 116.86 68.81 115.29 68.36C114.62 68.17 113.93 68.07 113.23 68.07C112.81 68.07 112.19 68.13 111.36 68.26C109.76 68.55 108.45 68.97 107.42 69.51C106.3 70.09 105.74 70.65 105.74 71.19C105.74 71.9 106.2 72.25 107.13 72.25C107.64 72.25 108.59 72.12 109.96 71.87C110.76 71.71 111.77 71.63 112.98 71.63C114.07 71.63 114.69 71.71 114.85 71.87C115.04 72.06 114.95 72.44 114.59 73C114.23 73.56 113.56 74.37 112.6 75.42C111.26 76.92 110.5 77.87 110.34 78.25C110.21 78.57 110.29 79.08 110.58 79.79C110.71 80.14 110.77 80.4 110.77 80.56V80.7C110.71 80.83 110.55 80.92 110.29 80.99C109.75 81.15 109.35 81.23 109.09 81.23C108.58 81.23 107.47 81.45 105.78 81.9C104.12 82.35 103.22 82.67 103.09 82.86C102.9 83.18 102.8 83.42 102.8 83.58C102.8 83.71 102.82 83.8 102.85 83.87C102.95 84.22 103.09 84.48 103.28 84.64C103.44 84.77 103.82 84.86 104.43 84.93C105.04 84.99 105.73 84.98 106.49 84.88C107.23 84.78 107.95 84.73 108.65 84.71C109.35 84.69 109.83 84.69 110.09 84.69L111.48 84.64V86.66C111.48 88.77 111.21 90.2 110.66 90.93C110.5 91.12 110.21 91.01 109.8 90.59C109.35 90.14 108.95 89.92 108.6 89.92C108.38 89.92 108.18 89.98 108.02 90.11C107.64 90.33 107.44 90.7 107.44 91.21C107.44 91.72 107.63 92.35 108.02 93.08C108.24 93.53 108.61 93.91 109.12 94.23C109.57 94.52 110.11 94.66 110.75 94.66C113.53 94.66 115.07 92.15 115.36 87.12L115.5 84.39L118.81 84.29C120.92 84.26 122.19 84.12 122.6 83.86C123.24 83.51 123.56 83.04 123.56 82.47C123.56 81.86 123.27 81.41 122.7 81.12H122.74Z" fill="#534741"/>
<path d="M146.88 79.44C146.75 79.38 146.42 79.34 145.87 79.34C145.17 79.34 144.56 79.36 144.05 79.39C142.55 79.49 141.51 79.61 140.93 79.77C140.51 79.87 140.13 80.06 139.78 80.35C139.52 80.77 139.4 81.12 139.4 81.41C139.56 82.56 141.43 83.14 145.02 83.14C146.97 83.14 148.09 82.63 148.38 81.6C148.41 81.5 148.43 81.38 148.43 81.22C148.43 80.9 148.33 80.6 148.14 80.31C147.82 79.89 147.4 79.6 146.89 79.44H146.88Z" fill="#534741"/>
<path d="M154.22 68.64C153.9 68.35 153.45 68.08 152.88 67.82C152.43 67.63 151.52 67.44 150.14 67.24C148.19 67.02 146.44 66.9 144.91 66.9C143.38 66.9 142.03 67 140.97 67.19C140.33 67.25 139.43 67.49 138.28 67.91C137.64 68.13 137.14 68.3 136.77 68.41C136.4 68.52 136.1 68.61 135.88 68.67C135.14 68.86 134.65 69.2 134.39 69.68C134.07 70.35 133.86 71.25 133.77 72.37V74.87C133.77 79.41 133.8 83.22 133.87 86.29C133.87 89.39 133.97 91.55 134.16 92.77C134.35 93.64 134.78 94.26 135.46 94.64C135.84 94.7 136.13 94.74 136.32 94.74C136.64 94.74 136.96 94.69 137.28 94.6C137.66 94.5 138.5 94.46 139.78 94.46L147.42 94.56C149.02 94.56 150.12 94.51 150.73 94.42C151.72 94.32 152.47 93.99 152.99 93.41C153.73 92.67 154.24 91.12 154.53 88.75C154.66 87.89 154.76 86.19 154.84 83.66C154.92 81.13 154.96 78.67 154.96 76.27L154.91 73.15C154.81 70.56 154.59 69.05 154.24 68.64H154.22ZM150.96 73.63C150.9 74.27 150.83 75.45 150.77 77.18C150.67 85.24 150.53 89.58 150.34 90.19C150.21 90.48 150.04 90.64 149.81 90.67C149.52 90.73 148.9 90.72 147.94 90.62C147.24 90.56 146.53 90.52 145.83 90.52C144.77 90.52 143.38 90.58 141.65 90.71L139.39 90.81C138.78 90.81 138.4 90.76 138.24 90.67C138.02 90.45 137.79 86 137.57 77.33L137.47 74.16C137.44 73.65 137.42 73.04 137.42 72.34C137.42 71.86 137.45 71.59 137.52 71.52C137.68 71.39 138.35 71.23 139.54 71.04C140.47 70.85 142.47 70.75 145.54 70.75C147.94 70.78 149.48 70.88 150.15 71.04C150.41 71.11 150.61 71.23 150.77 71.4C150.93 71.57 151.01 71.79 151.01 72.05L150.96 73.63Z" fill="#534741"/>
<path d="M188.54 77.18H185.76L185.33 76.13L184.95 75.07L186.29 73.34C187.86 71.29 189.02 69.65 189.77 68.42C190.52 67.19 190.9 66.22 190.9 65.52C190.9 65.01 190.71 64.45 190.32 63.84C190.06 63.33 189.65 62.93 189.07 62.64C187.89 62.13 186.17 61.87 183.93 61.87C180.44 61.87 177.45 62.43 174.95 63.55C173.19 64.32 172.31 65.04 172.31 65.71C172.31 66.03 172.48 66.37 172.84 66.72C173.03 66.94 173.26 67.06 173.51 67.06C174.09 66.93 174.65 66.79 175.19 66.63C176.5 66.25 178.52 65.92 181.24 65.67C181.91 65.61 182.78 65.57 183.83 65.57C184.98 65.57 185.73 65.65 186.09 65.81L186.76 66.1L185.75 67.59C185.21 68.36 184.31 69.56 183.06 71.19C181.62 72.95 180.9 74.39 180.9 75.51C180.9 75.67 180.93 75.88 181 76.13C181.1 76.35 181.14 76.55 181.14 76.7V76.84C181.11 76.94 180.96 77.05 180.71 77.18C180.17 77.34 179.22 77.42 177.88 77.42C174.23 77.42 171.69 77.76 170.25 78.43C169.58 78.75 169.24 79.23 169.24 79.87C169.24 80.25 169.34 80.53 169.53 80.69C169.72 80.79 170.39 80.88 171.52 80.98C172.65 81.08 174.18 81.12 176.1 81.12H182.24L182.34 85.25C182.4 88.23 181.99 90.16 181.09 91.06C180.83 91.32 180.63 91.44 180.47 91.44C180.41 91.44 180.05 91.28 179.41 90.96C178.83 90.67 178.37 90.53 178.02 90.53C177.89 90.53 177.76 90.56 177.64 90.63C177.16 90.82 176.92 91.17 176.92 91.68C176.92 91.94 177.03 92.32 177.26 92.83C177.96 94.17 179.1 94.97 180.67 95.23C180.83 95.26 181.05 95.28 181.34 95.28C182.75 95.28 183.9 94.56 184.8 93.12C185.95 91.26 186.58 88.85 186.67 85.87L186.81 81.12L190.84 81.22C191.35 81.22 191.72 81.24 191.94 81.27C192.42 81.27 192.88 81.27 193.31 81.29C193.74 81.31 194.1 81.29 194.39 81.27C194.81 81.24 195.21 81.08 195.59 80.79C196.04 80.44 196.26 80.01 196.26 79.5C196.26 79.02 196.02 78.57 195.54 78.16C194.71 77.52 192.37 77.2 188.53 77.2L188.54 77.18Z" fill="#534741"/>
</svg>
