<svg width="187" height="66" viewBox="0 0 187 66" fill="none" xmlns="http://www.w3.org/2000/svg">
<path d="M1.32991 20.2923C1.64988 19.9128 2.17982 19.1239 2.92974 17.9256C3.52967 16.9868 3.92963 16.4576 4.14961 16.3277L4.56956 16.108C4.56956 16.108 4.73954 16.158 4.94952 16.2678C5.20949 16.3976 5.32948 16.6473 5.32948 17.0368C5.32948 17.5461 5.07951 18.315 4.58956 19.3336C4.00962 20.532 3.36969 21.4408 2.66977 22.0799C2.13982 22.5692 1.68987 22.8189 1.32991 22.8189C1.19992 22.8189 1.06994 22.7889 0.949952 22.719C0.649984 22.5493 0.5 22.2896 0.5 21.9501C0.5 21.5906 0.77997 21.0313 1.32991 20.2923ZM7.69923 26.9433C7.28927 26.9433 6.9793 26.7735 6.76933 26.434C6.57935 26.1344 6.46936 25.8448 6.44936 25.5751C6.42936 25.3155 6.41936 24.3168 6.41936 22.5692C6.37937 19.4135 6.34937 17.616 6.31937 17.1666L6.28938 15.1893L5.41947 15.1593C5.35948 15.1593 5.25949 15.1593 5.1295 15.1394C4.99952 15.1294 4.80954 15.1194 4.54956 15.1194H3.64966C3.02973 15.1194 2.57978 14.9796 2.30981 14.7C2.04983 14.4403 1.94984 14.2206 1.98984 14.0309C1.98984 13.7313 2.15982 13.5316 2.49978 13.4217C2.68976 13.3618 3.00973 13.2919 3.45968 13.232L4.41958 13.0422L5.43947 12.8525C5.86942 12.7926 6.0894 12.7426 6.1094 12.7227C6.12939 12.7027 6.15939 12.503 6.20939 12.1335C6.24938 11.764 6.27938 11.4644 6.30937 11.2547C6.41936 10.236 6.51935 9.61689 6.62934 9.39719C6.75933 9.18747 6.9593 9.05765 7.23927 9.0177H7.29927C7.50925 9.0177 7.72922 9.12756 7.9392 9.33727C8.10918 9.50704 8.27916 10.0064 8.44914 10.8352C8.48914 11.005 8.55913 11.2746 8.63912 11.6541C8.72912 12.0236 8.78911 12.2333 8.8291 12.2733C8.8891 12.3831 9.39904 12.433 10.3289 12.433C11.1988 12.433 11.8088 12.493 12.1487 12.6228C12.5987 12.7926 12.8287 13.0722 12.8487 13.4517V13.6414C12.8487 13.9809 12.6887 14.2406 12.3687 14.4104C11.9888 14.6201 11.3788 14.7699 10.5489 14.8597L9.10907 15.0195L9.00908 20.2923C8.96909 23.2084 8.8991 25.0059 8.8191 25.665C8.75911 26.3641 8.50914 26.7735 8.07918 26.8833C7.9092 26.9233 7.76922 26.9433 7.65923 26.9433H7.69923ZM3.21971 7.56968C3.21971 7.31003 3.3297 7.08035 3.53967 6.87063C3.68966 6.72084 4.62956 6.2315 6.35937 5.40263C7.48925 4.85338 8.40915 4.48389 9.10907 4.31412C9.21906 4.27417 9.36905 4.2542 9.55903 4.2542C9.85899 4.2542 10.099 4.35406 10.2989 4.5438C10.4289 4.67363 10.4889 4.82342 10.4889 4.99319C10.4889 5.12301 10.4689 5.21289 10.4289 5.2828C10.2989 5.54244 9.89899 5.88198 9.21906 6.30141C8.12918 7.05039 7.0093 7.6296 5.85942 8.05901C5.06951 8.33863 4.48957 8.47844 4.12961 8.47844C3.95963 8.47844 3.78965 8.43849 3.61966 8.34862C3.35969 8.21879 3.23971 8.00908 3.23971 7.70949V7.57967L3.21971 7.56968ZM11.3188 16.9069C11.7288 16.9069 12.0188 17.0068 12.2187 17.1966C12.6687 17.7558 13.0786 18.2951 13.4686 18.8243C13.5486 18.9741 13.6886 19.2038 13.8886 19.5134C14.0785 19.823 14.1785 20.0327 14.1785 20.1325C14.1785 20.3922 14.0785 20.6119 13.8886 20.8016C13.7386 20.9514 13.5086 21.0213 13.1786 21.0213C12.5987 21.0213 12.0188 20.532 11.4188 19.5533C10.9689 18.7844 10.7489 18.1453 10.7489 17.636C10.7489 17.5061 10.7689 17.3563 10.8089 17.1866C10.8889 16.9968 11.0689 16.897 11.3188 16.897V16.9069ZM17.8381 11.5343C18.1381 11.4744 18.4281 11.3246 18.708 11.0849C18.968 10.8552 19.358 10.6655 19.8879 10.5456C20.3379 10.4158 20.9478 10.3559 21.7077 10.3559C22.8776 10.3559 23.7275 10.4757 24.2374 10.7054C24.7074 10.965 25.0074 11.2447 25.1373 11.5642C25.2873 11.9737 25.3573 12.5229 25.3573 13.222C25.3573 15.0495 25.1773 16.4875 24.8174 17.5361C24.4574 18.5847 23.8875 19.2438 23.1176 19.5134C22.6276 19.6832 21.8377 19.773 20.7478 19.773C19.038 19.773 18.0181 19.6033 17.6782 19.2637C17.2082 18.8843 16.9782 17.6459 16.9782 15.5588C16.9782 13.0222 17.2682 11.6841 17.8381 11.5343ZM19.088 13.5815L19.148 15.2792L19.278 17.4862L20.8178 17.4562C21.8177 17.4362 22.3776 17.3663 22.4776 17.2665C22.5176 17.2065 22.5776 16.9669 22.6376 16.5674C22.6976 16.168 22.7576 15.6587 22.7976 15.0695C22.8776 14.1307 22.9276 13.5016 22.9276 13.182C22.9276 12.9723 22.8476 12.8125 22.6676 12.7027C22.4776 12.5529 21.8777 12.483 20.8778 12.483C20.3679 12.483 19.9779 12.5229 19.7279 12.6128C19.388 12.7227 19.188 12.8724 19.118 13.0622C19.098 13.1521 19.088 13.3318 19.088 13.6015V13.5815Z" fill="#534741"/>
<path d="M38.3859 24.4766C37.656 23.7576 37.236 22.5193 37.1061 20.7717L37.0061 19.4635L34.5763 19.3636C32.9565 19.3037 32.0866 19.2138 31.9866 19.104C31.8566 18.9741 31.8066 18.7544 31.8266 18.4349C31.8866 17.8157 32.9165 17.3763 34.8963 17.1266C36.0062 16.9769 36.6661 16.867 36.8761 16.8071C37.0261 16.7472 37.0861 16.2079 37.0661 15.2093L37.0061 13.6714L34.7663 13.6114C33.5964 13.5715 32.8365 13.5016 32.4966 13.4217C32.1566 13.3418 31.9866 13.1121 31.9866 12.7526C31.9866 12.4131 32.3166 12.1235 32.9665 11.8738C33.6164 11.6241 34.5863 11.4544 35.8662 11.3445C36.2062 11.3246 36.5061 11.2946 36.7661 11.2447C37.0261 11.2047 37.1861 11.1448 37.246 11.0849C37.376 10.9551 37.436 10.6655 37.436 10.2261C37.436 9.78666 37.556 9.41716 37.786 9.07762C37.996 8.75806 38.2459 8.59828 38.5259 8.59828C38.7159 8.59828 38.8959 8.7281 39.0659 8.97776C39.2358 9.2374 39.3558 9.58693 39.4158 10.0363C39.5258 10.6954 39.6158 11.0749 39.7058 11.1548C39.7258 11.1748 39.8358 11.1847 40.0257 11.1847C40.4057 11.1847 41.0256 11.1548 41.8855 11.0849C42.7555 11.025 43.4554 10.985 43.9653 10.985C45.1352 10.985 45.8551 11.2946 46.1051 11.9138C46.1451 12.0036 46.1651 12.1235 46.1651 12.2932C46.1651 12.5928 45.9551 12.8824 45.5252 13.1521C45.2252 13.3418 44.2153 13.4716 42.4855 13.5315C40.8657 13.5915 39.9658 13.6813 39.7958 13.7912C39.6858 13.8811 39.6158 14.3205 39.5758 15.1294V15.5488C39.5758 16.0581 39.6158 16.3577 39.7058 16.4476C39.7858 16.5075 40.2157 16.4875 40.9856 16.3877C41.9855 16.2379 43.0954 16.168 44.3153 16.168C45.7251 16.168 46.585 16.2678 46.905 16.4576C47.185 16.6074 47.325 16.867 47.325 17.2265C47.325 17.636 47.205 17.9256 46.975 18.1253C46.825 18.2551 46.4751 18.3749 45.9151 18.4748C45.2152 18.6046 44.2853 18.7045 43.1354 18.7944C40.9157 18.9641 39.7758 19.1139 39.7158 19.2438C39.6758 19.3336 39.6558 19.5334 39.6558 19.8529C39.6558 20.1525 39.6558 20.3922 39.6858 20.5919C39.7458 21.3409 39.8358 21.8502 39.9458 22.1298C40.0357 22.3595 40.2557 22.5992 40.6157 22.8289C40.9756 23.0586 42.0255 23.1784 43.7553 23.1784C45.4852 23.1784 46.4951 23.1484 46.605 23.0785C46.795 22.9687 47.075 22.6391 47.435 22.0899C47.8149 21.4907 48.1749 21.1911 48.4948 21.1911C49.1348 21.1911 49.4547 21.5606 49.4547 22.3096C49.4547 22.4793 49.4147 22.7989 49.3248 23.2683C49.0648 24.5066 48.3749 25.3155 47.245 25.695C46.735 25.8647 45.9751 25.9546 44.9752 25.9546C44.2953 25.9546 43.3354 25.9047 42.0955 25.7948C40.3657 25.645 39.1358 25.2056 38.4159 24.4866L38.3859 24.4766ZM33.9164 6.21153C34.2264 6.03178 34.7063 5.88198 35.3763 5.78212C36.1862 5.65229 36.7861 5.52247 37.1661 5.40263L39.0559 4.7635C40.3357 4.35406 41.1356 4.08443 41.4556 3.93464C41.7756 3.78484 42.0955 3.71493 42.4155 3.71493C42.7355 3.71493 43.0054 3.83477 43.2154 4.06446C43.3454 4.21425 43.4054 4.37404 43.4054 4.5438C43.4054 4.86337 43.1954 5.18293 42.7655 5.5025C42.5055 5.71221 42.1455 5.95188 41.6756 6.20154C41.0756 6.52111 40.6057 6.74081 40.2657 6.87063L38.6959 7.44984C38.096 7.65956 37.566 7.80935 37.0961 7.89923C36.9461 7.9192 36.7261 7.95915 36.4261 8.02905C36.1262 8.08897 35.8862 8.12892 35.6862 8.12892C35.1563 8.12892 34.7563 8.10894 34.5063 8.07898C34.2464 8.04903 34.0464 7.96913 33.8964 7.83931C33.5964 7.57966 33.4465 7.30005 33.4465 6.98048C33.4465 6.66092 33.5964 6.41126 33.9064 6.2315L33.9164 6.21153Z" fill="#534741"/>
<path d="M56.754 24.0672L56.724 23.7476C56.724 23.3482 56.8439 23.0586 57.0739 22.8888C57.1839 22.8289 57.2839 22.7889 57.3939 22.7889C57.5839 22.7889 57.8538 22.9287 58.1938 23.2084C58.3838 23.3981 58.5238 23.5179 58.6138 23.5579C58.6537 23.5579 58.7437 23.488 58.8737 23.3382C59.4737 22.5093 59.7736 21.1212 59.7736 19.1838L59.8036 17.5261L59.2237 17.5561C59.0737 17.5561 58.5738 17.596 57.7239 17.6859C57.6139 17.7059 57.4639 17.7158 57.2739 17.7158C56.9139 17.7158 56.654 17.6659 56.504 17.5561C56.314 17.4262 56.214 17.2665 56.214 17.0767C56.214 16.9269 56.324 16.7472 56.534 16.5375C56.704 16.3677 56.9539 16.1879 57.2739 15.9982C57.6839 15.7885 58.0338 15.6487 58.3338 15.5788C59.1237 15.3191 59.5537 15.1493 59.6136 15.0695C59.6536 15.0295 59.6736 14.9696 59.6736 14.9097C59.6736 14.8498 59.6336 14.64 59.5437 14.3005C59.3737 13.8311 59.1437 13.4017 58.8737 13.0222C58.6338 12.6228 58.5238 12.3631 58.5238 12.2533V12.1235C58.5238 11.9936 58.5538 11.8239 58.6238 11.6142C58.7337 11.1648 59.1037 10.3659 59.7436 9.21743C60.3636 8.02905 60.6235 7.4099 60.5435 7.35996C60.4836 7.30005 60.3336 7.2601 60.0936 7.2601C59.6436 7.2601 58.9837 7.36995 58.1138 7.57967C57.5139 7.70949 57.0439 7.76941 56.704 7.76941C56.194 7.76941 55.934 7.57967 55.934 7.1902C55.934 7.0404 56.004 6.87063 56.154 6.68089C56.304 6.49115 56.504 6.32138 56.764 6.17158C56.9739 6.02179 57.2839 5.85202 57.6939 5.66228L58.9437 5.24285C59.6236 5.07308 60.1936 4.98321 60.6435 4.98321C61.1535 4.98321 61.6134 5.10304 62.0234 5.33273C62.7033 5.76214 63.0433 6.30141 63.0433 6.96051C63.0433 7.61961 62.6933 8.61825 61.9934 9.96641L61.0935 11.754L61.5734 12.7426C61.9334 13.5116 62.1534 13.9809 62.2134 14.1507C62.3234 14.3604 62.4133 14.4803 62.5033 14.5002C62.6133 14.5202 62.8933 14.5202 63.3632 14.5002C63.4732 14.4803 63.6232 14.4703 63.8132 14.4703C64.1732 14.4703 64.4431 14.5202 64.6131 14.6301C64.8431 14.7599 64.9631 14.9995 64.9631 15.369C64.9631 15.9882 64.4731 16.4576 63.4932 16.7771L62.6233 17.0368L62.5233 18.8942C62.3334 22.2197 61.6434 24.3867 60.4436 25.4153C60.0136 25.8248 59.5337 26.0245 59.0037 26.0245C58.6637 26.0245 58.3438 25.9546 58.0438 25.8048C57.2739 25.4453 56.8439 24.8661 56.764 24.0772L56.754 24.0672ZM66.9229 8.33863C66.9229 8.14889 67.0528 7.94916 67.3028 7.72946C67.6028 7.49977 69.5926 7.12029 73.2822 6.61099C74.732 6.40127 76.2719 6.29142 77.8917 6.29142C78.9316 6.29142 79.6015 6.34135 79.8715 6.4512C80.1914 6.54108 80.4114 6.72084 80.5414 6.99047C80.6214 7.16024 80.6714 7.30005 80.6714 7.4099C80.6714 7.51975 80.6414 7.61961 80.5714 7.72946C80.5314 7.89923 80.3914 8.05901 80.1514 8.20881C79.9815 8.31866 79.7115 8.39855 79.3515 8.46845C78.9716 8.52837 78.4616 8.59828 77.8517 8.65819C76.7418 8.71811 75.4619 8.84794 74.0121 9.03768C72.1323 9.26736 70.5325 9.3872 69.2126 9.3872C68.4427 9.3872 67.8928 9.3173 67.5528 9.1675C67.2128 8.97776 67.0128 8.73809 66.9429 8.46845L66.9129 8.33863H66.9229ZM68.3627 16.4276C68.3627 15.9782 68.5127 15.4689 68.8127 14.8897C69.7926 12.9324 70.5825 11.6541 71.1824 11.0549C71.4124 10.7953 71.6424 10.6754 71.8523 10.6754C72.0223 10.6754 72.1623 10.7653 72.2723 10.9451C72.3823 11.1248 72.4323 11.3745 72.4323 11.6941C72.4323 12.1035 72.3323 12.5229 72.1423 12.9723C71.3324 14.6101 71.0424 15.5288 71.2824 15.7186C71.3924 15.8084 71.6124 15.8684 71.9523 15.9083C72.3623 15.9682 72.6522 16.0381 72.8522 16.0981L72.9522 16.128C73.0822 16.128 73.2522 15.9982 73.4622 15.7485C73.7421 15.2792 74.0821 14.5801 74.482 13.6414C74.932 12.6428 75.302 12.0236 75.6019 11.7839C75.7119 11.704 75.8319 11.6541 75.9819 11.6541C76.1719 11.6541 76.3618 11.754 76.5618 11.9437C76.7718 12.2034 76.8818 12.5329 76.8818 12.9324C76.8818 13.7013 76.5818 14.7499 75.9819 16.0981C75.212 17.9955 74.1621 19.7231 72.8122 21.271C71.5324 22.7889 70.4525 23.5379 69.5826 23.5379C69.2626 23.5379 69.0226 23.478 68.8627 23.3482C68.7027 23.2183 68.6227 23.0186 68.6227 22.739C68.6227 22.3595 68.8227 21.9301 69.2326 21.4607C70.9624 19.5434 71.8223 18.4848 71.8223 18.2951C71.8223 18.1652 71.4824 18.1053 70.8024 18.1053C69.6526 18.0454 68.9026 17.7458 68.5627 17.2065C68.4327 16.9769 68.3727 16.7072 68.3727 16.4076L68.3627 16.4276ZM73.1922 22.719C75.152 20.6918 76.7018 18.7145 77.8317 16.7771C78.0417 16.3976 78.2416 16.118 78.4216 15.9483C78.6016 15.7785 78.8316 15.6886 79.1115 15.6886C79.3715 15.7086 79.5415 15.7785 79.6415 15.8983C79.7415 16.0182 79.7815 16.1979 79.7815 16.4576C79.7815 16.837 79.7415 17.1566 79.6715 17.3963C79.6015 17.6459 79.5515 17.7857 79.5315 17.8257C79.4515 18.1652 79.1015 18.8643 78.5116 19.9029L77.6117 21.3709L78.5716 22.4893C79.5115 23.6178 80.1114 24.4666 80.3614 25.0458C80.4414 25.3055 80.4914 25.4852 80.4914 25.5851C80.4914 25.8847 80.3614 26.1144 80.1114 26.2842C79.9415 26.434 79.7315 26.5039 79.4715 26.5039C78.8116 26.5039 78.0617 25.8647 77.2318 24.5865C76.7218 23.8175 76.4118 23.3781 76.3018 23.2783C76.2419 23.2183 75.8219 23.5479 75.052 24.2669C74.3221 24.9959 73.8221 25.4353 73.5521 25.6051C73.2722 25.7948 72.9622 25.8947 72.6222 25.8947C71.8723 25.8947 71.5024 25.5651 71.5024 24.906C71.5024 24.6064 72.0723 23.8774 73.2022 22.699L73.1922 22.719ZM73.5521 2.52656C73.8321 2.52656 74.1321 2.69632 74.452 3.03586C75.002 3.63504 75.282 4.2542 75.282 4.89333C75.282 5.62233 75.042 5.98184 74.582 5.98184C74.1221 5.98184 73.6621 5.51248 73.2422 4.57376C73.0022 4.04449 72.8922 3.62506 72.8922 3.32547C72.8922 3.06582 72.9622 2.86609 73.1122 2.7163C73.2422 2.58647 73.3922 2.52656 73.5621 2.52656H73.5521Z" fill="#534741"/>
<path d="M85.9508 22.3895C85.7508 22.1198 85.5908 21.7204 85.4909 21.1911C85.4009 20.7018 85.3009 19.3237 85.1709 17.0667C85.0809 15.7885 85.0409 14.7199 85.0409 13.8711C85.0409 13.4616 85.0509 13.212 85.0709 13.1021C85.1109 12.8225 85.2509 12.4131 85.4909 11.8538C85.7208 11.3046 86.0508 10.6754 86.4808 9.96641C87.4007 8.36859 87.9506 7.49977 88.1406 7.34998C88.3505 7.18021 88.5605 7.09033 88.7505 7.09033C88.9005 7.09033 89.0305 7.13028 89.1305 7.22016C89.3404 7.36995 89.4504 7.59964 89.4504 7.9192C89.4504 8.12892 89.4104 8.36859 89.3204 8.61825C89.0605 9.46709 88.6405 10.276 88.0406 11.0449C87.6306 11.6042 87.4506 11.8938 87.5006 11.9437C87.5606 12.0036 88.0206 11.9138 88.8805 11.6541C89.7304 11.4444 90.8103 11.3046 92.1101 11.2347C92.3701 11.2147 92.7001 11.2047 93.1 11.2047C93.63 11.2047 94.0099 11.2347 94.2199 11.3046C94.6299 11.4144 94.9298 11.6641 95.1498 12.0735C95.4498 12.5429 95.5998 13.5515 95.5998 15.1094C95.5998 15.8384 95.5898 16.3976 95.5698 16.8071C95.4398 19.2338 95.1198 20.8216 94.6099 21.5706C94.0599 22.3196 92.3401 22.6891 89.4604 22.6891C88.7605 22.6891 88.1606 22.709 87.6706 22.739C87.1807 22.769 86.8807 22.7889 86.7707 22.7889C86.4308 22.7889 86.1608 22.6591 85.9508 22.3895ZM87.3407 15.0495C87.4906 16.2478 87.6106 17.3164 87.6906 18.2751L87.8806 20.4821L89.3504 20.4521C90.4603 20.4122 91.2902 20.3223 91.8502 20.1925L92.8401 19.9728L92.9701 18.1852C93.03 17.4362 93.07 16.7372 93.07 16.0781L93.04 14.9596L93.01 13.5815L91.8602 13.5515C91.2402 13.5315 90.3603 13.5915 89.2005 13.7413C89.0705 13.7612 88.7805 13.8012 88.3405 13.8711C87.8906 13.931 87.6106 13.931 87.5106 13.8711L87.4107 13.8411C87.4107 13.8411 87.3207 13.8711 87.2807 13.921C87.2407 13.9709 87.2307 14.0409 87.2507 14.1307L87.3507 15.0595L87.3407 15.0495ZM89.5804 16.5874C89.8404 16.5275 90.1404 16.4875 90.5103 16.4875C91.0003 16.4875 91.4102 16.5275 91.7402 16.5974C92.0702 16.6673 92.2901 16.7671 92.4001 16.867C92.6301 17.0967 92.7501 17.3064 92.7501 17.4762C92.7501 17.566 92.7201 17.6559 92.6501 17.7658C92.4401 18.0654 92.0102 18.2851 91.3702 18.4349C91.0503 18.4948 90.6903 18.5347 90.2803 18.5347C89.4004 18.5347 88.8805 18.4548 88.7105 18.2751C88.5405 18.1053 88.4505 17.8856 88.4505 17.606C88.4505 17.1566 88.8205 16.8171 89.5704 16.5874H89.5804ZM98.2195 10.0962C98.3295 9.86655 98.4895 9.45711 98.6994 8.8779L99.0194 8.17885C99.2294 7.59964 99.3994 7.25011 99.5294 7.12029C99.7893 6.84067 100.049 6.70086 100.329 6.70086C100.799 6.70086 101.029 6.94054 101.029 7.39991C101.029 7.6995 100.969 8.15888 100.839 8.77803C100.689 9.58693 100.419 10.4957 100.039 11.4943C99.7393 12.2433 99.4194 12.7526 99.0794 13.0322C98.8494 13.2419 98.5894 13.3518 98.3095 13.3518C98.0295 13.3518 97.8195 13.2719 97.6695 13.1121C97.5196 12.9523 97.4496 12.7326 97.4496 12.453C97.4496 12.1135 97.5596 11.724 97.7695 11.3046L98.2195 10.0862V10.0962ZM100.709 14.4803C100.839 14.3504 101.069 14.2905 101.409 14.2905C101.749 14.2905 102.179 14.5701 102.689 15.1194C103.239 15.6986 103.519 16.2179 103.519 16.6872C103.519 16.857 103.489 17.0068 103.419 17.1366C103.309 17.3463 103.119 17.4961 102.839 17.586C102.729 17.626 102.599 17.6459 102.419 17.6459C102.119 17.6459 101.839 17.5161 101.589 17.2665L101.079 16.7272C100.869 16.4975 100.729 16.2978 100.659 16.148C100.549 15.8684 100.499 15.5588 100.499 15.2192C100.499 14.8797 100.559 14.6301 100.689 14.4803H100.709ZM101.669 10.3858C101.669 10.1761 101.789 9.98638 102.019 9.80663C102.249 9.63686 102.599 9.50704 103.049 9.42715C103.769 9.27735 104.779 9.20745 106.059 9.20745C107.339 9.20745 108.108 9.29732 108.428 9.46709C109.108 9.84657 109.528 10.3559 109.678 10.965C109.768 11.2846 109.808 11.724 109.808 12.2733C109.808 12.8225 109.768 13.3418 109.678 13.8711C109.488 15.0395 109.188 16.4675 108.778 18.1552C108.228 20.2224 107.848 21.5007 107.658 21.99C107.339 22.8688 106.979 23.5079 106.589 23.9274C106.199 24.3468 105.729 24.5465 105.199 24.5465C104.709 24.5465 104.099 24.3268 103.379 23.8774C103.169 23.7476 102.899 23.448 102.579 22.9787C102.299 22.5792 102.159 22.2696 102.159 22.0499C102.159 21.8802 102.259 21.7004 102.449 21.5107C102.579 21.3409 102.729 21.251 102.899 21.251C103.049 21.251 103.329 21.4008 103.729 21.7004C104.199 22.0399 104.489 22.2097 104.589 22.2097C104.889 22.2097 105.389 20.8616 106.089 18.1552C106.539 16.4076 106.859 15.0495 107.049 14.0808C107.239 13.1121 107.319 12.433 107.269 12.0536L107.169 11.4144L104.669 11.3146C102.959 11.2547 102.039 11.1148 101.889 10.8951C101.739 10.6655 101.669 10.4857 101.669 10.3858Z" fill="#534741"/>
<path d="M126.356 27.4825C126.106 27.3128 125.857 27.0531 125.607 26.7136C125.267 26.2242 125.097 25.8148 125.097 25.4952C125.097 25.2855 125.157 25.1158 125.287 24.9859C125.417 24.8561 125.627 24.7962 125.927 24.7962C126.246 24.7962 126.446 24.8661 126.536 25.0159C126.616 25.1058 126.706 25.1457 126.796 25.1457C126.946 25.1457 127.066 25.0758 127.146 24.926C127.276 24.7163 127.356 24.5465 127.386 24.4167C127.416 24.2869 127.386 24.187 127.306 24.0971C127.156 23.9274 126.856 23.8375 126.406 23.8375L125.477 23.8974C125.197 23.9174 124.867 23.9374 124.487 23.9573C124.107 23.9773 123.687 23.9873 123.237 23.9873C122.027 23.9873 121.117 23.8375 120.517 23.5379C119.987 23.2783 119.607 22.9787 119.397 22.6092C119.137 22.1398 119.027 21.3908 119.047 20.3722L119.077 18.6446H117.697C116.588 18.6446 115.898 18.4748 115.618 18.1353C115.468 17.9056 115.398 17.6859 115.398 17.4961C115.398 17.2165 115.528 17.0168 115.778 16.887C116.058 16.7572 116.727 16.6074 117.797 16.4376C118.797 16.2678 119.367 16.108 119.497 15.9582C119.517 15.9183 119.567 15.7086 119.637 15.3491C119.707 14.9896 119.757 14.7399 119.777 14.6101L119.937 13.8112C120.067 13.0822 120.187 12.5429 120.307 12.1634C120.427 11.7939 120.567 11.5343 120.737 11.3845C120.997 11.1947 121.277 11.0449 121.587 10.9351C121.897 10.8252 122.207 10.7453 122.527 10.6754C122.847 10.6155 123.067 10.5656 123.197 10.5456C123.497 10.4657 123.717 10.4058 123.867 10.3858C125.317 9.9764 126.476 9.77667 127.356 9.77667C127.566 9.77667 127.886 9.79664 128.316 9.83659C128.976 9.94644 129.586 10.1861 130.136 10.5556C130.686 10.9251 131.076 11.3745 131.286 11.8838C131.436 12.2633 131.546 12.8425 131.606 13.6114L131.736 15.0495L133.176 15.0195C134.026 14.9995 134.736 15.1094 135.286 15.3391C135.695 15.5089 135.915 15.8783 135.955 16.4576C135.955 16.837 135.765 17.0967 135.395 17.2065C135.016 17.3264 134.336 17.4462 133.336 17.576L131.256 17.8656L131.066 18.9841C130.936 19.8629 130.886 20.4122 130.906 20.6419C130.946 20.8715 131.166 21.0813 131.546 21.251C131.756 21.3409 131.926 21.4807 132.056 21.6804C132.186 21.8802 132.246 22.0999 132.246 22.3395C132.246 22.5293 132.206 22.699 132.116 22.8488C132.096 22.8888 132.046 22.9687 131.976 23.0885C131.906 23.2084 131.816 23.2982 131.706 23.3581C131.596 23.4181 131.486 23.458 131.356 23.458C130.946 23.458 130.676 23.5179 130.536 23.6478C130.396 23.7776 130.286 23.9573 130.196 24.207C130.106 24.4567 130.036 24.6464 129.976 24.7962C129.636 25.7349 129.306 26.384 128.986 26.7435C128.406 27.3827 127.826 27.7022 127.226 27.7022C126.886 27.7022 126.596 27.6123 126.346 27.4426L126.356 27.4825ZM115.618 11.025C115.618 10.5556 115.908 9.79664 116.478 8.75806C117.777 6.41126 118.817 4.00454 119.587 1.5379C119.697 1.17839 119.787 0.878802 119.877 0.639129C119.967 0.399455 120.047 0.259646 120.137 0.189741C120.307 0.0599183 120.477 0 120.647 0C120.877 0 121.107 0.129823 121.317 0.379483C121.507 0.589197 121.607 0.918747 121.607 1.36813C121.607 1.74762 121.517 2.31684 121.347 3.06582C121.327 3.12574 121.317 3.23559 121.317 3.38538C121.317 3.5951 121.367 3.80481 121.457 4.00454C121.547 4.20427 121.587 4.31412 121.567 4.34408L123.807 3.73491C124.637 3.52519 125.617 3.41534 126.756 3.41534L127.746 3.4453C129.796 3.55515 131.066 3.69496 131.556 3.86473C132.136 4.05447 132.426 4.31412 132.426 4.63368C132.426 4.82342 132.306 5.03314 132.056 5.24285C131.816 5.45257 131.556 5.58239 131.306 5.62233C131.156 5.64231 130.586 5.65229 129.576 5.65229H127.176C125.557 5.65229 124.337 5.71221 123.527 5.84203C121.567 6.1616 120.377 6.55107 119.977 7.02043C119.807 7.23014 119.537 7.66954 119.177 8.32864L118.797 8.96777C118.097 10.2061 117.527 11.005 117.097 11.3645C116.887 11.5542 116.658 11.6541 116.428 11.6541C116.278 11.6541 116.098 11.6042 115.888 11.4943C115.718 11.4344 115.628 11.2746 115.628 11.015L115.618 11.025ZM123.017 21.6005C123.187 21.5806 123.617 21.5406 124.307 21.4707C124.997 21.4008 125.767 21.3908 126.596 21.4108H126.886C127.786 21.4108 128.286 21.3609 128.386 21.251C128.556 21.0813 128.696 20.8016 128.806 20.4222C128.916 19.8929 128.966 19.3836 128.966 18.8843V18.305L126.916 18.2751C126.186 18.2751 125.227 18.305 124.037 18.355C122.837 18.4049 122.167 18.4548 122.017 18.4948C121.827 18.5547 121.687 18.6745 121.597 18.8443C121.557 18.9342 121.537 19.3037 121.537 19.9628V21.5606C121.797 21.5806 122.287 21.5906 123.007 21.5906L123.017 21.6005ZM123.457 15.9483C124.117 15.8883 124.767 15.8384 125.407 15.8184C126.006 15.7585 126.646 15.7086 127.326 15.6886C128.006 15.6686 128.336 15.6586 128.316 15.6586C128.696 15.6586 128.996 15.5089 129.216 15.2093C129.406 14.9496 129.506 14.5502 129.506 13.9909C129.506 13.1621 129.356 12.6428 129.056 12.4231C128.776 12.2333 128.346 12.1335 127.746 12.1335C127.276 12.1335 126.716 12.1634 126.086 12.2333C125.937 12.2533 125.637 12.2932 125.187 12.3432C124.737 12.3931 124.287 12.463 123.847 12.5529C123.337 12.6627 122.957 12.7526 122.707 12.8425C122.457 12.9324 122.307 13.0522 122.247 13.222C122.137 13.5415 122.037 14.0209 121.927 14.66C121.887 14.9995 121.867 15.2592 121.867 15.429C121.867 15.6187 121.867 15.7385 121.897 15.7785C121.957 15.9283 122.487 15.9782 123.467 15.9383L123.457 15.9483ZM124.387 18.7944C125.027 18.7944 125.417 18.9841 125.537 19.3736C125.687 19.783 125.757 20.0527 125.757 20.2025C125.757 20.3722 125.697 20.502 125.567 20.6019C125.437 20.7018 125.237 20.7717 124.957 20.8116L124.697 20.8416C124.337 20.8416 124.067 20.7118 123.877 20.4621C123.687 20.2124 123.597 19.8829 123.577 19.5034C123.577 19.074 123.847 18.8443 124.377 18.8044L124.387 18.7944ZM124.197 13.961C124.197 13.6214 124.367 13.3418 124.707 13.1321C124.967 13.0222 125.157 12.9723 125.287 12.9723C125.457 12.9723 125.607 13.0322 125.737 13.1621C126.016 13.4816 126.196 13.8311 126.276 14.2206C126.296 14.3305 126.306 14.4803 126.306 14.67C126.306 14.9296 126.246 15.1094 126.116 15.2093C125.986 15.3191 125.767 15.369 125.447 15.369C125.017 15.369 124.717 15.2093 124.547 14.8897C124.317 14.5302 124.197 14.2206 124.197 13.961Z" fill="#534741"/>
<path d="M144.265 15.9782C144.005 15.8084 143.885 15.6187 143.885 15.399C143.885 15.0595 144.045 14.7798 144.365 14.5701C144.665 14.3604 145.594 14.2206 147.144 14.1507C148.554 14.0908 151.114 14.0508 154.823 14.0508C157.173 14.0508 158.723 14.0708 159.493 14.1108C160.093 14.1507 160.463 14.2506 160.613 14.4004C160.873 14.66 160.993 14.9197 160.993 15.1993C160.993 15.5788 160.823 15.8784 160.483 16.0981C160.313 16.2079 159.703 16.2878 158.663 16.3577C157.623 16.4276 156.213 16.4576 154.443 16.4576C148.234 16.4576 144.844 16.2978 144.265 15.9782Z" fill="#534741"/>
<path d="M170.112 22.8788C170.112 22.5992 170.452 22.0899 171.142 21.3409C172.212 20.1725 173.211 18.6246 174.151 16.7072C174.601 15.7086 174.821 15.0894 174.821 14.8498C174.821 14.66 174.471 14.5502 173.761 14.5302C173.121 14.5302 172.581 14.4503 172.132 14.2705C171.752 14.1008 171.552 13.8511 171.552 13.5315C171.592 13.172 171.682 12.9324 171.812 12.8325C171.942 12.7227 172.611 12.5729 173.831 12.3831C175.001 12.1934 175.631 12.0436 175.721 11.9337C175.781 11.8239 175.911 11.2147 176.101 10.0763C176.331 8.96777 176.501 8.37858 176.611 8.31866C176.721 8.23877 176.931 8.18883 177.251 8.18883C177.461 8.18883 177.631 8.24875 177.761 8.37858C177.891 8.5084 177.981 8.71811 178.051 9.0177C178.091 9.27735 178.131 9.71675 178.181 10.3559L178.281 11.764L180.421 11.8239C181.89 11.8638 182.73 11.9737 182.95 12.1434C183.16 12.3532 183.27 12.6228 183.27 12.9424C183.27 13.4117 183.11 13.7413 182.79 13.931C182.51 14.1008 181.621 14.2106 180.101 14.2506C178.541 14.3105 177.741 14.4004 177.701 14.5102C177.641 14.6201 177.441 15.1394 177.121 16.0781C176.311 18.355 175.311 20.2624 174.111 21.8003C173.491 22.6291 172.821 23.2183 172.092 23.5579C171.792 23.7077 171.492 23.7776 171.192 23.7776C170.912 23.7776 170.672 23.7077 170.462 23.5579C170.222 23.3282 170.112 23.0885 170.112 22.8588V22.8788ZM171.262 6.2315C171.862 6.08171 172.971 5.92193 174.591 5.75216L175.391 5.65229C177.031 5.46255 177.961 5.36269 178.171 5.36269C178.751 5.34272 179.501 5.33273 180.441 5.33273C181.701 5.33273 182.48 5.39265 182.78 5.52247C183.23 5.71221 183.45 6.05175 183.45 6.54108C183.45 6.95052 183.27 7.24013 182.91 7.43986C182.61 7.64957 181.111 7.76941 178.401 7.78938L173.411 7.8493C172.831 7.8493 172.451 7.83931 172.262 7.81934C171.322 7.75942 170.772 7.6296 170.602 7.43986C170.372 7.14026 170.322 6.91058 170.472 6.74081C170.582 6.51112 170.842 6.34135 171.272 6.2315H171.262ZM179.141 18.4349C179.141 18.1353 179.251 17.8856 179.461 17.6659C179.631 17.4961 179.811 17.4063 180.001 17.4063C180.471 17.4063 181.041 17.9256 181.701 18.9741C182.43 20.1725 183.33 21.1512 184.42 21.9101C185.81 22.8488 186.5 23.5679 186.5 24.0872C186.46 24.4467 186.32 24.7063 186.08 24.8561C185.91 24.966 185.71 25.0159 185.47 25.0159C184.93 25.0159 184.16 24.7063 183.13 24.0872C182.36 23.6378 181.75 23.1884 181.311 22.749C180.881 22.2796 180.421 21.6205 179.931 20.7717C179.481 19.9029 179.231 19.2138 179.161 18.7245L179.131 18.4349H179.141Z" fill="#534741"/>
<path d="M31.9166 55.8239C31.9166 55.4843 32.2166 54.995 32.8165 54.3559C33.7364 53.4771 34.1164 52.9378 33.9664 52.7281C33.9264 52.6682 33.6964 52.6282 33.2765 52.6183C32.8565 52.6083 32.3466 52.5983 31.7266 52.5983H30.8967C30.1468 52.5983 29.5869 52.5783 29.1969 52.5384C28.837 52.5184 28.617 52.3786 28.557 52.1189C28.537 52.059 28.527 51.9691 28.527 51.8593C28.527 51.4798 28.787 51.1802 29.2969 50.9605C30.2168 50.601 31.4467 50.4213 33.0065 50.4213C33.5564 50.4213 33.8864 50.3913 33.9664 50.3214C34.0764 50.2615 34.1064 49.6922 34.0664 48.6237L33.9664 47.0858L32.3666 46.926C31.5967 46.8661 31.0567 46.7662 30.7367 46.6364C30.4568 46.5565 30.3168 46.3668 30.3168 46.0971C30.3168 45.6078 31.0167 45.2883 32.4266 45.1385C33.3865 45.0286 33.8964 44.9687 33.9664 44.9487C34.0064 44.9287 34.0564 44.729 34.1064 44.3595C34.1564 43.99 34.2064 43.5107 34.2464 42.9414C34.3764 41.6832 34.5363 40.9342 34.7263 40.7045C34.9163 40.5148 35.1063 40.4149 35.3063 40.4149C35.5062 40.4149 35.6662 40.4748 35.8162 40.6046C35.9662 40.7544 36.1062 41.4934 36.2362 42.8116L36.4261 44.759L37.606 44.8588C38.4159 44.9188 38.8659 44.9887 38.9459 45.0486L39.0059 45.0785C39.1358 45.0785 39.3358 44.8588 39.6158 44.4095C39.9758 43.7903 40.3257 43.4807 40.6757 43.4807C40.7857 43.4807 40.9057 43.5306 41.0556 43.6405C41.2056 43.7903 41.2756 44.01 41.2756 44.3096C41.2756 45.1385 40.7757 46.4966 39.7758 48.3641C39.3058 49.3427 39.0659 49.892 39.0659 49.9918C39.0659 50.0817 39.3958 50.1217 40.0557 50.1217C41.0956 50.1217 41.7456 50.3314 41.9755 50.7608C42.0655 50.9106 42.1055 51.0704 42.1055 51.2401C42.1055 51.3899 42.0855 51.5098 42.0455 51.5897C41.9155 51.8893 41.6856 52.099 41.3456 52.2288C40.8557 52.3586 40.0957 52.4485 39.0759 52.5184L37.316 52.6183L36.0362 54.1562C34.6963 55.774 33.6264 56.5828 32.8365 56.5828C32.6065 56.5828 32.3766 56.503 32.1666 56.3232C31.9966 56.1934 31.9066 56.0236 31.9066 55.8139L31.9166 55.8239ZM32.7165 58.3804C32.7965 58.0808 33.4065 57.7213 34.5363 57.2919C35.7962 56.8225 36.8561 56.5329 37.736 56.4331C38.2259 56.3731 38.6659 56.3332 39.0459 56.3332C39.8758 56.3332 40.5457 56.473 41.0656 56.7526C41.3656 56.9224 41.5856 57.1421 41.7256 57.4117C41.8656 57.6814 41.9655 58.0009 42.0255 58.3904C42.0855 58.8398 42.1255 59.429 42.1255 60.148C42.1255 62.5547 41.8656 64.1126 41.3556 64.8116C40.9756 65.3209 40.2957 65.6705 39.3358 65.8702C38.9359 65.9501 38.4759 66 37.956 66C37.436 66 36.8961 65.9401 36.3261 65.8103C35.5362 65.6006 34.8663 65.4707 34.3064 65.4308C33.8364 65.4108 33.4965 65.3509 33.2865 65.241C32.8365 65.0313 32.6165 63.6432 32.6165 61.0867C32.6165 59.4889 32.6465 58.5901 32.7165 58.4004V58.3804ZM34.6363 60.9369C34.6763 61.3663 34.7663 61.8856 34.8963 62.5048C35.0063 63.0141 35.0663 63.2837 35.0863 63.3037C35.1763 63.3836 35.3962 63.4535 35.7762 63.5134C36.1462 63.5633 36.6061 63.6133 37.1361 63.6532C37.396 63.6732 37.736 63.6832 38.156 63.6832C38.7559 63.6832 39.1258 63.6432 39.2758 63.5533C39.4458 63.4934 39.5358 62.6945 39.5358 61.1566V58.8597L38.2859 58.8298C37.306 58.7898 36.4461 58.8697 35.7262 59.0894C34.8763 59.3291 34.4563 59.5488 34.4763 59.7585L34.6363 60.9369ZM35.4062 61.3863C35.4062 61.0667 35.6562 60.7871 36.1462 60.5574C36.5761 60.3677 36.9761 60.2678 37.366 60.2678C37.686 60.2678 38.006 60.3277 38.3259 60.4576C38.6459 60.5874 38.8659 60.7671 38.9959 60.9968C39.0759 61.1466 39.1258 61.2964 39.1258 61.4462C39.1258 61.576 39.0859 61.6859 38.9959 61.7658C38.7859 62.0254 38.4459 62.2052 37.976 62.305C37.656 62.3949 37.346 62.4349 37.0461 62.4349C36.8561 62.4349 36.7161 62.4249 36.6261 62.4049C36.2662 62.345 36.0162 62.2651 35.8762 62.1852C35.7362 62.1053 35.6162 61.9655 35.5062 61.7658C35.4462 61.636 35.4062 61.5061 35.4062 61.3863ZM36.3661 48.8334C36.3661 49.2828 36.3961 49.5025 36.4661 49.5025C36.5761 49.5025 36.8561 49.123 37.326 48.3541C37.796 47.5651 38.026 47.1058 38.026 46.9759C38.026 46.916 37.966 46.8761 37.836 46.8761L37.356 46.906C37.1661 46.906 36.9861 46.936 36.8161 47.0059C36.6061 47.0658 36.4861 47.1557 36.4661 47.2656C36.4461 47.3954 36.4161 47.7449 36.3661 48.3241V48.8334ZM44.7552 61.8057C44.7552 61.1466 44.7952 60.3477 44.8852 59.409C44.9952 58.0209 45.0652 55.9937 45.1052 53.3073C45.1052 52.7081 45.1152 52.2787 45.1352 51.9991C45.1552 50.0018 45.1952 48.5538 45.2652 47.685C45.3252 46.8162 45.4652 46.2569 45.6851 46.0272C46.0451 45.6677 46.4951 45.3881 47.025 45.1984C47.6249 44.9887 48.1649 44.8788 48.6548 44.8788C48.8048 44.8788 49.0248 44.8988 49.3248 44.9387C50.1747 45.0685 50.8146 45.3482 51.2445 45.7676C51.8445 46.2969 52.1444 47.1257 52.1444 48.2242C52.1444 48.8035 52.0245 49.3827 51.7945 49.9819L51.3745 50.9705L51.8845 51.6695C52.4844 52.4784 52.7844 53.4172 52.7844 54.4857C52.7844 55.6341 52.4744 56.5229 51.8545 57.1421C51.6845 57.3119 51.5045 57.4517 51.3145 57.5615C51.2245 57.6015 51.1146 57.6714 50.9746 57.7513C50.8346 57.8411 50.7146 57.8911 50.6046 57.911C50.4946 57.931 50.3946 57.951 50.2846 57.971C50.1747 57.9909 50.0747 58.0009 49.9647 58.0009C49.6247 58.0009 49.3247 57.8711 49.0648 57.6214C48.7448 57.3218 48.5548 57.0222 48.4848 56.7227L48.4548 56.5329C48.4548 56.3632 48.5348 56.1934 48.7148 56.0236C48.9048 55.8139 49.1348 55.734 49.3847 55.8039H49.5147C49.7247 55.8039 49.8947 55.6741 50.0247 55.4244C50.1947 55.0849 50.2846 54.7553 50.2846 54.4358C50.2846 54.306 50.2646 54.1362 50.2247 53.9265C50.1347 53.3972 49.8747 52.9278 49.4247 52.5184C48.9948 52.1389 48.7848 51.7994 48.7848 51.4998C48.7848 51.2002 48.9648 50.6609 49.3248 49.872C49.7047 49.0631 49.9047 48.434 49.9047 47.9846C49.9047 47.645 49.8147 47.3854 49.6447 47.2156C49.3647 46.916 48.9148 46.7662 48.3049 46.7662C47.9649 46.7662 47.6949 46.7962 47.5049 46.8661C47.295 46.926 47.175 47.1058 47.155 47.3754C47.135 47.7149 47.165 48.6537 47.255 50.1916L47.315 51.2801C47.315 51.8992 47.335 52.778 47.375 53.9365L47.405 56.493C47.405 56.9424 47.385 57.6314 47.345 58.5701C47.235 60.9968 47.035 62.4149 46.735 62.8243C46.3751 63.3336 45.9751 63.5234 45.5552 63.4036C45.1752 63.2737 44.9152 62.9442 44.7852 62.4149C44.7652 62.335 44.7552 62.1353 44.7552 61.8357V61.8057Z" fill="#534741"/>
<path d="M64.3931 62.315L62.7333 61.4862L62.3533 62.0254C62.0734 62.4748 61.6034 62.9841 60.9435 63.5633C60.4935 64.0127 60.1636 64.2324 59.9536 64.2324C59.8036 64.2324 59.6536 64.1925 59.5037 64.1026C59.3737 64.0227 59.2537 63.8829 59.1537 63.6832C59.0637 63.5134 59.0037 63.3536 58.9637 63.2038C58.9637 63.1439 59.0237 63.0041 59.1537 62.7844C59.2837 62.5747 59.3737 62.4049 59.4437 62.2751C59.5736 62.0454 59.9136 61.4762 60.4735 60.5774C60.7035 60.1779 60.9435 59.8085 61.1735 59.4889L61.6234 58.7898C61.9434 58.2805 62.2234 57.8811 62.4533 57.6114C62.6833 57.3518 62.9133 57.232 63.1233 57.232C63.3332 57.232 63.5632 57.3518 63.7932 57.5815C63.9032 57.7313 63.9532 57.931 63.9532 58.1907C63.9532 58.4902 63.8932 58.9197 63.7632 59.4689C63.7632 59.6786 63.8332 59.8284 63.9832 59.9183C64.2131 60.0681 64.7331 60.2678 65.523 60.5275C66.6729 60.9569 67.2728 61.1466 67.3128 61.1067C67.3528 61.0667 67.3728 60.5175 67.3728 59.4789V58.1008L67.4028 55.1648H66.6029L63.7532 55.2247C63.3032 55.2047 62.9233 55.1947 62.6033 55.2047C62.2834 55.2147 62.0734 55.2247 61.9634 55.2247C61.7734 55.2247 61.5934 55.1248 61.4235 54.9351C61.2535 54.7454 61.1635 54.5257 61.1635 54.296C61.1635 53.9365 61.3235 53.6968 61.6434 53.5969C61.8734 53.517 62.4933 53.3872 63.5032 53.2174C65.533 52.8579 67.4128 52.6282 69.1626 52.5483C69.6326 52.5284 70.2525 52.5184 71.0224 52.5184C72.3423 52.5184 73.2022 52.5983 73.5821 52.7381C73.8121 52.818 74.0121 53.0077 74.1621 53.2774C74.2021 53.4871 74.2221 53.6269 74.2221 53.6968C74.2221 53.8466 74.1921 53.9864 74.1221 54.1162C73.8421 54.6255 72.9522 54.9151 71.4324 54.975L69.9325 55.005L69.8325 55.9038C69.7725 56.453 69.7625 56.8025 69.8025 56.9224C69.8625 57.0922 70.0925 57.182 70.4725 57.182C70.7325 57.182 71.2324 57.1121 71.9723 56.9623C72.3523 56.9024 72.6622 56.8625 72.9022 56.8625C73.0522 56.8625 73.1622 56.8725 73.2222 56.8924C73.4522 56.9523 73.6021 57.1321 73.6721 57.4017C73.7821 57.911 73.5721 58.3305 73.0622 58.65C72.5922 58.9496 71.8923 59.1194 70.9524 59.1593C70.3125 59.1993 69.9525 59.2792 69.8625 59.379C69.7326 59.5488 69.6226 60.0282 69.5426 60.8171L69.4826 61.7159L70.5725 61.9356C71.4224 62.1253 72.8022 62.2252 74.702 62.2252H75.4719C76.3418 62.2451 76.9518 62.2751 77.2917 62.325C77.6317 62.375 77.8717 62.4748 77.9917 62.6446C78.1217 62.7944 78.1816 62.9442 78.1816 63.094C78.1816 64.1126 76.5918 64.6319 73.4122 64.6319C70.2325 64.6319 67.3728 63.8629 64.3931 62.335V62.315ZM62.2834 43.3309C62.2834 42.6019 62.3334 42.1725 62.4433 42.0227C62.5933 41.7431 62.7933 41.6033 63.0533 41.6033C63.1833 41.6033 63.3732 41.6532 63.6332 41.7631C63.8032 41.8529 64.0032 41.8929 64.2431 41.8929C64.4131 41.8929 64.8831 41.793 65.653 41.6033C66.6329 41.3436 67.5628 41.1838 68.4327 41.1239C69.2426 41.044 69.8225 40.9941 70.1625 40.9941C70.8224 40.9941 71.4424 41.054 72.0223 41.1838C72.6022 41.2937 73.0622 41.4035 73.4022 41.5334C73.7421 41.6632 73.9821 41.823 74.1021 42.0127C74.3121 42.3922 74.4221 42.9015 74.4221 43.5107C74.4221 44.04 74.3321 44.769 74.1621 45.6877C73.8421 47.5651 73.4022 48.7535 72.8522 49.2628C72.1923 49.8121 70.8124 50.1616 68.7227 50.2814C67.9927 50.3414 67.2528 50.3813 66.4829 50.3813L65.1431 50.3513C64.1632 50.3314 63.5332 50.2215 63.2533 50.0318C63.0633 49.882 62.8933 49.4326 62.7433 48.6936C62.5933 47.9446 62.4733 46.946 62.3933 45.6877C62.3334 44.6891 62.2934 43.9001 62.2934 43.3209L62.2834 43.3309ZM64.4931 44.3196C64.4931 44.6791 64.5231 45.2483 64.5931 46.0173C64.7231 47.4054 64.8531 48.1444 64.9731 48.2542C65.0131 48.2942 65.183 48.3141 65.483 48.3141C65.973 48.3141 66.5929 48.2742 67.3428 48.1843C68.7127 48.0345 69.7326 47.9646 70.4125 47.9646C71.0324 47.9646 71.3524 47.9047 71.3724 47.7749C71.5024 46.9859 71.6123 46.2769 71.6923 45.6378C71.7723 45.0386 71.8223 44.5293 71.8223 44.0999C71.8223 43.7204 71.7823 43.5107 71.6923 43.4907C71.4824 43.3809 70.9324 43.3309 70.0625 43.3309C69.7825 43.3309 69.1126 43.3509 68.0427 43.3908C65.863 43.5207 64.6931 43.6804 64.5231 43.8702C64.5031 43.9101 64.4931 44.0599 64.4931 44.3196ZM66.5429 45.0885C67.1828 44.9387 68.1227 44.8688 69.3626 44.8688C70.3825 44.8688 70.9024 45.0885 70.9024 45.5379C70.9024 45.7276 70.7624 45.9274 70.4825 46.1471C70.2725 46.3568 69.9825 46.5166 69.6226 46.6264C69.1726 46.7762 68.5427 46.8661 67.7328 46.8861C66.9628 46.8861 66.4429 46.8361 66.1629 46.7263C65.753 46.5565 65.553 46.3368 65.553 46.0572C65.553 45.5279 65.883 45.2084 66.5429 45.0985V45.0885Z" fill="#534741"/>
<path d="M83.781 51.0204C84.021 50.8407 84.361 50.7308 84.8109 50.6809C85.3409 50.621 85.6408 50.5411 85.7108 50.4612C85.7508 50.3813 85.8408 50.0717 85.9708 49.5325L86.1608 48.8634C86.6907 46.8162 87.1607 45.6478 87.5706 45.3482C87.7806 45.1984 88.0106 45.1285 88.2406 45.1285C88.6005 45.1285 88.7805 45.3282 88.7805 45.7376C88.7805 45.9274 88.7305 46.2769 88.6405 46.7762C88.5405 47.2755 88.4705 47.6351 88.4305 47.8448C88.3006 48.4839 88.2006 49.0132 88.1306 49.4426C88.0506 49.872 88.0306 50.1017 88.0506 50.1416C88.1306 50.2515 88.6405 50.3014 89.5504 50.3014C90.0004 50.3014 90.3003 50.2914 90.4503 50.2715C90.5403 50.2515 90.7303 50.2115 91.0303 50.1416C91.1202 50.1217 91.2202 50.0418 91.3502 49.9219C91.4102 49.862 91.4502 49.7522 91.4502 49.6024C91.4502 49.5225 91.5602 49.2429 91.7702 48.7735C92.0002 48.2642 92.3001 48.0045 92.6701 48.0045C92.8401 48.0045 93 48.0645 93.15 48.1943C93.36 48.3441 93.49 48.7136 93.53 49.3128L93.56 50.2415L94.1999 50.2715C94.9898 50.2914 95.5398 50.4612 95.8597 50.7808C96.0497 50.9705 96.1497 51.1702 96.1497 51.3899C96.1497 51.5797 96.0497 51.8094 95.8597 52.059C95.6898 52.2987 95.1598 52.4385 94.2599 52.5084C93.47 52.5683 93 52.6782 92.8501 52.828C92.7901 52.8879 92.6901 53.0577 92.5601 53.3273C92.4301 53.5969 92.2801 53.9365 92.1101 54.3659C91.8302 55.0649 91.6802 55.4644 91.6602 55.5443V55.6042C91.6602 55.714 91.7102 55.7939 91.8202 55.8638C92.7601 56.3132 93.36 56.8325 93.61 57.4317C93.67 57.5615 93.71 57.7013 93.71 57.8511C93.71 58.0209 93.67 58.1607 93.58 58.2705C93.45 58.4803 93.22 58.5901 92.8801 58.5901C92.5401 58.5901 92.0702 58.4703 91.4702 58.2406C90.8303 57.9809 90.4703 57.8611 90.3803 57.8611C90.2703 57.8611 90.0304 58.1607 89.6404 58.7599C89.1105 59.5488 88.5305 60.2279 87.9106 60.8071C87.2707 61.4063 86.9207 61.7258 86.8507 61.7658C86.6607 61.8956 86.4308 61.9555 86.1808 61.9555C85.8208 61.9555 85.5508 61.8357 85.3809 61.606C85.2309 61.3464 85.1609 61.1666 85.1609 61.0667C85.1609 60.9868 85.2309 60.837 85.3809 60.6373C85.5309 60.4376 85.6308 60.3078 85.6708 60.2678C86.0108 59.8883 86.3208 59.4889 86.6007 59.0894L87.5606 57.6814C87.8406 57.2519 87.9806 57.0023 87.9806 56.9124C87.9806 56.7826 87.7206 56.5529 87.2107 56.2134C86.2508 55.5942 85.6508 54.7454 85.4209 53.6568C85.3309 53.1875 85.2609 52.9079 85.2009 52.828C85.1209 52.6981 84.9209 52.6282 84.6209 52.6083C83.831 52.5284 83.4411 52.2388 83.4411 51.7494C83.4411 51.4698 83.5611 51.2401 83.791 51.0604L83.781 51.0204ZM87.5306 53.1775C87.5306 53.4971 87.8306 53.8466 88.4305 54.2361C88.9405 54.5556 89.2305 54.7154 89.2905 54.7154C89.3504 54.7154 89.5504 54.3858 89.8704 53.7267C90.1903 53.1076 90.2803 52.7481 90.1304 52.6382C90.0204 52.5583 89.7504 52.5084 89.3004 52.5084C88.3605 52.5084 87.8306 52.5883 87.7006 52.7281C87.5906 52.8979 87.5406 53.0477 87.5406 53.1775H87.5306ZM101.099 62.7345C100.759 62.5247 100.509 62.2651 100.359 61.9655C100.099 61.4762 99.9793 61.0567 99.9793 60.7172C99.9793 60.3777 100.109 60.128 100.359 59.9782C100.469 59.8983 100.589 59.8484 100.739 59.8484C100.969 59.8484 101.239 59.9982 101.539 60.2978C101.819 60.5774 102.009 60.6473 102.119 60.5175C102.479 60.0281 102.659 59.0794 102.659 57.6714V56.3332L101.729 56.3631C101.559 56.3631 101.239 56.3631 100.769 56.3831C100.299 56.3931 99.8193 56.4331 99.3294 56.493C98.8194 56.5529 98.3595 56.5729 97.9495 56.5229C97.5496 56.483 97.2896 56.4131 97.1796 56.3332C97.0496 56.2233 96.9596 56.0536 96.8896 55.8239C96.8696 55.7839 96.8596 55.714 96.8596 55.6341C96.8596 55.5243 96.9196 55.3645 97.0496 55.1548C97.1296 55.025 97.7295 54.8153 98.8394 54.5157C99.9693 54.2161 100.709 54.0663 101.049 54.0663C101.219 54.0663 101.489 54.0163 101.849 53.9065C102.019 53.8666 102.129 53.7967 102.169 53.7168V53.6169C102.169 53.507 102.129 53.3373 102.039 53.1076C101.849 52.6382 101.789 52.2987 101.879 52.089C101.989 51.8293 102.489 51.2102 103.379 50.2016C104.019 49.5025 104.459 48.9632 104.709 48.5838C104.949 48.2143 105.009 47.9646 104.889 47.8348C104.779 47.7249 104.369 47.675 103.639 47.675C102.829 47.675 102.159 47.7249 101.619 47.8348C100.699 48.0045 100.069 48.0944 99.7293 48.0944C99.1094 48.0944 98.7994 47.8647 98.7994 47.3954C98.7994 47.0359 99.1694 46.6564 99.9193 46.2769C100.599 45.9174 101.479 45.6378 102.539 45.448C103.089 45.3681 103.509 45.3182 103.789 45.3182C104.259 45.3182 104.719 45.3781 105.169 45.5079C106.209 45.8075 106.909 46.2769 107.249 46.916C107.398 47.1956 107.468 47.5152 107.468 47.8747C107.468 48.1943 107.418 48.4939 107.309 48.7735C107.049 49.4725 106.479 50.3414 105.579 51.36L104.459 52.6382L104.679 53.2174L104.899 53.7567H107.269C108.828 53.7567 109.778 53.8466 110.118 54.0163C110.498 54.2061 110.698 54.5057 110.698 54.9151C110.698 55.2946 110.488 55.6042 110.058 55.8439C109.778 56.0136 108.938 56.1135 107.528 56.1335L105.319 56.1934L105.219 58.0109C105.029 61.3563 103.999 63.0241 102.149 63.0241C101.719 63.0241 101.359 62.9242 101.059 62.7345H101.099Z" fill="#534741"/>
<path d="M119.207 63.084C119.077 63.084 118.887 63.064 118.627 63.0241C118.177 62.7644 117.887 62.355 117.767 61.7758C117.637 60.9669 117.577 59.5288 117.577 57.4616C117.537 55.4144 117.517 52.8779 117.517 49.852V48.1943C117.577 47.4453 117.717 46.8561 117.937 46.4067C118.107 46.0872 118.437 45.8675 118.927 45.7376C119.077 45.6977 119.277 45.6378 119.517 45.5579C119.757 45.488 120.097 45.3681 120.527 45.2183C121.297 44.9387 121.897 44.7789 122.317 44.739C123.027 44.6092 123.897 44.5493 124.937 44.5493C125.976 44.5493 127.126 44.6291 128.426 44.769C129.346 44.8988 129.956 45.0286 130.246 45.1484C130.626 45.3182 130.926 45.498 131.136 45.6877C131.366 45.9673 131.516 46.966 131.586 48.6936L131.616 50.7708C131.616 52.3686 131.586 54.0064 131.536 55.6941C131.486 57.3818 131.416 58.5102 131.326 59.0794C131.136 60.6573 130.786 61.6859 130.296 62.1752C129.956 62.5547 129.456 62.7844 128.796 62.8443C128.396 62.9042 127.656 62.9442 126.586 62.9442L121.507 62.8843C120.657 62.8843 120.097 62.9142 119.847 62.9841C119.637 63.044 119.417 63.084 119.207 63.084ZM119.947 48.1543C119.947 48.6237 119.947 49.0331 119.977 49.3727L120.037 51.4798C120.187 57.2519 120.337 60.2179 120.487 60.3677C120.597 60.4276 120.847 60.4676 121.257 60.4676L122.757 60.4076C123.907 60.3277 124.837 60.2778 125.537 60.2778C126.007 60.2778 126.476 60.2978 126.946 60.3377C127.586 60.3976 128.006 60.4176 128.196 60.3677C128.346 60.3477 128.466 60.2379 128.546 60.0481C128.676 59.6487 128.766 56.7526 128.836 51.3899C128.876 50.2415 128.916 49.4526 128.966 49.0232L128.996 47.9646C128.996 47.7948 128.946 47.655 128.836 47.5352C128.726 47.4153 128.586 47.3355 128.416 47.2955C127.966 47.1857 126.946 47.1257 125.347 47.1058C123.297 47.1058 121.967 47.1657 121.347 47.2955C120.557 47.4253 120.107 47.5352 120.007 47.6151C119.967 47.655 119.947 47.8348 119.947 48.1543ZM121.507 53.4971C121.737 53.3073 121.997 53.1775 122.277 53.1176C122.657 53.0077 123.357 52.9278 124.357 52.8579C124.697 52.838 125.107 52.828 125.577 52.828C125.936 52.828 126.166 52.8479 126.246 52.8879C126.586 52.9977 126.866 53.1875 127.076 53.4671C127.206 53.6568 127.266 53.8666 127.266 54.0763C127.266 54.1861 127.256 54.266 127.236 54.3359C127.046 55.015 126.296 55.3545 124.997 55.3545C122.607 55.3545 121.357 54.975 121.257 54.2061C121.257 54.0163 121.337 53.7767 121.517 53.507L121.507 53.4971Z" fill="#534741"/>
<path d="M146.504 61.8057C146.354 61.4662 146.284 61.2065 146.284 61.0368C146.284 60.6972 146.444 60.4576 146.764 60.3377C146.844 60.2978 146.934 60.2778 147.024 60.2778C147.254 60.2778 147.564 60.3777 147.954 60.5674C148.384 60.7771 148.614 60.887 148.654 60.887C148.764 60.887 148.904 60.8071 149.074 60.6273C149.674 60.0281 149.954 58.7399 149.904 56.7626L149.844 54.0163H145.744C144.465 54.0163 143.445 53.9864 142.695 53.9165C141.935 53.8566 141.495 53.7867 141.365 53.7267C141.235 53.6169 141.175 53.4371 141.175 53.1875C141.175 52.7581 141.395 52.4385 141.845 52.2288C142.805 51.7794 144.494 51.5597 146.934 51.5597C147.824 51.5597 148.454 51.5098 148.824 51.3999C148.994 51.32 149.094 51.2401 149.114 51.1802V51.0804C149.114 50.9705 149.084 50.8407 149.014 50.7009C148.974 50.5311 148.954 50.3913 148.954 50.2814C148.954 49.5325 149.434 48.5738 150.394 47.4054C151.224 46.3168 151.824 45.5179 152.184 45.0086L152.854 44.02L152.404 43.8302C152.174 43.7204 151.674 43.6705 150.904 43.6705C150.204 43.6705 149.624 43.6904 149.174 43.7304C147.364 43.9001 146.014 44.1099 145.144 44.3695C144.784 44.4794 144.405 44.5692 144.025 44.6591C143.855 44.6591 143.705 44.5892 143.575 44.4394C143.345 44.2097 143.225 43.98 143.225 43.7703C143.225 43.3209 143.815 42.8416 144.984 42.3323C146.644 41.5833 148.644 41.2138 150.964 41.2138C152.454 41.2138 153.594 41.3836 154.383 41.7231C154.763 41.9128 155.043 42.1825 155.213 42.522C155.473 42.9315 155.593 43.301 155.593 43.6405C155.593 44.1099 155.343 44.749 154.843 45.5779C154.343 46.3967 153.564 47.4952 152.524 48.8534L151.624 50.0018L151.884 50.7009L152.174 51.3999H154.033C156.593 51.3999 158.153 51.6096 158.703 52.039C159.023 52.3187 159.183 52.6183 159.183 52.9378C159.183 53.2774 159.033 53.567 158.733 53.7966C158.473 53.9864 158.213 54.0962 157.933 54.1162C157.743 54.1362 157.503 54.1462 157.213 54.1362C156.923 54.1262 156.623 54.1162 156.303 54.1162C156.153 54.0962 155.913 54.0863 155.563 54.0863L152.874 54.0263L152.774 57.192C152.714 59.1693 152.294 60.7871 151.524 62.0154C150.924 62.9741 150.154 63.4535 149.224 63.4535C149.034 63.4535 148.884 63.4435 148.774 63.4235C147.734 63.2538 146.974 62.7245 146.504 61.8257V61.8057Z" fill="#534741"/>
</svg>
