<svg width="259" height="25" viewBox="0 0 259 25" fill="none" xmlns="http://www.w3.org/2000/svg">
<g clip-path="url(#clip0_116_346)">
<path d="M2.3922 21.4932C2.1319 21.1189 2.01176 20.7742 2.01176 20.4885C2.01176 20.3605 2.0518 20.2127 2.14191 20.0453C2.25204 19.8384 2.42223 19.73 2.6525 19.73C3.01292 19.73 3.30326 19.8384 3.5135 20.0453C3.64365 20.1733 3.76379 20.2324 3.86391 20.2324C4.03411 20.2324 4.13422 20.065 4.15425 19.73C4.21432 19.3754 4.25436 18.814 4.25436 18.0555L4.2844 16.0657H3.19313C2.49231 16.0657 2.0518 15.9672 1.8816 15.7801C1.75145 15.6126 1.69138 15.455 1.69138 15.3073C1.69138 14.864 2.21199 14.4602 3.26321 14.076L4.2844 13.7017L4.38451 12.0271C4.46461 10.6382 4.50465 9.74187 4.48463 9.31831L4.42456 8.31358H2.63248C1.73143 8.31358 1.22084 8.30373 1.09068 8.28403C0.88044 8.24463 0.730266 8.13628 0.640161 7.96882C0.550056 7.86047 0.51001 7.75211 0.51001 7.62406C0.51001 6.97394 1.38102 6.57008 3.10302 6.42233C3.80384 6.36322 4.21432 6.27457 4.32444 6.16622C4.4546 6.05787 4.51467 5.40775 4.51467 4.21587C4.51467 3.43769 4.55471 2.83683 4.64482 2.42311C4.70489 2.14731 4.87508 1.96015 5.15541 1.8518C5.34563 1.7927 5.4858 1.7533 5.5759 1.7533C5.70605 1.7533 5.8362 1.82225 5.95634 1.97C6.21664 2.24581 6.38684 2.77772 6.46694 3.5756C6.65716 4.81673 6.78731 5.5161 6.84738 5.68356C6.90745 5.81161 7.22782 5.90026 7.8085 5.96921C8.18894 5.98891 8.46926 6.07757 8.63946 6.22532C8.84971 6.37308 8.95983 6.57008 8.95983 6.82619C8.95983 6.99364 8.94982 7.11185 8.9298 7.19065C8.90978 7.26945 8.84971 7.36795 8.73958 7.48616C8.43923 7.74226 8.09883 7.90972 7.71839 7.98852L6.88742 8.17568L6.85739 10.4412L6.79732 12.7068L8.01874 12.7364C8.42922 12.7364 8.70954 12.7758 8.87974 12.8644C8.98987 12.9038 9.06996 13.022 9.14004 13.2092C9.18009 13.3766 9.20011 13.5047 9.20011 13.5835C9.20011 13.8593 9.1 14.1154 8.89977 14.3518C8.69953 14.5981 8.38917 14.7951 7.98871 14.9625L6.89744 15.4353L6.79732 16.4105C6.75727 16.8538 6.71723 17.7009 6.66717 18.9617C6.66717 20.5969 6.37683 21.7001 5.80617 22.2714C5.46577 22.5866 5.09534 22.7442 4.7149 22.7442C4.52468 22.7442 4.24435 22.695 3.88393 22.5866C3.28323 22.3995 2.79266 22.0153 2.41222 21.4538L2.3922 21.4932ZM11.0122 20.2029C11.0122 19.868 11.2625 19.5823 11.7631 19.336C12.2637 19.0898 12.9845 18.9322 13.9256 18.8435C14.5664 18.7844 14.8867 18.6761 14.8867 18.5283C14.8867 18.3806 14.7366 17.7797 14.4362 16.7356C13.9456 15.0512 13.6953 13.8297 13.6953 13.0516C13.6953 12.4014 13.8455 11.9779 14.1459 11.7907C14.3161 11.6824 14.4963 11.6331 14.6865 11.6331C14.8767 11.6331 15.0469 11.7119 15.1971 11.8498C15.4974 12.2734 16.0381 13.9972 16.829 17.0212C16.9792 17.6713 17.1093 18.0654 17.2094 18.1836C17.2695 18.3313 17.4097 18.4101 17.6299 18.4397H17.8502C18.0003 18.4397 18.1205 18.42 18.2006 18.3806C18.4108 18.1245 18.9515 16.3514 19.8024 13.0516C19.9326 12.5098 20.1428 12.1453 20.4432 11.9779C20.5533 11.9188 20.6434 11.8794 20.7335 11.8794C20.8837 11.8794 21.0539 11.9779 21.2441 12.165C21.6246 12.5393 21.8248 13.1107 21.8248 13.8691C21.8248 14.667 21.5945 15.7407 21.124 17.0803C20.8637 17.8585 20.7636 18.2821 20.8036 18.3412C20.8637 18.4298 21.4243 18.4692 22.4655 18.4692C23.5067 18.4692 24.1775 18.5874 24.4478 18.814C24.6781 19.0405 24.7983 19.3163 24.7983 19.6315C24.7983 19.9468 24.6881 20.2127 24.4779 20.4196C24.2376 20.6067 23.707 20.7348 22.876 20.7939C22.025 20.8825 20.0327 20.9712 16.9191 21.0795L12.7542 21.1386C12.2036 21.1386 11.8732 21.1288 11.7931 21.1091C11.4728 21.05 11.2525 20.8825 11.1223 20.6067C11.0322 20.4393 10.9922 20.3014 10.9922 20.193L11.0122 20.2029ZM12.9345 7.93927C13.2548 7.77182 13.7154 7.64376 14.3161 7.56496C14.8267 7.48616 15.6476 7.40735 16.7789 7.34825C18.591 7.2399 19.9526 7.19065 20.8437 7.19065C22.0851 7.19065 22.876 7.2399 23.2164 7.34825C23.727 7.47631 23.9873 7.79152 23.9873 8.29388C23.9873 8.60909 23.8171 8.89475 23.4767 9.141C23.1764 9.30846 21.2742 9.39711 17.7701 9.39711C14.226 9.35771 12.3738 9.25921 12.2236 9.11145C12.0534 8.944 12.0334 8.77654 12.1636 8.60909C12.3338 8.31358 12.5941 8.09687 12.9345 7.94912V7.93927ZM17.0292 3.68395C17.0292 3.24069 17.1293 2.91563 17.3196 2.70877C17.3996 2.56102 17.6199 2.51177 17.9603 2.55117C18.4709 2.61027 18.9214 3.38844 19.3019 4.88568C19.432 5.32895 19.4921 5.70326 19.4921 6.01847C19.4921 6.48143 19.3419 6.74739 19.0416 6.80649C18.9815 6.82619 18.8814 6.83604 18.7512 6.83604C18.4108 6.83604 18.1105 6.67843 17.8502 6.36323C17.5098 5.93966 17.2595 5.2994 17.1093 4.44242C17.0492 4.14691 17.0092 3.90066 17.0092 3.68395H17.0292Z" fill="#534741"/>
<path d="M43.2998 23.9264C40.1161 23.9264 37.3429 23.5324 34.9701 22.7246C32.6674 21.9465 31.0456 21.2372 30.1045 20.5773C29.3336 20.0749 28.9531 19.4937 28.9531 18.8436C28.9531 18.3019 29.1634 18.0261 29.5939 18.0261C29.8241 18.0261 30.1745 18.1147 30.6151 18.2822C31.1657 18.5087 31.5161 18.5974 31.6362 18.5383C32.1068 18.3511 32.3871 17.8586 32.4672 17.0607C32.4872 16.9524 32.4972 16.8342 32.4972 16.6864C32.4972 16.5387 32.4772 16.4402 32.4372 16.4008C32.3471 16.2727 32.2369 16.1348 32.0968 15.9871C31.9566 15.8393 31.8265 15.6915 31.6963 15.5438C31.0355 14.8247 30.7052 14.3224 30.7052 14.0268C30.7052 13.6919 31.0055 12.8547 31.6062 11.5052C31.7163 11.2786 31.7464 10.993 31.7063 10.6581L31.6763 10.1557L30.8453 10.1852H30.6551C30.2446 10.1852 29.9843 10.0867 29.8542 9.89958C29.7641 9.73213 29.724 9.59422 29.724 9.48587C29.724 9.19036 29.9343 8.91455 30.3648 8.6683C30.7252 8.46144 31.1357 8.35309 31.5862 8.35309C32.1168 8.35309 32.5373 8.42204 32.8376 8.56979C33.158 8.75695 33.3883 9.00321 33.5385 9.29871C33.7687 9.82078 33.8889 10.3527 33.8889 10.8748C33.8889 11.5052 33.7187 12.2242 33.3783 13.0221L33.118 13.623L33.8188 14.283C34.6297 15.0414 35.0402 15.9969 35.0402 17.1494C35.0402 17.8882 34.8099 18.5186 34.3394 19.0406C34.1291 19.277 34.0891 19.4642 34.2393 19.612C34.4095 19.7597 34.7599 19.9272 35.3005 20.1143C36.6921 20.5773 38.344 20.8925 40.2663 21.0599C41.5077 21.1683 42.619 21.2176 43.6002 21.2176C44.1308 21.2176 44.5412 21.2077 44.8116 21.188C46.884 21.1092 49.457 20.9122 52.5305 20.6167C52.8509 20.5773 53.2414 20.5576 53.7119 20.5576C54.0723 20.5576 54.3126 20.5773 54.4127 20.6167C54.7331 20.7053 54.8933 20.9417 54.8933 21.3456C54.8933 22.0154 54.3426 22.5375 53.2314 22.8921C52.1601 23.227 50.0276 23.5225 46.8239 23.7786C45.4823 23.887 44.301 23.9362 43.2998 23.9362V23.9264ZM32.1168 2.20652C32.267 2.20652 32.4772 2.30502 32.7575 2.49217C33.0979 2.76798 33.3783 3.14229 33.5885 3.62496C33.7988 4.06822 33.9089 4.46223 33.9089 4.82669C33.9089 5.54576 33.6986 5.90037 33.2681 5.90037C32.8877 5.90037 32.4472 5.54576 31.9566 4.82669C31.4861 4.15687 31.2558 3.58555 31.2558 3.12259C31.2558 2.80738 31.3759 2.57098 31.6062 2.39367C31.7964 2.26562 31.9666 2.20652 32.1168 2.20652ZM39.5855 12.9236C39.7757 11.7219 39.9659 10.2246 40.1662 8.41219C40.3564 6.52094 40.5166 5.3192 40.6467 4.81684C40.7769 4.31447 41.0272 3.93031 41.4176 3.68406C42.609 2.88618 43.9806 2.05876 45.5224 1.19194C46.013 0.93583 46.4034 0.817627 46.7038 0.817627C46.894 0.817627 47.0542 0.847178 47.1843 0.91613C47.4446 1.04418 47.5648 1.22149 47.5648 1.44804C47.5648 1.78295 47.2945 2.18682 46.7638 2.64978C46.033 3.2999 45.0318 3.88106 43.7503 4.38343L42.5289 4.85624L42.589 6.87555V7.53552C42.589 7.70297 42.589 7.96893 42.609 8.34324C42.609 8.7077 42.649 8.91455 42.6891 8.95396C42.7291 8.99336 43.0495 8.91455 43.6502 8.69785C45.1219 8.15608 46.6737 7.88027 48.2956 7.88027C48.9564 7.88027 49.4369 7.99848 49.7373 8.22504C50.0176 8.43189 50.1578 8.65845 50.1578 8.885C50.1578 9.01306 50.1077 9.16081 49.9976 9.32827C49.7573 9.68288 49.1967 9.97838 48.2956 10.2148L47.2344 10.5004L47.2945 14.6573V16.2629C47.2945 18.0655 47.2344 19.0899 47.1042 19.3164C46.894 19.7597 46.5736 19.9764 46.1431 19.9764C45.9729 19.9764 45.8227 19.937 45.6926 19.8484C45.5624 19.7696 45.4023 19.6317 45.212 19.4346C45.152 19.3755 45.0819 19.277 45.0218 19.149C45.0018 19.0406 44.9717 18.8239 44.9217 18.489C44.9017 18.2329 44.8917 17.8389 44.8917 17.2873V14.9823C44.8917 12.3326 44.8516 10.9733 44.7615 10.8846C44.7014 10.8255 44.311 10.8551 43.6102 10.9831C43.0295 11.0915 42.6791 11.1998 42.5489 11.3279C42.4388 11.4362 42.3387 11.7514 42.2286 12.2735C42.0784 13.1797 41.768 14.017 41.2975 14.7952C41.0172 15.2384 40.6868 15.4551 40.3063 15.4551C40.2663 15.4551 40.1561 15.4354 39.986 15.396C39.7757 15.3369 39.6155 15.2286 39.5254 15.0808C39.4253 14.9331 39.3853 14.7262 39.3853 14.4504C39.3853 14.1155 39.4453 13.6033 39.5755 12.9039L39.5855 12.9236Z" fill="#534741"/>
<path d="M63.5132 23.1088C63.2329 23.1088 63.0027 23.0004 62.8124 22.7936C62.5321 22.4981 62.3519 21.976 62.2718 21.2175C62.1917 20.4591 62.1216 18.9323 62.0816 16.6175C62.0415 14.6868 61.9915 13.1797 61.9514 12.106C61.6911 12.3129 61.3507 12.6576 60.9302 13.1108C60.2895 13.8298 59.7489 14.1844 59.2983 14.1844C59.1282 14.1844 58.978 14.1253 58.8478 13.9973C58.6776 13.8298 58.5875 13.6427 58.5875 13.426C58.5875 13.3472 58.6276 13.1502 58.7177 12.8547C58.8879 12.4606 59.4185 11.6332 60.3195 10.3921C61.3007 9.0426 62.2518 7.59461 63.1729 6.03826C63.9438 4.71833 64.4543 3.99926 64.7146 3.8909C64.8848 3.8318 65.045 3.7924 65.1952 3.7924C65.5156 3.7924 65.7859 3.92045 65.9961 4.16671C66.0562 4.25536 66.0963 4.35387 66.0963 4.48192C66.1363 4.57057 66.1263 4.67893 66.0662 4.82668C66.0662 4.84638 66.0662 4.87593 66.0462 4.90548C66.0362 4.93503 66.0262 4.98428 66.0262 5.04339L65.6457 5.89051C65.4055 6.37317 65.1752 6.84599 64.9349 7.30895L64.0038 9.17065L64.2641 10.7467C64.4143 11.7317 64.5244 13.8889 64.5845 17.2085L64.6145 19.0702C64.6145 21.1978 64.5344 22.37 64.3542 22.5966C64.144 22.8921 63.8937 23.0497 63.6134 23.0694H63.5132V23.1088ZM69.2499 17.1789C69.8706 16.1249 70.3612 15.4453 70.7216 15.1301C70.9319 14.9626 71.1421 14.874 71.3323 14.874C71.4825 14.874 71.6227 14.9035 71.7528 14.9725C71.9831 15.0808 72.1032 15.3468 72.1032 15.79C72.1032 16.3417 71.9531 16.8933 71.6527 17.4646C70.8818 18.8338 70.0609 19.6119 69.1899 19.7991C68.6793 19.8582 68.3889 19.6218 68.3289 19.0702C68.2888 18.8633 68.5992 18.2329 69.2599 17.1789H69.2499ZM70.7917 5.10249C71.1321 4.19626 71.3323 3.5954 71.4024 3.30974C71.6127 2.65962 71.8429 2.16711 72.0732 1.8322C72.3035 1.57609 72.5438 1.45789 72.774 1.45789C72.9242 1.45789 73.0744 1.49729 73.2245 1.58594C73.3747 1.71399 73.4448 2.05875 73.4448 2.63007C73.4448 3.05363 73.4048 3.48704 73.3147 3.94016C73.2245 4.39327 73.1745 4.71833 73.1545 4.93503C72.9843 5.4374 72.9442 5.7132 73.0243 5.75261C73.0644 5.79201 73.1244 5.81171 73.1845 5.81171C73.2045 5.81171 73.3847 5.77231 73.7251 5.68365C74.7663 5.40785 76.1479 5.25024 77.8599 5.21084C79.612 5.25024 80.7633 5.38815 81.324 5.62455L81.6143 5.81171L81.9046 6.09737C82.0148 6.18602 82.0949 6.28452 82.1649 6.41257L82.3552 6.75733L82.4553 7.04299L82.4853 7.07254C82.5053 7.1809 82.5153 7.28925 82.5153 7.4173C82.5153 7.89997 82.2651 8.53038 81.7745 9.30856C81.2439 10.0867 80.7933 10.4709 80.4329 10.4709H80.3328C80.0725 10.4709 79.8923 10.3527 79.7922 10.1261C79.7121 9.77152 79.6821 9.34796 79.7321 8.86529L79.8623 7.82116L79.3817 7.72266C79.1214 7.68326 78.7009 7.66356 78.1002 7.66356L76.3382 7.69311C74.476 7.73251 73.3547 7.79161 72.9743 7.85071L72.1733 7.94922L71.6627 9.05245C71.2823 9.87002 70.8618 10.4315 70.4113 10.727C70.2811 10.7861 70.161 10.8255 70.0609 10.8255C69.7605 10.8255 69.5202 10.658 69.32 10.3231C69.2299 10.2148 69.1899 10.0572 69.1899 9.85032C69.1899 9.66317 69.2199 9.46616 69.29 9.24945L70.7917 5.12219V5.10249ZM72.5237 19.6021C72.8041 19.6021 73.1645 19.8484 73.615 20.331C73.9153 20.5871 74.0956 20.7053 74.1556 20.7053C74.2357 20.7053 74.3358 20.2522 74.446 19.3361C74.5561 18.4201 74.6462 17.1001 74.7363 15.3763C74.8665 13.357 75.0367 12.1651 75.2469 11.781C75.4571 11.5052 75.6774 11.3673 75.8876 11.3673C76.0378 11.3673 76.188 11.4264 76.3482 11.5544C76.5084 11.6825 76.6385 11.8499 76.7486 12.0568C76.9188 12.3326 77.039 13.3373 77.0991 15.0808C77.1191 15.5832 77.1291 16.2924 77.1291 17.1888C77.1291 18.1935 77.1091 18.9027 77.069 19.2967C76.9389 20.8531 76.7687 21.8578 76.5584 22.3208C76.2581 22.9906 75.7375 23.3255 74.9866 23.3255C74.436 23.3255 73.9053 23.1383 73.4148 22.7542C73.0343 22.4193 72.7039 21.9859 72.4236 21.4638C72.1032 20.8137 71.9631 20.3606 72.0031 20.1045C72.1132 19.7498 72.2834 19.5725 72.5137 19.5725L72.5237 19.6021ZM79.8222 15.4157C79.8222 15.1202 79.9223 14.9035 80.1125 14.7558C80.3028 14.4997 80.523 14.3814 80.7533 14.3814C80.8134 14.3814 80.9135 14.4011 81.0436 14.4405C81.364 14.608 81.7745 15.0611 82.2651 15.7999L83.036 16.7455C83.1261 16.8539 83.2362 17.0115 83.3864 17.2183C83.5365 17.4252 83.6767 17.6123 83.8068 17.7502C84.2574 18.2526 84.4776 18.7057 84.4776 19.1096C84.4776 19.346 84.3975 19.543 84.2173 19.7104C84.0271 19.9666 83.7768 20.0848 83.4765 20.0848C83.1561 20.0848 82.8257 19.9469 82.4853 19.671C81.7144 19.0997 81.0336 18.2428 80.4329 17.0903C80.0725 16.253 79.8623 15.7309 79.8222 15.5438V15.4157Z" fill="#534741"/>
<path d="M92.0265 18.4693C91.5559 18.489 90.9652 18.4988 90.2644 18.4988C89.2833 18.4988 88.6826 18.4496 88.4723 18.3412C88.3021 18.2624 88.212 18.1245 88.212 17.9275C88.212 17.7797 88.2421 17.6615 88.2921 17.563C88.3422 17.4645 88.4323 17.366 88.5624 17.2675C88.8227 17.1001 89.2132 16.9523 89.7438 16.8243C90.2544 16.6962 90.5748 16.5682 90.7049 16.45C90.765 16.4106 90.805 16.3515 90.805 16.2924C90.805 16.1643 90.775 16.0658 90.7049 15.9771C90.6449 15.79 90.6048 15.0315 90.6048 13.7116C90.6048 12.6379 90.6148 11.7612 90.6349 11.0619C90.6349 10.3231 90.6449 9.80102 90.6649 9.48581C90.6649 8.54019 90.6649 7.77187 90.6949 7.18085C90.7149 6.71789 90.8952 6.15642 91.2355 5.47675C91.666 4.69858 92.1166 4.06816 92.5771 3.5855C93.0477 3.08313 93.5082 2.82703 93.9587 2.82703C94.239 2.82703 94.4693 2.93538 94.6595 3.14224C94.7196 3.20134 94.7597 3.28999 94.7597 3.39834C94.7597 3.5067 94.7096 3.6446 94.5995 3.8219C94.4893 3.99921 94.3892 4.15681 94.2791 4.29472C94.169 4.43262 94.0889 4.54097 94.0188 4.62963L93.6383 5.13199C93.2078 5.74271 92.8975 6.19582 92.7073 6.50118C92.517 6.80654 92.4169 7.04294 92.4169 7.2104C92.4169 7.50591 92.9275 7.62411 93.9587 7.55516L94.5694 7.52561C95.06 7.52561 95.4805 7.61426 95.8209 7.78172C96.0812 7.90977 96.2013 8.09692 96.2013 8.35303C96.2013 8.46138 96.1713 8.59929 96.1012 8.76674C95.911 9.1903 95.2202 9.43656 94.0488 9.52521L92.8274 9.62372L92.7673 10.3132V10.6284C92.7673 10.924 92.7874 11.0914 92.8274 11.1308C92.8674 11.1702 92.9676 11.1899 93.1177 11.1899C93.328 11.1899 93.6584 11.1604 94.1089 11.0914C94.4092 11.052 94.7797 11.0323 95.2302 11.0323C95.7208 11.0323 96.0712 11.1013 96.2914 11.2392C96.5017 11.3771 96.6118 11.6036 96.6118 11.9188C96.6118 12.234 96.3915 12.5 95.941 12.7069C95.6407 12.8349 95.04 12.9236 94.1489 12.9925L92.8374 13.091V16.4007L96.5517 16.3712C98.2137 16.3712 100.296 16.2924 102.799 16.1151C104.831 15.9082 106.173 15.79 106.834 15.7703C107.454 15.7506 107.855 15.721 108.055 15.6915C108.245 15.6619 108.345 15.5634 108.345 15.396C108.345 15.3566 108.335 15.2581 108.315 15.1103C108.295 14.9626 108.275 14.736 108.255 14.4208L108.225 13.6328L107.294 13.5737C106.844 13.554 106.513 13.5047 106.303 13.4161C106.093 13.3373 105.983 13.1206 105.983 12.7857C105.983 12.5098 106.123 12.2833 106.413 12.0961C106.704 11.909 107.114 11.7809 107.645 11.7218C107.905 11.7218 108.115 11.6824 108.285 11.5938C108.436 11.446 108.536 11.1998 108.586 10.855C108.636 10.5102 108.646 10.2443 108.606 10.0473L108.546 9.63357L107.484 9.66312L106.974 9.69267C106.593 9.69267 106.343 9.57447 106.233 9.34791C106.173 9.18045 106.133 9.0327 106.133 8.90465C106.133 8.55004 106.473 8.26438 107.154 8.05752C107.454 7.97872 107.675 7.91962 107.825 7.89992C108.125 7.84082 108.345 7.78172 108.486 7.72261C108.626 7.67336 108.726 7.58471 108.786 7.45666C108.806 7.41726 108.816 7.2104 108.816 6.85579V6.16627L107.755 6.10717C107.024 6.06777 106.613 5.93971 106.503 5.73286C106.393 5.5654 106.343 5.4275 106.343 5.31915C106.343 5.15169 106.443 4.99409 106.633 4.84633C107.124 4.53112 107.815 4.37352 108.716 4.37352C109.617 4.37352 110.288 4.67888 110.738 5.2896C110.908 5.47675 110.999 6.28447 110.999 7.71276C110.999 10.5299 110.758 12.9334 110.288 14.933L110.067 15.8491C110.067 15.8491 110.498 15.9082 111.349 15.9082C112.741 15.9082 113.541 16.1249 113.752 16.5682C113.832 16.7159 113.882 16.8637 113.882 17.0114C113.882 17.238 113.762 17.4744 113.531 17.7009C113.251 17.9374 112.951 18.0457 112.63 18.0457H109.717C107.304 18.0457 105.612 18.1048 104.651 18.2329C103.45 18.3806 100.546 18.4496 95.931 18.4496L91.9864 18.4791L92.0265 18.4693ZM95.2502 23.6407C95.3904 23.4732 95.6106 23.2368 95.911 22.9511L96.6819 22.1927C97.1925 21.6214 97.5929 21.2273 97.8833 20.9909C98.1736 20.7644 98.4139 20.6462 98.6041 20.6462C98.7343 20.6462 98.8344 20.6757 98.9245 20.7447C99.1548 20.9121 99.2749 21.1387 99.2749 21.4046C99.2749 21.907 98.9445 22.5571 98.2837 23.355C97.3627 24.4484 96.5117 24.9901 95.7208 24.9901C95.4605 24.9901 95.2602 24.9212 95.1 24.7734C94.9399 24.6257 94.8898 24.4287 94.9599 24.1726C95.0199 23.9854 95.1301 23.8081 95.2602 23.6407H95.2502ZM97.0623 13.7707C97.0623 13.6426 97.1024 13.5047 97.1925 13.357C97.2726 13.2092 97.3727 13.0713 97.4628 12.9433C97.5529 12.8152 97.643 12.7167 97.7031 12.6281C98.2537 11.8105 98.6041 11.2786 98.7243 11.052L99.1447 10.3231L98.6642 9.97833C98.3839 9.77147 98.2437 9.52522 98.2437 9.24941C98.2437 8.9342 98.494 8.70764 98.9846 8.55989C99.2148 8.54019 99.355 8.34318 99.4051 7.95902L99.4651 7.3286C99.5052 6.60953 99.5652 6.07762 99.6253 5.72301C99.7555 4.94484 99.8856 4.41292 100.006 4.12726C100.136 3.84161 100.356 3.7037 100.677 3.7037C100.937 3.7037 101.097 3.75295 101.177 3.86131C101.247 3.96966 101.307 4.11741 101.337 4.30457C101.367 4.49172 101.397 4.62963 101.417 4.71828L101.548 5.37825L102.318 5.47675C102.899 5.53585 103.27 5.6048 103.44 5.68361C103.61 5.76241 103.7 5.90031 103.7 6.10717C103.7 6.55043 103.5 6.80654 103.089 6.89519C102.659 7.00354 102.318 7.05279 102.068 7.05279C101.748 7.05279 101.538 7.171 101.427 7.39755C101.367 7.54531 101.327 7.68321 101.327 7.81127C101.327 8.10677 101.518 8.25453 101.908 8.25453C102.298 8.25453 102.689 8.34318 103.159 8.51064C103.54 8.67809 103.84 8.92435 104.06 9.23956C104.361 9.66312 104.511 10.2246 104.511 10.9437C104.511 11.4263 104.461 11.8794 104.351 12.303C104.05 13.5441 103.75 14.3519 103.45 14.7262C103.24 14.9823 103.039 15.1596 102.869 15.2778C102.699 15.396 102.519 15.4551 102.328 15.4551C101.818 15.4551 101.477 15.1103 101.307 14.411C101.267 14.2041 101.247 14.0662 101.247 13.9972C101.247 13.7017 101.367 13.4456 101.598 13.2092C101.808 13.0418 101.958 12.6379 102.048 12.0075C102.158 11.4854 102.208 11.0914 102.208 10.8452C102.208 10.658 102.168 10.5201 102.078 10.4511C101.998 10.3822 101.848 10.3428 101.628 10.3428H101.437C101.287 10.3428 101.187 10.3822 101.147 10.4708C101.037 10.6186 100.897 10.924 100.727 11.3869C100.066 13.0713 99.2649 14.1056 98.3238 14.5095C98.2137 14.5489 98.0935 14.5686 97.9434 14.5686C97.683 14.5686 97.4728 14.4701 97.3026 14.2829C97.1524 14.1154 97.0824 13.948 97.0824 13.7805L97.0623 13.7707ZM105.162 21.0894C105.392 21.0894 105.652 21.1879 105.933 21.3751C106.253 21.582 106.523 21.8085 106.734 22.0351C106.904 22.2025 107.114 22.3897 107.374 22.6064C107.865 23.0102 108.155 23.3057 108.235 23.5225C108.315 23.6702 108.365 23.8278 108.365 23.9953C108.365 24.2514 108.275 24.4484 108.095 24.606C107.915 24.7636 107.685 24.8424 107.404 24.8424C106.744 24.8424 106.033 24.4287 105.292 23.6111C104.741 22.9413 104.461 22.3798 104.461 21.9366C104.461 21.8775 104.481 21.7593 104.521 21.5918C104.651 21.2569 104.861 21.0894 105.162 21.0894Z" fill="#534741"/>
<path d="M126.697 22.1632C125.966 21.454 125.545 20.2325 125.415 18.5087L125.315 17.2183L122.882 17.1198C121.26 17.0607 120.389 16.9721 120.289 16.8637C120.159 16.7357 120.109 16.519 120.129 16.2038C120.189 15.593 121.22 15.1596 123.203 14.9134C124.314 14.7656 124.975 14.6573 125.185 14.5982C125.335 14.5391 125.395 14.0071 125.375 13.0221L125.315 11.5052L123.073 11.4461C121.901 11.4067 121.14 11.3377 120.8 11.2589C120.46 11.1801 120.289 10.9536 120.289 10.5989C120.289 10.264 120.61 9.97838 121.27 9.73212C121.921 9.48587 122.892 9.31841 124.174 9.21006C124.514 9.19036 124.815 9.16081 125.075 9.11156C125.335 9.07216 125.495 9.01305 125.555 8.95395C125.686 8.8259 125.746 8.54024 125.746 8.10683C125.746 7.67342 125.866 7.30896 126.096 6.97405C126.306 6.65884 126.557 6.50123 126.837 6.50123C127.027 6.50123 127.207 6.62929 127.378 6.87554C127.548 7.13165 127.668 7.47641 127.728 7.91967C127.838 8.56979 127.928 8.9441 128.018 9.0229C128.038 9.0426 128.148 9.05245 128.339 9.05245C128.719 9.05245 129.34 9.0229 130.201 8.95395C131.082 8.89485 131.773 8.85545 132.283 8.85545C133.455 8.85545 134.175 9.16081 134.426 9.77153C134.466 9.86018 134.486 9.97838 134.486 10.1458C134.486 10.4413 134.276 10.727 133.845 10.993C133.545 11.1801 132.534 11.3082 130.802 11.3673C129.18 11.4264 128.279 11.515 128.108 11.6234C127.998 11.712 127.928 12.1454 127.888 12.9433V13.357C127.888 13.8594 127.928 14.1549 128.018 14.2436C128.108 14.3027 128.529 14.283 129.3 14.1844C130.301 14.0367 131.412 13.9677 132.634 13.9677C134.045 13.9677 134.906 14.0662 135.227 14.2534C135.507 14.4012 135.647 14.6573 135.647 15.0119C135.647 15.4157 135.527 15.7014 135.297 15.8984C135.147 16.0264 134.796 16.1447 134.246 16.2432C133.535 16.3712 132.614 16.4697 131.452 16.5584C129.23 16.7258 128.088 16.8736 128.028 17.0016C127.988 17.0903 127.968 17.2873 127.968 17.6025C127.968 17.898 127.978 18.1344 127.998 18.3314C128.058 19.0702 128.148 19.5725 128.259 19.8484C128.339 20.0749 128.569 20.3113 128.929 20.5379C129.29 20.7644 130.341 20.8826 132.063 20.8826C133.785 20.8826 134.806 20.8531 134.916 20.7841C135.107 20.6758 135.387 20.3507 135.747 19.809C136.128 19.2179 136.478 18.9224 136.799 18.9224C137.439 18.9224 137.76 19.2869 137.76 20.0257C137.76 20.1931 137.72 20.5083 137.629 20.9713C137.369 22.1927 136.678 22.9906 135.547 23.3649C135.036 23.5324 134.276 23.621 133.274 23.621C132.594 23.621 131.633 23.5718 130.391 23.4634C128.659 23.3157 127.438 22.8822 126.707 22.173L126.697 22.1632ZM122.222 4.14702C122.532 3.96971 123.012 3.82196 123.683 3.72346C124.494 3.5954 125.095 3.46735 125.475 3.34914L127.368 2.71873C128.649 2.31487 129.45 2.04891 129.77 1.90115C130.091 1.7534 130.411 1.68445 130.731 1.68445C131.052 1.68445 131.322 1.80265 131.532 2.02921C131.663 2.17696 131.723 2.33457 131.723 2.50202C131.723 2.81723 131.512 3.13244 131.082 3.44765C130.822 3.6545 130.461 3.89091 129.991 4.13717C129.39 4.45238 128.919 4.66908 128.579 4.79714L127.007 5.36845C126.406 5.57531 125.876 5.72306 125.405 5.81171C125.255 5.83141 125.035 5.87082 124.734 5.93977C124.434 5.99887 124.194 6.03827 123.994 6.03827C123.463 6.03827 123.063 6.01857 122.812 5.98902C122.552 5.95947 122.352 5.88067 122.202 5.75261C121.901 5.49651 121.751 5.2207 121.751 4.90549C121.751 4.59028 121.901 4.34402 122.212 4.16672L122.222 4.14702Z" fill="#534741"/>
<path d="M145.088 21.7494L145.058 21.4342C145.058 21.0401 145.178 20.7545 145.409 20.587C145.519 20.5279 145.619 20.4885 145.729 20.4885C145.919 20.4885 146.189 20.6264 146.53 20.9022C146.72 21.0894 146.86 21.2076 146.95 21.247C146.99 21.247 147.08 21.178 147.211 21.0303C147.811 20.2127 148.112 18.8435 148.112 16.9326L148.142 15.2974L147.561 15.327C147.411 15.327 146.91 15.3664 146.059 15.455C145.949 15.4747 145.799 15.4846 145.609 15.4846C145.248 15.4846 144.988 15.4353 144.838 15.327C144.648 15.1989 144.548 15.0413 144.548 14.8542C144.548 14.7064 144.658 14.5291 144.868 14.3223C145.038 14.1548 145.288 13.9775 145.609 13.7903C146.009 13.5835 146.37 13.4456 146.67 13.3766C147.461 13.1205 147.881 12.9531 147.951 12.8743C147.992 12.8349 148.012 12.7758 148.012 12.7167C148.012 12.6576 147.972 12.4507 147.881 12.1158C147.711 11.6528 147.491 11.2293 147.211 10.855C146.98 10.4609 146.86 10.2048 146.86 10.0965V9.96843C146.86 9.84038 146.89 9.67293 146.96 9.46607C147.07 9.02281 147.441 8.23479 148.082 7.102C148.702 5.92982 148.963 5.3191 148.883 5.26985C148.823 5.21075 148.672 5.17135 148.432 5.17135C147.982 5.17135 147.321 5.2797 146.45 5.48656C145.849 5.61461 145.378 5.67371 145.038 5.67371C144.528 5.67371 144.267 5.48656 144.267 5.1024C144.267 4.95464 144.337 4.78719 144.487 4.60003C144.638 4.41288 144.838 4.24542 145.098 4.09767C145.308 3.94992 145.619 3.78246 146.029 3.59531L147.281 3.18159C147.962 3.01414 148.532 2.92549 148.983 2.92549C149.493 2.92549 149.954 3.04369 150.364 3.27025C151.045 3.69381 151.385 4.22572 151.385 4.87584C151.385 5.52596 151.035 6.51099 150.324 7.84078L149.433 9.60397L149.914 10.5792C150.274 11.3376 150.494 11.8006 150.555 11.968C150.665 12.1749 150.755 12.2931 150.845 12.3128C150.955 12.3325 151.235 12.3325 151.706 12.3128C151.816 12.2931 151.966 12.2832 152.156 12.2832C152.517 12.2832 152.787 12.3325 152.957 12.4409C153.188 12.5689 153.308 12.8053 153.308 13.1698C153.308 13.7805 152.817 14.2435 151.836 14.5587L150.975 14.8148L150.875 16.6469C150.685 19.9271 149.994 22.0646 148.792 23.0792C148.362 23.483 147.881 23.68 147.351 23.68C147.01 23.68 146.69 23.6111 146.39 23.4633C145.619 23.1087 145.188 22.5374 145.108 21.7592L145.088 21.7494ZM155.27 6.24503C155.27 6.05788 155.4 5.86087 155.65 5.64416C155.951 5.41761 157.943 5.0433 161.637 4.54093C163.089 4.33408 164.631 4.22572 166.253 4.22572C167.294 4.22572 167.965 4.27497 168.235 4.38333C168.555 4.47198 168.776 4.64929 168.906 4.91524C168.986 5.0827 169.036 5.2206 169.036 5.32895C169.036 5.43731 169.006 5.53581 168.936 5.64416C168.896 5.81162 168.756 5.96922 168.515 6.11698C168.345 6.22533 168.075 6.30413 167.714 6.37308C167.334 6.43219 166.833 6.50114 166.213 6.56024C165.101 6.61934 163.82 6.74739 162.368 6.93455C160.486 7.16111 158.884 7.27931 157.563 7.27931C156.792 7.27931 156.241 7.21036 155.901 7.0626C155.56 6.87545 155.36 6.63904 155.29 6.37308L155.26 6.24503H155.27ZM156.712 14.2139C156.712 13.7706 156.862 13.2683 157.162 12.697C158.143 10.7663 158.934 9.50547 159.535 8.91446C159.765 8.65835 159.995 8.54014 160.206 8.54014C160.376 8.54014 160.516 8.6288 160.626 8.8061C160.736 8.98341 160.786 9.22966 160.786 9.54487C160.786 9.94873 160.686 10.3624 160.496 10.8057C159.685 12.4212 159.395 13.3274 159.625 13.5145C159.735 13.6032 159.955 13.6623 160.296 13.7017C160.706 13.7608 161.007 13.8297 161.197 13.8888L161.297 13.9184C161.427 13.9184 161.597 13.7903 161.808 13.5441C162.088 13.0811 162.428 12.3916 162.839 11.4657C163.289 10.4806 163.66 9.86993 163.96 9.63352C164.07 9.55472 164.19 9.50547 164.341 9.50547C164.531 9.50547 164.721 9.60397 164.921 9.79113C165.131 10.0472 165.242 10.3723 165.242 10.7663C165.242 11.5248 164.941 12.5591 164.351 13.8888C163.58 15.7604 162.528 17.4645 161.177 18.9913C159.895 20.4885 158.814 21.2273 157.943 21.2273C157.623 21.2273 157.382 21.1682 157.222 21.0401C157.062 20.9121 156.982 20.7151 156.982 20.4393C156.982 20.065 157.182 19.6414 157.593 19.1784C159.325 17.2872 160.186 16.2431 160.186 16.0559C160.186 15.9279 159.845 15.8688 159.155 15.8688C158.003 15.8096 157.252 15.5141 156.912 14.9822C156.782 14.7557 156.722 14.4897 156.722 14.1942L156.712 14.2139ZM161.547 20.4294C163.51 18.4298 165.061 16.4795 166.193 14.5685C166.403 14.1942 166.603 13.9184 166.783 13.7509C166.964 13.5835 167.194 13.4948 167.474 13.4948C167.734 13.5145 167.905 13.5835 168.005 13.7017C168.105 13.8199 168.145 13.9972 168.145 14.2533C168.145 14.6276 168.105 14.9428 168.035 15.1792C167.965 15.4255 167.915 15.5634 167.895 15.6028C167.805 15.9377 167.464 16.6272 166.873 17.6516L165.972 19.0996L166.934 20.2029C167.875 21.316 168.475 22.1532 168.726 22.7245C168.816 22.9806 168.856 23.158 168.856 23.2565C168.856 23.552 168.726 23.7785 168.475 23.946C168.305 24.0937 168.095 24.1627 167.835 24.1627C167.174 24.1627 166.423 23.5323 165.592 22.2714C165.081 21.513 164.771 21.0795 164.661 20.981C164.601 20.9219 164.18 21.247 163.409 21.9562C162.689 22.6753 162.178 23.1087 161.908 23.2762C161.627 23.4633 161.317 23.5618 160.977 23.5618C160.226 23.5618 159.855 23.2368 159.855 22.5866C159.855 22.2911 160.416 21.5721 161.557 20.4097L161.547 20.4294ZM161.898 0.502319C162.178 0.502319 162.478 0.669774 162.799 1.00468C163.349 1.5957 163.63 2.20642 163.63 2.83683C163.63 3.55591 163.399 3.91051 162.929 3.91051C162.458 3.91051 162.008 3.44755 161.587 2.52163C161.347 1.99956 161.237 1.58585 161.237 1.29034C161.237 1.03423 161.317 0.837229 161.457 0.689475C161.587 0.561421 161.738 0.502319 161.908 0.502319H161.898Z" fill="#534741"/>
<path d="M174.322 20.0946C174.122 19.8286 173.962 19.4346 173.862 18.9125C173.771 18.4299 173.671 17.0705 173.541 14.8444C173.451 13.5835 173.411 12.5296 173.411 11.6923C173.411 11.2884 173.421 11.0422 173.441 10.9338C173.481 10.658 173.621 10.2541 173.862 9.70253C174.092 9.16077 174.422 8.5402 174.853 7.84083C175.774 6.26478 176.324 5.40781 176.515 5.26006C176.725 5.0926 176.935 5.00395 177.125 5.00395C177.275 5.00395 177.406 5.04335 177.506 5.132C177.716 5.27976 177.826 5.50631 177.826 5.82152C177.826 6.02838 177.786 6.26478 177.696 6.51104C177.436 7.34832 177.015 8.14619 176.415 8.90466C176.014 9.45627 175.824 9.74193 175.874 9.79118C175.934 9.85028 176.394 9.76163 177.255 9.50553C178.106 9.29867 179.188 9.16077 180.489 9.09181C180.75 9.07211 181.08 9.06226 181.48 9.06226C182.011 9.06226 182.391 9.09181 182.602 9.16077C183.002 9.26912 183.313 9.51538 183.533 9.91924C183.833 10.3822 183.983 11.3771 183.983 12.9137C183.983 13.6328 183.973 14.1844 183.953 14.5883C183.823 16.9819 183.503 18.5481 182.992 19.2868C182.442 20.0256 180.72 20.3901 177.836 20.3901C177.135 20.3901 176.535 20.4098 176.044 20.4393C175.553 20.4689 175.253 20.4886 175.143 20.4886C174.803 20.4886 174.532 20.3605 174.322 20.0946ZM175.714 12.8645C175.864 14.0465 175.984 15.1005 176.064 16.0461L176.254 18.223L177.726 18.1935C178.837 18.1541 179.668 18.0654 180.229 17.9374L181.22 17.7207L181.35 15.9575C181.41 15.2187 181.45 14.5292 181.45 13.879L181.42 12.7758L181.39 11.4165L180.239 11.3869C179.618 11.3672 178.737 11.4263 177.576 11.5741C177.446 11.5938 177.155 11.6332 176.715 11.7021C176.264 11.7612 175.984 11.7612 175.884 11.7021L175.784 11.6726C175.784 11.6726 175.694 11.7021 175.654 11.7514C175.614 11.8006 175.604 11.8696 175.624 11.9582L175.724 12.8743L175.714 12.8645ZM177.956 14.3716C178.217 14.3125 178.517 14.2731 178.887 14.2731C179.378 14.2731 179.788 14.3125 180.119 14.3814C180.449 14.4504 180.669 14.5489 180.78 14.6474C181.01 14.8739 181.13 15.0808 181.13 15.2482C181.13 15.3369 181.1 15.4255 181.03 15.5339C180.82 15.8294 180.389 16.0461 179.748 16.1939C179.428 16.253 179.068 16.2924 178.657 16.2924C177.776 16.2924 177.255 16.2136 177.085 16.0363C176.915 15.8688 176.825 15.6521 176.825 15.3763C176.825 14.933 177.195 14.5981 177.946 14.3716H177.956ZM186.606 7.97873C186.716 7.75218 186.877 7.34832 187.087 6.777L187.407 6.08748C187.618 5.51616 187.788 5.1714 187.918 5.04335C188.178 4.76754 188.438 4.62964 188.719 4.62964C189.189 4.62964 189.42 4.86605 189.42 5.31916C189.42 5.61467 189.36 6.06778 189.229 6.6785C189.079 7.47637 188.809 8.37274 188.428 9.35777C188.128 10.0965 187.808 10.5989 187.467 10.8747C187.237 11.0816 186.977 11.1899 186.696 11.1899C186.416 11.1899 186.206 11.1111 186.056 10.9535C185.906 10.7959 185.835 10.5792 185.835 10.3034C185.835 9.96849 185.946 9.58433 186.156 9.17062L186.606 7.96888V7.97873ZM189.099 12.2932C189.229 12.1651 189.46 12.106 189.8 12.106C190.14 12.106 190.571 12.3818 191.082 12.9236C191.632 13.4949 191.913 14.0071 191.913 14.4701C191.913 14.6375 191.882 14.7853 191.812 14.9133C191.702 15.1202 191.512 15.2679 191.232 15.3566C191.122 15.396 190.991 15.4157 190.811 15.4157C190.511 15.4157 190.231 15.2876 189.98 15.0414L189.47 14.5095C189.259 14.2829 189.119 14.0859 189.049 13.9381C188.939 13.6623 188.889 13.357 188.889 13.0221C188.889 12.6872 188.949 12.4409 189.079 12.2932H189.099ZM190.06 8.25454C190.06 8.04768 190.181 7.86053 190.411 7.68322C190.641 7.51577 190.991 7.38772 191.442 7.30891C192.163 7.16116 193.174 7.09221 194.455 7.09221C195.737 7.09221 196.508 7.18086 196.828 7.34832C197.509 7.72263 197.93 8.22499 198.08 8.82586C198.17 9.14107 198.21 9.57448 198.21 10.1162C198.21 10.658 198.17 11.1702 198.08 11.6923C197.889 12.8448 197.589 14.2534 197.179 15.9181C196.628 17.9571 196.248 19.2179 196.057 19.7006C195.737 20.5674 195.377 21.1978 194.986 21.6115C194.596 22.0252 194.125 22.2222 193.594 22.2222C193.104 22.2222 192.493 22.0055 191.772 21.5623C191.562 21.4342 191.292 21.1387 190.971 20.6757C190.691 20.2817 190.551 19.9764 190.551 19.7597C190.551 19.5922 190.651 19.4149 190.841 19.2277C190.971 19.0603 191.122 18.9716 191.292 18.9716C191.442 18.9716 191.722 19.1194 192.123 19.4149C192.593 19.7498 192.884 19.9173 192.984 19.9173C193.284 19.9173 193.785 18.5875 194.486 15.9181C194.936 14.1943 195.256 12.8546 195.447 11.8991C195.637 10.9437 195.717 10.2738 195.667 9.89954L195.567 9.26912L193.064 9.17062C191.352 9.11152 190.431 8.97361 190.281 8.75691C190.13 8.53035 190.06 8.35304 190.06 8.25454Z" fill="#534741"/>
<path d="M202.395 22.1927C202.245 22.0252 202.175 21.8479 202.175 21.6608C202.175 21.4342 202.245 21.2273 202.395 21.0599C202.545 20.8333 202.615 20.6068 202.615 20.3999C202.655 20.1438 202.625 19.4543 202.515 18.3215C202.475 17.8979 202.455 17.3857 202.455 16.775C202.455 16.1052 202.505 15.7013 202.615 15.5733C202.745 15.3861 202.955 15.2581 203.256 15.199H203.446C203.676 15.199 203.836 15.2581 203.927 15.3861C204.097 15.593 204.277 16.1249 204.467 16.9622C204.657 17.7797 204.758 18.4397 204.758 18.9519C204.758 19.671 204.798 20.0355 204.888 20.0552C204.908 20.0749 204.948 20.0847 205.018 20.0847L205.528 20.0256L206.069 19.8976L206.009 16.7455C205.989 13.6131 206.209 11.8794 206.68 11.5445C206.85 11.4362 207.01 11.3869 207.16 11.3869C207.371 11.3869 207.561 11.4657 207.741 11.6036C207.971 11.7908 208.131 12.2931 208.222 13.1206C208.312 13.8987 208.352 14.4503 208.352 14.7951C208.352 15.002 208.382 15.13 208.432 15.1596C208.482 15.1891 208.562 15.1891 208.672 15.1399C209.613 14.8838 210.254 14.7656 210.594 14.7656C210.935 14.7656 211.195 14.9035 211.365 15.1793C211.425 15.3073 211.465 15.4255 211.465 15.524C211.465 15.9673 211.005 16.3515 210.084 16.6864C209.313 16.9622 208.862 17.1493 208.732 17.2577C208.602 17.3857 208.542 17.7896 208.542 18.489V19.5922L209.373 19.4641C209.823 19.3853 210.254 19.3361 210.654 19.3361C210.845 19.3361 211.045 19.3558 211.265 19.3952C211.646 19.4838 211.846 19.7301 211.846 20.1537C211.846 21.4145 209.493 22.173 204.798 22.4192C204.157 22.4586 203.556 22.4783 203.006 22.4783C202.795 22.4586 202.585 22.3601 202.395 22.1927ZM204.157 3.46729C204.347 3.24074 205.008 2.98463 206.139 2.70882C206.349 2.66942 206.72 2.63002 207.23 2.58077C207.741 2.54137 208.262 2.52167 208.772 2.52167C209.563 2.52167 210.084 2.63002 210.344 2.83687C210.815 3.24074 211.045 3.98936 211.045 5.10244C211.045 5.75256 210.925 6.42237 210.694 7.12174C210.464 7.79156 210.214 8.22498 209.954 8.41213C209.723 8.55988 209.183 8.72734 208.352 8.91449C207.601 9.06225 206.9 9.1312 206.239 9.1312C205.619 9.1312 205.188 9.06225 204.958 8.91449C204.728 8.78644 204.487 8.48108 204.257 7.99842C203.997 7.4271 203.877 6.46178 203.877 5.10244C203.877 4.21591 203.977 3.67415 204.167 3.46729H204.157ZM206.019 6.93459C206.019 6.93459 206.169 6.99369 206.339 6.99369C206.62 6.99369 206.94 6.95429 207.301 6.86564C208.071 6.73758 208.482 6.59968 208.552 6.45193C208.642 6.36327 208.682 6.12687 208.682 5.723V5.4669C208.682 5.21079 208.652 5.02363 208.582 4.89558C208.522 4.72813 208.041 4.63947 207.17 4.63947H205.859V5.6836C205.859 6.35342 205.909 6.76713 206.019 6.91489V6.93459ZM215.69 10.5004L215.72 9.61386C215.76 8.72734 215.79 8.19542 215.82 8.00827C215.84 7.71276 215.951 7.4862 216.141 7.3286C216.331 7.171 216.551 7.09219 216.782 7.09219C216.912 7.09219 217.042 7.13159 217.162 7.22025C217.522 7.47635 217.793 8.31363 217.963 9.74192C218.003 10.0965 218.023 10.8648 218.023 12.0469C218.023 13.5441 218.003 14.7853 217.963 15.7998C217.903 17.6911 217.863 18.9913 217.863 19.7104C217.863 20.1143 217.863 20.3211 217.893 20.3408C217.913 20.3802 218.033 20.3999 218.243 20.3999C218.474 20.3999 218.684 20.3901 218.854 20.3704L223.119 20.2128C225.151 20.1044 226.333 20.0552 226.673 20.0552C227.074 20.0552 227.394 20.0847 227.634 20.1537C227.874 20.2226 228.055 20.3704 228.175 20.6265C228.235 20.7742 228.275 20.9121 228.275 21.0402C228.275 21.5031 227.894 21.9267 227.154 22.301C226.793 22.4685 226.363 22.5768 225.872 22.6162C225.572 22.6359 224.19 22.6458 221.737 22.6458C219.064 22.6458 217.412 22.5867 216.772 22.4586C216.131 22.3995 215.7 22.1631 215.49 21.7691C215.38 21.6017 215.33 21.0106 215.33 20.0059L215.36 17.957C215.38 17.829 215.39 17.6221 215.39 17.3266C215.52 14.7656 215.61 12.4901 215.68 10.5201L215.69 10.5004ZM216.271 3.99921C216.271 3.7431 216.461 3.54609 216.832 3.38849C217.202 3.23089 217.813 3.03388 218.644 2.80732C219.965 2.47241 221.657 2.25571 223.71 2.14735C224.711 2.12765 225.502 2.26556 226.082 2.56107C226.633 2.85657 226.913 3.18163 226.913 3.53624C226.913 3.684 226.873 3.83175 226.783 3.97951C226.633 4.23561 226.363 4.40307 225.982 4.48187C225.662 4.54097 225.131 4.58037 224.38 4.58037C222.478 4.58037 221.177 4.62962 220.476 4.73798C219.405 4.90543 218.604 4.99408 218.073 4.99408C217.412 4.99408 216.952 4.88573 216.691 4.67888C216.411 4.42277 216.271 4.20606 216.271 4.01891V3.99921ZM219.765 11.0619C220.616 10.5201 222.018 10.2443 223.96 10.2443C224.39 10.2443 224.801 10.2738 225.211 10.3428C225.722 10.4019 226.132 10.6186 226.423 10.9732C226.683 11.2687 226.803 11.6135 226.803 12.0173C226.803 12.8546 226.623 13.7313 226.263 14.6375C225.962 15.327 225.622 15.7703 225.231 15.9574C224.06 16.5091 222.718 16.775 221.227 16.775C220.396 16.7553 219.855 16.6076 219.625 16.3318C219.395 16.1052 219.274 15.8885 219.274 15.7013C219.274 15.5536 219.324 15.4058 219.435 15.2581C219.545 15.1103 220.075 14.9429 221.036 14.7557C222.128 14.5489 222.899 14.4503 223.339 14.47C223.98 14.47 224.28 14.0662 224.23 13.2683L224.2 12.6674L222.058 12.6379C220.796 12.5985 220.045 12.5394 219.815 12.4803C219.535 12.4015 219.395 12.1552 219.395 11.7514C219.395 11.4362 219.515 11.2096 219.745 11.0619H219.765Z" fill="#534741"/>
<path d="M232.74 17.3069C233.171 17.1986 233.401 17.1099 233.441 17.0213C233.531 16.8735 233.571 16.5682 233.571 16.1052C233.571 15.1596 233.851 14.6868 234.402 14.6868C234.702 14.6868 234.883 14.7656 234.943 14.9035C234.963 14.9035 235.013 15.0512 235.103 15.3467C235.123 15.4945 235.153 15.6915 235.203 15.9476C235.243 16.2037 235.303 16.3909 235.363 16.5288C235.423 16.6667 235.523 16.7356 235.653 16.7356C236.725 16.7356 237.315 16.4992 237.446 16.0067C237.486 15.8195 237.526 15.6324 237.546 15.4354C237.566 15.2482 237.596 15.1103 237.646 15.0217C237.686 14.9429 237.776 14.8444 237.906 14.736C238.096 14.608 238.307 14.5489 238.547 14.5489C238.757 14.5489 238.937 14.6277 239.087 14.7656C239.238 14.9133 239.308 15.1103 239.308 15.3664C239.308 15.6619 239.338 15.8589 239.408 15.9673C239.468 16.0756 239.578 16.1249 239.728 16.1249C239.858 16.1249 240.049 16.1052 240.309 16.0757C240.569 16.0461 240.809 16.0264 241.04 16.0264C241.23 16.0264 241.5 16.0362 241.861 16.056C242.211 16.0756 242.481 16.1151 242.682 16.1643C242.872 16.2136 243.072 16.3022 243.292 16.4303C243.783 16.7258 244.073 17.0902 244.163 17.5335C244.273 17.9078 244.344 18.8534 244.384 20.3704C244.384 22.1336 244.314 23.1678 244.163 23.4634C243.973 23.7983 243.693 23.9854 243.332 24.0347H243.202C242.862 24.0347 242.582 23.8968 242.371 23.621C242.221 23.3944 242.151 23.158 242.151 22.9314C242.111 22.5571 242.091 21.8578 242.091 20.853C242.091 19.4838 242.041 18.6761 241.931 18.4299C241.841 18.2821 241.58 18.2132 241.13 18.2132C240.149 18.2132 239.528 18.3018 239.268 18.4693C239.118 18.5284 239.047 18.6663 239.047 18.883C239.047 19.1982 239.107 19.3755 239.238 19.4149H239.268C239.398 19.4149 239.548 19.3065 239.718 19.0997C239.778 18.9125 239.968 18.7943 240.259 18.7549H240.359C240.549 18.7549 240.719 18.8239 240.87 18.9716C241.19 19.3459 241.35 19.9567 241.35 20.8038C241.35 21.247 241.24 21.5918 241.03 21.8479C240.92 21.9563 240.769 22.0055 240.579 22.0055C240.259 22.0055 239.999 21.9267 239.808 21.7494C239.678 21.6214 239.508 21.5623 239.298 21.5623C239.128 21.5623 238.987 21.582 238.877 21.6214C238.407 21.7297 238.056 21.779 237.826 21.779C237.416 21.779 237.115 21.6706 236.925 21.4638C236.695 21.2372 236.575 20.922 236.575 20.5181C236.575 20.2226 236.615 19.9468 236.705 19.7006C236.745 19.5528 236.765 19.3755 236.765 19.1686C236.765 19.0406 236.755 18.9618 236.735 18.9125C236.675 18.8534 236.585 18.814 236.474 18.814L236.094 18.8731L235.673 19.0012L235.573 20.9909C235.573 21.0993 235.553 21.4145 235.523 21.9563C235.493 22.4882 235.433 22.8822 235.343 23.1383C235.323 23.5126 235.153 23.7589 234.833 23.8672C234.742 23.9066 234.662 23.9263 234.572 23.9263C234.482 23.9263 234.362 23.8869 234.192 23.7983C233.911 23.6702 233.711 23.4141 233.581 23.0102C233.521 22.8231 233.451 22.1336 233.391 20.9614L233.291 19.0701L232.91 19.0997H232.85C232.72 19.0997 232.45 19.0406 232.019 18.9125C231.719 18.7648 231.569 18.5579 231.569 18.2821C231.569 17.8389 231.959 17.5138 232.75 17.3069H232.74ZM233.06 7.43696C233.141 7.18085 233.361 7.0528 233.701 7.02325C234.062 7.02325 234.322 7.1316 234.472 7.33846C234.552 7.52561 234.642 8.11663 234.732 9.10166C234.752 9.28881 234.782 9.57447 234.812 9.94878C234.843 10.3231 234.893 10.5595 234.973 10.658C235.043 10.7565 235.173 10.7959 235.343 10.7959C235.493 10.7959 235.944 10.7467 236.685 10.6383C237.005 10.5989 237.486 10.5595 238.126 10.5102C239.067 10.4019 239.528 10.3526 239.508 10.3526C240.039 10.2935 240.409 10.2246 240.599 10.1458C240.789 10.0768 240.92 9.92908 241 9.72222C241.07 9.51537 241.13 9.12136 241.18 8.55989C241.24 7.87037 241.38 7.36801 241.58 7.06265C241.781 6.75729 242.061 6.60954 242.431 6.60954C242.752 6.60954 242.962 6.71789 243.072 6.92474C243.182 7.1316 243.232 7.44681 243.232 7.87037C243.232 8.09693 243.212 8.53034 243.172 9.16076C243.062 10.5693 242.892 11.4165 242.662 11.712C242.511 11.9188 242.181 12.0863 241.67 12.2143C241.39 12.3227 240.779 12.431 239.848 12.5591C239.017 12.6872 238.136 12.7758 237.225 12.8448C236.645 12.9039 235.984 12.9433 235.243 12.9433C234.602 12.9039 234.252 12.8743 234.182 12.8448C233.972 12.8054 233.771 12.697 233.601 12.5296C233.241 12.2143 233.01 11.8302 232.93 11.3672C232.87 11.1111 232.83 10.7762 232.83 10.3625C232.83 10.195 232.85 9.84043 232.89 9.28881C232.91 8.23483 232.97 7.61426 233.08 7.42711L233.06 7.43696ZM233.541 4.31442C233.541 4.10757 233.611 3.94996 233.761 3.84161C233.891 3.69385 234.202 3.53625 234.692 3.36879C234.823 3.34909 235.063 3.29984 235.433 3.21119C235.794 3.13239 236.184 3.06344 236.585 3.02403C236.865 3.00433 237.065 2.96493 237.195 2.89598C237.325 2.83688 237.385 2.71868 237.385 2.55122C237.385 2.42317 237.355 2.26556 237.285 2.07841C237.135 1.7829 237.035 1.43814 236.995 1.03428V0.817573C236.995 0.561466 237.035 0.35461 237.125 0.187155C237.255 0.0591017 237.396 0 237.546 0C237.736 0 237.936 0.0689519 238.156 0.216706C238.367 0.36446 238.537 0.591017 238.657 0.896375C238.777 1.20173 238.897 1.59574 239.027 2.07841C239.117 2.39362 239.218 2.59062 239.328 2.65957C239.448 2.73838 239.648 2.76793 239.938 2.76793H240.659C241.56 2.80733 242.111 2.90583 242.321 3.05359C242.602 3.11269 242.742 3.38849 242.742 3.87116C242.742 4.29472 242.451 4.55083 241.871 4.65918C241.61 4.74783 241.09 4.80693 240.289 4.84634C239.488 4.88574 238.547 4.92514 237.456 4.94484C236.905 4.96454 236.214 4.97439 235.403 4.97439H234.282C233.881 4.86604 233.631 4.68873 233.551 4.44247V4.31442H233.541ZM235.523 8.72734C235.523 8.50079 235.653 8.27423 235.904 8.06738C236.114 7.88022 236.224 7.74232 236.224 7.65366C236.224 7.54531 236.144 7.40741 236.004 7.23995C235.794 6.90504 235.684 6.60954 235.684 6.35343C235.684 6.18597 235.744 6.03822 235.874 5.91017C236.024 5.76241 236.204 5.69346 236.414 5.69346C236.675 5.69346 236.955 5.82151 237.285 6.06777C237.516 6.29433 237.666 6.41253 237.736 6.41253C237.816 6.41253 237.916 6.36328 238.026 6.25493C238.287 5.97912 238.557 5.84121 238.857 5.84121C238.987 5.84121 239.118 5.87076 239.238 5.93972C239.448 6.06777 239.558 6.27463 239.558 6.57013C239.558 6.73759 239.528 6.94444 239.458 7.20055C239.458 7.22025 239.438 7.27935 239.408 7.37786C239.378 7.47636 239.378 7.56501 239.428 7.64381C239.468 7.73247 239.608 7.89992 239.848 8.14618C240.149 8.48109 240.299 8.78645 240.299 9.06225C240.299 9.17061 240.259 9.27896 240.169 9.40701C240.039 9.53507 239.848 9.59417 239.588 9.59417C239.308 9.59417 238.977 9.53507 238.597 9.40701C238.317 9.29866 238.076 9.24941 237.856 9.24941C237.686 9.24941 237.516 9.27896 237.345 9.34791C237.025 9.47597 236.735 9.53507 236.484 9.53507C236.204 9.53507 235.984 9.45627 235.814 9.27896C235.623 9.0918 235.523 8.90465 235.523 8.70764V8.72734ZM244.724 9.14106C245.175 8.67809 245.905 7.81127 246.937 6.52088C247.958 5.31915 248.518 4.69858 248.599 4.65918C248.829 4.53113 249.029 4.47203 249.179 4.47203C249.369 4.47203 249.54 4.54098 249.69 4.68873C249.82 4.83649 249.88 5.00394 249.88 5.1911C249.88 5.27975 249.86 5.39795 249.82 5.56541C249.61 6.00867 249.239 6.57998 248.729 7.29905L247.958 8.30378L248.118 9.40701C248.268 10.5398 248.338 11.8006 248.338 13.1895C248.338 14.0957 248.308 15.1103 248.238 16.2431C248.178 17.6911 248.078 18.8633 247.948 19.74C247.818 20.6265 247.667 21.1682 247.497 21.3751C247.437 21.4835 247.227 21.5327 246.887 21.5327C246.626 21.5327 246.416 21.4736 246.246 21.3455C246.016 21.119 245.895 20.262 245.895 18.7943C245.895 18.1048 245.895 17.5532 245.925 17.1592C246.056 15.0808 246.116 13.4752 246.116 12.3325C246.116 10.8846 245.985 10.3723 245.735 10.7861C245.415 11.2687 245.094 11.515 244.774 11.515C244.604 11.515 244.414 11.446 244.193 11.2983C244.023 11.2195 243.933 11.0126 243.933 10.6974C243.933 10.5693 243.953 10.4413 243.993 10.3231C244.013 10.0965 244.253 9.69267 244.704 9.12136L244.724 9.14106ZM253.014 21.3751C252.012 21.3357 251.212 21.2667 250.611 21.1879C249.309 21.0402 248.659 20.7447 248.659 20.3014C248.659 19.6119 249.369 19.2376 250.801 19.1982C251.482 19.1982 251.872 19.1489 251.952 19.0406C252.063 18.9815 252.113 18.7451 252.113 18.3511V18.095C252.113 17.8389 252.083 17.6517 252.012 17.5236C251.952 17.3759 251.742 17.3069 251.402 17.3069C250.971 17.3069 250.631 17.2478 250.381 17.1198C250.06 17.0114 249.9 16.8144 249.9 16.5189C249.9 16.2628 250.01 16.056 250.24 15.8885C250.461 15.721 250.811 15.5831 251.282 15.4748L252.153 15.2876L252.283 14.5587C252.303 14.4307 252.313 14.2731 252.313 14.0859C252.313 13.9184 252.293 13.8101 252.253 13.7707C252.213 13.7116 252.113 13.6722 251.962 13.6722H251.642C251.131 13.6722 250.791 13.5441 250.611 13.2979C250.461 13.0713 250.391 12.8645 250.391 12.697C250.391 12.3424 250.661 12.0863 251.192 11.9385C251.512 11.8302 251.782 11.7514 252.012 11.7021C252.233 11.6529 252.383 11.6036 252.443 11.5642C252.593 11.4559 252.663 11.3574 252.663 11.249C252.723 11.121 252.763 10.9437 252.763 10.7171C252.763 10.6087 252.703 10.5398 252.573 10.5102C252.443 10.4807 252.223 10.461 251.902 10.461C251.602 10.461 251.362 10.4511 251.192 10.4314C250.591 10.392 250.15 10.3231 249.88 10.2443C249.48 10.1655 249.269 9.92908 249.269 9.55477C249.269 8.92435 250.23 8.50079 252.153 8.29393C254.395 8.01812 255.677 7.88022 255.997 7.88022C256.297 7.88022 256.518 7.96887 256.668 8.13633C256.898 8.30378 257.018 8.51064 257.018 8.76675C257.018 9.02285 256.908 9.24941 256.698 9.45627C256.568 9.62372 256.147 9.81087 255.416 10.0276C254.966 10.1162 254.656 10.2344 254.485 10.4019C254.445 10.4413 254.425 10.5299 254.425 10.658L254.485 11.0717C254.545 11.2983 254.776 11.4657 255.156 11.5445C255.857 11.7514 256.207 12.0863 256.207 12.5493C256.207 12.9236 255.867 13.2289 255.186 13.4653C254.926 13.5737 254.766 13.6525 254.706 13.7214C254.626 13.8495 254.565 14.0563 254.545 14.3519C254.505 14.5587 254.485 14.6966 254.485 14.7656C254.485 14.9527 254.545 15.0808 254.676 15.1399C254.786 15.1793 254.986 15.2088 255.286 15.2187C255.587 15.2285 255.837 15.2679 256.057 15.327C256.528 15.4945 256.758 15.7604 256.758 16.1151C256.758 16.2234 256.748 16.3022 256.728 16.3712C256.668 16.647 256.468 16.8637 256.137 17.0311C255.807 17.1986 255.457 17.2872 255.096 17.2872C254.816 17.2872 254.616 17.3168 254.485 17.3857C254.355 17.5138 254.285 17.7896 254.265 18.2033C254.245 18.3117 254.235 18.4299 254.235 18.5776C254.235 18.7845 254.275 18.9322 254.365 19.0209C254.495 19.1095 255.076 19.1686 256.127 19.208C256.538 19.2277 256.888 19.2573 257.199 19.3065C257.509 19.3459 257.739 19.405 257.889 19.4641C258.21 19.5725 258.4 19.7794 258.47 20.0946C258.49 20.134 258.5 20.2128 258.5 20.3113C258.5 20.459 258.47 20.6166 258.4 20.7841C258.27 21.0106 258.09 21.1978 257.859 21.316C257.669 21.4046 256.658 21.4441 254.846 21.4441C254.636 21.4441 254.025 21.4243 253.024 21.3849L253.014 21.3751ZM252.603 3.94011C252.944 3.94011 253.324 4.10757 253.755 4.44247C254.395 4.90544 254.716 5.33885 254.716 5.73286C254.716 5.98897 254.575 6.21552 254.295 6.42238C254.145 6.55043 253.975 6.60954 253.785 6.60954C253.484 6.60954 253.174 6.47163 252.853 6.19582C252.533 5.92002 252.293 5.62451 252.113 5.3093C251.982 5.01379 251.922 4.77738 251.922 4.58038C251.922 4.41292 251.972 4.25532 252.083 4.10757C252.253 3.97951 252.423 3.92041 252.593 3.92041L252.603 3.94011Z" fill="#534741"/>
</g>
<defs>
<clipPath id="clip0_116_346">
<rect width="258" height="25" fill="white" transform="translate(0.5)"/>
</clipPath>
</defs>
</svg>
