<svg width="410" height="98" viewBox="0 0 410 98" fill="none" xmlns="http://www.w3.org/2000/svg">
<path d="M7.53 34.3592C6.63 33.6623 6.19 33.055 6.19 32.5472C6.19 32.3879 6.22 32.2585 6.29 32.1688C6.55 31.7507 6.96 31.5516 7.54 31.5516C7.73 31.5516 8.12 31.6113 8.69 31.7407C9.43 31.9996 9.86 32.1191 9.99 32.1191C10.18 32.1191 10.5 31.0338 10.95 28.8733C11.27 27.121 11.43 26.0656 11.43 25.7172C11.43 25.4981 11.4 25.3488 11.33 25.289C11.23 25.1895 10.51 25.1795 9.17 25.2393L7.2 25.3786L6 27.7682C4.08 31.5914 2.5 33.503 1.25 33.503C0.96 33.503 0.66 33.3736 0.34 33.1247C0.12 32.9355 0 32.6667 0 32.3082C0 31.7706 0.24 31.0936 0.72 30.2971C1.26 29.4408 1.84 28.3855 2.45 27.1409L3.36 25.2791L2.83 24.851C2.41 24.5324 2.25 24.1839 2.35 23.7956C2.35 23.6064 2.38 23.4471 2.45 23.3177C2.64 23.1285 2.75 23.029 2.79 23.029C2.92 22.9294 3.14 22.8398 3.46 22.7402C4.61 22.3221 5.27 21.3662 5.43 19.8728C5.43 19.4546 5.38 19.2157 5.29 19.1559C5.13 19.0564 4.78 18.9966 4.23 18.9668C2.95 18.7776 2.31 18.3495 2.31 17.6725C2.31 16.9357 3.08 16.4578 4.61 16.2387C5.03 16.2089 5.38 16.1292 5.67 15.9998C5.86 15.8704 6.02 15.7011 6.15 15.4721C6.25 15.2132 6.29 14.8847 6.29 14.4665C6.29 13.1622 6.72 12.5051 7.59 12.5051C8.29 12.5051 8.79 13.2021 9.08 14.6059L9.27 15.5617L10.81 15.4622C11.83 15.4024 12.41 15.3029 12.54 15.1734C12.6 15.1436 12.64 14.9345 12.64 14.5561C12.64 13.9787 12.61 13.4709 12.54 13.0229L12.35 11.0615L10.96 10.8723C10.51 10.8126 10.08 10.7727 9.67 10.7727C8.77 10.7727 7.61 10.8723 6.17 11.0615C4.83 11.2208 3.9 11.3004 3.38 11.3004C2.84 11.3004 2.44 11.2407 2.18 11.1112C1.86 10.9221 1.7 10.6632 1.7 10.3446C1.7 10.1554 1.75 9.96627 1.84 9.76714C2.06 9.31911 3.36 8.81134 5.73 8.23387C7.43 7.81571 8.98 7.61658 10.39 7.61658C12.5 7.61658 14.04 8.12435 15 9.14985C15.83 10.0459 16.25 12.1168 16.25 15.3626C16.25 18.6084 15.9 22.2424 15.19 26.4539C14.52 30.7252 13.86 33.3835 13.22 34.4389C12.71 35.2055 11.96 35.5839 10.96 35.5839C9.81 35.5839 8.67 35.1657 7.55 34.3393L7.53 34.3592ZM10.12 22.1229C11.11 22.1229 11.69 22.0433 11.85 21.884C12.01 21.7247 12.14 21.1074 12.23 20.0221L12.33 18.8772L11.13 18.7776H10.79C10.15 18.7776 9.7 18.8871 9.45 19.1161C9.13 19.3352 8.89 19.8131 8.73 20.5498C8.63 21.3762 8.57 21.8242 8.54 21.884C8.54 21.9835 9.07 22.0632 10.12 22.1229ZM20.68 10.8026C21.26 9.78706 22.41 8.92086 24.14 8.22392C25.07 7.84558 25.95 7.64645 26.78 7.64645C28.32 7.64645 29.53 8.22392 30.43 9.36889C31.33 10.5437 31.77 11.8181 31.77 13.1921C31.77 14.1778 31.56 15.1834 31.15 16.1989L30.57 17.6824L31.1 18.8274C31.48 19.6239 31.68 20.7091 31.68 22.0731C31.68 23.4372 31.49 24.4428 31.1 25.1795C30.59 26.1353 29.88 26.8721 28.99 27.3799C28.28 27.798 27.63 27.9972 27.02 27.9972C26.76 27.9972 26.57 27.9772 26.44 27.9474C25.99 27.8478 25.62 27.6089 25.34 27.2305C25.08 26.882 24.96 26.5435 24.96 26.2249C24.96 25.6475 25.38 25.1696 26.21 24.7912C27.01 24.3731 27.51 23.8653 27.7 23.2579C27.86 22.6805 27.94 22.1926 27.94 21.7745C27.94 20.978 27.73 20.2312 27.32 19.5243C26.9 18.8871 26.7 18.3594 26.7 17.9512C26.7 17.543 26.89 16.8859 27.28 15.9898C27.76 14.7752 28 13.7596 28 12.9333C28 12.296 27.87 11.7982 27.62 11.4498C27.33 11.0316 26.9 10.8325 26.33 10.8325C25.79 10.8325 25.1 11.0216 24.27 11.4099L23.21 11.8878L23.35 13.6999C23.77 18.8971 23.97 23.2878 23.97 26.892C23.97 28.1067 23.95 28.9629 23.92 29.4707C23.76 33.1047 23.26 35.2055 22.43 35.783C22.17 35.9423 21.92 36.0219 21.66 36.0219C21.53 36.0219 21.37 35.9921 21.18 35.9224C20.8 35.8228 20.51 35.554 20.32 35.106C20.22 34.8471 20.18 33.0848 20.18 29.7992C20.18 27.0911 20.2 24.831 20.23 23.009C20.26 15.3925 20.42 11.3203 20.71 10.7727L20.68 10.8026Z" fill="#534741"/>
<path d="M41.51 20.0221C41.25 19.833 41.13 19.604 41.13 19.3551C41.13 19.0365 41.25 18.7577 41.49 18.5187C41.73 18.2798 42.11 18.0309 42.62 17.782L43.72 17.2045V13.5207C43.72 11.0017 43.8 9.48837 43.96 8.9806C44.25 8.12435 44.6 7.68627 45.02 7.68627C45.21 7.68627 45.44 7.76592 45.69 7.92523C45.98 8.1144 46.23 8.71177 46.46 9.71736C46.69 10.7229 46.84 12.087 46.94 13.7995L47.08 16.3284L47.99 16.189C48.47 16.1292 49.05 15.9699 49.72 15.7111L50.44 15.4223L50.73 12.6943C50.92 10.9121 51.07 9.05029 51.16 7.09885L51.21 6.00366C51.21 5.46602 51.23 5.10759 51.26 4.94829L51.4 3.80331C51.46 3.48471 51.53 3.29554 51.59 3.22585C51.69 3.12628 51.8 3.06654 51.93 3.03668C52.25 2.93711 52.56 2.98689 52.87 3.17606C53.17 3.36523 53.41 3.67388 53.57 4.08209C53.86 4.77903 54.02 5.59545 54.05 6.52139C54.11 7.73606 54.24 8.38322 54.43 8.48278C54.53 8.51265 54.77 8.53256 55.17 8.53256H56.15C57.11 8.53256 57.69 8.69186 57.88 9.01046C58.01 9.2295 58.07 9.4585 58.07 9.67754C58.07 10.4143 57.19 11.0017 55.43 11.4498L54.18 11.7385L53.99 14.4167H55.38C56.88 14.4167 57.64 14.8747 57.64 15.8007C57.64 16.4677 57.27 16.9656 56.54 17.2842C55.68 17.6625 54.19 18.1304 52.08 18.6681C50.03 19.1759 47.89 19.594 45.65 19.9126C43.76 20.1715 42.7 20.291 42.48 20.291C42.1 20.291 41.77 20.1914 41.52 20.0022L41.51 20.0221ZM54.81 34.5982C56.02 34.5683 57.35 34.4887 58.79 34.3592C60.65 34.2298 62.26 34.1701 63.64 34.1701C65.43 34.1701 66.52 34.2398 66.9 34.3592C67.48 34.5783 67.76 34.9964 67.76 35.6038C67.76 36.241 67.5 36.699 66.99 36.9877C66.73 37.147 64.97 37.3262 61.71 37.5154C59.82 37.6448 58 37.7046 56.24 37.7046L54.13 37.6548C52.18 37.595 51.04 37.386 50.72 37.0375C50.4 36.6591 50.3 36.2609 50.43 35.8427C50.65 35.106 52.11 34.6978 54.8 34.5982H54.81ZM52.74 28.1465C52.74 27.6985 53.01 27.35 53.56 27.0911C53.98 26.902 55.02 26.663 56.68 26.3743C58.22 26.0855 59.83 25.9462 61.53 25.9462C62.43 25.9462 63.27 26.0258 64.07 26.1851C64.52 26.2847 64.85 26.5336 65.08 26.9517C65.24 27.2106 65.32 27.4595 65.32 27.7184C65.32 27.9772 65.22 28.2062 65.01 28.4153C64.8 28.6244 64.51 28.7937 64.12 28.9131C63.67 29.0724 61.98 29.2118 59.03 29.3413C57.04 29.401 55.86 29.4408 55.48 29.4408C54.74 29.4408 54.18 29.411 53.8 29.3413C53.13 29.1521 52.78 28.8036 52.74 28.2859V28.1465ZM63.88 8.65204C64.07 6.64086 64.28 5.43615 64.5 5.01798C64.63 4.79894 64.92 4.6496 65.36 4.58986H65.55C65.9 4.58986 66.17 4.69938 66.37 4.92838C66.53 5.11755 66.66 6.10322 66.75 7.89536C66.85 9.42863 66.94 10.3048 67.04 10.5238C67.04 10.5537 67.09 10.5736 67.18 10.5736C67.37 10.5736 67.8 10.474 68.48 10.2849C69.34 10.0658 70.08 9.94636 70.69 9.94636C71.87 9.94636 72.47 10.3944 72.47 11.2805C72.47 12.1069 71.76 12.7142 70.36 13.0926C69.5 13.3514 69 13.4709 68.87 13.4709C68.71 13.4709 68.53 13.5008 68.32 13.5705C68.11 13.6302 67.91 13.6999 67.72 13.7596C67.3 13.8592 67.05 13.9687 66.95 14.0981C66.85 14.2276 66.81 14.5561 66.81 15.1037C66.81 15.7111 66.97 16.2686 67.29 16.7764C67.48 17.0651 67.74 17.2244 68.06 17.2543C68.38 17.314 68.94 17.3539 69.74 17.3539C71.82 17.3539 73.21 17.2941 73.92 17.1647C74.05 17.1348 74.22 17.1149 74.45 17.1149C74.74 17.1149 74.95 17.1946 75.07 17.3539C75.29 17.6426 75.41 17.9911 75.41 18.4092C75.41 18.9867 75.25 19.5044 74.93 19.9823C74.58 20.52 74.13 20.8784 73.59 21.0377C73.27 21.1373 72.65 21.1771 71.72 21.1771C68.3 21.1771 66.02 20.6195 64.9 19.5044C63.97 18.5785 63.51 16.7465 63.51 14.0085C63.51 13.1822 63.64 11.4 63.89 8.65204H63.88Z" fill="#534741"/>
<path d="M84.8 31.4918C84.93 31.0737 85.2 30.8745 85.62 30.8745C86 30.8745 86.44 30.9841 86.92 31.213C87.85 31.6312 88.49 31.7706 88.84 31.6412C89.16 31.4819 89.34 30.546 89.37 28.8235C89.37 27.3301 89.26 26.4539 89.03 26.1951C88.93 26.0955 88.79 26.0557 88.6 26.0557C88.22 26.0557 87.74 26.1652 87.16 26.3942C86.39 26.6531 85.85 26.7725 85.53 26.7725C85.21 26.7725 84.99 26.6829 84.88 26.5137C84.77 26.3444 84.71 26.0557 84.71 25.6773C84.71 25.3587 84.89 25.0401 85.24 24.7215C85.56 24.4029 86.28 23.9449 87.4 23.3376L89.13 22.3818L89.27 19.136C89.3 18.688 89.32 18.1205 89.32 17.4136C89.32 16.2686 89.22 15.5518 89.03 15.263C88.9 15.044 88.64 14.9046 88.24 14.8548C87.84 14.805 87.11 14.7652 86.06 14.7353H85.34L83.9 14.6856C83.74 14.6557 83.55 14.5263 83.32 14.3072C83.22 14.1479 83.18 14.0384 83.18 13.9687C83.18 13.1722 84.33 12.6644 86.64 12.4354C87.76 12.3757 88.45 12.2662 88.7 12.0969C88.96 11.9376 89.1 11.3801 89.13 10.4243C89.13 9.56802 89.27 9.02042 89.56 8.80138C89.85 8.51265 90.1 8.37326 90.33 8.37326C90.49 8.37326 90.63 8.433 90.76 8.56243C91.18 8.85116 91.51 9.53815 91.77 10.6134C91.9 11.6987 92.12 12.3359 92.44 12.525C92.76 12.7142 93.21 12.8138 93.78 12.8138C94.42 12.8436 94.84 13.0029 95.03 13.2917L95.13 13.67C95.13 13.7994 95.07 13.9687 94.94 14.1977C94.75 14.5163 94.3 14.7254 93.6 14.815C93.09 14.9146 92.75 15.034 92.59 15.1933C92.46 15.3228 92.4 15.6414 92.4 16.1491L92.5 17.7222C92.53 19.2555 92.64 20.1118 92.84 20.3009C92.97 20.4304 93.19 20.4901 93.51 20.4901C93.8 20.4901 94.18 20.4403 94.66 20.3507C95.11 20.2511 95.48 20.2113 95.76 20.2113C96.37 20.2113 96.65 20.4702 96.62 20.978V21.1671C96.62 21.4857 96.51 21.7247 96.28 21.884C96.02 22.1727 95.48 22.5411 94.65 22.9792L92.92 23.8852L92.82 28.3755L92.72 32.2485C92.72 33.2043 92.64 33.8415 92.48 34.1601C92.38 34.5783 92.21 34.9068 91.95 35.1657C91.57 35.5839 91.1 35.783 90.56 35.783C90.02 35.783 89.38 35.5739 88.64 35.1657C85.82 33.6723 84.54 32.4377 84.8 31.4819V31.4918ZM101.7 14.1977C101.7 13.8791 101.89 13.5306 102.28 13.1423C102.5 12.9233 103.1 12.7242 104.06 12.5649C105.02 12.4056 106.43 12.2463 108.28 12.087L111.54 11.848L113.51 11.6588C114.18 11.5294 114.87 11.4697 115.57 11.4697C116.82 11.4697 117.75 11.6887 118.35 12.1367C118.77 12.5151 118.97 12.983 118.97 13.5207V13.6601C118.97 14.2674 118.76 14.6159 118.35 14.7154C118.16 14.815 117.61 14.9046 116.72 15.0042C115.95 15.1635 115.02 15.263 113.94 15.2929L110.44 15.4323L108.62 15.4821L106.89 15.4323C104.87 15.3725 103.63 15.3228 103.15 15.2929C102.83 15.263 102.48 15.1236 102.09 14.8648C101.83 14.6059 101.71 14.3869 101.71 14.1977H101.7ZM103.43 31.2031C103.43 30.8546 103.53 30.536 103.72 30.2473C103.91 29.8988 104.18 29.7196 104.54 29.7196C104.92 29.7196 105.68 30.0183 106.8 30.6256C107.89 31.2031 108.58 31.4719 108.86 31.442C109.37 31.3425 109.63 28.9729 109.63 24.3233C109.63 21.426 109.84 19.7235 110.25 19.2057C110.5 18.8573 110.81 18.678 111.16 18.678C111.45 18.678 111.75 18.8373 112.07 19.1559C112.68 19.7334 113.06 21.6849 113.22 25.0302L113.27 27.1807C113.27 29.859 113.08 31.9797 112.69 33.5329C112.31 35.2852 111.46 36.1613 110.15 36.1613C109.86 36.1613 109.64 36.1414 109.48 36.1115C109.06 36.012 108.31 35.6635 107.22 35.0562C106 34.3194 105.12 33.732 104.58 33.284C104.04 32.8061 103.67 32.2983 103.48 31.7507C103.45 31.6213 103.43 31.4321 103.43 31.1732V31.2031Z" fill="#534741"/>
<path d="M127.62 11.5692C127.75 9.27928 127.84 7.8854 127.91 7.4075C128.04 6.86986 128.36 6.4716 128.87 6.21274C129.64 5.79457 131.01 5.47597 133 5.25693C133.67 5.15737 134.26 5.11755 134.78 5.11755C135.39 5.11755 135.8 5.16733 136.03 5.25693C136.64 5.41623 137.13 5.70497 137.52 6.11318C137.9 6.53134 138.21 7.14863 138.43 7.97501C138.65 8.87108 138.77 10.4442 138.77 12.7043C138.77 13.6601 138.71 14.3769 138.58 14.8548C138.32 16.0994 137.86 16.9456 137.19 17.3837C136.39 17.7322 135.09 17.9214 133.3 17.9612L130.52 18.0608V21.3563C130.49 25.528 130.4 28.953 130.26 31.6312C130.12 34.3095 129.96 35.9025 129.8 36.4102C129.54 37.3063 129.11 37.7444 128.5 37.7444C127.89 37.7444 127.46 37.4855 127.21 36.9777C127.08 36.47 127.02 35.086 127.02 32.816C127.02 26.9219 127.23 19.833 127.64 11.5493L127.62 11.5692ZM130.55 12.525C130.65 12.4255 130.68 12.3359 130.65 12.2363C130.65 11.7584 131.23 11.4099 132.38 11.1809C132.76 11.0814 133.07 11.0416 133.29 11.0416C133.58 11.0416 133.8 11.1013 133.96 11.2307C134.38 11.4498 134.62 11.7285 134.68 12.0471V12.1865C134.68 12.4454 134.49 12.7142 134.1 13.0029C133.75 13.3514 133.27 13.5306 132.66 13.5306C131.73 13.5306 131.14 13.4012 130.88 13.1523L130.5 12.774L130.64 14.1081C130.67 14.6457 130.72 14.9643 130.78 15.0639C130.81 15.1635 130.94 15.2033 131.16 15.2033C132.38 15.2033 133.38 15.1436 134.16 15.034C134.94 14.9245 135.4 14.805 135.53 14.6756C135.59 14.4864 135.63 13.1921 135.63 10.8026C135.63 9.58793 135.57 8.89099 135.44 8.70182C135.38 8.57239 134.83 8.51265 133.81 8.51265C132.66 8.51265 131.78 8.56243 131.17 8.65204L130.35 8.79142V10.5139C130.32 11.629 130.38 12.296 130.54 12.525H130.55ZM136.02 26.8124C136.12 26.7128 136.37 26.6331 136.79 26.5734C137.01 26.5734 137.17 26.5535 137.27 26.5236C138.07 26.3643 138.52 26.2349 138.61 26.1453C138.7 26.0557 138.75 25.747 138.75 25.2393C138.75 24.7912 138.73 24.4428 138.7 24.1839L138.6 22.8497L137.64 22.6606C137.1 22.561 136.74 22.4714 136.56 22.3718C136.38 22.2723 136.3 22.113 136.3 21.8939C136.3 21.3165 136.92 20.8386 138.17 20.4602C138.78 20.4005 139.53 20.281 140.43 20.1217C141.07 19.9923 141.92 19.8529 142.97 19.6936C143.55 19.594 144.12 19.5542 144.7 19.5542C144.96 19.5542 145.4 19.5841 146.04 19.6538C146.97 19.7832 147.62 20.0321 148.01 20.4204C148.3 20.6096 148.44 20.8187 148.44 21.0377C148.44 21.2966 148.01 21.7346 147.14 22.3718C146.98 22.4316 146.9 22.6705 146.9 23.0887C146.9 23.4372 146.92 23.7259 146.95 23.9449L147.14 25.7172L148.2 26.0059C148.36 26.0756 148.64 26.1552 149.04 26.2648C149.44 26.3743 149.71 26.4938 149.86 26.6232C150 26.7526 150.08 26.9219 150.08 27.1509C150.08 27.2504 150.06 27.3301 150.03 27.4097C150 27.4894 149.97 27.5591 149.93 27.6288L149.83 27.8179C149.7 28.0768 149.48 28.266 149.16 28.3954C148.9 28.5248 148.58 28.6344 148.2 28.7339C148.04 28.7638 147.84 28.8136 147.6 28.8733C147.36 28.933 147.22 29.0027 147.19 29.0625L147.14 30.0183L147.09 32.1688C146.96 33.8913 146.8 34.9566 146.61 35.3748C146.55 35.6635 146.43 35.8527 146.25 35.9523C146.07 36.0518 145.82 36.0916 145.51 36.0916C144.9 36.0916 144.48 35.8328 144.26 35.325C144.04 34.7177 143.92 33.5229 143.92 31.7407L143.78 28.7339H142.58C142.29 28.7339 142.06 28.7638 141.88 28.8335C141.7 28.9032 141.6 28.933 141.57 28.933C141.44 28.9928 141.28 29.8092 141.09 31.3723C140.9 32.5173 140.53 33.4433 139.99 34.1402C139.61 34.5584 139.22 34.7575 138.84 34.7575C138.65 34.7575 138.49 34.7376 138.36 34.7077C137.94 34.7077 137.74 34.4389 137.74 33.8913C137.74 33.4134 137.87 32.6965 138.12 31.7407C138.34 30.4663 138.42 29.6101 138.36 29.162C138.33 28.8733 137.94 28.6841 137.21 28.5846C136.67 28.485 136.27 28.3456 136.03 28.1565C135.79 27.9673 135.67 27.6786 135.67 27.3002C135.67 27.1409 135.78 26.9816 136.01 26.8223L136.02 26.8124ZM141.16 23.3675C141.16 23.4969 141.22 23.9051 141.35 24.612L141.59 26.0955L142.65 26.0457L144.04 25.9959L144.18 24.5622L144.23 23.7956C144.23 23.0986 144.18 22.7303 144.09 22.7004C143.9 22.571 143.67 22.5212 143.39 22.5311C143.12 22.5511 142.93 22.5511 142.84 22.5511H142.55C141.94 22.5511 141.53 22.6606 141.3 22.8896C141.2 22.9891 141.16 23.1484 141.16 23.3675ZM148 9.06025C148.11 7.89536 148.33 7.04907 148.65 6.50147C148.97 5.86427 149.75 5.32663 151 4.87859C151.64 4.71929 152.7 4.63964 154.17 4.63964H155.37C157.07 4.69938 158.09 4.79894 158.44 4.92838C158.66 5.02794 158.9 5.23702 159.14 5.57554C159.38 5.91405 159.56 6.153 159.69 6.3123C159.85 6.50147 160.01 7.20837 160.17 8.41308C160.2 8.76156 160.23 9.24942 160.24 9.86671C160.25 10.484 160.28 11.2606 160.31 12.1865C160.31 13.1423 160.33 13.909 160.36 14.4765C160.42 17.2145 160.46 19.1559 160.46 20.3109C160.46 27.5392 159.98 32.9654 159.02 36.5596C158.8 37.1371 158.51 37.6249 158.16 38.0431C157.78 38.4911 157.34 38.8197 156.87 39.0487C156.52 39.1482 156.2 39.1781 155.91 39.1482C155.08 39.2478 154.26 38.8595 153.46 38.0033C152.92 37.5253 152.63 37.0674 152.6 36.6193C152.6 35.7631 152.92 35.4047 153.56 35.564C153.59 35.5341 153.66 35.5142 153.75 35.5142C153.91 35.5142 154.18 35.5938 154.57 35.7531L155.19 35.9423L155.33 35.8427C155.52 35.6834 155.76 34.5683 156.05 32.4974C156.31 30.5261 156.45 28.7339 156.48 27.1409C156.61 25.3289 156.67 23.3177 156.67 21.1173L156.57 18.0608H153.16C151.59 18.0608 150.42 18.001 149.66 17.8716C149.05 17.6824 148.59 17.314 148.27 16.7764C148.01 16.3284 147.85 15.2332 147.79 13.4808C147.82 11.6987 147.89 10.2251 148.01 9.06025H148ZM150.85 13.8393C150.91 14.4964 150.98 14.8548 151.04 14.9146C151.26 15.0739 152.08 15.1535 153.49 15.1535C154.9 15.1535 155.79 15.0938 156.18 14.9643L156.71 14.7752L156.61 11.5692C156.58 9.46845 156.47 8.30357 156.27 8.08453C156.11 7.92523 155.09 7.79579 153.2 7.70619C152.24 7.64645 151.62 7.60662 151.33 7.60662C151.01 7.60662 150.82 7.63649 150.75 7.70619C150.68 7.77588 150.65 8.12435 150.65 8.76156L150.7 11.39C150.73 12.3757 150.78 13.2021 150.84 13.8492L150.85 13.8393ZM151.57 12.525C151.31 12.306 151.19 12.0671 151.19 11.8082C151.19 11.4896 151.29 11.2108 151.48 10.9719C151.67 10.7329 151.94 10.5637 152.3 10.474C152.68 10.3446 153.1 10.2948 153.55 10.3347H154.13C154.87 10.3944 155.38 10.494 155.67 10.6234C156.18 10.9121 156.44 11.3203 156.44 11.8679C156.44 12.2861 156.15 12.6047 155.58 12.8237C155.2 12.983 154.7 13.0328 154.09 12.9631C153.9 12.993 153.72 13.0029 153.56 12.983C153.4 12.9631 153.26 12.9631 153.13 12.9631C152.71 12.9333 152.2 12.7839 151.59 12.535L151.57 12.525Z" fill="#534741"/>
<path d="M171.3 39.9746C170.92 39.9248 170.6 39.8053 170.34 39.6162C169.92 39.3274 169.72 38.9989 169.72 38.6106C169.72 38.2621 169.9 37.9535 170.25 37.7046C170.54 37.4855 171.13 37.3262 172.03 37.2267C173.31 37.0972 174.03 36.928 174.19 36.699C174.35 36.5397 174.43 35.8228 174.43 34.5484C174.43 33.274 174.51 32.2983 174.67 31.7308C174.8 31.3126 175.18 30.9044 175.82 30.4862C176.68 29.9088 177.88 29.4707 179.42 29.1521C180.96 28.8335 182.94 28.5746 185.37 28.3855C188.31 28.1963 190.58 28.0967 192.19 28.0967C193.95 28.0967 195.07 28.2062 195.55 28.4352C196.16 28.6941 196.58 29.1421 196.82 29.7992C197.06 30.4564 197.18 31.2728 197.18 32.2585C197.18 33.055 197.13 33.8813 197.04 34.7475L196.9 36.231L198.53 36.3704C199.55 36.47 200.26 36.6094 200.64 36.7985C201.22 37.0873 201.46 37.5751 201.36 38.282C201.23 39.0188 200.88 39.4967 200.3 39.7157C199.88 39.9049 196.81 40.0045 191.08 40.0045H186.23L180.57 40.0543H173.47C172.41 40.0543 171.69 40.0343 171.31 39.9846L171.3 39.9746ZM171.54 12.764C171.54 12.3857 171.64 12.1069 171.83 11.9476C172.05 11.7285 172.55 11.4199 173.32 11.0416C174.5 10.3745 176.63 8.83125 179.7 6.40191C182.03 4.58986 183.46 3.51458 183.97 3.19598C184.39 2.93711 184.72 2.81764 184.98 2.81764C185.24 2.81764 185.57 2.9172 185.99 3.12628C186.41 3.33537 186.69 3.4648 186.86 3.53449L188.11 4.20156C189.36 4.86864 191.23 5.90409 193.73 7.30793C195.68 8.45291 196.72 9.09012 196.85 9.21955C197.23 9.59789 197.43 9.96627 197.43 10.3147C197.43 10.6333 197.29 10.932 197 11.2208C196.71 11.5095 196.33 11.6489 195.85 11.6489C195.21 11.6489 194.12 11.3004 192.59 10.5935C191.15 9.95631 189.89 9.28924 188.8 8.58234C187.49 7.78584 186.48 7.04907 185.78 6.382L185.16 5.71492L183.53 7.28802C180.94 9.73728 178.67 11.5891 176.71 12.8337C175.27 13.7298 174.05 14.1678 173.06 14.1678C172.16 14.1678 171.67 13.7895 171.57 13.0229V12.7341L171.54 12.764ZM177.64 34.6978L177.69 36.47H181.1L181.2 34.9367C181.23 34.1999 181.37 33.6523 181.63 33.284C181.89 32.9156 182.21 32.7364 182.59 32.7364C182.91 32.7364 183.21 32.9255 183.5 33.3138C183.76 33.6922 183.88 34.1302 183.88 34.6081C183.88 35.3449 184.01 35.8029 184.26 35.9921C184.39 36.1215 184.68 36.1812 185.12 36.1812C185.44 36.1812 185.68 36.1613 185.84 36.1315L187.18 35.9921L187.32 34.7475C187.42 33.8913 187.66 33.3437 188.04 33.1247C188.33 32.9355 188.57 32.8359 188.76 32.8359C189.01 32.8359 189.3 32.9952 189.62 33.3138C190 33.732 190.2 34.2398 190.2 34.8471C190.2 35.4843 190.34 35.9025 190.63 36.0916C190.89 36.2808 191.41 36.3505 192.21 36.2808L193.27 36.231V31.8303H191.78C190.37 31.8303 189.4 31.8502 188.85 31.8801C182.39 32.3282 178.93 32.6169 178.48 32.7364L177.52 32.9753L177.62 34.6978H177.64ZM178.53 20.739C178.61 20.2014 178.71 19.833 178.84 19.6438C179 19.2953 179.35 18.9767 179.9 18.688C180.38 18.4291 181.07 18.1802 181.96 17.9214C182.7 17.7023 183.54 17.5032 184.5 17.3439C185.97 17.2145 186.95 17.1547 187.43 17.1547C188.61 17.1547 189.46 17.2941 189.97 17.5828C191.03 18.1205 191.51 19.4447 191.41 21.5455C191.25 23.2679 190.9 24.4328 190.36 25.0302C189.69 25.7968 188.61 26.2747 187.14 26.4639C186.44 26.5236 185.89 26.5634 185.51 26.5634C184.87 26.5634 184.21 26.5137 183.54 26.4241C182.1 26.2349 180.96 25.976 180.13 25.6574C179.43 25.309 178.95 24.8808 178.69 24.3631C178.5 23.9848 178.4 23.4372 178.4 22.7402C178.4 21.9437 178.44 21.2766 178.52 20.729L178.53 20.739ZM180.76 13.3813C180.76 12.9631 180.89 12.6943 181.14 12.5649C181.78 12.087 183.03 11.6688 184.88 11.3203C185.01 11.2905 185.23 11.2705 185.55 11.2705C185.74 11.2705 186.22 11.3004 186.99 11.3701C187.95 11.4697 188.62 11.629 189.01 11.848C189.52 12.1367 189.83 12.545 189.92 13.0926V13.2817C189.92 13.6302 189.68 13.9388 189.2 14.1877C188.75 14.4068 187.41 14.5661 185.17 14.6657C184.79 14.6955 184.27 14.7154 183.63 14.7154C182.38 14.7154 181.61 14.6159 181.33 14.4267C181.01 14.2077 180.82 13.899 180.75 13.5207V13.3813H180.76ZM181.62 22.9393H184.45C185.99 22.9393 186.95 22.8597 187.33 22.7004C187.65 22.5411 187.78 22.1229 187.71 21.4559L187.66 20.739L185.12 20.6892C183.46 20.6295 182.43 20.6892 182.05 20.8784C181.86 20.9381 181.71 21.0676 181.62 21.2567C181.52 21.4459 181.49 21.6849 181.52 21.9736L181.62 22.9294V22.9393Z" fill="#534741"/>
<path d="M220.6 34.409C220.38 33.9013 220.26 33.513 220.26 33.264C220.26 32.7563 220.5 32.4078 220.98 32.2087C221.11 32.1489 221.23 32.1091 221.36 32.1091C221.71 32.1091 222.18 32.2485 222.75 32.5372C223.39 32.8558 223.74 33.0151 223.81 33.0151C223.97 33.0151 224.18 32.8857 224.43 32.6368C225.33 31.7407 225.74 29.8192 225.68 26.8522L225.58 22.7402H219.44C217.52 22.7402 215.99 22.6904 214.86 22.6008C213.72 22.5013 213.06 22.4117 212.87 22.3121C212.68 22.1528 212.58 21.884 212.58 21.4957C212.58 20.8585 212.92 20.3806 213.59 20.062C215.03 19.3949 217.57 19.0564 221.22 19.0564C222.56 19.0564 223.51 18.9767 224.05 18.8174C224.31 18.688 224.45 18.5785 224.48 18.4789V18.3395C224.48 18.1802 224.43 17.9911 224.34 17.7621C224.28 17.5032 224.24 17.3041 224.24 17.1448C224.24 16.0297 224.96 14.596 226.4 12.8436C227.65 11.2208 228.54 10.026 229.09 9.25937L230.1 7.77588L229.43 7.48715C229.08 7.32785 228.33 7.2482 227.17 7.2482C226.11 7.2482 225.25 7.27807 224.58 7.34776C221.86 7.60662 219.84 7.92523 218.53 8.30357C217.99 8.46287 217.43 8.60226 216.85 8.73169C216.59 8.73169 216.37 8.62217 216.18 8.39317C215.83 8.0447 215.65 7.70619 215.65 7.38759C215.65 6.72051 216.53 6.00366 218.29 5.23702C220.79 4.12191 223.78 3.56436 227.27 3.56436C229.51 3.56436 231.22 3.82322 232.41 4.331C232.99 4.61973 233.4 5.01798 233.66 5.52575C234.04 6.13309 234.24 6.69064 234.24 7.19841C234.24 7.89536 233.86 8.86112 233.11 10.0857C232.36 11.3104 231.2 12.9432 229.63 14.9843L228.29 16.7067L228.67 17.7621L229.1 18.8174H231.88C235.72 18.8174 238.06 19.136 238.89 19.7732C239.37 20.1914 239.61 20.6295 239.61 21.1074C239.61 21.6152 239.39 22.0433 238.94 22.4017C238.56 22.6904 238.16 22.8497 237.74 22.8796C237.45 22.9095 237.09 22.9194 236.66 22.8995C236.23 22.8796 235.77 22.8796 235.29 22.8796C235.07 22.8497 234.7 22.8298 234.19 22.8298L230.16 22.7303L230.02 27.4595C229.92 30.4265 229.3 32.826 228.15 34.6778C227.25 36.1116 226.1 36.8284 224.69 36.8284C224.4 36.8284 224.18 36.8085 224.02 36.7786C222.45 36.5198 221.32 35.7233 220.61 34.3891L220.6 34.409Z" fill="#534741"/>
<path d="M249.54 26.4241C249.54 25.7869 250.08 24.7315 251.17 23.2679C252.1 22.0532 252.66 21.3364 252.85 21.1173C254.64 18.7278 255.78 17.2742 256.26 16.7664C257.09 15.8704 257.7 15.3626 258.08 15.2332C258.43 15.1037 258.75 15.044 259.04 15.044C259.68 15.044 260 15.3128 260 15.8604C260 16.3682 259.63 17.2145 258.9 18.3893L257.65 20.2014L257.89 22.3021C257.99 23.0986 258.03 24.0545 258.03 25.1696C258.03 25.6176 258 26.4738 257.93 27.7482C257.77 30.0083 257.59 31.4022 257.4 31.91C256.95 32.7662 256.41 33.2043 255.77 33.2043C255.19 33.2043 254.75 32.8857 254.43 32.2485C254.3 31.9996 254.24 31.4321 254.24 30.5758C254.24 30.2572 254.27 29.4309 254.34 28.0868L254.44 25.2691C254.44 24.9505 254.42 24.7912 254.39 24.7912C254.29 24.7912 253.77 25.2193 252.81 26.0855C251.95 26.7825 251.4 27.1807 251.18 27.2803C250.99 27.34 250.84 27.3799 250.75 27.3799C250.49 27.3799 250.24 27.3002 249.98 27.1409C249.69 26.9816 249.55 26.7427 249.55 26.4241H249.54ZM250.26 16.0098C250.26 15.721 250.36 15.4721 250.55 15.2431C251.13 14.4765 252.25 13.2319 253.91 11.5195C256.12 9.25937 257.43 8.12435 257.85 8.12435C258.3 8.12435 258.62 8.28365 258.81 8.60226C258.87 8.73169 258.91 8.86112 258.91 8.9806C258.91 9.55806 258.41 10.5537 257.42 11.9874C256.11 13.7397 254.68 15.2033 253.15 16.3881C252.51 16.9257 251.93 17.2045 251.42 17.2045C251.04 17.2045 250.73 17.0253 250.51 16.6768C250.35 16.418 250.27 16.1989 250.27 16.0098H250.26ZM279.88 38.5708C278.54 37.9933 277.34 37.3959 276.28 36.7587C275.22 36.1215 274.6 35.7432 274.41 35.6137C274.19 35.4843 273.98 35.4544 273.79 35.5142C273.57 35.544 273.05 35.8328 272.25 36.3704C271.26 36.9777 270.22 37.4855 269.13 37.9037C268.01 38.3218 267.21 38.4812 266.73 38.3816C265.87 38.1924 265.43 37.7245 265.43 36.9977C265.43 36.7089 265.48 36.4998 265.57 36.3804C265.63 36.2509 265.78 36.1116 266 35.9523C266.1 35.8925 266.24 35.8129 266.43 35.7332C266.62 35.6536 266.85 35.5341 267.1 35.3748C267.23 35.2752 267.4 35.1856 267.6 35.0861C267.81 34.9865 268.06 34.867 268.34 34.7077C268.53 34.5783 268.75 34.4488 268.99 34.3294C269.23 34.1999 269.41 34.0904 269.54 33.9909C270.02 33.6723 270.34 33.4333 270.5 33.274C270.85 33.055 271.03 32.8558 271.03 32.6965C271.03 32.5372 270.74 32.1191 270.17 31.452C269.82 31.004 269.51 30.7152 269.26 30.5958C269.23 30.5659 269.15 30.546 269.02 30.546C268.83 30.546 268.65 30.5659 268.49 30.5958L268.11 30.6455C267.69 30.6455 267.39 30.5161 267.2 30.2672C266.91 30.0482 266.77 29.7395 266.77 29.3612C266.77 29.172 266.82 28.9828 266.91 28.7837C266.97 28.6244 267.01 28.3655 267.01 28.0171C266.98 27.8578 266.9 27.6487 266.77 27.3998C266.61 27.0812 266.42 26.7825 266.19 26.4938C265.36 25.3786 264.86 24.5324 264.7 23.9648C264.67 23.9051 264.65 23.7856 264.65 23.6263C264.65 23.248 264.84 22.9393 265.23 22.7203C265.55 22.5909 265.77 22.5311 265.9 22.5311C266 22.5311 266.14 22.561 266.33 22.6307C266.68 22.7601 267.23 23.1385 267.96 23.7757C268.02 23.8354 268.21 24.0146 268.51 24.3034C268.81 24.5921 269.03 24.7315 269.16 24.7315C269.19 24.7315 269.32 24.5423 269.54 24.154C269.73 23.8653 269.94 23.4869 270.16 23.009C270.35 22.561 270.45 22.2723 270.45 22.1528C270.45 21.9636 270.59 21.7346 270.88 21.4857C271.2 21.2269 271.46 21.1074 271.65 21.1074C271.91 21.1074 272.19 21.2667 272.51 21.5853C272.77 21.7745 272.89 22.1428 272.89 22.6805C272.89 23.8255 272.62 24.8609 272.07 25.7869C271.65 26.6132 271.45 27.1409 271.45 27.36C271.45 27.4894 271.82 27.9673 272.55 28.7937C273.29 29.5902 273.72 29.9884 273.85 29.9884C273.91 29.9884 274.09 29.8291 274.38 29.5105L275.15 28.5049C275.44 28.1565 275.68 27.8179 275.87 27.4993L276.16 26.9219C276.16 26.8621 276.1 26.8223 275.97 26.8223C275.84 26.8223 275.62 26.8522 275.3 26.9219L274.63 26.9717C274.44 26.9717 274.18 26.9418 273.86 26.8721C273.51 26.7725 273.33 26.5834 273.33 26.2946C273.39 25.6276 273.76 25.07 274.43 24.622C275.26 24.1441 276.05 23.9051 276.78 23.9051C277.84 23.9051 278.6 24.3233 279.08 25.1496C279.43 25.6873 279.61 26.2648 279.61 26.8721C279.61 27.0015 279.58 27.2504 279.51 27.6387C279.25 28.4352 279 29.0923 278.74 29.62C278.48 30.1477 278.07 30.6953 277.49 31.2728C277.46 31.2728 277.39 31.3723 277.3 31.5615C277.04 31.8801 276.88 32.139 276.82 32.3282C276.76 32.5173 276.79 32.6766 276.92 32.8061C276.95 32.8658 277.28 33.0052 277.9 33.2143C278.52 33.4233 279.14 33.8316 279.75 34.4289C279.81 34.4887 279.87 34.5285 279.92 34.5484C279.97 34.5683 280.01 34.5882 280.04 34.6181C280.1 34.6778 280.16 34.7177 280.21 34.7376C280.26 34.7575 280.3 34.7575 280.33 34.7575C280.43 34.7575 280.54 34.8172 280.67 34.9467C281.6 35.2354 282.31 35.544 282.81 35.8826C283.31 36.2211 283.86 36.6193 284.47 37.0972C285.01 37.4457 285.29 37.8937 285.29 38.4314C285.23 39.3274 284.81 39.8352 284.04 39.9646C283.43 40.0642 282.04 39.5963 279.86 38.5807L279.88 38.5708ZM270.23 4.87859C271.06 4.02235 271.72 3.58427 272.2 3.58427C272.87 3.58427 273.21 3.82322 273.21 4.30113C273.21 4.40069 273.18 4.56995 273.11 4.82881C272.98 5.08768 272.44 5.92401 271.48 7.35772C271.06 7.93518 270.74 8.41309 270.5 8.81134C270.26 9.20959 270.16 9.4585 270.19 9.54811C270.29 9.64767 270.72 9.73728 271.49 9.83684C271.78 9.86671 272.09 9.89657 272.43 9.9364C272.77 9.96627 273 9.99614 273.13 10.036C273.26 10.0758 273.47 9.9364 273.78 9.65762C274.08 9.36889 274.43 8.94077 274.81 8.3633C275.93 6.83003 276.84 6.07335 277.55 6.07335C278 6.07335 278.32 6.36208 278.51 6.92959C278.64 7.2482 278.45 7.89536 277.96 8.86112C277.46 9.83684 276.62 11.2108 275.44 12.993C275.12 13.4709 274.86 13.8492 274.67 14.138C274.48 14.4267 274.32 14.6457 274.19 14.805C273.84 15.3128 273.66 15.5816 273.66 15.6215C274.11 15.6513 274.72 15.6513 275.48 15.6215L277.4 15.5717L277.74 14.4765C277.77 14.3769 277.84 14.1877 277.93 13.899C278.03 13.6103 278.14 13.4012 278.27 13.2817C278.49 13.0627 278.78 12.9432 279.13 12.9432C279.51 12.9432 279.83 13.212 280.09 13.7596C280.41 14.5263 280.67 15.5717 280.86 16.9158L281.1 18.4889C281.26 19.604 281.34 20.3706 281.34 20.7788C281.34 21.7048 280.96 22.1628 280.19 22.1628C279.42 22.1628 278.75 21.426 278.27 19.9624C278.14 19.6438 277.97 19.2655 277.74 18.8174C277.68 18.7577 276.78 18.8672 275.05 19.1559C273.35 19.4447 272.14 19.6836 271.4 19.8728C270.57 20.0918 269.91 20.2113 269.43 20.2113C268.95 20.2113 268.49 20.1018 268.04 19.8728C267.5 19.5841 267.22 19.1062 267.22 18.4391C267.22 17.7023 267.59 16.9755 268.32 16.2387C268.51 16.0794 268.8 15.7907 269.18 15.3825C269.79 14.6856 270.16 14.2475 270.28 14.0882C270.57 13.7995 270.87 13.4311 271.19 12.993C271.48 12.7043 271.62 12.4952 271.62 12.3757C271.17 12.3458 270.53 12.3558 269.7 12.4255C269.41 12.4553 269.03 12.4753 268.55 12.4753C267.97 12.4753 267.54 12.4255 267.25 12.3359C266.74 12.1766 266.39 11.8381 266.19 11.3303C266.09 11.0714 266.05 10.8524 266.05 10.6632C266.05 10.5338 266.08 10.3446 266.15 10.0857C266.47 9.2295 267.83 7.48715 270.23 4.87859Z" fill="#534741"/>
<path d="M293.63 32.8061C293.33 32.4078 293.09 31.8104 292.93 31.0139C292.8 30.2772 292.64 28.2261 292.45 24.851C292.32 22.9393 292.26 21.3463 292.26 20.0719C292.26 19.4646 292.28 19.0863 292.31 18.927C292.37 18.5088 292.58 17.8915 292.93 17.0651C293.28 16.2387 293.78 15.2929 294.42 14.2475C295.8 11.858 296.63 10.5537 296.92 10.3247C297.24 10.0658 297.54 9.94636 297.83 9.94636C298.05 9.94636 298.25 10.0061 298.41 10.1355C298.73 10.3546 298.89 10.713 298.89 11.1909C298.89 11.5095 298.83 11.858 298.7 12.2463C298.32 13.5207 297.68 14.7353 296.78 15.8803C296.17 16.7067 295.9 17.1547 295.96 17.2145C296.06 17.314 296.74 17.1647 298.02 16.7863C299.3 16.4677 300.92 16.2587 302.87 16.1691C303.25 16.1392 303.75 16.1193 304.36 16.1193C305.16 16.1193 305.72 16.1691 306.04 16.2587C306.65 16.418 307.11 16.7963 307.43 17.4036C307.88 18.1006 308.1 19.6139 308.1 21.9437C308.1 23.029 308.08 23.8752 308.05 24.4726C307.86 28.1067 307.38 30.4763 306.61 31.5914C305.78 32.7065 303.2 33.264 298.88 33.264C297.82 33.264 296.93 33.284 296.19 33.3337C295.45 33.3835 295.01 33.4034 294.85 33.4034C294.34 33.4034 293.93 33.2043 293.63 32.8061ZM295.72 21.8442C295.94 23.6263 296.12 25.2393 296.25 26.673L296.54 29.9685L298.75 29.9187C300.41 29.859 301.66 29.7296 302.49 29.5404L303.98 29.2019L304.17 26.5236C304.27 25.4085 304.31 24.3531 304.31 23.3675L304.26 21.6948L304.21 19.6438L302.48 19.594C301.55 19.5642 300.22 19.6538 298.5 19.8828C298.31 19.9126 297.88 19.9823 297.2 20.0719C296.53 20.1715 296.11 20.1715 295.95 20.0719L295.81 20.0221C295.75 20.0221 295.68 20.062 295.62 20.1416C295.56 20.2213 295.54 20.3208 295.57 20.4503L295.71 21.8342L295.72 21.8442ZM299.08 24.1341C299.46 24.0345 299.93 23.9947 300.47 23.9947C301.21 23.9947 301.82 24.0545 302.32 24.164C302.82 24.2735 303.14 24.4129 303.3 24.5722C303.65 24.9207 303.83 25.2293 303.83 25.4782C303.83 25.6076 303.78 25.747 303.69 25.9063C303.37 26.3544 302.73 26.6929 301.77 26.9119C301.29 27.0115 300.75 27.0513 300.14 27.0513C298.83 27.0513 298.04 26.9219 297.79 26.673C297.53 26.4141 297.41 26.0855 297.41 25.6674C297.41 25.0003 297.97 24.4925 299.09 24.1341H299.08ZM312.04 14.4367C312.2 14.0882 312.44 13.4808 312.76 12.6246L313.24 11.5692C313.56 10.713 313.82 10.1853 314.01 9.99614C314.39 9.57797 314.79 9.37885 315.21 9.37885C315.91 9.37885 316.27 9.72732 316.27 10.4342C316.27 10.8823 316.17 11.5692 315.98 12.4852C315.76 13.6999 315.36 15.0539 314.78 16.5474C314.33 17.6625 313.85 18.4291 313.34 18.8373C312.99 19.1559 312.6 19.3152 312.19 19.3152C311.78 19.3152 311.45 19.1958 311.23 18.9568C311.01 18.7179 310.89 18.3893 310.89 17.9811C310.89 17.4733 311.05 16.8959 311.37 16.2587L312.04 14.4466V14.4367ZM315.78 20.978C315.97 20.7888 316.32 20.6892 316.84 20.6892C317.36 20.6892 317.99 21.1074 318.76 21.9338C319.59 22.79 320.01 23.5766 320.01 24.2735C320.01 24.5324 319.96 24.7514 319.87 24.9406C319.71 25.2592 319.42 25.4782 319.01 25.6076C318.85 25.6674 318.64 25.7072 318.39 25.7072C317.94 25.7072 317.53 25.518 317.14 25.1297L316.37 24.3133C316.05 23.9648 315.84 23.6761 315.75 23.4571C315.59 23.0389 315.51 22.5809 315.51 22.0731C315.51 21.5654 315.61 21.197 315.8 20.978H315.78ZM317.22 14.8648C317.22 14.5462 317.4 14.2574 317.75 14.0085C318.1 13.7497 318.61 13.5605 319.29 13.4311C320.38 13.212 321.88 13.0926 323.8 13.0926C325.72 13.0926 326.87 13.222 327.35 13.4709C328.37 14.0484 329 14.7951 329.22 15.721C329.35 16.1989 329.41 16.856 329.41 17.6824C329.41 18.5088 329.35 19.2754 329.22 20.0719C328.93 21.8242 328.48 23.9549 327.88 26.4738C327.05 29.5603 326.49 31.4719 326.2 32.2087C325.72 33.513 325.18 34.4787 324.59 35.096C324 35.7133 323.3 36.0319 322.5 36.0319C321.76 36.0319 320.85 35.6934 319.76 35.0263C319.44 34.8371 319.04 34.3891 318.56 33.6922C318.14 33.0848 317.94 32.6268 317.94 32.3082C317.94 32.0494 318.08 31.7806 318.37 31.4918C318.56 31.233 318.79 31.1135 319.04 31.1135C319.26 31.1135 319.68 31.3325 320.29 31.7806C320.99 32.2883 321.43 32.5472 321.59 32.5472C322.04 32.5472 322.79 30.5261 323.85 26.4738C324.52 23.8653 325 21.8342 325.29 20.3806C325.58 18.927 325.69 17.9214 325.63 17.3439L325.49 16.3881L321.75 16.2487C319.19 16.1491 317.8 15.95 317.57 15.6314C317.35 15.2829 317.23 15.0241 317.23 14.8648H317.22Z" fill="#534741"/>
<path d="M338.34 7.83562C339.2 5.06776 339.8 3.5544 340.12 3.29554C340.41 3.00681 340.7 2.86742 340.98 2.86742C341.43 2.86742 341.8 3.02672 342.08 3.34532C342.3 3.66392 342.42 4.19161 342.42 4.91842C342.42 5.55562 342.5 5.87422 342.66 5.87422C342.82 5.84436 343.05 5.79457 343.36 5.73484C343.66 5.6751 344.02 5.59545 344.44 5.49589C347.13 4.98811 349.14 4.72925 350.49 4.72925C351.84 4.72925 352.76 4.91842 353.18 5.30672C353.53 5.65519 353.71 6.04348 353.71 6.45169C353.71 7.18846 353.42 7.67632 352.85 7.93518C352.37 8.12435 349.68 8.35335 344.79 8.60226L341.62 8.74164L341 10.5139C340.26 12.5848 339.43 13.6202 338.5 13.6202C337.8 13.6202 337.35 13.2419 337.16 12.4753C337.1 12.1567 337.5 10.6134 338.36 7.83562H338.34ZM343 39.5266C343.13 39.1781 343.67 38.4911 344.63 37.4756C346.74 35.2454 348.29 33.1545 349.29 31.213C349.87 30.1577 350.09 29.5205 349.96 29.3014C349.86 29.1421 349.46 29.0625 348.76 29.0625C348.38 29.0625 348.07 29.0824 347.85 29.1123C347.15 29.172 346.68 29.2118 346.46 29.2118C345.92 29.2118 345.42 29.182 344.97 29.1123C344.23 29.0824 343.69 28.7737 343.34 28.2062C343.18 27.9573 343.1 27.7482 343.1 27.5889C343.1 27.0513 343.74 26.6132 345.02 26.2946C346.08 25.976 347 25.7869 347.8 25.7172C348.86 25.5579 349.64 25.4782 350.15 25.4782C350.79 25.4782 351.21 25.3488 351.4 25.0999C351.59 24.9107 351.7 24.2735 351.74 23.1883L351.79 21.5654L349.44 21.6649C347.9 21.7247 346.99 21.6152 346.7 21.3264C346.38 21.0078 346.22 20.6394 346.22 20.2312C346.22 20.0122 346.27 19.7832 346.36 19.5642C346.58 19.0564 347.67 18.6382 349.62 18.3196L351.59 17.8915L353.27 17.4634L354.81 17.1249C356.03 16.9058 356.89 16.6967 357.4 16.5076C357.59 16.4478 357.74 16.408 357.83 16.408C358.28 16.408 358.66 16.5673 358.98 16.8859C359.24 17.1448 359.36 17.3937 359.36 17.6525C359.36 18.2897 358.54 18.9568 356.91 19.6637C355.82 20.1118 355.15 20.4602 354.89 20.7191C354.76 20.8485 354.7 21.0676 354.7 21.3862C354.7 21.5455 354.78 22.1528 354.94 23.1982C354.97 23.4172 355.02 23.7956 355.08 24.3233C355.14 24.851 355.19 25.1297 355.22 25.1596C355.28 25.1895 355.44 25.2094 355.7 25.2094C356.28 25.2094 357.03 25.1496 357.96 25.0202C358.82 24.9207 359.58 24.8808 360.22 24.8808C362.78 24.8808 364.06 25.5678 364.06 26.9318C364.06 27.5392 363.8 27.9673 363.29 28.2262C362.81 28.485 361.8 28.6543 360.27 28.7538C358.29 28.8136 356.85 28.8932 355.95 28.9928L354.22 29.182L353.84 30.3269C353.14 32.3381 351.95 34.419 350.29 36.5895C348.69 38.6902 347.33 40.0144 346.21 40.5521C345.54 40.9005 344.93 41.0798 344.39 41.0798C343.97 41.0798 343.64 40.9503 343.38 40.7014C343 40.3231 342.87 39.9348 343 39.5564V39.5266ZM345.78 10.2749C346.16 9.95631 346.42 9.79701 346.55 9.79701C347 9.79701 347.45 10.1654 347.89 10.8922C348.21 11.4 348.37 11.8679 348.37 12.2761C348.37 13.0428 348.03 13.5306 347.36 13.7596C347.26 13.7895 347.14 13.8094 346.98 13.8094C346.6 13.8094 346.28 13.68 346.02 13.4311C345.6 13.0826 345.38 12.5748 345.35 11.8978C345.35 11.1013 345.49 10.5636 345.78 10.2749ZM356.68 10.2251C357.7 8.31352 358.39 6.34217 358.74 4.30113C358.99 2.92716 359.24 2.17048 359.46 2.01118C359.65 1.85187 359.88 1.77222 360.13 1.77222C360.38 1.77222 360.59 1.85187 360.75 2.01118C361.23 2.42934 361.49 3.04663 361.52 3.87301C361.58 4.60977 361.7 5.01798 361.86 5.11755C361.92 5.17728 362.08 5.21711 362.34 5.21711C362.92 5.21711 363.81 5.10759 365.03 4.87859C366.34 4.68942 367.32 4.58986 367.96 4.58986C368.82 4.58986 369.48 4.8089 369.93 5.25693C370.15 5.4461 370.28 5.76471 370.31 6.21274V6.40191C370.31 6.75038 370.23 7.05903 370.07 7.30793C369.81 7.81571 368.09 8.15422 364.89 8.31352C362.49 8.44295 361.24 8.63212 361.15 8.89099C360.73 9.94636 360.37 10.7628 360.07 11.3502C359.77 11.9376 359.42 12.4255 359.04 12.8038C358.46 13.3116 357.95 13.5705 357.5 13.5705C357.24 13.5705 356.99 13.4709 356.73 13.2817C356.25 12.993 356.01 12.6246 356.01 12.1865C356.01 11.7485 356.23 11.0913 356.68 10.2251ZM359.08 33.9311C359.08 33.4831 359.21 33.1545 359.46 32.9255C359.62 32.7662 359.84 32.6866 360.13 32.6866C360.58 32.6866 361.08 32.9056 361.64 33.3337C362.2 33.7619 362.86 34.3891 363.63 35.2254C365.29 36.9778 366.25 38.0929 366.51 38.5708C366.61 38.7599 366.65 38.9391 366.65 39.0984C366.65 39.3872 366.51 39.7157 366.22 40.104C365.87 40.5222 365.45 40.7213 364.97 40.7213C364.62 40.7213 364.3 40.6616 364.01 40.5322C362.89 40.0543 361.91 39.2777 361.08 38.1924C360.18 37.0773 359.56 35.9921 359.21 34.9467C359.11 34.5683 359.07 34.2298 359.07 33.9411L359.08 33.9311ZM363.35 11.9476C363.35 11.4995 363.48 11.1013 363.73 10.7528C363.99 10.4043 364.35 10.2251 364.83 10.2251C365.28 10.2251 365.68 10.494 366.03 11.0416C366.48 11.7783 366.7 12.4952 366.7 13.1921C366.7 13.7696 366.58 14.2077 366.34 14.5063C366.1 14.805 365.79 14.9643 365.4 14.9643C364.63 14.9643 364.04 14.4267 363.62 13.3415C363.43 12.8038 363.33 12.3359 363.33 11.9575L363.35 11.9476Z" fill="#534741"/>
<path d="M380.87 7.8854C381.13 7.50706 381.45 7.30793 381.83 7.30793C382.98 7.30793 383.56 8.42304 383.56 10.6533C383.56 11.6091 383.5 12.3857 383.39 12.9731C383.28 13.5605 383.14 13.9189 382.98 14.0484C382.72 14.2674 382.45 14.3869 382.16 14.3869C381.87 14.3869 381.52 14.2574 381.1 14.0085C380.75 13.7497 380.57 12.4952 380.57 10.2351C380.57 8.99055 380.67 8.21396 380.86 7.89536L380.87 7.8854ZM382.31 31.5914C382.31 31.3723 382.37 31.1433 382.5 30.9243C382.79 30.4763 383.46 29.9088 384.52 29.2019C386.73 27.7383 388.42 26.5634 389.61 25.6873C390.79 24.8111 391.82 23.9151 392.68 22.9891C393.22 22.3818 393.7 22.0035 394.12 21.8442C394.38 21.7446 394.6 21.7048 394.79 21.7048C395.08 21.7048 395.32 21.8043 395.51 21.9935C395.7 22.1827 395.8 22.4415 395.8 22.7601C395.8 23.1385 395.66 23.6164 395.37 24.1938C394.63 25.6574 392.71 27.569 389.61 29.9287C386.92 31.9697 384.97 32.9853 383.75 32.9853C383.17 32.9853 382.76 32.7662 382.5 32.3182C382.37 32.0992 382.31 31.8602 382.31 31.6013V31.5914ZM404.34 11.5692C404.34 10.1654 404.21 9.41867 403.96 9.31911C403.9 9.28924 403.72 9.26933 403.43 9.26933C402.79 9.26933 401.67 9.36889 400.07 9.55806C398.41 9.74723 395.64 9.90653 391.77 10.036C391.19 10.0658 390.44 10.0857 389.51 10.0857C387.65 10.0857 386.58 9.98618 386.29 9.79701C385.91 9.53815 385.71 9.21955 385.71 8.84121C385.71 8.42304 385.9 8.10444 386.29 7.8854C386.61 7.69623 388.19 7.42741 391.04 7.06898L392.86 6.87981C393.63 6.78025 394.43 6.69064 395.26 6.59108C396.09 6.49152 396.96 6.382 397.85 6.25257L400.35 5.96383L401.41 5.82444C402.47 5.66514 403.52 5.61536 404.58 5.68506C405.25 5.71492 405.91 5.86427 406.55 6.11318C407 6.27248 407.37 6.61099 407.65 7.11876C408 7.65641 408.13 8.53256 408.03 9.74723C407.87 11.848 407.47 13.2519 406.83 13.9488C406.45 14.367 406.08 14.5661 405.73 14.5661C405.44 14.5661 405.14 14.4068 404.82 14.0882C404.5 13.7696 404.34 12.9233 404.34 11.5593V11.5692ZM387.92 16.7764C388.91 15.721 389.63 15.0739 390.08 14.815C390.53 14.5263 390.83 14.3869 390.99 14.3869C391.21 14.3869 391.49 14.4964 391.81 14.7254C392.16 14.9444 392.34 15.2829 392.34 15.731C392.34 16.5574 391.52 17.7222 389.89 19.2157C388.99 20.0122 388.24 20.4104 387.63 20.4104C387.41 20.4104 387.2 20.3607 387.01 20.2711C386.63 20.0819 386.43 19.6936 386.43 19.1261C386.43 18.5884 386.93 17.8019 387.92 16.7863V16.7764ZM391.43 33.7419C391.75 33.5229 392.1 33.3636 392.49 33.264C393 33.1047 393.42 32.9454 393.74 32.7861C394.48 32.368 395.16 32.0992 395.8 31.9697C396.31 31.8403 396.93 31.7806 397.67 31.7806C399.46 31.7806 400.71 32.0394 401.41 32.5472C402.56 33.4433 403.14 34.648 403.14 36.1812C403.14 36.5297 403.12 36.7985 403.09 36.9977C402.99 37.7643 402.95 38.6205 402.95 39.5763C402.95 40.1538 402.69 40.6715 402.18 41.1494C401.64 41.6572 400.9 41.9758 399.97 42.1053C399.01 42.2347 398.19 42.2944 397.52 42.2944C395.79 42.2944 394.3 42.0057 393.06 41.4382C392.26 41.0598 391.73 40.5819 391.48 40.0045C391.1 39.0487 390.9 37.5652 390.9 35.564C390.9 34.638 391.08 34.0307 391.43 33.7519V33.7419ZM395.07 0C395.71 0 396.29 0.477903 396.8 1.43371C397.15 2.14061 397.33 2.6882 397.33 3.10637C397.33 3.48471 397.19 3.80331 396.9 4.06218C396.68 4.22148 396.45 4.30113 396.23 4.30113C395.69 4.30113 395.09 3.93274 394.45 3.20593C393.78 2.46917 393.44 1.85187 393.44 1.3441C393.44 0.995631 393.63 0.677029 394.02 0.388296C394.37 0.129432 394.72 0.00995631 395.08 0.00995631L395.07 0ZM394.6 38.521C394.66 38.5807 394.94 38.6205 395.42 38.6205C396.03 38.6205 396.54 38.6006 396.96 38.5708L399.07 38.4314L399.26 37.4258C399.29 37.2964 399.31 37.1072 399.31 36.8483C399.31 36.4998 399.23 36.1613 399.07 35.8427C398.85 35.4943 398.54 35.315 398.16 35.315C398.03 35.315 397.55 35.3748 396.72 35.5042C395.54 35.7233 394.85 35.9224 394.66 36.0817C394.47 36.2709 394.37 36.5795 394.37 36.9877C394.37 37.844 394.45 38.3617 394.61 38.521H394.6ZM396.85 23.706C396.85 23.3874 396.98 23.0986 397.23 22.8497C397.58 22.5013 398.01 22.3221 398.53 22.3221C399.14 22.3221 399.65 22.4614 400.07 22.7502C402.53 24.4029 404.41 25.8765 405.69 27.1509C407.42 28.8733 408.46 30.0681 408.81 30.7351C408.94 30.994 409 31.2628 409 31.5516C409 31.9697 408.86 32.3182 408.57 32.6069C408.22 32.9554 407.85 33.1346 407.47 33.1346C407.25 33.1346 406.97 33.055 406.65 32.8957C405.95 32.5472 404.87 31.6511 403.43 30.2174C402.76 29.5503 401.65 28.5647 400.12 27.2504C399.29 26.5535 398.72 26.0756 398.42 25.8366C398.12 25.5977 397.92 25.4284 397.82 25.3388C397.28 24.8908 396.97 24.4627 396.91 24.0445L396.86 23.706H396.85ZM399.35 14.4367C399.93 14.4367 400.61 14.8349 401.41 15.6314C402.4 16.6171 402.9 17.4932 402.9 18.2599C402.9 18.5785 402.8 18.8772 402.61 19.1659C402.39 19.4845 402.13 19.6438 401.84 19.6438C401.39 19.6438 400.8 19.3053 400.06 18.6382C398.84 17.5231 398.24 16.5673 398.24 15.7708C398.24 15.4223 398.37 15.0838 398.62 14.7652C398.81 14.5462 399.05 14.4267 399.34 14.4267L399.35 14.4367Z" fill="#534741"/>
<path d="M127.88 82.8166C127.88 82.3088 128.33 81.5721 129.22 80.6163C130.6 79.312 131.17 78.4956 130.95 78.177C130.89 78.0774 130.54 78.0276 129.92 78.0077C129.3 77.9878 128.52 77.9878 127.59 77.9878H126.34C125.22 77.9878 124.37 77.9579 123.8 77.8882C123.26 77.8584 122.94 77.6493 122.84 77.271C122.81 77.1714 122.79 77.0519 122.79 76.8926C122.79 76.3151 123.17 75.8771 123.94 75.5585C125.32 75.0208 127.17 74.7421 129.51 74.7421C130.34 74.7421 130.82 74.6923 130.95 74.6027C131.11 74.5031 131.16 73.6668 131.09 72.0738L130.95 69.7838L128.55 69.5449C127.4 69.4453 126.58 69.3059 126.1 69.1167C125.68 68.9873 125.48 68.7185 125.48 68.3003C125.48 67.5635 126.54 67.0856 128.65 66.8666C130.09 66.7073 130.86 66.6077 130.95 66.5779C131.01 66.548 131.09 66.2493 131.17 65.6918C131.25 65.1342 131.32 64.4273 131.39 63.5611C131.58 61.6794 131.82 60.5643 132.11 60.2158C132.4 59.9271 132.69 59.7877 132.97 59.7877C133.25 59.7877 133.51 59.8872 133.74 60.0764C133.96 60.2954 134.17 61.4006 134.36 63.3719L134.65 66.2891L136.43 66.4285C137.64 66.5281 138.32 66.6177 138.45 66.7173L138.55 66.767C138.74 66.767 139.05 66.4285 139.46 65.7615C140 64.8355 140.53 64.3775 141.04 64.3775C141.2 64.3775 141.39 64.4572 141.62 64.6165C141.84 64.8355 141.96 65.174 141.96 65.6221C141.96 66.8666 141.21 68.8877 139.7 71.6954C139 73.159 138.64 73.9754 138.64 74.1347C138.64 74.2641 139.14 74.3239 140.13 74.3239C141.7 74.3239 142.66 74.6425 143.01 75.2797C143.14 75.4987 143.2 75.7377 143.2 75.9965C143.2 76.2156 143.17 76.3948 143.1 76.5242C142.91 76.9723 142.56 77.2909 142.04 77.48C141.3 77.6692 140.17 77.8186 138.63 77.9082L135.99 78.0475L134.07 80.3375C132.05 82.7569 130.45 83.9715 129.27 83.9715C128.92 83.9715 128.58 83.8421 128.26 83.5932C128 83.404 127.88 83.1452 127.88 82.8266V82.8166ZM129.09 86.6398C129.22 86.1918 130.13 85.6542 131.83 85.017C133.72 84.32 135.32 83.8819 136.63 83.7226C137.37 83.6231 138.02 83.5833 138.6 83.5833C139.85 83.5833 140.86 83.7923 141.62 84.2005C142.07 84.4594 142.4 84.778 142.6 85.1763C142.81 85.5745 142.96 86.0624 143.06 86.6299C143.16 87.297 143.2 88.1731 143.2 89.2584C143.2 92.8625 142.82 95.1824 142.05 96.2377C141.47 97.0044 140.47 97.5321 139.03 97.8108C138.42 97.9403 137.73 98 136.97 98C136.21 98 135.39 97.9004 134.52 97.7113C133.34 97.3927 132.33 97.2035 131.5 97.1338C130.8 97.1039 130.28 97.0044 129.96 96.8451C129.29 96.5265 128.95 94.4556 128.95 90.6323C128.95 88.2428 129 86.9087 129.09 86.6199V86.6398ZM131.96 90.4631C132.02 91.1003 132.15 91.8769 132.34 92.8028C132.5 93.5694 132.6 93.9677 132.63 93.9976C132.76 94.127 133.1 94.2266 133.66 94.3062C134.22 94.3859 134.9 94.4556 135.7 94.5252C136.08 94.5551 136.6 94.575 137.24 94.575C138.13 94.575 138.7 94.5153 138.92 94.3859C139.18 94.2863 139.3 93.0915 139.3 90.8016V87.3567L137.43 87.3069C135.96 87.2472 134.68 87.3667 133.59 87.6853C132.31 88.0337 131.69 88.3722 131.72 88.6908L131.96 90.4631ZM133.12 91.1401C133.12 90.6622 133.49 90.244 134.22 89.8956C134.86 89.6068 135.47 89.4674 136.04 89.4674C136.52 89.4674 137 89.567 137.48 89.7562C137.96 89.9453 138.3 90.2142 138.49 90.5726C138.62 90.7916 138.68 91.0206 138.68 91.2397C138.68 91.4288 138.62 91.5881 138.49 91.7176C138.17 92.0959 137.66 92.3747 136.95 92.534C136.47 92.6634 136.01 92.7232 135.56 92.7232C135.27 92.7232 135.06 92.7032 134.94 92.6734C134.4 92.5738 134.02 92.4643 133.81 92.3349C133.6 92.2054 133.42 91.9963 133.26 91.7176C133.16 91.5284 133.12 91.3392 133.12 91.1401ZM134.56 72.3525C134.56 73.0196 134.61 73.3581 134.7 73.3581C134.86 73.3581 135.29 72.7806 136 71.6357C136.7 70.4608 137.05 69.7738 137.05 69.5847C137.05 69.4851 136.95 69.4453 136.76 69.4453L136.04 69.4951C135.75 69.4951 135.48 69.5449 135.22 69.6345C134.9 69.734 134.72 69.8535 134.69 70.0128C134.66 70.202 134.61 70.7297 134.55 71.5859V72.3525H134.56ZM147.13 91.7574C147.13 90.7717 147.19 89.577 147.32 88.1731C147.48 86.1022 147.59 83.0556 147.66 79.0432C147.66 78.1471 147.68 77.4999 147.71 77.0818C147.74 74.0849 147.81 71.9344 147.9 70.6301C148 69.3258 148.2 68.4994 148.52 68.141C149.06 67.6034 149.74 67.1852 150.54 66.8965C151.44 66.5779 152.25 66.4186 152.99 66.4186C153.21 66.4186 153.55 66.4484 154 66.5181C155.28 66.7073 156.24 67.1255 156.88 67.7627C157.78 68.5592 158.22 69.7838 158.22 71.4465C158.22 72.3027 158.04 73.1789 157.69 74.075L157.07 75.5585L157.84 76.6138C158.73 77.8285 159.18 79.2224 159.18 80.8154C159.18 82.5378 158.72 83.862 157.79 84.778C157.53 85.0369 157.26 85.236 156.97 85.3953C156.84 85.455 156.67 85.5546 156.47 85.684C156.26 85.8135 156.08 85.8931 155.92 85.923C155.76 85.9529 155.6 85.9827 155.44 86.0226C155.28 86.0524 155.12 86.0723 154.96 86.0723C154.45 86.0723 154 85.8832 153.62 85.4949C153.14 85.0468 152.85 84.5988 152.76 84.1607L152.71 83.872C152.71 83.6231 152.84 83.3642 153.09 83.1054C153.38 82.7868 153.71 82.6772 154.1 82.7668H154.29C154.61 82.7668 154.87 82.5777 155.06 82.1894C155.32 81.6816 155.44 81.1838 155.44 80.7059C155.44 80.5167 155.41 80.2579 155.34 79.9392C155.21 79.1427 154.81 78.4458 154.14 77.8385C153.5 77.261 153.18 76.7532 153.18 76.3052C153.18 75.8572 153.45 75.0507 154 73.8659C154.58 72.6512 154.86 71.7153 154.86 71.0483C154.86 70.5405 154.73 70.1522 154.48 69.9033C154.06 69.4552 153.39 69.2362 152.46 69.2362C151.95 69.2362 151.55 69.286 151.26 69.3756C150.94 69.4752 150.76 69.7241 150.73 70.1422C150.7 70.65 150.75 72.0538 150.87 74.3438L150.97 75.9667C150.97 76.8926 151 78.2168 151.07 79.9293L151.12 83.7525C151.12 84.4196 151.09 85.455 151.02 86.8589C150.86 90.4929 150.56 92.6136 150.11 93.211C149.57 93.9777 148.97 94.2664 148.33 94.0673C147.75 93.8781 147.37 93.3803 147.18 92.5838C147.15 92.4543 147.13 92.1656 147.13 91.7275V91.7574Z" fill="#534741"/>
<path d="M167.87 81.8608C167.87 81.5422 168.02 81.1738 168.33 80.7656C168.63 80.3475 169.15 79.7501 169.89 78.9536C171.11 77.49 172.43 75.7178 173.87 73.6469C174.67 72.5616 175.29 71.6556 175.74 70.9188C176.19 70.1821 176.43 69.7042 176.46 69.4851C176.46 69.2661 175.88 69.1964 174.73 69.2959C174.44 69.3258 174.03 69.3457 173.48 69.3457C172.55 69.3457 171.82 69.2362 171.27 69.0072C170.44 68.7185 170.12 68.2306 170.31 67.5237C170.41 67.0757 170.76 66.7571 171.37 66.5679C173.07 66.2194 174.43 65.9805 175.45 65.8511C177.75 65.5026 178.97 65.2139 179.1 64.9948C179.58 64.039 179.95 63.2724 180.2 62.7049C180.68 61.4902 181.1 60.6837 181.45 60.2656C181.61 60.1063 181.9 59.9669 182.31 59.8374H182.6C182.92 59.8374 183.16 59.937 183.32 60.1262C183.54 60.385 183.66 60.7933 183.66 61.3707C183.66 62.0677 183.52 62.8044 183.23 63.5711C183.01 64.2083 182.93 64.6364 182.99 64.8654C183.02 64.9948 184.78 65.0546 188.27 65.0546C191.15 65.0546 193.02 65.1143 193.89 65.2437C194.75 65.4329 195.27 65.8013 195.43 66.3389C195.53 66.6277 195.57 66.8766 195.57 67.1056C195.57 67.7726 195.17 68.2704 194.37 68.589C193.76 68.8479 191.42 68.9674 187.36 68.9674H181.26L180.49 69.9232C180.07 70.5305 179.87 70.9089 179.87 71.0682C179.87 71.2275 179.42 72.0041 178.53 73.4079C174.4 79.8098 171.36 83.0157 169.41 83.0157C168.99 83.0157 168.66 82.9062 168.4 82.6772C168.05 82.4184 167.87 82.1496 167.87 81.8608ZM174.88 82.0102C175.2 81.6617 175.62 81.4825 176.13 81.4825C176.61 81.4825 177.01 81.7214 177.33 82.1993C177.65 82.6175 177.81 84.6087 177.81 88.1731V89.6566C177.81 91.6678 177.76 93.0019 177.67 93.669C177.57 94.4356 177.22 95.0031 176.61 95.3914C176.35 95.5507 176.11 95.6304 175.89 95.6304C175.67 95.6304 175.46 95.5806 175.27 95.491C174.69 95.3018 174.31 94.8538 174.12 94.1569C174.02 93.7088 173.98 92.8327 173.98 91.5284C173.98 85.8234 174.28 82.6573 174.89 82.0201L174.88 82.0102ZM179.92 92.8128C179.92 92.3349 180.18 91.9366 180.69 91.618C181.43 91.17 182.69 90.8812 184.48 90.7618C186.21 90.6323 187.17 90.4929 187.36 90.3336C187.42 90.2739 187.46 90.015 187.46 89.567L187.36 87.5558L187.22 84.9771L185.4 85.0767C183.38 85.1763 182.38 84.7083 182.38 83.6928C182.38 83.2149 182.54 82.8664 182.86 82.6374C183.15 82.3885 183.85 82.1097 184.97 81.821C186.41 81.4028 187.23 81.0743 187.42 80.8154C187.58 80.5964 187.66 80.1583 187.66 79.5211C187.66 78.1471 187.96 77.2411 188.57 76.793C188.76 76.6337 189 76.5541 189.29 76.5541C189.67 76.5541 190.06 76.7433 190.44 77.1316C190.82 77.5099 191.02 77.9878 191.02 78.5653C191.02 79.3916 191.13 79.9392 191.36 80.1882C191.68 80.5068 192.26 80.686 193.09 80.7158C194.05 80.7457 194.77 80.9448 195.25 81.3132C195.73 81.6816 195.97 82.1695 195.97 82.7668C195.97 83.9417 195.01 84.5391 193.09 84.5391C192.07 84.5391 191.51 84.6386 191.41 84.8278C191.35 84.9572 191.31 85.3555 191.31 86.0226C191.31 86.6896 191.33 87.2472 191.36 87.6952L191.55 90.3735L194.09 90.2341C194.79 90.1743 195.26 90.1345 195.48 90.1345C195.86 90.1345 196.39 90.1843 197.06 90.2739C197.6 90.3735 198.05 90.6721 198.4 91.1799C198.59 91.399 198.69 91.6578 198.69 91.9466C198.69 92.1059 198.63 92.3448 198.5 92.6634C198.31 93.1413 197.83 93.5197 197.06 93.8084C196.36 94.127 193.62 94.3162 188.85 94.3859L184.24 94.4356C183.22 94.4356 182.38 94.4058 181.74 94.3361C181.23 94.2365 180.84 94.117 180.59 93.9776C180.33 93.8383 180.14 93.6391 180.01 93.3803C179.95 93.2508 179.91 93.0617 179.91 92.8028L179.92 92.8128Z" fill="#534741"/>
<path d="M216.45 94.2863L214.72 93.3803L213.76 94.1967C213.28 94.575 212.61 94.9832 211.74 95.3914C210.88 95.7698 210.22 95.9689 209.77 95.9689C209.48 95.9689 209.15 95.7797 208.76 95.3914C208.34 94.9733 208.14 94.6547 208.14 94.4356C208.14 94.2763 208.4 93.9378 208.93 93.43C209.46 92.9223 210.11 92.3349 210.87 91.6578C211.51 91.0804 211.99 90.5228 212.31 89.9852C212.63 89.4475 212.79 88.8701 212.79 88.2627C212.79 87.5956 212.52 87.1675 211.97 86.9684C210.88 86.5502 210.34 85.913 210.34 85.0568C210.34 84.4495 210.6 83.7824 211.11 83.0456C211.72 82.1197 212.02 81.4526 212.02 81.0344V80.3176H210.48C208.91 80.3176 208.13 79.999 208.13 79.3618C208.13 79.073 208.34 78.7445 208.75 78.3562C209.1 78.0376 209.56 77.7688 210.14 77.5398C210.72 77.3207 211.28 77.2013 211.82 77.2013C212.43 77.2013 212.97 77.3108 213.45 77.5398C214.41 77.9579 215.08 78.7644 215.47 79.9791C215.53 80.2379 215.57 80.4371 215.57 80.5964C215.57 81.0444 215.44 81.6816 215.19 82.508L214.71 84.1806L215.38 85.0867C216.15 86.0723 216.53 87.2671 216.53 88.6709L216.48 90.0051C216.48 90.3237 216.53 90.5328 216.62 90.6224C216.84 90.8414 217.37 91.1202 218.2 91.4388C221.46 92.7132 225.21 93.3504 229.43 93.3504C231.29 93.3504 233.54 93.1911 236.2 92.8725C238.31 92.5838 239.7 92.4444 240.38 92.4444C240.7 92.4444 240.95 92.5141 241.12 92.6634C241.29 92.8128 241.45 93.0019 241.58 93.2608C241.68 93.45 241.72 93.6391 241.72 93.8383C241.72 93.9976 241.67 94.2066 241.58 94.4556C241.23 95.1923 239.87 95.8295 237.5 96.3672C235 96.9446 232.46 97.2234 229.87 97.2234C229.1 97.2234 227.92 97.1637 226.32 97.0342C222.54 96.6559 219.25 95.73 216.43 94.2664L216.45 94.2863ZM211.45 65.4229C211.93 65.4229 212.38 65.7615 212.79 66.4285C213.59 67.6432 213.99 68.6289 213.99 69.3955C213.99 70.0028 213.73 70.411 213.22 70.64C213.12 70.6998 212.96 70.7396 212.74 70.7396C212.45 70.7396 212.21 70.66 212.02 70.5007C211.44 70.1223 210.96 69.3358 210.58 68.1609C210.36 67.3644 210.24 66.8268 210.24 66.538C210.24 66.1896 210.32 65.9307 210.48 65.7714C210.7 65.5524 211.02 65.4329 211.44 65.4329L211.45 65.4229ZM221.2 67.006C221.2 66.787 221.28 66.548 221.44 66.2891C221.63 65.9705 222 65.7615 222.54 65.6718C223.24 65.5424 225.24 65.3234 228.54 65.0048C231.35 64.7459 233.34 64.6264 234.49 64.6264C235.42 64.6264 236.03 64.6862 236.31 64.8156C237.01 65.1043 237.37 65.5922 237.37 66.2991C237.37 66.8766 237.08 67.2848 236.51 67.5436C236.22 67.6731 235.44 67.8025 234.16 67.922C231.95 68.1808 230.48 68.3202 229.74 68.3501C228.11 68.4497 226.77 68.4895 225.71 68.4895C223.05 68.4895 221.58 68.141 221.29 67.4341C221.23 67.2449 221.19 67.0956 221.19 67.006H221.2ZM224.22 72.93C224.22 72.7408 224.3 72.5616 224.46 72.4023C224.62 72.243 225.16 72.0738 226.07 71.9045C226.98 71.7352 228.45 71.4963 230.46 71.2076C230.97 71.1478 231.35 71.108 231.61 71.108C232.47 71.108 233.29 71.2474 234.06 71.5361C234.6 71.7253 234.88 71.9842 234.88 72.3028C234.88 72.4919 234.72 72.7209 234.4 72.9698C234.05 73.2287 233.61 73.4278 233.11 73.5871C232.37 73.7763 231.09 73.9256 229.27 74.0152C228.66 74.0451 227.89 74.065 226.97 74.065C226.23 74.065 225.75 74.0451 225.53 74.0152C224.79 73.9157 224.38 73.6668 224.28 73.2486C224.25 73.149 224.23 73.0395 224.23 72.9101L224.22 72.93ZM225.47 83.3443C225.95 82.7071 227.13 82.05 229.02 81.3829C229.82 81.0942 230.6 80.9548 231.37 80.9548C232.91 80.9548 233.93 81.2137 234.44 81.7214C235.05 82.3288 235.35 83.3941 235.35 84.9274C235.35 86.142 235.13 87.287 234.68 88.3722C234.46 88.9497 233.92 89.3878 233.07 89.6865C232.22 89.9852 231.03 90.1843 229.49 90.2839C229.2 90.3137 228.82 90.3336 228.34 90.3336C227.57 90.3336 226.96 90.2739 226.52 90.1445C225.98 89.9852 225.56 89.6068 225.27 88.9995C225.01 88.422 224.89 87.5956 224.89 86.5104C224.89 84.8875 225.08 83.8322 225.47 83.3543V83.3443ZM225.76 76.803C226.05 76.584 226.85 76.3749 228.16 76.1857C229.34 76.0264 230.27 75.9468 230.95 75.9468C231.63 75.9468 232.21 75.9965 232.73 76.0862C233.31 76.1857 233.75 76.355 234.07 76.6138C234.39 76.8727 234.55 77.1913 234.55 77.5696C234.55 78.0774 234.21 78.4259 233.54 78.625C232.8 78.8441 231.33 78.9635 229.12 78.9635C227.78 78.9635 226.78 78.8739 226.14 78.7047C225.5 78.5354 225.18 78.2367 225.18 77.8186C225.18 77.3406 225.37 77.0021 225.75 76.813L225.76 76.803ZM227.05 57.9258C227.31 57.7367 227.75 57.6371 228.39 57.6371C228.84 57.6371 229.4 58.1947 230.07 59.3098C230.68 60.2954 230.98 61.082 230.98 61.6495C230.98 62.1573 230.74 62.5456 230.26 62.7945C230 62.9239 229.73 62.9836 229.44 62.9836C229.06 62.9836 228.73 62.8841 228.48 62.6949C228.29 62.5356 228.08 62.3166 227.86 62.0278C227.54 61.5798 227.32 61.2512 227.19 61.0222C226.93 60.4846 226.77 60.1162 226.71 59.9271C226.58 59.4193 226.52 59.1306 226.52 59.0708C226.52 58.563 226.7 58.1747 227.05 57.9258ZM227.63 85.7338C227.69 86.4009 227.82 86.7991 228.01 86.9286C228.2 86.9883 228.41 87.0281 228.63 87.0281L229.97 86.9286L231.84 86.7394V85.4451C231.84 84.9074 231.81 84.5391 231.74 84.3499C231.71 84.1906 231.47 84.1109 231.02 84.1109C230.54 84.1109 229.9 84.2205 229.1 84.4495L227.56 84.8776L227.61 85.7338H227.63Z" fill="#534741"/>
<path d="M248.84 86.3611C248.84 85.9827 248.95 85.6143 249.18 85.2659C249.34 84.9771 250.12 83.9118 251.53 82.0599C254.57 78.0774 256.11 75.8771 256.14 75.4689C256.14 75.21 255.4 75.1303 253.93 75.2299C252.68 75.2896 251.79 75.2299 251.24 75.0407C250.79 74.8516 250.55 74.5031 250.52 73.9854V73.7464C250.52 73.3979 250.6 73.1092 250.76 72.8902C251.11 72.4421 253.05 71.9842 256.57 71.5062C256.92 71.4067 257.27 71.3669 257.63 71.3669C257.95 71.3669 258.37 71.4266 258.88 71.556C259.46 71.6556 259.98 71.9045 260.46 72.3227C260.84 72.8603 260.99 73.388 260.89 73.8958C260.89 75.2299 259.93 77.2909 258.01 80.0587L256.81 81.7812L257.1 83.4538C257.36 84.7282 257.48 86.7991 257.48 89.6666C257.48 91.4487 257.4 92.6335 257.24 93.2011C256.86 94.4157 256.25 95.0131 255.42 95.0131L254.84 94.9135C254.36 94.7542 254.02 94.3261 253.83 93.6192C253.7 93.1413 253.64 92.3448 253.64 91.2297L253.69 89.4177L253.74 87.3667C253.74 86.2515 253.68 85.694 253.55 85.694C253.52 85.694 253.05 86.0624 252.16 86.7892C251.42 87.526 250.82 87.8844 250.34 87.8844C249.7 87.8844 249.25 87.6156 249 87.068C248.9 86.8788 248.86 86.6398 248.86 86.3511L248.84 86.3611ZM253.69 62.0278C253.98 61.7391 254.28 61.5997 254.6 61.5997C255.05 61.5997 255.59 61.9183 256.23 62.5555C257.57 63.9892 258.25 65.2935 258.25 66.4783C258.25 66.767 258.23 66.9761 258.2 67.0956C257.94 67.6332 257.58 67.922 257.1 67.9518C256.94 67.9518 256.49 67.6133 255.76 66.9463C254.86 66.0502 254.29 65.3831 254.03 64.9351C253.68 64.4572 253.44 63.8996 253.31 63.2624C253.31 62.5953 253.44 62.1772 253.69 62.0179V62.0278ZM258.52 82.3885C258.73 82.1296 259.02 82.0102 259.41 82.0102L259.99 82.1097H260.13C260.45 82.1097 260.71 81.9006 260.9 81.4924C261.25 80.8552 261.62 80.3574 262 80.0089C262.45 79.5609 262.85 79.3419 263.2 79.3419C263.52 79.3419 263.82 79.5012 264.11 79.8198C264.3 80.0089 264.4 80.2479 264.4 80.5366C264.4 81.1141 264.08 81.9106 263.44 82.9261C262.93 83.7226 262.67 84.1707 262.67 84.2603C262.67 84.32 263.01 84.5789 263.68 85.0269C264.35 85.5048 264.69 85.9628 264.69 86.4109C264.69 86.7892 264.45 87.1775 263.97 87.5558C263.55 87.8147 263.12 87.9342 262.67 87.9342C262.29 87.9342 261.85 87.8346 261.37 87.6454C260.38 87.1675 259.56 86.4208 258.92 85.3953C258.44 84.6287 258.2 83.9815 258.2 83.4339C258.2 82.9859 258.3 82.6374 258.51 82.3785L258.52 82.3885ZM269.39 94.2863C269.04 93.9677 268.83 93.679 268.77 93.43C268.77 93.0517 268.99 92.6933 269.44 92.3747C269.86 91.9565 270.48 91.6877 271.31 91.5583C271.44 91.5284 271.61 91.4886 271.81 91.4388C272.01 91.389 272.28 91.3492 272.6 91.3193C272.89 91.2894 273.16 91.2596 273.42 91.2197C273.68 91.1899 273.87 91.16 274 91.1202C274.19 91.0604 274.38 90.4332 274.58 89.2584C274.61 88.9696 274.63 88.6012 274.63 88.1632C274.63 87.6853 274.6 87.3866 274.53 87.2571C274.43 87.0978 274.23 86.9983 273.91 86.9485C273.59 86.8987 272.93 86.8589 271.94 86.829C271.3 86.7991 270.87 86.7095 270.64 86.5701C270.42 86.4308 270.29 86.1321 270.26 85.684C270.26 85.3654 270.57 85.0867 271.2 84.8477C271.83 84.6088 272.6 84.4295 273.53 84.3001C273.79 84.2702 274.03 84.2005 274.27 84.0811C274.51 83.9616 274.66 83.862 274.73 83.7724C274.92 83.4538 275.02 82.7569 275.02 81.6716L275.07 79.7103L271.9 79.5211C271.07 79.4912 270.37 79.3717 269.81 79.1627C269.25 78.9536 268.87 78.7047 268.68 78.4259C268.23 77.7289 268.01 76.1459 268.01 73.6966C267.98 73.1889 267.96 72.5019 267.96 71.6456C267.96 70.4011 268.02 69.5747 268.15 69.1566C268.34 68.36 268.81 67.693 269.54 67.1454C270.95 65.9307 274.07 65.1342 278.9 64.7559C279.22 64.726 279.67 64.7061 280.24 64.7061C281.3 64.7061 282.06 64.8455 282.54 65.1342C282.92 65.3532 283.26 65.8212 283.55 66.5181C283.9 67.2151 284.08 68.1709 284.08 69.3856C284.08 71.0781 283.94 72.7508 283.65 74.4035C283.46 75.3593 283.36 76.1558 283.36 76.793C283.36 77.7488 282.99 78.3861 282.26 78.7047C281.72 78.9237 280.93 79.1029 279.91 79.2323C279.01 79.3319 278.44 79.4514 278.18 79.6107C278.08 79.7401 278.04 80.0189 278.04 80.447V83.2945L279.62 83.4837C280.45 83.5833 281.06 83.7226 281.44 83.9118C281.63 84.0711 281.76 84.3598 281.82 84.7681C281.82 85.2758 281.63 85.684 281.24 85.9827C280.86 86.2814 280.25 86.5005 279.42 86.6299C278.52 86.7295 277.96 86.8887 277.74 87.1078C277.55 87.3268 277.45 87.964 277.45 89.0194L277.4 90.7916L281.86 90.8414C284.23 90.8713 285.81 91.0007 286.61 91.2197C286.93 91.2795 287.15 91.4288 287.28 91.6479C287.41 91.8669 287.47 92.2054 287.47 92.6535C287.47 93.4798 287.12 94.0274 286.41 94.2763C286.06 94.3759 283.18 94.4954 277.77 94.6547L271.58 94.7941C270.49 94.7941 269.76 94.6248 269.37 94.2664L269.39 94.2863ZM271.02 71.6357L272.36 71.5859C273.32 71.5262 273.9 71.4266 274.09 71.2972C274.22 71.0781 274.26 70.64 274.23 70.0028L274.18 68.7085L273.27 68.6587C272.98 68.6289 272.67 68.6587 272.33 68.7284C271.99 68.7981 271.76 68.8678 271.63 68.8977C271.31 68.9574 271.1 69.0371 271.01 69.1367C270.98 69.2661 270.96 69.6643 270.96 70.3314L271.01 71.6257L271.02 71.6357ZM271.36 75.5585C271.46 76.0364 271.55 76.3052 271.65 76.3749C271.71 76.4346 271.99 76.4744 272.47 76.4744C273.3 76.4744 273.83 76.3749 274.05 76.1857C274.18 76.0862 274.27 75.9069 274.31 75.6381C274.35 75.3693 274.35 75.1503 274.29 74.991C274.26 74.6126 273.65 74.3836 272.47 74.3239L271.22 74.2243L271.36 75.5585ZM277.26 68.5791L277.36 69.8734L277.5 70.9686L280.52 71.0184L280.47 68.4397L278.65 68.3401H278.07C277.65 68.3401 277.38 68.37 277.25 68.4397V68.5791H277.26ZM277.72 75.9169C277.96 76.126 278.46 76.2255 279.23 76.2255C279.84 76.2255 280.22 76.1061 280.38 75.8671C280.54 75.6282 280.65 75.3295 280.72 74.981C280.72 74.762 280.54 74.5529 280.19 74.3637C279.84 74.1745 279.33 74.075 278.65 74.075C278.23 74.075 277.91 74.1646 277.69 74.3338C277.47 74.5031 277.35 74.7221 277.35 74.981C277.35 75.3992 277.47 75.7078 277.71 75.9169H277.72Z" fill="#534741"/>
</svg>
