<svg width="100" height="100" viewBox="0 0 100 100" fill="none" xmlns="http://www.w3.org/2000/svg">
<path d="M16.6665 81.25V18.75C16.6665 15.9873 17.764 13.3378 19.7175 11.3843C21.671 9.43078 24.3205 8.33331 27.0832 8.33331H79.1665C80.2716 8.33331 81.3314 8.7723 82.1128 9.5537C82.8942 10.3351 83.3332 11.3949 83.3332 12.5V87.5C83.3332 88.6051 82.8942 89.6649 82.1128 90.4463C81.3314 91.2277 80.2716 91.6667 79.1665 91.6667H27.0832C24.3205 91.6667 21.671 90.5692 19.7175 88.6157C17.764 86.6622 16.6665 84.0127 16.6665 81.25ZM16.6665 81.25C16.6665 78.4873 17.764 75.8378 19.7175 73.8843C21.671 71.9308 24.3205 70.8333 27.0832 70.8333H83.3332" stroke="black" stroke-width="8" stroke-linecap="round" stroke-linejoin="round"/>
<path d="M35.9167 40.8333C35.0401 39.9194 34.3578 38.8374 33.9109 37.6525C33.4639 36.4676 33.2617 35.2045 33.3164 33.9393C33.371 32.6741 33.6814 31.4331 34.2288 30.2912C34.7762 29.1493 35.5493 28.1301 36.5015 27.2952C37.4536 26.4603 38.565 25.8269 39.7686 25.4332C40.9722 25.0396 42.2431 24.8939 43.5046 25.005C44.7661 25.116 45.992 25.4815 47.1084 26.0793C48.2247 26.6771 49.2084 27.4949 50 28.4833C50.7955 27.5052 51.78 26.6976 52.8948 26.1088C54.0096 25.5199 55.2316 25.162 56.4879 25.0564C57.7442 24.9507 59.0089 25.0996 60.2063 25.494C61.4038 25.8884 62.5094 26.5202 63.457 27.3518C64.4046 28.1833 65.1747 29.1975 65.7214 30.3335C66.268 31.4695 66.5799 32.7042 66.6384 33.9635C66.6968 35.2229 66.5007 36.4811 66.0617 37.6629C65.6227 38.8448 64.9498 39.9259 64.0834 40.8417L53.1417 52.7417C52.7514 53.1911 52.2691 53.5515 51.7274 53.7985C51.1858 54.0455 50.5974 54.1733 50.0021 54.1733C49.4068 54.1733 48.8185 54.0455 48.2768 53.7985C47.7352 53.5515 47.2529 53.1911 46.8625 52.7417L35.9167 40.8333Z" stroke="black" stroke-width="8" stroke-linecap="round" stroke-linejoin="round"/>
</svg>
