<svg width="100" height="100" viewBox="0 0 100 100" fill="none" xmlns="http://www.w3.org/2000/svg">
<path d="M43.7502 12.5L33.3335 37.5L50.0002 91.6667L66.6668 37.5L56.2502 12.5" stroke="black" stroke-width="8" stroke-linecap="round" stroke-linejoin="round"/>
<path d="M70.8334 12.5C72.1271 12.5 73.4031 12.8012 74.5602 13.3798C75.7173 13.9583 76.7239 14.7984 77.5001 15.8333L90.0001 32.5C91.0721 33.9298 91.6561 35.6665 91.6659 37.4536C91.6756 39.2406 91.1106 40.9835 90.0542 42.425L56.7626 88.2C55.9907 89.2728 54.9748 90.1467 53.7986 90.7495C52.6224 91.3523 51.3197 91.6666 49.998 91.6666C48.6763 91.6666 47.3736 91.3523 46.1974 90.7495C45.0212 90.1467 44.0053 89.2728 43.2334 88.2L9.94175 42.425C8.88596 40.9831 8.32167 39.24 8.33218 37.4529C8.34268 35.6658 8.92741 33.9294 10.0001 32.5L22.4917 15.8458C23.2675 14.8074 24.2748 13.9643 25.4336 13.3835C26.5923 12.8027 27.8706 12.5002 29.1667 12.5H70.8334Z" stroke="black" stroke-width="8" stroke-linecap="round" stroke-linejoin="round"/>
<path d="M8.3335 37.5H91.6668" stroke="black" stroke-width="8" stroke-linecap="round" stroke-linejoin="round"/>
</svg>
