<svg width="100" height="100" viewBox="0 0 100 100" fill="none" xmlns="http://www.w3.org/2000/svg">
<path d="M83.3333 33.3333H16.6667C14.3655 33.3333 12.5 35.1988 12.5 37.5V45.8333C12.5 48.1345 14.3655 50 16.6667 50H83.3333C85.6345 50 87.5 48.1345 87.5 45.8333V37.5C87.5 35.1988 85.6345 33.3333 83.3333 33.3333Z" stroke="black" stroke-width="8" stroke-linecap="round" stroke-linejoin="round"/>
<path d="M50 33.3333V87.5" stroke="black" stroke-width="8" stroke-linecap="round" stroke-linejoin="round"/>
<path d="M79.1668 50V79.1667C79.1668 81.3768 78.2889 83.4964 76.726 85.0592C75.1632 86.622 73.0436 87.5 70.8335 87.5H29.1668C26.9567 87.5 24.8371 86.622 23.2743 85.0592C21.7115 83.4964 20.8335 81.3768 20.8335 79.1667V50" stroke="black" stroke-width="8" stroke-linecap="round" stroke-linejoin="round"/>
<path d="M31.2502 33.3333C28.4875 33.3333 25.838 32.2359 23.8845 30.2824C21.931 28.3288 20.8335 25.6793 20.8335 22.9167C20.8335 20.154 21.931 17.5045 23.8845 15.551C25.838 13.5975 28.4875 12.5 31.2502 12.5C35.2697 12.43 39.2086 14.3802 42.5532 18.0965C45.8979 21.8127 48.493 27.1225 50.0002 33.3333C51.5073 27.1225 54.1025 21.8127 57.4471 18.0965C60.7917 14.3802 64.7306 12.43 68.7502 12.5C71.5128 12.5 74.1624 13.5975 76.1159 15.551C78.0694 17.5045 79.1668 20.154 79.1668 22.9167C79.1668 25.6793 78.0694 28.3288 76.1159 30.2824C74.1624 32.2359 71.5128 33.3333 68.7502 33.3333" stroke="black" stroke-width="8" stroke-linecap="round" stroke-linejoin="round"/>
</svg>
