<svg width="80" height="59" viewBox="0 0 80 59" fill="none" xmlns="http://www.w3.org/2000/svg">
<path d="M70.8205 14.8857C73.3826 12.4296 74.1622 8.66396 72.961 4.88533C71.7662 0.813538 68.0985 -0.463238 65.3383 0.142646C60.1309 0.41627 57.9456 5.39363 55.4665 9.74556C53.6135 13.3157 50.6489 15.9151 47.2113 17.8305C42.7707 20.2996 38.2472 22.5668 33.6915 24.847C31.698 25.8438 29.6467 26.7428 27.6852 27.7787C23.9985 29.7266 20.0435 31.5703 15.8201 31.6485C11.405 31.7332 7.13671 28.3585 3.0858 31.3814C-2.80527 35.779 0.664389 44.789 7.43081 44.7043" fill="#FDD78C"/>
<path d="M8.98319 43.0821C7.4625 44.574 6.39552 46.6912 6.17189 48.3786C5.82047 53.9944 9.77573 57.4605 14.67 58.125C20.1777 58.4833 21.7559 52.2484 24.2414 47.8965C25.6151 45.486 27.6596 42.8215 30.1323 41.5836C31.7041 40.8018 33.2696 40.0136 34.8414 39.2318C39.3204 36.9907 43.7993 34.7561 48.2783 32.515C51.1599 31.0752 54.0416 29.6353 56.9296 28.189C58.1436 27.5831 59.2045 26.9839 60.5399 26.6711C63.6707 25.9285 66.5458 26.3976 69.5871 27.1924C72.2324 27.8764 74.8903 28.2151 77.1905 26.3844C82.9857 21.7653 79.0818 12.7292 72.1429 13.2439" fill="#FDD78C"/>
<path d="M7.23274 44.8607L4.82391 44.3525L2.41507 42.8281L0.504479 40.5479L0 37.9094L0.172215 35.4141L1.10536 33.3555L2.84967 31.5378L5.30311 30.3064L8.6766 30.2088L12.4594 31.1403L15.6988 31.5704L18.5484 31.2642L21.8133 30.3521L25.1104 28.9514L45.614 18.5796L49.3519 16.3516L52.5594 13.5958L55.147 10.0583L57.2557 6.30572L58.9426 3.7583L61.5174 1.27625L65.2232 0.0774602L68.3795 0.0578964L71.6126 2.01236L72.9673 5.73885L73.3635 9.0615L72.8075 11.6283L72.041 13.1789L74.5584 13.433L76.8265 14.5535L78.6476 16.6447L79.8615 20.0196L79.28 23.9089L75.9255 27.3097L71.2548 27.5182L67.1912 26.606L63.166 26.2477L59.4983 26.9513L54.9745 29.1924L32.043 40.6521L27.6662 43.2059L24.9441 46.5025L22.5864 50.8544L20.4971 54.6982L17.9797 57.2651L14.1653 58.0077L11.1048 57.05L8.35089 55.0629L6.67054 52.8153L6.05063 49.5383L6.55542 46.5155L7.23274 44.8607Z" fill="#FDD78C"/>
</svg>
