<svg width="64" height="64" viewBox="0 0 64 64" fill="none" xmlns="http://www.w3.org/2000/svg">
<g clip-path="url(#clip0_151_844)">
<path d="M45.5728 40.9155C45.5728 29.8698 36.6185 20.9155 25.5728 20.9155C14.5271 20.9155 5.57275 29.8698 5.57275 40.9155C5.57275 51.9612 14.5271 60.9155 25.5728 60.9155C36.6185 60.9155 45.5728 51.9612 45.5728 40.9155Z" fill="#FBBD3F"/>
<path d="M28.2836 15.1581C26.0328 16.5484 21.9386 16.6158 19.3588 12.897C16.7791 9.17816 18.4319 6.84619 19.7202 4.94535C22.1433 2.17483 27.1554 1.69575 29.7352 5.41459C31.5644 8.65519 31.2089 12.9165 28.2836 15.1581Z" fill="#FBBD3F"/>
<path d="M46.5927 21.3291C44.3419 22.7194 40.2477 22.7868 37.6679 19.068C35.0882 15.3492 36.741 13.0172 38.0293 11.1164C40.4524 8.34585 45.4645 7.86677 48.0443 11.5856C49.8735 14.8262 49.518 19.0875 46.5927 21.3291Z" fill="#FBBD3F"/>
<path d="M59.1391 36.0708C56.8883 37.4612 52.7941 37.5286 50.2143 33.8097C47.6346 30.0909 49.2874 27.7589 50.5757 25.8581C52.9988 23.0875 58.0109 22.6085 60.5907 26.3273C62.4199 29.5679 62.0644 33.8292 59.1391 36.0708Z" fill="#FBBD3F"/>
<path d="M12.9682 22.1342C10.7174 23.5245 6.62318 23.5919 4.04343 19.8731C1.46368 16.1542 3.11649 13.8223 4.40482 11.9214C6.82786 9.1509 11.84 8.67182 14.4198 12.3907C16.249 15.6313 15.8935 19.8926 12.9682 22.1342Z" fill="#FBBD3F"/>
</g>
<path d="M25.8026 50.9153C24.9386 50.9153 24.5066 50.4433 24.5066 49.4993V37.3793L22.7786 38.5073C21.9786 39.0513 21.3546 38.9553 20.9066 38.2193C20.4426 37.4833 20.6106 36.8673 21.4106 36.3713L24.2906 34.5713C24.5786 34.3953 24.8586 34.2753 25.1306 34.2113C25.4026 34.1313 25.7146 34.0913 26.0666 34.0913C26.7386 34.0913 27.0746 34.5633 27.0746 35.5073V49.4993C27.0746 50.4433 26.6506 50.9153 25.8026 50.9153Z" fill="#534741"/>
<defs>
<clipPath id="clip0_151_844">
<rect width="60" height="59" fill="white" transform="translate(2.5 2.00024)"/>
</clipPath>
</defs>
</svg>
