<svg width="64" height="64" viewBox="0 0 64 64" fill="none" xmlns="http://www.w3.org/2000/svg">
<g clip-path="url(#clip0_151_861)">
<path d="M45.5728 40.9155C45.5728 29.8698 36.6185 20.9155 25.5728 20.9155C14.5271 20.9155 5.57275 29.8698 5.57275 40.9155C5.57275 51.9612 14.5271 60.9155 25.5728 60.9155C36.6185 60.9155 45.5728 51.9612 45.5728 40.9155Z" fill="#FBBD3F"/>
<path d="M28.2836 15.1581C26.0328 16.5484 21.9386 16.6158 19.3588 12.897C16.7791 9.17816 18.4319 6.84619 19.7202 4.94535C22.1433 2.17483 27.1554 1.69575 29.7352 5.41459C31.5644 8.65519 31.2089 12.9165 28.2836 15.1581Z" fill="#FBBD3F"/>
<path d="M46.5927 21.3291C44.3419 22.7194 40.2477 22.7868 37.6679 19.068C35.0882 15.3492 36.741 13.0172 38.0293 11.1164C40.4524 8.34585 45.4645 7.86677 48.0443 11.5856C49.8735 14.8262 49.518 19.0875 46.5927 21.3291Z" fill="#FBBD3F"/>
<path d="M59.1391 36.0708C56.8883 37.4612 52.7941 37.5286 50.2143 33.8097C47.6346 30.0909 49.2874 27.7589 50.5757 25.8581C52.9988 23.0875 58.0109 22.6085 60.5907 26.3273C62.4199 29.5679 62.0644 33.8292 59.1391 36.0708Z" fill="#FBBD3F"/>
<path d="M12.9682 22.1342C10.7174 23.5245 6.62318 23.5919 4.04343 19.8731C1.46368 16.1542 3.11649 13.8223 4.40482 11.9214C6.82786 9.1509 11.84 8.67182 14.4198 12.3907C16.249 15.6313 15.8935 19.8926 12.9682 22.1342Z" fill="#FBBD3F"/>
</g>
<path d="M24.4917 51.1553C22.6677 51.1553 21.2997 50.4273 20.3877 48.9713C20.1317 48.5553 20.0677 48.1873 20.1957 47.8673C20.3237 47.5473 20.5717 47.3313 20.9397 47.2193C21.3397 47.0913 21.6677 47.0913 21.9237 47.2193C22.1797 47.3473 22.4597 47.5713 22.7637 47.8913C22.9397 48.1313 23.1637 48.3313 23.4357 48.4913C23.7237 48.6353 24.0597 48.7073 24.4437 48.7073C25.2597 48.7073 25.9077 48.5073 26.3877 48.1073C26.8677 47.7073 27.1077 47.0353 27.1077 46.0913C27.1077 45.2433 26.8677 44.5633 26.3877 44.0513C25.9077 43.5393 25.2197 43.2833 24.3237 43.2833C23.5237 43.2833 23.1237 42.8913 23.1237 42.1073C23.1237 41.3233 23.5237 40.9313 24.3237 40.9313C25.1237 40.9313 25.7157 40.6993 26.0997 40.2353C26.4837 39.7553 26.6757 39.1713 26.6757 38.4833C26.6757 37.6833 26.4437 37.1233 25.9797 36.8033C25.5317 36.4673 25.0197 36.2993 24.4437 36.2993C24.1237 36.2993 23.8357 36.3793 23.5797 36.5393C23.3397 36.6993 23.1317 36.8913 22.9557 37.1153C22.6517 37.4353 22.3637 37.6593 22.0917 37.7873C21.8357 37.9153 21.5157 37.8993 21.1317 37.7393C20.7637 37.5953 20.5237 37.3633 20.4117 37.0433C20.2997 36.7073 20.3877 36.3473 20.6757 35.9633C21.1397 35.2753 21.6997 34.7553 22.3557 34.4033C23.0277 34.0353 23.7397 33.8513 24.4917 33.8513C25.4677 33.8513 26.3157 34.0433 27.0357 34.4273C27.7717 34.7953 28.3397 35.3153 28.7397 35.9873C29.1557 36.6593 29.3637 37.4513 29.3637 38.3633C29.3637 39.1953 29.1397 39.9473 28.6917 40.6193C28.2597 41.2753 27.7077 41.7553 27.0357 42.0593C27.8357 42.3633 28.4837 42.8833 28.9797 43.6193C29.4917 44.3553 29.7477 45.2113 29.7477 46.1873C29.7477 47.7073 29.2837 48.9153 28.3557 49.8113C27.4437 50.7073 26.1557 51.1553 24.4917 51.1553Z" fill="#534741"/>
<defs>
<clipPath id="clip0_151_861">
<rect width="60" height="59" fill="white" transform="translate(2.5 2.00024)"/>
</clipPath>
</defs>
</svg>
