<svg width="64" height="64" viewBox="0 0 64 64" fill="none" xmlns="http://www.w3.org/2000/svg">
<g clip-path="url(#clip0_151_853)">
<path d="M45.5728 40.9155C45.5728 29.8698 36.6185 20.9155 25.5728 20.9155C14.5271 20.9155 5.57275 29.8698 5.57275 40.9155C5.57275 51.9612 14.5271 60.9155 25.5728 60.9155C36.6185 60.9155 45.5728 51.9612 45.5728 40.9155Z" fill="#FBBD3F"/>
<path d="M28.2836 15.1581C26.0328 16.5484 21.9386 16.6158 19.3588 12.897C16.7791 9.17816 18.4319 6.84619 19.7202 4.94535C22.1433 2.17483 27.1554 1.69575 29.7352 5.41459C31.5644 8.65519 31.2089 12.9165 28.2836 15.1581Z" fill="#FBBD3F"/>
<path d="M46.5927 21.3291C44.3419 22.7194 40.2477 22.7868 37.6679 19.068C35.0882 15.3492 36.741 13.0172 38.0293 11.1164C40.4524 8.34585 45.4645 7.86677 48.0443 11.5856C49.8735 14.8262 49.518 19.0875 46.5927 21.3291Z" fill="#FBBD3F"/>
<path d="M59.1391 36.0708C56.8883 37.4612 52.7941 37.5286 50.2143 33.8097C47.6346 30.0909 49.2874 27.7589 50.5757 25.8581C52.9988 23.0875 58.0109 22.6085 60.5907 26.3273C62.4199 29.5679 62.0644 33.8292 59.1391 36.0708Z" fill="#FBBD3F"/>
<path d="M12.9682 22.1342C10.7174 23.5245 6.62318 23.5919 4.04343 19.8731C1.46368 16.1542 3.11649 13.8223 4.40482 11.9214C6.82786 9.1509 11.84 8.67182 14.4198 12.3907C16.249 15.6313 15.8935 19.8926 12.9682 22.1342Z" fill="#FBBD3F"/>
</g>
<path d="M22.2701 50.9153C21.3261 50.9153 20.8541 50.6513 20.8541 50.1233C20.8541 48.9713 21.1501 47.8513 21.7421 46.7633C22.3501 45.6753 23.3581 44.4593 24.7661 43.1153C25.2621 42.6353 25.7341 42.1553 26.1821 41.6753C26.6301 41.1793 26.9981 40.6993 27.2861 40.2353C27.5741 39.7553 27.7261 39.2993 27.7421 38.8673C27.7581 38.0353 27.5661 37.4193 27.1661 37.0193C26.7821 36.6193 26.2301 36.4193 25.5101 36.4193C24.5341 36.4193 23.9101 36.9153 23.6381 37.9073C23.5101 38.3393 23.3421 38.6753 23.1341 38.9153C22.9421 39.1393 22.6381 39.2513 22.2221 39.2513C21.8221 39.2513 21.5021 39.1153 21.2621 38.8433C21.0221 38.5713 20.9581 38.2033 21.0701 37.7393C21.3261 36.5553 21.8461 35.6353 22.6301 34.9793C23.4141 34.3073 24.3741 33.9713 25.5101 33.9713C26.4381 33.9713 27.2621 34.1633 27.9821 34.5473C28.7181 34.9313 29.2941 35.4913 29.7101 36.2273C30.1261 36.9633 30.3181 37.8673 30.2861 38.9393C30.2701 39.6913 30.0941 40.3873 29.7581 41.0273C29.4221 41.6673 28.9741 42.2913 28.4141 42.8993C27.8701 43.4913 27.2461 44.1233 26.5421 44.7953C25.8061 45.5153 25.1501 46.2033 24.5741 46.8593C24.0141 47.5153 23.6861 48.0833 23.5901 48.5633H28.5821C29.5261 48.5633 29.9981 48.9553 29.9981 49.7393C29.9981 50.5233 29.5261 50.9153 28.5821 50.9153H22.2701Z" fill="#534741"/>
<defs>
<clipPath id="clip0_151_853">
<rect width="60" height="59" fill="white" transform="translate(2.5 2.00024)"/>
</clipPath>
</defs>
</svg>
